# Exported from USD: /World/Robotiq_Hand_E_edit/left_gripper/D_A03_ASM_DOIGTS_PARALLELES_1ROBOTIQ_HAND_E_DEFEATURE_01/D_A03_ASM_DOIGTS_PARALLELES_1ROBOTIQ_HAND_E_DEFEATURE
mtllib D_A03_ASM_DOIGTS_PARALLELES_1ROBOTIQ_HAND_E_DEFEATURE.mtl

g D_A03_ASM_DOIGTS_PARALLELES_1ROBOTIQ_HAND_E_DEFEATURE
v 0.01335201 0.01040000 -0.03183910
v 0.01359616 0.01040000 -0.03204340
v 0.01388486 0.01040000 -0.03217755
v 0.01419846 0.01040000 -0.03223241
v 0.01451556 0.01040000 -0.03220423
v 0.01481457 0.01040000 -0.03209495
v 0.01507510 0.01040000 -0.03191200
v 0.01527940 0.01040000 -0.03166784
v 0.01541355 0.01040000 -0.03137914
v 0.01546841 0.01040000 -0.03106554
v 0.01544023 0.01040000 -0.03074844
v 0.01533095 0.01040000 -0.03044943
v 0.01514799 0.01040000 -0.03018890
v 0.01490384 0.01040000 -0.02998460
v 0.01461514 0.01040000 -0.02985045
v 0.01430154 0.01040000 -0.02979559
v 0.01398444 0.01040000 -0.02982377
v 0.01368543 0.01040000 -0.02993305
v 0.01342490 0.01040000 -0.03011601
v 0.01322060 0.01040000 -0.03036016
v 0.01308645 0.01040000 -0.03064886
v 0.01303159 0.01040000 -0.03096246
v 0.01305977 0.01040000 -0.03127956
v 0.01316905 0.01040000 -0.03157857
v 0.01425000 0.01040000 -0.03101400
v 0.01314546 0.01068050 -0.03202888
v 0.01292042 0.01068050 -0.03170842
v 0.01278600 0.01068050 -0.03134064
v 0.01275134 0.01068050 -0.03095060
v 0.01281882 0.01068050 -0.03056488
v 0.01298382 0.01068050 -0.03020976
v 0.01323512 0.01068050 -0.02990946
v 0.01355558 0.01068050 -0.02968442
v 0.01392336 0.01068050 -0.02955000
v 0.01431340 0.01068050 -0.02951534
v 0.01469912 0.01068050 -0.02958282
v 0.01505424 0.01068050 -0.02974782
v 0.01535454 0.01068050 -0.02999912
v 0.01557958 0.01068050 -0.03031958
v 0.01571400 0.01068050 -0.03068736
v 0.01574866 0.01068050 -0.03107740
v 0.01568118 0.01068050 -0.03146312
v 0.01551618 0.01068050 -0.03181824
v 0.01526488 0.01068050 -0.03211854
v 0.01494442 0.01068050 -0.03234358
v 0.01457664 0.01068050 -0.03247800
v 0.01418660 0.01068050 -0.03251266
v 0.01380088 0.01068050 -0.03244518
v 0.01344576 0.01068050 -0.03228018
v 0.01314546 0.01830000 -0.03202888
v 0.01292042 0.01830000 -0.03170842
v 0.01278600 0.01830000 -0.03134064
v 0.01275134 0.01830000 -0.03095060
v 0.01281882 0.01830000 -0.03056488
v 0.01298382 0.01830000 -0.03020976
v 0.01323512 0.01830000 -0.02990946
v 0.01355558 0.01830000 -0.02968442
v 0.01392336 0.01830000 -0.02955000
v 0.01431340 0.01830000 -0.02951534
v 0.01469912 0.01830000 -0.02958282
v 0.01505424 0.01830000 -0.02974782
v 0.01535454 0.01830000 -0.02999912
v 0.01557958 0.01830000 -0.03031958
v 0.01571400 0.01830000 -0.03068736
v 0.01574866 0.01830000 -0.03107740
v 0.01568118 0.01830000 -0.03146312
v 0.01551618 0.01830000 -0.03181824
v 0.01526488 0.01830000 -0.03211854
v 0.01494442 0.01830000 -0.03234358
v 0.01457664 0.01830000 -0.03247800
v 0.01418660 0.01830000 -0.03251266
v 0.01380088 0.01830000 -0.03244518
v 0.01344576 0.01830000 -0.03228018
v 0.01542818 0.01840000 -0.02993146
v 0.01510785 0.01840000 -0.02966341
v 0.01472906 0.01840000 -0.02948740
v 0.01431763 0.01840000 -0.02941543
v 0.01390158 0.01840000 -0.02945240
v 0.01350928 0.01840000 -0.02959578
v 0.01316746 0.01840000 -0.02983582
v 0.01289941 0.01840000 -0.03015615
v 0.01272340 0.01840000 -0.03053494
v 0.01265143 0.01840000 -0.03094637
v 0.01268840 0.01840000 -0.03136242
v 0.01283178 0.01840000 -0.03175472
v 0.01307182 0.01840000 -0.03209654
v 0.01339215 0.01840000 -0.03236459
v 0.01377094 0.01840000 -0.03254060
v 0.01418237 0.01840000 -0.03261257
v 0.01459842 0.01840000 -0.03257560
v 0.01499072 0.01840000 -0.03243222
v 0.01533254 0.01840000 -0.03219218
v 0.01560059 0.01840000 -0.03187185
v 0.01577660 0.01840000 -0.03149306
v 0.01584857 0.01840000 -0.03108163
v 0.01581160 0.01840000 -0.03066558
v 0.01566822 0.01840000 -0.03027328
v 0.01505558 0.01832225 -0.02974571
v 0.01469987 0.01832225 -0.02958042
v 0.01431351 0.01832225 -0.02951284
v 0.01392281 0.01832225 -0.02954755
v 0.01355442 0.01832225 -0.02968220
v 0.01323342 0.01832225 -0.02990761
v 0.01298171 0.01832225 -0.03020842
v 0.01281642 0.01832225 -0.03056413
v 0.01274884 0.01832225 -0.03095049
v 0.01278355 0.01832225 -0.03134119
v 0.01291820 0.01832225 -0.03170959
v 0.01314361 0.01832225 -0.03203058
v 0.01344442 0.01832225 -0.03228229
v 0.01380013 0.01832225 -0.03244758
v 0.01418649 0.01832225 -0.03251516
v 0.01457719 0.01832225 -0.03248045
v 0.01494558 0.01832225 -0.03234580
v 0.01526658 0.01832225 -0.03212039
v 0.01551829 0.01832225 -0.03181958
v 0.01568358 0.01832225 -0.03146387
v 0.01575116 0.01832225 -0.03107751
v 0.01571645 0.01832225 -0.03068681
v 0.01558180 0.01832225 -0.03031842
v 0.01535639 0.01832225 -0.02999742
v 0.01505955 0.01834339 -0.02973946
v 0.01470209 0.01834339 -0.02957337
v 0.01431382 0.01834339 -0.02950545
v 0.01392120 0.01834339 -0.02954033
v 0.01355099 0.01834339 -0.02967564
v 0.01322842 0.01834339 -0.02990216
v 0.01297546 0.01834339 -0.03020445
v 0.01280937 0.01834339 -0.03056191
v 0.01274145 0.01834339 -0.03095018
v 0.01277633 0.01834339 -0.03134280
v 0.01291164 0.01834339 -0.03171301
v 0.01313816 0.01834339 -0.03203558
v 0.01344045 0.01834339 -0.03228854
v 0.01379791 0.01834339 -0.03245463
v 0.01418618 0.01834339 -0.03252256
v 0.01457880 0.01834339 -0.03248767
v 0.01494901 0.01834339 -0.03235235
v 0.01527158 0.01834339 -0.03212583
v 0.01552454 0.01834339 -0.03182355
v 0.01569063 0.01834339 -0.03146609
v 0.01575855 0.01834339 -0.03107782
v 0.01572367 0.01834339 -0.03068520
v 0.01558836 0.01834339 -0.03031499
v 0.01536184 0.01834339 -0.02999242
v 0.01506593 0.01836235 -0.02972941
v 0.01470565 0.01836235 -0.02956200
v 0.01431432 0.01836235 -0.02949354
v 0.01391861 0.01836235 -0.02952870
v 0.01354548 0.01836235 -0.02966508
v 0.01322036 0.01836235 -0.02989339
v 0.01296541 0.01836235 -0.03019807
v 0.01279800 0.01836235 -0.03055835
v 0.01272954 0.01836235 -0.03094968
v 0.01276470 0.01836235 -0.03134539
v 0.01290108 0.01836235 -0.03171852
v 0.01312939 0.01836235 -0.03204364
v 0.01343407 0.01836235 -0.03229859
v 0.01379435 0.01836235 -0.03246600
v 0.01418568 0.01836235 -0.03253446
v 0.01458139 0.01836235 -0.03249929
v 0.01495452 0.01836235 -0.03236292
v 0.01527964 0.01836235 -0.03213461
v 0.01553459 0.01836235 -0.03182993
v 0.01570200 0.01836235 -0.03146965
v 0.01577046 0.01836235 -0.03107832
v 0.01573530 0.01836235 -0.03068261
v 0.01559892 0.01836235 -0.03030948
v 0.01537061 0.01836235 -0.02998436
v 0.01507442 0.01837818 -0.02971604
v 0.01471039 0.01837818 -0.02954689
v 0.01431499 0.01837818 -0.02947772
v 0.01391516 0.01837818 -0.02951325
v 0.01353815 0.01837818 -0.02965105
v 0.01320964 0.01837818 -0.02988173
v 0.01295204 0.01837818 -0.03018958
v 0.01278289 0.01837818 -0.03055361
v 0.01271372 0.01837818 -0.03094901
v 0.01274925 0.01837818 -0.03134884
v 0.01288705 0.01837818 -0.03172585
v 0.01311773 0.01837818 -0.03205436
v 0.01342558 0.01837818 -0.03231196
v 0.01378961 0.01837818 -0.03248111
v 0.01418501 0.01837818 -0.03255028
v 0.01458484 0.01837818 -0.03251475
v 0.01496185 0.01837818 -0.03237695
v 0.01529036 0.01837818 -0.03214627
v 0.01554796 0.01837818 -0.03183842
v 0.01571711 0.01837818 -0.03147440
v 0.01578628 0.01837818 -0.03107899
v 0.01575075 0.01837818 -0.03067916
v 0.01561295 0.01837818 -0.03030215
v 0.01538227 0.01837818 -0.02997364
v 0.01508459 0.01839010 -0.02970004
v 0.01471607 0.01839010 -0.02952880
v 0.01431579 0.01839010 -0.02945878
v 0.01391103 0.01839010 -0.02949474
v 0.01352937 0.01839010 -0.02963424
v 0.01319682 0.01839010 -0.02986777
v 0.01293604 0.01839010 -0.03017941
v 0.01276480 0.01839010 -0.03054793
v 0.01269478 0.01839010 -0.03094821
v 0.01273074 0.01839010 -0.03135297
v 0.01287024 0.01839010 -0.03173463
v 0.01310377 0.01839010 -0.03206718
v 0.01341541 0.01839010 -0.03232796
v 0.01378393 0.01839010 -0.03249920
v 0.01418421 0.01839010 -0.03256922
v 0.01458897 0.01839010 -0.03253325
v 0.01497063 0.01839010 -0.03239376
v 0.01530318 0.01839010 -0.03216023
v 0.01556396 0.01839010 -0.03184859
v 0.01573520 0.01839010 -0.03148007
v 0.01580522 0.01839010 -0.03107979
v 0.01576926 0.01839010 -0.03067503
v 0.01562976 0.01839010 -0.03029337
v 0.01539623 0.01839010 -0.02996082
v 0.01509592 0.01839749 -0.02968219
v 0.01472240 0.01839749 -0.02950863
v 0.01431669 0.01839749 -0.02943766
v 0.01390643 0.01839749 -0.02947411
v 0.01351958 0.01839749 -0.02961551
v 0.01318252 0.01839749 -0.02985221
v 0.01291819 0.01839749 -0.03016808
v 0.01274463 0.01839749 -0.03054160
v 0.01267366 0.01839749 -0.03094731
v 0.01271011 0.01839749 -0.03135757
v 0.01285151 0.01839749 -0.03174442
v 0.01308821 0.01839749 -0.03208148
v 0.01340408 0.01839749 -0.03234581
v 0.01377760 0.01839749 -0.03251937
v 0.01418331 0.01839749 -0.03259034
v 0.01459357 0.01839749 -0.03255389
v 0.01498042 0.01839749 -0.03241249
v 0.01531748 0.01839749 -0.03217579
v 0.01558181 0.01839749 -0.03185992
v 0.01575537 0.01839749 -0.03148640
v 0.01582634 0.01839749 -0.03108069
v 0.01578989 0.01839749 -0.03067043
v 0.01564849 0.01839749 -0.03028358
v 0.01541179 0.01839749 -0.02994652
v 0.01162616 0.01840000 -0.03019061
v 0.01150246 0.01840000 -0.03089777
v 0.01238938 0.01840000 -0.02898900
v 0.01192868 0.01840000 -0.02953957
v 0.01156599 0.01840000 -0.03161284
v 0.01181244 0.01840000 -0.03228711
v 0.01222500 0.01840000 -0.03287461
v 0.01552311 0.01840000 -0.03345156
v 0.01611062 0.01840000 -0.03303900
v 0.01687384 0.01840000 -0.03183739
v 0.01699754 0.01840000 -0.03113023
v 0.01693401 0.01840000 -0.03041516
v 0.01668756 0.01840000 -0.02974089
v 0.01627500 0.01840000 -0.02915338
v 0.01572443 0.01840000 -0.02869268
v 0.01365116 0.01840000 -0.02832999
v 0.01297689 0.01840000 -0.02857644
v 0.01277557 0.01840000 -0.03333532
v 0.01484884 0.01840000 -0.03369801
v 0.01657132 0.01840000 -0.03248843
v 0.01507339 0.01840000 -0.02839016
v 0.01436623 0.01840000 -0.02826646
v 0.01413377 0.01840000 -0.03376154
v 0.01342661 0.01840000 -0.03363784
v 0.01222500 0.02125000 -0.03287461
v 0.01181244 0.02125000 -0.03228711
v 0.01156599 0.02125000 -0.03161284
v 0.01150246 0.02125000 -0.03089777
v 0.01162616 0.02125000 -0.03019061
v 0.01192868 0.02125000 -0.02953957
v 0.01238938 0.02125000 -0.02898900
v 0.01297689 0.02125000 -0.02857644
v 0.01365116 0.02125000 -0.02832999
v 0.01436623 0.02125000 -0.02826646
v 0.01507339 0.02125000 -0.02839016
v 0.01572443 0.02125000 -0.02869268
v 0.01627500 0.02125000 -0.02915338
v 0.01668756 0.02125000 -0.02974089
v 0.01693401 0.02125000 -0.03041516
v 0.01699754 0.02125000 -0.03113023
v 0.01687384 0.02125000 -0.03183739
v 0.01657132 0.02125000 -0.03248843
v 0.01611062 0.02125000 -0.03303900
v 0.01552311 0.02125000 -0.03345156
v 0.01484884 0.02125000 -0.03369801
v 0.01413377 0.02125000 -0.03376154
v 0.01342661 0.02125000 -0.03363784
v 0.01277557 0.02125000 -0.03333532
v 0.01233546 0.02140000 -0.03277313
v 0.01194540 0.02140000 -0.03221767
v 0.01171239 0.02140000 -0.03158018
v 0.01165232 0.02140000 -0.03090410
v 0.01176928 0.02140000 -0.03023552
v 0.01205529 0.02140000 -0.02961999
v 0.01249087 0.02140000 -0.02909946
v 0.01304633 0.02140000 -0.02870940
v 0.01368382 0.02140000 -0.02847639
v 0.01435989 0.02140000 -0.02841632
v 0.01502848 0.02140000 -0.02853328
v 0.01564401 0.02140000 -0.02881929
v 0.01616454 0.02140000 -0.02925487
v 0.01655460 0.02140000 -0.02981033
v 0.01678761 0.02140000 -0.03044782
v 0.01684768 0.02140000 -0.03112389
v 0.01673072 0.02140000 -0.03179248
v 0.01644471 0.02140000 -0.03240801
v 0.01600913 0.02140000 -0.03292854
v 0.01545367 0.02140000 -0.03331860
v 0.01481618 0.02140000 -0.03355161
v 0.01414011 0.02140000 -0.03361168
v 0.01347152 0.02140000 -0.03349472
v 0.01285599 0.02140000 -0.03320871
v 0.01191099 0.02139489 -0.03223564
v 0.01167450 0.02139489 -0.03158863
v 0.01161354 0.02139489 -0.03090246
v 0.01173224 0.02139489 -0.03022390
v 0.01202252 0.02139489 -0.02959917
v 0.01246461 0.02139489 -0.02907087
v 0.01302836 0.02139489 -0.02867499
v 0.01367537 0.02139489 -0.02843850
v 0.01436154 0.02139489 -0.02837753
v 0.01504010 0.02139489 -0.02849624
v 0.01566483 0.02139489 -0.02878652
v 0.01619313 0.02139489 -0.02922861
v 0.01658901 0.02139489 -0.02979236
v 0.01682550 0.02139489 -0.03043937
v 0.01688647 0.02139489 -0.03112553
v 0.01676776 0.02139489 -0.03180410
v 0.01647748 0.02139489 -0.03242882
v 0.01603539 0.02139489 -0.03295713
v 0.01547164 0.02139489 -0.03335301
v 0.01482463 0.02139489 -0.03358950
v 0.01413846 0.02139489 -0.03365047
v 0.01345990 0.02139489 -0.03353176
v 0.01283518 0.02139489 -0.03324148
v 0.01230687 0.02139489 -0.03279939
v 0.01187892 0.02137990 -0.03225239
v 0.01163919 0.02137990 -0.03159651
v 0.01157739 0.02137990 -0.03090094
v 0.01169772 0.02137990 -0.03021307
v 0.01199198 0.02137990 -0.02957978
v 0.01244013 0.02137990 -0.02904423
v 0.01301161 0.02137990 -0.02864292
v 0.01366749 0.02137990 -0.02840319
v 0.01436306 0.02137990 -0.02834139
v 0.01505093 0.02137990 -0.02846172
v 0.01568422 0.02137990 -0.02875599
v 0.01621977 0.02137990 -0.02920413
v 0.01662108 0.02137990 -0.02977561
v 0.01686081 0.02137990 -0.03043149
v 0.01692261 0.02137990 -0.03112706
v 0.01680228 0.02137990 -0.03181493
v 0.01650801 0.02137990 -0.03244822
v 0.01605987 0.02137990 -0.03298377
v 0.01548839 0.02137990 -0.03338508
v 0.01483251 0.02137990 -0.03362481
v 0.01413694 0.02137990 -0.03368661
v 0.01344907 0.02137990 -0.03356628
v 0.01281578 0.02137990 -0.03327202
v 0.01228023 0.02137990 -0.03282387
v 0.01185138 0.02135607 -0.03226677
v 0.01160887 0.02135607 -0.03160328
v 0.01154635 0.02135607 -0.03089962
v 0.01166808 0.02135607 -0.03020377
v 0.01196576 0.02135607 -0.02956312
v 0.01241911 0.02135607 -0.02902136
v 0.01299723 0.02135607 -0.02861538
v 0.01366072 0.02135607 -0.02837287
v 0.01436438 0.02135607 -0.02831035
v 0.01506024 0.02135607 -0.02843208
v 0.01570088 0.02135607 -0.02872976
v 0.01624264 0.02135607 -0.02918311
v 0.01664862 0.02135607 -0.02976123
v 0.01689113 0.02135607 -0.03042473
v 0.01695365 0.02135607 -0.03112838
v 0.01683192 0.02135607 -0.03182423
v 0.01653424 0.02135607 -0.03246488
v 0.01608089 0.02135607 -0.03300665
v 0.01550277 0.02135607 -0.03341262
v 0.01483928 0.02135607 -0.03365513
v 0.01413562 0.02135607 -0.03371765
v 0.01343976 0.02135607 -0.03359592
v 0.01279912 0.02135607 -0.03329824
v 0.01225736 0.02135607 -0.03284489
v 0.01183025 0.02132500 -0.03227781
v 0.01158561 0.02132500 -0.03160847
v 0.01152254 0.02132500 -0.03089862
v 0.01164534 0.02132500 -0.03019663
v 0.01194564 0.02132500 -0.02955034
v 0.01240298 0.02132500 -0.02900380
v 0.01298619 0.02132500 -0.02859425
v 0.01365553 0.02132500 -0.02834961
v 0.01436539 0.02132500 -0.02828654
v 0.01506737 0.02132500 -0.02840934
v 0.01571366 0.02132500 -0.02870964
v 0.01626020 0.02132500 -0.02916698
v 0.01666975 0.02132500 -0.02975019
v 0.01691439 0.02132500 -0.03041953
v 0.01697746 0.02132500 -0.03112938
v 0.01685466 0.02132500 -0.03183137
v 0.01655436 0.02132500 -0.03247766
v 0.01609702 0.02132500 -0.03302420
v 0.01551381 0.02132500 -0.03343375
v 0.01484447 0.02132500 -0.03367839
v 0.01413461 0.02132500 -0.03374146
v 0.01343263 0.02132500 -0.03361866
v 0.01278634 0.02132500 -0.03331836
v 0.01223980 0.02132500 -0.03286102
v 0.01181697 0.02128882 -0.03228474
v 0.01157098 0.02128882 -0.03161173
v 0.01150756 0.02128882 -0.03089798
v 0.01163104 0.02128882 -0.03019214
v 0.01193299 0.02128882 -0.02954231
v 0.01239284 0.02128882 -0.02899277
v 0.01297926 0.02128882 -0.02858097
v 0.01365227 0.02128882 -0.02833498
v 0.01436602 0.02128882 -0.02827156
v 0.01507186 0.02128882 -0.02839504
v 0.01572169 0.02128882 -0.02869699
v 0.01627123 0.02128882 -0.02915684
v 0.01668303 0.02128882 -0.02974326
v 0.01692902 0.02128882 -0.03041627
v 0.01699244 0.02128882 -0.03113002
v 0.01686896 0.02128882 -0.03183586
v 0.01656701 0.02128882 -0.03248569
v 0.01610716 0.02128882 -0.03303523
v 0.01552074 0.02128882 -0.03344703
v 0.01484773 0.02128882 -0.03369302
v 0.01413398 0.02128882 -0.03375643
v 0.01342814 0.02128882 -0.03363296
v 0.01277831 0.02128882 -0.03333101
v 0.01222877 0.02128882 -0.03287116
v 0.01525001 0.02140000 -0.03210235
v 0.01569255 0.02140000 -0.03069215
v 0.01380746 0.02140000 -0.03242421
v 0.01324999 0.02140000 -0.02992564
v 0.01280745 0.02140000 -0.03133585
v 0.01469254 0.02140000 -0.02960379
v 0.01302872 0.02010000 -0.03063075
v 0.01324999 0.02010000 -0.02992564
v 0.01280745 0.02010000 -0.03133585
v 0.01330746 0.02010000 -0.03188003
v 0.01380746 0.02010000 -0.03242421
v 0.01452873 0.02010000 -0.03226328
v 0.01525001 0.02010000 -0.03210235
v 0.01547128 0.02010000 -0.03139725
v 0.01569255 0.02010000 -0.03069215
v 0.01519254 0.02010000 -0.03014797
v 0.01469254 0.02010000 -0.02960379
v 0.01397127 0.02010000 -0.02976472
v 0.01552886 0.02010000 -0.03106810
v 0.01549928 0.02010000 -0.03073527
v 0.01538457 0.02010000 -0.03042142
v 0.01356372 0.02010000 -0.03209447
v 0.01386675 0.02010000 -0.03223528
v 0.01419590 0.02010000 -0.03229286
v 0.01484257 0.02010000 -0.03214857
v 0.01511603 0.02010000 -0.03195654
v 0.01533047 0.02010000 -0.03170028
v 0.01493628 0.02010000 -0.02993353
v 0.01463325 0.02010000 -0.02979272
v 0.01430410 0.02010000 -0.02973514
v 0.01365743 0.02010000 -0.02987943
v 0.01338397 0.02010000 -0.03007146
v 0.01316953 0.02010000 -0.03032772
v 0.01297114 0.02010000 -0.03095990
v 0.01300072 0.02010000 -0.03129273
v 0.01311543 0.02010000 -0.03160657
v 0.01425000 0.01936099 -0.03101400
vt 5.49778700 -2.01959538
vt 1.04719758 -1.79519582
vt 4.97418833 -0.03475000
vt -0.00037490 -0.00131193
vt 3.92699075 -0.03190000
vt 1.04719758 0.52359879
vt 3.92699075 -0.04246950
vt 4.97418833 -2.69279361
vt 4.97418833 0.00000000
vt -0.00183848 -0.00183848
vt 1.04719758 -0.03190000
vt 0.26179940 1.04719758
vt 5.75958633 -0.03190000
vt -0.00238851 -0.00285703
vt 5.75958633 -1.79519582
vt 1.04719758 -2.01959538
vt -0.00000000 0.00000000
vt 5.49778700 1.04719758
vt -0.00183848 0.00183848
vt 5.49778700 0.00000000
vt 2.61799383 -1.79519582
vt 0.52359879 -2.91719317
vt 0.52359879 -0.03485000
vt 6.28318548 -0.03190000
vt 3.27249241 -0.00073901
vt 3.66519141 0.78539819
vt 3.66519141 1.57079637
vt 2.35619450 -0.03475000
vt -0.00137500 -0.00513157
vt 4.18879032 0.78539819
vt 4.45058966 0.00000000
vt 6.02138615 -3.14159274
vt 0.00080000 -0.00413564
vt -0.00080000 -0.00136436
vt 0.00105612 -0.00060975
vt 3.14159274 -1.79519582
vt -0.00000000 -0.00435000
vt 2.09439516 0.00000000
vt 4.18879032 -0.03475000
vt 0.26179940 0.52359879
vt 4.45058966 -2.91719317
vt 2.61799383 -2.01959538
vt 4.45058966 -0.03485000
vt 1.30899692 -0.03485000
vt 2.61799383 -2.91719317
vt 2.61799383 -0.03485000
vt 1.30899692 -2.91719317
vt 1.57079637 0.00000000
vt 0.52359879 0.00000000
vt 0.91629785 -0.00073901
vt 1.83259571 -0.04246950
vt 5.36688757 -0.00073901
vt 2.09439516 0.26179940
vt 4.97418833 -1.57079637
vt 6.02138615 -2.69279361
vt 0.78539819 1.30899692
vt 6.28318548 0.26179940
vt 4.45058966 0.00028050
vt 0.00000000 0.00000000
vt 6.54498482 -0.04246950
vt 1.04719758 -3.14159274
vt 0.78539819 0.52359879
vt 5.23598766 0.00000000
vt 4.45058966 0.52359879
vt 3.92699075 -2.01959538
vt 3.66519141 -1.57079637
vt 0.78539819 -1.57079637
vt -0.00251141 0.00067293
vt -0.00117795 -0.00090387
vt -0.00265630 -0.00346175
vt 6.54498482 -2.69279361
vt 2.35619450 -2.46839428
vt 6.02138615 -1.57079637
vt -0.00192000 -0.00110851
vt -0.00147802 -0.00130000
vt 4.71238899 1.57079637
vt 3.92699075 -2.46839428
vt 1.04719758 1.57079637
vt 6.54498482 -1.57079637
vt 6.02138615 0.52359879
vt -0.00017149 -0.00285703
vt 3.66519141 0.00000000
vt -0.00031563 -0.00239745
vt 0.78539819 -2.69279361
vt 4.18879032 0.00000000
vt 1.30899692 -2.46839428
vt 6.02138615 -2.46839428
vt 6.54498482 1.04719758
vt 6.28318548 -2.24399471
vt -0.00000000 -0.00147802
vt 3.66519141 -0.04246950
vt 0.00000000 1.30899692
vt 2.09439516 -2.69279361
vt 1.57079637 -0.03190000
vt 3.92699075 -2.24399471
vt 0.00130000 0.00225167
vt 0.26179940 0.26179940
vt -0.00004361 -0.00254831
vt 0.00130000 -0.00225167
vt 0.52359879 0.00000000
vt 1.30899692 -1.79519582
vt 1.30899692 -2.01959538
vt 3.66519141 -3.14159274
vt 4.18879032 -3.14159274
vt 1.83259571 0.78539819
vt 6.28318548 -2.46839428
vt 3.66519141 -1.79519582
vt 2.61799383 1.57079637
vt -0.00041411 -0.00120452
vt 1.57079637 -1.57079637
vt 3.40339208 -0.03475000
vt 0.00154548 -0.00233589
vt 5.49778700 0.78539819
vt 2.35619450 -1.79519582
vt 3.92699075 -2.91719317
vt 3.40339208 0.00000000
vt 4.71238899 -2.46839428
vt 3.92699075 -0.03485000
vt 5.75958633 0.26179940
vt 6.28318548 -2.01959538
vt 5.75958633 -2.91719317
vt -0.00117795 -0.00153513
vt 4.97418833 -2.01959538
vt 0.00071175 -0.00540630
vt 5.75958633 -0.03485000
vt 3.92699075 0.26179940
vt 2.87979317 -1.79519582
vt -0.00194454 -0.00469454
vt 1.04719758 0.78539819
vt 0.26179940 -2.24399471
vt 0.00238157 -0.00137500
vt 0.78539819 -0.03190000
vt 2.35619450 0.00000000
vt 4.71238899 -2.01959538
vt 3.14159274 0.00000000
vt 2.61799383 0.00000000
vt 3.66519141 -2.01959538
vt 1.96349537 -0.00073901
vt 0.26179940 0.00000000
vt 4.71238899 0.00028050
vt 0.00000000 -0.03485000
vt 0.26179940 -2.69279361
vt 1.57079637 -1.79519582
vt 5.75958633 0.00000000
vt 0.00117795 -0.00090387
vt -0.00064000 -0.00110851
vt -0.00251141 -0.00067293
vt 3.14159274 0.26179940
vt 1.57079637 -0.03475000
vt 3.40339208 -1.57079637
vt 1.30899692 -0.03190000
vt 4.71238899 1.04719758
vt 4.18879032 -2.69279361
vt 1.30899692 -0.04246950
vt 0.00105612 -0.00182925
vt -0.00041411 -0.00429548
vt 6.28318548 -3.14159274
vt -0.00218510 -0.00131193
vt 0.26179940 0.00000000
vt 4.71238899 -2.91719317
vt 4.71238899 -0.03485000
vt -0.00128000 -0.00093703
vt 5.49778700 0.00000000
vt 0.52359879 0.00000000
vt 0.00000000 1.04719758
vt 3.40339208 1.30899692
vt 4.71238899 -3.14159274
vt 2.35619450 0.00000000
vt 0.00128000 0.00073901
vt 4.05789042 -0.00073901
vt 5.49778700 -0.04246950
vt 1.83259571 -2.91719317
vt 1.83259571 -0.03485000
vt 6.28318548 -0.04246950
vt 0.52359879 -1.57079637
vt 5.49778700 -2.91719317
vt -0.00121950 -0.00121950
vt 5.49778700 -0.03485000
vt -0.00265630 -0.00203825
vt 6.28318548 1.30899692
vt 0.00000000 -0.00000000
vt 4.97418833 0.26179940
vt 2.09439516 -2.46839428
vt 1.83259571 -3.14159274
vt 3.92699075 0.52359879
vt 2.87979317 0.00000000
vt 1.04719758 -0.04246950
vt 4.71238899 -0.04246950
vt 5.49778700 -3.14159274
vt 0.00194454 -0.00080546
vt 5.23598766 -2.01959538
vt 1.04719758 0.00000000
vt 0.52359879 1.30899692
vt 6.28318548 -2.69279361
vt 0.00137500 -0.00513157
vt 6.02138615 0.26179940
vt -0.00130000 -0.00225167
vt 6.28318548 -1.57079637
vt 0.52359879 1.04719758
vt 4.45058966 -2.69279361
vt -0.00094871 -0.00345341
vt 1.57079637 -2.91719317
vt 1.57079637 -0.03485000
vt 6.02138615 1.30899692
vt 3.66519141 1.30899692
vt 2.61799383 0.00000000
vt 6.28318548 0.00000000
vt 6.54498482 0.00000000
vt 2.09439516 1.04719758
vt 2.87979317 0.00028050
vt 1.04719758 -1.57079637
vt 2.35619450 1.57079637
vt 5.23598766 -0.00000000
vt 1.30899692 0.78539819
vt 0.52359879 -3.14159274
vt 4.45058966 1.04719758
vt 0.52359879 -2.69279361
vt 2.87979317 1.04719758
vt 1.83259571 -2.69279361
vt 0.39269909 -0.00073901
vt 0.00183848 0.00183848
vt 1.83259571 -2.01959538
vt 1.04719758 1.04719758
vt 0.52359879 0.26179940
vt -0.00086232 -0.00035718
vt 0.78539819 -3.14159274
vt 0.00041411 -0.00120452
vt 1.30899692 1.57079637
vt 2.87979317 1.30899692
vt 5.23598766 -3.14159274
vt 2.09439516 -0.03475000
vt 3.40339208 0.00028050
vt 3.53429174 -0.00073901
vt 1.04719758 0.00000000
vt 1.83259571 0.52359879
vt -0.00000000 0.00028050
vt 5.75958633 -0.03475000
vt 6.28318548 0.78539819
vt 4.45058966 -2.46839428
vt 3.40339208 -2.01959538
vt 6.54498482 0.52359879
vt 0.00000000 -0.00130000
vt 2.61799383 -2.46839428
vt 0.00225167 -0.00130000
vt 4.45058966 0.26179940
vt 4.97418833 0.78539819
vt 5.75958633 0.78539819
vt 0.78539819 -0.04246950
vt 6.28318548 -0.03475000
vt 3.14159274 -1.57079637
vt 5.23598766 -0.04246950
vt -0.00000000 -0.00550000
vt 5.23598766 -2.69279361
vt 2.87979317 0.00000000
vt 1.57079637 1.30899692
vt 4.71238899 0.78539819
vt 0.00031563 -0.00004155
vt 0.00194454 -0.00469454
vt 4.18879032 0.00028050
vt 3.40339208 0.00000000
vt -0.00238851 -0.00157703
vt 3.40339208 1.04719758
vt 4.97418833 -1.79519582
vt 1.04719758 -0.03475000
vt -0.00238157 -0.00137500
vt 0.00000000 0.78539819
vt 0.00060975 -0.00016338
vt 5.75958633 -2.69279361
vt 5.23598766 -1.57079637
vt 2.09439516 -0.03190000
vt 2.35619450 -2.01959538
vt -0.00000000 -0.00221703
vt -0.00137500 -0.00036843
vt 2.61799383 -2.69279361
vt 3.14159274 -2.46839428
vt 4.18879032 0.00000000
vt 6.02138615 -0.03485000
vt 1.57079637 0.00000000
vt 4.97418833 1.30899692
vt 6.02138615 -2.91719317
vt 0.26179940 0.00000000
vt 1.57079637 0.00000000
vt 0.52359879 -0.03475000
vt 0.00031563 -0.00239745
vt 5.49778700 0.00028050
vt 2.61799383 -0.03475000
vt 3.66519141 -0.03190000
vt 6.02138615 1.04719758
vt 0.26179940 -0.03475000
vt 1.30899692 -3.14159274
vt 0.52359879 0.78539819
vt 6.54498482 0.26179940
vt 4.97418833 -0.04246950
vt 0.78539819 0.78539819
vt 0.78539819 1.57079637
vt 5.75958633 -0.04246950
vt -0.00161129 -0.00345341
vt 6.02138615 -1.79519582
vt -0.00128000 -0.00369504
vt 0.00067293 0.00251141
vt 3.79609108 -0.00073901
vt 5.23598766 0.78539819
vt 5.23598766 1.57079637
vt 2.35619450 -3.14159274
vt 6.54498482 1.30899692
vt 4.71238899 0.00000000
vt 4.71238899 -2.69279361
vt 1.30899692 1.04719758
vt 0.26179940 0.00028050
vt 4.71238899 0.00000000
vt 0.00060975 -0.00227562
vt -0.00000000 -0.00295603
vt 1.57079637 0.00028050
vt 1.83259571 1.30899692
vt 0.52359879 0.00028050
vt -0.00094871 -0.00098064
vt 2.87979317 0.26179940
vt 3.92699075 -1.79519582
vt 4.97418833 -3.14159274
vt 5.75958633 -3.14159274
vt 5.23598766 -0.03190000
vt 3.14159274 -0.03485000
vt 0.26179940 -2.91719317
vt 3.14159274 -2.91719317
vt 0.26179940 -0.03485000
vt 1.83259571 -2.24399471
vt 6.54498482 -1.79519582
vt 5.49778700 0.00000000
vt 2.35619450 -0.04246950
vt 4.97418833 -2.91719317
vt 4.97418833 -0.03485000
vt -0.00067293 -0.00251141
vt -0.00154548 -0.00316411
vt 2.61799383 1.04719758
vt 6.28318548 1.04719758
vt 6.54498482 -2.24399471
vt 0.00000000 0.26179940
vt 6.28318548 0.00000000
vt 1.30899692 -1.57079637
vt 3.40339208 -0.03190000
vt 6.02138615 -0.03475000
vt 0.00160000 -0.00275000
vt 1.43989658 -0.00073901
vt 2.09439516 -1.57079637
vt 1.83259571 1.57079637
vt 3.66519141 0.26179940
vt 1.83259571 0.00000000
vt 1.30899692 0.52359879
vt 1.30899692 0.00000000
vt 4.97418833 0.00028050
vt 0.00000000 1.57079637
vt 3.14159274 0.00000000
vt 4.18879032 -2.46839428
vt 3.14159274 1.57079637
vt 0.00086232 -0.00208182
vt 3.40339208 0.78539819
vt 2.35619450 -1.57079637
vt -0.00000000 -0.00147802
vt 0.52359879 -0.04246950
vt 6.28318548 0.00028050
vt 1.83259571 0.00000000
vt 1.04719758 -0.03485000
vt -0.00113137 -0.00161863
vt 1.04719758 1.30899692
vt 1.04719758 -2.91719317
vt 4.45058966 0.00000000
vt 5.49778700 0.52359879
vt -0.00060975 -0.00016338
vt 3.66519141 -2.69279361
vt 5.75958633 -2.01959538
vt 0.78539819 0.00000000
vt 1.17809725 -0.00073901
vt 2.74889350 -0.00073901
vt -0.00218510 -0.00312212
vt 6.28318548 1.57079637
vt 2.87979317 -1.57079637
vt 0.00138564 -0.00355000
vt 4.97418833 -2.46839428
vt 4.71238899 0.52359879
vt -0.00128000 0.00073901
vt 3.14159274 -2.24399471
vt 4.97418833 1.57079637
vt -0.00225167 -0.00130000
vt 3.40339208 0.00000000
vt 2.87979317 -2.91719317
vt 2.87979317 -0.03485000
vt -0.00130000 0.00225167
vt 2.09439516 -2.91719317
vt 2.09439516 -0.03485000
vt 3.66519141 -0.03475000
vt -0.00138564 -0.00355000
vt 4.45058966 -0.03190000
vt 2.35619450 0.78539819
vt 0.00000000 0.52359879
vt 2.61799383 -0.03190000
vt -0.00192000 -0.00332554
vt 3.40339208 -2.69279361
vt 0.78539819 0.00000000
vt 4.18879032 0.26179940
vt -0.00031563 -0.00004155
vt 4.97418833 -2.24399471
vt 5.75958633 -2.24399471
vt 0.78539819 0.00000000
vt -0.00086232 -0.00208182
vt 6.54498482 -2.91719317
vt 0.26179940 -1.79519582
vt 1.57079637 -2.46839428
vt 5.23598766 1.30899692
vt 3.66519141 -2.91719317
vt 1.57079637 -2.69279361
vt 3.66519141 -0.03485000
vt -0.00251639 -0.00254831
vt 0.52359879 -2.01959538
vt 3.92699075 0.00028050
vt 1.57079637 0.52359879
vt 1.57079637 1.57079637
vt 2.61799383 1.30899692
vt 4.18879032 -1.79519582
vt 0.26179940 1.57079637
vt 6.02138615 0.00000000
vt 3.40339208 -0.04246950
vt 0.00071175 -0.00009370
vt 5.75958633 0.00028050
vt -0.00147802 0.00000000
vt 0.78539819 -2.01959538
vt 4.84328890 -0.00073901
vt 0.78539819 0.00028050
vt 2.35619450 -2.24399471
vt 2.48709416 -0.00073901
vt 2.61799383 0.26179940
vt -0.00113137 -0.00388137
vt 5.89048624 -0.00073901
vt 0.00265630 -0.00203825
vt 3.66519141 1.04719758
vt 2.87979317 -2.46839428
vt 0.00086232 -0.00035718
vt 3.40339208 -3.14159274
vt 2.61799383 0.00000000
vt 5.23598766 0.52359879
vt 3.92699075 0.00000000
vt 2.87979317 0.52359879
vt 6.15228558 -0.00073901
vt 1.30899692 -2.24399471
vt 4.45058966 -1.57079637
vt 0.00117795 -0.00153513
vt -0.00260000 -0.00000000
vt 2.87979317 -2.01959538
vt 4.97418833 -0.03190000
vt 1.83259571 1.04719758
vt 0.00275000 -0.00275000
vt 5.49778700 -2.69279361
vt 0.52359879 -2.24399471
vt 3.92699075 0.00000000
vt 5.49778700 -2.24399471
vt 3.66519141 -2.46839428
vt 6.28318548 -1.79519582
vt 5.10508823 -0.00073901
vt 6.02138615 0.00028050
vt -0.00256000 -0.00295603
vt 4.18879032 -1.57079637
vt 1.83259571 -1.57079637
vt 1.57079637 -3.14159274
vt 0.00128000 -0.00073901
vt 0.00251141 -0.00067293
vt 4.71238899 -2.24399471
vt 1.30899692 0.00000000
vt -0.00017149 -0.00157703
vt -0.00071175 -0.00009370
vt 3.14159274 0.00000000
vt 2.09439516 1.57079637
vt 3.14159274 0.52359879
vt 1.83259571 0.00000000
vt 4.45058966 -3.14159274
vt 3.14159274 -2.01959538
vt -0.00154548 -0.00233589
vt -0.00073901 0.00000000
vt 2.35619450 1.04719758
vt 6.02138615 0.00000000
vt 2.35619450 0.00000000
vt 3.40339208 -2.46839428
vt 5.49778700 0.26179940
vt 2.09439516 0.52359879
vt 4.97418833 0.52359879
vt 1.04719758 -2.69279361
vt 5.75958633 0.52359879
vt 4.97418833 0.00000000
vt 6.54498482 -0.03475000
vt 1.30899692 0.00028050
vt 3.01069307 -0.00073901
vt 2.09439516 0.00028050
vt 0.00154548 -0.00316411
vt 0.78539819 0.26179940
vt 2.87979317 -0.03190000
vt -0.00128000 -0.00349702
vt 4.71238899 0.26179940
vt 3.14159274 1.04719758
vt -0.00080000 -0.00413564
vt 1.57079637 -2.24399471
vt 5.23598766 -1.79519582
vt 3.40339208 -2.24399471
vt -0.00071175 -0.00540630
vt 2.35619450 0.00028050
vt -0.00067293 0.00251141
vt 0.00121950 -0.00121950
vt 2.87979317 1.57079637
vt 6.02138615 1.57079637
vt 0.26179940 1.30899692
vt 0.00238157 -0.00412500
vt 2.35619450 0.52359879
vt 0.00000000 0.00260000
vt 3.14159274 -3.14159274
vt 2.09439516 0.00000000
vt 2.09439516 0.00000000
vt 3.14159274 -2.69279361
vt 1.83259571 -0.03190000
vt 4.71238899 -1.57079637
vt 0.00138564 -0.00195000
vt 4.18879032 0.52359879
vt 0.26179940 -2.46839428
vt 2.87979317 -2.24399471
vt 5.23598766 -2.24399471
vt 0.78539819 -2.91719317
vt 0.78539819 -0.03485000
vt 1.70169604 -0.00073901
vt 0.00067293 -0.00251141
vt 1.83259571 0.26179940
vt 1.57079637 0.78539819
vt 3.40339208 0.26179940
vt 0.26179940 -2.01959538
vt 0.52359879 0.52359879
vt 5.62868690 -0.00073901
vt 0.00183848 -0.00183848
vt 0.78539819 -0.03475000
vt 2.61799383 0.52359879
vt -0.00004361 -0.00188574
vt 4.18879032 -2.91719317
vt -0.00238157 -0.00412500
vt 4.45058966 -0.03475000
vt 4.18879032 -0.03485000
vt 5.75958633 1.57079637
vt 2.61799383 -1.57079637
vt -0.00225167 0.00130000
vt 3.66519141 -2.24399471
vt -0.00000000 -0.00243900
vt 3.66519141 0.00000000
vt 4.45058966 0.78539819
vt 3.92699075 1.57079637
vt 1.04719758 -2.46839428
vt 4.71238899 -0.03190000
vt 2.87979317 0.78539819
vt 0.00041411 -0.00429548
vt 3.92699075 0.00000000
vt 0.65449846 -0.00073901
vt 4.58148909 -0.00073901
vt 4.71238899 -1.79519582
vt 3.92699075 -1.57079637
vt -0.00000000 -0.00121950
vt 0.78539819 -1.79519582
vt -0.00128000 -0.00073901
vt 3.92699075 -2.69279361
vt 5.49778700 -0.03190000
vt 2.09439516 -1.79519582
vt 0.26179940 -3.14159274
vt 0.00260000 0.00000000
vt 6.02138615 -2.01959538
vt 5.75958633 1.04719758
vt 2.09439516 -2.24399471
vt 3.92699075 1.30899692
vt 1.30899692 -2.69279361
vt 2.61799383 -3.14159274
vt 3.92699075 1.04719758
vt 0.26179940 -0.04246950
vt 3.14159274 0.78539819
vt 1.57079637 -0.04246950
vt 1.30899692 -0.03475000
vt 3.40339208 0.52359879
vt 2.35619450 -2.69279361
vt 6.54498482 -2.46839428
vt -0.00037490 -0.00312212
vt 3.92699075 -3.14159274
vt 2.09439516 0.78539819
vt 4.97418833 0.00000000
vt 2.35619450 -2.91719317
vt 3.14159274 0.00028050
vt 2.35619450 -0.03485000
vt 2.87979317 -2.69279361
vt 0.26179940 -1.57079637
vt 2.61799383 0.00028050
vt 5.49778700 -0.03475000
vt 4.45058966 -0.04246950
vt 2.87979317 0.00000000
vt 6.54498482 -2.01959538
vt 4.18879032 -2.24399471
vt 1.04719758 0.26179940
vt 2.87979317 -0.04246950
vt 4.71238899 0.00000000
vt 1.04719758 0.00000000
vt 5.23598766 -2.46839428
vt 1.83259571 0.00028050
vt -0.00194454 -0.00080546
vt -0.00105612 -0.00182925
vt 1.57079637 1.04719758
vt 0.00113137 -0.00161863
vt 4.71238899 -0.03475000
vt 3.14159274 1.30899692
vt 6.02138615 -0.04246950
vt 0.00265630 -0.00346175
vt 2.61799383 -2.24399471
vt -0.00256000 -0.00221703
vt 2.87979317 -3.14159274
vt 6.02138615 0.00000000
vt -0.00160000 -0.00275000
vt 2.35619450 0.26179940
vt 3.66519141 0.52359879
vt -0.00000000 -0.00115000
vt 0.13089970 -0.00073901
vt 4.97418833 1.04719758
vt 5.23598766 1.04719758
vt 6.28318548 -2.91719317
vt 1.04719758 0.00028050
vt 4.45058966 0.00000000
vt -0.00000000 -0.00000000
vt 3.40339208 -1.79519582
vt 0.52359879 -0.03190000
vt 6.28318548 -0.03485000
vt 0.00000000 -0.03190000
vt 1.57079637 -2.01959538
vt 0.52359879 1.57079637
vt 0.26179940 0.78539819
vt 1.04719758 -2.24399471
vt 6.54498482 -3.14159274
vt 4.18879032 -2.01959538
vt 3.14159274 -0.04246950
vt -0.00064000 -0.00332554
vt 1.30899692 0.26179940
vt 5.23598766 0.00028050
vt -0.00256000 -0.00147802
vt 4.71238899 1.30899692
vt 5.49778700 -1.57079637
vt 6.28318548 -0.00000000
vt 4.18879032 -0.03190000
vt 0.00000000 0.00147802
vt 2.61799383 0.78539819
vt 5.75958633 -2.46839428
vt 4.45058966 1.57079637
vt 5.23598766 -2.91719317
vt 4.45058966 -2.01959538
vt 5.23598766 -0.03485000
vt 2.09439516 -0.04246950
vt 4.45058966 1.30899692
vt 5.49778700 1.30899692
vt 0.00080000 -0.00136436
vt 3.66519141 0.00000000
vt -0.00060975 -0.00227562
vt 3.92699075 -0.03475000
vt 4.18879032 1.04719758
vt 6.02138615 -0.03190000
vt 5.49778700 1.57079637
vt 5.23598766 0.00000000
vt 3.40339208 -2.91719317
vt 3.40339208 -0.03485000
vt 3.92699075 0.78539819
vt 4.18879032 1.30899692
vt 2.09439516 -3.14159274
vt 2.87979317 -0.03475000
vt 0.00225167 0.00130000
vt 5.23598766 -0.03475000
vt 1.30899692 1.30899692
vt 4.45058966 -1.79519582
vt -0.00275000 -0.00275000
vt -0.00138564 -0.00195000
vt 6.02138615 0.78539819
vt 0.00137500 -0.00036843
vt 3.66519141 0.00028050
vt 0.00113137 -0.00388137
vt -0.00251639 -0.00188574
vt 6.54498482 0.00000000
vt 5.49778700 -1.79519582
vt 2.35619450 1.30899692
vt 0.52359879 -1.79519582
vt 0.78539819 1.04719758
vt 0.78539819 -2.24399471
vt 1.83259571 -1.79519582
vt 1.30899692 0.00000000
vt 5.75958633 0.00000000
vt -0.00000000 -0.00260000
vt 4.45058966 -2.24399471
vt -0.00105612 -0.00060975
vt 4.18879032 0.00000000
vt -0.00161129 -0.00098064
vt 0.00251141 0.00067293
vt 4.18879032 1.57079637
vt 4.18879032 -0.04246950
vt 5.75958633 -1.57079637
vt 4.31968975 -0.00073901
vt 3.14159274 -0.03190000
vt 0.52359879 -2.46839428
vt 1.83259571 -2.46839428
vt 0.26179940 -0.03190000
vt 1.83259571 -0.03475000
vt 5.49778700 -2.46839428
vt 2.22529483 -0.00073901
vt 2.09439516 1.30899692
vt 1.57079637 0.26179940
vt 6.02138615 -2.24399471
vt 0.78539819 -2.46839428
vt 3.14159274 -0.03475000
vt 2.09439516 -2.01959538
vt 2.61799383 -0.04246950
vt 2.35619450 -0.03190000
vt 5.75958633 1.30899692
vt 6.28318548 0.52359879
vt 5.75958633 0.00000000
vt 3.40339208 1.57079637
vt 6.54498482 0.78539819
vt 5.23598766 0.26179940
usemtl Nobel
f 470/1 469/2 468/3
f 443/4 469/2 470/5
f 470/6 440/7 466/8
f 467/9 440/7 470/10
f 468/3 467/9 470/11
f 470/12 464/13 451/14
f 465/15 464/13 470/16
f 466/8 465/15 470/17
f 470/18 462/19 461/20
f 463/21 462/19 470/22
f 451/14 463/21 470/23
f 470/24 454/25 453/26
f 449/27 454/25 470/28
f 461/20 449/27 470/29
f 470/30 447/31 460/32
f 452/33 447/31 470/34
f 453/26 452/33 470/35
f 470/36 458/37 445/38
f 459/39 458/37 470/40
f 460/32 459/39 470/41
f 470/42 456/43 455/44
f 457/45 456/43 470/46
f 445/38 457/45 470/47
f 455/44 443/48 470/49
f 290/50 314/51 291/52
f 314/51 315/53 291/52
f 291/52 315/53 292/54
f 315/53 316/55 292/54
f 292/54 316/55 293/56
f 316/55 317/57 293/56
f 293/56 317/57 294/58
f 317/57 318/59 294/58
f 294/58 318/59 295/60
f 318/59 319/61 295/60
f 295/60 319/61 296/62
f 319/61 320/63 296/62
f 296/62 320/63 297/64
f 320/63 321/65 297/64
f 297/64 321/65 298/66
f 321/65 322/67 298/66
f 298/66 322/67 299/68
f 322/67 323/69 299/68
f 299/68 323/69 300/70
f 323/69 324/71 300/70
f 300/70 324/71 301/72
f 324/71 325/73 301/72
f 301/72 325/73 302/74
f 325/73 326/75 302/74
f 302/74 326/75 303/76
f 326/75 327/77 303/76
f 303/76 327/77 304/78
f 327/77 328/79 304/78
f 304/78 328/79 305/80
f 328/79 329/81 305/80
f 305/80 329/81 306/82
f 329/81 330/83 306/82
f 306/82 330/83 307/84
f 330/83 331/85 307/84
f 307/84 331/85 308/86
f 331/85 332/87 308/86
f 308/86 332/87 309/88
f 332/87 333/89 309/88
f 309/88 333/89 310/90
f 333/89 334/91 310/90
f 310/90 334/91 311/92
f 334/91 335/93 311/92
f 311/92 335/93 312/94
f 335/93 336/95 312/94
f 312/94 336/95 313/96
f 336/95 337/97 313/96
f 313/96 337/97 290/98
f 337/97 314/99 290/98
f 337/100 338/101 314/51
f 338/101 339/102 314/51
f 314/51 339/102 315/53
f 339/102 340/103 315/53
f 315/53 340/103 316/55
f 340/103 341/104 316/55
f 316/55 341/104 317/57
f 341/104 342/105 317/57
f 317/57 342/105 318/59
f 342/105 343/106 318/59
f 318/59 343/106 319/61
f 343/106 344/107 319/61
f 319/61 344/107 320/63
f 344/107 345/108 320/63
f 320/63 345/108 321/65
f 345/108 346/109 321/65
f 321/65 346/109 322/67
f 346/109 347/110 322/67
f 322/67 347/110 323/69
f 347/110 348/111 323/69
f 323/69 348/111 324/71
f 348/111 349/112 324/71
f 324/71 349/112 325/73
f 349/112 350/113 325/73
f 325/73 350/113 326/75
f 350/113 351/114 326/75
f 326/75 351/114 327/77
f 351/114 352/115 327/77
f 327/77 352/115 328/79
f 352/115 353/116 328/79
f 328/79 353/116 329/81
f 353/116 354/117 329/81
f 329/81 354/117 330/83
f 354/117 355/118 330/83
f 330/83 355/118 331/85
f 355/118 356/119 331/85
f 331/85 356/119 332/87
f 356/119 357/120 332/87
f 332/87 357/120 333/89
f 357/120 358/121 333/89
f 333/89 358/121 334/91
f 358/121 359/122 334/91
f 334/91 359/122 335/93
f 359/122 360/123 335/93
f 335/93 360/123 336/95
f 360/123 361/124 336/95
f 336/95 361/124 337/97
f 361/124 338/125 337/97
f 361/126 362/127 338/101
f 362/127 363/128 338/101
f 338/101 363/128 339/102
f 363/128 364/129 339/102
f 339/102 364/129 340/103
f 364/129 365/130 340/103
f 340/103 365/130 341/104
f 365/130 366/131 341/104
f 341/104 366/131 342/105
f 366/131 367/132 342/105
f 342/105 367/132 343/106
f 367/132 368/133 343/106
f 343/106 368/133 344/107
f 368/133 369/134 344/107
f 344/107 369/134 345/108
f 369/134 370/135 345/108
f 345/108 370/135 346/109
f 370/135 371/136 346/109
f 346/109 371/136 347/110
f 371/136 372/137 347/110
f 347/110 372/137 348/111
f 372/137 373/138 348/111
f 348/111 373/138 349/112
f 373/138 374/139 349/112
f 349/112 374/139 350/113
f 374/139 375/140 350/113
f 350/113 375/140 351/114
f 375/140 376/141 351/114
f 351/114 376/141 352/115
f 376/141 377/142 352/115
f 352/115 377/142 353/116
f 377/142 378/143 353/116
f 353/116 378/143 354/117
f 378/143 379/144 354/117
f 354/117 379/144 355/118
f 379/144 380/145 355/118
f 355/118 380/145 356/119
f 380/145 381/146 356/119
f 356/119 381/146 357/120
f 381/146 382/147 357/120
f 357/120 382/147 358/121
f 382/147 383/148 358/121
f 358/121 383/148 359/122
f 383/148 384/149 359/122
f 359/122 384/149 360/123
f 384/149 385/150 360/123
f 360/123 385/150 361/124
f 385/150 362/151 361/124
f 385/152 386/153 362/127
f 386/153 387/154 362/127
f 362/127 387/154 363/128
f 387/154 388/155 363/128
f 363/128 388/155 364/129
f 388/155 389/156 364/129
f 364/129 389/156 365/130
f 389/156 390/157 365/130
f 365/130 390/157 366/131
f 390/157 391/158 366/131
f 366/131 391/158 367/132
f 391/158 392/159 367/132
f 367/132 392/159 368/133
f 392/159 393/160 368/133
f 368/133 393/160 369/134
f 393/160 394/161 369/134
f 369/134 394/161 370/135
f 394/161 395/162 370/135
f 370/135 395/162 371/136
f 395/162 396/163 371/136
f 371/136 396/163 372/137
f 396/163 397/164 372/137
f 372/137 397/164 373/138
f 397/164 398/165 373/138
f 373/138 398/165 374/139
f 398/165 399/166 374/139
f 374/139 399/166 375/140
f 399/166 400/167 375/140
f 375/140 400/167 376/141
f 400/167 401/168 376/141
f 376/141 401/168 377/142
f 401/168 402/169 377/142
f 377/142 402/169 378/143
f 402/169 403/170 378/143
f 378/143 403/170 379/144
f 403/170 404/171 379/144
f 379/144 404/171 380/145
f 404/171 405/172 380/145
f 380/145 405/172 381/146
f 405/172 406/173 381/146
f 381/146 406/173 382/147
f 406/173 407/174 382/147
f 382/147 407/174 383/148
f 407/174 408/175 383/148
f 383/148 408/175 384/149
f 408/175 409/176 384/149
f 384/149 409/176 385/150
f 409/176 386/177 385/150
f 409/178 410/179 386/153
f 410/179 411/180 386/153
f 386/153 411/180 387/154
f 411/180 412/181 387/154
f 387/154 412/181 388/155
f 412/181 413/182 388/155
f 388/155 413/182 389/156
f 413/182 414/183 389/156
f 389/156 414/183 390/157
f 414/183 415/184 390/157
f 390/157 415/184 391/158
f 415/184 416/185 391/158
f 391/158 416/185 392/159
f 416/185 417/186 392/159
f 392/159 417/186 393/160
f 417/186 418/187 393/160
f 393/160 418/187 394/161
f 418/187 419/188 394/161
f 394/161 419/188 395/162
f 419/188 420/189 395/162
f 395/162 420/189 396/163
f 420/189 421/190 396/163
f 396/163 421/190 397/164
f 421/190 422/191 397/164
f 397/164 422/191 398/165
f 422/191 423/192 398/165
f 398/165 423/192 399/166
f 423/192 424/193 399/166
f 399/166 424/193 400/167
f 424/193 425/194 400/167
f 400/167 425/194 401/168
f 425/194 426/195 401/168
f 401/168 426/195 402/169
f 426/195 427/196 402/169
f 402/169 427/196 403/170
f 427/196 428/197 403/170
f 403/170 428/197 404/171
f 428/197 429/198 404/171
f 404/171 429/198 405/172
f 429/198 430/199 405/172
f 405/172 430/199 406/173
f 430/199 431/200 406/173
f 406/173 431/200 407/174
f 431/200 432/201 407/174
f 407/174 432/201 408/175
f 432/201 433/202 408/175
f 408/175 433/202 409/176
f 433/202 410/203 409/176
f 433/204 267/205 410/179
f 267/205 268/206 410/179
f 410/179 268/206 411/180
f 268/206 269/207 411/180
f 411/180 269/207 412/181
f 269/207 270/208 412/181
f 412/181 270/208 413/182
f 270/208 271/209 413/182
f 413/182 271/209 414/183
f 271/209 272/210 414/183
f 414/183 272/210 415/184
f 272/210 273/211 415/184
f 415/184 273/211 416/185
f 273/211 274/212 416/185
f 416/185 274/212 417/186
f 274/212 275/213 417/186
f 417/186 275/213 418/187
f 275/213 276/214 418/187
f 418/187 276/214 419/188
f 276/214 277/215 419/188
f 419/188 277/215 420/189
f 277/215 278/216 420/189
f 420/189 278/216 421/190
f 278/216 279/217 421/190
f 421/190 279/217 422/191
f 279/217 280/218 422/191
f 422/191 280/218 423/192
f 280/218 281/219 423/192
f 423/192 281/219 424/193
f 281/219 282/220 424/193
f 424/193 282/220 425/194
f 282/220 283/221 425/194
f 425/194 283/221 426/195
f 283/221 284/222 426/195
f 426/195 284/222 427/196
f 284/222 285/223 427/196
f 427/196 285/223 428/197
f 285/223 286/224 428/197
f 428/197 286/224 429/198
f 286/224 287/225 429/198
f 429/198 287/225 430/199
f 287/225 288/226 430/199
f 430/199 288/226 431/200
f 288/226 289/227 431/200
f 431/200 289/227 432/201
f 289/227 266/228 432/201
f 432/201 266/228 433/202
f 266/228 267/229 433/202
f 61/230 98/231 60/232
f 98/231 99/233 60/232
f 60/232 99/233 59/234
f 99/233 100/235 59/234
f 59/234 100/235 58/236
f 100/235 101/237 58/236
f 58/236 101/237 57/238
f 101/237 102/239 57/238
f 57/238 102/239 56/240
f 102/239 103/241 56/240
f 56/240 103/241 55/242
f 103/241 104/243 55/242
f 55/242 104/243 54/244
f 104/243 105/245 54/244
f 54/244 105/245 53/246
f 105/245 106/247 53/246
f 53/246 106/247 52/248
f 106/247 107/249 52/248
f 52/248 107/249 51/250
f 107/249 108/251 51/250
f 51/250 108/251 50/252
f 108/251 109/253 50/252
f 50/252 109/253 73/254
f 109/253 110/255 73/254
f 73/254 110/255 72/256
f 110/255 111/257 72/256
f 72/256 111/257 71/258
f 111/257 112/259 71/258
f 71/258 112/259 70/260
f 112/259 113/261 70/260
f 70/260 113/261 69/262
f 113/261 114/263 69/262
f 69/262 114/263 68/264
f 114/263 115/265 68/264
f 68/264 115/265 67/266
f 115/265 116/267 67/266
f 67/266 116/267 66/268
f 116/267 117/269 66/268
f 66/268 117/269 65/270
f 117/269 118/271 65/270
f 65/270 118/271 64/272
f 118/271 119/273 64/272
f 64/272 119/273 63/274
f 119/273 120/275 63/274
f 63/274 120/275 62/276
f 120/275 121/277 62/276
f 62/276 121/277 61/278
f 121/277 98/279 61/278
f 98/231 122/280 99/233
f 122/280 123/281 99/233
f 99/233 123/281 100/235
f 123/281 124/282 100/235
f 100/235 124/282 101/237
f 124/282 125/283 101/237
f 101/237 125/283 102/239
f 125/283 126/284 102/239
f 102/239 126/284 103/241
f 126/284 127/285 103/241
f 103/241 127/285 104/243
f 127/285 128/286 104/243
f 104/243 128/286 105/245
f 128/286 129/287 105/245
f 105/245 129/287 106/247
f 129/287 130/288 106/247
f 106/247 130/288 107/249
f 130/288 131/289 107/249
f 107/249 131/289 108/251
f 131/289 132/290 108/251
f 108/251 132/290 109/253
f 132/290 133/291 109/253
f 109/253 133/291 110/255
f 133/291 134/292 110/255
f 110/255 134/292 111/257
f 134/292 135/293 111/257
f 111/257 135/293 112/259
f 135/293 136/294 112/259
f 112/259 136/294 113/261
f 136/294 137/295 113/261
f 113/261 137/295 114/263
f 137/295 138/296 114/263
f 114/263 138/296 115/265
f 138/296 139/297 115/265
f 115/265 139/297 116/267
f 139/297 140/298 116/267
f 116/267 140/298 117/269
f 140/298 141/299 117/269
f 117/269 141/299 118/271
f 141/299 142/300 118/271
f 118/271 142/300 119/273
f 142/300 143/301 119/273
f 119/273 143/301 120/275
f 143/301 144/302 120/275
f 120/275 144/302 121/277
f 144/302 145/303 121/277
f 121/277 145/303 98/279
f 145/303 122/304 98/279
f 122/280 146/305 123/281
f 146/305 147/306 123/281
f 123/281 147/306 124/282
f 147/306 148/307 124/282
f 124/282 148/307 125/283
f 148/307 149/308 125/283
f 125/283 149/308 126/284
f 149/308 150/309 126/284
f 126/284 150/309 127/285
f 150/309 151/310 127/285
f 127/285 151/310 128/286
f 151/310 152/311 128/286
f 128/286 152/311 129/287
f 152/311 153/312 129/287
f 129/287 153/312 130/288
f 153/312 154/313 130/288
f 130/288 154/313 131/289
f 154/313 155/314 131/289
f 131/289 155/314 132/290
f 155/314 156/315 132/290
f 132/290 156/315 133/291
f 156/315 157/316 133/291
f 133/291 157/316 134/292
f 157/316 158/317 134/292
f 134/292 158/317 135/293
f 158/317 159/318 135/293
f 135/293 159/318 136/294
f 159/318 160/319 136/294
f 136/294 160/319 137/295
f 160/319 161/320 137/295
f 137/295 161/320 138/296
f 161/320 162/321 138/296
f 138/296 162/321 139/297
f 162/321 163/322 139/297
f 139/297 163/322 140/298
f 163/322 164/323 140/298
f 140/298 164/323 141/299
f 164/323 165/324 141/299
f 141/299 165/324 142/300
f 165/324 166/325 142/300
f 142/300 166/325 143/301
f 166/325 167/326 143/301
f 143/301 167/326 144/302
f 167/326 168/327 144/302
f 144/302 168/327 145/303
f 168/327 169/328 145/303
f 145/303 169/328 122/304
f 169/328 146/329 122/304
f 146/305 170/330 147/306
f 170/330 171/331 147/306
f 147/306 171/331 148/307
f 171/331 172/332 148/307
f 148/307 172/332 149/308
f 172/332 173/333 149/308
f 149/308 173/333 150/309
f 173/333 174/334 150/309
f 150/309 174/334 151/310
f 174/334 175/335 151/310
f 151/310 175/335 152/311
f 175/335 176/336 152/311
f 152/311 176/336 153/312
f 176/336 177/337 153/312
f 153/312 177/337 154/313
f 177/337 178/338 154/313
f 154/313 178/338 155/314
f 178/338 179/339 155/314
f 155/314 179/339 156/315
f 179/339 180/340 156/315
f 156/315 180/340 157/316
f 180/340 181/341 157/316
f 157/316 181/341 158/317
f 181/341 182/342 158/317
f 158/317 182/342 159/318
f 182/342 183/343 159/318
f 159/318 183/343 160/319
f 183/343 184/344 160/319
f 160/319 184/344 161/320
f 184/344 185/345 161/320
f 161/320 185/345 162/321
f 185/345 186/346 162/321
f 162/321 186/346 163/322
f 186/346 187/347 163/322
f 163/322 187/347 164/323
f 187/347 188/348 164/323
f 164/323 188/348 165/324
f 188/348 189/349 165/324
f 165/324 189/349 166/325
f 189/349 190/350 166/325
f 166/325 190/350 167/326
f 190/350 191/351 167/326
f 167/326 191/351 168/327
f 191/351 192/352 168/327
f 168/327 192/352 169/328
f 192/352 193/353 169/328
f 169/328 193/353 146/329
f 193/353 170/354 146/329
f 170/330 194/355 171/331
f 194/355 195/356 171/331
f 171/331 195/356 172/332
f 195/356 196/357 172/332
f 172/332 196/357 173/333
f 196/357 197/358 173/333
f 173/333 197/358 174/334
f 197/358 198/359 174/334
f 174/334 198/359 175/335
f 198/359 199/360 175/335
f 175/335 199/360 176/336
f 199/360 200/361 176/336
f 176/336 200/361 177/337
f 200/361 201/362 177/337
f 177/337 201/362 178/338
f 201/362 202/363 178/338
f 178/338 202/363 179/339
f 202/363 203/364 179/339
f 179/339 203/364 180/340
f 203/364 204/365 180/340
f 180/340 204/365 181/341
f 204/365 205/366 181/341
f 181/341 205/366 182/342
f 205/366 206/367 182/342
f 182/342 206/367 183/343
f 206/367 207/368 183/343
f 183/343 207/368 184/344
f 207/368 208/369 184/344
f 184/344 208/369 185/345
f 208/369 209/370 185/345
f 185/345 209/370 186/346
f 209/370 210/371 186/346
f 186/346 210/371 187/347
f 210/371 211/372 187/347
f 187/347 211/372 188/348
f 211/372 212/373 188/348
f 188/348 212/373 189/349
f 212/373 213/374 189/349
f 189/349 213/374 190/350
f 213/374 214/375 190/350
f 190/350 214/375 191/351
f 214/375 215/376 191/351
f 191/351 215/376 192/352
f 215/376 216/377 192/352
f 192/352 216/377 193/353
f 216/377 217/378 193/353
f 193/353 217/378 170/354
f 217/378 194/379 170/354
f 194/355 218/380 195/356
f 218/380 219/381 195/356
f 195/356 219/381 196/357
f 219/381 220/382 196/357
f 196/357 220/382 197/358
f 220/382 221/383 197/358
f 197/358 221/383 198/359
f 221/383 222/384 198/359
f 198/359 222/384 199/360
f 222/384 223/385 199/360
f 199/360 223/385 200/361
f 223/385 224/386 200/361
f 200/361 224/386 201/362
f 224/386 225/387 201/362
f 201/362 225/387 202/363
f 225/387 226/388 202/363
f 202/363 226/388 203/364
f 226/388 227/389 203/364
f 203/364 227/389 204/365
f 227/389 228/390 204/365
f 204/365 228/390 205/366
f 228/390 229/391 205/366
f 205/366 229/391 206/367
f 229/391 230/392 206/367
f 206/367 230/392 207/368
f 230/392 231/393 207/368
f 207/368 231/393 208/369
f 231/393 232/394 208/369
f 208/369 232/394 209/370
f 232/394 233/395 209/370
f 209/370 233/395 210/371
f 233/395 234/396 210/371
f 210/371 234/396 211/372
f 234/396 235/397 211/372
f 211/372 235/397 212/373
f 235/397 236/398 212/373
f 212/373 236/398 213/374
f 236/398 237/399 213/374
f 213/374 237/399 214/375
f 237/399 238/400 214/375
f 214/375 238/400 215/376
f 238/400 239/401 215/376
f 215/376 239/401 216/377
f 239/401 240/402 216/377
f 216/377 240/402 217/378
f 240/402 241/403 217/378
f 217/378 241/403 194/379
f 241/403 218/404 194/379
f 218/380 75/405 219/381
f 75/405 76/406 219/381
f 219/381 76/406 220/382
f 76/406 77/407 220/382
f 220/382 77/407 221/383
f 77/407 78/408 221/383
f 221/383 78/408 222/384
f 78/408 79/409 222/384
f 222/384 79/409 223/385
f 79/409 80/410 223/385
f 223/385 80/410 224/386
f 80/410 81/411 224/386
f 224/386 81/411 225/387
f 81/411 82/412 225/387
f 225/387 82/412 226/388
f 82/412 83/413 226/388
f 226/388 83/413 227/389
f 83/413 84/414 227/389
f 227/389 84/414 228/390
f 84/414 85/415 228/390
f 228/390 85/415 229/391
f 85/415 86/416 229/391
f 229/391 86/416 230/392
f 86/416 87/417 230/392
f 230/392 87/417 231/393
f 87/417 88/418 231/393
f 231/393 88/418 232/394
f 88/418 89/419 232/394
f 232/394 89/419 233/395
f 89/419 90/420 233/395
f 233/395 90/420 234/396
f 90/420 91/421 234/396
f 234/396 91/421 235/397
f 91/421 92/422 235/397
f 235/397 92/422 236/398
f 92/422 93/423 236/398
f 236/398 93/423 237/399
f 93/423 94/424 237/399
f 237/399 94/424 238/400
f 94/424 95/425 238/400
f 238/400 95/425 239/401
f 95/425 96/426 239/401
f 239/401 96/426 240/402
f 96/426 97/427 240/402
f 240/402 97/427 241/403
f 97/427 74/428 241/403
f 241/403 74/428 218/404
f 74/428 75/429 218/404
f 26/430 24/431 27/432
f 24/431 23/433 27/432
f 27/432 23/433 28/434
f 23/433 22/435 28/434
f 28/434 22/435 29/436
f 22/435 21/437 29/436
f 29/436 21/437 30/438
f 21/437 20/439 30/438
f 30/438 20/439 31/440
f 20/439 19/441 31/440
f 31/440 19/441 32/442
f 19/441 18/443 32/442
f 32/442 18/443 33/444
f 18/443 17/445 33/444
f 33/444 17/445 34/446
f 17/445 16/447 34/446
f 34/446 16/447 35/448
f 16/447 15/449 35/448
f 35/448 15/449 36/450
f 15/449 14/451 36/450
f 36/450 14/451 37/452
f 14/451 13/453 37/452
f 37/452 13/453 38/454
f 13/453 12/455 38/454
f 38/454 12/455 39/456
f 12/455 11/457 39/456
f 39/456 11/457 40/458
f 11/457 10/459 40/458
f 40/458 10/459 41/460
f 10/459 9/461 41/460
f 41/460 9/461 42/462
f 9/461 8/463 42/462
f 42/462 8/463 43/464
f 8/463 7/465 43/464
f 43/464 7/465 44/466
f 7/465 6/467 44/466
f 44/466 6/467 45/468
f 6/467 5/469 45/468
f 45/468 5/469 46/470
f 5/469 4/471 46/470
f 46/470 4/471 47/472
f 4/471 3/473 47/472
f 47/472 3/473 48/474
f 3/473 2/475 48/474
f 48/474 2/475 49/476
f 2/475 1/477 49/476
f 49/476 1/477 26/478
f 1/477 24/479 26/478
f 50/480 27/481 51/482
f 27/481 28/483 51/482
f 51/482 28/483 52/484
f 28/483 29/485 52/484
f 52/484 29/485 53/486
f 29/485 30/487 53/486
f 53/486 30/487 54/488
f 30/487 31/489 54/488
f 54/488 31/489 55/490
f 31/489 32/491 55/490
f 55/490 32/491 56/492
f 32/491 33/493 56/492
f 56/492 33/493 57/494
f 33/493 34/495 57/494
f 57/494 34/495 58/496
f 34/495 35/497 58/496
f 58/496 35/497 59/498
f 35/497 36/499 59/498
f 59/498 36/499 60/500
f 36/499 37/501 60/500
f 60/500 37/501 61/502
f 37/501 38/503 61/502
f 61/502 38/503 62/504
f 38/503 39/505 62/504
f 62/504 39/505 63/506
f 39/505 40/507 63/506
f 63/506 40/507 64/508
f 40/507 41/509 64/508
f 64/508 41/509 65/510
f 41/509 42/511 65/510
f 65/510 42/511 66/512
f 42/511 43/513 66/512
f 66/512 43/513 67/514
f 43/513 44/515 67/514
f 67/514 44/515 68/516
f 44/515 45/517 68/516
f 68/516 45/517 69/518
f 45/517 46/519 69/518
f 69/518 46/519 70/520
f 46/519 47/521 70/520
f 70/520 47/521 71/522
f 47/521 48/523 71/522
f 71/522 48/523 72/524
f 48/523 49/525 72/524
f 72/524 49/525 73/526
f 49/525 26/527 73/526
f 73/526 26/527 50/528
f 26/527 27/529 50/528
f 454/530 449/531 448/532
f 447/533 452/534 448/532
f 452/534 453/535 448/532
f 448/532 453/535 454/530
f 446/536 445/537 458/538
f 458/538 459/539 446/536
f 459/539 460/540 446/536
f 446/536 460/540 447/533
f 444/541 443/542 455/543
f 455/543 456/544 444/541
f 456/544 457/545 444/541
f 444/541 457/545 445/537
f 469/546 443/542 442/547
f 440/548 467/549 442/547
f 467/549 468/550 442/547
f 442/547 468/550 469/546
f 450/551 449/531 461/552
f 461/552 462/553 450/551
f 462/553 463/554 450/551
f 450/551 463/554 451/555
f 441/556 451/555 464/557
f 464/557 465/558 441/556
f 465/558 466/559 441/556
f 441/556 466/559 440/548
f 441/560 437/561 451/562
f 437/561 439/563 451/562
f 451/562 439/563 450/564
f 450/560 439/561 449/562
f 439/561 435/563 449/562
f 449/562 435/563 448/564
f 448/564 435/563 447/562
f 435/563 434/561 447/562
f 447/562 434/561 446/560
f 446/564 434/563 445/562
f 434/563 436/561 445/562
f 445/562 436/561 444/560
f 444/560 436/561 443/562
f 436/561 438/563 443/562
f 443/562 438/563 442/564
f 442/564 438/563 440/562
f 438/563 437/561 440/562
f 440/562 437/561 441/560
f 22/565 23/566 25/567
f 23/566 24/568 25/567
f 25/567 24/568 1/569
f 19/570 20/571 25/567
f 20/571 21/572 25/567
f 25/567 21/572 22/565
f 16/573 17/574 25/567
f 17/574 18/575 25/567
f 25/567 18/575 19/570
f 13/576 14/577 25/567
f 14/577 15/578 25/567
f 25/567 15/578 16/573
f 10/579 11/580 25/567
f 11/580 12/581 25/567
f 25/567 12/581 13/576
f 7/582 8/583 25/567
f 8/583 9/584 25/567
f 25/567 9/584 10/579
f 4/585 5/586 25/567
f 5/586 6/587 25/567
f 25/567 6/587 7/582
f 1/569 2/588 25/567
f 2/588 3/589 25/567
f 25/567 3/589 4/585
f 83/590 243/591 84/592
f 243/591 246/593 84/592
f 84/592 246/593 85/594
f 246/593 247/595 85/594
f 85/594 247/595 86/596
f 247/595 248/597 86/596
f 86/596 248/597 87/598
f 248/597 259/599 87/598
f 87/598 259/599 88/600
f 259/599 265/601 88/600
f 88/600 265/601 89/602
f 265/601 264/603 89/602
f 89/602 264/603 90/604
f 264/603 260/605 90/604
f 90/604 260/605 91/606
f 260/605 249/607 91/606
f 91/606 249/607 92/608
f 249/607 250/609 92/608
f 92/608 250/609 93/610
f 250/609 261/611 93/610
f 93/610 261/611 94/612
f 261/611 251/613 94/612
f 94/612 251/613 95/614
f 251/613 252/615 95/614
f 95/614 252/615 96/616
f 252/615 253/617 96/616
f 96/616 253/617 97/618
f 253/617 254/619 97/618
f 97/618 254/619 74/620
f 254/619 255/621 74/620
f 74/620 255/621 75/622
f 255/621 256/623 75/622
f 75/622 256/623 76/624
f 256/623 262/625 76/624
f 76/624 262/625 77/626
f 262/625 263/627 77/626
f 77/626 263/627 78/628
f 263/627 257/629 78/628
f 78/628 257/629 79/630
f 257/629 258/631 79/630
f 79/630 258/631 80/632
f 258/631 244/633 80/632
f 80/632 244/633 81/634
f 244/633 245/635 81/634
f 81/634 245/635 82/636
f 245/635 242/637 82/636
f 82/636 242/637 83/590
f 242/637 243/591 83/590
f 303/638 304/639 435/556
f 295/640 296/641 437/642
f 439/643 300/644 301/645
f 436/646 312/647 313/648
f 313/648 290/649 436/646
f 290/649 291/650 436/646
f 436/646 291/650 438/651
f 439/643 301/645 435/556
f 301/645 302/652 435/556
f 435/556 302/652 303/638
f 296/641 297/653 437/642
f 297/653 298/654 437/642
f 437/642 298/654 439/643
f 298/654 299/655 439/643
f 439/643 299/655 300/644
f 291/650 292/656 438/651
f 292/656 293/657 438/651
f 438/651 293/657 437/642
f 293/657 294/658 437/642
f 437/642 294/658 295/640
f 308/659 309/660 434/661
f 309/660 310/662 434/661
f 434/661 310/662 436/646
f 310/662 311/663 436/646
f 436/646 311/663 312/647
f 304/639 305/664 435/556
f 305/664 306/665 435/556
f 435/556 306/665 434/661
f 306/665 307/666 434/661
f 434/661 307/666 308/659
f 266/667 247/668 267/669
f 247/668 246/670 267/669
f 267/669 246/670 268/671
f 246/670 243/672 268/671
f 268/671 243/672 269/673
f 243/672 242/674 269/673
f 269/673 242/674 270/675
f 242/674 245/676 270/675
f 270/675 245/676 271/677
f 245/676 244/678 271/677
f 271/677 244/678 272/679
f 244/678 258/680 272/679
f 272/679 258/680 273/681
f 258/680 257/682 273/681
f 273/681 257/682 274/683
f 257/682 263/684 274/683
f 274/683 263/684 275/685
f 263/684 262/686 275/685
f 275/685 262/686 276/687
f 262/686 256/688 276/687
f 276/687 256/688 277/689
f 256/688 255/690 277/689
f 277/689 255/690 278/691
f 255/690 254/692 278/691
f 278/691 254/692 279/693
f 254/692 253/694 279/693
f 279/693 253/694 280/695
f 253/694 252/696 280/695
f 280/695 252/696 281/697
f 252/696 251/698 281/697
f 281/697 251/698 282/699
f 251/698 261/700 282/699
f 282/699 261/700 283/701
f 261/700 250/702 283/701
f 283/701 250/702 284/703
f 250/702 249/704 284/703
f 284/703 249/704 285/705
f 249/704 260/706 285/705
f 285/705 260/706 286/707
f 260/706 264/708 286/707
f 286/707 264/708 287/709
f 264/708 265/710 287/709
f 287/709 265/710 288/711
f 265/710 259/712 288/711
f 288/711 259/712 289/713
f 259/712 248/714 289/713
f 289/713 248/714 266/715
f 248/714 247/716 266/715
