# Exported from USD: /World/Robotiq_Hand_E_edit/left_gripper/D_A03_ASM_DOIGTS_PARALLELES_1ROBOTIQ_HAND_E_DEFEATURE/D_A03_ASM_DOIGTS_PARALLELES_1ROBOTIQ_HAND_E_DEFEATURE
mtllib D_A03_ASM_DOIGTS_PARALLELES_1ROBOTIQ_HAND_E_DEFEATURE.mtl

g D_A03_ASM_DOIGTS_PARALLELES_1ROBOTIQ_HAND_E_DEFEATURE
v 0.01346016 0.01040000 -0.02294316
v 0.01372756 0.01040000 -0.02311592
v 0.01403056 0.01040000 -0.02321359
v 0.01434851 0.01040000 -0.02322952
v 0.01465975 0.01040000 -0.02316260
v 0.01494307 0.01040000 -0.02301741
v 0.01517916 0.01040000 -0.02280384
v 0.01535192 0.01040000 -0.02253644
v 0.01544959 0.01040000 -0.02223344
v 0.01546551 0.01040000 -0.02191549
v 0.01539860 0.01040000 -0.02160425
v 0.01525341 0.01040000 -0.02132093
v 0.01503984 0.01040000 -0.02108484
v 0.01477244 0.01040000 -0.02091208
v 0.01446944 0.01040000 -0.02081441
v 0.01415149 0.01040000 -0.02079849
v 0.01384025 0.01040000 -0.02086540
v 0.01355693 0.01040000 -0.02101059
v 0.01332084 0.01040000 -0.02122416
v 0.01314808 0.01040000 -0.02149156
v 0.01305041 0.01040000 -0.02179456
v 0.01303449 0.01040000 -0.02211251
v 0.01310140 0.01040000 -0.02242375
v 0.01324659 0.01040000 -0.02270707
v 0.01425000 0.01040000 -0.02201400
v 0.01327849 0.01068050 -0.02315687
v 0.01301579 0.01068050 -0.02286649
v 0.01283721 0.01068050 -0.02251800
v 0.01275490 0.01068050 -0.02213517
v 0.01277449 0.01068050 -0.02174408
v 0.01289462 0.01068050 -0.02137139
v 0.01310713 0.01068050 -0.02104249
v 0.01339751 0.01068050 -0.02077979
v 0.01374600 0.01068050 -0.02060121
v 0.01412883 0.01068050 -0.02051890
v 0.01451992 0.01068050 -0.02053848
v 0.01489261 0.01068050 -0.02065862
v 0.01522151 0.01068050 -0.02087113
v 0.01548421 0.01068050 -0.02116152
v 0.01566279 0.01068050 -0.02151000
v 0.01574510 0.01068050 -0.02189283
v 0.01572552 0.01068050 -0.02228392
v 0.01560538 0.01068050 -0.02265661
v 0.01539287 0.01068050 -0.02298551
v 0.01510249 0.01068050 -0.02324821
v 0.01475400 0.01068050 -0.02342679
v 0.01437117 0.01068050 -0.02350910
v 0.01398008 0.01068050 -0.02348951
v 0.01360739 0.01068050 -0.02336938
v 0.01327849 0.01830000 -0.02315687
v 0.01301579 0.01830000 -0.02286649
v 0.01283721 0.01830000 -0.02251800
v 0.01275490 0.01830000 -0.02213517
v 0.01277449 0.01830000 -0.02174408
v 0.01289462 0.01830000 -0.02137139
v 0.01310713 0.01830000 -0.02104249
v 0.01339751 0.01830000 -0.02077979
v 0.01374600 0.01830000 -0.02060121
v 0.01412883 0.01830000 -0.02051890
v 0.01451992 0.01830000 -0.02053848
v 0.01489261 0.01830000 -0.02065862
v 0.01522151 0.01830000 -0.02087113
v 0.01548421 0.01830000 -0.02116152
v 0.01566279 0.01830000 -0.02151000
v 0.01574510 0.01830000 -0.02189283
v 0.01572552 0.01830000 -0.02228392
v 0.01560538 0.01830000 -0.02265661
v 0.01539287 0.01830000 -0.02298551
v 0.01510249 0.01830000 -0.02324821
v 0.01475400 0.01830000 -0.02342679
v 0.01437117 0.01830000 -0.02350910
v 0.01398008 0.01830000 -0.02348951
v 0.01360739 0.01830000 -0.02336938
v 0.01528628 0.01840000 -0.02079493
v 0.01493545 0.01840000 -0.02056826
v 0.01453791 0.01840000 -0.02044012
v 0.01412075 0.01840000 -0.02041923
v 0.01371240 0.01840000 -0.02050702
v 0.01334068 0.01840000 -0.02069751
v 0.01303093 0.01840000 -0.02097772
v 0.01280426 0.01840000 -0.02132855
v 0.01267612 0.01840000 -0.02172609
v 0.01265523 0.01840000 -0.02214325
v 0.01274302 0.01840000 -0.02255160
v 0.01293351 0.01840000 -0.02292332
v 0.01321372 0.01840000 -0.02323307
v 0.01356455 0.01840000 -0.02345974
v 0.01396209 0.01840000 -0.02358788
v 0.01437925 0.01840000 -0.02360877
v 0.01478760 0.01840000 -0.02352098
v 0.01515932 0.01840000 -0.02333049
v 0.01546907 0.01840000 -0.02305028
v 0.01569574 0.01840000 -0.02269945
v 0.01582388 0.01840000 -0.02230191
v 0.01584477 0.01840000 -0.02188475
v 0.01575698 0.01840000 -0.02147640
v 0.01556649 0.01840000 -0.02110468
v 0.01489369 0.01832225 -0.02065636
v 0.01452037 0.01832225 -0.02053602
v 0.01412863 0.01832225 -0.02051640
v 0.01374516 0.01832225 -0.02059885
v 0.01339609 0.01832225 -0.02077773
v 0.01310522 0.01832225 -0.02104086
v 0.01289236 0.01832225 -0.02137031
v 0.01277202 0.01832225 -0.02174363
v 0.01275240 0.01832225 -0.02213537
v 0.01283485 0.01832225 -0.02251884
v 0.01301373 0.01832225 -0.02286791
v 0.01327686 0.01832225 -0.02315878
v 0.01360631 0.01832225 -0.02337164
v 0.01397963 0.01832225 -0.02349198
v 0.01437137 0.01832225 -0.02351160
v 0.01475484 0.01832225 -0.02342915
v 0.01510391 0.01832225 -0.02325027
v 0.01539478 0.01832225 -0.02298714
v 0.01560764 0.01832225 -0.02265769
v 0.01572798 0.01832225 -0.02228437
v 0.01574760 0.01832225 -0.02189263
v 0.01566515 0.01832225 -0.02150916
v 0.01548627 0.01832225 -0.02116009
v 0.01522314 0.01832225 -0.02086922
v 0.01489685 0.01834339 -0.02064967
v 0.01452170 0.01834339 -0.02052874
v 0.01412803 0.01834339 -0.02050903
v 0.01374267 0.01834339 -0.02059188
v 0.01339189 0.01834339 -0.02077164
v 0.01309958 0.01834339 -0.02103607
v 0.01288567 0.01834339 -0.02136715
v 0.01276474 0.01834339 -0.02174230
v 0.01274503 0.01834339 -0.02213597
v 0.01282788 0.01834339 -0.02252133
v 0.01300764 0.01834339 -0.02287211
v 0.01327207 0.01834339 -0.02316442
v 0.01360315 0.01834339 -0.02337833
v 0.01397830 0.01834339 -0.02349926
v 0.01437197 0.01834339 -0.02351897
v 0.01475733 0.01834339 -0.02343612
v 0.01510811 0.01834339 -0.02325636
v 0.01540042 0.01834339 -0.02299193
v 0.01561433 0.01834339 -0.02266086
v 0.01573526 0.01834339 -0.02228570
v 0.01575497 0.01834339 -0.02189203
v 0.01567212 0.01834339 -0.02150667
v 0.01549236 0.01834339 -0.02115589
v 0.01522793 0.01834339 -0.02086358
v 0.01490196 0.01836235 -0.02063891
v 0.01452384 0.01836235 -0.02051703
v 0.01412707 0.01836235 -0.02049716
v 0.01373867 0.01836235 -0.02058066
v 0.01338512 0.01836235 -0.02076184
v 0.01309050 0.01836235 -0.02102836
v 0.01287491 0.01836235 -0.02136204
v 0.01275302 0.01836235 -0.02174016
v 0.01273316 0.01836235 -0.02213693
v 0.01281666 0.01836235 -0.02252533
v 0.01299784 0.01836235 -0.02287889
v 0.01326436 0.01836235 -0.02317350
v 0.01359804 0.01836235 -0.02338909
v 0.01397616 0.01836235 -0.02351098
v 0.01437293 0.01836235 -0.02353084
v 0.01476133 0.01836235 -0.02344734
v 0.01511488 0.01836235 -0.02326616
v 0.01540950 0.01836235 -0.02299964
v 0.01562509 0.01836235 -0.02266596
v 0.01574698 0.01836235 -0.02228784
v 0.01576684 0.01836235 -0.02189107
v 0.01568334 0.01836235 -0.02150267
v 0.01550216 0.01836235 -0.02114912
v 0.01523564 0.01836235 -0.02085450
v 0.01490874 0.01837818 -0.02062460
v 0.01452669 0.01837818 -0.02050145
v 0.01412579 0.01837818 -0.02048137
v 0.01373335 0.01837818 -0.02056575
v 0.01337612 0.01837818 -0.02074881
v 0.01307844 0.01837818 -0.02101810
v 0.01286060 0.01837818 -0.02135526
v 0.01273745 0.01837818 -0.02173731
v 0.01271737 0.01837818 -0.02213821
v 0.01280174 0.01837818 -0.02253065
v 0.01298481 0.01837818 -0.02288788
v 0.01325410 0.01837818 -0.02318556
v 0.01359126 0.01837818 -0.02340340
v 0.01397331 0.01837818 -0.02352655
v 0.01437421 0.01837818 -0.02354663
v 0.01476665 0.01837818 -0.02346225
v 0.01512388 0.01837818 -0.02327919
v 0.01542156 0.01837818 -0.02300990
v 0.01563940 0.01837818 -0.02267274
v 0.01576255 0.01837818 -0.02229069
v 0.01578263 0.01837818 -0.02188979
v 0.01569825 0.01837818 -0.02149735
v 0.01551519 0.01837818 -0.02114012
v 0.01524590 0.01837818 -0.02084244
v 0.01491687 0.01839010 -0.02060747
v 0.01453011 0.01839010 -0.02048280
v 0.01412426 0.01839010 -0.02046248
v 0.01372698 0.01839010 -0.02054789
v 0.01336534 0.01839010 -0.02073321
v 0.01306399 0.01839010 -0.02100582
v 0.01284347 0.01839010 -0.02134714
v 0.01271880 0.01839010 -0.02173389
v 0.01269848 0.01839010 -0.02213974
v 0.01278389 0.01839010 -0.02253702
v 0.01296921 0.01839010 -0.02289866
v 0.01324182 0.01839010 -0.02320001
v 0.01358313 0.01839010 -0.02342053
v 0.01396989 0.01839010 -0.02354520
v 0.01437574 0.01839010 -0.02356553
v 0.01477302 0.01839010 -0.02348011
v 0.01513466 0.01839010 -0.02329479
v 0.01543601 0.01839010 -0.02302218
v 0.01565653 0.01839010 -0.02268087
v 0.01578120 0.01839010 -0.02229411
v 0.01580152 0.01839010 -0.02188826
v 0.01571611 0.01839010 -0.02149098
v 0.01553079 0.01839010 -0.02112934
v 0.01525818 0.01839010 -0.02082799
v 0.01492592 0.01839749 -0.02058837
v 0.01453391 0.01839749 -0.02046201
v 0.01412255 0.01839749 -0.02044141
v 0.01371988 0.01839749 -0.02052798
v 0.01335333 0.01839749 -0.02071582
v 0.01304789 0.01839749 -0.02099213
v 0.01282437 0.01839749 -0.02133808
v 0.01269801 0.01839749 -0.02173009
v 0.01267741 0.01839749 -0.02214145
v 0.01276398 0.01839749 -0.02254413
v 0.01295182 0.01839749 -0.02291067
v 0.01322813 0.01839749 -0.02321611
v 0.01357408 0.01839749 -0.02343963
v 0.01396609 0.01839749 -0.02356599
v 0.01437745 0.01839749 -0.02358659
v 0.01478012 0.01839749 -0.02350002
v 0.01514667 0.01839749 -0.02331218
v 0.01545211 0.01839749 -0.02303587
v 0.01567563 0.01839749 -0.02268992
v 0.01580199 0.01839749 -0.02229791
v 0.01582259 0.01839749 -0.02188655
v 0.01573602 0.01839749 -0.02148388
v 0.01554818 0.01839749 -0.02111733
v 0.01527187 0.01839749 -0.02081189
v 0.01154489 0.01840000 -0.02151915
v 0.01150899 0.01840000 -0.02223615
v 0.01684012 0.01840000 -0.02109000
v 0.01651271 0.01840000 -0.02045111
v 0.01402785 0.01840000 -0.01927299
v 0.01332600 0.01840000 -0.01942388
v 0.01268711 0.01840000 -0.01975129
v 0.01215473 0.01840000 -0.02023289
v 0.01176514 0.01840000 -0.02083588
v 0.01165988 0.01840000 -0.02293800
v 0.01198729 0.01840000 -0.02357689
v 0.01603111 0.01840000 -0.01991873
v 0.01542812 0.01840000 -0.01952914
v 0.01474485 0.01840000 -0.01930889
v 0.01246889 0.01840000 -0.02410927
v 0.01581289 0.01840000 -0.02427671
v 0.01634527 0.01840000 -0.02379511
v 0.01695511 0.01840000 -0.02250885
v 0.01699101 0.01840000 -0.02179185
v 0.01673486 0.01840000 -0.02319212
v 0.01517400 0.01840000 -0.02460412
v 0.01307188 0.01840000 -0.02449886
v 0.01375515 0.01840000 -0.02471911
v 0.01447215 0.01840000 -0.02475501
v 0.01246889 0.02125000 -0.02410927
v 0.01198729 0.02125000 -0.02357689
v 0.01165988 0.02125000 -0.02293800
v 0.01150899 0.02125000 -0.02223615
v 0.01154489 0.02125000 -0.02151915
v 0.01176514 0.02125000 -0.02083588
v 0.01215473 0.02125000 -0.02023289
v 0.01268711 0.02125000 -0.01975129
v 0.01332600 0.02125000 -0.01942388
v 0.01402785 0.02125000 -0.01927299
v 0.01474485 0.02125000 -0.01930889
v 0.01542812 0.02125000 -0.01952914
v 0.01603111 0.02125000 -0.01991873
v 0.01651271 0.02125000 -0.02045111
v 0.01684012 0.02125000 -0.02109000
v 0.01699101 0.02125000 -0.02179185
v 0.01695511 0.02125000 -0.02250885
v 0.01673486 0.02125000 -0.02319212
v 0.01634527 0.02125000 -0.02379511
v 0.01581289 0.02125000 -0.02427671
v 0.01517400 0.02125000 -0.02460412
v 0.01447215 0.02125000 -0.02475501
v 0.01375515 0.02125000 -0.02471911
v 0.01307188 0.02125000 -0.02449886
v 0.01256604 0.02140000 -0.02399498
v 0.01211071 0.02140000 -0.02349164
v 0.01180116 0.02140000 -0.02288760
v 0.01165850 0.02140000 -0.02222403
v 0.01169244 0.02140000 -0.02154614
v 0.01190068 0.02140000 -0.02090014
v 0.01226902 0.02140000 -0.02033004
v 0.01277236 0.02140000 -0.01987471
v 0.01337640 0.02140000 -0.01956516
v 0.01403997 0.02140000 -0.01942250
v 0.01471786 0.02140000 -0.01945644
v 0.01536386 0.02140000 -0.01966468
v 0.01593396 0.02140000 -0.02003302
v 0.01638929 0.02140000 -0.02053636
v 0.01669884 0.02140000 -0.02114040
v 0.01684150 0.02140000 -0.02180397
v 0.01680756 0.02140000 -0.02248186
v 0.01659932 0.02140000 -0.02312786
v 0.01623098 0.02140000 -0.02369796
v 0.01572764 0.02140000 -0.02415329
v 0.01512360 0.02140000 -0.02446284
v 0.01446003 0.02140000 -0.02460550
v 0.01378214 0.02140000 -0.02457156
v 0.01313614 0.02140000 -0.02436332
v 0.01207876 0.02139489 -0.02351370
v 0.01176459 0.02139489 -0.02290065
v 0.01161980 0.02139489 -0.02222716
v 0.01165425 0.02139489 -0.02153916
v 0.01186560 0.02139489 -0.02088351
v 0.01223944 0.02139489 -0.02030490
v 0.01275029 0.02139489 -0.01984276
v 0.01336335 0.02139489 -0.01952859
v 0.01403684 0.02139489 -0.01938380
v 0.01472484 0.02139489 -0.01941825
v 0.01538049 0.02139489 -0.01962960
v 0.01595910 0.02139489 -0.02000344
v 0.01642124 0.02139489 -0.02051429
v 0.01673541 0.02139489 -0.02112735
v 0.01688020 0.02139489 -0.02180083
v 0.01684575 0.02139489 -0.02248884
v 0.01663440 0.02139489 -0.02314449
v 0.01626056 0.02139489 -0.02372310
v 0.01574971 0.02139489 -0.02418524
v 0.01513665 0.02139489 -0.02449941
v 0.01446316 0.02139489 -0.02464420
v 0.01377516 0.02139489 -0.02460975
v 0.01311951 0.02139489 -0.02439840
v 0.01254090 0.02139489 -0.02402456
v 0.01204900 0.02137990 -0.02353427
v 0.01173052 0.02137990 -0.02291280
v 0.01158374 0.02137990 -0.02223009
v 0.01161867 0.02137990 -0.02153265
v 0.01183291 0.02137990 -0.02086801
v 0.01221187 0.02137990 -0.02028147
v 0.01272973 0.02137990 -0.01981300
v 0.01335120 0.02137990 -0.01949452
v 0.01403391 0.02137990 -0.01934774
v 0.01473135 0.02137990 -0.01938266
v 0.01539599 0.02137990 -0.01959691
v 0.01598253 0.02137990 -0.01997587
v 0.01645100 0.02137990 -0.02049373
v 0.01676948 0.02137990 -0.02111520
v 0.01691626 0.02137990 -0.02179791
v 0.01688134 0.02137990 -0.02249535
v 0.01666709 0.02137990 -0.02315999
v 0.01628813 0.02137990 -0.02374653
v 0.01577027 0.02137990 -0.02421500
v 0.01514880 0.02137990 -0.02453348
v 0.01446609 0.02137990 -0.02468026
v 0.01376865 0.02137990 -0.02464533
v 0.01310401 0.02137990 -0.02443109
v 0.01251747 0.02137990 -0.02405213
v 0.01202343 0.02135607 -0.02355192
v 0.01170126 0.02135607 -0.02292324
v 0.01155278 0.02135607 -0.02223260
v 0.01158811 0.02135607 -0.02152706
v 0.01180484 0.02135607 -0.02085470
v 0.01218820 0.02135607 -0.02026135
v 0.01271208 0.02135607 -0.01978743
v 0.01334076 0.02135607 -0.01946526
v 0.01403140 0.02135607 -0.01931678
v 0.01473694 0.02135607 -0.01935211
v 0.01540930 0.02135607 -0.01956884
v 0.01600265 0.02135607 -0.01995220
v 0.01647656 0.02135607 -0.02047608
v 0.01679874 0.02135607 -0.02110476
v 0.01694722 0.02135607 -0.02179540
v 0.01691189 0.02135607 -0.02250095
v 0.01669516 0.02135607 -0.02317330
v 0.01631179 0.02135607 -0.02376665
v 0.01578792 0.02135607 -0.02424056
v 0.01515924 0.02135607 -0.02456274
v 0.01446860 0.02135607 -0.02471122
v 0.01376306 0.02135607 -0.02467589
v 0.01309070 0.02135607 -0.02445916
v 0.01249735 0.02135607 -0.02407579
v 0.01200382 0.02132500 -0.02356547
v 0.01167881 0.02132500 -0.02293125
v 0.01152902 0.02132500 -0.02223452
v 0.01156466 0.02132500 -0.02152277
v 0.01178330 0.02132500 -0.02084449
v 0.01217004 0.02132500 -0.02024591
v 0.01269853 0.02132500 -0.01976782
v 0.01333275 0.02132500 -0.01944281
v 0.01402948 0.02132500 -0.01929302
v 0.01474123 0.02132500 -0.01932866
v 0.01541951 0.02132500 -0.01954730
v 0.01601809 0.02132500 -0.01993404
v 0.01649618 0.02132500 -0.02046253
v 0.01682119 0.02132500 -0.02109675
v 0.01697098 0.02132500 -0.02179348
v 0.01693534 0.02132500 -0.02250523
v 0.01671670 0.02132500 -0.02318351
v 0.01632996 0.02132500 -0.02378209
v 0.01580147 0.02132500 -0.02426018
v 0.01516725 0.02132500 -0.02458519
v 0.01447052 0.02132500 -0.02473498
v 0.01375877 0.02132500 -0.02469934
v 0.01308049 0.02132500 -0.02448070
v 0.01248191 0.02132500 -0.02409396
v 0.01199149 0.02128882 -0.02357399
v 0.01166469 0.02128882 -0.02293628
v 0.01151408 0.02128882 -0.02223573
v 0.01154992 0.02128882 -0.02152007
v 0.01176976 0.02128882 -0.02083807
v 0.01215862 0.02128882 -0.02023620
v 0.01269002 0.02128882 -0.01975549
v 0.01332771 0.02128882 -0.01942869
v 0.01402827 0.02128882 -0.01927808
v 0.01474393 0.02128882 -0.01931392
v 0.01542593 0.02128882 -0.01953376
v 0.01602780 0.02128882 -0.01992263
v 0.01650851 0.02128882 -0.02045402
v 0.01683531 0.02128882 -0.02109171
v 0.01698592 0.02128882 -0.02179227
v 0.01695008 0.02128882 -0.02250793
v 0.01673024 0.02128882 -0.02318993
v 0.01634138 0.02128882 -0.02379180
v 0.01580998 0.02128882 -0.02427251
v 0.01517229 0.02128882 -0.02459931
v 0.01447173 0.02128882 -0.02474992
v 0.01375607 0.02128882 -0.02471408
v 0.01307407 0.02128882 -0.02449424
v 0.01247220 0.02128882 -0.02410538
v 0.01537612 0.02140000 -0.02297128
v 0.01564209 0.02140000 -0.02151738
v 0.01398404 0.02140000 -0.02346789
v 0.01285791 0.02140000 -0.02251061
v 0.01312388 0.02140000 -0.02105672
v 0.01451596 0.02140000 -0.02056011
v 0.01299089 0.02010000 -0.02178367
v 0.01312388 0.02010000 -0.02105672
v 0.01285791 0.02010000 -0.02251061
v 0.01342097 0.02010000 -0.02298925
v 0.01398404 0.02010000 -0.02346789
v 0.01468008 0.02010000 -0.02321958
v 0.01537612 0.02010000 -0.02297128
v 0.01550911 0.02010000 -0.02224433
v 0.01564209 0.02010000 -0.02151738
v 0.01507903 0.02010000 -0.02103875
v 0.01451596 0.02010000 -0.02056011
v 0.01381992 0.02010000 -0.02080842
v 0.01545558 0.02010000 -0.02158392
v 0.01530319 0.02010000 -0.02128655
v 0.01552582 0.02010000 -0.02191060
v 0.01370164 0.02010000 -0.02317059
v 0.01401967 0.02010000 -0.02327311
v 0.01435340 0.02010000 -0.02328982
v 0.01497745 0.02010000 -0.02306719
v 0.01522525 0.02010000 -0.02284303
v 0.01540659 0.02010000 -0.02256236
v 0.01479836 0.02010000 -0.02085741
v 0.01448033 0.02010000 -0.02075489
v 0.01414660 0.02010000 -0.02073818
v 0.01352255 0.02010000 -0.02096081
v 0.01327475 0.02010000 -0.02118498
v 0.01309341 0.02010000 -0.02146564
v 0.01297418 0.02010000 -0.02211740
v 0.01304442 0.02010000 -0.02244408
v 0.01319681 0.02010000 -0.02274145
v 0.01425000 0.01936099 -0.02201400
vt 2.61799383 -0.00000000
vt 5.49778700 -2.01959538
vt 6.02138615 0.00000000
vt 1.04719758 -1.79519582
vt 4.97418833 -0.03475000
vt -0.00037490 -0.00131193
vt 3.92699075 -0.03190000
vt 1.04719758 0.52359879
vt 3.92699075 -0.04246950
vt 4.97418833 -2.69279361
vt -0.00183848 -0.00183848
vt 1.04719758 -0.03190000
vt 0.26179940 1.04719758
vt 5.75958633 -0.03190000
vt -0.00238851 -0.00285703
vt 5.75958633 -1.79519582
vt 1.04719758 -2.01959538
vt 5.49778700 1.04719758
vt -0.00183848 0.00183848
vt 5.49778700 0.00000000
vt 2.61799383 -1.79519582
vt 0.52359879 -2.91719317
vt 0.52359879 -0.03485000
vt 6.28318548 -0.03190000
vt 3.27249241 -0.00073901
vt 3.66519141 0.78539819
vt 3.66519141 1.57079637
vt 2.35619450 -0.03475000
vt -0.00137500 -0.00513157
vt 4.18879032 0.78539819
vt 4.45058966 0.00000000
vt 6.02138615 -3.14159274
vt 0.00080000 -0.00413564
vt -0.00000000 -0.00115000
vt -0.00080000 -0.00136436
vt 0.00105612 -0.00060975
vt 3.14159274 -1.79519582
vt 4.18879032 -0.03475000
vt 0.26179940 0.52359879
vt 4.45058966 -2.91719317
vt 2.61799383 -2.01959538
vt 4.45058966 -0.03485000
vt -0.00260000 0.00000000
vt 1.30899692 -0.03485000
vt 2.61799383 -2.91719317
vt 2.61799383 -0.03485000
vt 1.30899692 -2.91719317
vt 0.52359879 0.00000000
vt 0.91629785 -0.00073901
vt 1.83259571 -0.04246950
vt 5.36688757 -0.00073901
vt 2.09439516 0.26179940
vt 4.97418833 -1.57079637
vt 6.02138615 -2.69279361
vt 0.78539819 1.30899692
vt 6.28318548 0.26179940
vt 4.45058966 0.00028050
vt 0.00000000 0.00000000
vt 6.54498482 -0.04246950
vt -0.00000000 -0.00000000
vt 1.04719758 -3.14159274
vt 2.09439516 0.00000000
vt 0.78539819 0.52359879
vt 4.45058966 0.52359879
vt 3.92699075 -2.01959538
vt 3.66519141 -1.57079637
vt 0.78539819 -1.57079637
vt -0.00251141 0.00067293
vt -0.00117795 -0.00090387
vt -0.00265630 -0.00346175
vt 6.54498482 -2.69279361
vt 2.35619450 -2.46839428
vt 6.02138615 -1.57079637
vt -0.00192000 -0.00110851
vt -0.00147802 -0.00130000
vt 4.45058966 0.00000000
vt 0.00000000 -0.03190000
vt 4.71238899 1.57079637
vt 3.92699075 -2.46839428
vt 1.04719758 1.57079637
vt 6.54498482 -1.57079637
vt 6.02138615 0.52359879
vt -0.00017149 -0.00285703
vt 4.97418833 -0.00000000
vt -0.00031563 -0.00239745
vt 0.78539819 -2.69279361
vt 1.30899692 -2.46839428
vt 6.02138615 -2.46839428
vt 6.28318548 -2.24399471
vt 6.54498482 1.04719758
vt 3.66519141 -0.04246950
vt 0.00000000 1.30899692
vt 2.09439516 -2.69279361
vt 1.57079637 -0.03190000
vt 3.92699075 -2.24399471
vt 0.00130000 0.00225167
vt 0.26179940 0.26179940
vt -0.00004361 -0.00254831
vt 0.00130000 -0.00225167
vt 1.30899692 -1.79519582
vt 1.30899692 -2.01959538
vt 3.66519141 -3.14159274
vt -0.00000000 0.00147802
vt 4.18879032 -3.14159274
vt 1.83259571 0.78539819
vt 6.28318548 -2.46839428
vt 3.66519141 -1.79519582
vt 2.61799383 1.57079637
vt -0.00041411 -0.00120452
vt 1.57079637 -1.57079637
vt 3.40339208 -0.03475000
vt 0.00154548 -0.00233589
vt 5.49778700 0.78539819
vt 0.00000000 -0.00000000
vt 2.35619450 -1.79519582
vt 3.92699075 -2.91719317
vt 4.71238899 -2.46839428
vt 1.83259571 0.00000000
vt 3.92699075 -0.03485000
vt 5.75958633 0.26179940
vt 6.28318548 -2.01959538
vt 5.75958633 -2.91719317
vt -0.00117795 -0.00153513
vt 4.97418833 -2.01959538
vt 0.00071175 -0.00540630
vt 5.75958633 -0.03485000
vt 3.92699075 0.26179940
vt 2.87979317 -1.79519582
vt -0.00194454 -0.00469454
vt 1.04719758 0.78539819
vt 0.26179940 -2.24399471
vt 0.00238157 -0.00137500
vt 0.78539819 -0.03190000
vt 4.71238899 -2.01959538
vt 2.61799383 0.00000000
vt 3.66519141 -2.01959538
vt 1.96349537 -0.00073901
vt 4.18879032 0.00000000
vt 0.52359879 -0.00000000
vt 4.71238899 0.00028050
vt 0.00000000 -0.03485000
vt 0.26179940 -2.69279361
vt 1.57079637 -1.79519582
vt 2.09439516 -0.00000000
vt 5.75958633 0.00000000
vt 0.00117795 -0.00090387
vt -0.00064000 -0.00110851
vt -0.00251141 -0.00067293
vt 3.14159274 0.26179940
vt 1.57079637 -0.03475000
vt 3.40339208 -1.57079637
vt 1.30899692 -0.03190000
vt 4.71238899 1.04719758
vt 4.18879032 -2.69279361
vt 1.30899692 -0.04246950
vt 0.00105612 -0.00182925
vt -0.00041411 -0.00429548
vt 6.28318548 -3.14159274
vt 3.92699075 0.00000000
vt -0.00218510 -0.00131193
vt 4.71238899 -2.91719317
vt 4.71238899 -0.03485000
vt -0.00128000 -0.00093703
vt 0.00000000 1.04719758
vt 3.40339208 1.30899692
vt 4.71238899 -3.14159274
vt 0.00128000 0.00073901
vt 4.05789042 -0.00073901
vt 5.49778700 -0.04246950
vt 1.83259571 -2.91719317
vt 1.83259571 -0.03485000
vt 3.14159274 0.00000000
vt 6.28318548 -0.04246950
vt 0.52359879 -1.57079637
vt 5.49778700 -2.91719317
vt -0.00121950 -0.00121950
vt -0.00000000 0.00000000
vt 5.49778700 -0.03485000
vt 1.57079637 0.00000000
vt -0.00265630 -0.00203825
vt 6.28318548 1.30899692
vt 4.97418833 0.26179940
vt 2.09439516 -2.46839428
vt 1.83259571 -3.14159274
vt 3.92699075 0.52359879
vt 2.87979317 0.00000000
vt 1.04719758 -0.04246950
vt 4.71238899 -0.04246950
vt 5.49778700 -3.14159274
vt 0.00194454 -0.00080546
vt 5.23598766 -2.01959538
vt 0.52359879 1.30899692
vt 6.28318548 -2.69279361
vt -0.00000000 -0.00435000
vt 0.00137500 -0.00513157
vt 6.02138615 0.26179940
vt -0.00130000 -0.00225167
vt 6.28318548 -1.57079637
vt 0.52359879 1.04719758
vt 4.45058966 -2.69279361
vt -0.00094871 -0.00345341
vt 1.57079637 -2.91719317
vt 1.57079637 -0.03485000
vt 6.02138615 1.30899692
vt 3.66519141 1.30899692
vt 6.54498482 0.00000000
vt 2.09439516 1.04719758
vt 2.87979317 0.00028050
vt 1.04719758 -1.57079637
vt 2.35619450 1.57079637
vt 3.14159274 -0.00000000
vt 1.30899692 0.78539819
vt 0.52359879 -3.14159274
vt 4.45058966 1.04719758
vt 0.52359879 -2.69279361
vt 2.87979317 1.04719758
vt 1.83259571 -2.69279361
vt 0.39269909 -0.00073901
vt 0.00183848 0.00183848
vt 1.83259571 -2.01959538
vt 1.04719758 1.04719758
vt 0.52359879 0.26179940
vt -0.00086232 -0.00035718
vt 0.78539819 -3.14159274
vt 0.00041411 -0.00120452
vt 4.97418833 0.00000000
vt 1.30899692 1.57079637
vt 2.87979317 1.30899692
vt 5.23598766 -3.14159274
vt 2.09439516 -0.03475000
vt 3.40339208 0.00028050
vt 3.53429174 -0.00073901
vt 1.83259571 0.52359879
vt 5.75958633 -0.03475000
vt 6.28318548 0.78539819
vt 4.45058966 -2.46839428
vt 3.40339208 -2.01959538
vt 6.54498482 0.52359879
vt 2.35619450 0.00000000
vt 5.23598766 -0.00000000
vt 0.00000000 -0.00130000
vt 2.61799383 -2.46839428
vt 0.00225167 -0.00130000
vt 4.45058966 0.26179940
vt 4.97418833 0.78539819
vt 5.75958633 0.78539819
vt 0.78539819 -0.04246950
vt 6.28318548 -0.03475000
vt 3.14159274 -1.57079637
vt 5.23598766 -0.04246950
vt 5.23598766 -2.69279361
vt 0.78539819 -0.00000000
vt 1.57079637 1.30899692
vt 4.71238899 0.78539819
vt 0.00031563 -0.00004155
vt -0.00000000 -0.00260000
vt 1.30899692 0.00000000
vt 4.18879032 0.00028050
vt 0.00194454 -0.00469454
vt 3.40339208 0.00000000
vt -0.00238851 -0.00157703
vt 3.40339208 1.04719758
vt 4.97418833 -1.79519582
vt 1.04719758 -0.03475000
vt -0.00238157 -0.00137500
vt 6.54498482 -0.00000000
vt 0.00000000 0.78539819
vt 0.00060975 -0.00016338
vt 5.75958633 -2.69279361
vt 5.23598766 -1.57079637
vt 2.09439516 -0.03190000
vt 2.35619450 -2.01959538
vt -0.00137500 -0.00036843
vt 2.61799383 -2.69279361
vt 3.14159274 -2.46839428
vt 4.18879032 0.00000000
vt 2.87979317 0.00000000
vt 6.02138615 -0.03485000
vt 4.97418833 1.30899692
vt 6.02138615 -2.91719317
vt 0.26179940 0.00000000
vt 1.57079637 0.00000000
vt 0.52359879 -0.03475000
vt 0.00031563 -0.00239745
vt 5.49778700 0.00028050
vt 2.61799383 -0.03475000
vt 3.66519141 -0.03190000
vt 6.02138615 1.04719758
vt 0.26179940 -0.03475000
vt 1.30899692 -3.14159274
vt 0.52359879 0.78539819
vt 6.54498482 0.26179940
vt -0.00000000 -0.00147802
vt 4.97418833 -0.04246950
vt 0.78539819 0.78539819
vt 0.78539819 1.57079637
vt 5.75958633 -0.04246950
vt -0.00161129 -0.00345341
vt 6.02138615 -1.79519582
vt -0.00128000 -0.00369504
vt 0.00067293 0.00251141
vt 3.79609108 -0.00073901
vt -0.00000000 -0.00147802
vt 5.23598766 0.78539819
vt 5.23598766 1.57079637
vt 2.35619450 -3.14159274
vt 6.54498482 1.30899692
vt 4.71238899 -2.69279361
vt 0.00060975 -0.00227562
vt 1.30899692 1.04719758
vt 0.26179940 0.00028050
vt 1.57079637 0.00028050
vt 1.83259571 1.30899692
vt 0.52359879 0.00028050
vt -0.00094871 -0.00098064
vt 2.87979317 0.26179940
vt 3.92699075 -1.79519582
vt 4.97418833 -3.14159274
vt 5.75958633 -3.14159274
vt 5.23598766 -0.03190000
vt 3.14159274 -0.03485000
vt 0.26179940 -2.91719317
vt 3.14159274 -2.91719317
vt 0.26179940 -0.03485000
vt 1.83259571 -2.24399471
vt 6.54498482 -1.79519582
vt 2.35619450 -0.04246950
vt 4.97418833 -2.91719317
vt 4.97418833 -0.03485000
vt -0.00067293 -0.00251141
vt 0.00000000 0.00028050
vt -0.00154548 -0.00316411
vt 2.61799383 1.04719758
vt 6.28318548 1.04719758
vt 2.61799383 0.00000000
vt 6.54498482 -2.24399471
vt 0.00000000 0.26179940
vt 6.28318548 0.00000000
vt 1.30899692 -1.57079637
vt 3.40339208 -0.03190000
vt 6.02138615 -0.03475000
vt 3.40339208 0.00000000
vt 1.43989658 -0.00073901
vt 0.00160000 -0.00275000
vt 2.09439516 -1.57079637
vt 1.83259571 1.57079637
vt 0.26179940 -0.00000000
vt 3.66519141 0.26179940
vt 1.30899692 0.52359879
vt 4.97418833 0.00028050
vt 3.14159274 0.00000000
vt 4.18879032 -2.46839428
vt 3.14159274 1.57079637
vt 0.00086232 -0.00208182
vt 3.40339208 0.78539819
vt 2.35619450 -1.57079637
vt 0.00000000 0.00260000
vt 0.52359879 -0.04246950
vt 6.28318548 0.00028050
vt 1.83259571 0.00000000
vt 1.04719758 -0.03485000
vt -0.00113137 -0.00161863
vt 1.04719758 1.30899692
vt 1.04719758 -2.91719317
vt -0.00060975 -0.00016338
vt 5.49778700 0.52359879
vt 3.66519141 -2.69279361
vt 5.75958633 -2.01959538
vt 1.17809725 -0.00073901
vt 2.74889350 -0.00073901
vt -0.00218510 -0.00312212
vt 6.28318548 1.57079637
vt 2.87979317 -1.57079637
vt 1.30899692 -0.00000000
vt 0.00138564 -0.00355000
vt 3.66519141 -0.00000000
vt 4.97418833 -2.46839428
vt 4.71238899 0.52359879
vt -0.00128000 0.00073901
vt 3.14159274 -2.24399471
vt 4.97418833 1.57079637
vt -0.00000000 -0.00121950
vt -0.00225167 -0.00130000
vt 2.87979317 -2.91719317
vt 2.87979317 -0.03485000
vt 5.23598766 -0.00000000
vt -0.00130000 0.00225167
vt 2.09439516 -2.91719317
vt 2.09439516 -0.03485000
vt 6.28318548 -0.00000000
vt 3.66519141 -0.03475000
vt -0.00138564 -0.00355000
vt 4.45058966 -0.03190000
vt 2.35619450 0.78539819
vt 0.00000000 0.52359879
vt 2.61799383 -0.03190000
vt -0.00192000 -0.00332554
vt 3.40339208 -2.69279361
vt 0.78539819 0.00000000
vt 4.18879032 0.26179940
vt -0.00031563 -0.00004155
vt 4.97418833 -2.24399471
vt 5.75958633 -2.24399471
vt 2.87979317 -0.00000000
vt -0.00086232 -0.00208182
vt 6.54498482 -2.91719317
vt 0.26179940 -1.79519582
vt 1.57079637 -2.46839428
vt 0.00000000 -0.00295603
vt 5.23598766 1.30899692
vt 3.66519141 -2.91719317
vt 1.57079637 -2.69279361
vt 3.66519141 -0.03485000
vt -0.00251639 -0.00254831
vt 0.52359879 -2.01959538
vt 3.92699075 0.00028050
vt 1.57079637 0.52359879
vt 1.57079637 1.57079637
vt 2.61799383 1.30899692
vt 4.18879032 -1.79519582
vt 0.26179940 1.57079637
vt 3.40339208 -0.04246950
vt -0.00000000 -0.00550000
vt 0.00071175 -0.00009370
vt 5.75958633 0.00028050
vt -0.00147802 0.00000000
vt 0.78539819 -2.01959538
vt 4.84328890 -0.00073901
vt 0.78539819 0.00028050
vt 2.35619450 -2.24399471
vt 6.28318548 -0.00000000
vt 2.48709416 -0.00073901
vt 2.61799383 0.26179940
vt -0.00113137 -0.00388137
vt 5.89048624 -0.00073901
vt 0.00265630 -0.00203825
vt 3.66519141 1.04719758
vt 2.87979317 -2.46839428
vt 0.00086232 -0.00035718
vt 3.40339208 -3.14159274
vt 5.23598766 0.52359879
vt 0.26179940 0.00000000
vt 3.92699075 0.00000000
vt 2.87979317 0.52359879
vt 6.15228558 -0.00073901
vt 1.30899692 -2.24399471
vt 4.45058966 -1.57079637
vt 0.00117795 -0.00153513
vt 2.87979317 -2.01959538
vt 4.97418833 -0.03190000
vt 1.83259571 1.04719758
vt 0.00275000 -0.00275000
vt 5.75958633 0.00000000
vt 5.49778700 -2.69279361
vt 0.52359879 -2.24399471
vt 5.49778700 -2.24399471
vt 3.66519141 -2.46839428
vt 6.28318548 -1.79519582
vt 5.10508823 -0.00073901
vt 6.02138615 0.00028050
vt -0.00256000 -0.00295603
vt 4.18879032 -1.57079637
vt 1.83259571 -1.57079637
vt 1.57079637 -3.14159274
vt 0.00128000 -0.00073901
vt 0.00251141 -0.00067293
vt 4.71238899 -2.24399471
vt 1.30899692 0.00000000
vt -0.00017149 -0.00157703
vt -0.00071175 -0.00009370
vt 2.09439516 1.57079637
vt 3.14159274 0.52359879
vt 5.49778700 -0.00000000
vt 4.45058966 -3.14159274
vt 3.14159274 -2.01959538
vt -0.00154548 -0.00233589
vt -0.00073901 0.00000000
vt 2.35619450 1.04719758
vt 6.02138615 0.00000000
vt 2.35619450 0.00000000
vt 3.40339208 -2.46839428
vt 5.49778700 0.26179940
vt 2.09439516 0.52359879
vt 4.97418833 0.52359879
vt 1.04719758 -2.69279361
vt 4.71238899 -0.00000000
vt 5.75958633 0.52359879
vt 6.54498482 -0.03475000
vt 1.30899692 0.00028050
vt 3.01069307 -0.00073901
vt 2.09439516 0.00028050
vt 0.00154548 -0.00316411
vt 0.78539819 0.26179940
vt 0.00260000 0.00000000
vt 2.87979317 -0.03190000
vt -0.00128000 -0.00349702
vt 4.71238899 0.26179940
vt 3.14159274 1.04719758
vt -0.00080000 -0.00413564
vt 1.57079637 -2.24399471
vt 5.23598766 -1.79519582
vt 3.40339208 -2.24399471
vt -0.00071175 -0.00540630
vt 2.35619450 0.00028050
vt -0.00067293 0.00251141
vt 0.00121950 -0.00121950
vt 2.87979317 1.57079637
vt 6.02138615 1.57079637
vt 0.26179940 1.30899692
vt 0.00238157 -0.00412500
vt 2.35619450 0.52359879
vt 3.14159274 -3.14159274
vt 2.09439516 0.00000000
vt 3.14159274 -2.69279361
vt 1.83259571 -0.03190000
vt 4.71238899 -1.57079637
vt 0.00138564 -0.00195000
vt 4.18879032 0.52359879
vt 0.26179940 -2.46839428
vt 2.87979317 -2.24399471
vt 5.23598766 -2.24399471
vt 5.75958633 -0.00000000
vt 0.78539819 -2.91719317
vt 0.78539819 -0.03485000
vt 1.70169604 -0.00073901
vt -0.00000000 -0.00221703
vt 3.92699075 -0.00000000
vt 0.00067293 -0.00251141
vt 1.83259571 0.26179940
vt 3.66519141 0.00000000
vt 1.57079637 0.78539819
vt 3.40339208 0.26179940
vt 0.26179940 -2.01959538
vt 2.35619450 -0.00000000
vt 0.52359879 0.52359879
vt 5.62868690 -0.00073901
vt 0.00183848 -0.00183848
vt 0.78539819 -0.03475000
vt 2.61799383 0.52359879
vt -0.00004361 -0.00188574
vt 4.18879032 -2.91719317
vt -0.00238157 -0.00412500
vt 4.45058966 -0.03475000
vt 4.18879032 -0.03485000
vt 1.04719758 -0.00000000
vt 5.75958633 1.57079637
vt 2.61799383 -1.57079637
vt -0.00225167 0.00130000
vt 3.66519141 -2.24399471
vt 0.52359879 0.00000000
vt 4.45058966 0.78539819
vt 3.92699075 1.57079637
vt 1.04719758 -2.46839428
vt 4.71238899 -0.03190000
vt 2.87979317 0.78539819
vt 0.00041411 -0.00429548
vt 0.65449846 -0.00073901
vt 4.58148909 -0.00073901
vt 4.71238899 -1.79519582
vt 3.92699075 -1.57079637
vt 0.78539819 -1.79519582
vt -0.00128000 -0.00073901
vt 3.92699075 -2.69279361
vt 1.57079637 -0.00000000
vt 5.49778700 -0.03190000
vt 2.09439516 -1.79519582
vt 0.26179940 -3.14159274
vt 5.49778700 0.00000000
vt 5.75958633 1.04719758
vt 2.09439516 -2.24399471
vt 6.02138615 -2.01959538
vt 3.92699075 1.30899692
vt 1.30899692 -2.69279361
vt 2.61799383 -3.14159274
vt 3.92699075 1.04719758
vt 0.26179940 -0.04246950
vt 4.71238899 0.00000000
vt 3.14159274 0.78539819
vt 1.57079637 -0.04246950
vt 1.30899692 -0.03475000
vt 3.40339208 0.52359879
vt 2.35619450 -2.69279361
vt 6.54498482 -2.46839428
vt -0.00037490 -0.00312212
vt 3.92699075 -3.14159274
vt 2.09439516 0.78539819
vt 4.97418833 0.00000000
vt 2.35619450 -2.91719317
vt 3.14159274 0.00028050
vt 2.35619450 -0.03485000
vt 2.87979317 -2.69279361
vt 0.26179940 -1.57079637
vt 2.61799383 0.00028050
vt 5.49778700 -0.03475000
vt 4.45058966 -0.04246950
vt 6.54498482 -2.01959538
vt 4.18879032 -2.24399471
vt 1.04719758 0.26179940
vt 2.87979317 -0.04246950
vt 4.71238899 0.00000000
vt 1.04719758 0.00000000
vt -0.00000000 -0.00243900
vt 5.23598766 -2.46839428
vt 1.83259571 0.00028050
vt 4.45058966 -0.00000000
vt 6.02138615 -0.00000000
vt -0.00105612 -0.00182925
vt -0.00194454 -0.00080546
vt 1.57079637 1.04719758
vt 0.00113137 -0.00161863
vt 4.71238899 -0.03475000
vt 3.14159274 1.30899692
vt 6.02138615 -0.04246950
vt 0.00265630 -0.00346175
vt 2.61799383 -2.24399471
vt -0.00256000 -0.00221703
vt 2.87979317 -3.14159274
vt -0.00160000 -0.00275000
vt 2.35619450 0.26179940
vt 3.66519141 0.52359879
vt 0.13089970 -0.00073901
vt 4.97418833 1.04719758
vt 5.23598766 1.04719758
vt 0.00000000 1.57079637
vt 6.28318548 -2.91719317
vt 1.04719758 0.00028050
vt 0.52359879 -0.03190000
vt 3.40339208 -1.79519582
vt 6.28318548 -0.03485000
vt 1.57079637 -2.01959538
vt 0.52359879 1.57079637
vt 0.26179940 0.78539819
vt 1.04719758 -2.24399471
vt 6.54498482 -3.14159274
vt 4.18879032 -2.01959538
vt 3.14159274 -0.04246950
vt -0.00064000 -0.00332554
vt 1.30899692 0.26179940
vt 5.23598766 0.00028050
vt -0.00256000 -0.00147802
vt 4.71238899 1.30899692
vt 5.49778700 -1.57079637
vt 4.18879032 -0.03190000
vt 2.61799383 0.78539819
vt 5.75958633 -2.46839428
vt 4.45058966 1.57079637
vt 5.23598766 -2.91719317
vt 4.45058966 -2.01959538
vt 5.23598766 -0.03485000
vt 2.09439516 -0.04246950
vt 4.45058966 1.30899692
vt 5.49778700 1.30899692
vt 0.00080000 -0.00136436
vt 3.66519141 0.00000000
vt -0.00060975 -0.00227562
vt 3.92699075 -0.03475000
vt 4.18879032 1.04719758
vt 6.02138615 -0.03190000
vt 5.49778700 1.57079637
vt 5.23598766 0.00000000
vt 3.40339208 -2.91719317
vt 1.04719758 -0.00000000
vt 3.40339208 -0.03485000
vt 3.92699075 0.78539819
vt 4.18879032 1.30899692
vt 2.09439516 -3.14159274
vt 2.87979317 -0.03475000
vt 0.00225167 0.00130000
vt 5.23598766 -0.03475000
vt 1.30899692 1.30899692
vt 4.45058966 -1.79519582
vt -0.00275000 -0.00275000
vt -0.00138564 -0.00195000
vt 6.02138615 0.78539819
vt 0.00137500 -0.00036843
vt 0.78539819 0.00000000
vt 3.66519141 0.00028050
vt 0.00113137 -0.00388137
vt -0.00251639 -0.00188574
vt 5.49778700 -1.79519582
vt 2.35619450 1.30899692
vt 0.52359879 -1.79519582
vt 0.78539819 1.04719758
vt 0.78539819 -2.24399471
vt 1.83259571 -1.79519582
vt 4.45058966 -2.24399471
vt -0.00105612 -0.00060975
vt -0.00161129 -0.00098064
vt 0.00251141 0.00067293
vt 4.18879032 1.57079637
vt 3.40339208 -0.00000000
vt 4.18879032 -0.04246950
vt 5.75958633 -1.57079637
vt 4.31968975 -0.00073901
vt 3.14159274 -0.03190000
vt 0.52359879 -2.46839428
vt 1.83259571 -2.46839428
vt 0.26179940 -0.03190000
vt 1.83259571 -0.03475000
vt 5.49778700 -2.46839428
vt 2.22529483 -0.00073901
vt 2.09439516 1.30899692
vt 1.57079637 0.26179940
vt 6.02138615 -2.24399471
vt 0.78539819 -2.46839428
vt 3.14159274 -0.03475000
vt 2.09439516 -2.01959538
vt 2.61799383 -0.04246950
vt 2.35619450 -0.03190000
vt 5.75958633 1.30899692
vt 1.83259571 -0.00000000
vt 6.28318548 0.52359879
vt 3.40339208 1.57079637
vt 4.18879032 -0.00000000
vt 6.54498482 0.78539819
vt 5.23598766 0.26179940
usemtl Nobel
f 470/1 469/2 468/3
f 443/4 469/2 470/5
f 470/6 440/7 466/8
f 467/9 440/7 470/10
f 468/3 467/9 470/11
f 470/12 464/13 451/14
f 465/15 464/13 470/16
f 466/8 465/15 470/17
f 470/18 462/19 461/20
f 463/21 462/19 470/22
f 451/14 463/21 470/23
f 470/24 453/25 452/26
f 449/27 453/25 470/28
f 461/20 449/27 470/29
f 470/30 447/31 460/32
f 454/33 447/31 470/34
f 452/26 454/33 470/35
f 470/36 458/37 445/38
f 459/39 458/37 470/40
f 460/32 459/39 470/41
f 470/42 456/43 455/44
f 457/45 456/43 470/46
f 445/38 457/45 470/47
f 455/44 443/48 470/49
f 290/50 314/51 291/52
f 314/51 315/53 291/52
f 291/52 315/53 292/54
f 315/53 316/55 292/54
f 292/54 316/55 293/56
f 316/55 317/57 293/56
f 293/56 317/57 294/58
f 317/57 318/59 294/58
f 294/58 318/59 295/60
f 318/59 319/61 295/60
f 295/60 319/61 296/62
f 319/61 320/63 296/62
f 296/62 320/63 297/64
f 320/63 321/65 297/64
f 297/64 321/65 298/66
f 321/65 322/67 298/66
f 298/66 322/67 299/68
f 322/67 323/69 299/68
f 299/68 323/69 300/70
f 323/69 324/71 300/70
f 300/70 324/71 301/72
f 324/71 325/73 301/72
f 301/72 325/73 302/74
f 325/73 326/75 302/74
f 302/74 326/75 303/76
f 326/75 327/77 303/76
f 303/76 327/77 304/78
f 327/77 328/79 304/78
f 304/78 328/79 305/80
f 328/79 329/81 305/80
f 305/80 329/81 306/82
f 329/81 330/83 306/82
f 306/82 330/83 307/84
f 330/83 331/85 307/84
f 307/84 331/85 308/86
f 331/85 332/87 308/86
f 308/86 332/87 309/88
f 332/87 333/89 309/88
f 309/88 333/89 310/90
f 333/89 334/91 310/90
f 310/90 334/91 311/92
f 334/91 335/93 311/92
f 311/92 335/93 312/94
f 335/93 336/95 312/94
f 312/94 336/95 313/96
f 336/95 337/97 313/96
f 313/96 337/97 290/98
f 337/97 314/99 290/98
f 337/100 338/101 314/51
f 338/101 339/102 314/51
f 314/51 339/102 315/53
f 339/102 340/103 315/53
f 315/53 340/103 316/55
f 340/103 341/104 316/55
f 316/55 341/104 317/57
f 341/104 342/105 317/57
f 317/57 342/105 318/59
f 342/105 343/106 318/59
f 318/59 343/106 319/61
f 343/106 344/107 319/61
f 319/61 344/107 320/63
f 344/107 345/108 320/63
f 320/63 345/108 321/65
f 345/108 346/109 321/65
f 321/65 346/109 322/67
f 346/109 347/110 322/67
f 322/67 347/110 323/69
f 347/110 348/111 323/69
f 323/69 348/111 324/71
f 348/111 349/112 324/71
f 324/71 349/112 325/73
f 349/112 350/113 325/73
f 325/73 350/113 326/75
f 350/113 351/114 326/75
f 326/75 351/114 327/77
f 351/114 352/115 327/77
f 327/77 352/115 328/79
f 352/115 353/116 328/79
f 328/79 353/116 329/81
f 353/116 354/117 329/81
f 329/81 354/117 330/83
f 354/117 355/118 330/83
f 330/83 355/118 331/85
f 355/118 356/119 331/85
f 331/85 356/119 332/87
f 356/119 357/120 332/87
f 332/87 357/120 333/89
f 357/120 358/121 333/89
f 333/89 358/121 334/91
f 358/121 359/122 334/91
f 334/91 359/122 335/93
f 359/122 360/123 335/93
f 335/93 360/123 336/95
f 360/123 361/124 336/95
f 336/95 361/124 337/97
f 361/124 338/125 337/97
f 361/126 362/127 338/101
f 362/127 363/128 338/101
f 338/101 363/128 339/102
f 363/128 364/129 339/102
f 339/102 364/129 340/103
f 364/129 365/130 340/103
f 340/103 365/130 341/104
f 365/130 366/131 341/104
f 341/104 366/131 342/105
f 366/131 367/132 342/105
f 342/105 367/132 343/106
f 367/132 368/133 343/106
f 343/106 368/133 344/107
f 368/133 369/134 344/107
f 344/107 369/134 345/108
f 369/134 370/135 345/108
f 345/108 370/135 346/109
f 370/135 371/136 346/109
f 346/109 371/136 347/110
f 371/136 372/137 347/110
f 347/110 372/137 348/111
f 372/137 373/138 348/111
f 348/111 373/138 349/112
f 373/138 374/139 349/112
f 349/112 374/139 350/113
f 374/139 375/140 350/113
f 350/113 375/140 351/114
f 375/140 376/141 351/114
f 351/114 376/141 352/115
f 376/141 377/142 352/115
f 352/115 377/142 353/116
f 377/142 378/143 353/116
f 353/116 378/143 354/117
f 378/143 379/144 354/117
f 354/117 379/144 355/118
f 379/144 380/145 355/118
f 355/118 380/145 356/119
f 380/145 381/146 356/119
f 356/119 381/146 357/120
f 381/146 382/147 357/120
f 357/120 382/147 358/121
f 382/147 383/148 358/121
f 358/121 383/148 359/122
f 383/148 384/149 359/122
f 359/122 384/149 360/123
f 384/149 385/150 360/123
f 360/123 385/150 361/124
f 385/150 362/151 361/124
f 385/152 386/153 362/127
f 386/153 387/154 362/127
f 362/127 387/154 363/128
f 387/154 388/155 363/128
f 363/128 388/155 364/129
f 388/155 389/156 364/129
f 364/129 389/156 365/130
f 389/156 390/157 365/130
f 365/130 390/157 366/131
f 390/157 391/158 366/131
f 366/131 391/158 367/132
f 391/158 392/159 367/132
f 367/132 392/159 368/133
f 392/159 393/160 368/133
f 368/133 393/160 369/134
f 393/160 394/161 369/134
f 369/134 394/161 370/135
f 394/161 395/162 370/135
f 370/135 395/162 371/136
f 395/162 396/163 371/136
f 371/136 396/163 372/137
f 396/163 397/164 372/137
f 372/137 397/164 373/138
f 397/164 398/165 373/138
f 373/138 398/165 374/139
f 398/165 399/166 374/139
f 374/139 399/166 375/140
f 399/166 400/167 375/140
f 375/140 400/167 376/141
f 400/167 401/168 376/141
f 376/141 401/168 377/142
f 401/168 402/169 377/142
f 377/142 402/169 378/143
f 402/169 403/170 378/143
f 378/143 403/170 379/144
f 403/170 404/171 379/144
f 379/144 404/171 380/145
f 404/171 405/172 380/145
f 380/145 405/172 381/146
f 405/172 406/173 381/146
f 381/146 406/173 382/147
f 406/173 407/174 382/147
f 382/147 407/174 383/148
f 407/174 408/175 383/148
f 383/148 408/175 384/149
f 408/175 409/176 384/149
f 384/149 409/176 385/150
f 409/176 386/177 385/150
f 409/178 410/179 386/153
f 410/179 411/180 386/153
f 386/153 411/180 387/154
f 411/180 412/181 387/154
f 387/154 412/181 388/155
f 412/181 413/182 388/155
f 388/155 413/182 389/156
f 413/182 414/183 389/156
f 389/156 414/183 390/157
f 414/183 415/184 390/157
f 390/157 415/184 391/158
f 415/184 416/185 391/158
f 391/158 416/185 392/159
f 416/185 417/186 392/159
f 392/159 417/186 393/160
f 417/186 418/187 393/160
f 393/160 418/187 394/161
f 418/187 419/188 394/161
f 394/161 419/188 395/162
f 419/188 420/189 395/162
f 395/162 420/189 396/163
f 420/189 421/190 396/163
f 396/163 421/190 397/164
f 421/190 422/191 397/164
f 397/164 422/191 398/165
f 422/191 423/192 398/165
f 398/165 423/192 399/166
f 423/192 424/193 399/166
f 399/166 424/193 400/167
f 424/193 425/194 400/167
f 400/167 425/194 401/168
f 425/194 426/195 401/168
f 401/168 426/195 402/169
f 426/195 427/196 402/169
f 402/169 427/196 403/170
f 427/196 428/197 403/170
f 403/170 428/197 404/171
f 428/197 429/198 404/171
f 404/171 429/198 405/172
f 429/198 430/199 405/172
f 405/172 430/199 406/173
f 430/199 431/200 406/173
f 406/173 431/200 407/174
f 431/200 432/201 407/174
f 407/174 432/201 408/175
f 432/201 433/202 408/175
f 408/175 433/202 409/176
f 433/202 410/203 409/176
f 433/204 267/205 410/179
f 267/205 268/206 410/179
f 410/179 268/206 411/180
f 268/206 269/207 411/180
f 411/180 269/207 412/181
f 269/207 270/208 412/181
f 412/181 270/208 413/182
f 270/208 271/209 413/182
f 413/182 271/209 414/183
f 271/209 272/210 414/183
f 414/183 272/210 415/184
f 272/210 273/211 415/184
f 415/184 273/211 416/185
f 273/211 274/212 416/185
f 416/185 274/212 417/186
f 274/212 275/213 417/186
f 417/186 275/213 418/187
f 275/213 276/214 418/187
f 418/187 276/214 419/188
f 276/214 277/215 419/188
f 419/188 277/215 420/189
f 277/215 278/216 420/189
f 420/189 278/216 421/190
f 278/216 279/217 421/190
f 421/190 279/217 422/191
f 279/217 280/218 422/191
f 422/191 280/218 423/192
f 280/218 281/219 423/192
f 423/192 281/219 424/193
f 281/219 282/220 424/193
f 424/193 282/220 425/194
f 282/220 283/221 425/194
f 425/194 283/221 426/195
f 283/221 284/222 426/195
f 426/195 284/222 427/196
f 284/222 285/223 427/196
f 427/196 285/223 428/197
f 285/223 286/224 428/197
f 428/197 286/224 429/198
f 286/224 287/225 429/198
f 429/198 287/225 430/199
f 287/225 288/226 430/199
f 430/199 288/226 431/200
f 288/226 289/227 431/200
f 431/200 289/227 432/201
f 289/227 266/228 432/201
f 432/201 266/228 433/202
f 266/228 267/229 433/202
f 61/230 98/231 60/232
f 98/231 99/233 60/232
f 60/232 99/233 59/234
f 99/233 100/235 59/234
f 59/234 100/235 58/236
f 100/235 101/237 58/236
f 58/236 101/237 57/238
f 101/237 102/239 57/238
f 57/238 102/239 56/240
f 102/239 103/241 56/240
f 56/240 103/241 55/242
f 103/241 104/243 55/242
f 55/242 104/243 54/244
f 104/243 105/245 54/244
f 54/244 105/245 53/246
f 105/245 106/247 53/246
f 53/246 106/247 52/248
f 106/247 107/249 52/248
f 52/248 107/249 51/250
f 107/249 108/251 51/250
f 51/250 108/251 50/252
f 108/251 109/253 50/252
f 50/252 109/253 73/254
f 109/253 110/255 73/254
f 73/254 110/255 72/256
f 110/255 111/257 72/256
f 72/256 111/257 71/258
f 111/257 112/259 71/258
f 71/258 112/259 70/260
f 112/259 113/261 70/260
f 70/260 113/261 69/262
f 113/261 114/263 69/262
f 69/262 114/263 68/264
f 114/263 115/265 68/264
f 68/264 115/265 67/266
f 115/265 116/267 67/266
f 67/266 116/267 66/268
f 116/267 117/269 66/268
f 66/268 117/269 65/270
f 117/269 118/271 65/270
f 65/270 118/271 64/272
f 118/271 119/273 64/272
f 64/272 119/273 63/274
f 119/273 120/275 63/274
f 63/274 120/275 62/276
f 120/275 121/277 62/276
f 62/276 121/277 61/278
f 121/277 98/279 61/278
f 98/231 122/280 99/233
f 122/280 123/281 99/233
f 99/233 123/281 100/235
f 123/281 124/282 100/235
f 100/235 124/282 101/237
f 124/282 125/283 101/237
f 101/237 125/283 102/239
f 125/283 126/284 102/239
f 102/239 126/284 103/241
f 126/284 127/285 103/241
f 103/241 127/285 104/243
f 127/285 128/286 104/243
f 104/243 128/286 105/245
f 128/286 129/287 105/245
f 105/245 129/287 106/247
f 129/287 130/288 106/247
f 106/247 130/288 107/249
f 130/288 131/289 107/249
f 107/249 131/289 108/251
f 131/289 132/290 108/251
f 108/251 132/290 109/253
f 132/290 133/291 109/253
f 109/253 133/291 110/255
f 133/291 134/292 110/255
f 110/255 134/292 111/257
f 134/292 135/293 111/257
f 111/257 135/293 112/259
f 135/293 136/294 112/259
f 112/259 136/294 113/261
f 136/294 137/295 113/261
f 113/261 137/295 114/263
f 137/295 138/296 114/263
f 114/263 138/296 115/265
f 138/296 139/297 115/265
f 115/265 139/297 116/267
f 139/297 140/298 116/267
f 116/267 140/298 117/269
f 140/298 141/299 117/269
f 117/269 141/299 118/271
f 141/299 142/300 118/271
f 118/271 142/300 119/273
f 142/300 143/301 119/273
f 119/273 143/301 120/275
f 143/301 144/302 120/275
f 120/275 144/302 121/277
f 144/302 145/303 121/277
f 121/277 145/303 98/279
f 145/303 122/304 98/279
f 122/280 146/305 123/281
f 146/305 147/306 123/281
f 123/281 147/306 124/282
f 147/306 148/307 124/282
f 124/282 148/307 125/283
f 148/307 149/308 125/283
f 125/283 149/308 126/284
f 149/308 150/309 126/284
f 126/284 150/309 127/285
f 150/309 151/310 127/285
f 127/285 151/310 128/286
f 151/310 152/311 128/286
f 128/286 152/311 129/287
f 152/311 153/312 129/287
f 129/287 153/312 130/288
f 153/312 154/313 130/288
f 130/288 154/313 131/289
f 154/313 155/314 131/289
f 131/289 155/314 132/290
f 155/314 156/315 132/290
f 132/290 156/315 133/291
f 156/315 157/316 133/291
f 133/291 157/316 134/292
f 157/316 158/317 134/292
f 134/292 158/317 135/293
f 158/317 159/318 135/293
f 135/293 159/318 136/294
f 159/318 160/319 136/294
f 136/294 160/319 137/295
f 160/319 161/320 137/295
f 137/295 161/320 138/296
f 161/320 162/321 138/296
f 138/296 162/321 139/297
f 162/321 163/322 139/297
f 139/297 163/322 140/298
f 163/322 164/323 140/298
f 140/298 164/323 141/299
f 164/323 165/324 141/299
f 141/299 165/324 142/300
f 165/324 166/325 142/300
f 142/300 166/325 143/301
f 166/325 167/326 143/301
f 143/301 167/326 144/302
f 167/326 168/327 144/302
f 144/302 168/327 145/303
f 168/327 169/328 145/303
f 145/303 169/328 122/304
f 169/328 146/329 122/304
f 146/305 170/330 147/306
f 170/330 171/331 147/306
f 147/306 171/331 148/307
f 171/331 172/332 148/307
f 148/307 172/332 149/308
f 172/332 173/333 149/308
f 149/308 173/333 150/309
f 173/333 174/334 150/309
f 150/309 174/334 151/310
f 174/334 175/335 151/310
f 151/310 175/335 152/311
f 175/335 176/336 152/311
f 152/311 176/336 153/312
f 176/336 177/337 153/312
f 153/312 177/337 154/313
f 177/337 178/338 154/313
f 154/313 178/338 155/314
f 178/338 179/339 155/314
f 155/314 179/339 156/315
f 179/339 180/340 156/315
f 156/315 180/340 157/316
f 180/340 181/341 157/316
f 157/316 181/341 158/317
f 181/341 182/342 158/317
f 158/317 182/342 159/318
f 182/342 183/343 159/318
f 159/318 183/343 160/319
f 183/343 184/344 160/319
f 160/319 184/344 161/320
f 184/344 185/345 161/320
f 161/320 185/345 162/321
f 185/345 186/346 162/321
f 162/321 186/346 163/322
f 186/346 187/347 163/322
f 163/322 187/347 164/323
f 187/347 188/348 164/323
f 164/323 188/348 165/324
f 188/348 189/349 165/324
f 165/324 189/349 166/325
f 189/349 190/350 166/325
f 166/325 190/350 167/326
f 190/350 191/351 167/326
f 167/326 191/351 168/327
f 191/351 192/352 168/327
f 168/327 192/352 169/328
f 192/352 193/353 169/328
f 169/328 193/353 146/329
f 193/353 170/354 146/329
f 170/330 194/355 171/331
f 194/355 195/356 171/331
f 171/331 195/356 172/332
f 195/356 196/357 172/332
f 172/332 196/357 173/333
f 196/357 197/358 173/333
f 173/333 197/358 174/334
f 197/358 198/359 174/334
f 174/334 198/359 175/335
f 198/359 199/360 175/335
f 175/335 199/360 176/336
f 199/360 200/361 176/336
f 176/336 200/361 177/337
f 200/361 201/362 177/337
f 177/337 201/362 178/338
f 201/362 202/363 178/338
f 178/338 202/363 179/339
f 202/363 203/364 179/339
f 179/339 203/364 180/340
f 203/364 204/365 180/340
f 180/340 204/365 181/341
f 204/365 205/366 181/341
f 181/341 205/366 182/342
f 205/366 206/367 182/342
f 182/342 206/367 183/343
f 206/367 207/368 183/343
f 183/343 207/368 184/344
f 207/368 208/369 184/344
f 184/344 208/369 185/345
f 208/369 209/370 185/345
f 185/345 209/370 186/346
f 209/370 210/371 186/346
f 186/346 210/371 187/347
f 210/371 211/372 187/347
f 187/347 211/372 188/348
f 211/372 212/373 188/348
f 188/348 212/373 189/349
f 212/373 213/374 189/349
f 189/349 213/374 190/350
f 213/374 214/375 190/350
f 190/350 214/375 191/351
f 214/375 215/376 191/351
f 191/351 215/376 192/352
f 215/376 216/377 192/352
f 192/352 216/377 193/353
f 216/377 217/378 193/353
f 193/353 217/378 170/354
f 217/378 194/379 170/354
f 194/355 218/380 195/356
f 218/380 219/381 195/356
f 195/356 219/381 196/357
f 219/381 220/382 196/357
f 196/357 220/382 197/358
f 220/382 221/383 197/358
f 197/358 221/383 198/359
f 221/383 222/384 198/359
f 198/359 222/384 199/360
f 222/384 223/385 199/360
f 199/360 223/385 200/361
f 223/385 224/386 200/361
f 200/361 224/386 201/362
f 224/386 225/387 201/362
f 201/362 225/387 202/363
f 225/387 226/388 202/363
f 202/363 226/388 203/364
f 226/388 227/389 203/364
f 203/364 227/389 204/365
f 227/389 228/390 204/365
f 204/365 228/390 205/366
f 228/390 229/391 205/366
f 205/366 229/391 206/367
f 229/391 230/392 206/367
f 206/367 230/392 207/368
f 230/392 231/393 207/368
f 207/368 231/393 208/369
f 231/393 232/394 208/369
f 208/369 232/394 209/370
f 232/394 233/395 209/370
f 209/370 233/395 210/371
f 233/395 234/396 210/371
f 210/371 234/396 211/372
f 234/396 235/397 211/372
f 211/372 235/397 212/373
f 235/397 236/398 212/373
f 212/373 236/398 213/374
f 236/398 237/399 213/374
f 213/374 237/399 214/375
f 237/399 238/400 214/375
f 214/375 238/400 215/376
f 238/400 239/401 215/376
f 215/376 239/401 216/377
f 239/401 240/402 216/377
f 216/377 240/402 217/378
f 240/402 241/403 217/378
f 217/378 241/403 194/379
f 241/403 218/404 194/379
f 218/380 75/405 219/381
f 75/405 76/406 219/381
f 219/381 76/406 220/382
f 76/406 77/407 220/382
f 220/382 77/407 221/383
f 77/407 78/408 221/383
f 221/383 78/408 222/384
f 78/408 79/409 222/384
f 222/384 79/409 223/385
f 79/409 80/410 223/385
f 223/385 80/410 224/386
f 80/410 81/411 224/386
f 224/386 81/411 225/387
f 81/411 82/412 225/387
f 225/387 82/412 226/388
f 82/412 83/413 226/388
f 226/388 83/413 227/389
f 83/413 84/414 227/389
f 227/389 84/414 228/390
f 84/414 85/415 228/390
f 228/390 85/415 229/391
f 85/415 86/416 229/391
f 229/391 86/416 230/392
f 86/416 87/417 230/392
f 230/392 87/417 231/393
f 87/417 88/418 231/393
f 231/393 88/418 232/394
f 88/418 89/419 232/394
f 232/394 89/419 233/395
f 89/419 90/420 233/395
f 233/395 90/420 234/396
f 90/420 91/421 234/396
f 234/396 91/421 235/397
f 91/421 92/422 235/397
f 235/397 92/422 236/398
f 92/422 93/423 236/398
f 236/398 93/423 237/399
f 93/423 94/424 237/399
f 237/399 94/424 238/400
f 94/424 95/425 238/400
f 238/400 95/425 239/401
f 95/425 96/426 239/401
f 239/401 96/426 240/402
f 96/426 97/427 240/402
f 240/402 97/427 241/403
f 97/427 74/428 241/403
f 241/403 74/428 218/404
f 74/428 75/429 218/404
f 26/430 24/431 27/432
f 24/431 23/433 27/432
f 27/432 23/433 28/434
f 23/433 22/435 28/434
f 28/434 22/435 29/436
f 22/435 21/437 29/436
f 29/436 21/437 30/438
f 21/437 20/439 30/438
f 30/438 20/439 31/440
f 20/439 19/441 31/440
f 31/440 19/441 32/442
f 19/441 18/443 32/442
f 32/442 18/443 33/444
f 18/443 17/445 33/444
f 33/444 17/445 34/446
f 17/445 16/447 34/446
f 34/446 16/447 35/448
f 16/447 15/449 35/448
f 35/448 15/449 36/450
f 15/449 14/451 36/450
f 36/450 14/451 37/452
f 14/451 13/453 37/452
f 37/452 13/453 38/454
f 13/453 12/455 38/454
f 38/454 12/455 39/456
f 12/455 11/457 39/456
f 39/456 11/457 40/458
f 11/457 10/459 40/458
f 40/458 10/459 41/460
f 10/459 9/461 41/460
f 41/460 9/461 42/462
f 9/461 8/463 42/462
f 42/462 8/463 43/464
f 8/463 7/465 43/464
f 43/464 7/465 44/466
f 7/465 6/467 44/466
f 44/466 6/467 45/468
f 6/467 5/469 45/468
f 45/468 5/469 46/470
f 5/469 4/471 46/470
f 46/470 4/471 47/472
f 4/471 3/473 47/472
f 47/472 3/473 48/474
f 3/473 2/475 48/474
f 48/474 2/475 49/476
f 2/475 1/477 49/476
f 49/476 1/477 26/478
f 1/477 24/479 26/478
f 50/480 27/481 51/482
f 27/481 28/483 51/482
f 51/482 28/483 52/484
f 28/483 29/485 52/484
f 52/484 29/485 53/486
f 29/485 30/487 53/486
f 53/486 30/487 54/488
f 30/487 31/489 54/488
f 54/488 31/489 55/490
f 31/489 32/491 55/490
f 55/490 32/491 56/492
f 32/491 33/493 56/492
f 56/492 33/493 57/494
f 33/493 34/495 57/494
f 57/494 34/495 58/496
f 34/495 35/497 58/496
f 58/496 35/497 59/498
f 35/497 36/499 59/498
f 59/498 36/499 60/500
f 36/499 37/501 60/500
f 60/500 37/501 61/502
f 37/501 38/503 61/502
f 61/502 38/503 62/504
f 38/503 39/505 62/504
f 62/504 39/505 63/506
f 39/505 40/507 63/506
f 63/506 40/507 64/508
f 40/507 41/509 64/508
f 64/508 41/509 65/510
f 41/509 42/511 65/510
f 65/510 42/511 66/512
f 42/511 43/513 66/512
f 66/512 43/513 67/514
f 43/513 44/515 67/514
f 67/514 44/515 68/516
f 44/515 45/517 68/516
f 68/516 45/517 69/518
f 45/517 46/519 69/518
f 69/518 46/519 70/520
f 46/519 47/521 70/520
f 70/520 47/521 71/522
f 47/521 48/523 71/522
f 71/522 48/523 72/524
f 48/523 49/525 72/524
f 72/524 49/525 73/526
f 49/525 26/527 73/526
f 73/526 26/527 50/528
f 26/527 27/529 50/528
f 448/530 447/531 454/532
f 454/532 452/533 448/530
f 452/533 453/534 448/530
f 448/530 453/534 449/535
f 446/536 445/537 458/538
f 458/538 459/539 446/536
f 459/539 460/540 446/536
f 446/536 460/540 447/531
f 457/541 445/537 444/542
f 443/543 455/544 444/542
f 455/544 456/545 444/542
f 444/542 456/545 457/541
f 442/546 440/547 467/548
f 467/548 468/549 442/546
f 468/549 469/550 442/546
f 442/546 469/550 443/543
f 463/551 451/552 450/553
f 449/535 461/554 450/553
f 461/554 462/555 450/553
f 450/553 462/555 463/551
f 441/556 451/552 464/557
f 464/557 465/558 441/556
f 465/558 466/559 441/556
f 441/556 466/559 440/547
f 441/560 438/561 451/562
f 438/561 439/563 451/562
f 451/562 439/563 450/564
f 450/560 439/561 449/562
f 439/561 435/563 449/562
f 449/562 435/563 448/564
f 448/564 435/563 447/562
f 435/563 434/561 447/562
f 447/562 434/561 446/560
f 446/564 434/563 445/562
f 434/563 436/561 445/562
f 445/562 436/561 444/560
f 444/560 436/561 443/562
f 436/561 437/563 443/562
f 443/562 437/563 442/564
f 442/564 437/563 440/562
f 437/563 438/561 440/562
f 440/562 438/561 441/560
f 22/565 23/566 25/567
f 23/566 24/568 25/567
f 25/567 24/568 1/569
f 19/570 20/571 25/567
f 20/571 21/572 25/567
f 25/567 21/572 22/565
f 16/573 17/574 25/567
f 17/574 18/575 25/567
f 25/567 18/575 19/570
f 13/576 14/577 25/567
f 14/577 15/578 25/567
f 25/567 15/578 16/573
f 10/579 11/580 25/567
f 11/580 12/581 25/567
f 25/567 12/581 13/576
f 7/582 8/583 25/567
f 8/583 9/584 25/567
f 25/567 9/584 10/579
f 4/585 5/586 25/567
f 5/586 6/587 25/567
f 25/567 6/587 7/582
f 1/569 2/588 25/567
f 2/588 3/589 25/567
f 25/567 3/589 4/585
f 83/590 243/591 84/592
f 243/591 251/593 84/592
f 84/592 251/593 85/594
f 251/593 252/595 85/594
f 85/594 252/595 86/596
f 252/595 256/597 86/596
f 86/596 256/597 87/598
f 256/597 263/599 87/598
f 87/598 263/599 88/600
f 263/599 264/601 88/600
f 88/600 264/601 89/602
f 264/601 265/603 89/602
f 89/602 265/603 90/604
f 265/603 262/605 90/604
f 90/604 262/605 91/606
f 262/605 257/607 91/606
f 91/606 257/607 92/608
f 257/607 258/609 92/608
f 92/608 258/609 93/610
f 258/609 261/611 93/610
f 93/610 261/611 94/612
f 261/611 259/613 94/612
f 94/612 259/613 95/614
f 259/613 260/615 95/614
f 95/614 260/615 96/616
f 260/615 244/617 96/616
f 96/616 244/617 97/618
f 244/617 245/619 97/618
f 97/618 245/619 74/620
f 245/619 253/621 74/620
f 74/620 253/621 75/622
f 253/621 254/623 75/622
f 75/622 254/623 76/624
f 254/623 255/625 76/624
f 76/624 255/625 77/626
f 255/625 246/627 77/626
f 77/626 246/627 78/628
f 246/627 247/629 78/628
f 78/628 247/629 79/630
f 247/629 248/631 79/630
f 79/630 248/631 80/632
f 248/631 249/633 80/632
f 80/632 249/633 81/634
f 249/633 250/635 81/634
f 81/634 250/635 82/636
f 250/635 242/637 82/636
f 82/636 242/637 83/590
f 242/637 243/591 83/590
f 311/638 312/639 436/640
f 303/641 435/556 302/642
f 435/556 439/643 302/642
f 302/642 439/643 301/644
f 439/643 300/645 301/644
f 296/646 297/647 438/648
f 297/647 298/649 438/648
f 438/648 298/649 439/643
f 298/649 299/650 439/643
f 439/643 299/650 300/645
f 292/651 293/652 437/653
f 293/652 294/654 437/653
f 437/653 294/654 438/648
f 294/654 295/655 438/648
f 438/648 295/655 296/646
f 312/639 313/656 436/640
f 313/656 290/657 436/640
f 436/640 290/657 437/653
f 290/657 291/658 437/653
f 437/653 291/658 292/651
f 307/659 308/660 434/661
f 308/660 309/662 434/661
f 434/661 309/662 436/640
f 309/662 310/663 436/640
f 436/640 310/663 311/638
f 303/641 304/664 435/556
f 304/664 305/665 435/556
f 435/556 305/665 434/661
f 305/665 306/666 434/661
f 434/661 306/666 307/659
f 266/667 252/668 267/669
f 252/668 251/670 267/669
f 267/669 251/670 268/671
f 251/670 243/672 268/671
f 268/671 243/672 269/673
f 243/672 242/674 269/673
f 269/673 242/674 270/675
f 242/674 250/676 270/675
f 270/675 250/676 271/677
f 250/676 249/678 271/677
f 271/677 249/678 272/679
f 249/678 248/680 272/679
f 272/679 248/680 273/681
f 248/680 247/682 273/681
f 273/681 247/682 274/683
f 247/682 246/684 274/683
f 274/683 246/684 275/685
f 246/684 255/686 275/685
f 275/685 255/686 276/687
f 255/686 254/688 276/687
f 276/687 254/688 277/689
f 254/688 253/690 277/689
f 277/689 253/690 278/691
f 253/690 245/692 278/691
f 278/691 245/692 279/693
f 245/692 244/694 279/693
f 279/693 244/694 280/695
f 244/694 260/696 280/695
f 280/695 260/696 281/697
f 260/696 259/698 281/697
f 281/697 259/698 282/699
f 259/698 261/700 282/699
f 282/699 261/700 283/701
f 261/700 258/702 283/701
f 283/701 258/702 284/703
f 258/702 257/704 284/703
f 284/703 257/704 285/705
f 257/704 262/706 285/705
f 285/705 262/706 286/707
f 262/706 265/708 286/707
f 286/707 265/708 287/709
f 265/708 264/710 287/709
f 287/709 264/710 288/711
f 264/710 263/712 288/711
f 288/711 263/712 289/713
f 263/712 256/714 289/713
f 289/713 256/714 266/715
f 256/714 252/716 266/715
