# Exported from USD: /World/Robotiq_Hand_E_edit/right_gripper/D_A03_ASM_DOIGTS_PARALLELES_1ROBOTIQ_HAND_E_DEFEATURE/D_A03_ASM_DOIGTS_PARALLELES_1ROBOTIQ_HAND_E_DEFEATURE
mtllib D_A03_ASM_DOIGTS_PARALLELES_1ROBOTIQ_HAND_E_DEFEATURE.mtl

g D_A03_ASM_DOIGTS_PARALLELES_1ROBOTIQ_HAND_E_DEFEATURE
v -0.01335201 0.01040000 0.03183910
v -0.01359616 0.01040000 0.03204340
v -0.01388486 0.01040000 0.03217755
v -0.01419846 0.01040000 0.03223241
v -0.01451556 0.01040000 0.03220423
v -0.01481457 0.01040000 0.03209495
v -0.01507510 0.01040000 0.03191200
v -0.01527940 0.01040000 0.03166784
v -0.01541355 0.01040000 0.03137914
v -0.01546841 0.01040000 0.03106554
v -0.01544023 0.01040000 0.03074844
v -0.01533095 0.01040000 0.03044943
v -0.01514799 0.01040000 0.03018890
v -0.01490384 0.01040000 0.02998460
v -0.01461514 0.01040000 0.02985045
v -0.01430154 0.01040000 0.02979559
v -0.01398444 0.01040000 0.02982377
v -0.01368543 0.01040000 0.02993305
v -0.01342490 0.01040000 0.03011601
v -0.01322060 0.01040000 0.03036016
v -0.01308645 0.01040000 0.03064886
v -0.01303159 0.01040000 0.03096246
v -0.01305977 0.01040000 0.03127956
v -0.01316905 0.01040000 0.03157857
v -0.01425000 0.01040000 0.03101400
v -0.01314546 0.01068050 0.03202888
v -0.01292042 0.01068050 0.03170842
v -0.01278600 0.01068050 0.03134064
v -0.01275134 0.01068050 0.03095060
v -0.01281882 0.01068050 0.03056488
v -0.01298382 0.01068050 0.03020976
v -0.01323512 0.01068050 0.02990946
v -0.01355558 0.01068050 0.02968442
v -0.01392336 0.01068050 0.02955000
v -0.01431340 0.01068050 0.02951534
v -0.01469912 0.01068050 0.02958282
v -0.01505424 0.01068050 0.02974782
v -0.01535454 0.01068050 0.02999912
v -0.01557958 0.01068050 0.03031958
v -0.01571400 0.01068050 0.03068736
v -0.01574866 0.01068050 0.03107740
v -0.01568118 0.01068050 0.03146312
v -0.01551618 0.01068050 0.03181824
v -0.01526488 0.01068050 0.03211854
v -0.01494442 0.01068050 0.03234358
v -0.01457664 0.01068050 0.03247800
v -0.01418660 0.01068050 0.03251266
v -0.01380088 0.01068050 0.03244518
v -0.01344576 0.01068050 0.03228018
v -0.01314546 0.01830000 0.03202888
v -0.01292042 0.01830000 0.03170842
v -0.01278600 0.01830000 0.03134064
v -0.01275134 0.01830000 0.03095060
v -0.01281882 0.01830000 0.03056488
v -0.01298382 0.01830000 0.03020976
v -0.01323512 0.01830000 0.02990946
v -0.01355558 0.01830000 0.02968442
v -0.01392336 0.01830000 0.02955000
v -0.01431340 0.01830000 0.02951534
v -0.01469912 0.01830000 0.02958282
v -0.01505424 0.01830000 0.02974782
v -0.01535454 0.01830000 0.02999912
v -0.01557958 0.01830000 0.03031958
v -0.01571400 0.01830000 0.03068736
v -0.01574866 0.01830000 0.03107740
v -0.01568118 0.01830000 0.03146312
v -0.01551618 0.01830000 0.03181824
v -0.01526488 0.01830000 0.03211854
v -0.01494442 0.01830000 0.03234358
v -0.01457664 0.01830000 0.03247800
v -0.01418660 0.01830000 0.03251266
v -0.01380088 0.01830000 0.03244518
v -0.01344576 0.01830000 0.03228018
v -0.01542818 0.01840000 0.02993146
v -0.01510785 0.01840000 0.02966341
v -0.01472906 0.01840000 0.02948740
v -0.01431763 0.01840000 0.02941543
v -0.01390158 0.01840000 0.02945240
v -0.01350928 0.01840000 0.02959578
v -0.01316746 0.01840000 0.02983582
v -0.01289941 0.01840000 0.03015615
v -0.01272340 0.01840000 0.03053494
v -0.01265143 0.01840000 0.03094637
v -0.01268840 0.01840000 0.03136242
v -0.01283178 0.01840000 0.03175472
v -0.01307182 0.01840000 0.03209654
v -0.01339215 0.01840000 0.03236459
v -0.01377094 0.01840000 0.03254060
v -0.01418237 0.01840000 0.03261257
v -0.01459842 0.01840000 0.03257560
v -0.01499072 0.01840000 0.03243222
v -0.01533254 0.01840000 0.03219218
v -0.01560059 0.01840000 0.03187185
v -0.01577660 0.01840000 0.03149306
v -0.01584857 0.01840000 0.03108163
v -0.01581160 0.01840000 0.03066558
v -0.01566822 0.01840000 0.03027328
v -0.01505606 0.01832588 0.02974495
v -0.01470014 0.01832588 0.02957956
v -0.01431354 0.01832588 0.02951194
v -0.01392262 0.01832588 0.02954667
v -0.01355400 0.01832588 0.02968140
v -0.01323281 0.01832588 0.02990695
v -0.01298095 0.01832588 0.03020794
v -0.01281556 0.01832588 0.03056386
v -0.01274794 0.01832588 0.03095045
v -0.01278267 0.01832588 0.03134139
v -0.01291740 0.01832588 0.03171000
v -0.01314295 0.01832588 0.03203119
v -0.01344394 0.01832588 0.03228305
v -0.01379986 0.01832588 0.03244844
v -0.01418646 0.01832588 0.03251606
v -0.01457738 0.01832588 0.03248133
v -0.01494600 0.01832588 0.03234660
v -0.01526719 0.01832588 0.03212105
v -0.01551905 0.01832588 0.03182006
v -0.01568444 0.01832588 0.03146414
v -0.01575206 0.01832588 0.03107755
v -0.01571733 0.01832588 0.03068662
v -0.01558260 0.01832588 0.03031800
v -0.01535705 0.01832588 0.02999681
v -0.01506142 0.01835000 0.02973651
v -0.01470313 0.01835000 0.02957003
v -0.01431397 0.01835000 0.02950195
v -0.01392044 0.01835000 0.02953692
v -0.01354937 0.01835000 0.02967255
v -0.01322605 0.01835000 0.02989959
v -0.01297251 0.01835000 0.03020258
v -0.01280603 0.01835000 0.03056087
v -0.01273795 0.01835000 0.03095003
v -0.01277292 0.01835000 0.03134356
v -0.01290855 0.01835000 0.03171463
v -0.01313559 0.01835000 0.03203795
v -0.01343858 0.01835000 0.03229149
v -0.01379687 0.01835000 0.03245797
v -0.01418603 0.01835000 0.03252605
v -0.01457956 0.01835000 0.03249108
v -0.01495063 0.01835000 0.03235545
v -0.01527395 0.01835000 0.03212841
v -0.01552749 0.01835000 0.03182542
v -0.01569397 0.01835000 0.03146713
v -0.01576204 0.01835000 0.03107797
v -0.01572708 0.01835000 0.03068444
v -0.01559145 0.01835000 0.03031337
v -0.01536441 0.01835000 0.02999005
v -0.01506994 0.01837071 0.02972310
v -0.01470789 0.01837071 0.02955487
v -0.01431464 0.01837071 0.02948608
v -0.01391698 0.01837071 0.02952141
v -0.01354202 0.01837071 0.02965846
v -0.01321530 0.01837071 0.02988789
v -0.01295910 0.01837071 0.03019406
v -0.01279087 0.01837071 0.03055611
v -0.01272208 0.01837071 0.03094936
v -0.01275741 0.01837071 0.03134702
v -0.01289446 0.01837071 0.03172198
v -0.01312389 0.01837071 0.03204870
v -0.01343006 0.01837071 0.03230490
v -0.01379211 0.01837071 0.03247313
v -0.01418536 0.01837071 0.03254192
v -0.01458302 0.01837071 0.03250659
v -0.01495798 0.01837071 0.03236954
v -0.01528470 0.01837071 0.03214011
v -0.01554090 0.01837071 0.03183394
v -0.01570913 0.01837071 0.03147189
v -0.01577792 0.01837071 0.03107864
v -0.01574259 0.01837071 0.03068098
v -0.01560554 0.01837071 0.03030602
v -0.01537611 0.01837071 0.02997930
v -0.01508104 0.01838660 0.02970562
v -0.01471409 0.01838660 0.02953511
v -0.01431551 0.01838660 0.02946538
v -0.01391247 0.01838660 0.02950120
v -0.01353243 0.01838660 0.02964010
v -0.01320129 0.01838660 0.02987264
v -0.01294162 0.01838660 0.03018296
v -0.01277111 0.01838660 0.03054991
v -0.01270138 0.01838660 0.03094849
v -0.01273720 0.01838660 0.03135153
v -0.01287610 0.01838660 0.03173157
v -0.01310864 0.01838660 0.03206271
v -0.01341896 0.01838660 0.03232238
v -0.01378591 0.01838660 0.03249289
v -0.01418449 0.01838660 0.03256261
v -0.01458753 0.01838660 0.03252680
v -0.01496757 0.01838660 0.03238790
v -0.01529871 0.01838660 0.03215536
v -0.01555838 0.01838660 0.03184504
v -0.01572889 0.01838660 0.03147809
v -0.01579862 0.01838660 0.03107951
v -0.01576280 0.01838660 0.03067647
v -0.01562390 0.01838660 0.03029643
v -0.01539136 0.01838660 0.02996529
v -0.01509397 0.01839659 0.02968526
v -0.01472131 0.01839659 0.02951210
v -0.01431653 0.01839659 0.02944129
v -0.01390722 0.01839659 0.02947766
v -0.01352126 0.01839659 0.02961873
v -0.01318497 0.01839659 0.02985488
v -0.01292126 0.01839659 0.03017003
v -0.01274810 0.01839659 0.03054269
v -0.01267729 0.01839659 0.03094747
v -0.01271366 0.01839659 0.03135678
v -0.01285473 0.01839659 0.03174274
v -0.01309088 0.01839659 0.03207903
v -0.01340603 0.01839659 0.03234274
v -0.01377869 0.01839659 0.03251590
v -0.01418347 0.01839659 0.03258671
v -0.01459278 0.01839659 0.03255034
v -0.01497874 0.01839659 0.03240927
v -0.01531503 0.01839659 0.03217312
v -0.01557874 0.01839659 0.03185797
v -0.01575190 0.01839659 0.03148532
v -0.01582271 0.01839659 0.03108053
v -0.01578634 0.01839659 0.03067122
v -0.01564527 0.01839659 0.03028526
v -0.01540912 0.01839659 0.02994897
v -0.01552311 0.01840000 0.03345156
v -0.01611062 0.01840000 0.03303900
v -0.01687384 0.01840000 0.03183739
v -0.01699754 0.01840000 0.03113023
v -0.01484884 0.01840000 0.03369801
v -0.01657132 0.01840000 0.03248843
v -0.01693401 0.01840000 0.03041516
v -0.01668756 0.01840000 0.02974089
v -0.01627500 0.01840000 0.02915338
v -0.01150246 0.01840000 0.03089777
v -0.01156599 0.01840000 0.03161284
v -0.01222500 0.01840000 0.03287461
v -0.01277557 0.01840000 0.03333532
v -0.01342661 0.01840000 0.03363784
v -0.01413377 0.01840000 0.03376154
v -0.01572443 0.01840000 0.02869268
v -0.01192868 0.01840000 0.02953957
v -0.01162616 0.01840000 0.03019061
v -0.01181244 0.01840000 0.03228711
v -0.01297689 0.01840000 0.02857644
v -0.01238938 0.01840000 0.02898900
v -0.01507339 0.01840000 0.02839016
v -0.01436623 0.01840000 0.02826646
v -0.01365116 0.01840000 0.02832999
v -0.01222500 0.02125000 0.03287461
v -0.01181244 0.02125000 0.03228711
v -0.01156599 0.02125000 0.03161284
v -0.01150246 0.02125000 0.03089777
v -0.01162616 0.02125000 0.03019061
v -0.01192868 0.02125000 0.02953957
v -0.01238938 0.02125000 0.02898900
v -0.01297689 0.02125000 0.02857644
v -0.01365116 0.02125000 0.02832999
v -0.01436623 0.02125000 0.02826646
v -0.01507339 0.02125000 0.02839016
v -0.01572443 0.02125000 0.02869268
v -0.01627500 0.02125000 0.02915338
v -0.01668756 0.02125000 0.02974089
v -0.01693401 0.02125000 0.03041516
v -0.01699754 0.02125000 0.03113023
v -0.01687384 0.02125000 0.03183739
v -0.01657132 0.02125000 0.03248843
v -0.01611062 0.02125000 0.03303900
v -0.01552311 0.02125000 0.03345156
v -0.01484884 0.02125000 0.03369801
v -0.01413377 0.02125000 0.03376154
v -0.01342661 0.02125000 0.03363784
v -0.01277557 0.02125000 0.03333532
v -0.01233546 0.02140000 0.03277313
v -0.01194540 0.02140000 0.03221767
v -0.01171239 0.02140000 0.03158018
v -0.01165232 0.02140000 0.03090410
v -0.01176928 0.02140000 0.03023552
v -0.01205529 0.02140000 0.02961999
v -0.01249087 0.02140000 0.02909946
v -0.01304633 0.02140000 0.02870940
v -0.01368382 0.02140000 0.02847639
v -0.01435989 0.02140000 0.02841632
v -0.01502848 0.02140000 0.02853328
v -0.01564401 0.02140000 0.02881929
v -0.01616454 0.02140000 0.02925487
v -0.01655460 0.02140000 0.02981033
v -0.01678761 0.02140000 0.03044782
v -0.01684768 0.02140000 0.03112389
v -0.01673072 0.02140000 0.03179248
v -0.01644471 0.02140000 0.03240801
v -0.01600913 0.02140000 0.03292854
v -0.01545367 0.02140000 0.03331860
v -0.01481618 0.02140000 0.03355161
v -0.01414011 0.02140000 0.03361168
v -0.01347152 0.02140000 0.03349472
v -0.01285599 0.02140000 0.03320871
v -0.01191099 0.02139489 0.03223564
v -0.01167450 0.02139489 0.03158863
v -0.01161354 0.02139489 0.03090246
v -0.01173224 0.02139489 0.03022390
v -0.01202252 0.02139489 0.02959917
v -0.01246461 0.02139489 0.02907087
v -0.01302836 0.02139489 0.02867499
v -0.01367537 0.02139489 0.02843850
v -0.01436154 0.02139489 0.02837753
v -0.01504010 0.02139489 0.02849624
v -0.01566483 0.02139489 0.02878652
v -0.01619313 0.02139489 0.02922861
v -0.01658901 0.02139489 0.02979236
v -0.01682550 0.02139489 0.03043937
v -0.01688647 0.02139489 0.03112553
v -0.01676776 0.02139489 0.03180410
v -0.01647748 0.02139489 0.03242882
v -0.01603539 0.02139489 0.03295713
v -0.01547164 0.02139489 0.03335301
v -0.01482463 0.02139489 0.03358950
v -0.01413846 0.02139489 0.03365047
v -0.01345990 0.02139489 0.03353176
v -0.01283518 0.02139489 0.03324148
v -0.01230687 0.02139489 0.03279939
v -0.01187892 0.02137990 0.03225239
v -0.01163919 0.02137990 0.03159651
v -0.01157739 0.02137990 0.03090094
v -0.01169772 0.02137990 0.03021307
v -0.01199198 0.02137990 0.02957978
v -0.01244013 0.02137990 0.02904423
v -0.01301161 0.02137990 0.02864292
v -0.01366749 0.02137990 0.02840319
v -0.01436306 0.02137990 0.02834139
v -0.01505093 0.02137990 0.02846172
v -0.01568422 0.02137990 0.02875599
v -0.01621977 0.02137990 0.02920413
v -0.01662108 0.02137990 0.02977561
v -0.01686081 0.02137990 0.03043149
v -0.01692261 0.02137990 0.03112706
v -0.01680228 0.02137990 0.03181493
v -0.01650801 0.02137990 0.03244822
v -0.01605987 0.02137990 0.03298377
v -0.01548839 0.02137990 0.03338508
v -0.01483251 0.02137990 0.03362481
v -0.01413694 0.02137990 0.03368661
v -0.01344907 0.02137990 0.03356628
v -0.01281578 0.02137990 0.03327202
v -0.01228023 0.02137990 0.03282387
v -0.01185138 0.02135607 0.03226677
v -0.01160887 0.02135607 0.03160328
v -0.01154635 0.02135607 0.03089962
v -0.01166808 0.02135607 0.03020377
v -0.01196576 0.02135607 0.02956312
v -0.01241911 0.02135607 0.02902136
v -0.01299723 0.02135607 0.02861538
v -0.01366072 0.02135607 0.02837287
v -0.01436438 0.02135607 0.02831035
v -0.01506024 0.02135607 0.02843208
v -0.01570088 0.02135607 0.02872976
v -0.01624264 0.02135607 0.02918311
v -0.01664862 0.02135607 0.02976123
v -0.01689113 0.02135607 0.03042473
v -0.01695365 0.02135607 0.03112838
v -0.01683192 0.02135607 0.03182423
v -0.01653424 0.02135607 0.03246488
v -0.01608089 0.02135607 0.03300665
v -0.01550277 0.02135607 0.03341262
v -0.01483928 0.02135607 0.03365513
v -0.01413562 0.02135607 0.03371765
v -0.01343976 0.02135607 0.03359592
v -0.01279912 0.02135607 0.03329824
v -0.01225736 0.02135607 0.03284489
v -0.01183025 0.02132500 0.03227781
v -0.01158561 0.02132500 0.03160847
v -0.01152254 0.02132500 0.03089862
v -0.01164534 0.02132500 0.03019663
v -0.01194564 0.02132500 0.02955034
v -0.01240298 0.02132500 0.02900380
v -0.01298619 0.02132500 0.02859425
v -0.01365553 0.02132500 0.02834961
v -0.01436539 0.02132500 0.02828654
v -0.01506737 0.02132500 0.02840934
v -0.01571366 0.02132500 0.02870964
v -0.01626020 0.02132500 0.02916698
v -0.01666975 0.02132500 0.02975019
v -0.01691439 0.02132500 0.03041953
v -0.01697746 0.02132500 0.03112938
v -0.01685466 0.02132500 0.03183137
v -0.01655436 0.02132500 0.03247766
v -0.01609702 0.02132500 0.03302420
v -0.01551381 0.02132500 0.03343375
v -0.01484447 0.02132500 0.03367839
v -0.01413461 0.02132500 0.03374146
v -0.01343263 0.02132500 0.03361866
v -0.01278634 0.02132500 0.03331836
v -0.01223980 0.02132500 0.03286102
v -0.01181697 0.02128882 0.03228474
v -0.01157098 0.02128882 0.03161173
v -0.01150756 0.02128882 0.03089798
v -0.01163104 0.02128882 0.03019214
v -0.01193299 0.02128882 0.02954231
v -0.01239284 0.02128882 0.02899277
v -0.01297926 0.02128882 0.02858097
v -0.01365227 0.02128882 0.02833498
v -0.01436602 0.02128882 0.02827156
v -0.01507186 0.02128882 0.02839504
v -0.01572169 0.02128882 0.02869699
v -0.01627123 0.02128882 0.02915684
v -0.01668303 0.02128882 0.02974326
v -0.01692902 0.02128882 0.03041627
v -0.01699244 0.02128882 0.03113002
v -0.01686896 0.02128882 0.03183586
v -0.01656701 0.02128882 0.03248569
v -0.01610716 0.02128882 0.03303523
v -0.01552074 0.02128882 0.03344703
v -0.01484773 0.02128882 0.03369302
v -0.01413398 0.02128882 0.03375643
v -0.01342814 0.02128882 0.03363296
v -0.01277831 0.02128882 0.03333101
v -0.01222877 0.02128882 0.03287116
v -0.01469254 0.02140000 0.02960379
v -0.01324999 0.02140000 0.02992564
v -0.01525001 0.02140000 0.03210235
v -0.01569255 0.02140000 0.03069215
v -0.01380746 0.02140000 0.03242421
v -0.01280745 0.02140000 0.03133585
v -0.01302872 0.02010000 0.03063075
v -0.01324999 0.02010000 0.02992564
v -0.01280745 0.02010000 0.03133585
v -0.01330746 0.02010000 0.03188003
v -0.01380746 0.02010000 0.03242421
v -0.01452873 0.02010000 0.03226328
v -0.01525001 0.02010000 0.03210235
v -0.01547128 0.02010000 0.03139725
v -0.01569255 0.02010000 0.03069215
v -0.01519254 0.02010000 0.03014797
v -0.01469254 0.02010000 0.02960379
v -0.01397127 0.02010000 0.02976472
v -0.01549928 0.02010000 0.03073527
v -0.01538457 0.02010000 0.03042142
v -0.01552886 0.02010000 0.03106810
v -0.01356372 0.02010000 0.03209447
v -0.01386675 0.02010000 0.03223528
v -0.01419590 0.02010000 0.03229286
v -0.01484257 0.02010000 0.03214857
v -0.01511603 0.02010000 0.03195654
v -0.01533047 0.02010000 0.03170028
v -0.01493628 0.02010000 0.02993353
v -0.01463325 0.02010000 0.02979272
v -0.01430410 0.02010000 0.02973514
v -0.01365743 0.02010000 0.02987943
v -0.01338397 0.02010000 0.03007146
v -0.01316953 0.02010000 0.03032772
v -0.01297114 0.02010000 0.03095990
v -0.01300072 0.02010000 0.03129273
v -0.01311543 0.02010000 0.03160657
v -0.01425000 0.01936099 0.03101400
vt 4.97418833 -0.03475000
vt 6.54498482 -1.83259571
vt -0.00037490 -0.00131193
vt 3.92699075 -0.03190000
vt 1.04719758 0.52359879
vt 3.92699075 -0.04246950
vt 6.02138615 0.00000000
vt 6.02138615 0.00000000
vt -0.00183848 -0.00183848
vt 1.04719758 -0.03190000
vt 4.71238899 -2.09439516
vt 0.26179940 1.04719758
vt 5.75958633 -0.03190000
vt -0.00238851 -0.00285703
vt 0.78539819 -1.83259571
vt 3.66519141 -1.83259571
vt 0.26179940 0.00000000
vt 5.49778700 1.04719758
vt -0.00183848 0.00183848
vt 5.49778700 0.00000000
vt 1.57079637 0.00000000
vt 0.52359879 -0.03485000
vt 0.52359879 0.00000000
vt 6.28318548 -0.03190000
vt 3.27249241 -0.00073901
vt 3.66519141 0.78539819
vt 3.66519141 1.57079637
vt 2.35619450 -0.03475000
vt 1.30899692 0.00000000
vt -0.00137500 -0.00513157
vt 4.18879032 0.78539819
vt 4.45058966 0.00000000
vt 6.02138615 -3.14159274
vt 0.52359879 -2.09439516
vt 0.00080000 -0.00413564
vt 3.66519141 -2.35619450
vt -0.00080000 -0.00136436
vt 0.00105612 -0.00060975
vt 4.45058966 -2.35619450
vt 0.26179940 0.52359879
vt 4.18879032 -0.03475000
vt 4.45058966 -0.03485000
vt 1.30899692 -0.03485000
vt 2.61799383 -0.03485000
vt 1.30899692 0.00000000
vt 2.35619450 0.00000000
vt 0.52359879 0.00000000
vt 2.09439516 0.00000000
vt 0.91629785 -0.00073901
vt 5.23598766 -0.00000000
vt 1.83259571 -0.04246950
vt 5.36688757 -0.00073901
vt 2.09439516 0.26179940
vt 4.97418833 -1.57079637
vt 0.78539819 1.30899692
vt 6.28318548 0.26179940
vt 4.45058966 0.00028050
vt 0.00000000 0.00000000
vt 6.54498482 -0.04246950
vt 6.54498482 -2.61799383
vt 1.04719758 -3.14159274
vt 4.71238899 -1.83259571
vt 0.78539819 0.52359879
vt 4.45058966 0.52359879
vt 6.02138615 -1.83259571
vt 6.28318548 0.00000000
vt 3.66519141 -1.57079637
vt 0.78539819 -1.57079637
vt -0.00251141 0.00067293
vt 0.26179940 -2.87979317
vt -0.00117795 -0.00090387
vt -0.00265630 -0.00346175
vt 6.02138615 -1.57079637
vt -0.00192000 -0.00110851
vt -0.00147802 -0.00130000
vt 4.71238899 1.57079637
vt 6.54498482 -1.57079637
vt 1.04719758 1.57079637
vt 0.00000000 -0.00221703
vt 6.02138615 0.52359879
vt -0.00017149 -0.00285703
vt -0.00000000 -0.00260000
vt -0.00031563 -0.00239745
vt 6.54498482 1.04719758
vt 3.66519141 -0.04246950
vt 0.00000000 1.30899692
vt 5.75958633 -2.87979317
vt 6.02138615 -2.61799383
vt 1.57079637 -0.03190000
vt 3.40339208 0.00000000
vt 0.00130000 0.00225167
vt 0.26179940 0.26179940
vt -0.00004361 -0.00254831
vt 1.04719758 -0.00000000
vt 0.00130000 -0.00225167
vt 6.02138615 -2.35619450
vt 0.00000000 -0.00000000
vt 3.66519141 -3.14159274
vt 4.18879032 -3.14159274
vt 1.83259571 0.78539819
vt 2.61799383 1.57079637
vt -0.00041411 -0.00120452
vt 1.57079637 -1.57079637
vt 2.09439516 -2.09439516
vt 3.40339208 -0.03475000
vt 0.00154548 -0.00233589
vt 5.49778700 0.78539819
vt 0.52359879 0.00000000
vt 3.92699075 0.00000000
vt 1.83259571 -1.83259571
vt 3.92699075 -0.03485000
vt 5.75958633 0.26179940
vt -0.00117795 -0.00153513
vt 0.00071175 -0.00540630
vt 0.78539819 0.00000000
vt 5.75958633 -0.03485000
vt 3.92699075 0.26179940
vt 0.78539819 0.00000000
vt 3.66519141 0.00000000
vt 1.04719758 0.78539819
vt -0.00194454 -0.00469454
vt 4.45058966 0.00000000
vt 0.26179940 -2.61799383
vt 0.00238157 -0.00137500
vt 0.78539819 -0.03190000
vt 3.66519141 -2.61799383
vt 2.61799383 0.00000000
vt 2.35619450 -2.61799383
vt 1.96349537 -0.00073901
vt 5.49778700 -2.87979317
vt 4.71238899 0.00028050
vt 0.00000000 -0.03485000
vt 5.75958633 0.00000000
vt 0.00117795 -0.00090387
vt -0.00064000 -0.00110851
vt -0.00251141 -0.00067293
vt 3.14159274 0.26179940
vt 1.57079637 -0.03475000
vt 0.78539819 -2.35619450
vt 3.40339208 -1.57079637
vt 1.30899692 -0.03190000
vt 4.71238899 1.04719758
vt 1.30899692 -0.04246950
vt 0.00105612 -0.00182925
vt -0.00041411 -0.00429548
vt 6.28318548 -3.14159274
vt -0.00218510 -0.00131193
vt 4.71238899 -2.87979317
vt 6.02138615 -2.87979317
vt 4.71238899 -0.03485000
vt 3.92699075 -2.35619450
vt -0.00128000 -0.00093703
vt 0.00000000 1.04719758
vt 3.40339208 1.30899692
vt 4.71238899 -3.14159274
vt 0.00128000 0.00073901
vt 4.05789042 -0.00073901
vt 1.57079637 0.00000000
vt 5.49778700 -0.04246950
vt 1.83259571 -0.03485000
vt 6.28318548 -2.61799383
vt 6.28318548 -0.04246950
vt 1.83259571 0.00000000
vt 0.52359879 -1.57079637
vt 3.40339208 -2.61799383
vt -0.00121950 -0.00121950
vt 5.49778700 -0.03485000
vt -0.00265630 -0.00203825
vt 6.28318548 1.30899692
vt 4.97418833 0.26179940
vt 1.83259571 -3.14159274
vt 3.14159274 -2.87979317
vt 3.92699075 0.52359879
vt 2.87979317 0.00000000
vt 1.04719758 -0.04246950
vt 4.71238899 -0.04246950
vt 5.49778700 -3.14159274
vt 0.00194454 -0.00080546
vt 0.52359879 1.30899692
vt 0.00137500 -0.00513157
vt 6.02138615 0.26179940
vt 3.40339208 -2.87979317
vt -0.00130000 -0.00225167
vt 6.28318548 -1.57079637
vt 0.52359879 1.04719758
vt -0.00094871 -0.00345341
vt 0.26179940 -1.83259571
vt 1.57079637 -0.03485000
vt 6.02138615 1.30899692
vt 3.66519141 1.30899692
vt 6.54498482 0.00000000
vt 2.09439516 1.04719758
vt 2.87979317 0.00028050
vt 1.04719758 -1.57079637
vt 2.35619450 1.57079637
vt 2.35619450 0.00000000
vt 3.14159274 -2.35619450
vt 1.30899692 0.78539819
vt 0.52359879 -3.14159274
vt 4.45058966 1.04719758
vt 1.04719758 -2.87979317
vt 2.87979317 1.04719758
vt 0.39269909 -0.00073901
vt 0.00183848 0.00183848
vt 1.04719758 1.04719758
vt 0.52359879 0.26179940
vt -0.00086232 -0.00035718
vt 0.78539819 -3.14159274
vt 0.00041411 -0.00120452
vt 1.30899692 1.57079637
vt 2.87979317 1.30899692
vt 5.23598766 -3.14159274
vt 4.45058966 -2.61799383
vt 3.40339208 0.00028050
vt 2.09439516 -0.03475000
vt 3.53429174 -0.00073901
vt 1.83259571 0.52359879
vt 0.00000000 0.00260000
vt 2.61799383 -2.61799383
vt 5.75958633 -0.03475000
vt 6.28318548 0.78539819
vt 6.54498482 0.52359879
vt 0.00000000 -0.00130000
vt 0.00225167 -0.00130000
vt 4.45058966 0.26179940
vt 4.97418833 0.78539819
vt 5.75958633 0.78539819
vt 0.78539819 -0.04246950
vt 4.71238899 -2.35619450
vt 6.28318548 -0.03475000
vt 3.14159274 -1.57079637
vt 5.23598766 -0.04246950
vt 3.66519141 0.00000000
vt 1.57079637 1.30899692
vt 4.71238899 0.78539819
vt 0.00031563 -0.00004155
vt 0.00194454 -0.00469454
vt 4.18879032 0.00028050
vt 3.40339208 0.00000000
vt -0.00238851 -0.00157703
vt 2.09439516 0.00000000
vt 3.40339208 1.04719758
vt 5.49778700 -2.35619450
vt -0.00000000 -0.00147802
vt 1.04719758 -0.03475000
vt -0.00238157 -0.00137500
vt 6.54498482 -2.87979317
vt 0.00000000 0.78539819
vt 0.00060975 -0.00016338
vt 5.23598766 -1.57079637
vt 2.09439516 -0.03190000
vt -0.00137500 -0.00036843
vt 1.83259571 -2.09439516
vt 4.18879032 0.00000000
vt 4.71238899 -2.61799383
vt 6.02138615 -0.03485000
vt 4.97418833 1.30899692
vt 0.26179940 0.00000000
vt 1.57079637 0.00000000
vt 1.04719758 -2.61799383
vt 5.75958633 -2.61799383
vt 4.45058966 -2.09439516
vt 5.49778700 0.00028050
vt 0.00031563 -0.00239745
vt 0.52359879 -0.03475000
vt 2.61799383 -0.03475000
vt 3.66519141 -0.03190000
vt 4.97418833 -2.61799383
vt 6.02138615 1.04719758
vt -0.00000000 -0.00000000
vt 0.26179940 -0.03475000
vt 1.30899692 -3.14159274
vt 0.52359879 0.78539819
vt 6.54498482 0.26179940
vt 5.23598766 -2.35619450
vt 3.92699075 -1.83259571
vt 4.97418833 -0.04246950
vt 0.78539819 0.78539819
vt 0.78539819 1.57079637
vt 5.75958633 -0.04246950
vt -0.00161129 -0.00345341
vt -0.00128000 -0.00369504
vt 0.00067293 0.00251141
vt 3.79609108 -0.00073901
vt 5.23598766 0.78539819
vt 5.23598766 1.57079637
vt 2.35619450 -3.14159274
vt 6.54498482 1.30899692
vt 0.26179940 0.00000000
vt 0.00060975 -0.00227562
vt 1.30899692 1.04719758
vt 0.26179940 0.00028050
vt 0.00260000 -0.00000000
vt 1.30899692 -2.61799383
vt -0.00000000 -0.00435000
vt 1.57079637 0.00028050
vt 1.83259571 1.30899692
vt 0.52359879 0.00028050
vt -0.00094871 -0.00098064
vt 2.87979317 0.26179940
vt 2.61799383 0.00000000
vt 4.97418833 -3.14159274
vt 5.75958633 -3.14159274
vt 3.14159274 0.00000000
vt 5.23598766 -0.03190000
vt 4.97418833 -1.83259571
vt 3.14159274 -0.03485000
vt 0.26179940 -0.03485000
vt 1.57079637 -2.87979317
vt 2.35619450 -0.04246950
vt 3.14159274 -1.83259571
vt 4.97418833 -0.03485000
vt -0.00067293 -0.00251141
vt -0.00154548 -0.00316411
vt 2.61799383 1.04719758
vt 6.28318548 1.04719758
vt 0.00000000 0.26179940
vt 6.28318548 0.00000000
vt 2.87979317 -2.35619450
vt 1.30899692 -1.57079637
vt 6.02138615 -2.09439516
vt 3.40339208 -0.03190000
vt 6.02138615 -0.03475000
vt 0.00160000 -0.00275000
vt 1.43989658 -0.00073901
vt 2.09439516 -1.57079637
vt 1.83259571 1.57079637
vt 3.66519141 0.26179940
vt 1.30899692 0.52359879
vt 4.97418833 0.00028050
vt 2.87979317 -2.61799383
vt 3.14159274 0.00000000
vt 2.87979317 -2.87979317
vt 3.14159274 1.57079637
vt 0.00086232 -0.00208182
vt 3.40339208 0.78539819
vt 2.35619450 -1.57079637
vt 4.18879032 -2.09439516
vt 0.52359879 -0.04246950
vt 6.28318548 0.00028050
vt 1.83259571 0.00000000
vt 1.04719758 -0.03485000
vt -0.00113137 -0.00161863
vt 1.04719758 1.30899692
vt 1.04719758 0.00000000
vt -0.00060975 -0.00016338
vt 5.49778700 0.52359879
vt 1.17809725 -0.00073901
vt 5.23598766 0.00000000
vt 2.74889350 -0.00073901
vt -0.00218510 -0.00312212
vt 6.28318548 1.57079637
vt -0.00000000 -0.00243900
vt 1.30899692 -2.35619450
vt 2.87979317 -1.57079637
vt 1.57079637 -2.61799383
vt 3.66519141 -2.87979317
vt 0.00138564 -0.00355000
vt 4.71238899 0.52359879
vt -0.00128000 0.00073901
vt 4.97418833 1.57079637
vt 3.92699075 -2.09439516
vt 4.45058966 -1.83259571
vt -0.00225167 -0.00130000
vt 2.35619450 -2.35619450
vt 2.87979317 -0.03485000
vt -0.00130000 0.00225167
vt 3.66519141 -2.09439516
vt 2.09439516 -0.03485000
vt 4.18879032 -2.61799383
vt -0.00138564 -0.00355000
vt 3.66519141 -0.03475000
vt -0.00000000 -0.00295603
vt 1.57079637 -2.35619450
vt 4.45058966 -0.03190000
vt 2.35619450 0.78539819
vt 2.09439516 -2.87979317
vt 0.00000000 0.52359879
vt 4.97418833 -2.35619450
vt 2.61799383 -0.03190000
vt -0.00192000 -0.00332554
vt 6.28318548 -2.87979317
vt 1.83259571 0.00000000
vt 0.78539819 0.00000000
vt 4.18879032 0.26179940
vt -0.00000000 -0.00121950
vt -0.00031563 -0.00004155
vt -0.00086232 -0.00208182
vt 0.52359879 -1.83259571
vt 5.23598766 1.30899692
vt 1.30899692 -2.09439516
vt 3.66519141 -0.03485000
vt -0.00251639 -0.00254831
vt 3.92699075 0.00028050
vt 1.57079637 0.52359879
vt 1.57079637 1.57079637
vt 4.18879032 -1.83259571
vt 2.61799383 1.30899692
vt 3.40339208 -0.04246950
vt 0.26179940 1.57079637
vt 0.00071175 -0.00009370
vt 5.49778700 -2.61799383
vt 5.75958633 0.00028050
vt -0.00147802 0.00000000
vt 4.84328890 -0.00073901
vt 0.78539819 0.00028050
vt 2.48709416 -0.00073901
vt 2.61799383 0.26179940
vt -0.00113137 -0.00388137
vt 4.18879032 -2.87979317
vt 5.89048624 -0.00073901
vt 0.00265630 -0.00203825
vt 2.87979317 0.00000000
vt 3.66519141 1.04719758
vt 0.00086232 -0.00035718
vt 3.40339208 -3.14159274
vt 5.23598766 0.52359879
vt 3.92699075 0.00000000
vt 2.87979317 0.52359879
vt 1.04719758 -2.09439516
vt 6.15228558 -0.00073901
vt 4.45058966 -1.57079637
vt 0.00117795 -0.00153513
vt 4.97418833 -0.03190000
vt 1.83259571 1.04719758
vt 0.00275000 -0.00275000
vt 3.14159274 0.00000000
vt 4.97418833 -2.09439516
vt 5.10508823 -0.00073901
vt 6.02138615 0.00028050
vt 2.61799383 -2.87979317
vt -0.00256000 -0.00295603
vt 2.87979317 -1.83259571
vt 4.18879032 -1.57079637
vt 1.83259571 -1.57079637
vt 4.71238899 0.00000000
vt 1.57079637 -3.14159274
vt 0.00128000 -0.00073901
vt 0.00251141 -0.00067293
vt 6.28318548 -0.00000000
vt 3.14159274 -2.09439516
vt 1.30899692 0.00000000
vt -0.00017149 -0.00157703
vt -0.00071175 -0.00009370
vt 2.35619450 -1.83259571
vt 2.09439516 1.57079637
vt 3.14159274 0.52359879
vt 4.45058966 -3.14159274
vt 5.23598766 -2.61799383
vt -0.00154548 -0.00233589
vt -0.00073901 0.00000000
vt 2.35619450 1.04719758
vt 6.02138615 0.00000000
vt 2.35619450 0.00000000
vt 5.49778700 0.26179940
vt 4.97418833 0.00000000
vt 2.09439516 0.52359879
vt 1.83259571 -2.35619450
vt 1.30899692 -1.83259571
vt 4.97418833 0.52359879
vt -0.00000000 1.57079637
vt 5.75958633 0.52359879
vt 6.54498482 -0.03475000
vt 0.52359879 -2.61799383
vt 3.01069307 -0.00073901
vt 1.30899692 0.00028050
vt 1.04719758 -2.35619450
vt 2.09439516 0.00028050
vt 0.00154548 -0.00316411
vt 0.78539819 0.26179940
vt 3.40339208 -2.35619450
vt 2.87979317 -0.03190000
vt -0.00128000 -0.00349702
vt 4.71238899 0.26179940
vt 4.45058966 0.00000000
vt 3.14159274 1.04719758
vt -0.00080000 -0.00413564
vt 3.92699075 0.00000000
vt 1.83259571 -2.87979317
vt 2.87979317 0.00000000
vt -0.00071175 -0.00540630
vt 2.35619450 0.00028050
vt -0.00067293 0.00251141
vt 0.00121950 -0.00121950
vt 2.87979317 1.57079637
vt 6.02138615 1.57079637
vt 0.26179940 1.30899692
vt 0.00238157 -0.00412500
vt 2.35619450 0.52359879
vt 3.14159274 -3.14159274
vt 2.09439516 0.00000000
vt 0.52359879 -2.35619450
vt 2.61799383 -2.35619450
vt 1.83259571 -0.03190000
vt 4.71238899 -1.57079637
vt 0.00138564 -0.00195000
vt 4.18879032 0.52359879
vt 0.78539819 -2.87979317
vt 3.40339208 0.00000000
vt 2.09439516 -1.83259571
vt 3.92699075 -2.87979317
vt 0.78539819 -0.03485000
vt 1.70169604 -0.00073901
vt 0.00067293 -0.00251141
vt 1.83259571 0.26179940
vt 1.57079637 0.78539819
vt 3.40339208 0.26179940
vt 0.52359879 0.52359879
vt 5.62868690 -0.00073901
vt 6.28318548 -2.09439516
vt 0.00183848 -0.00183848
vt 0.78539819 -0.03475000
vt 2.61799383 0.52359879
vt -0.00004361 -0.00188574
vt 4.18879032 0.00000000
vt -0.00238157 -0.00412500
vt 4.45058966 -0.03475000
vt 2.09439516 -2.61799383
vt 4.18879032 -0.03485000
vt 5.75958633 1.57079637
vt 4.18879032 -2.35619450
vt 2.61799383 -1.57079637
vt -0.00225167 0.00130000
vt 4.45058966 0.78539819
vt 3.92699075 1.57079637
vt 4.71238899 -0.03190000
vt 2.87979317 0.78539819
vt 3.40339208 -2.09439516
vt 0.00041411 -0.00429548
vt 3.14159274 -2.61799383
vt 2.61799383 -1.83259571
vt 0.65449846 -0.00073901
vt 4.58148909 -0.00073901
vt 3.92699075 -1.57079637
vt -0.00128000 -0.00073901
vt 5.49778700 -0.03190000
vt 2.35619450 -2.09439516
vt 0.26179940 -3.14159274
vt 5.75958633 1.04719758
vt 5.49778700 0.00000000
vt 3.92699075 1.30899692
vt 4.97418833 -2.87979317
vt 1.57079637 -2.09439516
vt 0.26179940 -2.09439516
vt 3.92699075 -2.61799383
vt 2.61799383 -3.14159274
vt 3.92699075 1.04719758
vt -0.00000000 -0.00550000
vt 0.26179940 -0.04246950
vt 5.49778700 0.00000000
vt 4.71238899 0.00000000
vt 3.14159274 0.78539819
vt 5.23598766 -1.83259571
vt 0.78539819 -2.61799383
vt 1.57079637 -0.04246950
vt 1.30899692 -0.03475000
vt 3.40339208 0.52359879
vt 6.28318548 -2.35619450
vt 5.75958633 -1.83259571
vt -0.00000000 0.00000000
vt -0.00037490 -0.00312212
vt 1.04719758 -1.83259571
vt 4.18879032 -0.00000000
vt 3.92699075 -3.14159274
vt 2.09439516 0.78539819
vt 5.49778700 -2.09439516
vt 4.97418833 0.00000000
vt 2.35619450 -2.87979317
vt 2.61799383 0.00000000
vt 3.14159274 0.00028050
vt 2.35619450 -0.03485000
vt 2.61799383 0.00028050
vt 0.26179940 -1.57079637
vt 5.49778700 -0.03475000
vt 4.45058966 -0.04246950
vt 2.09439516 -2.35619450
vt 1.04719758 0.26179940
vt 2.87979317 -0.04246950
vt 4.71238899 0.00000000
vt 6.28318548 -1.83259571
vt 1.04719758 0.00000000
vt 5.75958633 -2.35619450
vt 1.83259571 0.00028050
vt -0.00194454 -0.00080546
vt -0.00105612 -0.00182925
vt 1.30899692 -2.87979317
vt 0.52359879 -2.87979317
vt 1.57079637 1.04719758
vt 0.00113137 -0.00161863
vt 4.71238899 -0.03475000
vt 3.14159274 1.30899692
vt 6.02138615 -0.04246950
vt 0.00265630 -0.00346175
vt 4.97418833 0.00000000
vt -0.00256000 -0.00221703
vt 2.87979317 -3.14159274
vt -0.00160000 -0.00275000
vt 2.35619450 0.26179940
vt -0.00000000 -0.03190000
vt 3.66519141 0.52359879
vt 4.45058966 -2.87979317
vt 0.26179940 -2.35619450
vt 0.13089970 -0.00073901
vt 4.97418833 1.04719758
vt 5.23598766 1.04719758
vt 1.04719758 0.00028050
vt 0.52359879 -0.03190000
vt 6.28318548 -0.03485000
vt -0.00000000 -0.00115000
vt 5.75958633 0.00000000
vt 0.52359879 1.57079637
vt 0.26179940 0.78539819
vt 6.54498482 -3.14159274
vt 3.14159274 -0.04246950
vt -0.00064000 -0.00332554
vt 1.30899692 0.26179940
vt 5.23598766 0.00028050
vt -0.00256000 -0.00147802
vt 4.71238899 1.30899692
vt 5.49778700 -1.83259571
vt 5.49778700 -1.57079637
vt 4.18879032 -0.03190000
vt 0.78539819 -2.09439516
vt 5.75958633 -2.09439516
vt 2.61799383 0.78539819
vt 6.54498482 -2.09439516
vt 4.45058966 1.57079637
vt 5.23598766 -0.03485000
vt 2.09439516 -0.04246950
vt 4.45058966 1.30899692
vt 5.49778700 1.30899692
vt 0.00080000 -0.00136436
vt 3.66519141 0.00000000
vt -0.00060975 -0.00227562
vt 3.92699075 -0.03475000
vt 1.83259571 -2.61799383
vt 4.18879032 1.04719758
vt 6.02138615 -0.03190000
vt 5.49778700 1.57079637
vt 6.54498482 0.00000000
vt 5.23598766 0.00000000
vt 3.40339208 -0.03485000
vt 3.92699075 0.78539819
vt -0.00000000 0.00147802
vt 4.18879032 1.30899692
vt 2.87979317 -2.09439516
vt 2.09439516 -3.14159274
vt 2.87979317 -0.03475000
vt 0.00225167 0.00130000
vt 5.23598766 -0.03475000
vt 1.30899692 1.30899692
vt -0.00275000 -0.00275000
vt 5.23598766 -2.09439516
vt -0.00138564 -0.00195000
vt 6.02138615 0.78539819
vt 0.00137500 -0.00036843
vt 3.66519141 0.00028050
vt 0.00113137 -0.00388137
vt -0.00251639 -0.00188574
vt 2.35619450 1.30899692
vt 0.78539819 1.04719758
vt 5.23598766 -2.87979317
vt 1.57079637 -1.83259571
vt -0.00105612 -0.00060975
vt 3.40339208 -1.83259571
vt -0.00161129 -0.00098064
vt -0.00260000 0.00000000
vt 0.00251141 0.00067293
vt 4.18879032 1.57079637
vt 5.75958633 0.00000000
vt 4.18879032 -0.04246950
vt 5.75958633 -1.57079637
vt 4.31968975 -0.00073901
vt 3.14159274 -0.03190000
vt 0.26179940 -0.03190000
vt 1.83259571 -0.03475000
vt 2.22529483 -0.00073901
vt 2.09439516 1.30899692
vt 6.54498482 -2.35619450
vt 0.00000000 -0.00147802
vt 1.57079637 0.26179940
vt -0.00000000 0.00028050
vt 3.14159274 -0.03475000
vt 2.61799383 -0.04246950
vt 2.35619450 -0.03190000
vt 5.75958633 1.30899692
vt 6.28318548 0.52359879
vt 3.40339208 1.57079637
vt 2.61799383 -2.09439516
vt 6.54498482 0.78539819
vt 5.23598766 0.26179940
usemtl Nobel
f 446/1 445/2 444/3
f 419/4 445/2 446/5
f 446/6 416/7 442/8
f 443/9 416/7 446/10
f 444/3 443/9 446/11
f 446/12 440/13 427/14
f 441/15 440/13 446/16
f 442/8 441/15 446/17
f 446/18 438/19 437/20
f 439/21 438/19 446/22
f 427/14 439/21 446/23
f 446/24 429/25 428/26
f 425/27 429/25 446/28
f 437/20 425/27 446/29
f 446/30 423/31 436/32
f 430/33 423/31 446/34
f 428/26 430/33 446/35
f 446/36 434/37 421/38
f 435/39 434/37 446/40
f 436/32 435/39 446/41
f 446/42 432/43 431/44
f 433/45 432/43 446/46
f 421/38 433/45 446/47
f 431/44 419/48 446/49
f 266/50 290/51 267/52
f 290/51 291/53 267/52
f 267/52 291/53 268/54
f 291/53 292/55 268/54
f 268/54 292/55 269/56
f 292/55 293/57 269/56
f 269/56 293/57 270/58
f 293/57 294/59 270/58
f 270/58 294/59 271/60
f 294/59 295/61 271/60
f 271/60 295/61 272/62
f 295/61 296/63 272/62
f 272/62 296/63 273/64
f 296/63 297/65 273/64
f 273/64 297/65 274/66
f 297/65 298/67 274/66
f 274/66 298/67 275/68
f 298/67 299/69 275/68
f 275/68 299/69 276/70
f 299/69 300/71 276/70
f 276/70 300/71 277/72
f 300/71 301/73 277/72
f 277/72 301/73 278/74
f 301/73 302/75 278/74
f 278/74 302/75 279/76
f 302/75 303/77 279/76
f 279/76 303/77 280/78
f 303/77 304/79 280/78
f 280/78 304/79 281/80
f 304/79 305/81 281/80
f 281/80 305/81 282/82
f 305/81 306/83 282/82
f 282/82 306/83 283/84
f 306/83 307/85 283/84
f 283/84 307/85 284/86
f 307/85 308/87 284/86
f 284/86 308/87 285/88
f 308/87 309/89 285/88
f 285/88 309/89 286/90
f 309/89 310/91 286/90
f 286/90 310/91 287/92
f 310/91 311/93 287/92
f 287/92 311/93 288/94
f 311/93 312/95 288/94
f 288/94 312/95 289/96
f 312/95 313/97 289/96
f 289/96 313/97 266/98
f 313/97 290/99 266/98
f 313/100 314/101 290/51
f 314/101 315/102 290/51
f 290/51 315/102 291/53
f 315/102 316/103 291/53
f 291/53 316/103 292/55
f 316/103 317/104 292/55
f 292/55 317/104 293/57
f 317/104 318/105 293/57
f 293/57 318/105 294/59
f 318/105 319/106 294/59
f 294/59 319/106 295/61
f 319/106 320/107 295/61
f 295/61 320/107 296/63
f 320/107 321/108 296/63
f 296/63 321/108 297/65
f 321/108 322/109 297/65
f 297/65 322/109 298/67
f 322/109 323/110 298/67
f 298/67 323/110 299/69
f 323/110 324/111 299/69
f 299/69 324/111 300/71
f 324/111 325/112 300/71
f 300/71 325/112 301/73
f 325/112 326/113 301/73
f 301/73 326/113 302/75
f 326/113 327/114 302/75
f 302/75 327/114 303/77
f 327/114 328/115 303/77
f 303/77 328/115 304/79
f 328/115 329/116 304/79
f 304/79 329/116 305/81
f 329/116 330/117 305/81
f 305/81 330/117 306/83
f 330/117 331/118 306/83
f 306/83 331/118 307/85
f 331/118 332/119 307/85
f 307/85 332/119 308/87
f 332/119 333/120 308/87
f 308/87 333/120 309/89
f 333/120 334/121 309/89
f 309/89 334/121 310/91
f 334/121 335/122 310/91
f 310/91 335/122 311/93
f 335/122 336/123 311/93
f 311/93 336/123 312/95
f 336/123 337/124 312/95
f 312/95 337/124 313/97
f 337/124 314/125 313/97
f 337/126 338/127 314/101
f 338/127 339/128 314/101
f 314/101 339/128 315/102
f 339/128 340/129 315/102
f 315/102 340/129 316/103
f 340/129 341/130 316/103
f 316/103 341/130 317/104
f 341/130 342/131 317/104
f 317/104 342/131 318/105
f 342/131 343/132 318/105
f 318/105 343/132 319/106
f 343/132 344/133 319/106
f 319/106 344/133 320/107
f 344/133 345/134 320/107
f 320/107 345/134 321/108
f 345/134 346/135 321/108
f 321/108 346/135 322/109
f 346/135 347/136 322/109
f 322/109 347/136 323/110
f 347/136 348/137 323/110
f 323/110 348/137 324/111
f 348/137 349/138 324/111
f 324/111 349/138 325/112
f 349/138 350/139 325/112
f 325/112 350/139 326/113
f 350/139 351/140 326/113
f 326/113 351/140 327/114
f 351/140 352/141 327/114
f 327/114 352/141 328/115
f 352/141 353/142 328/115
f 328/115 353/142 329/116
f 353/142 354/143 329/116
f 329/116 354/143 330/117
f 354/143 355/144 330/117
f 330/117 355/144 331/118
f 355/144 356/145 331/118
f 331/118 356/145 332/119
f 356/145 357/146 332/119
f 332/119 357/146 333/120
f 357/146 358/147 333/120
f 333/120 358/147 334/121
f 358/147 359/148 334/121
f 334/121 359/148 335/122
f 359/148 360/149 335/122
f 335/122 360/149 336/123
f 360/149 361/150 336/123
f 336/123 361/150 337/124
f 361/150 338/151 337/124
f 361/152 362/153 338/127
f 362/153 363/154 338/127
f 338/127 363/154 339/128
f 363/154 364/155 339/128
f 339/128 364/155 340/129
f 364/155 365/156 340/129
f 340/129 365/156 341/130
f 365/156 366/157 341/130
f 341/130 366/157 342/131
f 366/157 367/158 342/131
f 342/131 367/158 343/132
f 367/158 368/159 343/132
f 343/132 368/159 344/133
f 368/159 369/160 344/133
f 344/133 369/160 345/134
f 369/160 370/161 345/134
f 345/134 370/161 346/135
f 370/161 371/162 346/135
f 346/135 371/162 347/136
f 371/162 372/163 347/136
f 347/136 372/163 348/137
f 372/163 373/164 348/137
f 348/137 373/164 349/138
f 373/164 374/165 349/138
f 349/138 374/165 350/139
f 374/165 375/166 350/139
f 350/139 375/166 351/140
f 375/166 376/167 351/140
f 351/140 376/167 352/141
f 376/167 377/168 352/141
f 352/141 377/168 353/142
f 377/168 378/169 353/142
f 353/142 378/169 354/143
f 378/169 379/170 354/143
f 354/143 379/170 355/144
f 379/170 380/171 355/144
f 355/144 380/171 356/145
f 380/171 381/172 356/145
f 356/145 381/172 357/146
f 381/172 382/173 357/146
f 357/146 382/173 358/147
f 382/173 383/174 358/147
f 358/147 383/174 359/148
f 383/174 384/175 359/148
f 359/148 384/175 360/149
f 384/175 385/176 360/149
f 360/149 385/176 361/150
f 385/176 362/177 361/150
f 385/178 386/179 362/153
f 386/179 387/180 362/153
f 362/153 387/180 363/154
f 387/180 388/181 363/154
f 363/154 388/181 364/155
f 388/181 389/182 364/155
f 364/155 389/182 365/156
f 389/182 390/183 365/156
f 365/156 390/183 366/157
f 390/183 391/184 366/157
f 366/157 391/184 367/158
f 391/184 392/185 367/158
f 367/158 392/185 368/159
f 392/185 393/186 368/159
f 368/159 393/186 369/160
f 393/186 394/187 369/160
f 369/160 394/187 370/161
f 394/187 395/188 370/161
f 370/161 395/188 371/162
f 395/188 396/189 371/162
f 371/162 396/189 372/163
f 396/189 397/190 372/163
f 372/163 397/190 373/164
f 397/190 398/191 373/164
f 373/164 398/191 374/165
f 398/191 399/192 374/165
f 374/165 399/192 375/166
f 399/192 400/193 375/166
f 375/166 400/193 376/167
f 400/193 401/194 376/167
f 376/167 401/194 377/168
f 401/194 402/195 377/168
f 377/168 402/195 378/169
f 402/195 403/196 378/169
f 378/169 403/196 379/170
f 403/196 404/197 379/170
f 379/170 404/197 380/171
f 404/197 405/198 380/171
f 380/171 405/198 381/172
f 405/198 406/199 381/172
f 381/172 406/199 382/173
f 406/199 407/200 382/173
f 382/173 407/200 383/174
f 407/200 408/201 383/174
f 383/174 408/201 384/175
f 408/201 409/202 384/175
f 384/175 409/202 385/176
f 409/202 386/203 385/176
f 409/204 243/205 386/179
f 243/205 244/206 386/179
f 386/179 244/206 387/180
f 244/206 245/207 387/180
f 387/180 245/207 388/181
f 245/207 246/208 388/181
f 388/181 246/208 389/182
f 246/208 247/209 389/182
f 389/182 247/209 390/183
f 247/209 248/210 390/183
f 390/183 248/210 391/184
f 248/210 249/211 391/184
f 391/184 249/211 392/185
f 249/211 250/212 392/185
f 392/185 250/212 393/186
f 250/212 251/213 393/186
f 393/186 251/213 394/187
f 251/213 252/214 394/187
f 394/187 252/214 395/188
f 252/214 253/215 395/188
f 395/188 253/215 396/189
f 253/215 254/216 396/189
f 396/189 254/216 397/190
f 254/216 255/217 397/190
f 397/190 255/217 398/191
f 255/217 256/218 398/191
f 398/191 256/218 399/192
f 256/218 257/219 399/192
f 399/192 257/219 400/193
f 257/219 258/220 400/193
f 400/193 258/220 401/194
f 258/220 259/221 401/194
f 401/194 259/221 402/195
f 259/221 260/222 402/195
f 402/195 260/222 403/196
f 260/222 261/223 403/196
f 403/196 261/223 404/197
f 261/223 262/224 404/197
f 404/197 262/224 405/198
f 262/224 263/225 405/198
f 405/198 263/225 406/199
f 263/225 264/226 406/199
f 406/199 264/226 407/200
f 264/226 265/227 407/200
f 407/200 265/227 408/201
f 265/227 242/228 408/201
f 408/201 242/228 409/202
f 242/228 243/229 409/202
f 61/230 98/231 60/232
f 98/231 99/233 60/232
f 60/232 99/233 59/234
f 99/233 100/235 59/234
f 59/234 100/235 58/236
f 100/235 101/237 58/236
f 58/236 101/237 57/238
f 101/237 102/239 57/238
f 57/238 102/239 56/240
f 102/239 103/241 56/240
f 56/240 103/241 55/242
f 103/241 104/243 55/242
f 55/242 104/243 54/244
f 104/243 105/245 54/244
f 54/244 105/245 53/246
f 105/245 106/247 53/246
f 53/246 106/247 52/248
f 106/247 107/249 52/248
f 52/248 107/249 51/250
f 107/249 108/251 51/250
f 51/250 108/251 50/252
f 108/251 109/253 50/252
f 50/252 109/253 73/254
f 109/253 110/255 73/254
f 73/254 110/255 72/256
f 110/255 111/257 72/256
f 72/256 111/257 71/258
f 111/257 112/259 71/258
f 71/258 112/259 70/260
f 112/259 113/261 70/260
f 70/260 113/261 69/262
f 113/261 114/263 69/262
f 69/262 114/263 68/264
f 114/263 115/265 68/264
f 68/264 115/265 67/266
f 115/265 116/267 67/266
f 67/266 116/267 66/268
f 116/267 117/269 66/268
f 66/268 117/269 65/270
f 117/269 118/271 65/270
f 65/270 118/271 64/272
f 118/271 119/273 64/272
f 64/272 119/273 63/274
f 119/273 120/275 63/274
f 63/274 120/275 62/276
f 120/275 121/277 62/276
f 62/276 121/277 61/278
f 121/277 98/279 61/278
f 98/231 122/280 99/233
f 122/280 123/281 99/233
f 99/233 123/281 100/235
f 123/281 124/282 100/235
f 100/235 124/282 101/237
f 124/282 125/283 101/237
f 101/237 125/283 102/239
f 125/283 126/284 102/239
f 102/239 126/284 103/241
f 126/284 127/285 103/241
f 103/241 127/285 104/243
f 127/285 128/286 104/243
f 104/243 128/286 105/245
f 128/286 129/287 105/245
f 105/245 129/287 106/247
f 129/287 130/288 106/247
f 106/247 130/288 107/249
f 130/288 131/289 107/249
f 107/249 131/289 108/251
f 131/289 132/290 108/251
f 108/251 132/290 109/253
f 132/290 133/291 109/253
f 109/253 133/291 110/255
f 133/291 134/292 110/255
f 110/255 134/292 111/257
f 134/292 135/293 111/257
f 111/257 135/293 112/259
f 135/293 136/294 112/259
f 112/259 136/294 113/261
f 136/294 137/295 113/261
f 113/261 137/295 114/263
f 137/295 138/296 114/263
f 114/263 138/296 115/265
f 138/296 139/297 115/265
f 115/265 139/297 116/267
f 139/297 140/298 116/267
f 116/267 140/298 117/269
f 140/298 141/299 117/269
f 117/269 141/299 118/271
f 141/299 142/300 118/271
f 118/271 142/300 119/273
f 142/300 143/301 119/273
f 119/273 143/301 120/275
f 143/301 144/302 120/275
f 120/275 144/302 121/277
f 144/302 145/303 121/277
f 121/277 145/303 98/279
f 145/303 122/304 98/279
f 122/280 146/305 123/281
f 146/305 147/306 123/281
f 123/281 147/306 124/282
f 147/306 148/307 124/282
f 124/282 148/307 125/283
f 148/307 149/308 125/283
f 125/283 149/308 126/284
f 149/308 150/309 126/284
f 126/284 150/309 127/285
f 150/309 151/310 127/285
f 127/285 151/310 128/286
f 151/310 152/311 128/286
f 128/286 152/311 129/287
f 152/311 153/312 129/287
f 129/287 153/312 130/288
f 153/312 154/313 130/288
f 130/288 154/313 131/289
f 154/313 155/314 131/289
f 131/289 155/314 132/290
f 155/314 156/315 132/290
f 132/290 156/315 133/291
f 156/315 157/316 133/291
f 133/291 157/316 134/292
f 157/316 158/317 134/292
f 134/292 158/317 135/293
f 158/317 159/318 135/293
f 135/293 159/318 136/294
f 159/318 160/319 136/294
f 136/294 160/319 137/295
f 160/319 161/320 137/295
f 137/295 161/320 138/296
f 161/320 162/321 138/296
f 138/296 162/321 139/297
f 162/321 163/322 139/297
f 139/297 163/322 140/298
f 163/322 164/323 140/298
f 140/298 164/323 141/299
f 164/323 165/324 141/299
f 141/299 165/324 142/300
f 165/324 166/325 142/300
f 142/300 166/325 143/301
f 166/325 167/326 143/301
f 143/301 167/326 144/302
f 167/326 168/327 144/302
f 144/302 168/327 145/303
f 168/327 169/328 145/303
f 145/303 169/328 122/304
f 169/328 146/329 122/304
f 146/305 170/330 147/306
f 170/330 171/331 147/306
f 147/306 171/331 148/307
f 171/331 172/332 148/307
f 148/307 172/332 149/308
f 172/332 173/333 149/308
f 149/308 173/333 150/309
f 173/333 174/334 150/309
f 150/309 174/334 151/310
f 174/334 175/335 151/310
f 151/310 175/335 152/311
f 175/335 176/336 152/311
f 152/311 176/336 153/312
f 176/336 177/337 153/312
f 153/312 177/337 154/313
f 177/337 178/338 154/313
f 154/313 178/338 155/314
f 178/338 179/339 155/314
f 155/314 179/339 156/315
f 179/339 180/340 156/315
f 156/315 180/340 157/316
f 180/340 181/341 157/316
f 157/316 181/341 158/317
f 181/341 182/342 158/317
f 158/317 182/342 159/318
f 182/342 183/343 159/318
f 159/318 183/343 160/319
f 183/343 184/344 160/319
f 160/319 184/344 161/320
f 184/344 185/345 161/320
f 161/320 185/345 162/321
f 185/345 186/346 162/321
f 162/321 186/346 163/322
f 186/346 187/347 163/322
f 163/322 187/347 164/323
f 187/347 188/348 164/323
f 164/323 188/348 165/324
f 188/348 189/349 165/324
f 165/324 189/349 166/325
f 189/349 190/350 166/325
f 166/325 190/350 167/326
f 190/350 191/351 167/326
f 167/326 191/351 168/327
f 191/351 192/352 168/327
f 168/327 192/352 169/328
f 192/352 193/353 169/328
f 169/328 193/353 146/329
f 193/353 170/354 146/329
f 170/330 194/355 171/331
f 194/355 195/356 171/331
f 171/331 195/356 172/332
f 195/356 196/357 172/332
f 172/332 196/357 173/333
f 196/357 197/358 173/333
f 173/333 197/358 174/334
f 197/358 198/359 174/334
f 174/334 198/359 175/335
f 198/359 199/360 175/335
f 175/335 199/360 176/336
f 199/360 200/361 176/336
f 176/336 200/361 177/337
f 200/361 201/362 177/337
f 177/337 201/362 178/338
f 201/362 202/363 178/338
f 178/338 202/363 179/339
f 202/363 203/364 179/339
f 179/339 203/364 180/340
f 203/364 204/365 180/340
f 180/340 204/365 181/341
f 204/365 205/366 181/341
f 181/341 205/366 182/342
f 205/366 206/367 182/342
f 182/342 206/367 183/343
f 206/367 207/368 183/343
f 183/343 207/368 184/344
f 207/368 208/369 184/344
f 184/344 208/369 185/345
f 208/369 209/370 185/345
f 185/345 209/370 186/346
f 209/370 210/371 186/346
f 186/346 210/371 187/347
f 210/371 211/372 187/347
f 187/347 211/372 188/348
f 211/372 212/373 188/348
f 188/348 212/373 189/349
f 212/373 213/374 189/349
f 189/349 213/374 190/350
f 213/374 214/375 190/350
f 190/350 214/375 191/351
f 214/375 215/376 191/351
f 191/351 215/376 192/352
f 215/376 216/377 192/352
f 192/352 216/377 193/353
f 216/377 217/378 193/353
f 193/353 217/378 170/354
f 217/378 194/379 170/354
f 194/355 75/380 195/356
f 75/380 76/381 195/356
f 195/356 76/381 196/357
f 76/381 77/382 196/357
f 196/357 77/382 197/358
f 77/382 78/383 197/358
f 197/358 78/383 198/359
f 78/383 79/384 198/359
f 198/359 79/384 199/360
f 79/384 80/385 199/360
f 199/360 80/385 200/361
f 80/385 81/386 200/361
f 200/361 81/386 201/362
f 81/386 82/387 201/362
f 201/362 82/387 202/363
f 82/387 83/388 202/363
f 202/363 83/388 203/364
f 83/388 84/389 203/364
f 203/364 84/389 204/365
f 84/389 85/390 204/365
f 204/365 85/390 205/366
f 85/390 86/391 205/366
f 205/366 86/391 206/367
f 86/391 87/392 206/367
f 206/367 87/392 207/368
f 87/392 88/393 207/368
f 207/368 88/393 208/369
f 88/393 89/394 208/369
f 208/369 89/394 209/370
f 89/394 90/395 209/370
f 209/370 90/395 210/371
f 90/395 91/396 210/371
f 210/371 91/396 211/372
f 91/396 92/397 211/372
f 211/372 92/397 212/373
f 92/397 93/398 212/373
f 212/373 93/398 213/374
f 93/398 94/399 213/374
f 213/374 94/399 214/375
f 94/399 95/400 214/375
f 214/375 95/400 215/376
f 95/400 96/401 215/376
f 215/376 96/401 216/377
f 96/401 97/402 216/377
f 216/377 97/402 217/378
f 97/402 74/403 217/378
f 217/378 74/403 194/379
f 74/403 75/404 194/379
f 26/405 24/406 27/407
f 24/406 23/408 27/407
f 27/407 23/408 28/409
f 23/408 22/410 28/409
f 28/409 22/410 29/411
f 22/410 21/412 29/411
f 29/411 21/412 30/413
f 21/412 20/414 30/413
f 30/413 20/414 31/415
f 20/414 19/416 31/415
f 31/415 19/416 32/417
f 19/416 18/418 32/417
f 32/417 18/418 33/419
f 18/418 17/420 33/419
f 33/419 17/420 34/421
f 17/420 16/422 34/421
f 34/421 16/422 35/423
f 16/422 15/424 35/423
f 35/423 15/424 36/425
f 15/424 14/426 36/425
f 36/425 14/426 37/427
f 14/426 13/428 37/427
f 37/427 13/428 38/429
f 13/428 12/430 38/429
f 38/429 12/430 39/431
f 12/430 11/432 39/431
f 39/431 11/432 40/433
f 11/432 10/434 40/433
f 40/433 10/434 41/435
f 10/434 9/436 41/435
f 41/435 9/436 42/437
f 9/436 8/438 42/437
f 42/437 8/438 43/439
f 8/438 7/440 43/439
f 43/439 7/440 44/441
f 7/440 6/442 44/441
f 44/441 6/442 45/443
f 6/442 5/444 45/443
f 45/443 5/444 46/445
f 5/444 4/446 46/445
f 46/445 4/446 47/447
f 4/446 3/448 47/447
f 47/447 3/448 48/449
f 3/448 2/450 48/449
f 48/449 2/450 49/451
f 2/450 1/452 49/451
f 49/451 1/452 26/453
f 1/452 24/454 26/453
f 50/455 27/456 51/457
f 27/456 28/458 51/457
f 51/457 28/458 52/459
f 28/458 29/460 52/459
f 52/459 29/460 53/461
f 29/460 30/462 53/461
f 53/461 30/462 54/463
f 30/462 31/464 54/463
f 54/463 31/464 55/465
f 31/464 32/466 55/465
f 55/465 32/466 56/467
f 32/466 33/468 56/467
f 56/467 33/468 57/469
f 33/468 34/470 57/469
f 57/469 34/470 58/471
f 34/470 35/472 58/471
f 58/471 35/472 59/473
f 35/472 36/474 59/473
f 59/473 36/474 60/475
f 36/474 37/476 60/475
f 60/475 37/476 61/477
f 37/476 38/478 61/477
f 61/477 38/478 62/479
f 38/478 39/480 62/479
f 62/479 39/480 63/481
f 39/480 40/482 63/481
f 63/481 40/482 64/483
f 40/482 41/484 64/483
f 64/483 41/484 65/485
f 41/484 42/486 65/485
f 65/485 42/486 66/487
f 42/486 43/488 66/487
f 66/487 43/488 67/489
f 43/488 44/490 67/489
f 67/489 44/490 68/491
f 44/490 45/492 68/491
f 68/491 45/492 69/493
f 45/492 46/494 69/493
f 69/493 46/494 70/495
f 46/494 47/496 70/495
f 70/495 47/496 71/497
f 47/496 48/498 71/497
f 71/497 48/498 72/499
f 48/498 49/500 72/499
f 72/499 49/500 73/501
f 49/500 26/502 73/501
f 73/501 26/502 50/503
f 26/502 27/504 50/503
f 424/505 423/506 430/507
f 430/507 428/508 424/505
f 428/508 429/509 424/505
f 424/505 429/509 425/510
f 422/511 421/512 434/513
f 434/513 435/514 422/511
f 435/514 436/515 422/511
f 422/511 436/515 423/506
f 420/516 419/517 431/518
f 431/518 432/519 420/516
f 432/519 433/520 420/516
f 420/516 433/520 421/512
f 445/521 419/517 418/522
f 416/523 443/524 418/522
f 443/524 444/525 418/522
f 418/522 444/525 445/521
f 439/526 427/527 426/528
f 425/510 437/529 426/528
f 437/529 438/530 426/528
f 426/528 438/530 439/526
f 417/531 427/527 440/532
f 440/532 441/533 417/531
f 441/533 442/534 417/531
f 417/531 442/534 416/523
f 417/535 411/536 427/537
f 411/536 410/538 427/537
f 427/537 410/538 426/539
f 426/535 410/536 425/537
f 410/536 413/538 425/537
f 425/537 413/538 424/539
f 424/539 413/538 423/537
f 413/538 412/536 423/537
f 423/537 412/536 422/535
f 422/539 412/538 421/537
f 412/538 414/536 421/537
f 421/537 414/536 420/535
f 420/535 414/536 419/537
f 414/536 415/538 419/537
f 419/537 415/538 418/539
f 418/539 415/538 416/537
f 415/538 411/536 416/537
f 416/537 411/536 417/535
f 22/540 23/541 25/542
f 23/541 24/543 25/542
f 25/542 24/543 1/544
f 19/545 20/546 25/542
f 20/546 21/547 25/542
f 25/542 21/547 22/540
f 16/548 17/549 25/542
f 17/549 18/550 25/542
f 25/542 18/550 19/545
f 13/551 14/552 25/542
f 14/552 15/553 25/542
f 25/542 15/553 16/548
f 10/554 11/555 25/542
f 11/555 12/556 25/542
f 25/542 12/556 13/551
f 7/557 8/558 25/542
f 8/558 9/559 25/542
f 25/542 9/559 10/554
f 4/560 5/561 25/542
f 5/561 6/562 25/542
f 25/542 6/562 7/557
f 1/544 2/563 25/542
f 2/563 3/564 25/542
f 25/542 3/564 4/560
f 92/565 219/566 93/567
f 219/566 223/568 93/567
f 93/567 223/568 94/569
f 223/568 220/570 94/569
f 94/569 220/570 95/571
f 220/570 221/572 95/571
f 95/571 221/572 96/573
f 221/572 224/574 96/573
f 96/573 224/574 97/575
f 224/574 225/576 97/575
f 97/575 225/576 74/577
f 225/576 226/578 74/577
f 74/577 226/578 75/579
f 226/578 233/580 75/579
f 75/579 233/580 76/581
f 233/580 239/582 76/581
f 76/581 239/582 77/583
f 239/582 240/584 77/583
f 77/583 240/584 78/585
f 240/584 241/586 78/585
f 78/585 241/586 79/587
f 241/586 237/588 79/587
f 79/587 237/588 80/589
f 237/588 238/590 80/589
f 80/589 238/590 81/591
f 238/590 234/592 81/591
f 81/591 234/592 82/593
f 234/592 235/594 82/593
f 82/593 235/594 83/595
f 235/594 227/596 83/595
f 83/595 227/596 84/597
f 227/596 228/598 84/597
f 84/597 228/598 85/599
f 228/598 236/600 85/599
f 85/599 236/600 86/601
f 236/600 229/602 86/601
f 86/601 229/602 87/603
f 229/602 230/604 87/603
f 87/603 230/604 88/605
f 230/604 231/606 88/605
f 88/605 231/606 89/607
f 231/606 232/608 89/607
f 89/607 232/608 90/609
f 232/608 222/610 90/609
f 90/609 222/610 91/611
f 222/610 218/612 91/611
f 91/611 218/612 92/565
f 218/612 219/566 92/565
f 415/613 268/614 269/615
f 280/616 413/531 279/617
f 413/531 410/618 279/617
f 279/617 410/618 278/619
f 410/618 277/620 278/619
f 269/615 270/621 415/613
f 270/621 271/622 415/613
f 415/613 271/622 411/623
f 271/622 272/624 411/623
f 411/623 272/624 273/625
f 288/626 289/627 414/628
f 289/627 266/629 414/628
f 414/628 266/629 415/613
f 266/629 267/630 415/613
f 415/613 267/630 268/614
f 284/631 285/632 412/633
f 285/632 286/634 412/633
f 412/633 286/634 414/628
f 286/634 287/635 414/628
f 414/628 287/635 288/626
f 280/616 281/636 413/531
f 281/636 282/637 413/531
f 413/531 282/637 412/633
f 282/637 283/638 412/633
f 412/633 283/638 284/631
f 273/625 274/639 411/623
f 274/639 275/640 411/623
f 411/623 275/640 410/618
f 275/640 276/641 410/618
f 410/618 276/641 277/620
f 242/642 236/643 243/644
f 236/643 228/645 243/644
f 243/644 228/645 244/646
f 228/645 227/647 244/646
f 244/646 227/647 245/648
f 227/647 235/649 245/648
f 245/648 235/649 246/650
f 235/649 234/651 246/650
f 246/650 234/651 247/652
f 234/651 238/653 247/652
f 247/652 238/653 248/654
f 238/653 237/655 248/654
f 248/654 237/655 249/656
f 237/655 241/657 249/656
f 249/656 241/657 250/658
f 241/657 240/659 250/658
f 250/658 240/659 251/660
f 240/659 239/661 251/660
f 251/660 239/661 252/662
f 239/661 233/663 252/662
f 252/662 233/663 253/664
f 233/663 226/665 253/664
f 253/664 226/665 254/666
f 226/665 225/667 254/666
f 254/666 225/667 255/668
f 225/667 224/669 255/668
f 255/668 224/669 256/670
f 224/669 221/671 256/670
f 256/670 221/671 257/672
f 221/671 220/673 257/672
f 257/672 220/673 258/674
f 220/673 223/675 258/674
f 258/674 223/675 259/676
f 223/675 219/677 259/676
f 259/676 219/677 260/678
f 219/677 218/679 260/678
f 260/678 218/679 261/680
f 218/679 222/681 261/680
f 261/680 222/681 262/682
f 222/681 232/683 262/682
f 262/682 232/683 263/684
f 232/683 231/685 263/684
f 263/684 231/685 264/686
f 231/685 230/687 264/686
f 264/686 230/687 265/688
f 230/687 229/689 265/688
f 265/688 229/689 242/690
f 229/689 236/691 242/690
