# Exported from USD: /World/Robotiq_Hand_E_edit/right_gripper/D_A03_ASM_DOIGTS_PARALLELES_1ROBOTIQ_HAND_E_DEFEATURE_01/D_A03_ASM_DOIGTS_PARALLELES_1ROBOTIQ_HAND_E_DEFEATURE
mtllib D_A03_ASM_DOIGTS_PARALLELES_1ROBOTIQ_HAND_E_DEFEATURE.mtl

g D_A03_ASM_DOIGTS_PARALLELES_1ROBOTIQ_HAND_E_DEFEATURE
v -0.01346016 0.01040000 0.02294316
v -0.01372756 0.01040000 0.02311592
v -0.01403056 0.01040000 0.02321359
v -0.01434851 0.01040000 0.02322952
v -0.01465975 0.01040000 0.02316260
v -0.01494307 0.01040000 0.02301741
v -0.01517916 0.01040000 0.02280384
v -0.01535192 0.01040000 0.02253644
v -0.01544959 0.01040000 0.02223344
v -0.01546551 0.01040000 0.02191549
v -0.01539860 0.01040000 0.02160425
v -0.01525341 0.01040000 0.02132093
v -0.01503984 0.01040000 0.02108484
v -0.01477244 0.01040000 0.02091208
v -0.01446944 0.01040000 0.02081441
v -0.01415149 0.01040000 0.02079849
v -0.01384025 0.01040000 0.02086540
v -0.01355693 0.01040000 0.02101059
v -0.01332084 0.01040000 0.02122416
v -0.01314808 0.01040000 0.02149156
v -0.01305041 0.01040000 0.02179456
v -0.01303449 0.01040000 0.02211251
v -0.01310140 0.01040000 0.02242375
v -0.01324659 0.01040000 0.02270707
v -0.01425000 0.01040000 0.02201400
v -0.01327849 0.01068050 0.02315687
v -0.01301579 0.01068050 0.02286649
v -0.01283721 0.01068050 0.02251800
v -0.01275490 0.01068050 0.02213517
v -0.01277449 0.01068050 0.02174408
v -0.01289462 0.01068050 0.02137139
v -0.01310713 0.01068050 0.02104249
v -0.01339751 0.01068050 0.02077979
v -0.01374600 0.01068050 0.02060121
v -0.01412883 0.01068050 0.02051890
v -0.01451992 0.01068050 0.02053848
v -0.01489261 0.01068050 0.02065862
v -0.01522151 0.01068050 0.02087113
v -0.01548421 0.01068050 0.02116152
v -0.01566279 0.01068050 0.02151000
v -0.01574510 0.01068050 0.02189283
v -0.01572552 0.01068050 0.02228392
v -0.01560538 0.01068050 0.02265661
v -0.01539287 0.01068050 0.02298551
v -0.01510249 0.01068050 0.02324821
v -0.01475400 0.01068050 0.02342679
v -0.01437117 0.01068050 0.02350910
v -0.01398008 0.01068050 0.02348951
v -0.01360739 0.01068050 0.02336938
v -0.01327849 0.01830000 0.02315687
v -0.01301579 0.01830000 0.02286649
v -0.01283721 0.01830000 0.02251800
v -0.01275490 0.01830000 0.02213517
v -0.01277449 0.01830000 0.02174408
v -0.01289462 0.01830000 0.02137139
v -0.01310713 0.01830000 0.02104249
v -0.01339751 0.01830000 0.02077979
v -0.01374600 0.01830000 0.02060121
v -0.01412883 0.01830000 0.02051890
v -0.01451992 0.01830000 0.02053848
v -0.01489261 0.01830000 0.02065862
v -0.01522151 0.01830000 0.02087113
v -0.01548421 0.01830000 0.02116152
v -0.01566279 0.01830000 0.02151000
v -0.01574510 0.01830000 0.02189283
v -0.01572552 0.01830000 0.02228392
v -0.01560538 0.01830000 0.02265661
v -0.01539287 0.01830000 0.02298551
v -0.01510249 0.01830000 0.02324821
v -0.01475400 0.01830000 0.02342679
v -0.01437117 0.01830000 0.02350910
v -0.01398008 0.01830000 0.02348951
v -0.01360739 0.01830000 0.02336938
v -0.01528628 0.01840000 0.02079493
v -0.01493545 0.01840000 0.02056826
v -0.01453791 0.01840000 0.02044012
v -0.01412075 0.01840000 0.02041923
v -0.01371240 0.01840000 0.02050702
v -0.01334068 0.01840000 0.02069751
v -0.01303093 0.01840000 0.02097772
v -0.01280426 0.01840000 0.02132855
v -0.01267612 0.01840000 0.02172609
v -0.01265523 0.01840000 0.02214325
v -0.01274302 0.01840000 0.02255160
v -0.01293351 0.01840000 0.02292332
v -0.01321372 0.01840000 0.02323307
v -0.01356455 0.01840000 0.02345974
v -0.01396209 0.01840000 0.02358788
v -0.01437925 0.01840000 0.02360877
v -0.01478760 0.01840000 0.02352098
v -0.01515932 0.01840000 0.02333049
v -0.01546907 0.01840000 0.02305028
v -0.01569574 0.01840000 0.02269945
v -0.01582388 0.01840000 0.02230191
v -0.01584477 0.01840000 0.02188475
v -0.01575698 0.01840000 0.02147640
v -0.01556649 0.01840000 0.02110468
v -0.01489407 0.01832588 0.02065554
v -0.01452053 0.01832588 0.02053513
v -0.01412855 0.01832588 0.02051551
v -0.01374485 0.01832588 0.02059800
v -0.01339558 0.01832588 0.02077699
v -0.01310453 0.01832588 0.02104028
v -0.01289154 0.01832588 0.02136993
v -0.01277113 0.01832588 0.02174347
v -0.01275151 0.01832588 0.02213545
v -0.01283400 0.01832588 0.02251915
v -0.01301299 0.01832588 0.02286842
v -0.01327628 0.01832588 0.02315947
v -0.01360593 0.01832588 0.02337246
v -0.01397947 0.01832588 0.02349287
v -0.01437145 0.01832588 0.02351249
v -0.01475515 0.01832588 0.02343000
v -0.01510442 0.01832588 0.02325101
v -0.01539547 0.01832588 0.02298772
v -0.01560846 0.01832588 0.02265807
v -0.01572887 0.01832588 0.02228453
v -0.01574849 0.01832588 0.02189256
v -0.01566600 0.01832588 0.02150885
v -0.01548701 0.01832588 0.02115958
v -0.01522372 0.01832588 0.02086853
v -0.01489835 0.01835000 0.02064652
v -0.01452233 0.01835000 0.02052531
v -0.01412775 0.01835000 0.02050555
v -0.01374150 0.01835000 0.02058859
v -0.01338990 0.01835000 0.02076877
v -0.01309692 0.01835000 0.02103381
v -0.01288252 0.01835000 0.02136565
v -0.01276131 0.01835000 0.02174167
v -0.01274155 0.01835000 0.02213625
v -0.01282459 0.01835000 0.02252250
v -0.01300477 0.01835000 0.02287410
v -0.01326981 0.01835000 0.02316708
v -0.01360165 0.01835000 0.02338148
v -0.01397767 0.01835000 0.02350269
v -0.01437225 0.01835000 0.02352245
v -0.01475850 0.01835000 0.02343941
v -0.01511010 0.01835000 0.02325923
v -0.01540308 0.01835000 0.02299419
v -0.01561748 0.01835000 0.02266235
v -0.01573869 0.01835000 0.02228633
v -0.01575845 0.01835000 0.02189175
v -0.01567541 0.01835000 0.02150550
v -0.01549523 0.01835000 0.02115390
v -0.01523019 0.01835000 0.02086092
v -0.01490516 0.01837071 0.02063216
v -0.01452519 0.01837071 0.02050967
v -0.01412646 0.01837071 0.02048971
v -0.01373616 0.01837071 0.02057362
v -0.01338087 0.01837071 0.02075569
v -0.01308481 0.01837071 0.02102352
v -0.01286816 0.01837071 0.02135884
v -0.01274567 0.01837071 0.02173881
v -0.01272571 0.01837071 0.02213754
v -0.01280962 0.01837071 0.02252784
v -0.01299169 0.01837071 0.02288313
v -0.01325952 0.01837071 0.02317919
v -0.01359484 0.01837071 0.02339584
v -0.01397481 0.01837071 0.02351833
v -0.01437354 0.01837071 0.02353829
v -0.01476384 0.01837071 0.02345438
v -0.01511913 0.01837071 0.02327231
v -0.01541519 0.01837071 0.02300448
v -0.01563184 0.01837071 0.02266916
v -0.01575433 0.01837071 0.02228919
v -0.01577429 0.01837071 0.02189046
v -0.01569038 0.01837071 0.02150016
v -0.01550831 0.01837071 0.02114487
v -0.01524048 0.01837071 0.02084881
v -0.01491403 0.01838660 0.02061344
v -0.01452892 0.01838660 0.02048930
v -0.01412479 0.01838660 0.02046907
v -0.01372920 0.01838660 0.02055411
v -0.01336910 0.01838660 0.02073865
v -0.01306903 0.01838660 0.02101010
v -0.01284944 0.01838660 0.02134997
v -0.01272530 0.01838660 0.02173509
v -0.01270507 0.01838660 0.02213921
v -0.01279011 0.01838660 0.02253480
v -0.01297465 0.01838660 0.02289490
v -0.01324610 0.01838660 0.02319497
v -0.01358597 0.01838660 0.02341456
v -0.01397108 0.01838660 0.02353870
v -0.01437521 0.01838660 0.02355894
v -0.01477080 0.01838660 0.02347388
v -0.01513090 0.01838660 0.02328935
v -0.01543097 0.01838660 0.02301790
v -0.01565056 0.01838660 0.02267803
v -0.01577470 0.01838660 0.02229292
v -0.01579493 0.01838660 0.02188879
v -0.01570989 0.01838660 0.02149320
v -0.01552535 0.01838660 0.02113310
v -0.01525390 0.01838660 0.02083303
v -0.01492437 0.01839659 0.02059165
v -0.01453326 0.01839659 0.02046558
v -0.01412284 0.01839659 0.02044503
v -0.01372110 0.01839659 0.02053140
v -0.01335539 0.01839659 0.02071881
v -0.01305065 0.01839659 0.02099448
v -0.01282765 0.01839659 0.02133963
v -0.01270158 0.01839659 0.02173075
v -0.01268103 0.01839659 0.02214116
v -0.01276740 0.01839659 0.02254291
v -0.01295481 0.01839659 0.02290861
v -0.01323048 0.01839659 0.02321335
v -0.01357563 0.01839659 0.02343635
v -0.01396674 0.01839659 0.02356242
v -0.01437716 0.01839659 0.02358297
v -0.01477890 0.01839659 0.02349660
v -0.01514461 0.01839659 0.02330919
v -0.01544935 0.01839659 0.02303352
v -0.01567235 0.01839659 0.02268836
v -0.01579842 0.01839659 0.02229726
v -0.01581897 0.01839659 0.02188684
v -0.01573260 0.01839659 0.02148510
v -0.01554519 0.01839659 0.02111939
v -0.01526952 0.01839659 0.02081465
v -0.01332600 0.01840000 0.01942388
v -0.01268711 0.01840000 0.01975129
v -0.01215473 0.01840000 0.02023289
v -0.01176514 0.01840000 0.02083588
v -0.01154489 0.01840000 0.02151915
v -0.01150899 0.01840000 0.02223615
v -0.01165988 0.01840000 0.02293800
v -0.01198729 0.01840000 0.02357689
v -0.01246889 0.01840000 0.02410927
v -0.01307188 0.01840000 0.02449886
v -0.01375515 0.01840000 0.02471911
v -0.01447215 0.01840000 0.02475501
v -0.01517400 0.01840000 0.02460412
v -0.01581289 0.01840000 0.02427671
v -0.01634527 0.01840000 0.02379511
v -0.01673486 0.01840000 0.02319212
v -0.01699101 0.01840000 0.02179185
v -0.01684012 0.01840000 0.02109000
v -0.01402785 0.01840000 0.01927299
v -0.01695511 0.01840000 0.02250885
v -0.01651271 0.01840000 0.02045111
v -0.01603111 0.01840000 0.01991873
v -0.01542812 0.01840000 0.01952914
v -0.01474485 0.01840000 0.01930889
v -0.01246889 0.02125000 0.02410927
v -0.01198729 0.02125000 0.02357689
v -0.01165988 0.02125000 0.02293800
v -0.01150899 0.02125000 0.02223615
v -0.01154489 0.02125000 0.02151915
v -0.01176514 0.02125000 0.02083588
v -0.01215473 0.02125000 0.02023289
v -0.01268711 0.02125000 0.01975129
v -0.01332600 0.02125000 0.01942388
v -0.01402785 0.02125000 0.01927299
v -0.01474485 0.02125000 0.01930889
v -0.01542812 0.02125000 0.01952914
v -0.01603111 0.02125000 0.01991873
v -0.01651271 0.02125000 0.02045111
v -0.01684012 0.02125000 0.02109000
v -0.01699101 0.02125000 0.02179185
v -0.01695511 0.02125000 0.02250885
v -0.01673486 0.02125000 0.02319212
v -0.01634527 0.02125000 0.02379511
v -0.01581289 0.02125000 0.02427671
v -0.01517400 0.02125000 0.02460412
v -0.01447215 0.02125000 0.02475501
v -0.01375515 0.02125000 0.02471911
v -0.01307188 0.02125000 0.02449886
v -0.01256604 0.02140000 0.02399498
v -0.01211071 0.02140000 0.02349164
v -0.01180116 0.02140000 0.02288760
v -0.01165850 0.02140000 0.02222403
v -0.01169244 0.02140000 0.02154614
v -0.01190068 0.02140000 0.02090014
v -0.01226902 0.02140000 0.02033004
v -0.01277236 0.02140000 0.01987471
v -0.01337640 0.02140000 0.01956516
v -0.01403997 0.02140000 0.01942250
v -0.01471786 0.02140000 0.01945644
v -0.01536386 0.02140000 0.01966468
v -0.01593396 0.02140000 0.02003302
v -0.01638929 0.02140000 0.02053636
v -0.01669884 0.02140000 0.02114040
v -0.01684150 0.02140000 0.02180397
v -0.01680756 0.02140000 0.02248186
v -0.01659932 0.02140000 0.02312786
v -0.01623098 0.02140000 0.02369796
v -0.01572764 0.02140000 0.02415329
v -0.01512360 0.02140000 0.02446284
v -0.01446003 0.02140000 0.02460550
v -0.01378214 0.02140000 0.02457156
v -0.01313614 0.02140000 0.02436332
v -0.01207876 0.02139489 0.02351370
v -0.01176459 0.02139489 0.02290065
v -0.01161980 0.02139489 0.02222716
v -0.01165425 0.02139489 0.02153916
v -0.01186560 0.02139489 0.02088351
v -0.01223944 0.02139489 0.02030490
v -0.01275029 0.02139489 0.01984276
v -0.01336335 0.02139489 0.01952859
v -0.01403684 0.02139489 0.01938380
v -0.01472484 0.02139489 0.01941825
v -0.01538049 0.02139489 0.01962960
v -0.01595910 0.02139489 0.02000344
v -0.01642124 0.02139489 0.02051429
v -0.01673541 0.02139489 0.02112735
v -0.01688020 0.02139489 0.02180083
v -0.01684575 0.02139489 0.02248884
v -0.01663440 0.02139489 0.02314449
v -0.01626056 0.02139489 0.02372310
v -0.01574971 0.02139489 0.02418524
v -0.01513665 0.02139489 0.02449941
v -0.01446316 0.02139489 0.02464420
v -0.01377516 0.02139489 0.02460975
v -0.01311951 0.02139489 0.02439840
v -0.01254090 0.02139489 0.02402456
v -0.01204900 0.02137990 0.02353427
v -0.01173052 0.02137990 0.02291280
v -0.01158374 0.02137990 0.02223009
v -0.01161867 0.02137990 0.02153265
v -0.01183291 0.02137990 0.02086801
v -0.01221187 0.02137990 0.02028147
v -0.01272973 0.02137990 0.01981300
v -0.01335120 0.02137990 0.01949452
v -0.01403391 0.02137990 0.01934774
v -0.01473135 0.02137990 0.01938266
v -0.01539599 0.02137990 0.01959691
v -0.01598253 0.02137990 0.01997587
v -0.01645100 0.02137990 0.02049373
v -0.01676948 0.02137990 0.02111520
v -0.01691626 0.02137990 0.02179791
v -0.01688134 0.02137990 0.02249535
v -0.01666709 0.02137990 0.02315999
v -0.01628813 0.02137990 0.02374653
v -0.01577027 0.02137990 0.02421500
v -0.01514880 0.02137990 0.02453348
v -0.01446609 0.02137990 0.02468026
v -0.01376865 0.02137990 0.02464533
v -0.01310401 0.02137990 0.02443109
v -0.01251747 0.02137990 0.02405213
v -0.01202343 0.02135607 0.02355192
v -0.01170126 0.02135607 0.02292324
v -0.01155278 0.02135607 0.02223260
v -0.01158811 0.02135607 0.02152706
v -0.01180484 0.02135607 0.02085470
v -0.01218820 0.02135607 0.02026135
v -0.01271208 0.02135607 0.01978743
v -0.01334076 0.02135607 0.01946526
v -0.01403140 0.02135607 0.01931678
v -0.01473694 0.02135607 0.01935211
v -0.01540930 0.02135607 0.01956884
v -0.01600265 0.02135607 0.01995220
v -0.01647656 0.02135607 0.02047608
v -0.01679874 0.02135607 0.02110476
v -0.01694722 0.02135607 0.02179540
v -0.01691189 0.02135607 0.02250095
v -0.01669516 0.02135607 0.02317330
v -0.01631179 0.02135607 0.02376665
v -0.01578792 0.02135607 0.02424056
v -0.01515924 0.02135607 0.02456274
v -0.01446860 0.02135607 0.02471122
v -0.01376306 0.02135607 0.02467589
v -0.01309070 0.02135607 0.02445916
v -0.01249735 0.02135607 0.02407579
v -0.01200382 0.02132500 0.02356547
v -0.01167881 0.02132500 0.02293125
v -0.01152902 0.02132500 0.02223452
v -0.01156466 0.02132500 0.02152277
v -0.01178330 0.02132500 0.02084449
v -0.01217004 0.02132500 0.02024591
v -0.01269853 0.02132500 0.01976782
v -0.01333275 0.02132500 0.01944281
v -0.01402948 0.02132500 0.01929302
v -0.01474123 0.02132500 0.01932866
v -0.01541951 0.02132500 0.01954730
v -0.01601809 0.02132500 0.01993404
v -0.01649618 0.02132500 0.02046253
v -0.01682119 0.02132500 0.02109675
v -0.01697098 0.02132500 0.02179348
v -0.01693534 0.02132500 0.02250523
v -0.01671670 0.02132500 0.02318351
v -0.01632996 0.02132500 0.02378209
v -0.01580147 0.02132500 0.02426018
v -0.01516725 0.02132500 0.02458519
v -0.01447052 0.02132500 0.02473498
v -0.01375877 0.02132500 0.02469934
v -0.01308049 0.02132500 0.02448070
v -0.01248191 0.02132500 0.02409396
v -0.01199149 0.02128882 0.02357399
v -0.01166469 0.02128882 0.02293628
v -0.01151408 0.02128882 0.02223573
v -0.01154992 0.02128882 0.02152007
v -0.01176976 0.02128882 0.02083807
v -0.01215862 0.02128882 0.02023620
v -0.01269002 0.02128882 0.01975549
v -0.01332771 0.02128882 0.01942869
v -0.01402827 0.02128882 0.01927808
v -0.01474393 0.02128882 0.01931392
v -0.01542593 0.02128882 0.01953376
v -0.01602780 0.02128882 0.01992263
v -0.01650851 0.02128882 0.02045402
v -0.01683531 0.02128882 0.02109171
v -0.01698592 0.02128882 0.02179227
v -0.01695008 0.02128882 0.02250793
v -0.01673024 0.02128882 0.02318993
v -0.01634138 0.02128882 0.02379180
v -0.01580998 0.02128882 0.02427251
v -0.01517229 0.02128882 0.02459931
v -0.01447173 0.02128882 0.02474992
v -0.01375607 0.02128882 0.02471408
v -0.01307407 0.02128882 0.02449424
v -0.01247220 0.02128882 0.02410538
v -0.01451596 0.02140000 0.02056011
v -0.01312388 0.02140000 0.02105672
v -0.01564209 0.02140000 0.02151738
v -0.01285791 0.02140000 0.02251061
v -0.01537612 0.02140000 0.02297128
v -0.01398404 0.02140000 0.02346789
v -0.01299089 0.02010000 0.02178367
v -0.01312388 0.02010000 0.02105672
v -0.01285791 0.02010000 0.02251061
v -0.01342097 0.02010000 0.02298925
v -0.01398404 0.02010000 0.02346789
v -0.01468008 0.02010000 0.02321958
v -0.01537612 0.02010000 0.02297128
v -0.01550911 0.02010000 0.02224433
v -0.01564209 0.02010000 0.02151738
v -0.01507903 0.02010000 0.02103875
v -0.01451596 0.02010000 0.02056011
v -0.01381992 0.02010000 0.02080842
v -0.01545558 0.02010000 0.02158392
v -0.01530319 0.02010000 0.02128655
v -0.01552582 0.02010000 0.02191060
v -0.01370164 0.02010000 0.02317059
v -0.01401967 0.02010000 0.02327311
v -0.01435340 0.02010000 0.02328982
v -0.01497745 0.02010000 0.02306719
v -0.01522525 0.02010000 0.02284303
v -0.01540659 0.02010000 0.02256236
v -0.01479836 0.02010000 0.02085741
v -0.01448033 0.02010000 0.02075489
v -0.01414660 0.02010000 0.02073818
v -0.01352255 0.02010000 0.02096081
v -0.01327475 0.02010000 0.02118498
v -0.01309341 0.02010000 0.02146564
v -0.01297418 0.02010000 0.02211740
v -0.01304442 0.02010000 0.02244408
v -0.01319681 0.02010000 0.02274145
v -0.01425000 0.01936099 0.02201400
vt 4.97418833 -0.03475000
vt 6.54498482 -1.83259571
vt -0.00037490 -0.00131193
vt 3.92699075 -0.03190000
vt 1.04719758 0.52359879
vt 3.92699075 -0.04246950
vt -0.00183848 -0.00183848
vt 1.04719758 -0.03190000
vt 4.71238899 -2.09439516
vt 0.26179940 1.04719758
vt 5.75958633 -0.03190000
vt -0.00238851 -0.00285703
vt 0.78539819 -1.83259571
vt 3.66519141 -0.00000000
vt 3.66519141 -1.83259571
vt 5.49778700 1.04719758
vt -0.00183848 0.00183848
vt 5.49778700 0.00000000
vt 0.52359879 -0.03485000
vt 6.28318548 -0.03190000
vt 3.27249241 -0.00073901
vt 3.66519141 0.78539819
vt 3.66519141 1.57079637
vt 2.35619450 -0.03475000
vt -0.00137500 -0.00513157
vt 4.18879032 0.78539819
vt 0.52359879 0.00000000
vt 1.83259571 0.00000000
vt 4.45058966 0.00000000
vt 6.02138615 -3.14159274
vt 0.52359879 -2.09439516
vt 0.00080000 -0.00413564
vt 3.66519141 -2.35619450
vt -0.00080000 -0.00136436
vt 0.00105612 -0.00060975
vt 4.45058966 -2.35619450
vt 0.26179940 0.52359879
vt 4.18879032 -0.03475000
vt 4.45058966 -0.03485000
vt 1.30899692 -0.03485000
vt 2.61799383 -0.03485000
vt 3.66519141 0.00000000
vt 0.52359879 0.00000000
vt 0.91629785 -0.00073901
vt 0.00000000 -0.00221703
vt 1.83259571 -0.04246950
vt 5.36688757 -0.00073901
vt 2.09439516 0.26179940
vt 4.97418833 -1.57079637
vt 0.78539819 1.30899692
vt 6.28318548 0.26179940
vt 4.45058966 0.00028050
vt 0.00000000 0.00000000
vt 6.54498482 -0.04246950
vt 6.54498482 -2.61799383
vt 1.04719758 -3.14159274
vt 4.71238899 -1.83259571
vt 0.78539819 0.52359879
vt 4.45058966 0.52359879
vt 6.02138615 -1.83259571
vt 1.83259571 -0.00000000
vt 3.66519141 -1.57079637
vt 0.78539819 -1.57079637
vt -0.00251141 0.00067293
vt 2.87979317 0.00000000
vt 0.26179940 -2.87979317
vt -0.00117795 -0.00090387
vt -0.00265630 -0.00346175
vt 6.02138615 -1.57079637
vt 5.23598766 -0.00000000
vt -0.00192000 -0.00110851
vt -0.00147802 -0.00130000
vt 4.71238899 1.57079637
vt 6.54498482 -1.57079637
vt 1.04719758 1.57079637
vt -0.00000000 -0.00295603
vt 6.02138615 0.52359879
vt -0.00017149 -0.00285703
vt -0.00031563 -0.00239745
vt 6.54498482 1.04719758
vt 1.57079637 0.00000000
vt 3.66519141 -0.04246950
vt 0.00000000 1.30899692
vt 5.75958633 -2.87979317
vt 6.02138615 -2.61799383
vt 1.57079637 -0.03190000
vt 0.00130000 0.00225167
vt 0.26179940 0.26179940
vt -0.00004361 -0.00254831
vt 0.00130000 -0.00225167
vt 6.28318548 -0.00000000
vt 6.02138615 -2.35619450
vt 3.66519141 -3.14159274
vt 4.18879032 -3.14159274
vt 1.83259571 0.78539819
vt 2.61799383 1.57079637
vt -0.00041411 -0.00120452
vt 1.57079637 -1.57079637
vt 2.09439516 -2.09439516
vt 2.61799383 -0.00000000
vt 0.00154548 -0.00233589
vt 3.40339208 -0.03475000
vt 5.49778700 0.78539819
vt 1.83259571 -1.83259571
vt 3.92699075 -0.03485000
vt 5.75958633 0.26179940
vt 3.92699075 0.00000000
vt -0.00117795 -0.00153513
vt 0.00071175 -0.00540630
vt 5.75958633 -0.03485000
vt 3.92699075 0.26179940
vt -0.00194454 -0.00469454
vt 1.04719758 0.78539819
vt 0.26179940 -2.61799383
vt 0.00238157 -0.00137500
vt 0.78539819 -0.03190000
vt 3.66519141 -2.61799383
vt 4.18879032 -0.00000000
vt 2.61799383 0.00000000
vt 2.35619450 -2.61799383
vt 1.96349537 -0.00073901
vt 5.49778700 -2.87979317
vt 4.71238899 0.00028050
vt 0.00000000 -0.03485000
vt 5.75958633 0.00000000
vt 0.00117795 -0.00090387
vt -0.00064000 -0.00110851
vt -0.00251141 -0.00067293
vt 3.14159274 0.26179940
vt 1.57079637 -0.03475000
vt 0.78539819 -2.35619450
vt 3.40339208 -1.57079637
vt 1.30899692 -0.03190000
vt 4.71238899 1.04719758
vt 1.30899692 -0.04246950
vt 0.00105612 -0.00182925
vt -0.00041411 -0.00429548
vt 6.28318548 -3.14159274
vt 1.04719758 -0.00000000
vt -0.00218510 -0.00131193
vt 4.71238899 -2.87979317
vt 6.02138615 -2.87979317
vt 4.71238899 -0.03485000
vt 3.92699075 -2.35619450
vt -0.00128000 -0.00093703
vt 0.00000000 1.04719758
vt 3.40339208 1.30899692
vt 4.71238899 -3.14159274
vt 0.00128000 0.00073901
vt 4.05789042 -0.00073901
vt 6.28318548 -0.00000000
vt 5.49778700 -0.04246950
vt 1.83259571 -0.03485000
vt 6.28318548 -2.61799383
vt 6.28318548 -0.04246950
vt 0.52359879 -1.57079637
vt 3.40339208 -2.61799383
vt 2.09439516 -0.00000000
vt -0.00121950 -0.00121950
vt 5.49778700 -0.03485000
vt 3.40339208 -0.00000000
vt -0.00265630 -0.00203825
vt 6.28318548 1.30899692
vt 4.97418833 0.26179940
vt 1.83259571 -3.14159274
vt 3.14159274 -2.87979317
vt 3.92699075 0.52359879
vt 2.87979317 0.00000000
vt 1.04719758 -0.04246950
vt 4.71238899 -0.04246950
vt 5.49778700 -3.14159274
vt 0.00194454 -0.00080546
vt 3.14159274 -0.00000000
vt 0.52359879 1.30899692
vt 0.00137500 -0.00513157
vt -0.00000000 -0.00000000
vt 6.02138615 0.26179940
vt 3.40339208 -2.87979317
vt -0.00130000 -0.00225167
vt 6.28318548 -1.57079637
vt 0.52359879 1.04719758
vt -0.00094871 -0.00345341
vt 0.26179940 -1.83259571
vt -0.00000000 -0.00115000
vt 1.04719758 -0.00000000
vt 1.57079637 -0.03485000
vt 6.02138615 1.30899692
vt 3.66519141 1.30899692
vt 6.54498482 0.00000000
vt 2.09439516 1.04719758
vt 2.87979317 0.00028050
vt 1.04719758 -1.57079637
vt 2.35619450 1.57079637
vt 3.14159274 -2.35619450
vt 1.30899692 0.78539819
vt 0.52359879 -3.14159274
vt 6.02138615 -0.00000000
vt 4.45058966 1.04719758
vt 1.04719758 -2.87979317
vt 2.87979317 1.04719758
vt 2.87979317 -0.00000000
vt -0.00000000 -0.00147802
vt 0.39269909 -0.00073901
vt 0.00183848 0.00183848
vt 1.04719758 1.04719758
vt 0.26179940 0.00000000
vt 0.52359879 0.26179940
vt -0.00086232 -0.00035718
vt 0.78539819 -3.14159274
vt 0.00041411 -0.00120452
vt 1.30899692 1.57079637
vt 2.87979317 1.30899692
vt 5.23598766 -3.14159274
vt 4.45058966 -2.61799383
vt 3.40339208 0.00028050
vt 2.09439516 -0.03475000
vt 3.53429174 -0.00073901
vt 1.83259571 0.52359879
vt 2.61799383 -2.61799383
vt 5.75958633 -0.03475000
vt 6.28318548 0.78539819
vt 6.54498482 0.52359879
vt 1.57079637 -0.00000000
vt 0.00000000 -0.00130000
vt 0.00225167 -0.00130000
vt 4.45058966 0.26179940
vt 4.97418833 0.78539819
vt 5.75958633 0.78539819
vt 0.78539819 -0.04246950
vt 4.71238899 -2.35619450
vt 6.28318548 -0.03475000
vt 3.14159274 -1.57079637
vt 5.23598766 -0.04246950
vt 1.57079637 1.30899692
vt 4.71238899 0.78539819
vt 0.00031563 -0.00004155
vt 0.00194454 -0.00469454
vt 4.18879032 0.00028050
vt 0.00260000 -0.00000000
vt 3.40339208 0.00000000
vt -0.00238851 -0.00157703
vt 3.40339208 1.04719758
vt -0.00000000 -0.00435000
vt 5.49778700 -2.35619450
vt 1.04719758 -0.03475000
vt -0.00238157 -0.00137500
vt 6.54498482 -2.87979317
vt 0.00000000 0.78539819
vt 0.00060975 -0.00016338
vt 5.23598766 -1.57079637
vt 2.09439516 -0.03190000
vt -0.00137500 -0.00036843
vt 1.83259571 -2.09439516
vt 4.18879032 0.00000000
vt 4.71238899 -2.61799383
vt 6.02138615 -0.03485000
vt 4.97418833 1.30899692
vt 0.26179940 0.00000000
vt 1.57079637 0.00000000
vt 1.04719758 -2.61799383
vt 5.75958633 -2.61799383
vt 4.45058966 -2.09439516
vt 5.49778700 0.00028050
vt 0.00031563 -0.00239745
vt 0.52359879 -0.03475000
vt 5.75958633 -0.00000000
vt 2.61799383 -0.03475000
vt 3.66519141 -0.03190000
vt 4.97418833 -2.61799383
vt 6.02138615 1.04719758
vt 0.26179940 -0.03475000
vt 4.18879032 0.00000000
vt 1.30899692 -3.14159274
vt 0.52359879 0.78539819
vt 6.54498482 0.26179940
vt 0.00000000 1.57079637
vt 6.54498482 -0.00000000
vt 5.23598766 -2.35619450
vt 3.92699075 -1.83259571
vt 4.97418833 -0.04246950
vt 0.78539819 0.78539819
vt 0.78539819 1.57079637
vt 5.75958633 -0.04246950
vt -0.00161129 -0.00345341
vt -0.00128000 -0.00369504
vt 0.00067293 0.00251141
vt 3.79609108 -0.00073901
vt 5.23598766 0.78539819
vt 5.23598766 1.57079637
vt 2.35619450 -3.14159274
vt 6.54498482 1.30899692
vt 0.00060975 -0.00227562
vt 1.30899692 1.04719758
vt 0.26179940 0.00028050
vt 1.30899692 -2.61799383
vt 1.57079637 0.00028050
vt 1.83259571 1.30899692
vt 0.52359879 0.00028050
vt -0.00094871 -0.00098064
vt 2.87979317 0.26179940
vt 0.00000000 0.00028050
vt 4.97418833 -3.14159274
vt 5.75958633 -3.14159274
vt 5.23598766 -0.03190000
vt 4.97418833 -1.83259571
vt 3.14159274 -0.03485000
vt 0.26179940 -0.03485000
vt 1.57079637 -2.87979317
vt 2.35619450 -0.04246950
vt -0.00000000 -0.00121950
vt 3.14159274 -1.83259571
vt 4.97418833 -0.03485000
vt -0.00067293 -0.00251141
vt -0.00154548 -0.00316411
vt 2.61799383 1.04719758
vt 6.28318548 1.04719758
vt 0.00000000 0.26179940
vt 6.28318548 0.00000000
vt 2.87979317 -2.35619450
vt 1.30899692 -1.57079637
vt 6.02138615 -2.09439516
vt 3.40339208 -0.03190000
vt 6.02138615 -0.03475000
vt 0.00160000 -0.00275000
vt 1.43989658 -0.00073901
vt 2.09439516 -1.57079637
vt 1.83259571 1.57079637
vt 3.66519141 0.26179940
vt 1.30899692 0.52359879
vt 4.97418833 0.00028050
vt 2.87979317 -2.61799383
vt 3.14159274 0.00000000
vt 2.87979317 -2.87979317
vt 3.14159274 1.57079637
vt 0.00086232 -0.00208182
vt 3.40339208 0.78539819
vt 2.35619450 -1.57079637
vt 4.18879032 -2.09439516
vt 0.52359879 -0.04246950
vt 6.28318548 0.00028050
vt 1.83259571 0.00000000
vt 1.04719758 -0.03485000
vt -0.00113137 -0.00161863
vt 1.04719758 1.30899692
vt -0.00060975 -0.00016338
vt 5.49778700 0.52359879
vt 1.17809725 -0.00073901
vt 2.74889350 -0.00073901
vt -0.00218510 -0.00312212
vt 6.28318548 1.57079637
vt 1.30899692 -2.35619450
vt 2.87979317 -1.57079637
vt 1.57079637 -2.61799383
vt 6.02138615 0.00000000
vt 3.66519141 -2.87979317
vt 0.00138564 -0.00355000
vt 4.71238899 0.00000000
vt 4.71238899 0.52359879
vt 0.00000000 0.00260000
vt -0.00128000 0.00073901
vt 4.97418833 1.57079637
vt 3.92699075 -2.09439516
vt 4.45058966 -1.83259571
vt -0.00225167 -0.00130000
vt 2.35619450 -2.35619450
vt 2.87979317 -0.03485000
vt -0.00130000 0.00225167
vt 3.66519141 -2.09439516
vt 2.09439516 -0.03485000
vt 4.18879032 -2.61799383
vt -0.00138564 -0.00355000
vt 3.66519141 -0.03475000
vt 4.45058966 -0.03190000
vt 1.57079637 -2.35619450
vt 2.35619450 0.78539819
vt 2.09439516 -2.87979317
vt 0.00000000 0.52359879
vt 4.97418833 -2.35619450
vt 2.61799383 -0.03190000
vt -0.00192000 -0.00332554
vt 6.28318548 -2.87979317
vt 0.78539819 0.00000000
vt 4.18879032 0.26179940
vt -0.00031563 -0.00004155
vt -0.00086232 -0.00208182
vt 0.52359879 -1.83259571
vt 4.71238899 -0.00000000
vt 5.23598766 1.30899692
vt 1.30899692 0.00000000
vt 1.30899692 -2.09439516
vt 3.66519141 -0.03485000
vt -0.00251639 -0.00254831
vt 3.92699075 0.00028050
vt 1.57079637 0.52359879
vt 1.57079637 1.57079637
vt 4.18879032 -1.83259571
vt 2.61799383 1.30899692
vt 3.40339208 -0.04246950
vt 0.26179940 1.57079637
vt 0.00071175 -0.00009370
vt 5.49778700 -2.61799383
vt 5.75958633 0.00028050
vt -0.00147802 0.00000000
vt 4.84328890 -0.00073901
vt 2.35619450 0.00000000
vt 0.78539819 0.00028050
vt 2.48709416 -0.00073901
vt 5.49778700 -0.00000000
vt 2.61799383 0.26179940
vt -0.00113137 -0.00388137
vt 4.18879032 -2.87979317
vt 5.89048624 -0.00073901
vt 0.00265630 -0.00203825
vt 3.66519141 1.04719758
vt 0.00086232 -0.00035718
vt 3.40339208 -3.14159274
vt 5.23598766 0.52359879
vt 3.92699075 0.00000000
vt 2.87979317 0.52359879
vt 1.04719758 -2.09439516
vt 6.15228558 -0.00073901
vt 4.45058966 -1.57079637
vt -0.00260000 0.00000000
vt 0.00117795 -0.00153513
vt 4.97418833 -0.03190000
vt 1.83259571 1.04719758
vt 0.00275000 -0.00275000
vt 4.97418833 -2.09439516
vt 5.10508823 -0.00073901
vt 6.02138615 0.00028050
vt 2.61799383 -2.87979317
vt -0.00256000 -0.00295603
vt 2.87979317 -1.83259571
vt 4.18879032 -1.57079637
vt 1.83259571 -1.57079637
vt 3.40339208 0.00000000
vt 1.57079637 -3.14159274
vt 0.00128000 -0.00073901
vt 0.00251141 -0.00067293
vt 3.14159274 -2.09439516
vt 1.30899692 0.00000000
vt -0.00017149 -0.00157703
vt -0.00071175 -0.00009370
vt 2.35619450 -1.83259571
vt 2.09439516 1.57079637
vt 3.14159274 0.52359879
vt 4.45058966 -3.14159274
vt 5.23598766 -2.61799383
vt 4.45058966 -0.00000000
vt -0.00154548 -0.00233589
vt -0.00073901 0.00000000
vt 2.35619450 1.04719758
vt 6.02138615 0.00000000
vt 2.35619450 0.00000000
vt 5.49778700 0.26179940
vt -0.00000000 -0.00243900
vt 2.09439516 0.52359879
vt 1.83259571 -2.35619450
vt 1.30899692 -1.83259571
vt -0.00000000 0.00147802
vt 4.97418833 0.52359879
vt 5.75958633 0.52359879
vt 6.54498482 -0.03475000
vt 0.52359879 -2.61799383
vt 3.01069307 -0.00073901
vt 1.30899692 0.00028050
vt 1.04719758 -2.35619450
vt 2.09439516 0.00028050
vt 0.00154548 -0.00316411
vt 0.52359879 -0.00000000
vt 0.78539819 0.26179940
vt 3.40339208 -2.35619450
vt 2.87979317 -0.03190000
vt 0.26179940 -0.00000000
vt -0.00128000 -0.00349702
vt 4.71238899 0.26179940
vt 3.14159274 1.04719758
vt -0.00080000 -0.00413564
vt 1.83259571 -2.87979317
vt 0.78539819 0.00000000
vt -0.00071175 -0.00540630
vt 2.35619450 0.00028050
vt -0.00067293 0.00251141
vt 3.14159274 0.00000000
vt 4.45058966 0.00000000
vt 0.00121950 -0.00121950
vt 2.87979317 1.57079637
vt 6.02138615 1.57079637
vt 0.26179940 1.30899692
vt 0.00238157 -0.00412500
vt 2.35619450 -0.00000000
vt 5.49778700 0.00000000
vt 2.35619450 0.52359879
vt 3.14159274 -3.14159274
vt 2.09439516 0.00000000
vt 0.52359879 -2.35619450
vt -0.00000000 0.00000000
vt 2.61799383 -2.35619450
vt 1.83259571 -0.03190000
vt 4.71238899 -1.57079637
vt 0.00138564 -0.00195000
vt 4.18879032 0.52359879
vt 0.78539819 -2.87979317
vt -0.00000000 -0.00147802
vt 2.09439516 -1.83259571
vt 3.92699075 -2.87979317
vt 0.78539819 -0.03485000
vt 1.70169604 -0.00073901
vt 0.00067293 -0.00251141
vt 1.83259571 0.26179940
vt 4.97418833 -0.00000000
vt 1.57079637 0.78539819
vt 3.40339208 0.26179940
vt 0.52359879 0.52359879
vt 5.62868690 -0.00073901
vt 6.28318548 -2.09439516
vt 0.00183848 -0.00183848
vt 0.78539819 -0.03475000
vt 2.61799383 0.52359879
vt -0.00004361 -0.00188574
vt -0.00238157 -0.00412500
vt 4.45058966 -0.03475000
vt 2.09439516 -2.61799383
vt 4.18879032 -0.03485000
vt 5.75958633 1.57079637
vt 4.18879032 -2.35619450
vt 2.61799383 -1.57079637
vt -0.00225167 0.00130000
vt 4.45058966 0.78539819
vt 3.92699075 1.57079637
vt 4.71238899 -0.03190000
vt 2.87979317 0.78539819
vt 3.40339208 -2.09439516
vt 0.00041411 -0.00429548
vt 3.14159274 -2.61799383
vt 2.61799383 -1.83259571
vt -0.00000000 -0.00000000
vt 5.75958633 0.00000000
vt 0.65449846 -0.00073901
vt 4.58148909 -0.00073901
vt 3.92699075 -1.57079637
vt 4.97418833 0.00000000
vt -0.00128000 -0.00073901
vt 5.49778700 -0.03190000
vt 2.35619450 -2.09439516
vt 0.26179940 -3.14159274
vt 5.75958633 1.04719758
vt 3.92699075 1.30899692
vt 4.97418833 -2.87979317
vt 1.57079637 -2.09439516
vt 0.26179940 -2.09439516
vt 3.92699075 -2.61799383
vt 2.61799383 -3.14159274
vt 3.92699075 1.04719758
vt 3.92699075 -0.00000000
vt 0.26179940 -0.04246950
vt -0.00000000 -0.00550000
vt 3.14159274 0.78539819
vt 0.78539819 -0.00000000
vt 5.23598766 -1.83259571
vt 0.78539819 -2.61799383
vt 1.57079637 -0.04246950
vt 0.00000000 -0.03190000
vt 3.40339208 0.52359879
vt 1.30899692 -0.03475000
vt 6.28318548 -2.35619450
vt 5.75958633 -1.83259571
vt 5.23598766 -0.00000000
vt -0.00037490 -0.00312212
vt 1.04719758 -1.83259571
vt 3.92699075 -3.14159274
vt 2.09439516 0.78539819
vt 5.49778700 -2.09439516
vt 4.97418833 0.00000000
vt 2.35619450 -2.87979317
vt 3.14159274 0.00028050
vt 2.35619450 -0.03485000
vt 2.61799383 0.00028050
vt 0.26179940 -1.57079637
vt -0.00000000 -0.00260000
vt 5.49778700 -0.03475000
vt 4.45058966 -0.04246950
vt 2.09439516 -2.35619450
vt 1.04719758 0.26179940
vt 2.87979317 -0.04246950
vt 4.71238899 0.00000000
vt 6.28318548 -1.83259571
vt 1.04719758 0.00000000
vt 5.75958633 -2.35619450
vt 1.83259571 0.00028050
vt -0.00194454 -0.00080546
vt -0.00105612 -0.00182925
vt 1.30899692 -2.87979317
vt 0.52359879 -2.87979317
vt 1.57079637 1.04719758
vt 0.00113137 -0.00161863
vt 4.71238899 -0.03475000
vt 3.14159274 1.30899692
vt 6.02138615 -0.04246950
vt 0.00265630 -0.00346175
vt -0.00256000 -0.00221703
vt 2.87979317 -3.14159274
vt -0.00160000 -0.00275000
vt 2.35619450 0.26179940
vt 3.66519141 0.52359879
vt 4.45058966 -2.87979317
vt 0.26179940 -2.35619450
vt 0.13089970 -0.00073901
vt 4.97418833 1.04719758
vt 5.23598766 1.04719758
vt 1.04719758 0.00028050
vt 0.52359879 -0.03190000
vt 6.28318548 -0.03485000
vt 0.52359879 1.57079637
vt 0.26179940 0.78539819
vt 6.54498482 -3.14159274
vt 3.14159274 -0.04246950
vt -0.00064000 -0.00332554
vt 1.30899692 0.26179940
vt 5.23598766 0.00028050
vt -0.00256000 -0.00147802
vt 4.71238899 1.30899692
vt 5.49778700 -1.83259571
vt 5.49778700 -1.57079637
vt 4.18879032 -0.03190000
vt 0.78539819 -2.09439516
vt 5.75958633 -2.09439516
vt 2.61799383 0.78539819
vt 6.54498482 -2.09439516
vt 4.45058966 1.57079637
vt 5.23598766 -0.03485000
vt 2.09439516 -0.04246950
vt 4.45058966 1.30899692
vt 5.49778700 1.30899692
vt 0.00080000 -0.00136436
vt 3.66519141 0.00000000
vt -0.00060975 -0.00227562
vt 3.92699075 -0.03475000
vt 1.83259571 -2.61799383
vt 4.18879032 1.04719758
vt 6.02138615 -0.03190000
vt 5.49778700 1.57079637
vt 1.30899692 -0.00000000
vt 5.23598766 0.00000000
vt 3.40339208 -0.03485000
vt 3.92699075 0.78539819
vt 4.18879032 1.30899692
vt 2.87979317 -2.09439516
vt 2.09439516 -3.14159274
vt 2.87979317 -0.03475000
vt 0.00225167 0.00130000
vt 5.23598766 -0.03475000
vt 1.30899692 1.30899692
vt -0.00275000 -0.00275000
vt 5.23598766 -2.09439516
vt -0.00138564 -0.00195000
vt 6.02138615 0.78539819
vt 0.00137500 -0.00036843
vt 2.61799383 0.00000000
vt 3.66519141 0.00028050
vt 0.00113137 -0.00388137
vt -0.00251639 -0.00188574
vt 2.35619450 1.30899692
vt 0.78539819 1.04719758
vt 5.23598766 -2.87979317
vt 1.57079637 -1.83259571
vt -0.00105612 -0.00060975
vt 3.40339208 -1.83259571
vt -0.00161129 -0.00098064
vt 0.00251141 0.00067293
vt 4.18879032 1.57079637
vt 4.18879032 -0.04246950
vt 5.75958633 -1.57079637
vt 4.31968975 -0.00073901
vt 2.09439516 0.00000000
vt 3.14159274 -0.03190000
vt 0.26179940 -0.03190000
vt 1.83259571 -0.03475000
vt 2.22529483 -0.00073901
vt 2.09439516 1.30899692
vt 6.54498482 -2.35619450
vt 1.57079637 0.26179940
vt 3.14159274 -0.03475000
vt 2.61799383 -0.04246950
vt 2.35619450 -0.03190000
vt 5.75958633 1.30899692
vt 6.28318548 0.52359879
vt 3.40339208 1.57079637
vt 2.61799383 -2.09439516
vt 6.54498482 0.78539819
vt 5.23598766 0.26179940
usemtl Nobel
f 446/1 445/2 444/3
f 419/4 445/2 446/5
f 446/6 416/7 442/8
f 443/9 416/7 446/10
f 444/3 443/9 446/11
f 446/12 440/13 427/14
f 441/15 440/13 446/16
f 442/8 441/15 446/17
f 446/18 438/19 437/20
f 439/21 438/19 446/22
f 427/14 439/21 446/23
f 446/24 429/25 428/26
f 425/27 429/25 446/28
f 437/20 425/27 446/29
f 446/30 423/31 436/32
f 430/33 423/31 446/34
f 428/26 430/33 446/35
f 446/36 434/37 421/38
f 435/39 434/37 446/40
f 436/32 435/39 446/41
f 446/42 432/43 431/44
f 433/45 432/43 446/46
f 421/38 433/45 446/47
f 431/44 419/48 446/49
f 266/50 290/51 267/52
f 290/51 291/53 267/52
f 267/52 291/53 268/54
f 291/53 292/55 268/54
f 268/54 292/55 269/56
f 292/55 293/57 269/56
f 269/56 293/57 270/58
f 293/57 294/59 270/58
f 270/58 294/59 271/60
f 294/59 295/61 271/60
f 271/60 295/61 272/62
f 295/61 296/63 272/62
f 272/62 296/63 273/64
f 296/63 297/65 273/64
f 273/64 297/65 274/66
f 297/65 298/67 274/66
f 274/66 298/67 275/68
f 298/67 299/69 275/68
f 275/68 299/69 276/70
f 299/69 300/71 276/70
f 276/70 300/71 277/72
f 300/71 301/73 277/72
f 277/72 301/73 278/74
f 301/73 302/75 278/74
f 278/74 302/75 279/76
f 302/75 303/77 279/76
f 279/76 303/77 280/78
f 303/77 304/79 280/78
f 280/78 304/79 281/80
f 304/79 305/81 281/80
f 281/80 305/81 282/82
f 305/81 306/83 282/82
f 282/82 306/83 283/84
f 306/83 307/85 283/84
f 283/84 307/85 284/86
f 307/85 308/87 284/86
f 284/86 308/87 285/88
f 308/87 309/89 285/88
f 285/88 309/89 286/90
f 309/89 310/91 286/90
f 286/90 310/91 287/92
f 310/91 311/93 287/92
f 287/92 311/93 288/94
f 311/93 312/95 288/94
f 288/94 312/95 289/96
f 312/95 313/97 289/96
f 289/96 313/97 266/98
f 313/97 290/99 266/98
f 313/100 314/101 290/51
f 314/101 315/102 290/51
f 290/51 315/102 291/53
f 315/102 316/103 291/53
f 291/53 316/103 292/55
f 316/103 317/104 292/55
f 292/55 317/104 293/57
f 317/104 318/105 293/57
f 293/57 318/105 294/59
f 318/105 319/106 294/59
f 294/59 319/106 295/61
f 319/106 320/107 295/61
f 295/61 320/107 296/63
f 320/107 321/108 296/63
f 296/63 321/108 297/65
f 321/108 322/109 297/65
f 297/65 322/109 298/67
f 322/109 323/110 298/67
f 298/67 323/110 299/69
f 323/110 324/111 299/69
f 299/69 324/111 300/71
f 324/111 325/112 300/71
f 300/71 325/112 301/73
f 325/112 326/113 301/73
f 301/73 326/113 302/75
f 326/113 327/114 302/75
f 302/75 327/114 303/77
f 327/114 328/115 303/77
f 303/77 328/115 304/79
f 328/115 329/116 304/79
f 304/79 329/116 305/81
f 329/116 330/117 305/81
f 305/81 330/117 306/83
f 330/117 331/118 306/83
f 306/83 331/118 307/85
f 331/118 332/119 307/85
f 307/85 332/119 308/87
f 332/119 333/120 308/87
f 308/87 333/120 309/89
f 333/120 334/121 309/89
f 309/89 334/121 310/91
f 334/121 335/122 310/91
f 310/91 335/122 311/93
f 335/122 336/123 311/93
f 311/93 336/123 312/95
f 336/123 337/124 312/95
f 312/95 337/124 313/97
f 337/124 314/125 313/97
f 337/126 338/127 314/101
f 338/127 339/128 314/101
f 314/101 339/128 315/102
f 339/128 340/129 315/102
f 315/102 340/129 316/103
f 340/129 341/130 316/103
f 316/103 341/130 317/104
f 341/130 342/131 317/104
f 317/104 342/131 318/105
f 342/131 343/132 318/105
f 318/105 343/132 319/106
f 343/132 344/133 319/106
f 319/106 344/133 320/107
f 344/133 345/134 320/107
f 320/107 345/134 321/108
f 345/134 346/135 321/108
f 321/108 346/135 322/109
f 346/135 347/136 322/109
f 322/109 347/136 323/110
f 347/136 348/137 323/110
f 323/110 348/137 324/111
f 348/137 349/138 324/111
f 324/111 349/138 325/112
f 349/138 350/139 325/112
f 325/112 350/139 326/113
f 350/139 351/140 326/113
f 326/113 351/140 327/114
f 351/140 352/141 327/114
f 327/114 352/141 328/115
f 352/141 353/142 328/115
f 328/115 353/142 329/116
f 353/142 354/143 329/116
f 329/116 354/143 330/117
f 354/143 355/144 330/117
f 330/117 355/144 331/118
f 355/144 356/145 331/118
f 331/118 356/145 332/119
f 356/145 357/146 332/119
f 332/119 357/146 333/120
f 357/146 358/147 333/120
f 333/120 358/147 334/121
f 358/147 359/148 334/121
f 334/121 359/148 335/122
f 359/148 360/149 335/122
f 335/122 360/149 336/123
f 360/149 361/150 336/123
f 336/123 361/150 337/124
f 361/150 338/151 337/124
f 361/152 362/153 338/127
f 362/153 363/154 338/127
f 338/127 363/154 339/128
f 363/154 364/155 339/128
f 339/128 364/155 340/129
f 364/155 365/156 340/129
f 340/129 365/156 341/130
f 365/156 366/157 341/130
f 341/130 366/157 342/131
f 366/157 367/158 342/131
f 342/131 367/158 343/132
f 367/158 368/159 343/132
f 343/132 368/159 344/133
f 368/159 369/160 344/133
f 344/133 369/160 345/134
f 369/160 370/161 345/134
f 345/134 370/161 346/135
f 370/161 371/162 346/135
f 346/135 371/162 347/136
f 371/162 372/163 347/136
f 347/136 372/163 348/137
f 372/163 373/164 348/137
f 348/137 373/164 349/138
f 373/164 374/165 349/138
f 349/138 374/165 350/139
f 374/165 375/166 350/139
f 350/139 375/166 351/140
f 375/166 376/167 351/140
f 351/140 376/167 352/141
f 376/167 377/168 352/141
f 352/141 377/168 353/142
f 377/168 378/169 353/142
f 353/142 378/169 354/143
f 378/169 379/170 354/143
f 354/143 379/170 355/144
f 379/170 380/171 355/144
f 355/144 380/171 356/145
f 380/171 381/172 356/145
f 356/145 381/172 357/146
f 381/172 382/173 357/146
f 357/146 382/173 358/147
f 382/173 383/174 358/147
f 358/147 383/174 359/148
f 383/174 384/175 359/148
f 359/148 384/175 360/149
f 384/175 385/176 360/149
f 360/149 385/176 361/150
f 385/176 362/177 361/150
f 385/178 386/179 362/153
f 386/179 387/180 362/153
f 362/153 387/180 363/154
f 387/180 388/181 363/154
f 363/154 388/181 364/155
f 388/181 389/182 364/155
f 364/155 389/182 365/156
f 389/182 390/183 365/156
f 365/156 390/183 366/157
f 390/183 391/184 366/157
f 366/157 391/184 367/158
f 391/184 392/185 367/158
f 367/158 392/185 368/159
f 392/185 393/186 368/159
f 368/159 393/186 369/160
f 393/186 394/187 369/160
f 369/160 394/187 370/161
f 394/187 395/188 370/161
f 370/161 395/188 371/162
f 395/188 396/189 371/162
f 371/162 396/189 372/163
f 396/189 397/190 372/163
f 372/163 397/190 373/164
f 397/190 398/191 373/164
f 373/164 398/191 374/165
f 398/191 399/192 374/165
f 374/165 399/192 375/166
f 399/192 400/193 375/166
f 375/166 400/193 376/167
f 400/193 401/194 376/167
f 376/167 401/194 377/168
f 401/194 402/195 377/168
f 377/168 402/195 378/169
f 402/195 403/196 378/169
f 378/169 403/196 379/170
f 403/196 404/197 379/170
f 379/170 404/197 380/171
f 404/197 405/198 380/171
f 380/171 405/198 381/172
f 405/198 406/199 381/172
f 381/172 406/199 382/173
f 406/199 407/200 382/173
f 382/173 407/200 383/174
f 407/200 408/201 383/174
f 383/174 408/201 384/175
f 408/201 409/202 384/175
f 384/175 409/202 385/176
f 409/202 386/203 385/176
f 409/204 243/205 386/179
f 243/205 244/206 386/179
f 386/179 244/206 387/180
f 244/206 245/207 387/180
f 387/180 245/207 388/181
f 245/207 246/208 388/181
f 388/181 246/208 389/182
f 246/208 247/209 389/182
f 389/182 247/209 390/183
f 247/209 248/210 390/183
f 390/183 248/210 391/184
f 248/210 249/211 391/184
f 391/184 249/211 392/185
f 249/211 250/212 392/185
f 392/185 250/212 393/186
f 250/212 251/213 393/186
f 393/186 251/213 394/187
f 251/213 252/214 394/187
f 394/187 252/214 395/188
f 252/214 253/215 395/188
f 395/188 253/215 396/189
f 253/215 254/216 396/189
f 396/189 254/216 397/190
f 254/216 255/217 397/190
f 397/190 255/217 398/191
f 255/217 256/218 398/191
f 398/191 256/218 399/192
f 256/218 257/219 399/192
f 399/192 257/219 400/193
f 257/219 258/220 400/193
f 400/193 258/220 401/194
f 258/220 259/221 401/194
f 401/194 259/221 402/195
f 259/221 260/222 402/195
f 402/195 260/222 403/196
f 260/222 261/223 403/196
f 403/196 261/223 404/197
f 261/223 262/224 404/197
f 404/197 262/224 405/198
f 262/224 263/225 405/198
f 405/198 263/225 406/199
f 263/225 264/226 406/199
f 406/199 264/226 407/200
f 264/226 265/227 407/200
f 407/200 265/227 408/201
f 265/227 242/228 408/201
f 408/201 242/228 409/202
f 242/228 243/229 409/202
f 61/230 98/231 60/232
f 98/231 99/233 60/232
f 60/232 99/233 59/234
f 99/233 100/235 59/234
f 59/234 100/235 58/236
f 100/235 101/237 58/236
f 58/236 101/237 57/238
f 101/237 102/239 57/238
f 57/238 102/239 56/240
f 102/239 103/241 56/240
f 56/240 103/241 55/242
f 103/241 104/243 55/242
f 55/242 104/243 54/244
f 104/243 105/245 54/244
f 54/244 105/245 53/246
f 105/245 106/247 53/246
f 53/246 106/247 52/248
f 106/247 107/249 52/248
f 52/248 107/249 51/250
f 107/249 108/251 51/250
f 51/250 108/251 50/252
f 108/251 109/253 50/252
f 50/252 109/253 73/254
f 109/253 110/255 73/254
f 73/254 110/255 72/256
f 110/255 111/257 72/256
f 72/256 111/257 71/258
f 111/257 112/259 71/258
f 71/258 112/259 70/260
f 112/259 113/261 70/260
f 70/260 113/261 69/262
f 113/261 114/263 69/262
f 69/262 114/263 68/264
f 114/263 115/265 68/264
f 68/264 115/265 67/266
f 115/265 116/267 67/266
f 67/266 116/267 66/268
f 116/267 117/269 66/268
f 66/268 117/269 65/270
f 117/269 118/271 65/270
f 65/270 118/271 64/272
f 118/271 119/273 64/272
f 64/272 119/273 63/274
f 119/273 120/275 63/274
f 63/274 120/275 62/276
f 120/275 121/277 62/276
f 62/276 121/277 61/278
f 121/277 98/279 61/278
f 98/231 122/280 99/233
f 122/280 123/281 99/233
f 99/233 123/281 100/235
f 123/281 124/282 100/235
f 100/235 124/282 101/237
f 124/282 125/283 101/237
f 101/237 125/283 102/239
f 125/283 126/284 102/239
f 102/239 126/284 103/241
f 126/284 127/285 103/241
f 103/241 127/285 104/243
f 127/285 128/286 104/243
f 104/243 128/286 105/245
f 128/286 129/287 105/245
f 105/245 129/287 106/247
f 129/287 130/288 106/247
f 106/247 130/288 107/249
f 130/288 131/289 107/249
f 107/249 131/289 108/251
f 131/289 132/290 108/251
f 108/251 132/290 109/253
f 132/290 133/291 109/253
f 109/253 133/291 110/255
f 133/291 134/292 110/255
f 110/255 134/292 111/257
f 134/292 135/293 111/257
f 111/257 135/293 112/259
f 135/293 136/294 112/259
f 112/259 136/294 113/261
f 136/294 137/295 113/261
f 113/261 137/295 114/263
f 137/295 138/296 114/263
f 114/263 138/296 115/265
f 138/296 139/297 115/265
f 115/265 139/297 116/267
f 139/297 140/298 116/267
f 116/267 140/298 117/269
f 140/298 141/299 117/269
f 117/269 141/299 118/271
f 141/299 142/300 118/271
f 118/271 142/300 119/273
f 142/300 143/301 119/273
f 119/273 143/301 120/275
f 143/301 144/302 120/275
f 120/275 144/302 121/277
f 144/302 145/303 121/277
f 121/277 145/303 98/279
f 145/303 122/304 98/279
f 122/280 146/305 123/281
f 146/305 147/306 123/281
f 123/281 147/306 124/282
f 147/306 148/307 124/282
f 124/282 148/307 125/283
f 148/307 149/308 125/283
f 125/283 149/308 126/284
f 149/308 150/309 126/284
f 126/284 150/309 127/285
f 150/309 151/310 127/285
f 127/285 151/310 128/286
f 151/310 152/311 128/286
f 128/286 152/311 129/287
f 152/311 153/312 129/287
f 129/287 153/312 130/288
f 153/312 154/313 130/288
f 130/288 154/313 131/289
f 154/313 155/314 131/289
f 131/289 155/314 132/290
f 155/314 156/315 132/290
f 132/290 156/315 133/291
f 156/315 157/316 133/291
f 133/291 157/316 134/292
f 157/316 158/317 134/292
f 134/292 158/317 135/293
f 158/317 159/318 135/293
f 135/293 159/318 136/294
f 159/318 160/319 136/294
f 136/294 160/319 137/295
f 160/319 161/320 137/295
f 137/295 161/320 138/296
f 161/320 162/321 138/296
f 138/296 162/321 139/297
f 162/321 163/322 139/297
f 139/297 163/322 140/298
f 163/322 164/323 140/298
f 140/298 164/323 141/299
f 164/323 165/324 141/299
f 141/299 165/324 142/300
f 165/324 166/325 142/300
f 142/300 166/325 143/301
f 166/325 167/326 143/301
f 143/301 167/326 144/302
f 167/326 168/327 144/302
f 144/302 168/327 145/303
f 168/327 169/328 145/303
f 145/303 169/328 122/304
f 169/328 146/329 122/304
f 146/305 170/330 147/306
f 170/330 171/331 147/306
f 147/306 171/331 148/307
f 171/331 172/332 148/307
f 148/307 172/332 149/308
f 172/332 173/333 149/308
f 149/308 173/333 150/309
f 173/333 174/334 150/309
f 150/309 174/334 151/310
f 174/334 175/335 151/310
f 151/310 175/335 152/311
f 175/335 176/336 152/311
f 152/311 176/336 153/312
f 176/336 177/337 153/312
f 153/312 177/337 154/313
f 177/337 178/338 154/313
f 154/313 178/338 155/314
f 178/338 179/339 155/314
f 155/314 179/339 156/315
f 179/339 180/340 156/315
f 156/315 180/340 157/316
f 180/340 181/341 157/316
f 157/316 181/341 158/317
f 181/341 182/342 158/317
f 158/317 182/342 159/318
f 182/342 183/343 159/318
f 159/318 183/343 160/319
f 183/343 184/344 160/319
f 160/319 184/344 161/320
f 184/344 185/345 161/320
f 161/320 185/345 162/321
f 185/345 186/346 162/321
f 162/321 186/346 163/322
f 186/346 187/347 163/322
f 163/322 187/347 164/323
f 187/347 188/348 164/323
f 164/323 188/348 165/324
f 188/348 189/349 165/324
f 165/324 189/349 166/325
f 189/349 190/350 166/325
f 166/325 190/350 167/326
f 190/350 191/351 167/326
f 167/326 191/351 168/327
f 191/351 192/352 168/327
f 168/327 192/352 169/328
f 192/352 193/353 169/328
f 169/328 193/353 146/329
f 193/353 170/354 146/329
f 170/330 194/355 171/331
f 194/355 195/356 171/331
f 171/331 195/356 172/332
f 195/356 196/357 172/332
f 172/332 196/357 173/333
f 196/357 197/358 173/333
f 173/333 197/358 174/334
f 197/358 198/359 174/334
f 174/334 198/359 175/335
f 198/359 199/360 175/335
f 175/335 199/360 176/336
f 199/360 200/361 176/336
f 176/336 200/361 177/337
f 200/361 201/362 177/337
f 177/337 201/362 178/338
f 201/362 202/363 178/338
f 178/338 202/363 179/339
f 202/363 203/364 179/339
f 179/339 203/364 180/340
f 203/364 204/365 180/340
f 180/340 204/365 181/341
f 204/365 205/366 181/341
f 181/341 205/366 182/342
f 205/366 206/367 182/342
f 182/342 206/367 183/343
f 206/367 207/368 183/343
f 183/343 207/368 184/344
f 207/368 208/369 184/344
f 184/344 208/369 185/345
f 208/369 209/370 185/345
f 185/345 209/370 186/346
f 209/370 210/371 186/346
f 186/346 210/371 187/347
f 210/371 211/372 187/347
f 187/347 211/372 188/348
f 211/372 212/373 188/348
f 188/348 212/373 189/349
f 212/373 213/374 189/349
f 189/349 213/374 190/350
f 213/374 214/375 190/350
f 190/350 214/375 191/351
f 214/375 215/376 191/351
f 191/351 215/376 192/352
f 215/376 216/377 192/352
f 192/352 216/377 193/353
f 216/377 217/378 193/353
f 193/353 217/378 170/354
f 217/378 194/379 170/354
f 194/355 75/380 195/356
f 75/380 76/381 195/356
f 195/356 76/381 196/357
f 76/381 77/382 196/357
f 196/357 77/382 197/358
f 77/382 78/383 197/358
f 197/358 78/383 198/359
f 78/383 79/384 198/359
f 198/359 79/384 199/360
f 79/384 80/385 199/360
f 199/360 80/385 200/361
f 80/385 81/386 200/361
f 200/361 81/386 201/362
f 81/386 82/387 201/362
f 201/362 82/387 202/363
f 82/387 83/388 202/363
f 202/363 83/388 203/364
f 83/388 84/389 203/364
f 203/364 84/389 204/365
f 84/389 85/390 204/365
f 204/365 85/390 205/366
f 85/390 86/391 205/366
f 205/366 86/391 206/367
f 86/391 87/392 206/367
f 206/367 87/392 207/368
f 87/392 88/393 207/368
f 207/368 88/393 208/369
f 88/393 89/394 208/369
f 208/369 89/394 209/370
f 89/394 90/395 209/370
f 209/370 90/395 210/371
f 90/395 91/396 210/371
f 210/371 91/396 211/372
f 91/396 92/397 211/372
f 211/372 92/397 212/373
f 92/397 93/398 212/373
f 212/373 93/398 213/374
f 93/398 94/399 213/374
f 213/374 94/399 214/375
f 94/399 95/400 214/375
f 214/375 95/400 215/376
f 95/400 96/401 215/376
f 215/376 96/401 216/377
f 96/401 97/402 216/377
f 216/377 97/402 217/378
f 97/402 74/403 217/378
f 217/378 74/403 194/379
f 74/403 75/404 194/379
f 26/405 24/406 27/407
f 24/406 23/408 27/407
f 27/407 23/408 28/409
f 23/408 22/410 28/409
f 28/409 22/410 29/411
f 22/410 21/412 29/411
f 29/411 21/412 30/413
f 21/412 20/414 30/413
f 30/413 20/414 31/415
f 20/414 19/416 31/415
f 31/415 19/416 32/417
f 19/416 18/418 32/417
f 32/417 18/418 33/419
f 18/418 17/420 33/419
f 33/419 17/420 34/421
f 17/420 16/422 34/421
f 34/421 16/422 35/423
f 16/422 15/424 35/423
f 35/423 15/424 36/425
f 15/424 14/426 36/425
f 36/425 14/426 37/427
f 14/426 13/428 37/427
f 37/427 13/428 38/429
f 13/428 12/430 38/429
f 38/429 12/430 39/431
f 12/430 11/432 39/431
f 39/431 11/432 40/433
f 11/432 10/434 40/433
f 40/433 10/434 41/435
f 10/434 9/436 41/435
f 41/435 9/436 42/437
f 9/436 8/438 42/437
f 42/437 8/438 43/439
f 8/438 7/440 43/439
f 43/439 7/440 44/441
f 7/440 6/442 44/441
f 44/441 6/442 45/443
f 6/442 5/444 45/443
f 45/443 5/444 46/445
f 5/444 4/446 46/445
f 46/445 4/446 47/447
f 4/446 3/448 47/447
f 47/447 3/448 48/449
f 3/448 2/450 48/449
f 48/449 2/450 49/451
f 2/450 1/452 49/451
f 49/451 1/452 26/453
f 1/452 24/454 26/453
f 50/455 27/456 51/457
f 27/456 28/458 51/457
f 51/457 28/458 52/459
f 28/458 29/460 52/459
f 52/459 29/460 53/461
f 29/460 30/462 53/461
f 53/461 30/462 54/463
f 30/462 31/464 54/463
f 54/463 31/464 55/465
f 31/464 32/466 55/465
f 55/465 32/466 56/467
f 32/466 33/468 56/467
f 56/467 33/468 57/469
f 33/468 34/470 57/469
f 57/469 34/470 58/471
f 34/470 35/472 58/471
f 58/471 35/472 59/473
f 35/472 36/474 59/473
f 59/473 36/474 60/475
f 36/474 37/476 60/475
f 60/475 37/476 61/477
f 37/476 38/478 61/477
f 61/477 38/478 62/479
f 38/478 39/480 62/479
f 62/479 39/480 63/481
f 39/480 40/482 63/481
f 63/481 40/482 64/483
f 40/482 41/484 64/483
f 64/483 41/484 65/485
f 41/484 42/486 65/485
f 65/485 42/486 66/487
f 42/486 43/488 66/487
f 66/487 43/488 67/489
f 43/488 44/490 67/489
f 67/489 44/490 68/491
f 44/490 45/492 68/491
f 68/491 45/492 69/493
f 45/492 46/494 69/493
f 69/493 46/494 70/495
f 46/494 47/496 70/495
f 70/495 47/496 71/497
f 47/496 48/498 71/497
f 71/497 48/498 72/499
f 48/498 49/500 72/499
f 72/499 49/500 73/501
f 49/500 26/502 73/501
f 73/501 26/502 50/503
f 26/502 27/504 50/503
f 424/505 423/506 430/507
f 430/507 428/508 424/505
f 428/508 429/509 424/505
f 424/505 429/509 425/510
f 422/511 421/512 434/513
f 434/513 435/514 422/511
f 435/514 436/515 422/511
f 422/511 436/515 423/506
f 420/516 419/517 431/518
f 431/518 432/519 420/516
f 432/519 433/520 420/516
f 420/516 433/520 421/512
f 418/521 416/522 443/523
f 443/523 444/524 418/521
f 444/524 445/525 418/521
f 418/521 445/525 419/517
f 426/526 425/510 437/527
f 437/527 438/528 426/526
f 438/528 439/529 426/526
f 426/526 439/529 427/530
f 417/531 427/530 440/532
f 440/532 441/533 417/531
f 441/533 442/534 417/531
f 417/531 442/534 416/522
f 417/535 411/536 427/537
f 411/536 410/538 427/537
f 427/537 410/538 426/539
f 426/535 410/536 425/537
f 410/536 412/538 425/537
f 425/537 412/538 424/539
f 424/539 412/538 423/537
f 412/538 414/536 423/537
f 423/537 414/536 422/535
f 422/539 414/538 421/537
f 414/538 415/536 421/537
f 421/537 415/536 420/535
f 420/535 415/536 419/537
f 415/536 413/538 419/537
f 419/537 413/538 418/539
f 418/539 413/538 416/537
f 413/538 411/536 416/537
f 416/537 411/536 417/535
f 22/540 23/541 25/542
f 23/541 24/543 25/542
f 25/542 24/543 1/544
f 19/545 20/546 25/542
f 20/546 21/547 25/542
f 25/542 21/547 22/540
f 16/548 17/549 25/542
f 17/549 18/550 25/542
f 25/542 18/550 19/545
f 13/551 14/552 25/542
f 14/552 15/553 25/542
f 25/542 15/553 16/548
f 10/554 11/555 25/542
f 11/555 12/556 25/542
f 25/542 12/556 13/551
f 7/557 8/558 25/542
f 8/558 9/559 25/542
f 25/542 9/559 10/554
f 4/560 5/561 25/542
f 5/561 6/562 25/542
f 25/542 6/562 7/557
f 1/544 2/563 25/542
f 2/563 3/564 25/542
f 25/542 3/564 4/560
f 79/565 219/566 80/567
f 219/566 220/568 80/567
f 80/567 220/568 81/569
f 220/568 221/570 81/569
f 81/569 221/570 82/571
f 221/570 222/572 82/571
f 82/571 222/572 83/573
f 222/572 223/574 83/573
f 83/573 223/574 84/575
f 223/574 224/576 84/575
f 84/575 224/576 85/577
f 224/576 225/578 85/577
f 85/577 225/578 86/579
f 225/578 226/580 86/579
f 86/579 226/580 87/581
f 226/580 227/582 87/581
f 87/581 227/582 88/583
f 227/582 228/584 88/583
f 88/583 228/584 89/585
f 228/584 229/586 89/585
f 89/585 229/586 90/587
f 229/586 230/588 90/587
f 90/587 230/588 91/589
f 230/588 231/590 91/589
f 91/589 231/590 92/591
f 231/590 232/592 92/591
f 92/591 232/592 93/593
f 232/592 233/594 93/593
f 93/593 233/594 94/595
f 233/594 237/596 94/595
f 94/595 237/596 95/597
f 237/596 234/598 95/597
f 95/597 234/598 96/599
f 234/598 235/600 96/599
f 96/599 235/600 97/601
f 235/600 238/602 97/601
f 97/601 238/602 74/603
f 238/602 239/604 74/603
f 74/603 239/604 75/605
f 239/604 240/606 75/605
f 75/605 240/606 76/607
f 240/606 241/608 76/607
f 76/607 241/608 77/609
f 241/608 236/610 77/609
f 77/609 236/610 78/611
f 236/610 218/612 78/611
f 78/611 218/612 79/565
f 218/612 219/566 79/565
f 415/613 288/614 289/615
f 284/616 414/617 283/618
f 414/617 282/619 283/618
f 284/616 285/620 414/617
f 285/620 286/621 414/617
f 414/617 286/621 415/613
f 286/621 287/622 415/613
f 415/613 287/622 288/614
f 282/619 414/617 281/623
f 414/617 412/531 281/623
f 281/623 412/531 280/624
f 289/615 266/625 415/613
f 266/625 267/626 415/613
f 415/613 267/626 413/627
f 267/626 268/628 413/627
f 413/627 268/628 269/629
f 272/630 411/631 271/632
f 411/631 413/627 271/632
f 271/632 413/627 270/633
f 413/627 269/629 270/633
f 276/634 277/635 410/636
f 277/635 278/637 410/636
f 410/636 278/637 412/531
f 278/637 279/638 412/531
f 412/531 279/638 280/624
f 272/630 273/639 411/631
f 273/639 274/640 411/631
f 411/631 274/640 410/636
f 274/640 275/641 410/636
f 410/636 275/641 276/634
f 242/642 225/643 243/644
f 225/643 224/645 243/644
f 243/644 224/645 244/646
f 224/645 223/647 244/646
f 244/646 223/647 245/648
f 223/647 222/649 245/648
f 245/648 222/649 246/650
f 222/649 221/651 246/650
f 246/650 221/651 247/652
f 221/651 220/653 247/652
f 247/652 220/653 248/654
f 220/653 219/655 248/654
f 248/654 219/655 249/656
f 219/655 218/657 249/656
f 249/656 218/657 250/658
f 218/657 236/659 250/658
f 250/658 236/659 251/660
f 236/659 241/661 251/660
f 251/660 241/661 252/662
f 241/661 240/663 252/662
f 252/662 240/663 253/664
f 240/663 239/665 253/664
f 253/664 239/665 254/666
f 239/665 238/667 254/666
f 254/666 238/667 255/668
f 238/667 235/669 255/668
f 255/668 235/669 256/670
f 235/669 234/671 256/670
f 256/670 234/671 257/672
f 234/671 237/673 257/672
f 257/672 237/673 258/674
f 237/673 233/675 258/674
f 258/674 233/675 259/676
f 233/675 232/677 259/676
f 259/676 232/677 260/678
f 232/677 231/679 260/678
f 260/678 231/679 261/680
f 231/679 230/681 261/680
f 261/680 230/681 262/682
f 230/681 229/683 262/682
f 262/682 229/683 263/684
f 229/683 228/685 263/684
f 263/684 228/685 264/686
f 228/685 227/687 264/686
f 264/686 227/687 265/688
f 227/687 226/689 265/688
f 265/688 226/689 242/690
f 226/689 225/691 242/690
