# Exported from USD: /World/Robotiq_Hand_E_edit/base_link/Group3ROBOTIQ_HAND_E_DEFEATURE_04/Group3ROBOTIQ_HAND_E_DEFEATURE
mtllib D_A03_ASM_DOIGTS_PARALLELES_1ROBOTIQ_HAND_E_DEFEATURE.mtl

g Group3ROBOTIQ_HAND_E_DEFEATURE
v 0.02461805 -0.00890000 0.01585739
v 0.02444258 -0.00890000 0.01547548
v 0.02437192 -0.00890000 0.01506117
v 0.02441091 -0.00890000 0.01464268
v 0.02455688 -0.00890000 0.01424855
v 0.02479989 -0.00890000 0.01390563
v 0.02512337 -0.00890000 0.01363729
v 0.02550528 -0.00890000 0.01346181
v 0.02591960 -0.00890000 0.01339116
v 0.02633808 -0.00890000 0.01343015
v 0.02673221 -0.00890000 0.01357612
v 0.02707513 -0.00890000 0.01381913
v 0.02734347 -0.00890000 0.01414261
v 0.02751895 -0.00890000 0.01452452
v 0.02758960 -0.00890000 0.01493883
v 0.02755061 -0.00890000 0.01535732
v 0.02740464 -0.00890000 0.01575145
v 0.02716163 -0.00890000 0.01609437
v 0.02683815 -0.00890000 0.01636271
v 0.02645624 -0.00890000 0.01653819
v 0.02604193 -0.00890000 0.01660884
v 0.02562345 -0.00890000 0.01656985
v 0.02522931 -0.00890000 0.01642388
v 0.02488639 -0.00890000 0.01618087
v 0.02598076 -0.00890000 0.01500000
v 0.02428795 -0.00851000 0.01606508
v 0.02462130 -0.00851000 0.01646692
v 0.02504729 -0.00851000 0.01676879
v 0.02553689 -0.00851000 0.01695012
v 0.02605675 -0.00851000 0.01699856
v 0.02657142 -0.00851000 0.01691079
v 0.02704584 -0.00851000 0.01669281
v 0.02744768 -0.00851000 0.01635947
v 0.02774955 -0.00851000 0.01593347
v 0.02793089 -0.00851000 0.01544387
v 0.02797932 -0.00851000 0.01492402
v 0.02789155 -0.00851000 0.01440934
v 0.02767357 -0.00851000 0.01393492
v 0.02734023 -0.00851000 0.01353308
v 0.02691424 -0.00851000 0.01323121
v 0.02642463 -0.00851000 0.01304988
v 0.02590478 -0.00851000 0.01300144
v 0.02539010 -0.00851000 0.01308921
v 0.02491568 -0.00851000 0.01330719
v 0.02451384 -0.00851000 0.01364054
v 0.02421197 -0.00851000 0.01406653
v 0.02403064 -0.00851000 0.01455613
v 0.02398221 -0.00851000 0.01507598
v 0.02406997 -0.00851000 0.01559066
v 0.02428795 0.00690000 0.01606508
v 0.02462130 0.00690000 0.01646692
v 0.02504729 0.00690000 0.01676879
v 0.02553689 0.00690000 0.01695012
v 0.02605675 0.00690000 0.01699856
v 0.02657142 0.00690000 0.01691079
v 0.02704584 0.00690000 0.01669281
v 0.02744768 0.00690000 0.01635947
v 0.02774955 0.00690000 0.01593347
v 0.02793089 0.00690000 0.01544387
v 0.02797932 0.00690000 0.01492402
v 0.02789155 0.00690000 0.01440934
v 0.02767357 0.00690000 0.01393492
v 0.02734023 0.00690000 0.01353308
v 0.02691424 0.00690000 0.01323121
v 0.02642463 0.00690000 0.01304988
v 0.02590478 0.00690000 0.01300144
v 0.02539010 0.00690000 0.01308921
v 0.02491568 0.00690000 0.01330719
v 0.02451384 0.00690000 0.01364054
v 0.02421197 0.00690000 0.01406653
v 0.02403064 0.00690000 0.01455613
v 0.02398221 0.00690000 0.01507598
v 0.02406997 0.00690000 0.01559066
v 0.02784285 0.00710000 0.01382841
v 0.02808263 0.00710000 0.01435028
v 0.02817917 0.00710000 0.01491642
v 0.02812590 0.00710000 0.01548826
v 0.02792643 0.00710000 0.01602682
v 0.02759437 0.00710000 0.01649541
v 0.02715235 0.00710000 0.01686209
v 0.02663049 0.00710000 0.01710187
v 0.02606434 0.00710000 0.01719841
v 0.02549250 0.00710000 0.01714513
v 0.02495394 0.00710000 0.01694567
v 0.02448535 0.00710000 0.01661361
v 0.02411867 0.00710000 0.01617159
v 0.02387889 0.00710000 0.01564972
v 0.02378235 0.00710000 0.01508358
v 0.02383563 0.00710000 0.01451174
v 0.02403509 0.00710000 0.01397318
v 0.02436715 0.00710000 0.01350459
v 0.02480917 0.00710000 0.01313791
v 0.02533104 0.00710000 0.01289813
v 0.02589718 0.00710000 0.01280159
v 0.02646902 0.00710000 0.01285486
v 0.02700758 0.00710000 0.01305433
v 0.02747617 0.00710000 0.01338639
v 0.02789806 0.00695176 0.01440733
v 0.02798613 0.00695176 0.01492376
v 0.02793753 0.00695176 0.01544538
v 0.02775558 0.00695176 0.01593666
v 0.02745268 0.00695176 0.01636410
v 0.02704947 0.00695176 0.01669858
v 0.02657343 0.00695176 0.01691730
v 0.02605700 0.00695176 0.01700537
v 0.02553538 0.00695176 0.01695677
v 0.02504411 0.00695176 0.01677482
v 0.02461667 0.00695176 0.01647192
v 0.02428219 0.00695176 0.01606871
v 0.02406346 0.00695176 0.01559267
v 0.02397540 0.00695176 0.01507624
v 0.02402399 0.00695176 0.01455462
v 0.02420594 0.00695176 0.01406334
v 0.02450884 0.00695176 0.01363590
v 0.02491205 0.00695176 0.01330142
v 0.02538809 0.00695176 0.01308270
v 0.02590452 0.00695176 0.01299463
v 0.02642614 0.00695176 0.01304323
v 0.02691742 0.00695176 0.01322518
v 0.02734486 0.00695176 0.01352808
v 0.02767934 0.00695176 0.01393129
v 0.02791715 0.00700000 0.01440143
v 0.02800609 0.00700000 0.01492300
v 0.02795701 0.00700000 0.01544982
v 0.02777325 0.00700000 0.01594598
v 0.02746734 0.00700000 0.01637768
v 0.02706011 0.00700000 0.01671549
v 0.02657933 0.00700000 0.01693639
v 0.02605776 0.00700000 0.01702533
v 0.02553095 0.00700000 0.01697625
v 0.02503478 0.00700000 0.01679249
v 0.02460308 0.00700000 0.01648657
v 0.02426527 0.00700000 0.01607935
v 0.02404437 0.00700000 0.01559857
v 0.02395543 0.00700000 0.01507700
v 0.02400451 0.00700000 0.01455018
v 0.02418827 0.00700000 0.01405402
v 0.02449419 0.00700000 0.01362232
v 0.02490141 0.00700000 0.01328451
v 0.02538219 0.00700000 0.01306361
v 0.02590376 0.00700000 0.01297467
v 0.02643058 0.00700000 0.01302375
v 0.02692674 0.00700000 0.01320751
v 0.02735844 0.00700000 0.01351343
v 0.02769625 0.00700000 0.01392065
v 0.02794752 0.00704142 0.01439204
v 0.02803786 0.00704142 0.01492179
v 0.02798800 0.00704142 0.01545687
v 0.02780136 0.00704142 0.01596082
v 0.02749065 0.00704142 0.01639928
v 0.02707704 0.00704142 0.01674239
v 0.02658872 0.00704142 0.01696676
v 0.02605897 0.00704142 0.01705709
v 0.02552389 0.00704142 0.01700724
v 0.02501995 0.00704142 0.01682060
v 0.02458148 0.00704142 0.01650989
v 0.02423837 0.00704142 0.01609628
v 0.02401401 0.00704142 0.01560796
v 0.02392367 0.00704142 0.01507821
v 0.02397352 0.00704142 0.01454313
v 0.02416016 0.00704142 0.01403918
v 0.02447088 0.00704142 0.01360072
v 0.02488448 0.00704142 0.01325761
v 0.02537280 0.00704142 0.01303324
v 0.02590255 0.00704142 0.01294291
v 0.02643763 0.00704142 0.01299276
v 0.02694158 0.00704142 0.01317940
v 0.02738004 0.00704142 0.01349011
v 0.02772315 0.00704142 0.01390372
v 0.02798709 0.00707320 0.01437981
v 0.02807925 0.00707320 0.01492022
v 0.02802839 0.00707320 0.01546606
v 0.02783799 0.00707320 0.01598015
v 0.02752103 0.00707320 0.01642744
v 0.02709910 0.00707320 0.01677745
v 0.02660095 0.00707320 0.01700633
v 0.02606054 0.00707320 0.01709848
v 0.02551470 0.00707320 0.01704763
v 0.02500061 0.00707320 0.01685723
v 0.02455333 0.00707320 0.01654027
v 0.02420331 0.00707320 0.01611834
v 0.02397443 0.00707320 0.01562019
v 0.02388228 0.00707320 0.01507978
v 0.02393313 0.00707320 0.01453394
v 0.02412353 0.00707320 0.01401985
v 0.02444050 0.00707320 0.01357256
v 0.02486243 0.00707320 0.01322255
v 0.02536057 0.00707320 0.01299367
v 0.02590098 0.00707320 0.01290152
v 0.02644682 0.00707320 0.01295237
v 0.02696091 0.00707320 0.01314277
v 0.02740820 0.00707320 0.01345973
v 0.02775821 0.00707320 0.01388166
v 0.02803318 0.00709319 0.01436556
v 0.02812745 0.00709319 0.01491839
v 0.02807542 0.00709319 0.01547677
v 0.02788065 0.00709319 0.01600266
v 0.02755641 0.00709319 0.01646022
v 0.02712478 0.00709319 0.01681828
v 0.02661520 0.00709319 0.01705242
v 0.02606238 0.00709319 0.01714669
v 0.02550399 0.00709319 0.01709466
v 0.02497810 0.00709319 0.01689989
v 0.02452054 0.00709319 0.01657565
v 0.02416249 0.00709319 0.01614402
v 0.02392835 0.00709319 0.01563444
v 0.02383408 0.00709319 0.01508162
v 0.02388610 0.00709319 0.01452323
v 0.02408087 0.00709319 0.01399734
v 0.02440512 0.00709319 0.01353977
v 0.02483674 0.00709319 0.01318172
v 0.02534633 0.00709319 0.01294758
v 0.02589915 0.00709319 0.01285332
v 0.02645753 0.00709319 0.01290534
v 0.02698343 0.00709319 0.01310011
v 0.02744099 0.00709319 0.01342435
v 0.02779904 0.00709319 0.01385598
v 0.02701441 0.00710000 0.01834388
v 0.02611373 0.00710000 0.01849747
v 0.02360170 0.00710000 0.01756711
v 0.02301835 0.00710000 0.01686389
v 0.02520399 0.00710000 0.01841271
v 0.02434718 0.00710000 0.01809539
v 0.02263688 0.00710000 0.01603365
v 0.02584779 0.00710000 0.01150253
v 0.02675753 0.00710000 0.01158728
v 0.02761434 0.00710000 0.01190461
v 0.02835982 0.00710000 0.01243289
v 0.02932465 0.00710000 0.01396635
v 0.02947824 0.00710000 0.01486703
v 0.02248329 0.00710000 0.01513297
v 0.02256805 0.00710000 0.01422323
v 0.02288538 0.00710000 0.01336642
v 0.02341365 0.00710000 0.01262094
v 0.02411687 0.00710000 0.01203758
v 0.02894318 0.00710000 0.01313611
v 0.02939348 0.00710000 0.01577677
v 0.02907615 0.00710000 0.01663358
v 0.02854787 0.00710000 0.01737906
v 0.02784465 0.00710000 0.01796241
v 0.02494711 0.00710000 0.01165612
v 0.02301835 0.01090000 0.01686389
v 0.02360170 0.01090000 0.01756711
v 0.02434718 0.01090000 0.01809539
v 0.02520399 0.01090000 0.01841271
v 0.02611373 0.01090000 0.01849747
v 0.02701441 0.01090000 0.01834388
v 0.02784465 0.01090000 0.01796241
v 0.02854787 0.01090000 0.01737906
v 0.02907615 0.01090000 0.01663358
v 0.02939348 0.01090000 0.01577677
v 0.02947824 0.01090000 0.01486703
v 0.02932465 0.01090000 0.01396635
v 0.02894318 0.01090000 0.01313611
v 0.02835982 0.01090000 0.01243289
v 0.02761434 0.01090000 0.01190461
v 0.02675753 0.01090000 0.01158728
v 0.02584779 0.01090000 0.01150253
v 0.02494711 0.01090000 0.01165612
v 0.02411687 0.01090000 0.01203758
v 0.02341365 0.01090000 0.01262094
v 0.02288538 0.01090000 0.01336642
v 0.02256805 0.01090000 0.01422323
v 0.02248329 0.01090000 0.01513297
v 0.02263688 0.01090000 0.01603365
v 0.02318763 0.01110000 0.01675738
v 0.02373765 0.01110000 0.01742042
v 0.02444053 0.01110000 0.01791851
v 0.02524838 0.01110000 0.01821770
v 0.02610613 0.01110000 0.01829762
v 0.02695535 0.01110000 0.01815281
v 0.02773815 0.01110000 0.01779313
v 0.02840118 0.01110000 0.01724312
v 0.02889927 0.01110000 0.01654023
v 0.02919846 0.01110000 0.01573239
v 0.02927838 0.01110000 0.01487463
v 0.02913357 0.01110000 0.01402541
v 0.02877390 0.01110000 0.01324262
v 0.02822388 0.01110000 0.01257958
v 0.02752100 0.01110000 0.01208149
v 0.02671315 0.01110000 0.01178230
v 0.02585539 0.01110000 0.01170238
v 0.02500618 0.01110000 0.01184720
v 0.02422338 0.01110000 0.01220687
v 0.02356034 0.01110000 0.01275688
v 0.02306226 0.01110000 0.01345977
v 0.02276306 0.01110000 0.01426761
v 0.02268314 0.01110000 0.01512537
v 0.02282796 0.01110000 0.01597459
v 0.02370246 0.01109319 0.01745839
v 0.02441637 0.01109319 0.01796429
v 0.02523689 0.01109319 0.01826818
v 0.02610810 0.01109319 0.01834934
v 0.02697064 0.01109319 0.01820226
v 0.02776571 0.01109319 0.01783695
v 0.02843915 0.01109319 0.01727830
v 0.02894505 0.01109319 0.01656439
v 0.02924894 0.01109319 0.01574387
v 0.02933011 0.01109319 0.01487266
v 0.02918302 0.01109319 0.01401013
v 0.02881771 0.01109319 0.01321505
v 0.02825906 0.01109319 0.01254161
v 0.02754516 0.01109319 0.01203571
v 0.02672464 0.01109319 0.01173182
v 0.02585342 0.01109319 0.01165066
v 0.02499089 0.01109319 0.01179774
v 0.02419581 0.01109319 0.01216305
v 0.02352238 0.01109319 0.01272170
v 0.02301648 0.01109319 0.01343561
v 0.02271259 0.01109319 0.01425613
v 0.02263142 0.01109319 0.01512734
v 0.02277850 0.01109319 0.01598987
v 0.02314381 0.01109319 0.01678495
v 0.02366967 0.01107320 0.01749377
v 0.02439385 0.01107320 0.01800695
v 0.02522618 0.01107320 0.01831521
v 0.02610993 0.01107320 0.01839755
v 0.02698488 0.01107320 0.01824835
v 0.02779140 0.01107320 0.01787777
v 0.02847453 0.01107320 0.01731109
v 0.02898771 0.01107320 0.01658691
v 0.02929597 0.01107320 0.01575458
v 0.02937831 0.01107320 0.01487083
v 0.02922911 0.01107320 0.01399588
v 0.02885854 0.01107320 0.01318936
v 0.02829185 0.01107320 0.01250623
v 0.02756767 0.01107320 0.01199305
v 0.02673534 0.01107320 0.01168479
v 0.02585159 0.01107320 0.01160245
v 0.02497664 0.01107320 0.01175166
v 0.02417012 0.01107320 0.01212223
v 0.02348700 0.01107320 0.01268891
v 0.02297381 0.01107320 0.01341309
v 0.02266555 0.01107320 0.01424542
v 0.02258322 0.01107320 0.01512917
v 0.02273242 0.01107320 0.01600412
v 0.02310299 0.01107320 0.01681064
v 0.02364152 0.01104142 0.01752415
v 0.02437452 0.01104142 0.01804358
v 0.02521699 0.01104142 0.01835560
v 0.02611151 0.01104142 0.01843894
v 0.02699712 0.01104142 0.01828792
v 0.02781346 0.01104142 0.01791283
v 0.02850491 0.01104142 0.01733924
v 0.02902434 0.01104142 0.01660624
v 0.02933636 0.01104142 0.01576377
v 0.02941970 0.01104142 0.01486926
v 0.02926868 0.01104142 0.01398365
v 0.02889360 0.01104142 0.01316730
v 0.02832001 0.01104142 0.01247585
v 0.02758700 0.01104142 0.01195642
v 0.02674454 0.01104142 0.01164440
v 0.02585002 0.01104142 0.01156106
v 0.02496441 0.01104142 0.01171208
v 0.02414807 0.01104142 0.01208717
v 0.02345662 0.01104142 0.01266075
v 0.02293718 0.01104142 0.01339376
v 0.02262517 0.01104142 0.01423623
v 0.02254182 0.01104142 0.01513075
v 0.02269284 0.01104142 0.01601635
v 0.02306793 0.01104142 0.01683270
v 0.02361991 0.01100000 0.01754746
v 0.02435969 0.01100000 0.01807169
v 0.02520994 0.01100000 0.01838659
v 0.02611271 0.01100000 0.01847070
v 0.02700650 0.01100000 0.01831828
v 0.02783038 0.01100000 0.01793974
v 0.02852822 0.01100000 0.01736085
v 0.02905245 0.01100000 0.01662107
v 0.02936735 0.01100000 0.01577083
v 0.02945146 0.01100000 0.01486805
v 0.02929905 0.01100000 0.01397426
v 0.02892050 0.01100000 0.01315038
v 0.02834161 0.01100000 0.01245254
v 0.02760184 0.01100000 0.01192831
v 0.02675159 0.01100000 0.01161341
v 0.02584881 0.01100000 0.01152930
v 0.02495502 0.01100000 0.01168172
v 0.02413114 0.01100000 0.01206026
v 0.02343330 0.01100000 0.01263915
v 0.02290907 0.01100000 0.01337893
v 0.02259417 0.01100000 0.01422917
v 0.02251006 0.01100000 0.01513195
v 0.02266248 0.01100000 0.01602574
v 0.02304103 0.01100000 0.01684962
v 0.02360633 0.01095176 0.01756211
v 0.02435036 0.01095176 0.01808936
v 0.02520550 0.01095176 0.01840607
v 0.02611347 0.01095176 0.01849066
v 0.02701240 0.01095176 0.01833737
v 0.02784103 0.01095176 0.01795665
v 0.02854287 0.01095176 0.01737443
v 0.02907012 0.01095176 0.01663040
v 0.02938683 0.01095176 0.01577526
v 0.02947143 0.01095176 0.01486729
v 0.02931814 0.01095176 0.01396836
v 0.02893741 0.01095176 0.01313974
v 0.02835519 0.01095176 0.01243789
v 0.02761116 0.01095176 0.01191064
v 0.02675602 0.01095176 0.01159393
v 0.02584805 0.01095176 0.01150934
v 0.02494912 0.01095176 0.01166263
v 0.02412050 0.01095176 0.01204335
v 0.02341865 0.01095176 0.01262557
v 0.02289140 0.01095176 0.01336960
v 0.02257469 0.01095176 0.01422474
v 0.02249010 0.01095176 0.01513271
v 0.02264339 0.01095176 0.01603164
v 0.02302412 0.01095176 0.01686026
v 0.02420900 0.01110000 0.01506736
v 0.02503655 0.01110000 0.01349929
v 0.02680831 0.01110000 0.01343193
v 0.02775252 0.01110000 0.01493264
v 0.02692498 0.01110000 0.01650071
v 0.02515322 0.01110000 0.01656807
v 0.02603910 0.00910000 0.01653439
v 0.02692498 0.00910000 0.01650071
v 0.02515322 0.00910000 0.01656807
v 0.02468111 0.00910000 0.01581772
v 0.02420900 0.00910000 0.01506736
v 0.02462277 0.00910000 0.01428332
v 0.02503655 0.00910000 0.01349929
v 0.02592243 0.00910000 0.01346561
v 0.02680831 0.00910000 0.01343193
v 0.02728042 0.00910000 0.01418228
v 0.02775252 0.00910000 0.01493264
v 0.02733875 0.00910000 0.01571668
v 0.02632154 0.00910000 0.01350279
v 0.02669744 0.00910000 0.01364201
v 0.02702449 0.00910000 0.01387377
v 0.02451375 0.00910000 0.01545348
v 0.02444637 0.00910000 0.01505834
v 0.02448356 0.00910000 0.01465922
v 0.02485453 0.00910000 0.01395627
v 0.02516305 0.00910000 0.01370035
v 0.02552728 0.00910000 0.01353299
v 0.02744777 0.00910000 0.01454652
v 0.02751515 0.00910000 0.01494166
v 0.02747797 0.00910000 0.01534078
v 0.02710699 0.00910000 0.01604373
v 0.02679848 0.00910000 0.01629965
v 0.02643424 0.00910000 0.01646701
v 0.02563998 0.00910000 0.01649721
v 0.02526409 0.00910000 0.01635799
v 0.02493703 0.00910000 0.01612623
v 0.02598076 0.00821348 0.01500000
vt 0.00165000 0.00285788
vt 5.23598766 0.00039000
vt 5.36688757 -0.00088652
vt 6.54498482 -1.83259571
vt 3.40339208 -0.00000000
vt 1.43989658 -0.00088652
vt 1.04719758 0.52359879
vt 6.28318548 0.00000000
vt -0.00177304 -0.00200000
vt 4.71238899 -2.09439516
vt 0.26179940 1.04719758
vt 0.00350000 -0.00350000
vt 4.45058966 0.00000000
vt -0.00330000 -0.00000000
vt 0.78539819 -1.83259571
vt 3.66519141 -1.83259571
vt 3.66519141 0.00000000
vt 0.78539819 -0.03195000
vt 2.09439516 -0.03195000
vt 4.97418833 -0.03575000
vt 0.00330000 0.00000000
vt 5.49778700 1.04719758
vt 3.79609108 -0.00088652
vt 1.57079637 -0.05136000
vt -0.00155514 -0.00119330
vt 3.66519141 0.78539819
vt 3.66519141 1.57079637
vt 0.26179940 -0.03595000
vt 4.18879032 0.78539819
vt 0.52359879 -2.09439516
vt 6.02138615 -3.14159274
vt 3.66519141 -2.35619450
vt 4.45058966 -2.35619450
vt 0.26179940 0.52359879
vt -0.00303109 -0.00175000
vt 1.96349537 -0.00088652
vt -0.00000000 -0.00200000
vt -0.00247487 -0.00102513
vt 2.09439516 0.26179940
vt 1.30899692 0.00000000
vt 4.97418833 -1.57079637
vt -0.00307100 -0.00265956
vt 0.78539819 1.30899692
vt 6.28318548 0.26179940
vt 0.00000000 0.00000000
vt 5.75958633 -0.03595000
vt 6.54498482 -2.61799383
vt 1.04719758 -3.14159274
vt 4.18879032 -0.03575000
vt 4.71238899 -1.83259571
vt 1.83259571 -0.03195000
vt 0.78539819 0.52359879
vt 2.35619450 -0.05136000
vt 4.45058966 0.52359879
vt 6.02138615 -1.83259571
vt 3.66519141 -1.57079637
vt 0.78539819 -1.57079637
vt 0.26179940 -2.87979317
vt 6.02138615 -1.57079637
vt 0.00000000 0.00330000
vt -0.00080500 -0.00021570
vt 4.71238899 1.57079637
vt 6.54498482 -1.57079637
vt 1.04719758 1.57079637
vt -0.00000000 -0.00200000
vt 6.02138615 0.52359879
vt 2.61799383 0.00039000
vt 6.28318548 -0.03195000
vt 0.00085410 -0.00318756
vt 0.00041670 -0.00316514
vt 6.54498482 1.04719758
vt 0.00080500 -0.00021570
vt 0.00000000 1.30899692
vt 5.75958633 0.00039000
vt 5.75958633 -2.87979317
vt 6.02138615 -2.61799383
vt 0.00000000 -0.00000000
vt -0.00175000 -0.00046891
vt 0.00338074 -0.00259413
vt 0.52359879 0.00000000
vt 0.00155563 -0.00194437
vt 0.26179940 0.26179940
vt 6.02138615 -2.35619450
vt 3.92699075 -0.03195000
vt 3.66519141 -3.14159274
vt 5.49778700 -0.03595000
vt 6.54498482 -0.00000000
vt 4.18879032 -3.14159274
vt 1.83259571 0.78539819
vt 2.61799383 1.57079637
vt 6.28318548 0.00000000
vt 1.57079637 -1.57079637
vt 2.09439516 -2.09439516
vt 5.49778700 0.78539819
vt 0.78539819 -0.03595000
vt 5.23598766 -0.05136000
vt -0.00153550 -0.00088652
vt 0.00056940 -0.00137496
vt 1.83259571 0.00000000
vt 1.83259571 -1.83259571
vt 5.75958633 0.26179940
vt 4.71238899 -0.03595000
vt 2.09439516 0.00000000
vt 3.40339208 -0.05136000
vt -0.00153550 -0.00419506
vt 2.87979317 0.00039000
vt -0.00020572 -0.00189181
vt 3.92699075 0.26179940
vt 0.26179940 -0.03195000
vt -0.00005232 -0.00305698
vt 1.04719758 0.78539819
vt 5.75958633 -0.00000000
vt 0.26179940 -2.61799383
vt 4.18879032 -0.03195000
vt 0.00000000 -0.00700000
vt 3.66519141 -2.61799383
vt 0.00090587 -0.00688074
vt 3.14159274 -0.05136000
vt 1.57079637 -0.03575000
vt 2.35619450 -2.61799383
vt 4.18879032 -0.00000000
vt 5.49778700 -2.87979317
vt -0.00230325 -0.00398935
vt 3.14159274 0.26179940
vt -0.00318756 -0.00085410
vt 0.78539819 -2.35619450
vt 3.40339208 -1.57079637
vt 4.71238899 1.04719758
vt 6.28318548 -3.14159274
vt 4.45058966 -0.00000000
vt 4.71238899 -2.87979317
vt 6.02138615 -2.87979317
vt -0.00153550 -0.00112406
vt 5.49778700 -0.03575000
vt 5.10508823 -0.00088652
vt 3.92699075 -2.35619450
vt -0.00113844 -0.00274844
vt -0.00190526 -0.00460000
vt 5.75958633 0.00000000
vt 1.04719758 -0.05136000
vt 0.00000000 1.04719758
vt 3.40339208 1.30899692
vt 4.71238899 -3.14159274
vt 3.92699075 0.00000000
vt 6.28318548 -2.61799383
vt 0.52359879 -0.00000000
vt 0.00000000 0.00000000
vt 0.52359879 -1.57079637
vt 3.40339208 -2.61799383
vt 4.71238899 -0.03575000
vt 6.28318548 1.30899692
vt 4.97418833 0.26179940
vt -0.00286528 -0.00342731
vt 1.83259571 -3.14159274
vt 3.14159274 -2.87979317
vt 3.92699075 0.52359879
vt 3.14159274 -0.03195000
vt -0.00247487 -0.00597487
vt 0.00318756 0.00085410
vt 2.22529483 -0.00088652
vt 5.49778700 -3.14159274
vt 0.52359879 1.30899692
vt 6.02138615 0.26179940
vt 3.40339208 -2.87979317
vt 4.97418833 0.00000000
vt 2.48709416 -0.00088652
vt 6.54498482 -0.03575000
vt 2.87979317 -0.05136000
vt 2.09439516 -0.05136000
vt 3.92699075 -0.03595000
vt 3.40339208 0.00039000
vt 6.28318548 -1.57079637
vt 0.52359879 1.04719758
vt 0.00285788 -0.00165000
vt 0.26179940 -1.83259571
vt 4.84328890 -0.00088652
vt -0.00000000 -0.03195000
vt 6.02138615 1.30899692
vt 3.66519141 1.30899692
vt 2.09439516 1.04719758
vt 0.52359879 -0.05136000
vt 0.00110000 -0.00159474
vt -0.00262126 -0.00157380
vt 1.04719758 -1.57079637
vt 2.35619450 1.57079637
vt -0.00190526 -0.00240000
vt 3.14159274 -2.35619450
vt 2.09439516 -0.03575000
vt 1.57079637 0.00000000
vt 1.30899692 0.78539819
vt 0.52359879 -3.14159274
vt 4.45058966 1.04719758
vt 5.75958633 -0.03575000
vt 1.04719758 -2.87979317
vt 3.66519141 -0.05136000
vt 2.87979317 1.04719758
vt 0.00139430 -0.00241500
vt -0.00110000 -0.00159474
vt 4.45058966 -0.05136000
vt 1.04719758 1.04719758
vt -0.00212504 -0.00293060
vt 0.52359879 0.26179940
vt 0.78539819 -3.14159274
vt 3.92699075 -0.03575000
vt -0.00301868 -0.00305698
vt 1.57079637 0.00039000
vt 1.30899692 -0.05136000
vt 1.30899692 1.57079637
vt 2.87979317 1.30899692
vt 3.14159274 -0.00000000
vt 5.23598766 -3.14159274
vt 4.45058966 -2.61799383
vt 1.83259571 0.52359879
vt 4.71238899 0.00000000
vt 2.61799383 -2.61799383
vt 6.28318548 0.78539819
vt 6.54498482 0.52359879
vt -0.00177304 0.00000000
vt 6.02138615 0.00000000
vt -0.00139430 -0.00080500
vt 1.30899692 0.00000000
vt 4.45058966 0.26179940
vt 0.00000000 -0.00200000
vt 4.97418833 0.78539819
vt 5.75958633 0.78539819
vt 1.04719758 -0.03575000
vt 4.71238899 -2.35619450
vt 3.14159274 -1.57079637
vt 3.14159274 -0.00000000
vt 1.57079637 -0.03195000
vt -0.00080500 -0.00300430
vt 5.49778700 0.00000000
vt -0.00113844 -0.00047156
vt 1.57079637 1.30899692
vt 4.71238899 0.78539819
vt 0.00000000 -0.00177304
vt 1.17809725 -0.00088652
vt 4.97418833 -0.03595000
vt -0.00085410 -0.00318756
vt 3.40339208 1.04719758
vt 5.49778700 -2.35619450
vt 0.00155563 -0.00505563
vt 0.00080500 -0.00300430
vt 6.54498482 -2.87979317
vt 0.00000000 0.78539819
vt -0.00000000 0.00039000
vt -0.00076775 -0.00398935
vt 2.87979317 0.00000000
vt 5.23598766 -1.57079637
vt 2.61799383 -0.00000000
vt 1.04719758 0.00000000
vt 0.52359879 0.00000000
vt 1.83259571 -2.09439516
vt 0.00212504 -0.00406940
vt 3.40339208 -0.03195000
vt 0.26179940 -0.03575000
vt 3.14159274 -0.03575000
vt 2.09439516 0.00000000
vt 2.61799383 0.00000000
vt 4.71238899 -2.61799383
vt 3.01069307 -0.00088652
vt 4.97418833 1.30899692
vt 3.14159274 0.00039000
vt 1.04719758 -2.61799383
vt 5.75958633 -2.61799383
vt -0.00005232 -0.00226215
vt -0.00318756 0.00085410
vt 4.45058966 -2.09439516
vt 0.00155514 -0.00202670
vt 4.97418833 -2.61799383
vt 6.02138615 1.04719758
vt -0.00155563 -0.00505563
vt 1.30899692 -3.14159274
vt 0.52359879 0.78539819
vt 6.54498482 0.26179940
vt 0.00247487 -0.00597487
vt 1.04719758 0.00000000
vt 3.27249241 -0.00088652
vt 5.23598766 -2.35619450
vt 3.92699075 -1.83259571
vt 0.78539819 0.78539819
vt 0.78539819 1.57079637
vt 1.30899692 -0.03575000
vt 2.61799383 -0.03575000
vt 3.40339208 0.00000000
vt 5.23598766 -0.00000000
vt 3.92699075 -0.05136000
vt 0.26179940 -0.00000000
vt -0.00233345 -0.00233345
vt 5.23598766 0.78539819
vt 5.23598766 1.57079637
vt 2.35619450 -3.14159274
vt 6.54498482 1.30899692
vt 1.30899692 1.04719758
vt 1.30899692 -2.61799383
vt 5.75958633 -0.05136000
vt -0.00076775 -0.00132978
vt 1.83259571 1.30899692
vt 0.00161000 -0.00161000
vt 2.87979317 0.26179940
vt 6.02138615 -0.03575000
vt 4.97418833 -3.14159274
vt 5.75958633 -3.14159274
vt 4.97418833 -1.83259571
vt -0.00088652 -0.00000000
vt 1.57079637 -2.87979317
vt -0.00161000 -0.00161000
vt 3.14159274 -1.83259571
vt 0.26179940 0.00000000
vt 2.87979317 0.00000000
vt 0.00041670 -0.00005486
vt 2.61799383 1.04719758
vt 6.28318548 1.04719758
vt 0.00000000 0.26179940
vt 1.30899692 -0.00000000
vt -0.00153550 -0.00443261
vt 2.87979317 -2.35619450
vt 1.30899692 -1.57079637
vt 6.02138615 -2.09439516
vt 6.15228558 -0.00088652
vt 6.02138615 0.00000000
vt 2.09439516 -1.57079637
vt 1.83259571 1.57079637
vt 4.18879032 0.00039000
vt 3.66519141 0.26179940
vt 0.78539819 -0.05136000
vt -0.00177304 0.00000000
vt 0.00233345 0.00233345
vt 1.30899692 0.52359879
vt 2.87979317 -2.61799383
vt -0.00000000 -0.00265956
vt 2.87979317 -2.87979317
vt 2.87979317 -0.03195000
vt 0.00000000 -0.00322000
vt 0.26179940 0.00039000
vt 4.58148909 -0.00088652
vt -0.00085410 0.00318756
vt 5.49778700 0.00000000
vt 6.02138615 -0.00000000
vt 4.18879032 0.00000000
vt 3.14159274 1.57079637
vt 4.71238899 -0.05136000
vt 3.40339208 0.78539819
vt 0.00000000 -0.00130000
vt 3.66519141 0.00000000
vt 4.18879032 -2.09439516
vt 2.35619450 -1.57079637
vt -0.00088652 -0.00000000
vt 4.45058966 0.00000000
vt 1.04719758 1.30899692
vt 0.00113844 -0.00274844
vt -0.00177304 -0.00000000
vt 5.49778700 0.52359879
vt 4.97418833 -0.00000000
vt 1.83259571 -0.05136000
vt 4.18879032 -0.05136000
vt 4.71238899 0.00000000
vt 6.28318548 1.57079637
vt 1.30899692 -2.35619450
vt 2.87979317 -1.57079637
vt 5.49778700 -0.05136000
vt 1.57079637 -2.61799383
vt 3.66519141 -2.87979317
vt 4.31968975 -0.00088652
vt 0.00247487 -0.00102513
vt 0.00000000 1.57079637
vt 5.23598766 -0.03595000
vt 4.71238899 0.52359879
vt -0.00000000 -0.00354609
vt 3.92699075 0.00039000
vt -0.00153550 0.00088652
vt 2.61799383 0.00000000
vt 4.97418833 1.57079637
vt 3.92699075 -2.09439516
vt 4.45058966 -1.83259571
vt 2.35619450 -2.35619450
vt 5.75958633 -0.03195000
vt 3.66519141 -2.09439516
vt 0.00000000 -0.00161000
vt 4.18879032 -2.61799383
vt 1.57079637 -2.35619450
vt 2.35619450 0.78539819
vt 2.09439516 -2.87979317
vt 0.00000000 0.52359879
vt 4.97418833 -2.35619450
vt 0.00318756 -0.00085410
vt -0.00056940 -0.00562504
vt 6.28318548 0.00039000
vt 6.28318548 -2.87979317
vt 2.61799383 -0.03195000
vt 4.18879032 0.26179940
vt 0.52359879 -1.83259571
vt -0.00307100 -0.00354609
vt -0.00338074 -0.00440587
vt 3.40339208 -0.03575000
vt 5.23598766 1.30899692
vt 1.30899692 -2.09439516
vt 2.35619450 0.00000000
vt -0.00303109 -0.00525000
vt -0.00041670 -0.00005486
vt 1.57079637 0.52359879
vt -0.00285788 -0.00165000
vt 1.57079637 1.57079637
vt 4.18879032 -1.83259571
vt 2.61799383 1.30899692
vt 0.26179940 1.57079637
vt 0.00000000 -0.00330000
vt 5.49778700 -2.61799383
vt 1.83259571 0.00039000
vt 1.57079637 -0.00000000
vt 0.13089970 -0.00088652
vt 2.61799383 0.26179940
vt 1.83259571 -0.03575000
vt 4.18879032 -2.87979317
vt 2.09439516 -0.03595000
vt 3.66519141 1.04719758
vt 3.40339208 -3.14159274
vt -0.00044974 -0.00157380
vt 5.23598766 0.52359879
vt 0.00155514 -0.00119330
vt 0.00110000 -0.00540526
vt 2.87979317 0.52359879
vt 1.04719758 -2.09439516
vt 4.45058966 -1.57079637
vt 0.91629785 -0.00088652
vt -0.00301868 -0.00226215
vt 1.83259571 1.04719758
vt 4.97418833 -2.09439516
vt 4.05789042 -0.00088652
vt -0.00262126 -0.00374533
vt 2.61799383 -2.87979317
vt 1.83259571 -0.00000000
vt 2.87979317 -1.83259571
vt 4.18879032 -1.57079637
vt 0.78539819 0.00039000
vt 1.83259571 -1.57079637
vt 2.09439516 0.00039000
vt 0.00090587 -0.00011926
vt 1.57079637 -3.14159274
vt 0.00085410 0.00318756
vt 6.28318548 -0.05136000
vt 4.18879032 -0.03595000
vt 1.83259571 -0.03595000
vt 3.14159274 -2.09439516
vt -0.00155514 -0.00202670
vt 2.35619450 -1.83259571
vt 6.02138615 -0.05136000
vt -0.00090587 -0.00011926
vt 0.78539819 0.00000000
vt 2.09439516 1.57079637
vt 3.14159274 0.52359879
vt 5.23598766 -0.03195000
vt 2.35619450 -0.03575000
vt 4.45058966 -3.14159274
vt 5.23598766 -2.61799383
vt 0.00212504 -0.00293060
vt -0.00139430 -0.00241500
vt 0.00175000 -0.00046891
vt -0.00056940 -0.00137496
vt 2.35619450 1.04719758
vt 5.49778700 0.26179940
vt 3.92699075 0.00000000
vt 2.09439516 0.52359879
vt 1.83259571 -2.35619450
vt 1.30899692 -1.83259571
vt 4.97418833 0.52359879
vt 0.00303109 -0.00525000
vt 0.52359879 -0.03195000
vt 0.00000000 -0.00570000
vt 5.75958633 0.52359879
vt 0.52359879 -2.61799383
vt 2.61799383 -0.03595000
vt 2.09439516 -0.00000000
vt 1.04719758 -2.35619450
vt 0.78539819 0.26179940
vt 3.40339208 -2.35619450
vt 0.00175000 -0.00653109
vt -0.00090587 -0.00688074
vt 4.71238899 0.26179940
vt 0.00190526 -0.00460000
vt 3.14159274 1.04719758
vt -0.00165000 0.00285788
vt 5.89048624 -0.00088652
vt 2.35619450 -0.00000000
vt 1.83259571 -2.87979317
vt -0.00088652 0.00000000
vt 4.45058966 -0.03195000
vt 5.49778700 -0.00000000
vt 2.87979317 1.57079637
vt 6.02138615 1.57079637
vt 0.26179940 1.30899692
vt 0.26179940 -0.05136000
vt 2.35619450 0.52359879
vt 5.49778700 -0.03195000
vt 0.00000000 -0.00177304
vt 4.97418833 -0.05136000
vt 3.14159274 -3.14159274
vt 0.00338074 -0.00440587
vt 0.52359879 -2.35619450
vt 3.14159274 -0.03595000
vt 2.61799383 -2.35619450
vt 4.71238899 -1.57079637
vt 4.18879032 0.52359879
vt 0.78539819 -2.87979317
vt 1.04719758 -0.00000000
vt 1.30899692 0.00039000
vt 2.09439516 -1.83259571
vt 3.92699075 -2.87979317
vt 4.71238899 -0.03195000
vt 0.00139430 -0.00080500
vt 1.83259571 0.26179940
vt -0.00193292 -0.00414274
vt 0.00000000 -0.00000000
vt 1.57079637 0.78539819
vt 3.40339208 0.26179940
vt 0.52359879 0.52359879
vt 6.28318548 -2.09439516
vt 6.02138615 0.00039000
vt 2.61799383 0.52359879
vt 2.35619450 0.00039000
vt 2.09439516 -2.61799383
vt 5.75958633 1.57079637
vt 4.18879032 -2.35619450
vt 2.61799383 -1.57079637
vt -0.00233345 0.00233345
vt 4.97418833 0.00039000
vt 1.70169604 -0.00088652
vt 1.04719758 -0.03595000
vt 0.00000000 -0.00200000
vt 0.00153550 -0.00088652
vt -0.00193292 -0.00117638
vt -0.00177304 -0.00000000
vt 4.45058966 0.78539819
vt 3.92699075 1.57079637
vt 2.87979317 0.78539819
vt 3.40339208 -2.09439516
vt 0.78539819 -0.03575000
vt -0.00000000 -0.00200000
vt -0.00041670 -0.00316514
vt 3.14159274 -2.61799383
vt 2.61799383 -1.83259571
vt 4.45058966 -0.03575000
vt 1.04719758 0.00039000
vt 3.92699075 -1.57079637
vt -0.00177304 0.00000000
vt 3.92699075 -0.00000000
vt 2.35619450 -0.03595000
vt 3.14159274 0.00000000
vt 6.02138615 -0.03595000
vt -0.00175000 -0.00653109
vt 2.35619450 -2.09439516
vt 0.26179940 -3.14159274
vt 0.00190526 -0.00240000
vt 0.52359879 -0.03575000
vt 1.57079637 0.00000000
vt 5.75958633 1.04719758
vt 0.00056940 -0.00562504
vt 3.92699075 1.30899692
vt 4.97418833 -2.87979317
vt -0.00113808 -0.00117638
vt 1.57079637 -2.09439516
vt 3.40339208 0.00000000
vt 6.54498482 -0.05136000
vt 0.26179940 -2.09439516
vt 3.92699075 -2.61799383
vt 2.61799383 -3.14159274
vt 3.92699075 1.04719758
vt 1.30899692 -0.03595000
vt 0.52359879 -0.03595000
vt 5.23598766 0.00000000
vt 3.14159274 0.78539819
vt 5.23598766 -1.83259571
vt 0.78539819 -2.61799383
vt 3.40339208 0.52359879
vt 2.61799383 -0.05136000
vt -0.00020572 -0.00342731
vt 6.28318548 -2.35619450
vt 5.75958633 -1.83259571
vt 0.00165000 -0.00285788
vt -0.00088652 0.00000000
vt -0.00110000 -0.00540526
vt 3.66519141 -0.03195000
vt 1.04719758 -1.83259571
vt 3.40339208 -0.03595000
vt 4.45058966 -0.03595000
vt 3.92699075 -3.14159274
vt 2.09439516 0.78539819
vt 5.49778700 -2.09439516
vt 3.66519141 0.00039000
vt 2.35619450 -2.87979317
vt 0.00285788 0.00165000
vt 0.26179940 -1.57079637
vt -0.00044974 -0.00374533
vt 2.09439516 -2.35619450
vt 2.35619450 0.00000000
vt 1.04719758 0.26179940
vt 6.28318548 -1.83259571
vt 6.54498482 0.00000000
vt 4.18879032 -0.00000000
vt -0.00165000 -0.00285788
vt 5.75958633 -2.35619450
vt 1.30899692 -2.87979317
vt 0.52359879 -2.87979317
vt 1.57079637 1.04719758
vt 5.75958633 0.00000000
vt 0.00233345 -0.00233345
vt 3.14159274 1.30899692
vt 0.78539819 0.00000000
vt 2.87979317 -3.14159274
vt 2.35619450 0.26179940
vt 3.66519141 0.52359879
vt 4.71238899 -0.00000000
vt 4.45058966 -2.87979317
vt 0.26179940 -2.35619450
vt 4.97418833 1.04719758
vt 5.23598766 1.04719758
vt -0.00088652 0.00000000
vt 3.66519141 -0.00000000
vt 1.04719758 -0.03195000
vt 0.78539819 -0.00000000
vt 0.52359879 1.57079637
vt 0.26179940 0.78539819
vt 6.54498482 -3.14159274
vt 1.57079637 -0.03595000
vt 1.30899692 0.26179940
vt -0.00212504 -0.00406940
vt 4.71238899 1.30899692
vt 5.49778700 -1.83259571
vt -0.00338074 -0.00259413
vt 0.65449846 -0.00088652
vt 5.49778700 -1.57079637
vt -0.00286528 -0.00189181
vt 0.78539819 -2.09439516
vt 0.00153550 0.00088652
vt 4.97418833 -0.03195000
vt 5.75958633 -2.09439516
vt 2.61799383 0.78539819
vt 6.54498482 -2.09439516
vt 4.45058966 1.57079637
vt 0.00303109 -0.00175000
vt 6.28318548 0.00000000
vt 2.35619450 -0.03195000
vt 2.87979317 -0.00000000
vt 4.45058966 1.30899692
vt 5.49778700 1.30899692
vt 5.23598766 -0.03575000
vt 6.02138615 -0.03195000
vt 1.83259571 -2.61799383
vt 2.87979317 -0.03595000
vt 4.18879032 1.04719758
vt 5.49778700 1.57079637
vt 1.83259571 0.00000000
vt 4.71238899 0.00039000
vt 3.66519141 -0.03575000
vt 3.92699075 0.78539819
vt 5.62868690 -0.00088652
vt -0.00155563 -0.00194437
vt -0.00000000 0.00177304
vt 4.18879032 1.30899692
vt 2.87979317 -2.09439516
vt 2.09439516 -3.14159274
vt 1.30899692 -0.03195000
vt 1.30899692 1.30899692
vt 0.39269909 -0.00088652
vt 5.23598766 -2.09439516
vt 0.00000000 -0.03595000
vt 3.53429174 -0.00088652
vt 6.02138615 0.78539819
vt -0.00230325 -0.00132978
vt 6.28318548 -0.03575000
vt 4.97418833 0.00000000
vt -0.00307100 -0.00177304
vt -0.00285788 0.00165000
vt 5.49778700 0.00039000
vt 0.26179940 0.00000000
vt -0.00350000 -0.00350000
vt 3.66519141 -0.03595000
vt 5.23598766 -0.00000000
vt 2.35619450 1.30899692
vt 0.78539819 1.04719758
vt 2.87979317 -0.03575000
vt 5.23598766 -2.87979317
vt 2.74889350 -0.00088652
vt 1.57079637 -1.83259571
vt 4.45058966 0.00039000
vt 3.40339208 -1.83259571
vt 4.18879032 1.57079637
vt 5.75958633 -1.57079637
vt -0.00113808 -0.00414274
vt 0.00113844 -0.00047156
vt 6.28318548 -0.03595000
vt 0.00220000 -0.00350000
vt 2.09439516 1.30899692
vt 6.54498482 -2.35619450
vt 1.57079637 0.26179940
vt 0.52359879 0.00039000
vt 5.75958633 1.30899692
vt -0.00220000 -0.00350000
vt 6.28318548 0.52359879
vt 3.40339208 1.57079637
vt 2.61799383 -2.09439516
vt 6.54498482 0.78539819
vt 5.23598766 0.26179940
usemtl Nobel
f 446/1 445/2 444/3
f 419/4 445/2 446/5
f 446/6 416/7 442/8
f 443/9 416/7 446/10
f 444/3 443/9 446/11
f 446/12 440/13 427/14
f 441/15 440/13 446/16
f 442/8 441/15 446/17
f 446/18 438/19 437/20
f 439/21 438/19 446/22
f 427/14 439/21 446/23
f 446/24 430/25 429/26
f 425/27 430/25 446/28
f 437/20 425/27 446/29
f 446/30 423/31 436/32
f 428/33 423/31 446/34
f 429/26 428/33 446/35
f 446/36 434/37 421/38
f 435/39 434/37 446/40
f 436/32 435/39 446/41
f 446/42 432/43 431/44
f 433/45 432/43 446/46
f 421/38 433/45 446/47
f 431/44 419/48 446/49
f 266/50 290/51 267/52
f 290/51 291/53 267/52
f 267/52 291/53 268/54
f 291/53 292/55 268/54
f 268/54 292/55 269/56
f 292/55 293/57 269/56
f 269/56 293/57 270/58
f 293/57 294/59 270/58
f 270/58 294/59 271/60
f 294/59 295/61 271/60
f 271/60 295/61 272/62
f 295/61 296/63 272/62
f 272/62 296/63 273/64
f 296/63 297/65 273/64
f 273/64 297/65 274/66
f 297/65 298/67 274/66
f 274/66 298/67 275/68
f 298/67 299/69 275/68
f 275/68 299/69 276/70
f 299/69 300/71 276/70
f 276/70 300/71 277/72
f 300/71 301/73 277/72
f 277/72 301/73 278/74
f 301/73 302/75 278/74
f 278/74 302/75 279/76
f 302/75 303/77 279/76
f 279/76 303/77 280/78
f 303/77 304/79 280/78
f 280/78 304/79 281/80
f 304/79 305/81 281/80
f 281/80 305/81 282/82
f 305/81 306/83 282/82
f 282/82 306/83 283/84
f 306/83 307/85 283/84
f 283/84 307/85 284/86
f 307/85 308/87 284/86
f 284/86 308/87 285/88
f 308/87 309/89 285/88
f 285/88 309/89 286/90
f 309/89 310/91 286/90
f 286/90 310/91 287/92
f 310/91 311/93 287/92
f 287/92 311/93 288/94
f 311/93 312/95 288/94
f 288/94 312/95 289/96
f 312/95 313/97 289/96
f 289/96 313/97 266/98
f 313/97 290/99 266/98
f 313/100 314/101 290/51
f 314/101 315/102 290/51
f 290/51 315/102 291/53
f 315/102 316/103 291/53
f 291/53 316/103 292/55
f 316/103 317/104 292/55
f 292/55 317/104 293/57
f 317/104 318/105 293/57
f 293/57 318/105 294/59
f 318/105 319/106 294/59
f 294/59 319/106 295/61
f 319/106 320/107 295/61
f 295/61 320/107 296/63
f 320/107 321/108 296/63
f 296/63 321/108 297/65
f 321/108 322/109 297/65
f 297/65 322/109 298/67
f 322/109 323/110 298/67
f 298/67 323/110 299/69
f 323/110 324/111 299/69
f 299/69 324/111 300/71
f 324/111 325/112 300/71
f 300/71 325/112 301/73
f 325/112 326/113 301/73
f 301/73 326/113 302/75
f 326/113 327/114 302/75
f 302/75 327/114 303/77
f 327/114 328/115 303/77
f 303/77 328/115 304/79
f 328/115 329/116 304/79
f 304/79 329/116 305/81
f 329/116 330/117 305/81
f 305/81 330/117 306/83
f 330/117 331/118 306/83
f 306/83 331/118 307/85
f 331/118 332/119 307/85
f 307/85 332/119 308/87
f 332/119 333/120 308/87
f 308/87 333/120 309/89
f 333/120 334/121 309/89
f 309/89 334/121 310/91
f 334/121 335/122 310/91
f 310/91 335/122 311/93
f 335/122 336/123 311/93
f 311/93 336/123 312/95
f 336/123 337/124 312/95
f 312/95 337/124 313/97
f 337/124 314/125 313/97
f 337/126 338/127 314/101
f 338/127 339/128 314/101
f 314/101 339/128 315/102
f 339/128 340/129 315/102
f 315/102 340/129 316/103
f 340/129 341/130 316/103
f 316/103 341/130 317/104
f 341/130 342/131 317/104
f 317/104 342/131 318/105
f 342/131 343/132 318/105
f 318/105 343/132 319/106
f 343/132 344/133 319/106
f 319/106 344/133 320/107
f 344/133 345/134 320/107
f 320/107 345/134 321/108
f 345/134 346/135 321/108
f 321/108 346/135 322/109
f 346/135 347/136 322/109
f 322/109 347/136 323/110
f 347/136 348/137 323/110
f 323/110 348/137 324/111
f 348/137 349/138 324/111
f 324/111 349/138 325/112
f 349/138 350/139 325/112
f 325/112 350/139 326/113
f 350/139 351/140 326/113
f 326/113 351/140 327/114
f 351/140 352/141 327/114
f 327/114 352/141 328/115
f 352/141 353/142 328/115
f 328/115 353/142 329/116
f 353/142 354/143 329/116
f 329/116 354/143 330/117
f 354/143 355/144 330/117
f 330/117 355/144 331/118
f 355/144 356/145 331/118
f 331/118 356/145 332/119
f 356/145 357/146 332/119
f 332/119 357/146 333/120
f 357/146 358/147 333/120
f 333/120 358/147 334/121
f 358/147 359/148 334/121
f 334/121 359/148 335/122
f 359/148 360/149 335/122
f 335/122 360/149 336/123
f 360/149 361/150 336/123
f 336/123 361/150 337/124
f 361/150 338/151 337/124
f 361/152 362/153 338/127
f 362/153 363/154 338/127
f 338/127 363/154 339/128
f 363/154 364/155 339/128
f 339/128 364/155 340/129
f 364/155 365/156 340/129
f 340/129 365/156 341/130
f 365/156 366/157 341/130
f 341/130 366/157 342/131
f 366/157 367/158 342/131
f 342/131 367/158 343/132
f 367/158 368/159 343/132
f 343/132 368/159 344/133
f 368/159 369/160 344/133
f 344/133 369/160 345/134
f 369/160 370/161 345/134
f 345/134 370/161 346/135
f 370/161 371/162 346/135
f 346/135 371/162 347/136
f 371/162 372/163 347/136
f 347/136 372/163 348/137
f 372/163 373/164 348/137
f 348/137 373/164 349/138
f 373/164 374/165 349/138
f 349/138 374/165 350/139
f 374/165 375/166 350/139
f 350/139 375/166 351/140
f 375/166 376/167 351/140
f 351/140 376/167 352/141
f 376/167 377/168 352/141
f 352/141 377/168 353/142
f 377/168 378/169 353/142
f 353/142 378/169 354/143
f 378/169 379/170 354/143
f 354/143 379/170 355/144
f 379/170 380/171 355/144
f 355/144 380/171 356/145
f 380/171 381/172 356/145
f 356/145 381/172 357/146
f 381/172 382/173 357/146
f 357/146 382/173 358/147
f 382/173 383/174 358/147
f 358/147 383/174 359/148
f 383/174 384/175 359/148
f 359/148 384/175 360/149
f 384/175 385/176 360/149
f 360/149 385/176 361/150
f 385/176 362/177 361/150
f 385/178 386/179 362/153
f 386/179 387/180 362/153
f 362/153 387/180 363/154
f 387/180 388/181 363/154
f 363/154 388/181 364/155
f 388/181 389/182 364/155
f 364/155 389/182 365/156
f 389/182 390/183 365/156
f 365/156 390/183 366/157
f 390/183 391/184 366/157
f 366/157 391/184 367/158
f 391/184 392/185 367/158
f 367/158 392/185 368/159
f 392/185 393/186 368/159
f 368/159 393/186 369/160
f 393/186 394/187 369/160
f 369/160 394/187 370/161
f 394/187 395/188 370/161
f 370/161 395/188 371/162
f 395/188 396/189 371/162
f 371/162 396/189 372/163
f 396/189 397/190 372/163
f 372/163 397/190 373/164
f 397/190 398/191 373/164
f 373/164 398/191 374/165
f 398/191 399/192 374/165
f 374/165 399/192 375/166
f 399/192 400/193 375/166
f 375/166 400/193 376/167
f 400/193 401/194 376/167
f 376/167 401/194 377/168
f 401/194 402/195 377/168
f 377/168 402/195 378/169
f 402/195 403/196 378/169
f 378/169 403/196 379/170
f 403/196 404/197 379/170
f 379/170 404/197 380/171
f 404/197 405/198 380/171
f 380/171 405/198 381/172
f 405/198 406/199 381/172
f 381/172 406/199 382/173
f 406/199 407/200 382/173
f 382/173 407/200 383/174
f 407/200 408/201 383/174
f 383/174 408/201 384/175
f 408/201 409/202 384/175
f 384/175 409/202 385/176
f 409/202 386/203 385/176
f 409/204 243/205 386/179
f 243/205 244/206 386/179
f 386/179 244/206 387/180
f 244/206 245/207 387/180
f 387/180 245/207 388/181
f 245/207 246/208 388/181
f 388/181 246/208 389/182
f 246/208 247/209 389/182
f 389/182 247/209 390/183
f 247/209 248/210 390/183
f 390/183 248/210 391/184
f 248/210 249/211 391/184
f 391/184 249/211 392/185
f 249/211 250/212 392/185
f 392/185 250/212 393/186
f 250/212 251/213 393/186
f 393/186 251/213 394/187
f 251/213 252/214 394/187
f 394/187 252/214 395/188
f 252/214 253/215 395/188
f 395/188 253/215 396/189
f 253/215 254/216 396/189
f 396/189 254/216 397/190
f 254/216 255/217 397/190
f 397/190 255/217 398/191
f 255/217 256/218 398/191
f 398/191 256/218 399/192
f 256/218 257/219 399/192
f 399/192 257/219 400/193
f 257/219 258/220 400/193
f 400/193 258/220 401/194
f 258/220 259/221 401/194
f 401/194 259/221 402/195
f 259/221 260/222 402/195
f 402/195 260/222 403/196
f 260/222 261/223 403/196
f 403/196 261/223 404/197
f 261/223 262/224 404/197
f 404/197 262/224 405/198
f 262/224 263/225 405/198
f 405/198 263/225 406/199
f 263/225 264/226 406/199
f 406/199 264/226 407/200
f 264/226 265/227 407/200
f 407/200 265/227 408/201
f 265/227 242/228 408/201
f 408/201 242/228 409/202
f 242/228 243/229 409/202
f 61/230 98/231 60/232
f 98/231 99/233 60/232
f 60/232 99/233 59/234
f 99/233 100/235 59/234
f 59/234 100/235 58/236
f 100/235 101/237 58/236
f 58/236 101/237 57/238
f 101/237 102/239 57/238
f 57/238 102/239 56/240
f 102/239 103/241 56/240
f 56/240 103/241 55/242
f 103/241 104/243 55/242
f 55/242 104/243 54/244
f 104/243 105/245 54/244
f 54/244 105/245 53/246
f 105/245 106/247 53/246
f 53/246 106/247 52/248
f 106/247 107/249 52/248
f 52/248 107/249 51/250
f 107/249 108/251 51/250
f 51/250 108/251 50/252
f 108/251 109/253 50/252
f 50/252 109/253 73/254
f 109/253 110/255 73/254
f 73/254 110/255 72/256
f 110/255 111/257 72/256
f 72/256 111/257 71/258
f 111/257 112/259 71/258
f 71/258 112/259 70/260
f 112/259 113/261 70/260
f 70/260 113/261 69/262
f 113/261 114/263 69/262
f 69/262 114/263 68/264
f 114/263 115/265 68/264
f 68/264 115/265 67/266
f 115/265 116/267 67/266
f 67/266 116/267 66/268
f 116/267 117/269 66/268
f 66/268 117/269 65/270
f 117/269 118/271 65/270
f 65/270 118/271 64/272
f 118/271 119/273 64/272
f 64/272 119/273 63/274
f 119/273 120/275 63/274
f 63/274 120/275 62/276
f 120/275 121/277 62/276
f 62/276 121/277 61/278
f 121/277 98/279 61/278
f 98/231 122/280 99/233
f 122/280 123/281 99/233
f 99/233 123/281 100/235
f 123/281 124/282 100/235
f 100/235 124/282 101/237
f 124/282 125/283 101/237
f 101/237 125/283 102/239
f 125/283 126/284 102/239
f 102/239 126/284 103/241
f 126/284 127/285 103/241
f 103/241 127/285 104/243
f 127/285 128/286 104/243
f 104/243 128/286 105/245
f 128/286 129/287 105/245
f 105/245 129/287 106/247
f 129/287 130/288 106/247
f 106/247 130/288 107/249
f 130/288 131/289 107/249
f 107/249 131/289 108/251
f 131/289 132/290 108/251
f 108/251 132/290 109/253
f 132/290 133/291 109/253
f 109/253 133/291 110/255
f 133/291 134/292 110/255
f 110/255 134/292 111/257
f 134/292 135/293 111/257
f 111/257 135/293 112/259
f 135/293 136/294 112/259
f 112/259 136/294 113/261
f 136/294 137/295 113/261
f 113/261 137/295 114/263
f 137/295 138/296 114/263
f 114/263 138/296 115/265
f 138/296 139/297 115/265
f 115/265 139/297 116/267
f 139/297 140/298 116/267
f 116/267 140/298 117/269
f 140/298 141/299 117/269
f 117/269 141/299 118/271
f 141/299 142/300 118/271
f 118/271 142/300 119/273
f 142/300 143/301 119/273
f 119/273 143/301 120/275
f 143/301 144/302 120/275
f 120/275 144/302 121/277
f 144/302 145/303 121/277
f 121/277 145/303 98/279
f 145/303 122/304 98/279
f 122/280 146/305 123/281
f 146/305 147/306 123/281
f 123/281 147/306 124/282
f 147/306 148/307 124/282
f 124/282 148/307 125/283
f 148/307 149/308 125/283
f 125/283 149/308 126/284
f 149/308 150/309 126/284
f 126/284 150/309 127/285
f 150/309 151/310 127/285
f 127/285 151/310 128/286
f 151/310 152/311 128/286
f 128/286 152/311 129/287
f 152/311 153/312 129/287
f 129/287 153/312 130/288
f 153/312 154/313 130/288
f 130/288 154/313 131/289
f 154/313 155/314 131/289
f 131/289 155/314 132/290
f 155/314 156/315 132/290
f 132/290 156/315 133/291
f 156/315 157/316 133/291
f 133/291 157/316 134/292
f 157/316 158/317 134/292
f 134/292 158/317 135/293
f 158/317 159/318 135/293
f 135/293 159/318 136/294
f 159/318 160/319 136/294
f 136/294 160/319 137/295
f 160/319 161/320 137/295
f 137/295 161/320 138/296
f 161/320 162/321 138/296
f 138/296 162/321 139/297
f 162/321 163/322 139/297
f 139/297 163/322 140/298
f 163/322 164/323 140/298
f 140/298 164/323 141/299
f 164/323 165/324 141/299
f 141/299 165/324 142/300
f 165/324 166/325 142/300
f 142/300 166/325 143/301
f 166/325 167/326 143/301
f 143/301 167/326 144/302
f 167/326 168/327 144/302
f 144/302 168/327 145/303
f 168/327 169/328 145/303
f 145/303 169/328 122/304
f 169/328 146/329 122/304
f 146/305 170/330 147/306
f 170/330 171/331 147/306
f 147/306 171/331 148/307
f 171/331 172/332 148/307
f 148/307 172/332 149/308
f 172/332 173/333 149/308
f 149/308 173/333 150/309
f 173/333 174/334 150/309
f 150/309 174/334 151/310
f 174/334 175/335 151/310
f 151/310 175/335 152/311
f 175/335 176/336 152/311
f 152/311 176/336 153/312
f 176/336 177/337 153/312
f 153/312 177/337 154/313
f 177/337 178/338 154/313
f 154/313 178/338 155/314
f 178/338 179/339 155/314
f 155/314 179/339 156/315
f 179/339 180/340 156/315
f 156/315 180/340 157/316
f 180/340 181/341 157/316
f 157/316 181/341 158/317
f 181/341 182/342 158/317
f 158/317 182/342 159/318
f 182/342 183/343 159/318
f 159/318 183/343 160/319
f 183/343 184/344 160/319
f 160/319 184/344 161/320
f 184/344 185/345 161/320
f 161/320 185/345 162/321
f 185/345 186/346 162/321
f 162/321 186/346 163/322
f 186/346 187/347 163/322
f 163/322 187/347 164/323
f 187/347 188/348 164/323
f 164/323 188/348 165/324
f 188/348 189/349 165/324
f 165/324 189/349 166/325
f 189/349 190/350 166/325
f 166/325 190/350 167/326
f 190/350 191/351 167/326
f 167/326 191/351 168/327
f 191/351 192/352 168/327
f 168/327 192/352 169/328
f 192/352 193/353 169/328
f 169/328 193/353 146/329
f 193/353 170/354 146/329
f 170/330 194/355 171/331
f 194/355 195/356 171/331
f 171/331 195/356 172/332
f 195/356 196/357 172/332
f 172/332 196/357 173/333
f 196/357 197/358 173/333
f 173/333 197/358 174/334
f 197/358 198/359 174/334
f 174/334 198/359 175/335
f 198/359 199/360 175/335
f 175/335 199/360 176/336
f 199/360 200/361 176/336
f 176/336 200/361 177/337
f 200/361 201/362 177/337
f 177/337 201/362 178/338
f 201/362 202/363 178/338
f 178/338 202/363 179/339
f 202/363 203/364 179/339
f 179/339 203/364 180/340
f 203/364 204/365 180/340
f 180/340 204/365 181/341
f 204/365 205/366 181/341
f 181/341 205/366 182/342
f 205/366 206/367 182/342
f 182/342 206/367 183/343
f 206/367 207/368 183/343
f 183/343 207/368 184/344
f 207/368 208/369 184/344
f 184/344 208/369 185/345
f 208/369 209/370 185/345
f 185/345 209/370 186/346
f 209/370 210/371 186/346
f 186/346 210/371 187/347
f 210/371 211/372 187/347
f 187/347 211/372 188/348
f 211/372 212/373 188/348
f 188/348 212/373 189/349
f 212/373 213/374 189/349
f 189/349 213/374 190/350
f 213/374 214/375 190/350
f 190/350 214/375 191/351
f 214/375 215/376 191/351
f 191/351 215/376 192/352
f 215/376 216/377 192/352
f 192/352 216/377 193/353
f 216/377 217/378 193/353
f 193/353 217/378 170/354
f 217/378 194/379 170/354
f 194/355 75/380 195/356
f 75/380 76/381 195/356
f 195/356 76/381 196/357
f 76/381 77/382 196/357
f 196/357 77/382 197/358
f 77/382 78/383 197/358
f 197/358 78/383 198/359
f 78/383 79/384 198/359
f 198/359 79/384 199/360
f 79/384 80/385 199/360
f 199/360 80/385 200/361
f 80/385 81/386 200/361
f 200/361 81/386 201/362
f 81/386 82/387 201/362
f 201/362 82/387 202/363
f 82/387 83/388 202/363
f 202/363 83/388 203/364
f 83/388 84/389 203/364
f 203/364 84/389 204/365
f 84/389 85/390 204/365
f 204/365 85/390 205/366
f 85/390 86/391 205/366
f 205/366 86/391 206/367
f 86/391 87/392 206/367
f 206/367 87/392 207/368
f 87/392 88/393 207/368
f 207/368 88/393 208/369
f 88/393 89/394 208/369
f 208/369 89/394 209/370
f 89/394 90/395 209/370
f 209/370 90/395 210/371
f 90/395 91/396 210/371
f 210/371 91/396 211/372
f 91/396 92/397 211/372
f 211/372 92/397 212/373
f 92/397 93/398 212/373
f 212/373 93/398 213/374
f 93/398 94/399 213/374
f 213/374 94/399 214/375
f 94/399 95/400 214/375
f 214/375 95/400 215/376
f 95/400 96/401 215/376
f 215/376 96/401 216/377
f 96/401 97/402 216/377
f 216/377 97/402 217/378
f 97/402 74/403 217/378
f 217/378 74/403 194/379
f 74/403 75/404 194/379
f 242/405 220/406 243/407
f 220/406 223/408 243/407
f 243/407 223/408 244/409
f 223/408 222/410 244/409
f 244/409 222/410 245/411
f 222/410 219/412 245/411
f 245/411 219/412 246/413
f 219/412 218/414 246/413
f 246/413 218/414 247/415
f 218/414 240/416 247/415
f 247/415 240/416 248/417
f 240/416 239/418 248/417
f 248/417 239/418 249/419
f 239/418 238/420 249/419
f 249/419 238/420 250/421
f 238/420 237/422 250/421
f 250/421 237/422 251/423
f 237/422 230/424 251/423
f 251/423 230/424 252/425
f 230/424 229/426 252/425
f 252/425 229/426 253/427
f 229/426 236/428 253/427
f 253/427 236/428 254/429
f 236/428 228/430 254/429
f 254/429 228/430 255/431
f 228/430 227/432 255/431
f 255/431 227/432 256/433
f 227/432 226/434 256/433
f 256/433 226/434 257/435
f 226/434 225/436 257/435
f 257/435 225/436 258/437
f 225/436 241/438 258/437
f 258/437 241/438 259/439
f 241/438 235/440 259/439
f 259/439 235/440 260/441
f 235/440 234/442 260/441
f 260/441 234/442 261/443
f 234/442 233/444 261/443
f 261/443 233/444 262/445
f 233/444 232/446 262/445
f 262/445 232/446 263/447
f 232/446 231/448 263/447
f 263/447 231/448 264/449
f 231/448 224/450 264/449
f 264/449 224/450 265/451
f 224/450 221/452 265/451
f 265/451 221/452 242/453
f 221/452 220/454 242/453
f 50/455 27/456 51/457
f 27/456 28/458 51/457
f 51/457 28/458 52/459
f 28/458 29/460 52/459
f 52/459 29/460 53/461
f 29/460 30/462 53/461
f 53/461 30/462 54/463
f 30/462 31/464 54/463
f 54/463 31/464 55/465
f 31/464 32/466 55/465
f 55/465 32/466 56/467
f 32/466 33/468 56/467
f 56/467 33/468 57/469
f 33/468 34/470 57/469
f 57/469 34/470 58/471
f 34/470 35/472 58/471
f 58/471 35/472 59/473
f 35/472 36/474 59/473
f 59/473 36/474 60/475
f 36/474 37/476 60/475
f 60/475 37/476 61/477
f 37/476 38/478 61/477
f 61/477 38/478 62/479
f 38/478 39/480 62/479
f 62/479 39/480 63/481
f 39/480 40/482 63/481
f 63/481 40/482 64/483
f 40/482 41/484 64/483
f 64/483 41/484 65/485
f 41/484 42/486 65/485
f 65/485 42/486 66/487
f 42/486 43/488 66/487
f 66/487 43/488 67/489
f 43/488 44/490 67/489
f 67/489 44/490 68/491
f 44/490 45/492 68/491
f 68/491 45/492 69/493
f 45/492 46/494 69/493
f 69/493 46/494 70/495
f 46/494 47/496 70/495
f 70/495 47/496 71/497
f 47/496 48/498 71/497
f 71/497 48/498 72/499
f 48/498 49/500 72/499
f 72/499 49/500 73/501
f 49/500 26/502 73/501
f 73/501 26/502 50/503
f 26/502 27/504 50/503
f 424/505 423/506 428/507
f 428/507 429/508 424/505
f 429/508 430/509 424/505
f 424/505 430/509 425/510
f 422/511 421/512 434/513
f 434/513 435/514 422/511
f 435/514 436/515 422/511
f 422/511 436/515 423/506
f 433/516 421/512 420/517
f 419/518 431/519 420/517
f 431/519 432/520 420/517
f 420/517 432/520 433/516
f 418/521 416/522 443/523
f 443/523 444/524 418/521
f 444/524 445/525 418/521
f 418/521 445/525 419/518
f 426/526 425/510 437/527
f 437/527 438/528 426/526
f 438/528 439/529 426/526
f 426/526 439/529 427/530
f 417/531 427/530 440/532
f 440/532 441/533 417/531
f 441/533 442/534 417/531
f 417/531 442/534 416/522
f 417/535 414/536 427/537
f 414/536 413/538 427/537
f 427/537 413/538 426/539
f 426/535 413/540 425/541
f 413/540 412/538 425/541
f 425/541 412/538 424/542
f 424/543 412/538 423/544
f 412/538 411/545 423/544
f 423/544 411/545 422/535
f 422/539 411/538 421/537
f 411/538 410/536 421/537
f 421/537 410/536 420/535
f 420/535 410/546 419/547
f 410/546 415/538 419/547
f 419/547 415/538 418/548
f 418/549 415/538 416/550
f 415/538 414/551 416/550
f 416/550 414/551 417/535
f 82/552 219/553 83/554
f 219/553 222/555 83/554
f 83/554 222/555 84/556
f 222/555 223/557 84/556
f 84/556 223/557 85/558
f 223/557 220/559 85/558
f 85/558 220/559 86/560
f 220/559 221/561 86/560
f 86/560 221/561 87/562
f 221/561 224/563 87/562
f 87/562 224/563 88/564
f 224/563 231/565 88/564
f 88/564 231/565 89/566
f 231/565 232/567 89/566
f 89/566 232/567 90/568
f 232/567 233/569 90/568
f 90/568 233/569 91/570
f 233/569 234/571 91/570
f 91/570 234/571 92/572
f 234/571 235/573 92/572
f 92/572 235/573 93/574
f 235/573 241/575 93/574
f 93/574 241/575 94/576
f 241/575 225/577 94/576
f 94/576 225/577 95/578
f 225/577 226/579 95/578
f 95/578 226/579 96/580
f 226/579 227/581 96/580
f 96/580 227/581 97/582
f 227/581 228/583 97/582
f 97/582 228/583 74/584
f 228/583 236/585 74/584
f 74/584 236/585 75/586
f 236/585 229/587 75/586
f 75/586 229/587 76/588
f 229/587 230/589 76/588
f 76/588 230/589 77/590
f 230/589 237/591 77/590
f 77/590 237/591 78/592
f 237/591 238/593 78/592
f 78/592 238/593 79/594
f 238/593 239/595 79/594
f 79/594 239/595 80/596
f 239/595 240/597 80/596
f 80/596 240/597 81/598
f 240/597 218/599 81/598
f 81/598 218/599 82/552
f 218/599 219/553 82/552
f 22/600 23/601 25/602
f 23/601 24/603 25/602
f 25/602 24/603 1/604
f 19/605 20/606 25/602
f 20/606 21/607 25/602
f 25/602 21/607 22/600
f 16/608 17/609 25/602
f 17/609 18/610 25/602
f 25/602 18/610 19/605
f 13/611 14/612 25/602
f 14/612 15/613 25/602
f 25/602 15/613 16/608
f 10/614 11/615 25/602
f 11/615 12/616 25/602
f 25/602 12/616 13/611
f 7/617 8/618 25/602
f 8/618 9/619 25/602
f 25/602 9/619 10/614
f 4/620 5/621 25/602
f 5/621 6/622 25/602
f 25/602 6/622 7/617
f 1/604 2/623 25/602
f 2/623 3/624 25/602
f 25/602 3/624 4/620
f 272/625 414/626 271/627
f 414/626 415/628 271/627
f 271/627 415/628 270/629
f 415/628 269/630 270/629
f 410/631 288/632 289/633
f 289/633 266/634 410/631
f 266/634 267/635 410/631
f 410/631 267/635 415/628
f 267/635 268/636 415/628
f 415/628 268/636 269/630
f 284/637 411/638 283/639
f 411/638 282/640 283/639
f 272/625 273/641 414/626
f 273/641 274/642 414/626
f 414/626 274/642 413/643
f 274/642 275/644 413/643
f 413/643 275/644 276/645
f 282/640 411/638 281/646
f 411/638 412/531 281/646
f 281/646 412/531 280/647
f 276/645 277/648 413/643
f 277/648 278/649 413/643
f 413/643 278/649 412/531
f 278/649 279/650 412/531
f 412/531 279/650 280/647
f 284/637 285/651 411/638
f 285/651 286/652 411/638
f 411/638 286/652 410/631
f 286/652 287/653 410/631
f 410/631 287/653 288/632
f 26/654 24/655 27/656
f 24/655 23/657 27/656
f 27/656 23/657 28/658
f 23/657 22/659 28/658
f 28/658 22/659 29/660
f 22/659 21/661 29/660
f 29/660 21/661 30/662
f 21/661 20/663 30/662
f 30/662 20/663 31/664
f 20/663 19/665 31/664
f 31/664 19/665 32/666
f 19/665 18/667 32/666
f 32/666 18/667 33/668
f 18/667 17/669 33/668
f 33/668 17/669 34/670
f 17/669 16/671 34/670
f 34/670 16/671 35/672
f 16/671 15/673 35/672
f 35/672 15/673 36/674
f 15/673 14/675 36/674
f 36/674 14/675 37/676
f 14/675 13/677 37/676
f 37/676 13/677 38/678
f 13/677 12/679 38/678
f 38/678 12/679 39/680
f 12/679 11/681 39/680
f 39/680 11/681 40/682
f 11/681 10/683 40/682
f 40/682 10/683 41/684
f 10/683 9/685 41/684
f 41/684 9/685 42/686
f 9/685 8/687 42/686
f 42/686 8/687 43/688
f 8/687 7/689 43/688
f 43/688 7/689 44/690
f 7/689 6/691 44/690
f 44/690 6/691 45/692
f 6/691 5/693 45/692
f 45/692 5/693 46/694
f 5/693 4/695 46/694
f 46/694 4/695 47/696
f 4/695 3/697 47/696
f 47/696 3/697 48/698
f 3/697 2/699 48/698
f 48/698 2/699 49/700
f 2/699 1/701 49/700
f 49/700 1/701 26/702
f 1/701 24/703 26/702
