# Exported from USD: /World/Robotiq_Hand_E_edit/base_link/Group3ROBOTIQ_HAND_E_DEFEATURE_01/Group3ROBOTIQ_HAND_E_DEFEATURE
mtllib D_A03_ASM_DOIGTS_PARALLELES_1ROBOTIQ_HAND_E_DEFEATURE.mtl

g Group3ROBOTIQ_HAND_E_DEFEATURE
v -0.02461805 -0.00890000 -0.01585739
v -0.02444258 -0.00890000 -0.01547548
v -0.02437192 -0.00890000 -0.01506117
v -0.02441091 -0.00890000 -0.01464268
v -0.02455688 -0.00890000 -0.01424855
v -0.02479989 -0.00890000 -0.01390563
v -0.02512337 -0.00890000 -0.01363729
v -0.02550528 -0.00890000 -0.01346181
v -0.02591960 -0.00890000 -0.01339116
v -0.02633808 -0.00890000 -0.01343015
v -0.02673221 -0.00890000 -0.01357612
v -0.02707513 -0.00890000 -0.01381913
v -0.02734347 -0.00890000 -0.01414261
v -0.02751895 -0.00890000 -0.01452452
v -0.02758960 -0.00890000 -0.01493883
v -0.02755061 -0.00890000 -0.01535732
v -0.02740464 -0.00890000 -0.01575145
v -0.02716163 -0.00890000 -0.01609437
v -0.02683815 -0.00890000 -0.01636271
v -0.02645624 -0.00890000 -0.01653819
v -0.02604193 -0.00890000 -0.01660884
v -0.02562345 -0.00890000 -0.01656985
v -0.02522931 -0.00890000 -0.01642388
v -0.02488639 -0.00890000 -0.01618087
v -0.02598076 -0.00890000 -0.01500000
v -0.02428795 -0.00851000 -0.01606508
v -0.02462130 -0.00851000 -0.01646692
v -0.02504729 -0.00851000 -0.01676879
v -0.02553689 -0.00851000 -0.01695012
v -0.02605675 -0.00851000 -0.01699856
v -0.02657142 -0.00851000 -0.01691079
v -0.02704584 -0.00851000 -0.01669281
v -0.02744768 -0.00851000 -0.01635947
v -0.02774955 -0.00851000 -0.01593347
v -0.02793089 -0.00851000 -0.01544387
v -0.02797932 -0.00851000 -0.01492402
v -0.02789155 -0.00851000 -0.01440934
v -0.02767357 -0.00851000 -0.01393492
v -0.02734023 -0.00851000 -0.01353308
v -0.02691424 -0.00851000 -0.01323121
v -0.02642463 -0.00851000 -0.01304988
v -0.02590478 -0.00851000 -0.01300144
v -0.02539010 -0.00851000 -0.01308921
v -0.02491568 -0.00851000 -0.01330719
v -0.02451384 -0.00851000 -0.01364054
v -0.02421197 -0.00851000 -0.01406653
v -0.02403064 -0.00851000 -0.01455613
v -0.02398221 -0.00851000 -0.01507598
v -0.02406997 -0.00851000 -0.01559066
v -0.02428795 0.00690000 -0.01606508
v -0.02462130 0.00690000 -0.01646692
v -0.02504729 0.00690000 -0.01676879
v -0.02553689 0.00690000 -0.01695012
v -0.02605675 0.00690000 -0.01699856
v -0.02657142 0.00690000 -0.01691079
v -0.02704584 0.00690000 -0.01669281
v -0.02744768 0.00690000 -0.01635947
v -0.02774955 0.00690000 -0.01593347
v -0.02793089 0.00690000 -0.01544387
v -0.02797932 0.00690000 -0.01492402
v -0.02789155 0.00690000 -0.01440934
v -0.02767357 0.00690000 -0.01393492
v -0.02734023 0.00690000 -0.01353308
v -0.02691424 0.00690000 -0.01323121
v -0.02642463 0.00690000 -0.01304988
v -0.02590478 0.00690000 -0.01300144
v -0.02539010 0.00690000 -0.01308921
v -0.02491568 0.00690000 -0.01330719
v -0.02451384 0.00690000 -0.01364054
v -0.02421197 0.00690000 -0.01406653
v -0.02403064 0.00690000 -0.01455613
v -0.02398221 0.00690000 -0.01507598
v -0.02406997 0.00690000 -0.01559066
v -0.02784285 0.00710000 -0.01382841
v -0.02808263 0.00710000 -0.01435028
v -0.02817917 0.00710000 -0.01491642
v -0.02812590 0.00710000 -0.01548826
v -0.02792643 0.00710000 -0.01602682
v -0.02759437 0.00710000 -0.01649541
v -0.02715235 0.00710000 -0.01686209
v -0.02663049 0.00710000 -0.01710187
v -0.02606434 0.00710000 -0.01719841
v -0.02549250 0.00710000 -0.01714513
v -0.02495394 0.00710000 -0.01694567
v -0.02448535 0.00710000 -0.01661361
v -0.02411867 0.00710000 -0.01617159
v -0.02387889 0.00710000 -0.01564972
v -0.02378235 0.00710000 -0.01508358
v -0.02383563 0.00710000 -0.01451174
v -0.02403509 0.00710000 -0.01397318
v -0.02436715 0.00710000 -0.01350459
v -0.02480917 0.00710000 -0.01313791
v -0.02533104 0.00710000 -0.01289813
v -0.02589718 0.00710000 -0.01280159
v -0.02646902 0.00710000 -0.01285486
v -0.02700758 0.00710000 -0.01305433
v -0.02747617 0.00710000 -0.01338639
v -0.02789634 0.00694450 -0.01440786
v -0.02798433 0.00694450 -0.01492383
v -0.02793577 0.00694450 -0.01544498
v -0.02775399 0.00694450 -0.01593582
v -0.02745136 0.00694450 -0.01636287
v -0.02704851 0.00694450 -0.01669705
v -0.02657290 0.00694450 -0.01691558
v -0.02605694 0.00694450 -0.01700357
v -0.02553578 0.00694450 -0.01695501
v -0.02504495 0.00694450 -0.01677323
v -0.02461789 0.00694450 -0.01647060
v -0.02428371 0.00694450 -0.01606775
v -0.02406518 0.00694450 -0.01559214
v -0.02397720 0.00694450 -0.01507617
v -0.02402575 0.00694450 -0.01455502
v -0.02420754 0.00694450 -0.01406419
v -0.02451016 0.00694450 -0.01363713
v -0.02491301 0.00694450 -0.01330295
v -0.02538862 0.00694450 -0.01308442
v -0.02590459 0.00694450 -0.01299643
v -0.02642575 0.00694450 -0.01304499
v -0.02691658 0.00694450 -0.01322677
v -0.02734363 0.00694450 -0.01352940
v -0.02767782 0.00694450 -0.01393225
v -0.02791048 0.00698678 -0.01440349
v -0.02799911 0.00698678 -0.01492326
v -0.02795020 0.00698678 -0.01544827
v -0.02776707 0.00698678 -0.01594272
v -0.02746221 0.00698678 -0.01637293
v -0.02705639 0.00698678 -0.01670957
v -0.02657727 0.00698678 -0.01692971
v -0.02605750 0.00698678 -0.01701835
v -0.02553250 0.00698678 -0.01696943
v -0.02503804 0.00698678 -0.01678631
v -0.02460784 0.00698678 -0.01648145
v -0.02427119 0.00698678 -0.01607563
v -0.02405105 0.00698678 -0.01559651
v -0.02396241 0.00698678 -0.01507674
v -0.02401133 0.00698678 -0.01455173
v -0.02419445 0.00698678 -0.01405728
v -0.02449931 0.00698678 -0.01362707
v -0.02490513 0.00698678 -0.01329043
v -0.02538425 0.00698678 -0.01307029
v -0.02590403 0.00698678 -0.01298165
v -0.02642903 0.00698678 -0.01303056
v -0.02692348 0.00698678 -0.01321369
v -0.02735369 0.00698678 -0.01351855
v -0.02769033 0.00698678 -0.01392437
v -0.02793324 0.00702470 -0.01439646
v -0.02802292 0.00702470 -0.01492236
v -0.02797343 0.00702470 -0.01545355
v -0.02778814 0.00702470 -0.01595384
v -0.02747969 0.00702470 -0.01638912
v -0.02706908 0.00702470 -0.01672974
v -0.02658431 0.00702470 -0.01695248
v -0.02605840 0.00702470 -0.01704216
v -0.02552721 0.00702470 -0.01699267
v -0.02502692 0.00702470 -0.01680738
v -0.02459164 0.00702470 -0.01649893
v -0.02425102 0.00702470 -0.01608832
v -0.02402828 0.00702470 -0.01560355
v -0.02393860 0.00702470 -0.01507764
v -0.02398809 0.00702470 -0.01454645
v -0.02417338 0.00702470 -0.01404616
v -0.02448184 0.00702470 -0.01361088
v -0.02489244 0.00702470 -0.01327026
v -0.02537722 0.00702470 -0.01304752
v -0.02590312 0.00702470 -0.01295784
v -0.02643432 0.00702470 -0.01300733
v -0.02693460 0.00702470 -0.01319262
v -0.02736988 0.00702470 -0.01350108
v -0.02771050 0.00702470 -0.01391168
v -0.02796350 0.00705637 -0.01438710
v -0.02805457 0.00705637 -0.01492116
v -0.02800431 0.00705637 -0.01546058
v -0.02781615 0.00705637 -0.01596862
v -0.02750291 0.00705637 -0.01641065
v -0.02708595 0.00705637 -0.01675654
v -0.02659366 0.00705637 -0.01698273
v -0.02605961 0.00705637 -0.01707380
v -0.02552018 0.00705637 -0.01702355
v -0.02501214 0.00705637 -0.01683539
v -0.02457011 0.00705637 -0.01652215
v -0.02422422 0.00705637 -0.01610518
v -0.02399803 0.00705637 -0.01561290
v -0.02390696 0.00705637 -0.01507884
v -0.02395722 0.00705637 -0.01453942
v -0.02414537 0.00705637 -0.01403138
v -0.02445861 0.00705637 -0.01358935
v -0.02487558 0.00705637 -0.01324346
v -0.02536787 0.00705637 -0.01301727
v -0.02590192 0.00705637 -0.01292620
v -0.02644134 0.00705637 -0.01297645
v -0.02694938 0.00705637 -0.01316461
v -0.02739141 0.00705637 -0.01347785
v -0.02773731 0.00705637 -0.01389482
v -0.02799973 0.00708019 -0.01437590
v -0.02809246 0.00708019 -0.01491972
v -0.02804128 0.00708019 -0.01546900
v -0.02784969 0.00708019 -0.01598632
v -0.02753073 0.00708019 -0.01643643
v -0.02710614 0.00708019 -0.01678864
v -0.02660486 0.00708019 -0.01701896
v -0.02606105 0.00708019 -0.01711170
v -0.02551176 0.00708019 -0.01706052
v -0.02499444 0.00708019 -0.01686893
v -0.02454434 0.00708019 -0.01654997
v -0.02419212 0.00708019 -0.01612538
v -0.02396180 0.00708019 -0.01562410
v -0.02386906 0.00708019 -0.01508029
v -0.02392024 0.00708019 -0.01453100
v -0.02411184 0.00708019 -0.01401368
v -0.02443080 0.00708019 -0.01356357
v -0.02485538 0.00708019 -0.01321136
v -0.02535667 0.00708019 -0.01298104
v -0.02590048 0.00708019 -0.01288830
v -0.02644976 0.00708019 -0.01293948
v -0.02696708 0.00708019 -0.01313107
v -0.02741719 0.00708019 -0.01345003
v -0.02776940 0.00708019 -0.01387462
v -0.02804011 0.00709499 -0.01436342
v -0.02813470 0.00709499 -0.01491811
v -0.02808250 0.00709499 -0.01547838
v -0.02788707 0.00709499 -0.01600605
v -0.02756173 0.00709499 -0.01646516
v -0.02712865 0.00709499 -0.01682442
v -0.02661734 0.00709499 -0.01705935
v -0.02606265 0.00709499 -0.01715394
v -0.02550238 0.00709499 -0.01710174
v -0.02497471 0.00709499 -0.01690631
v -0.02451560 0.00709499 -0.01658097
v -0.02415634 0.00709499 -0.01614789
v -0.02392141 0.00709499 -0.01563658
v -0.02382682 0.00709499 -0.01508189
v -0.02387902 0.00709499 -0.01452162
v -0.02407445 0.00709499 -0.01399395
v -0.02439979 0.00709499 -0.01353484
v -0.02483287 0.00709499 -0.01317558
v -0.02534418 0.00709499 -0.01294065
v -0.02589887 0.00709499 -0.01284606
v -0.02645914 0.00709499 -0.01289826
v -0.02698681 0.00709499 -0.01309369
v -0.02744592 0.00709499 -0.01341903
v -0.02780518 0.00709499 -0.01385211
v -0.02434718 0.00710000 -0.01809539
v -0.02360170 0.00710000 -0.01756711
v -0.02248329 0.00710000 -0.01513297
v -0.02256805 0.00710000 -0.01422323
v -0.02494711 0.00710000 -0.01165612
v -0.02584779 0.00710000 -0.01150253
v -0.02947824 0.00710000 -0.01486703
v -0.02939348 0.00710000 -0.01577677
v -0.02907615 0.00710000 -0.01663358
v -0.02854787 0.00710000 -0.01737906
v -0.02611373 0.00710000 -0.01849747
v -0.02520399 0.00710000 -0.01841271
v -0.02301835 0.00710000 -0.01686389
v -0.02288538 0.00710000 -0.01336642
v -0.02341365 0.00710000 -0.01262094
v -0.02411687 0.00710000 -0.01203758
v -0.02675753 0.00710000 -0.01158728
v -0.02784465 0.00710000 -0.01796241
v -0.02263688 0.00710000 -0.01603365
v -0.02761434 0.00710000 -0.01190461
v -0.02835982 0.00710000 -0.01243289
v -0.02894318 0.00710000 -0.01313611
v -0.02932465 0.00710000 -0.01396635
v -0.02701441 0.00710000 -0.01834388
v -0.02301835 0.01090000 -0.01686389
v -0.02360170 0.01090000 -0.01756711
v -0.02434718 0.01090000 -0.01809539
v -0.02520399 0.01090000 -0.01841271
v -0.02611373 0.01090000 -0.01849747
v -0.02701441 0.01090000 -0.01834388
v -0.02784465 0.01090000 -0.01796241
v -0.02854787 0.01090000 -0.01737906
v -0.02907615 0.01090000 -0.01663358
v -0.02939348 0.01090000 -0.01577677
v -0.02947824 0.01090000 -0.01486703
v -0.02932465 0.01090000 -0.01396635
v -0.02894318 0.01090000 -0.01313611
v -0.02835982 0.01090000 -0.01243289
v -0.02761434 0.01090000 -0.01190461
v -0.02675753 0.01090000 -0.01158728
v -0.02584779 0.01090000 -0.01150253
v -0.02494711 0.01090000 -0.01165612
v -0.02411687 0.01090000 -0.01203758
v -0.02341365 0.01090000 -0.01262094
v -0.02288538 0.01090000 -0.01336642
v -0.02256805 0.01090000 -0.01422323
v -0.02248329 0.01090000 -0.01513297
v -0.02263688 0.01090000 -0.01603365
v -0.02318763 0.01110000 -0.01675738
v -0.02373765 0.01110000 -0.01742042
v -0.02444053 0.01110000 -0.01791851
v -0.02524838 0.01110000 -0.01821770
v -0.02610613 0.01110000 -0.01829762
v -0.02695535 0.01110000 -0.01815281
v -0.02773815 0.01110000 -0.01779313
v -0.02840118 0.01110000 -0.01724312
v -0.02889927 0.01110000 -0.01654023
v -0.02919846 0.01110000 -0.01573239
v -0.02927838 0.01110000 -0.01487463
v -0.02913357 0.01110000 -0.01402541
v -0.02877390 0.01110000 -0.01324262
v -0.02822388 0.01110000 -0.01257958
v -0.02752100 0.01110000 -0.01208149
v -0.02671315 0.01110000 -0.01178230
v -0.02585539 0.01110000 -0.01170238
v -0.02500618 0.01110000 -0.01184720
v -0.02422338 0.01110000 -0.01220687
v -0.02356034 0.01110000 -0.01275688
v -0.02306226 0.01110000 -0.01345977
v -0.02276306 0.01110000 -0.01426761
v -0.02268314 0.01110000 -0.01512537
v -0.02282796 0.01110000 -0.01597459
v -0.02370740 0.01109499 -0.01745306
v -0.02441976 0.01109499 -0.01795787
v -0.02523850 0.01109499 -0.01826110
v -0.02610783 0.01109499 -0.01834209
v -0.02696849 0.01109499 -0.01819532
v -0.02776185 0.01109499 -0.01783080
v -0.02843382 0.01109499 -0.01727337
v -0.02893863 0.01109499 -0.01656101
v -0.02924186 0.01109499 -0.01574226
v -0.02932285 0.01109499 -0.01487294
v -0.02917609 0.01109499 -0.01401227
v -0.02881156 0.01109499 -0.01321892
v -0.02825413 0.01109499 -0.01254694
v -0.02754177 0.01109499 -0.01204213
v -0.02672303 0.01109499 -0.01173890
v -0.02585370 0.01109499 -0.01165791
v -0.02499303 0.01109499 -0.01180468
v -0.02419968 0.01109499 -0.01216920
v -0.02352770 0.01109499 -0.01272663
v -0.02302290 0.01109499 -0.01343899
v -0.02271966 0.01109499 -0.01425774
v -0.02263867 0.01109499 -0.01512706
v -0.02278544 0.01109499 -0.01598773
v -0.02314996 0.01109499 -0.01678108
v -0.02367866 0.01108019 -0.01748407
v -0.02440003 0.01108019 -0.01799525
v -0.02522912 0.01108019 -0.01830232
v -0.02610943 0.01108019 -0.01838433
v -0.02698098 0.01108019 -0.01823571
v -0.02778436 0.01108019 -0.01786658
v -0.02846483 0.01108019 -0.01730210
v -0.02897601 0.01108019 -0.01658073
v -0.02928308 0.01108019 -0.01575164
v -0.02936509 0.01108019 -0.01487133
v -0.02921647 0.01108019 -0.01399979
v -0.02884734 0.01108019 -0.01319640
v -0.02828286 0.01108019 -0.01251593
v -0.02756150 0.01108019 -0.01200475
v -0.02673241 0.01108019 -0.01169768
v -0.02585209 0.01108019 -0.01161567
v -0.02498055 0.01108019 -0.01176429
v -0.02417717 0.01108019 -0.01213342
v -0.02349669 0.01108019 -0.01269790
v -0.02298551 0.01108019 -0.01341926
v -0.02267845 0.01108019 -0.01424836
v -0.02259643 0.01108019 -0.01512867
v -0.02274505 0.01108019 -0.01600021
v -0.02311418 0.01108019 -0.01680360
v -0.02365289 0.01105637 -0.01751188
v -0.02438233 0.01105637 -0.01802879
v -0.02522070 0.01105637 -0.01833929
v -0.02611087 0.01105637 -0.01842223
v -0.02699218 0.01105637 -0.01827194
v -0.02780455 0.01105637 -0.01789868
v -0.02849264 0.01105637 -0.01732788
v -0.02900955 0.01105637 -0.01659844
v -0.02932005 0.01105637 -0.01576006
v -0.02940299 0.01105637 -0.01486989
v -0.02925270 0.01105637 -0.01398859
v -0.02887944 0.01105637 -0.01317621
v -0.02830864 0.01105637 -0.01248812
v -0.02757920 0.01105637 -0.01197121
v -0.02674082 0.01105637 -0.01166071
v -0.02585065 0.01105637 -0.01157777
v -0.02496935 0.01105637 -0.01172806
v -0.02415697 0.01105637 -0.01210132
v -0.02346888 0.01105637 -0.01267212
v -0.02295197 0.01105637 -0.01340157
v -0.02264147 0.01105637 -0.01423994
v -0.02255854 0.01105637 -0.01513011
v -0.02270882 0.01105637 -0.01601141
v -0.02308208 0.01105637 -0.01682379
v -0.02363136 0.01102470 -0.01753511
v -0.02436755 0.01102470 -0.01805680
v -0.02521367 0.01102470 -0.01837017
v -0.02611208 0.01102470 -0.01845387
v -0.02700153 0.01102470 -0.01830220
v -0.02782142 0.01102470 -0.01792548
v -0.02851587 0.01102470 -0.01734940
v -0.02903756 0.01102470 -0.01661322
v -0.02935093 0.01102470 -0.01576709
v -0.02943463 0.01102470 -0.01486869
v -0.02928296 0.01102470 -0.01397923
v -0.02890624 0.01102470 -0.01315934
v -0.02833017 0.01102470 -0.01246489
v -0.02759398 0.01102470 -0.01194320
v -0.02674785 0.01102470 -0.01162983
v -0.02584945 0.01102470 -0.01154613
v -0.02496000 0.01102470 -0.01169780
v -0.02414011 0.01102470 -0.01207452
v -0.02344565 0.01102470 -0.01265060
v -0.02292397 0.01102470 -0.01338679
v -0.02261059 0.01102470 -0.01423291
v -0.02252689 0.01102470 -0.01513131
v -0.02267857 0.01102470 -0.01602077
v -0.02305528 0.01102470 -0.01684066
v -0.02361516 0.01098678 -0.01755258
v -0.02435643 0.01098678 -0.01807787
v -0.02520839 0.01098678 -0.01839340
v -0.02611298 0.01098678 -0.01847768
v -0.02700857 0.01098678 -0.01832496
v -0.02783411 0.01098678 -0.01794565
v -0.02853335 0.01098678 -0.01736560
v -0.02905863 0.01098678 -0.01662434
v -0.02937417 0.01098678 -0.01577238
v -0.02945844 0.01098678 -0.01486778
v -0.02930572 0.01098678 -0.01397220
v -0.02892641 0.01098678 -0.01314665
v -0.02834636 0.01098678 -0.01244742
v -0.02760510 0.01098678 -0.01192213
v -0.02675314 0.01098678 -0.01160660
v -0.02584854 0.01098678 -0.01152232
v -0.02495296 0.01098678 -0.01167504
v -0.02412742 0.01098678 -0.01205435
v -0.02342818 0.01098678 -0.01263440
v -0.02290289 0.01098678 -0.01337566
v -0.02258736 0.01098678 -0.01422762
v -0.02250308 0.01098678 -0.01513222
v -0.02265580 0.01098678 -0.01602780
v -0.02303511 0.01098678 -0.01685335
v -0.02360511 0.01094450 -0.01756343
v -0.02434952 0.01094450 -0.01809095
v -0.02520510 0.01094450 -0.01840783
v -0.02611354 0.01094450 -0.01849246
v -0.02701293 0.01094450 -0.01833909
v -0.02784199 0.01094450 -0.01795817
v -0.02854419 0.01094450 -0.01737565
v -0.02907171 0.01094450 -0.01663124
v -0.02938859 0.01094450 -0.01577566
v -0.02947322 0.01094450 -0.01486722
v -0.02931986 0.01094450 -0.01396783
v -0.02893893 0.01094450 -0.01313878
v -0.02835642 0.01094450 -0.01243657
v -0.02761200 0.01094450 -0.01190905
v -0.02675642 0.01094450 -0.01159217
v -0.02584798 0.01094450 -0.01150754
v -0.02494859 0.01094450 -0.01166091
v -0.02411954 0.01094450 -0.01204183
v -0.02341733 0.01094450 -0.01262435
v -0.02288981 0.01094450 -0.01336876
v -0.02257294 0.01094450 -0.01422434
v -0.02248830 0.01094450 -0.01513278
v -0.02264167 0.01094450 -0.01603217
v -0.02302259 0.01094450 -0.01686122
v -0.02420900 0.01110000 -0.01506736
v -0.02503655 0.01110000 -0.01349929
v -0.02775252 0.01110000 -0.01493264
v -0.02692498 0.01110000 -0.01650071
v -0.02680831 0.01110000 -0.01343193
v -0.02515322 0.01110000 -0.01656807
v -0.02603910 0.00910000 -0.01653439
v -0.02692498 0.00910000 -0.01650071
v -0.02515322 0.00910000 -0.01656807
v -0.02468111 0.00910000 -0.01581772
v -0.02420900 0.00910000 -0.01506736
v -0.02462277 0.00910000 -0.01428332
v -0.02503655 0.00910000 -0.01349929
v -0.02592243 0.00910000 -0.01346561
v -0.02680831 0.00910000 -0.01343193
v -0.02728042 0.00910000 -0.01418228
v -0.02775252 0.00910000 -0.01493264
v -0.02733875 0.00910000 -0.01571668
v -0.02632154 0.00910000 -0.01350279
v -0.02669744 0.00910000 -0.01364201
v -0.02702449 0.00910000 -0.01387377
v -0.02451375 0.00910000 -0.01545348
v -0.02444637 0.00910000 -0.01505834
v -0.02448356 0.00910000 -0.01465922
v -0.02485453 0.00910000 -0.01395627
v -0.02516305 0.00910000 -0.01370035
v -0.02552728 0.00910000 -0.01353299
v -0.02744777 0.00910000 -0.01454652
v -0.02751515 0.00910000 -0.01494166
v -0.02747797 0.00910000 -0.01534078
v -0.02710699 0.00910000 -0.01604373
v -0.02679848 0.00910000 -0.01629965
v -0.02643424 0.00910000 -0.01646701
v -0.02563998 0.00910000 -0.01649721
v -0.02526409 0.00910000 -0.01635799
v -0.02493703 0.00910000 -0.01612623
v -0.02598076 0.00821348 -0.01500000
vt 5.49778700 -2.01959538
vt 0.00165000 0.00285788
vt 0.00000000 0.67319840
vt 0.78539819 0.44879895
vt 5.49778700 1.34639680
vt 5.23598766 1.12199736
vt 5.23598766 0.00039000
vt 1.04719758 -1.79519582
vt 5.36688757 -0.00088652
vt 3.40339208 -0.00000000
vt 1.43989658 -0.00088652
vt 6.02138615 0.00000000
vt 2.87979317 0.89759791
vt 4.97418833 -2.69279361
vt -0.00177304 -0.00200000
vt 0.00350000 -0.00350000
vt 5.75958633 -1.79519582
vt 0.78539819 -0.03195000
vt 1.04719758 -2.01959538
vt 2.09439516 -0.03195000
vt 4.97418833 -0.03575000
vt 0.26179940 0.00000000
vt 3.79609108 -0.00088652
vt 2.61799383 -1.79519582
vt 0.52359879 -2.91719317
vt 1.57079637 0.00000000
vt 1.57079637 -0.05136000
vt 0.52359879 0.00000000
vt -0.00155514 -0.00119330
vt 6.54498482 1.12199736
vt 3.66519141 1.57079637
vt 5.75958633 1.12199736
vt 1.57079637 0.22439948
vt 0.26179940 -0.03595000
vt 6.02138615 -3.14159274
vt 2.09439516 0.44879895
vt 3.14159274 -1.79519582
vt 4.45058966 -2.91719317
vt 2.61799383 -2.01959538
vt 0.26179940 1.34639680
vt 2.61799383 -2.91719317
vt 1.96349537 -0.00088652
vt 3.14159274 1.34639680
vt 1.04719758 0.67319840
vt 1.30899692 -2.91719317
vt -0.00000000 -0.00200000
vt -0.00247487 -0.00102513
vt -0.00303109 -0.00175000
vt 3.66519141 0.00000000
vt 1.30899692 0.00000000
vt 2.09439516 0.00000000
vt 4.97418833 -1.57079637
vt 6.02138615 -2.69279361
vt 6.28318548 0.89759791
vt -0.00307100 -0.00265956
vt 0.00000000 0.00000000
vt 2.61799383 0.89759791
vt 5.75958633 -0.03595000
vt 2.09439516 0.22439948
vt 1.04719758 -3.14159274
vt 4.18879032 -0.03575000
vt 1.83259571 -0.03195000
vt 2.35619450 -0.05136000
vt 3.92699075 -2.01959538
vt 6.28318548 0.44879895
vt 6.28318548 0.00000000
vt 3.66519141 -1.57079637
vt 0.78539819 -1.57079637
vt 6.54498482 -2.69279361
vt 2.35619450 -2.46839428
vt 6.02138615 -1.57079637
vt 5.23598766 0.89759791
vt 3.66519141 0.22439948
vt -0.00080500 -0.00021570
vt 4.71238899 1.57079637
vt 1.04719758 1.34639680
vt 3.92699075 -2.46839428
vt 1.04719758 1.57079637
vt 6.54498482 -1.57079637
vt -0.00000000 -0.00200000
vt 3.14159274 0.67319840
vt 2.61799383 0.00039000
vt 6.28318548 -0.03195000
vt 0.00085410 -0.00318756
vt 0.00041670 -0.00316514
vt 0.78539819 -2.69279361
vt 1.30899692 -2.46839428
vt 6.02138615 -2.46839428
vt 6.28318548 -2.24399471
vt 0.00080500 -0.00021570
vt 6.28318548 1.34639680
vt 5.75958633 0.00039000
vt 2.09439516 -2.69279361
vt 3.92699075 1.34639680
vt -0.00175000 -0.00046891
vt 4.71238899 0.00000000
vt 0.00338074 -0.00259413
vt 3.92699075 -2.24399471
vt 0.00155563 -0.00194437
vt 3.92699075 -0.03195000
vt 1.30899692 -1.79519582
vt 1.30899692 -2.01959538
vt 3.66519141 -3.14159274
vt 0.26179940 1.12199736
vt 1.57079637 1.12199736
vt 5.49778700 -0.03595000
vt 4.97418833 0.00000000
vt 6.54498482 -0.00000000
vt 4.18879032 -3.14159274
vt 6.28318548 -2.46839428
vt 3.66519141 -1.79519582
vt 2.61799383 1.57079637
vt 0.00000000 0.00039000
vt 1.57079637 -1.57079637
vt 2.35619450 1.12199736
vt 3.92699075 0.44879895
vt 2.35619450 -1.79519582
vt 0.78539819 -0.03595000
vt 5.23598766 -0.05136000
vt -0.00153550 -0.00088652
vt 0.00056940 -0.00137496
vt 3.40339208 0.22439948
vt 3.92699075 -2.91719317
vt 3.92699075 0.00000000
vt 4.71238899 -2.46839428
vt 3.66519141 0.44879895
vt 4.71238899 -0.03595000
vt 6.28318548 -2.01959538
vt 5.75958633 -2.91719317
vt 4.97418833 -2.01959538
vt 3.40339208 -0.05136000
vt -0.00153550 -0.00419506
vt 0.78539819 0.00000000
vt -0.00020572 -0.00189181
vt 3.92699075 0.89759791
vt 0.78539819 0.67319840
vt 2.87979317 -1.79519582
vt 0.26179940 -0.03195000
vt 0.26179940 -2.24399471
vt 5.75958633 -0.00000000
vt -0.00005232 -0.00305698
vt 4.45058966 0.67319840
vt 4.18879032 -0.03195000
vt 4.71238899 1.34639680
vt 4.71238899 -2.01959538
vt 0.00090587 -0.00688074
vt 3.14159274 -0.05136000
vt 1.57079637 -0.03575000
vt 3.66519141 -2.01959538
vt 4.18879032 -0.00000000
vt 0.52359879 0.67319840
vt 6.28318548 1.12199736
vt 0.26179940 -2.69279361
vt 1.57079637 -1.79519582
vt 5.49778700 0.67319840
vt -0.00230325 -0.00398935
vt -0.00318756 -0.00085410
vt 3.40339208 -1.57079637
vt 4.18879032 -2.69279361
vt 6.28318548 -3.14159274
vt 4.45058966 -0.00000000
vt 4.71238899 -2.91719317
vt -0.00153550 -0.00112406
vt 5.49778700 -0.03575000
vt 5.10508823 -0.00088652
vt -0.00113844 -0.00274844
vt 4.71238899 0.67319840
vt -0.00190526 -0.00460000
vt 1.04719758 -0.05136000
vt 4.71238899 -3.14159274
vt 1.04719758 0.44879895
vt 1.83259571 -2.91719317
vt 1.83259571 0.67319840
vt 0.52359879 -0.00000000
vt 1.57079637 1.34639680
vt 1.83259571 0.00000000
vt 0.52359879 -1.57079637
vt 5.49778700 -2.91719317
vt 4.71238899 -0.03575000
vt 0.52359879 0.00000000
vt 6.54498482 0.67319840
vt -0.00286528 -0.00342731
vt 2.09439516 -2.46839428
vt 1.83259571 -3.14159274
vt 3.14159274 -0.03195000
vt -0.00247487 -0.00597487
vt 0.00318756 0.00085410
vt 2.22529483 -0.00088652
vt 5.49778700 -3.14159274
vt 5.23598766 -2.01959538
vt 6.28318548 -2.69279361
vt 6.54498482 -0.03575000
vt 2.48709416 -0.00088652
vt 3.92699075 -0.03595000
vt 2.87979317 -0.05136000
vt 2.09439516 -0.05136000
vt 3.40339208 0.00039000
vt 6.28318548 -1.57079637
vt 0.00285788 -0.00165000
vt 1.83259571 1.34639680
vt 4.45058966 -2.69279361
vt 4.45058966 0.00000000
vt 4.84328890 -0.00088652
vt 2.35619450 0.22439948
vt 1.57079637 -2.91719317
vt -0.00000000 -0.03195000
vt 3.14159274 0.44879895
vt 0.52359879 -0.05136000
vt 0.00110000 -0.00159474
vt -0.00262126 -0.00157380
vt 5.23598766 -0.00000000
vt 1.04719758 -1.57079637
vt 0.00000000 -0.00330000
vt 2.35619450 1.57079637
vt -0.00190526 -0.00240000
vt 2.35619450 0.00000000
vt 2.09439516 -0.03575000
vt 1.57079637 0.89759791
vt 0.52359879 -3.14159274
vt 5.75958633 -0.03575000
vt 2.09439516 0.00000000
vt 1.30899692 0.22439948
vt 0.52359879 -2.69279361
vt 3.66519141 -0.05136000
vt 0.00000000 -0.00177304
vt 1.83259571 -2.69279361
vt -0.00000000 -0.00161000
vt 4.45058966 1.34639680
vt 0.00139430 -0.00241500
vt 1.83259571 -2.01959538
vt 4.45058966 -0.05136000
vt -0.00110000 -0.00159474
vt 0.78539819 1.34639680
vt -0.00212504 -0.00293060
vt 3.66519141 1.34639680
vt 0.78539819 -3.14159274
vt 3.92699075 -0.03575000
vt -0.00301868 -0.00305698
vt 1.57079637 0.00039000
vt 1.30899692 -0.05136000
vt 0.52359879 1.12199736
vt 1.30899692 1.57079637
vt 5.23598766 -3.14159274
vt 0.00000000 1.12199736
vt 2.35619450 0.00000000
vt 4.45058966 -2.46839428
vt 3.40339208 -2.01959538
vt 6.28318548 0.22439948
vt -0.00177304 0.00000000
vt 2.61799383 -2.46839428
vt -0.00139430 -0.00080500
vt 3.92699075 0.67319840
vt 0.00000000 -0.00200000
vt 1.04719758 -0.03575000
vt 3.14159274 -1.57079637
vt 3.14159274 -0.00000000
vt 1.57079637 -0.03195000
vt 4.71238899 1.12199736
vt 1.30899692 0.00000000
vt 3.66519141 0.67319840
vt -0.00080500 -0.00300430
vt 5.23598766 -2.69279361
vt -0.00000000 -0.00354609
vt 3.66519141 0.00000000
vt -0.00113844 -0.00047156
vt 1.04719758 1.12199736
vt 1.17809725 -0.00088652
vt 4.97418833 -0.03595000
vt -0.00085410 -0.00318756
vt 5.23598766 0.22439948
vt 0.26179940 0.67319840
vt 4.97418833 -1.79519582
vt 0.00155563 -0.00505563
vt 3.66519141 0.89759791
vt 4.97418833 0.67319840
vt 0.00080500 -0.00300430
vt 2.61799383 1.12199736
vt -0.00076775 -0.00398935
vt 5.75958633 -2.69279361
vt 5.23598766 -1.57079637
vt 2.35619450 0.89759791
vt 2.35619450 -2.01959538
vt 2.61799383 -0.00000000
vt 6.02138615 0.89759791
vt 2.35619450 0.67319840
vt 0.00212504 -0.00406940
vt 2.61799383 -2.69279361
vt 3.40339208 -0.03195000
vt 0.26179940 -0.03575000
vt 3.14159274 -0.03575000
vt 3.14159274 -2.46839428
vt 3.01069307 -0.00088652
vt 3.92699075 0.00000000
vt 1.30899692 1.12199736
vt 3.14159274 0.00039000
vt 6.02138615 -2.91719317
vt -0.00005232 -0.00226215
vt 1.30899692 0.89759791
vt 1.30899692 0.67319840
vt -0.00318756 0.00085410
vt 0.00155514 -0.00202670
vt -0.00155563 -0.00505563
vt 1.30899692 -3.14159274
vt 3.40339208 0.44879895
vt 0.00247487 -0.00597487
vt 3.27249241 -0.00088652
vt 0.78539819 1.57079637
vt 1.30899692 -0.03575000
vt 2.61799383 -0.03575000
vt -0.00000000 -0.00000000
vt 6.02138615 -1.79519582
vt 3.92699075 -0.05136000
vt 3.40339208 0.89759791
vt -0.00233345 -0.00233345
vt 0.26179940 -0.00000000
vt 2.35619450 1.34639680
vt 5.23598766 1.57079637
vt 2.35619450 -3.14159274
vt 4.71238899 -2.69279361
vt -0.00000000 -0.00570000
vt 6.54498482 0.44879895
vt 2.87979317 1.12199736
vt 5.75958633 -0.05136000
vt -0.00076775 -0.00132978
vt 0.00161000 -0.00161000
vt 3.92699075 -1.79519582
vt 6.02138615 -0.03575000
vt 2.61799383 0.00000000
vt 4.97418833 -3.14159274
vt 5.75958633 -3.14159274
vt 3.14159274 0.00000000
vt 0.78539819 0.00000000
vt 0.26179940 -2.91719317
vt 3.14159274 -2.91719317
vt -0.00000000 -0.00700000
vt 0.00000000 0.22439948
vt 1.30899692 1.34639680
vt -0.00088652 -0.00000000
vt 1.83259571 -2.24399471
vt 6.54498482 -1.79519582
vt -0.00161000 -0.00161000
vt 4.97418833 -2.91719317
vt 0.00041670 -0.00005486
vt 2.87979317 0.44879895
vt 6.54498482 -2.24399471
vt 1.30899692 -0.00000000
vt -0.00153550 -0.00443261
vt 1.30899692 -1.57079637
vt 6.15228558 -0.00088652
vt 0.78539819 1.12199736
vt 2.09439516 -1.57079637
vt 1.83259571 1.57079637
vt 4.18879032 0.00039000
vt 0.78539819 -0.05136000
vt -0.00177304 0.00000000
vt 0.00233345 0.00233345
vt 2.87979317 -0.03195000
vt 0.26179940 0.00039000
vt 4.58148909 -0.00088652
vt 4.18879032 -2.46839428
vt -0.00085410 0.00318756
vt 6.02138615 -0.00000000
vt 3.14159274 1.57079637
vt 0.78539819 0.22439948
vt 4.71238899 -0.05136000
vt 2.35619450 -1.57079637
vt -0.00000000 -0.00130000
vt 6.02138615 1.12199736
vt -0.00088652 -0.00000000
vt 5.49778700 0.22439948
vt 1.04719758 -2.91719317
vt 0.00113844 -0.00274844
vt -0.00177304 -0.00000000
vt 1.04719758 0.00000000
vt 4.97418833 -0.00000000
vt 3.66519141 -2.69279361
vt 1.83259571 -0.05136000
vt 5.75958633 -2.01959538
vt 4.18879032 -0.05136000
vt 5.23598766 0.00000000
vt 5.23598766 0.67319840
vt 6.28318548 1.57079637
vt 2.87979317 -1.57079637
vt 5.49778700 -0.05136000
vt 0.00000000 -0.00000000
vt 4.31968975 -0.00088652
vt 0.00247487 -0.00102513
vt 5.23598766 -0.03595000
vt 4.97418833 -2.46839428
vt 2.61799383 0.44879895
vt 3.92699075 0.00039000
vt 3.14159274 -2.24399471
vt -0.00153550 0.00088652
vt 4.97418833 1.57079637
vt -0.00000000 -0.00322000
vt 0.00000000 0.44879895
vt 2.87979317 -2.91719317
vt 5.75958633 -0.03195000
vt 2.09439516 -2.91719317
vt 5.23598766 1.34639680
vt 5.49778700 1.12199736
vt 0.26179940 0.44879895
vt 0.00318756 -0.00085410
vt -0.00056940 -0.00562504
vt 0.00000000 0.89759791
vt 6.28318548 0.00039000
vt 3.40339208 -2.69279361
vt 2.61799383 -0.03195000
vt 1.83259571 0.89759791
vt 4.97418833 -2.24399471
vt 5.75958633 -2.24399471
vt 6.54498482 -2.91719317
vt 5.75958633 0.44879895
vt -0.00307100 -0.00354609
vt 0.26179940 -1.79519582
vt -0.00338074 -0.00440587
vt 3.40339208 -0.03575000
vt 1.57079637 -2.46839428
vt 3.66519141 -2.91719317
vt 1.57079637 -2.69279361
vt 0.52359879 -2.01959538
vt -0.00303109 -0.00525000
vt -0.00041670 -0.00005486
vt -0.00285788 -0.00165000
vt 1.57079637 1.57079637
vt 4.18879032 -1.79519582
vt 0.26179940 1.57079637
vt 0.78539819 0.89759791
vt 1.83259571 1.12199736
vt 2.09439516 0.67319840
vt 1.83259571 0.00039000
vt 0.78539819 -2.01959538
vt 1.57079637 -0.00000000
vt 2.35619450 -2.24399471
vt 0.13089970 -0.00088652
vt 1.83259571 -0.03575000
vt 2.87979317 0.00039000
vt 2.09439516 -0.03595000
vt 2.87979317 -2.46839428
vt 1.57079637 0.00000000
vt 3.40339208 -3.14159274
vt -0.00044974 -0.00157380
vt 0.00155514 -0.00119330
vt 0.00110000 -0.00540526
vt 1.30899692 -2.24399471
vt 4.45058966 -1.57079637
vt 0.91629785 -0.00088652
vt 3.40339208 1.12199736
vt 2.87979317 -2.01959538
vt -0.00301868 -0.00226215
vt 5.49778700 -2.69279361
vt -0.00000000 0.00177304
vt 4.05789042 -0.00088652
vt 0.52359879 -2.24399471
vt 5.49778700 -2.24399471
vt -0.00000000 -0.00000000
vt 3.66519141 -2.46839428
vt 6.28318548 -1.79519582
vt -0.00262126 -0.00374533
vt 1.83259571 -0.00000000
vt 4.18879032 -1.57079637
vt 0.78539819 0.00039000
vt 1.83259571 -1.57079637
vt 2.09439516 0.00039000
vt 3.40339208 0.00000000
vt 0.00090587 -0.00011926
vt 1.57079637 -3.14159274
vt 0.00085410 0.00318756
vt 6.02138615 0.22439948
vt 6.28318548 -0.05136000
vt 4.18879032 -0.03595000
vt 4.71238899 -2.24399471
vt 1.83259571 -0.03595000
vt -0.00155514 -0.00202670
vt 0.26179940 0.89759791
vt 6.02138615 -0.05136000
vt -0.00090587 -0.00011926
vt 2.09439516 1.57079637
vt 5.23598766 -0.03195000
vt 2.35619450 -0.03575000
vt 4.45058966 -3.14159274
vt 0.00212504 -0.00293060
vt -0.00139430 -0.00241500
vt 3.14159274 -2.01959538
vt 0.00175000 -0.00046891
vt 0.52359879 1.34639680
vt 2.61799383 1.34639680
vt -0.00056940 -0.00137496
vt 3.40339208 -2.46839428
vt 1.04719758 -2.69279361
vt 0.00303109 -0.00525000
vt 1.04719758 -0.00000000
vt 0.52359879 -0.03195000
vt 4.18879032 0.67319840
vt -0.00000000 1.57079637
vt 4.45058966 0.44879895
vt 5.23598766 0.44879895
vt 6.02138615 0.00000000
vt 2.61799383 -0.03595000
vt 2.09439516 -0.00000000
vt 4.71238899 0.22439948
vt 0.00175000 -0.00653109
vt 3.40339208 1.34639680
vt -0.00090587 -0.00688074
vt 0.00190526 -0.00460000
vt 4.45058966 0.00000000
vt -0.00165000 0.00285788
vt 5.89048624 -0.00088652
vt 2.61799383 0.67319840
vt 2.35619450 -0.00000000
vt 2.87979317 0.00000000
vt 1.57079637 -2.24399471
vt 0.52359879 0.44879895
vt 5.49778700 -0.00000000
vt 5.23598766 -1.79519582
vt 4.45058966 -0.03195000
vt 3.40339208 -2.24399471
vt -0.00088652 0.00000000
vt 4.97418833 0.22439948
vt 1.57079637 0.44879895
vt 2.87979317 1.57079637
vt 6.02138615 1.57079637
vt 0.26179940 -0.05136000
vt 5.49778700 -0.03195000
vt 4.97418833 -0.05136000
vt 3.14159274 -3.14159274
vt 0.00338074 -0.00440587
vt 0.52359879 0.89759791
vt 3.14159274 -0.03595000
vt 3.14159274 -2.69279361
vt 4.71238899 -1.57079637
vt 0.26179940 -2.46839428
vt 1.04719758 -0.00000000
vt 2.87979317 -2.24399471
vt 3.40339208 0.00000000
vt 0.00000000 0.00330000
vt 5.23598766 -2.24399471
vt 1.30899692 0.00039000
vt 0.78539819 -2.91719317
vt 5.75958633 0.67319840
vt 4.71238899 -0.03195000
vt 2.87979317 0.00000000
vt 3.14159274 1.12199736
vt 5.49778700 0.44879895
vt 4.45058966 0.89759791
vt 0.00139430 -0.00080500
vt 4.18879032 0.89759791
vt 1.83259571 0.44879895
vt 5.75958633 0.22439948
vt -0.00193292 -0.00414274
vt 0.26179940 -2.01959538
vt 6.02138615 0.00039000
vt 2.35619450 0.00039000
vt 5.49778700 0.89759791
vt 4.18879032 -2.91719317
vt -0.00330000 -0.00000000
vt 4.18879032 0.00000000
vt 0.00000000 -0.00177304
vt 5.75958633 1.57079637
vt 4.71238899 0.44879895
vt 2.61799383 -1.57079637
vt -0.00233345 0.00233345
vt 4.97418833 0.00039000
vt 1.70169604 -0.00088652
vt 4.97418833 1.12199736
vt 3.66519141 -2.24399471
vt 1.04719758 -0.03595000
vt -0.00193292 -0.00117638
vt 0.00000000 -0.00200000
vt -0.00177304 -0.00000000
vt 0.00153550 -0.00088652
vt 3.92699075 1.57079637
vt 1.04719758 -2.46839428
vt 0.78539819 -0.03575000
vt -0.00000000 -0.00200000
vt 2.87979317 0.22439948
vt -0.00041670 -0.00316514
vt 4.71238899 0.89759791
vt 4.45058966 -0.03575000
vt 1.04719758 0.00039000
vt 5.75958633 0.00000000
vt 6.02138615 0.67319840
vt 4.71238899 -1.79519582
vt 3.92699075 -1.57079637
vt -0.00177304 0.00000000
vt 3.92699075 -0.00000000
vt 0.78539819 -1.79519582
vt 2.35619450 -0.03595000
vt 4.18879032 1.34639680
vt 3.92699075 -2.69279361
vt 6.02138615 -0.03595000
vt 2.61799383 0.00000000
vt -0.00175000 -0.00653109
vt 2.09439516 -1.79519582
vt 0.26179940 -3.14159274
vt 2.09439516 1.12199736
vt 0.00190526 -0.00240000
vt 6.28318548 -0.00000000
vt 0.52359879 -0.03575000
vt 6.02138615 -2.01959538
vt 2.09439516 -2.24399471
vt 5.49778700 0.00000000
vt 0.00056940 -0.00562504
vt 6.54498482 1.34639680
vt -0.00113808 -0.00117638
vt 0.52359879 0.22439948
vt 1.83259571 0.22439948
vt 6.54498482 -0.05136000
vt 1.30899692 -2.69279361
vt 3.14159274 0.89759791
vt 3.14159274 0.00000000
vt 6.02138615 1.34639680
vt 2.61799383 -3.14159274
vt 1.30899692 -0.03595000
vt 0.52359879 -0.03595000
vt 4.71238899 0.00000000
vt 2.35619450 -2.69279361
vt 2.61799383 -0.05136000
vt -0.00020572 -0.00342731
vt 6.54498482 -2.46839428
vt 0.00165000 -0.00285788
vt -0.00088652 0.00000000
vt 4.45058966 0.22439948
vt 3.66519141 -0.03195000
vt -0.00110000 -0.00540526
vt 3.40339208 -0.03595000
vt 4.45058966 -0.03595000
vt 3.92699075 -3.14159274
vt 2.61799383 0.22439948
vt 4.97418833 1.34639680
vt 3.66519141 0.00039000
vt 2.35619450 -2.91719317
vt 3.66519141 1.12199736
vt 4.18879032 0.44879895
vt 1.83259571 0.00000000
vt 0.00285788 0.00165000
vt 2.87979317 -2.69279361
vt 0.26179940 -1.57079637
vt -0.00044974 -0.00374533
vt 6.54498482 -2.01959538
vt 4.18879032 -2.24399471
vt 3.92699075 1.12199736
vt -0.00165000 -0.00285788
vt 1.04719758 0.89759791
vt 5.23598766 -2.46839428
vt 0.00233345 -0.00233345
vt 1.57079637 0.67319840
vt 4.97418833 0.00000000
vt 2.61799383 -2.24399471
vt 2.87979317 -3.14159274
vt 4.71238899 -0.00000000
vt 4.97418833 0.44879895
vt 6.28318548 -2.91719317
vt -0.00088652 0.00000000
vt 4.18879032 1.12199736
vt 3.40339208 -1.79519582
vt 3.66519141 -0.00000000
vt 1.04719758 -0.03195000
vt 0.78539819 -0.00000000
vt 1.57079637 -2.01959538
vt 0.52359879 1.57079637
vt 1.04719758 -2.24399471
vt 3.40339208 0.67319840
vt 2.35619450 0.44879895
vt 3.14159274 0.22439948
vt 6.54498482 -3.14159274
vt 0.26179940 0.22439948
vt 4.18879032 -2.01959538
vt 1.57079637 -0.03595000
vt -0.00212504 -0.00406940
vt -0.00338074 -0.00259413
vt 0.65449846 -0.00088652
vt 5.49778700 -1.57079637
vt -0.00286528 -0.00189181
vt 0.00153550 0.00088652
vt 4.97418833 -0.03195000
vt 2.87979317 1.34639680
vt 6.54498482 0.89759791
vt 5.75958633 -2.46839428
vt 4.45058966 1.57079637
vt 5.23598766 -2.91719317
vt 4.45058966 -2.01959538
vt 1.30899692 0.44879895
vt 0.00303109 -0.00175000
vt 6.28318548 0.00000000
vt 2.35619450 -0.03195000
vt 2.87979317 -0.00000000
vt 5.23598766 -0.03575000
vt 6.02138615 -0.03195000
vt 4.18879032 -0.00000000
vt 2.87979317 -0.03595000
vt 5.49778700 1.57079637
vt 6.28318548 0.67319840
vt 6.54498482 0.00000000
vt 3.40339208 -2.91719317
vt 4.71238899 0.00039000
vt 3.66519141 -0.03575000
vt -0.00155563 -0.00194437
vt 5.62868690 -0.00088652
vt 3.92699075 0.22439948
vt 5.75958633 1.34639680
vt 1.04719758 0.22439948
vt 2.09439516 -3.14159274
vt 2.87979317 0.67319840
vt 0.26179940 0.00000000
vt 1.30899692 -0.03195000
vt 2.09439516 1.34639680
vt 4.45058966 -1.79519582
vt 6.02138615 0.44879895
vt 0.39269909 -0.00088652
vt 0.00000000 -0.03595000
vt 3.53429174 -0.00088652
vt -0.00230325 -0.00132978
vt 0.00330000 -0.00000000
vt 6.28318548 -0.03575000
vt 4.97418833 0.89759791
vt -0.00307100 -0.00177304
vt -0.00285788 0.00165000
vt 5.49778700 0.00000000
vt 5.49778700 0.00039000
vt -0.00350000 -0.00350000
vt 3.66519141 -0.03595000
vt 5.49778700 -1.79519582
vt 5.23598766 -0.00000000
vt 0.52359879 -1.79519582
vt 0.78539819 -2.24399471
vt 1.83259571 -1.79519582
vt 2.87979317 -0.03575000
vt 0.00000000 1.34639680
vt 2.74889350 -0.00088652
vt 4.45058966 -2.24399471
vt 4.45058966 1.12199736
vt 4.45058966 0.00039000
vt 4.18879032 1.57079637
vt 5.75958633 0.00000000
vt 5.75958633 -1.57079637
vt 0.52359879 -2.46839428
vt -0.00113808 -0.00414274
vt 1.83259571 -2.46839428
vt 0.00113844 -0.00047156
vt 5.49778700 -2.46839428
vt 6.28318548 -0.03595000
vt 4.18879032 0.22439948
vt 0.00000000 -0.00265956
vt 0.00220000 -0.00350000
vt 5.75958633 0.89759791
vt 0.52359879 0.00039000
vt 6.02138615 -2.24399471
vt 0.78539819 -2.46839428
vt 2.09439516 0.89759791
vt 2.09439516 -2.01959538
vt -0.00220000 -0.00350000
vt 3.40339208 1.57079637
vt 6.54498482 0.22439948
usemtl Nobel
f 494/1 493/2 492/3
f 467/4 493/2 494/5
f 494/6 464/7 490/8
f 491/9 464/7 494/10
f 492/3 491/9 494/11
f 494/12 488/13 475/14
f 489/15 488/13 494/16
f 490/8 489/15 494/17
f 494/18 486/19 485/20
f 487/21 486/19 494/22
f 475/14 487/21 494/23
f 494/24 478/25 477/26
f 473/27 478/25 494/28
f 485/20 473/27 494/29
f 494/30 471/31 484/32
f 476/33 471/31 494/34
f 477/26 476/33 494/35
f 494/36 482/37 469/38
f 483/39 482/37 494/40
f 484/32 483/39 494/41
f 494/42 480/43 479/44
f 481/45 480/43 494/46
f 469/38 481/45 494/47
f 479/44 467/48 494/49
f 290/50 314/51 291/52
f 314/51 315/53 291/52
f 291/52 315/53 292/54
f 315/53 316/55 292/54
f 292/54 316/55 293/56
f 316/55 317/57 293/56
f 293/56 317/57 294/58
f 317/57 318/59 294/58
f 294/58 318/59 295/60
f 318/59 319/61 295/60
f 295/60 319/61 296/62
f 319/61 320/63 296/62
f 296/62 320/63 297/64
f 320/63 321/65 297/64
f 297/64 321/65 298/66
f 321/65 322/67 298/66
f 298/66 322/67 299/68
f 322/67 323/69 299/68
f 299/68 323/69 300/70
f 323/69 324/71 300/70
f 300/70 324/71 301/72
f 324/71 325/73 301/72
f 301/72 325/73 302/74
f 325/73 326/75 302/74
f 302/74 326/75 303/76
f 326/75 327/77 303/76
f 303/76 327/77 304/78
f 327/77 328/79 304/78
f 304/78 328/79 305/80
f 328/79 329/81 305/80
f 305/80 329/81 306/82
f 329/81 330/83 306/82
f 306/82 330/83 307/84
f 330/83 331/85 307/84
f 307/84 331/85 308/86
f 331/85 332/87 308/86
f 308/86 332/87 309/88
f 332/87 333/89 309/88
f 309/88 333/89 310/90
f 333/89 334/91 310/90
f 310/90 334/91 311/92
f 334/91 335/93 311/92
f 311/92 335/93 312/94
f 335/93 336/95 312/94
f 312/94 336/95 313/96
f 336/95 337/97 313/96
f 313/96 337/97 290/98
f 337/97 314/99 290/98
f 337/100 338/101 314/51
f 338/101 339/102 314/51
f 314/51 339/102 315/53
f 339/102 340/103 315/53
f 315/53 340/103 316/55
f 340/103 341/104 316/55
f 316/55 341/104 317/57
f 341/104 342/105 317/57
f 317/57 342/105 318/59
f 342/105 343/106 318/59
f 318/59 343/106 319/61
f 343/106 344/107 319/61
f 319/61 344/107 320/63
f 344/107 345/108 320/63
f 320/63 345/108 321/65
f 345/108 346/109 321/65
f 321/65 346/109 322/67
f 346/109 347/110 322/67
f 322/67 347/110 323/69
f 347/110 348/111 323/69
f 323/69 348/111 324/71
f 348/111 349/112 324/71
f 324/71 349/112 325/73
f 349/112 350/113 325/73
f 325/73 350/113 326/75
f 350/113 351/114 326/75
f 326/75 351/114 327/77
f 351/114 352/115 327/77
f 327/77 352/115 328/79
f 352/115 353/116 328/79
f 328/79 353/116 329/81
f 353/116 354/117 329/81
f 329/81 354/117 330/83
f 354/117 355/118 330/83
f 330/83 355/118 331/85
f 355/118 356/119 331/85
f 331/85 356/119 332/87
f 356/119 357/120 332/87
f 332/87 357/120 333/89
f 357/120 358/121 333/89
f 333/89 358/121 334/91
f 358/121 359/122 334/91
f 334/91 359/122 335/93
f 359/122 360/123 335/93
f 335/93 360/123 336/95
f 360/123 361/124 336/95
f 336/95 361/124 337/97
f 361/124 338/125 337/97
f 361/126 362/127 338/101
f 362/127 363/128 338/101
f 338/101 363/128 339/102
f 363/128 364/129 339/102
f 339/102 364/129 340/103
f 364/129 365/130 340/103
f 340/103 365/130 341/104
f 365/130 366/131 341/104
f 341/104 366/131 342/105
f 366/131 367/132 342/105
f 342/105 367/132 343/106
f 367/132 368/133 343/106
f 343/106 368/133 344/107
f 368/133 369/134 344/107
f 344/107 369/134 345/108
f 369/134 370/135 345/108
f 345/108 370/135 346/109
f 370/135 371/136 346/109
f 346/109 371/136 347/110
f 371/136 372/137 347/110
f 347/110 372/137 348/111
f 372/137 373/138 348/111
f 348/111 373/138 349/112
f 373/138 374/139 349/112
f 349/112 374/139 350/113
f 374/139 375/140 350/113
f 350/113 375/140 351/114
f 375/140 376/141 351/114
f 351/114 376/141 352/115
f 376/141 377/142 352/115
f 352/115 377/142 353/116
f 377/142 378/143 353/116
f 353/116 378/143 354/117
f 378/143 379/144 354/117
f 354/117 379/144 355/118
f 379/144 380/145 355/118
f 355/118 380/145 356/119
f 380/145 381/146 356/119
f 356/119 381/146 357/120
f 381/146 382/147 357/120
f 357/120 382/147 358/121
f 382/147 383/148 358/121
f 358/121 383/148 359/122
f 383/148 384/149 359/122
f 359/122 384/149 360/123
f 384/149 385/150 360/123
f 360/123 385/150 361/124
f 385/150 362/151 361/124
f 385/152 386/153 362/127
f 386/153 387/154 362/127
f 362/127 387/154 363/128
f 387/154 388/155 363/128
f 363/128 388/155 364/129
f 388/155 389/156 364/129
f 364/129 389/156 365/130
f 389/156 390/157 365/130
f 365/130 390/157 366/131
f 390/157 391/158 366/131
f 366/131 391/158 367/132
f 391/158 392/159 367/132
f 367/132 392/159 368/133
f 392/159 393/160 368/133
f 368/133 393/160 369/134
f 393/160 394/161 369/134
f 369/134 394/161 370/135
f 394/161 395/162 370/135
f 370/135 395/162 371/136
f 395/162 396/163 371/136
f 371/136 396/163 372/137
f 396/163 397/164 372/137
f 372/137 397/164 373/138
f 397/164 398/165 373/138
f 373/138 398/165 374/139
f 398/165 399/166 374/139
f 374/139 399/166 375/140
f 399/166 400/167 375/140
f 375/140 400/167 376/141
f 400/167 401/168 376/141
f 376/141 401/168 377/142
f 401/168 402/169 377/142
f 377/142 402/169 378/143
f 402/169 403/170 378/143
f 378/143 403/170 379/144
f 403/170 404/171 379/144
f 379/144 404/171 380/145
f 404/171 405/172 380/145
f 380/145 405/172 381/146
f 405/172 406/173 381/146
f 381/146 406/173 382/147
f 406/173 407/174 382/147
f 382/147 407/174 383/148
f 407/174 408/175 383/148
f 383/148 408/175 384/149
f 408/175 409/176 384/149
f 384/149 409/176 385/150
f 409/176 386/177 385/150
f 409/178 410/179 386/153
f 410/179 411/180 386/153
f 386/153 411/180 387/154
f 411/180 412/181 387/154
f 387/154 412/181 388/155
f 412/181 413/182 388/155
f 388/155 413/182 389/156
f 413/182 414/183 389/156
f 389/156 414/183 390/157
f 414/183 415/184 390/157
f 390/157 415/184 391/158
f 415/184 416/185 391/158
f 391/158 416/185 392/159
f 416/185 417/186 392/159
f 392/159 417/186 393/160
f 417/186 418/187 393/160
f 393/160 418/187 394/161
f 418/187 419/188 394/161
f 394/161 419/188 395/162
f 419/188 420/189 395/162
f 395/162 420/189 396/163
f 420/189 421/190 396/163
f 396/163 421/190 397/164
f 421/190 422/191 397/164
f 397/164 422/191 398/165
f 422/191 423/192 398/165
f 398/165 423/192 399/166
f 423/192 424/193 399/166
f 399/166 424/193 400/167
f 424/193 425/194 400/167
f 400/167 425/194 401/168
f 425/194 426/195 401/168
f 401/168 426/195 402/169
f 426/195 427/196 402/169
f 402/169 427/196 403/170
f 427/196 428/197 403/170
f 403/170 428/197 404/171
f 428/197 429/198 404/171
f 404/171 429/198 405/172
f 429/198 430/199 405/172
f 405/172 430/199 406/173
f 430/199 431/200 406/173
f 406/173 431/200 407/174
f 431/200 432/201 407/174
f 407/174 432/201 408/175
f 432/201 433/202 408/175
f 408/175 433/202 409/176
f 433/202 410/203 409/176
f 433/204 434/205 410/179
f 434/205 435/206 410/179
f 410/179 435/206 411/180
f 435/206 436/207 411/180
f 411/180 436/207 412/181
f 436/207 437/208 412/181
f 412/181 437/208 413/182
f 437/208 438/209 413/182
f 413/182 438/209 414/183
f 438/209 439/210 414/183
f 414/183 439/210 415/184
f 439/210 440/211 415/184
f 415/184 440/211 416/185
f 440/211 441/212 416/185
f 416/185 441/212 417/186
f 441/212 442/213 417/186
f 417/186 442/213 418/187
f 442/213 443/214 418/187
f 418/187 443/214 419/188
f 443/214 444/215 419/188
f 419/188 444/215 420/189
f 444/215 445/216 420/189
f 420/189 445/216 421/190
f 445/216 446/217 421/190
f 421/190 446/217 422/191
f 446/217 447/218 422/191
f 422/191 447/218 423/192
f 447/218 448/219 423/192
f 423/192 448/219 424/193
f 448/219 449/220 424/193
f 424/193 449/220 425/194
f 449/220 450/221 425/194
f 425/194 450/221 426/195
f 450/221 451/222 426/195
f 426/195 451/222 427/196
f 451/222 452/223 427/196
f 427/196 452/223 428/197
f 452/223 453/224 428/197
f 428/197 453/224 429/198
f 453/224 454/225 429/198
f 429/198 454/225 430/199
f 454/225 455/226 430/199
f 430/199 455/226 431/200
f 455/226 456/227 431/200
f 431/200 456/227 432/201
f 456/227 457/228 432/201
f 432/201 457/228 433/202
f 457/228 434/229 433/202
f 457/230 267/231 434/205
f 267/231 268/232 434/205
f 434/205 268/232 435/206
f 268/232 269/233 435/206
f 435/206 269/233 436/207
f 269/233 270/234 436/207
f 436/207 270/234 437/208
f 270/234 271/235 437/208
f 437/208 271/235 438/209
f 271/235 272/236 438/209
f 438/209 272/236 439/210
f 272/236 273/237 439/210
f 439/210 273/237 440/211
f 273/237 274/238 440/211
f 440/211 274/238 441/212
f 274/238 275/239 441/212
f 441/212 275/239 442/213
f 275/239 276/240 442/213
f 442/213 276/240 443/214
f 276/240 277/241 443/214
f 443/214 277/241 444/215
f 277/241 278/242 444/215
f 444/215 278/242 445/216
f 278/242 279/243 445/216
f 445/216 279/243 446/217
f 279/243 280/244 446/217
f 446/217 280/244 447/218
f 280/244 281/245 447/218
f 447/218 281/245 448/219
f 281/245 282/246 448/219
f 448/219 282/246 449/220
f 282/246 283/247 449/220
f 449/220 283/247 450/221
f 283/247 284/248 450/221
f 450/221 284/248 451/222
f 284/248 285/249 451/222
f 451/222 285/249 452/223
f 285/249 286/250 452/223
f 452/223 286/250 453/224
f 286/250 287/251 453/224
f 453/224 287/251 454/225
f 287/251 288/252 454/225
f 454/225 288/252 455/226
f 288/252 289/253 455/226
f 455/226 289/253 456/227
f 289/253 266/254 456/227
f 456/227 266/254 457/228
f 266/254 267/255 457/228
f 61/256 98/257 60/258
f 98/257 99/259 60/258
f 60/258 99/259 59/260
f 99/259 100/261 59/260
f 59/260 100/261 58/262
f 100/261 101/263 58/262
f 58/262 101/263 57/264
f 101/263 102/265 57/264
f 57/264 102/265 56/266
f 102/265 103/267 56/266
f 56/266 103/267 55/268
f 103/267 104/269 55/268
f 55/268 104/269 54/270
f 104/269 105/271 54/270
f 54/270 105/271 53/272
f 105/271 106/273 53/272
f 53/272 106/273 52/274
f 106/273 107/275 52/274
f 52/274 107/275 51/276
f 107/275 108/277 51/276
f 51/276 108/277 50/278
f 108/277 109/279 50/278
f 50/278 109/279 73/280
f 109/279 110/281 73/280
f 73/280 110/281 72/282
f 110/281 111/283 72/282
f 72/282 111/283 71/284
f 111/283 112/285 71/284
f 71/284 112/285 70/286
f 112/285 113/287 70/286
f 70/286 113/287 69/288
f 113/287 114/289 69/288
f 69/288 114/289 68/290
f 114/289 115/291 68/290
f 68/290 115/291 67/292
f 115/291 116/293 67/292
f 67/292 116/293 66/294
f 116/293 117/295 66/294
f 66/294 117/295 65/296
f 117/295 118/297 65/296
f 65/296 118/297 64/298
f 118/297 119/299 64/298
f 64/298 119/299 63/300
f 119/299 120/301 63/300
f 63/300 120/301 62/302
f 120/301 121/303 62/302
f 62/302 121/303 61/304
f 121/303 98/305 61/304
f 98/257 122/306 99/259
f 122/306 123/307 99/259
f 99/259 123/307 100/261
f 123/307 124/308 100/261
f 100/261 124/308 101/263
f 124/308 125/309 101/263
f 101/263 125/309 102/265
f 125/309 126/310 102/265
f 102/265 126/310 103/267
f 126/310 127/311 103/267
f 103/267 127/311 104/269
f 127/311 128/312 104/269
f 104/269 128/312 105/271
f 128/312 129/313 105/271
f 105/271 129/313 106/273
f 129/313 130/314 106/273
f 106/273 130/314 107/275
f 130/314 131/315 107/275
f 107/275 131/315 108/277
f 131/315 132/316 108/277
f 108/277 132/316 109/279
f 132/316 133/317 109/279
f 109/279 133/317 110/281
f 133/317 134/318 110/281
f 110/281 134/318 111/283
f 134/318 135/319 111/283
f 111/283 135/319 112/285
f 135/319 136/320 112/285
f 112/285 136/320 113/287
f 136/320 137/321 113/287
f 113/287 137/321 114/289
f 137/321 138/322 114/289
f 114/289 138/322 115/291
f 138/322 139/323 115/291
f 115/291 139/323 116/293
f 139/323 140/324 116/293
f 116/293 140/324 117/295
f 140/324 141/325 117/295
f 117/295 141/325 118/297
f 141/325 142/326 118/297
f 118/297 142/326 119/299
f 142/326 143/327 119/299
f 119/299 143/327 120/301
f 143/327 144/328 120/301
f 120/301 144/328 121/303
f 144/328 145/329 121/303
f 121/303 145/329 98/305
f 145/329 122/330 98/305
f 122/306 146/331 123/307
f 146/331 147/332 123/307
f 123/307 147/332 124/308
f 147/332 148/333 124/308
f 124/308 148/333 125/309
f 148/333 149/334 125/309
f 125/309 149/334 126/310
f 149/334 150/335 126/310
f 126/310 150/335 127/311
f 150/335 151/336 127/311
f 127/311 151/336 128/312
f 151/336 152/337 128/312
f 128/312 152/337 129/313
f 152/337 153/338 129/313
f 129/313 153/338 130/314
f 153/338 154/339 130/314
f 130/314 154/339 131/315
f 154/339 155/340 131/315
f 131/315 155/340 132/316
f 155/340 156/341 132/316
f 132/316 156/341 133/317
f 156/341 157/342 133/317
f 133/317 157/342 134/318
f 157/342 158/343 134/318
f 134/318 158/343 135/319
f 158/343 159/344 135/319
f 135/319 159/344 136/320
f 159/344 160/345 136/320
f 136/320 160/345 137/321
f 160/345 161/346 137/321
f 137/321 161/346 138/322
f 161/346 162/347 138/322
f 138/322 162/347 139/323
f 162/347 163/348 139/323
f 139/323 163/348 140/324
f 163/348 164/349 140/324
f 140/324 164/349 141/325
f 164/349 165/350 141/325
f 141/325 165/350 142/326
f 165/350 166/351 142/326
f 142/326 166/351 143/327
f 166/351 167/352 143/327
f 143/327 167/352 144/328
f 167/352 168/353 144/328
f 144/328 168/353 145/329
f 168/353 169/354 145/329
f 145/329 169/354 122/330
f 169/354 146/355 122/330
f 146/331 170/356 147/332
f 170/356 171/357 147/332
f 147/332 171/357 148/333
f 171/357 172/358 148/333
f 148/333 172/358 149/334
f 172/358 173/359 149/334
f 149/334 173/359 150/335
f 173/359 174/360 150/335
f 150/335 174/360 151/336
f 174/360 175/361 151/336
f 151/336 175/361 152/337
f 175/361 176/362 152/337
f 152/337 176/362 153/338
f 176/362 177/363 153/338
f 153/338 177/363 154/339
f 177/363 178/364 154/339
f 154/339 178/364 155/340
f 178/364 179/365 155/340
f 155/340 179/365 156/341
f 179/365 180/366 156/341
f 156/341 180/366 157/342
f 180/366 181/367 157/342
f 157/342 181/367 158/343
f 181/367 182/368 158/343
f 158/343 182/368 159/344
f 182/368 183/369 159/344
f 159/344 183/369 160/345
f 183/369 184/370 160/345
f 160/345 184/370 161/346
f 184/370 185/371 161/346
f 161/346 185/371 162/347
f 185/371 186/372 162/347
f 162/347 186/372 163/348
f 186/372 187/373 163/348
f 163/348 187/373 164/349
f 187/373 188/374 164/349
f 164/349 188/374 165/350
f 188/374 189/375 165/350
f 165/350 189/375 166/351
f 189/375 190/376 166/351
f 166/351 190/376 167/352
f 190/376 191/377 167/352
f 167/352 191/377 168/353
f 191/377 192/378 168/353
f 168/353 192/378 169/354
f 192/378 193/379 169/354
f 169/354 193/379 146/355
f 193/379 170/380 146/355
f 170/356 194/381 171/357
f 194/381 195/382 171/357
f 171/357 195/382 172/358
f 195/382 196/383 172/358
f 172/358 196/383 173/359
f 196/383 197/384 173/359
f 173/359 197/384 174/360
f 197/384 198/385 174/360
f 174/360 198/385 175/361
f 198/385 199/386 175/361
f 175/361 199/386 176/362
f 199/386 200/387 176/362
f 176/362 200/387 177/363
f 200/387 201/388 177/363
f 177/363 201/388 178/364
f 201/388 202/389 178/364
f 178/364 202/389 179/365
f 202/389 203/390 179/365
f 179/365 203/390 180/366
f 203/390 204/391 180/366
f 180/366 204/391 181/367
f 204/391 205/392 181/367
f 181/367 205/392 182/368
f 205/392 206/393 182/368
f 182/368 206/393 183/369
f 206/393 207/394 183/369
f 183/369 207/394 184/370
f 207/394 208/395 184/370
f 184/370 208/395 185/371
f 208/395 209/396 185/371
f 185/371 209/396 186/372
f 209/396 210/397 186/372
f 186/372 210/397 187/373
f 210/397 211/398 187/373
f 187/373 211/398 188/374
f 211/398 212/399 188/374
f 188/374 212/399 189/375
f 212/399 213/400 189/375
f 189/375 213/400 190/376
f 213/400 214/401 190/376
f 190/376 214/401 191/377
f 214/401 215/402 191/377
f 191/377 215/402 192/378
f 215/402 216/403 192/378
f 192/378 216/403 193/379
f 216/403 217/404 193/379
f 193/379 217/404 170/380
f 217/404 194/405 170/380
f 194/381 218/406 195/382
f 218/406 219/407 195/382
f 195/382 219/407 196/383
f 219/407 220/408 196/383
f 196/383 220/408 197/384
f 220/408 221/409 197/384
f 197/384 221/409 198/385
f 221/409 222/410 198/385
f 198/385 222/410 199/386
f 222/410 223/411 199/386
f 199/386 223/411 200/387
f 223/411 224/412 200/387
f 200/387 224/412 201/388
f 224/412 225/413 201/388
f 201/388 225/413 202/389
f 225/413 226/414 202/389
f 202/389 226/414 203/390
f 226/414 227/415 203/390
f 203/390 227/415 204/391
f 227/415 228/416 204/391
f 204/391 228/416 205/392
f 228/416 229/417 205/392
f 205/392 229/417 206/393
f 229/417 230/418 206/393
f 206/393 230/418 207/394
f 230/418 231/419 207/394
f 207/394 231/419 208/395
f 231/419 232/420 208/395
f 208/395 232/420 209/396
f 232/420 233/421 209/396
f 209/396 233/421 210/397
f 233/421 234/422 210/397
f 210/397 234/422 211/398
f 234/422 235/423 211/398
f 211/398 235/423 212/399
f 235/423 236/424 212/399
f 212/399 236/424 213/400
f 236/424 237/425 213/400
f 213/400 237/425 214/401
f 237/425 238/426 214/401
f 214/401 238/426 215/402
f 238/426 239/427 215/402
f 215/402 239/427 216/403
f 239/427 240/428 216/403
f 216/403 240/428 217/404
f 240/428 241/429 217/404
f 217/404 241/429 194/405
f 241/429 218/430 194/405
f 218/406 75/431 219/407
f 75/431 76/432 219/407
f 219/407 76/432 220/408
f 76/432 77/433 220/408
f 220/408 77/433 221/409
f 77/433 78/434 221/409
f 221/409 78/434 222/410
f 78/434 79/435 222/410
f 222/410 79/435 223/411
f 79/435 80/436 223/411
f 223/411 80/436 224/412
f 80/436 81/437 224/412
f 224/412 81/437 225/413
f 81/437 82/438 225/413
f 225/413 82/438 226/414
f 82/438 83/439 226/414
f 226/414 83/439 227/415
f 83/439 84/440 227/415
f 227/415 84/440 228/416
f 84/440 85/441 228/416
f 228/416 85/441 229/417
f 85/441 86/442 229/417
f 229/417 86/442 230/418
f 86/442 87/443 230/418
f 230/418 87/443 231/419
f 87/443 88/444 231/419
f 231/419 88/444 232/420
f 88/444 89/445 232/420
f 232/420 89/445 233/421
f 89/445 90/446 233/421
f 233/421 90/446 234/422
f 90/446 91/447 234/422
f 234/422 91/447 235/423
f 91/447 92/448 235/423
f 235/423 92/448 236/424
f 92/448 93/449 236/424
f 236/424 93/449 237/425
f 93/449 94/450 237/425
f 237/425 94/450 238/426
f 94/450 95/451 238/426
f 238/426 95/451 239/427
f 95/451 96/452 239/427
f 239/427 96/452 240/428
f 96/452 97/453 240/428
f 240/428 97/453 241/429
f 97/453 74/454 241/429
f 241/429 74/454 218/430
f 74/454 75/455 218/430
f 266/456 243/457 267/458
f 243/457 242/459 267/458
f 267/458 242/459 268/460
f 242/459 253/461 268/460
f 268/460 253/461 269/462
f 253/461 252/463 269/462
f 269/462 252/463 270/464
f 252/463 265/465 270/464
f 270/464 265/465 271/466
f 265/465 259/467 271/466
f 271/466 259/467 272/468
f 259/467 251/469 272/468
f 272/468 251/469 273/470
f 251/469 250/471 273/470
f 273/470 250/471 274/472
f 250/471 249/473 274/472
f 274/472 249/473 275/474
f 249/473 248/475 275/474
f 275/474 248/475 276/476
f 248/475 264/477 276/476
f 276/476 264/477 277/478
f 264/477 263/479 277/478
f 277/478 263/479 278/480
f 263/479 262/481 278/480
f 278/480 262/481 279/482
f 262/481 261/483 279/482
f 279/482 261/483 280/484
f 261/483 258/485 280/484
f 280/484 258/485 281/486
f 258/485 247/487 281/486
f 281/486 247/487 282/488
f 247/487 246/489 282/488
f 282/488 246/489 283/490
f 246/489 257/491 283/490
f 283/490 257/491 284/492
f 257/491 256/493 284/492
f 284/492 256/493 285/494
f 256/493 255/495 285/494
f 285/494 255/495 286/496
f 255/495 245/497 286/496
f 286/496 245/497 287/498
f 245/497 244/499 287/498
f 287/498 244/499 288/500
f 244/499 260/501 288/500
f 288/500 260/501 289/502
f 260/501 254/503 289/502
f 289/502 254/503 266/504
f 254/503 243/505 266/504
f 50/506 27/507 51/508
f 27/507 28/509 51/508
f 51/508 28/509 52/510
f 28/509 29/511 52/510
f 52/510 29/511 53/512
f 29/511 30/513 53/512
f 53/512 30/513 54/514
f 30/513 31/515 54/514
f 54/514 31/515 55/516
f 31/515 32/517 55/516
f 55/516 32/517 56/518
f 32/517 33/519 56/518
f 56/518 33/519 57/520
f 33/519 34/521 57/520
f 57/520 34/521 58/522
f 34/521 35/523 58/522
f 58/522 35/523 59/524
f 35/523 36/525 59/524
f 59/524 36/525 60/526
f 36/525 37/527 60/526
f 60/526 37/527 61/528
f 37/527 38/529 61/528
f 61/528 38/529 62/530
f 38/529 39/531 62/530
f 62/530 39/531 63/532
f 39/531 40/533 63/532
f 63/532 40/533 64/534
f 40/533 41/535 64/534
f 64/534 41/535 65/536
f 41/535 42/537 65/536
f 65/536 42/537 66/538
f 42/537 43/539 66/538
f 66/538 43/539 67/540
f 43/539 44/541 67/540
f 67/540 44/541 68/542
f 44/541 45/543 68/542
f 68/542 45/543 69/544
f 45/543 46/545 69/544
f 69/544 46/545 70/546
f 46/545 47/547 70/546
f 70/546 47/547 71/548
f 47/547 48/549 71/548
f 71/548 48/549 72/550
f 48/549 49/551 72/550
f 72/550 49/551 73/552
f 49/551 26/553 73/552
f 73/552 26/553 50/554
f 26/553 27/555 50/554
f 472/556 471/557 476/558
f 476/558 477/559 472/556
f 477/559 478/560 472/556
f 472/556 478/560 473/561
f 470/562 469/563 482/564
f 482/564 483/565 470/562
f 483/565 484/566 470/562
f 470/562 484/566 471/557
f 468/567 467/568 479/569
f 479/569 480/570 468/567
f 480/570 481/571 468/567
f 468/567 481/571 469/563
f 493/572 467/568 466/573
f 464/574 491/575 466/573
f 491/575 492/576 466/573
f 466/573 492/576 493/572
f 474/577 473/561 485/578
f 485/578 486/579 474/577
f 486/579 487/580 474/577
f 474/577 487/580 475/581
f 465/582 475/581 488/583
f 488/583 489/584 465/582
f 489/584 490/585 465/582
f 465/582 490/585 464/574
f 465/586 461/587 475/588
f 461/587 460/589 475/588
f 475/588 460/589 474/590
f 474/586 460/591 473/592
f 460/591 462/589 473/592
f 473/592 462/589 472/593
f 472/594 462/589 471/595
f 462/589 459/596 471/595
f 471/595 459/596 470/586
f 470/590 459/589 469/588
f 459/589 458/587 469/588
f 469/588 458/587 468/586
f 468/586 458/597 467/598
f 458/597 463/589 467/598
f 467/598 463/589 466/599
f 466/600 463/589 464/601
f 463/589 461/602 464/601
f 464/601 461/602 465/586
f 85/603 243/604 86/605
f 243/604 254/606 86/605
f 86/605 254/606 87/607
f 254/606 260/608 87/607
f 87/607 260/608 88/609
f 260/608 244/610 88/609
f 88/609 244/610 89/611
f 244/610 245/612 89/611
f 89/611 245/612 90/613
f 245/612 255/614 90/613
f 90/613 255/614 91/615
f 255/614 256/616 91/615
f 91/615 256/616 92/617
f 256/616 257/618 92/617
f 92/617 257/618 93/619
f 257/618 246/620 93/619
f 93/619 246/620 94/621
f 246/620 247/622 94/621
f 94/621 247/622 95/623
f 247/622 258/624 95/623
f 95/623 258/624 96/625
f 258/624 261/626 96/625
f 96/625 261/626 97/627
f 261/626 262/628 97/627
f 97/627 262/628 74/629
f 262/628 263/630 74/629
f 74/629 263/630 75/631
f 263/630 264/632 75/631
f 75/631 264/632 76/633
f 264/632 248/634 76/633
f 76/633 248/634 77/635
f 248/634 249/636 77/635
f 77/635 249/636 78/637
f 249/636 250/638 78/637
f 78/637 250/638 79/639
f 250/638 251/640 79/639
f 79/639 251/640 80/641
f 251/640 259/642 80/641
f 80/641 259/642 81/643
f 259/642 265/644 81/643
f 81/643 265/644 82/645
f 265/644 252/646 82/645
f 82/645 252/646 83/647
f 252/646 253/648 83/647
f 83/647 253/648 84/649
f 253/648 242/650 84/649
f 84/649 242/650 85/603
f 242/650 243/604 85/603
f 22/651 23/652 25/653
f 23/652 24/654 25/653
f 25/653 24/654 1/655
f 19/656 20/657 25/653
f 20/657 21/658 25/653
f 25/653 21/658 22/651
f 16/659 17/660 25/653
f 17/660 18/661 25/653
f 25/653 18/661 19/656
f 13/662 14/663 25/653
f 14/663 15/664 25/653
f 25/653 15/664 16/659
f 10/665 11/666 25/653
f 11/666 12/667 25/653
f 25/653 12/667 13/662
f 7/668 8/669 25/653
f 8/669 9/670 25/653
f 25/653 9/670 10/665
f 4/671 5/672 25/653
f 5/672 6/673 25/653
f 25/653 6/673 7/668
f 1/655 2/674 25/653
f 2/674 3/675 25/653
f 25/653 3/675 4/671
f 307/676 308/677 459/678
f 460/679 300/680 301/681
f 295/682 296/683 461/684
f 460/679 301/681 462/582
f 301/681 302/685 462/582
f 462/582 302/685 303/686
f 295/682 461/684 294/687
f 461/684 463/688 294/687
f 294/687 463/688 293/689
f 458/690 312/691 313/692
f 313/692 290/693 458/690
f 290/693 291/694 458/690
f 458/690 291/694 463/688
f 291/694 292/695 463/688
f 463/688 292/695 293/689
f 303/686 304/696 462/582
f 304/696 305/697 462/582
f 462/582 305/697 459/678
f 305/697 306/698 459/678
f 459/678 306/698 307/676
f 296/683 297/699 461/684
f 297/699 298/700 461/684
f 461/684 298/700 460/679
f 298/700 299/701 460/679
f 460/679 299/701 300/680
f 308/677 309/702 459/678
f 309/702 310/703 459/678
f 459/678 310/703 458/690
f 310/703 311/704 458/690
f 458/690 311/704 312/691
f 26/705 24/706 27/707
f 24/706 23/708 27/707
f 27/707 23/708 28/709
f 23/708 22/710 28/709
f 28/709 22/710 29/711
f 22/710 21/712 29/711
f 29/711 21/712 30/713
f 21/712 20/714 30/713
f 30/713 20/714 31/715
f 20/714 19/716 31/715
f 31/715 19/716 32/717
f 19/716 18/718 32/717
f 32/717 18/718 33/719
f 18/718 17/720 33/719
f 33/719 17/720 34/721
f 17/720 16/722 34/721
f 34/721 16/722 35/723
f 16/722 15/724 35/723
f 35/723 15/724 36/725
f 15/724 14/726 36/725
f 36/725 14/726 37/727
f 14/726 13/728 37/727
f 37/727 13/728 38/729
f 13/728 12/730 38/729
f 38/729 12/730 39/731
f 12/730 11/732 39/731
f 39/731 11/732 40/733
f 11/732 10/734 40/733
f 40/733 10/734 41/735
f 10/734 9/736 41/735
f 41/735 9/736 42/737
f 9/736 8/738 42/737
f 42/737 8/738 43/739
f 8/738 7/740 43/739
f 43/739 7/740 44/741
f 7/740 6/742 44/741
f 44/741 6/742 45/743
f 6/742 5/744 45/743
f 45/743 5/744 46/745
f 5/744 4/746 46/745
f 46/745 4/746 47/747
f 4/746 3/748 47/747
f 47/747 3/748 48/749
f 3/748 2/750 48/749
f 48/749 2/750 49/751
f 2/750 1/752 49/751
f 49/751 1/752 26/753
f 1/752 24/754 26/753
