# Exported from USD: /World/Robotiq_Hand_E_edit/base_link/Group3ROBOTIQ_HAND_E_DEFEATURE_05/Group3ROBOTIQ_HAND_E_DEFEATURE
mtllib D_A03_ASM_DOIGTS_PARALLELES_1ROBOTIQ_HAND_E_DEFEATURE.mtl

g Group3ROBOTIQ_HAND_E_DEFEATURE
v 0.00142388 -0.00890000 -0.02924855
v 0.00118087 -0.00890000 -0.02890563
v 0.00085739 -0.00890000 -0.02863729
v 0.00047548 -0.00890000 -0.02846181
v 0.00006117 -0.00890000 -0.02839116
v -0.00035732 -0.00890000 -0.02843015
v -0.00075145 -0.00890000 -0.02857612
v -0.00109437 -0.00890000 -0.02881913
v -0.00136271 -0.00890000 -0.02914261
v -0.00153819 -0.00890000 -0.02952452
v -0.00160884 -0.00890000 -0.02993883
v -0.00156985 -0.00890000 -0.03035732
v -0.00142388 -0.00890000 -0.03075145
v -0.00118087 -0.00890000 -0.03109437
v -0.00085739 -0.00890000 -0.03136271
v -0.00047548 -0.00890000 -0.03153819
v -0.00006117 -0.00890000 -0.03160884
v 0.00035732 -0.00890000 -0.03156985
v 0.00075145 -0.00890000 -0.03142388
v 0.00109437 -0.00890000 -0.03118087
v 0.00136271 -0.00890000 -0.03085739
v 0.00153819 -0.00890000 -0.03047548
v 0.00160884 -0.00890000 -0.03006117
v 0.00156985 -0.00890000 -0.02964268
v 0.00000000 -0.00890000 -0.03000000
v 0.00176879 -0.00851000 -0.02906653
v 0.00195012 -0.00851000 -0.02955613
v 0.00199856 -0.00851000 -0.03007598
v 0.00191079 -0.00851000 -0.03059066
v 0.00169281 -0.00851000 -0.03106508
v 0.00135946 -0.00851000 -0.03146692
v 0.00093347 -0.00851000 -0.03176879
v 0.00044387 -0.00851000 -0.03195012
v -0.00007598 -0.00851000 -0.03199856
v -0.00059066 -0.00851000 -0.03191079
v -0.00106508 -0.00851000 -0.03169281
v -0.00146692 -0.00851000 -0.03135946
v -0.00176879 -0.00851000 -0.03093348
v -0.00195012 -0.00851000 -0.03044387
v -0.00199856 -0.00851000 -0.02992402
v -0.00191079 -0.00851000 -0.02940934
v -0.00169281 -0.00851000 -0.02893492
v -0.00135946 -0.00851000 -0.02853308
v -0.00093347 -0.00851000 -0.02823121
v -0.00044387 -0.00851000 -0.02804988
v 0.00007598 -0.00851000 -0.02800144
v 0.00059066 -0.00851000 -0.02808921
v 0.00106508 -0.00851000 -0.02830719
v 0.00146692 -0.00851000 -0.02864054
v 0.00176879 0.00690000 -0.02906653
v 0.00195012 0.00690000 -0.02955613
v 0.00199856 0.00690000 -0.03007598
v 0.00191079 0.00690000 -0.03059066
v 0.00169281 0.00690000 -0.03106508
v 0.00135946 0.00690000 -0.03146692
v 0.00093347 0.00690000 -0.03176879
v 0.00044387 0.00690000 -0.03195012
v -0.00007598 0.00690000 -0.03199856
v -0.00059066 0.00690000 -0.03191079
v -0.00106508 0.00690000 -0.03169281
v -0.00146692 0.00690000 -0.03135946
v -0.00176879 0.00690000 -0.03093348
v -0.00195012 0.00690000 -0.03044387
v -0.00199856 0.00690000 -0.02992402
v -0.00191079 0.00690000 -0.02940934
v -0.00169281 0.00690000 -0.02893492
v -0.00135946 0.00690000 -0.02853308
v -0.00093347 0.00690000 -0.02823121
v -0.00044387 0.00690000 -0.02804988
v 0.00007598 0.00690000 -0.02800144
v 0.00059066 0.00690000 -0.02808921
v 0.00106508 0.00690000 -0.02830719
v 0.00146692 0.00690000 -0.02864054
v -0.00194567 0.00710000 -0.03102682
v -0.00161361 0.00710000 -0.03149541
v -0.00117159 0.00710000 -0.03186209
v -0.00064972 0.00710000 -0.03210187
v -0.00008358 0.00710000 -0.03219841
v 0.00048826 0.00710000 -0.03214514
v 0.00102682 0.00710000 -0.03194567
v 0.00149541 0.00710000 -0.03161361
v 0.00186209 0.00710000 -0.03117159
v 0.00210187 0.00710000 -0.03064973
v 0.00219841 0.00710000 -0.03008358
v 0.00214514 0.00710000 -0.02951174
v 0.00194567 0.00710000 -0.02897318
v 0.00161361 0.00710000 -0.02850459
v 0.00117159 0.00710000 -0.02813791
v 0.00064972 0.00710000 -0.02789813
v 0.00008358 0.00710000 -0.02780159
v -0.00048826 0.00710000 -0.02785487
v -0.00102682 0.00710000 -0.02805433
v -0.00149541 0.00710000 -0.02838639
v -0.00186209 0.00710000 -0.02882841
v -0.00210187 0.00710000 -0.02935028
v -0.00219841 0.00710000 -0.02991642
v -0.00214514 0.00710000 -0.03048826
v -0.00147060 0.00694450 -0.03136287
v -0.00106775 0.00694450 -0.03169705
v -0.00059214 0.00694450 -0.03191558
v -0.00007617 0.00694450 -0.03200357
v 0.00044498 0.00694450 -0.03195501
v 0.00093582 0.00694450 -0.03177323
v 0.00136287 0.00694450 -0.03147060
v 0.00169705 0.00694450 -0.03106775
v 0.00191558 0.00694450 -0.03059214
v 0.00200357 0.00694450 -0.03007617
v 0.00195501 0.00694450 -0.02955502
v 0.00177323 0.00694450 -0.02906418
v 0.00147060 0.00694450 -0.02863713
v 0.00106775 0.00694450 -0.02830295
v 0.00059214 0.00694450 -0.02808442
v 0.00007617 0.00694450 -0.02799643
v -0.00044498 0.00694450 -0.02804499
v -0.00093582 0.00694450 -0.02822677
v -0.00136287 0.00694450 -0.02852940
v -0.00169705 0.00694450 -0.02893225
v -0.00191558 0.00694450 -0.02940786
v -0.00200357 0.00694450 -0.02992383
v -0.00195501 0.00694450 -0.03044498
v -0.00177323 0.00694450 -0.03093581
v -0.00148145 0.00698678 -0.03137293
v -0.00107563 0.00698678 -0.03170957
v -0.00059651 0.00698678 -0.03192971
v -0.00007674 0.00698678 -0.03201835
v 0.00044827 0.00698678 -0.03196944
v 0.00094272 0.00698678 -0.03178631
v 0.00137293 0.00698678 -0.03148145
v 0.00170957 0.00698678 -0.03107563
v 0.00192971 0.00698678 -0.03059651
v 0.00201835 0.00698678 -0.03007674
v 0.00196944 0.00698678 -0.02955173
v 0.00178631 0.00698678 -0.02905728
v 0.00148145 0.00698678 -0.02862707
v 0.00107563 0.00698678 -0.02829043
v 0.00059651 0.00698678 -0.02807029
v 0.00007674 0.00698678 -0.02798165
v -0.00044827 0.00698678 -0.02803057
v -0.00094272 0.00698678 -0.02821369
v -0.00137293 0.00698678 -0.02851855
v -0.00170957 0.00698678 -0.02892437
v -0.00192971 0.00698678 -0.02940349
v -0.00201835 0.00698678 -0.02992326
v -0.00196944 0.00698678 -0.03044827
v -0.00178631 0.00698678 -0.03094272
v -0.00149892 0.00702470 -0.03138912
v -0.00108832 0.00702470 -0.03172974
v -0.00060354 0.00702470 -0.03195248
v -0.00007764 0.00702470 -0.03204216
v 0.00045355 0.00702470 -0.03199267
v 0.00095384 0.00702470 -0.03180738
v 0.00138912 0.00702470 -0.03149892
v 0.00172974 0.00702470 -0.03108832
v 0.00195248 0.00702470 -0.03060354
v 0.00204216 0.00702470 -0.03007764
v 0.00199267 0.00702470 -0.02954645
v 0.00180738 0.00702470 -0.02904616
v 0.00149892 0.00702470 -0.02861088
v 0.00108832 0.00702470 -0.02827026
v 0.00060354 0.00702470 -0.02804752
v 0.00007764 0.00702470 -0.02795784
v -0.00045355 0.00702470 -0.02800733
v -0.00095384 0.00702470 -0.02819262
v -0.00138912 0.00702470 -0.02850107
v -0.00172974 0.00702470 -0.02891168
v -0.00195248 0.00702470 -0.02939646
v -0.00204216 0.00702470 -0.02992236
v -0.00199267 0.00702470 -0.03045355
v -0.00180738 0.00702470 -0.03095384
v -0.00152215 0.00705637 -0.03141065
v -0.00110518 0.00705637 -0.03175655
v -0.00061290 0.00705637 -0.03198273
v -0.00007884 0.00705637 -0.03207380
v 0.00046058 0.00705637 -0.03202355
v 0.00096862 0.00705637 -0.03183539
v 0.00141065 0.00705637 -0.03152215
v 0.00175654 0.00705637 -0.03110518
v 0.00198273 0.00705637 -0.03061290
v 0.00207380 0.00705637 -0.03007884
v 0.00202355 0.00705637 -0.02953942
v 0.00183539 0.00705637 -0.02903138
v 0.00152215 0.00705637 -0.02858935
v 0.00110518 0.00705637 -0.02824346
v 0.00061290 0.00705637 -0.02801727
v 0.00007884 0.00705637 -0.02792620
v -0.00046058 0.00705637 -0.02797645
v -0.00096862 0.00705637 -0.02816461
v -0.00141065 0.00705637 -0.02847785
v -0.00175654 0.00705637 -0.02889482
v -0.00198273 0.00705637 -0.02938710
v -0.00207380 0.00705637 -0.02992116
v -0.00202355 0.00705637 -0.03046058
v -0.00183539 0.00705637 -0.03096862
v -0.00154997 0.00708019 -0.03143642
v -0.00112538 0.00708019 -0.03178864
v -0.00062410 0.00708019 -0.03201896
v -0.00008028 0.00708019 -0.03211170
v 0.00046900 0.00708019 -0.03206052
v 0.00098632 0.00708019 -0.03186893
v 0.00143643 0.00708019 -0.03154996
v 0.00178864 0.00708019 -0.03112538
v 0.00201896 0.00708019 -0.03062410
v 0.00211170 0.00708019 -0.03008028
v 0.00206052 0.00708019 -0.02953100
v 0.00186893 0.00708019 -0.02901368
v 0.00154997 0.00708019 -0.02856357
v 0.00112538 0.00708019 -0.02821136
v 0.00062410 0.00708019 -0.02798104
v 0.00008028 0.00708019 -0.02788830
v -0.00046900 0.00708019 -0.02793948
v -0.00098632 0.00708019 -0.02813107
v -0.00143643 0.00708019 -0.02845003
v -0.00178864 0.00708019 -0.02887462
v -0.00201896 0.00708019 -0.02937590
v -0.00211170 0.00708019 -0.02991972
v -0.00206052 0.00708019 -0.03046900
v -0.00186893 0.00708019 -0.03098632
v -0.00158097 0.00709499 -0.03146516
v -0.00114789 0.00709499 -0.03182442
v -0.00063658 0.00709499 -0.03205935
v -0.00008189 0.00709499 -0.03215394
v 0.00047838 0.00709499 -0.03210174
v 0.00100605 0.00709499 -0.03190631
v 0.00146516 0.00709499 -0.03158097
v 0.00182442 0.00709499 -0.03114789
v 0.00205935 0.00709499 -0.03063658
v 0.00215394 0.00709499 -0.03008189
v 0.00210174 0.00709499 -0.02952162
v 0.00190631 0.00709499 -0.02899395
v 0.00158097 0.00709499 -0.02853484
v 0.00114789 0.00709499 -0.02817558
v 0.00063658 0.00709499 -0.02794065
v 0.00008189 0.00709499 -0.02784606
v -0.00047838 0.00709499 -0.02789826
v -0.00100605 0.00709499 -0.02809369
v -0.00146516 0.00709499 -0.02841903
v -0.00182442 0.00709499 -0.02885211
v -0.00205935 0.00709499 -0.02936342
v -0.00215394 0.00709499 -0.02991811
v -0.00210174 0.00709499 -0.03047838
v -0.00190631 0.00709499 -0.03100605
v -0.00163358 0.00710000 -0.02690461
v -0.00237906 0.00710000 -0.02743289
v -0.00077677 0.00710000 -0.02658729
v -0.00296242 0.00710000 -0.02813611
v 0.00103365 0.00710000 -0.02665612
v 0.00013297 0.00710000 -0.02650253
v 0.00077677 0.00710000 -0.03341271
v 0.00163358 0.00710000 -0.03309539
v 0.00237906 0.00710000 -0.03256711
v 0.00296242 0.00710000 -0.03186389
v 0.00349747 0.00710000 -0.03013297
v 0.00341272 0.00710000 -0.02922323
v 0.00256711 0.00710000 -0.02762094
v 0.00186389 0.00710000 -0.02703759
v -0.00334388 0.00710000 -0.02896635
v -0.00349747 0.00710000 -0.02986703
v 0.00334388 0.00710000 -0.03103365
v 0.00309539 0.00710000 -0.02836642
v -0.00341272 0.00710000 -0.03077677
v -0.00309539 0.00710000 -0.03163358
v -0.00256711 0.00710000 -0.03237906
v -0.00186389 0.00710000 -0.03296242
v -0.00013297 0.00710000 -0.03349747
v -0.00103365 0.00710000 -0.03334389
v 0.00309539 0.01090000 -0.02836642
v 0.00341272 0.01090000 -0.02922323
v 0.00349747 0.01090000 -0.03013297
v 0.00334388 0.01090000 -0.03103365
v 0.00296242 0.01090000 -0.03186389
v 0.00237906 0.01090000 -0.03256711
v 0.00163358 0.01090000 -0.03309539
v 0.00077677 0.01090000 -0.03341271
v -0.00013297 0.01090000 -0.03349747
v -0.00103365 0.01090000 -0.03334389
v -0.00186389 0.01090000 -0.03296242
v -0.00256711 0.01090000 -0.03237906
v -0.00309539 0.01090000 -0.03163358
v -0.00341272 0.01090000 -0.03077677
v -0.00349747 0.01090000 -0.02986703
v -0.00334388 0.01090000 -0.02896635
v -0.00296242 0.01090000 -0.02813611
v -0.00237906 0.01090000 -0.02743289
v -0.00163358 0.01090000 -0.02690461
v -0.00077677 0.01090000 -0.02658729
v 0.00013297 0.01090000 -0.02650253
v 0.00103365 0.01090000 -0.02665612
v 0.00186389 0.01090000 -0.02703759
v 0.00256711 0.01090000 -0.02762094
v 0.00291851 0.01110000 -0.02845977
v 0.00321770 0.01110000 -0.02926761
v 0.00329762 0.01110000 -0.03012537
v 0.00315281 0.01110000 -0.03097459
v 0.00279313 0.01110000 -0.03175738
v 0.00224312 0.01110000 -0.03242042
v 0.00154023 0.01110000 -0.03291851
v 0.00073239 0.01110000 -0.03321770
v -0.00012537 0.01110000 -0.03329762
v -0.00097459 0.01110000 -0.03315280
v -0.00175738 0.01110000 -0.03279313
v -0.00242042 0.01110000 -0.03224312
v -0.00291851 0.01110000 -0.03154023
v -0.00321770 0.01110000 -0.03073239
v -0.00329762 0.01110000 -0.02987463
v -0.00315281 0.01110000 -0.02902541
v -0.00279313 0.01110000 -0.02824262
v -0.00224312 0.01110000 -0.02757958
v -0.00154023 0.01110000 -0.02708149
v -0.00073239 0.01110000 -0.02678230
v 0.00012537 0.01110000 -0.02670238
v 0.00097459 0.01110000 -0.02684719
v 0.00175738 0.01110000 -0.02720687
v 0.00242042 0.01110000 -0.02775688
v 0.00326818 0.01109319 -0.02925613
v 0.00334934 0.01109319 -0.03012734
v 0.00320226 0.01109319 -0.03098987
v 0.00283695 0.01109319 -0.03178495
v 0.00227830 0.01109319 -0.03245839
v 0.00156439 0.01109319 -0.03296429
v 0.00074387 0.01109319 -0.03326818
v -0.00012734 0.01109319 -0.03334934
v -0.00098987 0.01109319 -0.03320226
v -0.00178495 0.01109319 -0.03283695
v -0.00245839 0.01109319 -0.03227830
v -0.00296429 0.01109319 -0.03156439
v -0.00326818 0.01109319 -0.03074387
v -0.00334934 0.01109319 -0.02987266
v -0.00320226 0.01109319 -0.02901013
v -0.00283695 0.01109319 -0.02821505
v -0.00227830 0.01109319 -0.02754161
v -0.00156439 0.01109319 -0.02703571
v -0.00074387 0.01109319 -0.02673182
v 0.00012734 0.01109319 -0.02665066
v 0.00098987 0.01109319 -0.02679774
v 0.00178495 0.01109319 -0.02716305
v 0.00245839 0.01109319 -0.02772170
v 0.00296429 0.01109319 -0.02843561
v 0.00331521 0.01107320 -0.02924542
v 0.00339755 0.01107320 -0.03012917
v 0.00324834 0.01107320 -0.03100412
v 0.00287777 0.01107320 -0.03181064
v 0.00231109 0.01107320 -0.03249377
v 0.00158691 0.01107320 -0.03300695
v 0.00075458 0.01107320 -0.03331521
v -0.00012917 0.01107320 -0.03339754
v -0.00100412 0.01107320 -0.03324835
v -0.00181064 0.01107320 -0.03287777
v -0.00249377 0.01107320 -0.03231109
v -0.00300695 0.01107320 -0.03158691
v -0.00331521 0.01107320 -0.03075458
v -0.00339755 0.01107320 -0.02987083
v -0.00324834 0.01107320 -0.02899588
v -0.00287777 0.01107320 -0.02818936
v -0.00231109 0.01107320 -0.02750623
v -0.00158691 0.01107320 -0.02699305
v -0.00075458 0.01107320 -0.02668479
v 0.00012917 0.01107320 -0.02660245
v 0.00100412 0.01107320 -0.02675166
v 0.00181064 0.01107320 -0.02712223
v 0.00249377 0.01107320 -0.02768891
v 0.00300695 0.01107320 -0.02841309
v 0.00335560 0.01104142 -0.02923623
v 0.00343894 0.01104142 -0.03013075
v 0.00328792 0.01104142 -0.03101635
v 0.00291283 0.01104142 -0.03183270
v 0.00233924 0.01104142 -0.03252415
v 0.00160624 0.01104142 -0.03304358
v 0.00076377 0.01104142 -0.03335560
v -0.00013075 0.01104142 -0.03343894
v -0.00101635 0.01104142 -0.03328792
v -0.00183270 0.01104142 -0.03291284
v -0.00252415 0.01104142 -0.03233925
v -0.00304358 0.01104142 -0.03160624
v -0.00335560 0.01104142 -0.03076377
v -0.00343894 0.01104142 -0.02986925
v -0.00328792 0.01104142 -0.02898365
v -0.00291283 0.01104142 -0.02816730
v -0.00233924 0.01104142 -0.02747585
v -0.00160624 0.01104142 -0.02695642
v -0.00076377 0.01104142 -0.02664440
v 0.00013075 0.01104142 -0.02656106
v 0.00101635 0.01104142 -0.02671208
v 0.00183270 0.01104142 -0.02708717
v 0.00252415 0.01104142 -0.02766076
v 0.00304358 0.01104142 -0.02839376
v 0.00338659 0.01100000 -0.02922917
v 0.00347070 0.01100000 -0.03013195
v 0.00331828 0.01100000 -0.03102574
v 0.00293974 0.01100000 -0.03184962
v 0.00236085 0.01100000 -0.03254746
v 0.00162107 0.01100000 -0.03307169
v 0.00077083 0.01100000 -0.03338659
v -0.00013195 0.01100000 -0.03347070
v -0.00102574 0.01100000 -0.03331828
v -0.00184962 0.01100000 -0.03293974
v -0.00254746 0.01100000 -0.03236085
v -0.00307169 0.01100000 -0.03162108
v -0.00338659 0.01100000 -0.03077083
v -0.00347070 0.01100000 -0.02986805
v -0.00331828 0.01100000 -0.02897426
v -0.00293974 0.01100000 -0.02815038
v -0.00236085 0.01100000 -0.02745254
v -0.00162107 0.01100000 -0.02692831
v -0.00077083 0.01100000 -0.02661341
v 0.00013195 0.01100000 -0.02652930
v 0.00102574 0.01100000 -0.02668172
v 0.00184962 0.01100000 -0.02706026
v 0.00254746 0.01100000 -0.02763915
v 0.00307169 0.01100000 -0.02837893
v 0.00340607 0.01095176 -0.02922474
v 0.00349066 0.01095176 -0.03013271
v 0.00333737 0.01095176 -0.03103164
v 0.00295665 0.01095176 -0.03186026
v 0.00237443 0.01095176 -0.03256211
v 0.00163040 0.01095176 -0.03308936
v 0.00077526 0.01095176 -0.03340607
v -0.00013271 0.01095176 -0.03349066
v -0.00103164 0.01095176 -0.03333737
v -0.00186026 0.01095176 -0.03295665
v -0.00256211 0.01095176 -0.03237443
v -0.00308936 0.01095176 -0.03163040
v -0.00340607 0.01095176 -0.03077526
v -0.00349066 0.01095176 -0.02986729
v -0.00333737 0.01095176 -0.02896836
v -0.00295665 0.01095176 -0.02813974
v -0.00237443 0.01095176 -0.02743789
v -0.00163040 0.01095176 -0.02691064
v -0.00077526 0.01095176 -0.02659393
v 0.00013271 0.01095176 -0.02650934
v 0.00103164 0.01095176 -0.02666263
v 0.00186026 0.01095176 -0.02704335
v 0.00256211 0.01095176 -0.02762557
v 0.00308936 0.01095176 -0.02836960
v 0.00082755 0.01110000 -0.03156807
v 0.00177176 0.01110000 -0.03006736
v -0.00094422 0.01110000 -0.03150071
v -0.00177176 0.01110000 -0.02993264
v 0.00094422 0.01110000 -0.02849929
v -0.00082755 0.01110000 -0.02843193
v 0.00129965 0.00910000 -0.03081772
v 0.00082755 0.00910000 -0.03156807
v 0.00177176 0.00910000 -0.03006736
v 0.00135799 0.00910000 -0.02928332
v 0.00094422 0.00910000 -0.02849929
v 0.00005834 0.00910000 -0.02846561
v -0.00082755 0.00910000 -0.02843193
v -0.00129965 0.00910000 -0.02918228
v -0.00177176 0.00910000 -0.02993264
v -0.00135799 0.00910000 -0.03071667
v -0.00094422 0.00910000 -0.03150071
v -0.00005834 0.00910000 -0.03153439
v -0.00146701 0.00910000 -0.02954652
v -0.00153439 0.00910000 -0.02994166
v -0.00149721 0.00910000 -0.03034078
v 0.00112623 0.00910000 -0.02895627
v 0.00081772 0.00910000 -0.02870035
v 0.00045348 0.00910000 -0.02853299
v -0.00034078 0.00910000 -0.02850279
v -0.00071668 0.00910000 -0.02864201
v -0.00104373 0.00910000 -0.02887377
v -0.00112623 0.00910000 -0.03104373
v -0.00081772 0.00910000 -0.03129965
v -0.00045348 0.00910000 -0.03146701
v 0.00034078 0.00910000 -0.03149721
v 0.00071668 0.00910000 -0.03135799
v 0.00104373 0.00910000 -0.03112623
v 0.00146701 0.00910000 -0.03045348
v 0.00153439 0.00910000 -0.03005834
v 0.00149721 0.00910000 -0.02965922
v 0.00000000 0.00821348 -0.03000000
vt 5.49778700 -2.01959538
vt 0.00165000 0.00285788
vt 2.87979317 0.00000000
vt 5.23598766 0.00039000
vt 1.04719758 0.00000000
vt 1.04719758 -1.79519582
vt 6.02138615 0.00000000
vt 5.36688757 -0.00088652
vt 3.40339208 -0.00000000
vt 1.43989658 -0.00088652
vt 1.04719758 0.52359879
vt 4.97418833 -2.69279361
vt -0.00000000 -0.00161000
vt -0.00177304 -0.00200000
vt 0.00350000 -0.00350000
vt 0.26179940 1.04719758
vt 5.75958633 -1.79519582
vt 0.78539819 -0.03195000
vt 1.04719758 -2.01959538
vt 2.09439516 -0.03195000
vt 4.97418833 -0.03575000
vt 5.49778700 1.04719758
vt 3.79609108 -0.00088652
vt 2.61799383 -1.79519582
vt 0.52359879 -2.91719317
vt 1.57079637 -0.05136000
vt -0.00155514 -0.00119330
vt 3.66519141 0.78539819
vt 3.66519141 1.57079637
vt 0.26179940 -0.03595000
vt 4.18879032 0.78539819
vt 6.02138615 -3.14159274
vt 3.14159274 -1.79519582
vt 0.26179940 0.52359879
vt 4.45058966 -2.91719317
vt 2.61799383 -2.01959538
vt 2.61799383 -2.91719317
vt 1.96349537 -0.00088652
vt -0.00303109 -0.00175000
vt 1.30899692 -2.91719317
vt -0.00000000 -0.00200000
vt -0.00247487 -0.00102513
vt 0.00000000 0.00330000
vt 2.09439516 0.26179940
vt 4.97418833 -1.57079637
vt 6.02138615 -2.69279361
vt -0.00307100 -0.00265956
vt 0.78539819 1.30899692
vt 6.28318548 0.26179940
vt 0.00000000 0.00000000
vt 5.75958633 -0.03595000
vt 4.18879032 -0.03575000
vt 1.04719758 -3.14159274
vt 1.83259571 -0.03195000
vt 0.78539819 0.52359879
vt 2.35619450 -0.05136000
vt 4.45058966 0.52359879
vt 3.92699075 -2.01959538
vt 0.00330000 0.00000000
vt 3.66519141 -1.57079637
vt 0.78539819 -1.57079637
vt 6.54498482 -2.69279361
vt 2.35619450 -2.46839428
vt 6.02138615 -1.57079637
vt 3.92699075 0.00000000
vt -0.00000000 -0.00570000
vt -0.00080500 -0.00021570
vt 4.71238899 1.57079637
vt 3.92699075 -2.46839428
vt 1.04719758 1.57079637
vt 6.54498482 -1.57079637
vt -0.00000000 -0.00200000
vt 6.02138615 0.52359879
vt 2.61799383 0.00039000
vt 6.28318548 -0.03195000
vt 0.00085410 -0.00318756
vt 0.00041670 -0.00316514
vt -0.00000000 -0.00330000
vt 0.78539819 -2.69279361
vt 0.00000000 -0.00354609
vt 1.30899692 -2.46839428
vt 6.02138615 -2.46839428
vt 6.28318548 -2.24399471
vt 6.54498482 1.04719758
vt 0.00080500 -0.00021570
vt 1.30899692 0.00000000
vt 0.00000000 1.30899692
vt 5.75958633 0.00039000
vt -0.00000000 0.00177304
vt 2.09439516 -2.69279361
vt -0.00175000 -0.00046891
vt 0.00338074 -0.00259413
vt 3.92699075 -2.24399471
vt 0.00155563 -0.00194437
vt 0.26179940 0.26179940
vt 3.92699075 -0.03195000
vt 1.30899692 -1.79519582
vt 1.30899692 -2.01959538
vt 3.66519141 -3.14159274
vt 5.49778700 -0.03595000
vt 6.54498482 -0.00000000
vt 4.18879032 -3.14159274
vt 1.83259571 0.78539819
vt 6.28318548 -2.46839428
vt 3.66519141 -1.79519582
vt 2.61799383 1.57079637
vt 1.57079637 -1.57079637
vt 0.00000000 0.00039000
vt 5.49778700 0.78539819
vt 2.35619450 -1.79519582
vt 0.78539819 -0.03595000
vt 5.23598766 -0.05136000
vt -0.00153550 -0.00088652
vt 0.00056940 -0.00137496
vt 3.92699075 -2.91719317
vt 4.71238899 -2.46839428
vt 5.75958633 0.26179940
vt 4.71238899 -0.03595000
vt 6.28318548 -2.01959538
vt 5.75958633 -2.91719317
vt 4.97418833 -2.01959538
vt 3.40339208 -0.05136000
vt -0.00153550 -0.00419506
vt 2.87979317 0.00039000
vt -0.00020572 -0.00189181
vt 4.97418833 0.00000000
vt 3.92699075 0.26179940
vt 2.87979317 -1.79519582
vt 0.26179940 -0.03195000
vt 1.04719758 0.78539819
vt 5.75958633 -0.00000000
vt 0.26179940 -2.24399471
vt -0.00005232 -0.00305698
vt 5.23598766 0.00000000
vt 0.78539819 0.00000000
vt 2.09439516 -0.00000000
vt 4.18879032 -0.03195000
vt -0.00000000 -0.00177304
vt 4.71238899 -2.01959538
vt 0.00090587 -0.00688074
vt 3.14159274 -0.05136000
vt 1.04719758 0.00000000
vt 1.57079637 -0.03575000
vt 3.66519141 -2.01959538
vt 4.18879032 -0.00000000
vt 0.26179940 -2.69279361
vt 1.57079637 -1.79519582
vt -0.00230325 -0.00398935
vt 3.14159274 0.26179940
vt -0.00318756 -0.00085410
vt 3.40339208 -1.57079637
vt 4.71238899 1.04719758
vt 4.18879032 -2.69279361
vt 6.28318548 -3.14159274
vt 4.45058966 -0.00000000
vt 4.18879032 0.00000000
vt 4.71238899 -2.91719317
vt -0.00153550 -0.00112406
vt 5.49778700 -0.03575000
vt 5.10508823 -0.00088652
vt -0.00113844 -0.00274844
vt -0.00190526 -0.00460000
vt 1.04719758 -0.05136000
vt 0.00000000 1.04719758
vt 3.40339208 1.30899692
vt 4.71238899 -3.14159274
vt 1.83259571 -2.91719317
vt 0.52359879 -0.00000000
vt 0.52359879 -1.57079637
vt 5.49778700 -2.91719317
vt 4.71238899 -0.03575000
vt 6.28318548 1.30899692
vt 4.97418833 0.26179940
vt -0.00286528 -0.00342731
vt 2.09439516 -2.46839428
vt 1.83259571 -3.14159274
vt 3.92699075 0.52359879
vt 3.14159274 -0.03195000
vt -0.00247487 -0.00597487
vt 0.00318756 0.00085410
vt 2.22529483 -0.00088652
vt 5.49778700 -3.14159274
vt 5.23598766 -2.01959538
vt 0.52359879 1.30899692
vt 6.28318548 -2.69279361
vt 6.02138615 0.26179940
vt 5.75958633 0.00000000
vt 2.48709416 -0.00088652
vt 6.54498482 -0.03575000
vt 2.87979317 -0.05136000
vt 2.09439516 -0.05136000
vt 3.92699075 -0.03595000
vt 3.40339208 0.00039000
vt 6.28318548 -1.57079637
vt 0.52359879 1.04719758
vt 0.00285788 -0.00165000
vt 4.45058966 -2.69279361
vt 4.84328890 -0.00088652
vt 1.57079637 -2.91719317
vt -0.00000000 -0.03195000
vt 6.02138615 1.30899692
vt 3.66519141 0.00000000
vt 3.66519141 1.30899692
vt 2.09439516 1.04719758
vt 0.52359879 -0.05136000
vt 0.00110000 -0.00159474
vt -0.00262126 -0.00157380
vt 5.23598766 -0.00000000
vt 1.04719758 -1.57079637
vt 2.35619450 1.57079637
vt -0.00190526 -0.00240000
vt 2.09439516 -0.03575000
vt 1.30899692 0.78539819
vt 0.52359879 -3.14159274
vt 4.45058966 1.04719758
vt 5.75958633 -0.03575000
vt 0.52359879 -2.69279361
vt 3.66519141 -0.05136000
vt 2.87979317 1.04719758
vt 1.83259571 -2.69279361
vt 0.00139430 -0.00241500
vt 1.83259571 -2.01959538
vt 4.45058966 -0.05136000
vt 1.04719758 1.04719758
vt -0.00110000 -0.00159474
vt 1.83259571 0.00000000
vt -0.00212504 -0.00293060
vt 0.52359879 0.26179940
vt 0.78539819 -3.14159274
vt 3.92699075 -0.03575000
vt -0.00301868 -0.00305698
vt 1.57079637 0.00039000
vt 1.30899692 -0.05136000
vt 1.30899692 1.57079637
vt 2.87979317 1.30899692
vt 5.23598766 -3.14159274
vt 1.83259571 0.52359879
vt 6.28318548 0.78539819
vt 4.45058966 -2.46839428
vt 3.40339208 -2.01959538
vt 6.54498482 0.52359879
vt -0.00177304 0.00000000
vt 2.61799383 -2.46839428
vt -0.00139430 -0.00080500
vt 4.45058966 0.26179940
vt 0.00000000 -0.00200000
vt 4.97418833 0.78539819
vt 5.75958633 0.78539819
vt 1.04719758 -0.03575000
vt 3.14159274 -1.57079637
vt 3.14159274 -0.00000000
vt -0.00000000 0.00000000
vt 1.57079637 -0.03195000
vt 0.52359879 0.00000000
vt -0.00080500 -0.00300430
vt 5.23598766 -2.69279361
vt -0.00113844 -0.00047156
vt 1.57079637 1.30899692
vt 4.71238899 0.78539819
vt 0.26179940 0.00000000
vt 1.17809725 -0.00088652
vt 4.97418833 -0.03595000
vt -0.00085410 -0.00318756
vt 2.35619450 0.00000000
vt 3.40339208 1.04719758
vt 4.97418833 -1.79519582
vt 0.00155563 -0.00505563
vt 0.00080500 -0.00300430
vt 0.00000000 0.78539819
vt -0.00076775 -0.00398935
vt 5.75958633 -2.69279361
vt 5.23598766 -1.57079637
vt -0.00000000 -0.00130000
vt 2.35619450 -2.01959538
vt 2.61799383 -0.00000000
vt 0.00212504 -0.00406940
vt 2.61799383 -2.69279361
vt 3.40339208 -0.03195000
vt 0.26179940 -0.03575000
vt 3.14159274 -0.03575000
vt 3.14159274 -2.46839428
vt 2.87979317 0.00000000
vt 3.14159274 0.00000000
vt 3.01069307 -0.00088652
vt 4.97418833 1.30899692
vt 3.14159274 0.00039000
vt 6.02138615 -2.91719317
vt -0.00005232 -0.00226215
vt -0.00318756 0.00085410
vt 0.00155514 -0.00202670
vt 6.02138615 1.04719758
vt -0.00155563 -0.00505563
vt 1.30899692 -3.14159274
vt 0.52359879 0.78539819
vt 6.54498482 0.26179940
vt 0.00247487 -0.00597487
vt 3.27249241 -0.00088652
vt 0.78539819 0.78539819
vt 0.78539819 1.57079637
vt 1.30899692 -0.03575000
vt 2.61799383 -0.03575000
vt 6.02138615 -1.79519582
vt 3.92699075 -0.05136000
vt -0.00233345 -0.00233345
vt 0.26179940 -0.00000000
vt 5.23598766 0.78539819
vt 5.23598766 1.57079637
vt 2.35619450 -3.14159274
vt 6.54498482 1.30899692
vt 4.71238899 -2.69279361
vt 1.30899692 1.04719758
vt 5.75958633 -0.05136000
vt -0.00076775 -0.00132978
vt 1.83259571 1.30899692
vt 0.00161000 -0.00161000
vt 2.87979317 0.26179940
vt 3.92699075 -1.79519582
vt 6.02138615 -0.03575000
vt 4.97418833 -3.14159274
vt 5.75958633 -3.14159274
vt 0.26179940 -2.91719317
vt 3.14159274 -2.91719317
vt 2.61799383 0.00000000
vt -0.00088652 -0.00000000
vt 1.83259571 -2.24399471
vt 6.54498482 -1.79519582
vt -0.00161000 -0.00161000
vt 4.97418833 -2.91719317
vt 0.00041670 -0.00005486
vt 2.61799383 1.04719758
vt 6.28318548 1.04719758
vt 6.54498482 -2.24399471
vt 0.00000000 0.26179940
vt 1.30899692 -0.00000000
vt -0.00153550 -0.00443261
vt 1.30899692 -1.57079637
vt 6.15228558 -0.00088652
vt -0.00000000 -0.00700000
vt 2.09439516 -1.57079637
vt 1.83259571 1.57079637
vt 4.18879032 0.00039000
vt 3.66519141 0.26179940
vt 0.78539819 -0.05136000
vt -0.00177304 0.00000000
vt 0.00233345 0.00233345
vt 1.30899692 0.52359879
vt 3.92699075 0.00000000
vt 2.87979317 -0.03195000
vt 0.26179940 0.00039000
vt 4.58148909 -0.00088652
vt 4.18879032 -2.46839428
vt -0.00085410 0.00318756
vt 6.02138615 -0.00000000
vt 3.14159274 1.57079637
vt 4.71238899 -0.05136000
vt 3.40339208 0.78539819
vt 2.35619450 -1.57079637
vt -0.00088652 -0.00000000
vt 1.04719758 1.30899692
vt 1.04719758 -2.91719317
vt 0.00113844 -0.00274844
vt -0.00177304 -0.00000000
vt 5.75958633 0.00000000
vt 5.49778700 0.52359879
vt 4.97418833 -0.00000000
vt 3.66519141 -2.69279361
vt 1.83259571 -0.05136000
vt 5.75958633 -2.01959538
vt 4.18879032 -0.05136000
vt 6.28318548 1.57079637
vt 2.87979317 -1.57079637
vt 5.49778700 -0.05136000
vt 4.31968975 -0.00088652
vt 0.00247487 -0.00102513
vt 5.23598766 -0.03595000
vt 4.97418833 -2.46839428
vt 4.71238899 0.52359879
vt 3.92699075 0.00039000
vt 3.14159274 -2.24399471
vt -0.00153550 0.00088652
vt 4.97418833 1.57079637
vt 2.87979317 -2.91719317
vt 5.75958633 -0.03195000
vt 2.09439516 -2.91719317
vt 2.35619450 0.78539819
vt 0.00000000 0.52359879
vt 0.00318756 -0.00085410
vt -0.00056940 -0.00562504
vt 6.28318548 0.00039000
vt 3.40339208 -2.69279361
vt 2.61799383 -0.03195000
vt 4.18879032 0.26179940
vt 4.97418833 -2.24399471
vt 5.75958633 -2.24399471
vt 6.54498482 -2.91719317
vt -0.00307100 -0.00354609
vt 0.26179940 -1.79519582
vt 6.28318548 0.00000000
vt -0.00338074 -0.00440587
vt 3.40339208 -0.03575000
vt 1.57079637 -2.46839428
vt 1.57079637 0.00000000
vt 5.23598766 1.30899692
vt 3.66519141 -2.91719317
vt 1.57079637 -2.69279361
vt 0.52359879 -2.01959538
vt -0.00303109 -0.00525000
vt 4.97418833 0.00000000
vt -0.00041670 -0.00005486
vt 1.57079637 0.52359879
vt -0.00285788 -0.00165000
vt 1.57079637 1.57079637
vt 2.61799383 1.30899692
vt 4.18879032 -1.79519582
vt 0.26179940 1.57079637
vt 1.83259571 0.00039000
vt 0.78539819 -2.01959538
vt 1.57079637 -0.00000000
vt 2.35619450 -2.24399471
vt 0.13089970 -0.00088652
vt 2.61799383 0.26179940
vt 1.83259571 -0.03575000
vt 2.09439516 -0.03595000
vt 3.66519141 1.04719758
vt 2.87979317 -2.46839428
vt 3.40339208 -3.14159274
vt 2.09439516 0.00000000
vt -0.00044974 -0.00157380
vt 5.23598766 0.52359879
vt 0.00155514 -0.00119330
vt 0.00110000 -0.00540526
vt 2.87979317 0.52359879
vt 1.30899692 -2.24399471
vt 4.45058966 -1.57079637
vt 0.91629785 -0.00088652
vt 2.87979317 -2.01959538
vt -0.00301868 -0.00226215
vt 1.83259571 1.04719758
vt 5.49778700 -2.69279361
vt 4.05789042 -0.00088652
vt 0.52359879 -2.24399471
vt 5.49778700 -2.24399471
vt 3.66519141 -2.46839428
vt 6.28318548 -1.79519582
vt -0.00262126 -0.00374533
vt 1.83259571 -0.00000000
vt 4.18879032 -1.57079637
vt 0.78539819 0.00039000
vt 1.83259571 -1.57079637
vt 2.09439516 0.00039000
vt 0.00090587 -0.00011926
vt 1.57079637 -3.14159274
vt 0.00085410 0.00318756
vt 6.28318548 -0.05136000
vt 4.18879032 -0.03595000
vt 4.71238899 -2.24399471
vt 1.83259571 -0.03595000
vt -0.00155514 -0.00202670
vt 6.02138615 -0.05136000
vt -0.00090587 -0.00011926
vt 2.09439516 1.57079637
vt 3.14159274 0.52359879
vt 5.23598766 -0.03195000
vt 2.35619450 -0.03575000
vt 4.45058966 -3.14159274
vt 0.00212504 -0.00293060
vt -0.00139430 -0.00241500
vt 3.14159274 -2.01959538
vt 0.00175000 -0.00046891
vt 3.40339208 0.00000000
vt -0.00056940 -0.00137496
vt 2.35619450 1.04719758
vt 0.78539819 0.00000000
vt 3.40339208 -2.46839428
vt 5.49778700 0.26179940
vt 2.09439516 0.52359879
vt 4.97418833 0.52359879
vt 1.04719758 -2.69279361
vt 1.57079637 0.00000000
vt 0.52359879 -0.03195000
vt 0.00303109 -0.00525000
vt 5.75958633 0.52359879
vt 2.61799383 -0.03595000
vt 2.09439516 -0.00000000
vt 0.78539819 0.26179940
vt 0.00175000 -0.00653109
vt -0.00090587 -0.00688074
vt 4.71238899 0.26179940
vt 0.00190526 -0.00460000
vt 3.14159274 1.04719758
vt -0.00165000 0.00285788
vt 5.89048624 -0.00088652
vt 2.35619450 -0.00000000
vt 1.57079637 -2.24399471
vt 4.45058966 -0.03195000
vt 5.49778700 -0.00000000
vt 5.23598766 -1.79519582
vt -0.00088652 0.00000000
vt 4.45058966 0.00000000
vt 3.40339208 -2.24399471
vt 2.87979317 1.57079637
vt 6.02138615 1.57079637
vt 0.26179940 1.30899692
vt 0.26179940 -0.05136000
vt 2.35619450 0.52359879
vt 5.49778700 -0.03195000
vt 4.97418833 -0.05136000
vt 6.02138615 0.00000000
vt 3.14159274 -3.14159274
vt 0.00338074 -0.00440587
vt 3.14159274 -0.03595000
vt 3.40339208 0.00000000
vt 3.14159274 -2.69279361
vt 4.71238899 -1.57079637
vt 4.18879032 0.52359879
vt 0.26179940 -2.46839428
vt 1.04719758 -0.00000000
vt 2.87979317 -2.24399471
vt 0.26179940 0.00000000
vt 1.30899692 0.00039000
vt 5.23598766 -2.24399471
vt 0.78539819 -2.91719317
vt 4.71238899 -0.03195000
vt 0.00139430 -0.00080500
vt 5.49778700 0.00000000
vt 1.83259571 0.26179940
vt -0.00193292 -0.00414274
vt 1.57079637 0.78539819
vt 3.40339208 0.26179940
vt 0.26179940 -2.01959538
vt 0.52359879 0.52359879
vt 6.02138615 0.00039000
vt 2.61799383 0.52359879
vt 2.35619450 0.00039000
vt 3.14159274 0.00000000
vt 4.18879032 -2.91719317
vt 5.75958633 1.57079637
vt -0.00233345 0.00233345
vt 2.61799383 -1.57079637
vt 4.97418833 0.00039000
vt 1.70169604 -0.00088652
vt 3.66519141 -2.24399471
vt 1.04719758 -0.03595000
vt 0.00000000 -0.00200000
vt -0.00193292 -0.00117638
vt 0.00153550 -0.00088652
vt -0.00177304 -0.00000000
vt 4.45058966 0.78539819
vt 3.92699075 1.57079637
vt -0.00330000 -0.00000000
vt 2.61799383 0.00000000
vt 1.04719758 -2.46839428
vt 2.87979317 0.78539819
vt 1.30899692 0.00000000
vt 0.78539819 -0.03575000
vt -0.00000000 -0.00200000
vt -0.00041670 -0.00316514
vt -0.00000000 -0.00322000
vt 4.45058966 -0.03575000
vt 1.04719758 0.00039000
vt 4.71238899 -1.79519582
vt 3.92699075 -1.57079637
vt -0.00177304 0.00000000
vt 3.92699075 -0.00000000
vt 0.78539819 -1.79519582
vt 2.35619450 -0.03595000
vt 3.92699075 -2.69279361
vt 5.49778700 0.00000000
vt 6.02138615 -0.03595000
vt -0.00175000 -0.00653109
vt 2.09439516 -1.79519582
vt 0.26179940 -3.14159274
vt 0.00190526 -0.00240000
vt 0.52359879 -0.03575000
vt 6.02138615 -2.01959538
vt 5.75958633 1.04719758
vt 2.09439516 -2.24399471
vt 0.00056940 -0.00562504
vt 3.92699075 1.30899692
vt -0.00113808 -0.00117638
vt 6.54498482 -0.05136000
vt 1.30899692 -2.69279361
vt 2.61799383 -3.14159274
vt 3.92699075 1.04719758
vt 1.30899692 -0.03595000
vt 0.52359879 -0.03595000
vt 4.71238899 0.00000000
vt 6.28318548 0.00000000
vt 4.18879032 -0.00000000
vt 3.14159274 0.78539819
vt 3.40339208 0.52359879
vt 2.35619450 -2.69279361
vt 2.61799383 -0.05136000
vt -0.00020572 -0.00342731
vt 6.54498482 0.00000000
vt 6.54498482 -2.46839428
vt 0.00165000 -0.00285788
vt -0.00088652 0.00000000
vt -0.00110000 -0.00540526
vt 3.66519141 -0.03195000
vt 3.40339208 -0.03595000
vt 4.45058966 -0.03595000
vt 3.92699075 -3.14159274
vt 2.09439516 0.78539819
vt 3.66519141 0.00039000
vt 2.35619450 -2.91719317
vt 0.00285788 0.00165000
vt 2.87979317 -2.69279361
vt 0.26179940 -1.57079637
vt -0.00044974 -0.00374533
vt 6.54498482 -2.01959538
vt 4.18879032 -2.24399471
vt 1.04719758 0.26179940
vt -0.00165000 -0.00285788
vt 5.23598766 -2.46839428
vt 1.57079637 1.04719758
vt -0.00000000 -0.00000000
vt 0.00233345 -0.00233345
vt 3.14159274 1.30899692
vt 2.61799383 -2.24399471
vt 2.87979317 -3.14159274
vt 2.35619450 0.26179940
vt 3.66519141 0.52359879
vt 4.71238899 -0.00000000
vt 4.97418833 1.04719758
vt 5.23598766 1.04719758
vt 6.28318548 -2.91719317
vt -0.00088652 0.00000000
vt 3.40339208 -1.79519582
vt 3.66519141 -0.00000000
vt 1.04719758 -0.03195000
vt 0.78539819 -0.00000000
vt 1.57079637 -2.01959538
vt 0.52359879 1.57079637
vt 0.26179940 0.78539819
vt 1.04719758 -2.24399471
vt 6.54498482 -3.14159274
vt 4.18879032 -2.01959538
vt 1.57079637 -0.03595000
vt 1.30899692 0.26179940
vt -0.00212504 -0.00406940
vt 4.71238899 1.30899692
vt -0.00338074 -0.00259413
vt 0.65449846 -0.00088652
vt 5.49778700 -1.57079637
vt -0.00286528 -0.00189181
vt 0.00153550 0.00088652
vt 4.97418833 -0.03195000
vt 2.61799383 0.78539819
vt 5.75958633 -2.46839428
vt 4.45058966 1.57079637
vt 5.23598766 -2.91719317
vt 4.45058966 -2.01959538
vt 0.00303109 -0.00175000
vt 6.28318548 0.00000000
vt -0.00000000 0.00000000
vt 2.87979317 -0.00000000
vt 4.45058966 1.30899692
vt 5.49778700 1.30899692
vt 2.35619450 -0.03195000
vt 5.23598766 -0.03575000
vt 6.02138615 -0.03195000
vt 4.71238899 0.00000000
vt 2.87979317 -0.03595000
vt 4.18879032 1.04719758
vt 1.83259571 0.00000000
vt 5.49778700 1.57079637
vt 3.40339208 -2.91719317
vt 4.71238899 0.00039000
vt 3.66519141 -0.03575000
vt 3.92699075 0.78539819
vt 5.62868690 -0.00088652
vt -0.00155563 -0.00194437
vt 4.18879032 1.30899692
vt 2.09439516 -3.14159274
vt 1.30899692 -0.03195000
vt 1.30899692 1.30899692
vt 4.45058966 -1.79519582
vt 0.39269909 -0.00088652
vt 0.00000000 -0.03595000
vt 3.53429174 -0.00088652
vt 6.02138615 0.78539819
vt -0.00230325 -0.00132978
vt 6.28318548 -0.03575000
vt -0.00307100 -0.00177304
vt 0.00000000 -0.00265956
vt -0.00285788 0.00165000
vt 5.49778700 0.00039000
vt -0.00350000 -0.00350000
vt 3.66519141 -0.03595000
vt 5.49778700 -1.79519582
vt 5.23598766 -0.00000000
vt 2.35619450 1.30899692
vt 0.52359879 -1.79519582
vt 0.78539819 1.04719758
vt 0.78539819 -2.24399471
vt 1.83259571 -1.79519582
vt 2.87979317 -0.03575000
vt 2.74889350 -0.00088652
vt 0.00000000 1.57079637
vt 4.45058966 -2.24399471
vt 4.45058966 0.00039000
vt 4.18879032 1.57079637
vt 5.75958633 -1.57079637
vt 0.52359879 -2.46839428
vt 3.66519141 0.00000000
vt -0.00113808 -0.00414274
vt 1.83259571 -2.46839428
vt 0.52359879 0.00000000
vt 0.00113844 -0.00047156
vt 5.49778700 -2.46839428
vt 6.28318548 -0.03595000
vt 0.00220000 -0.00350000
vt 2.09439516 1.30899692
vt 1.57079637 0.26179940
vt 0.52359879 0.00039000
vt 6.02138615 -2.24399471
vt 0.78539819 -2.46839428
vt 2.09439516 -2.01959538
vt 5.75958633 1.30899692
vt 2.35619450 0.00000000
vt -0.00220000 -0.00350000
vt 6.28318548 0.52359879
vt 3.40339208 1.57079637
vt 6.54498482 0.78539819
vt 5.23598766 0.26179940
vt 4.45058966 0.00000000
usemtl Nobel
f 470/1 469/2 468/3
f 443/4 469/2 470/5
f 470/6 440/7 466/8
f 467/9 440/7 470/10
f 468/3 467/9 470/11
f 470/12 464/13 451/14
f 465/15 464/13 470/16
f 466/8 465/15 470/17
f 470/18 462/19 461/20
f 463/21 462/19 470/22
f 451/14 463/21 470/23
f 470/24 454/25 453/26
f 449/27 454/25 470/28
f 461/20 449/27 470/29
f 470/30 447/31 460/32
f 452/33 447/31 470/34
f 453/26 452/33 470/35
f 470/36 458/37 445/38
f 459/39 458/37 470/40
f 460/32 459/39 470/41
f 470/42 456/43 455/44
f 457/45 456/43 470/46
f 445/38 457/45 470/47
f 455/44 443/48 470/49
f 290/50 314/51 291/52
f 314/51 315/53 291/52
f 291/52 315/53 292/54
f 315/53 316/55 292/54
f 292/54 316/55 293/56
f 316/55 317/57 293/56
f 293/56 317/57 294/58
f 317/57 318/59 294/58
f 294/58 318/59 295/60
f 318/59 319/61 295/60
f 295/60 319/61 296/62
f 319/61 320/63 296/62
f 296/62 320/63 297/64
f 320/63 321/65 297/64
f 297/64 321/65 298/66
f 321/65 322/67 298/66
f 298/66 322/67 299/68
f 322/67 323/69 299/68
f 299/68 323/69 300/70
f 323/69 324/71 300/70
f 300/70 324/71 301/72
f 324/71 325/73 301/72
f 301/72 325/73 302/74
f 325/73 326/75 302/74
f 302/74 326/75 303/76
f 326/75 327/77 303/76
f 303/76 327/77 304/78
f 327/77 328/79 304/78
f 304/78 328/79 305/80
f 328/79 329/81 305/80
f 305/80 329/81 306/82
f 329/81 330/83 306/82
f 306/82 330/83 307/84
f 330/83 331/85 307/84
f 307/84 331/85 308/86
f 331/85 332/87 308/86
f 308/86 332/87 309/88
f 332/87 333/89 309/88
f 309/88 333/89 310/90
f 333/89 334/91 310/90
f 310/90 334/91 311/92
f 334/91 335/93 311/92
f 311/92 335/93 312/94
f 335/93 336/95 312/94
f 312/94 336/95 313/96
f 336/95 337/97 313/96
f 313/96 337/97 290/98
f 337/97 314/99 290/98
f 337/100 338/101 314/51
f 338/101 339/102 314/51
f 314/51 339/102 315/53
f 339/102 340/103 315/53
f 315/53 340/103 316/55
f 340/103 341/104 316/55
f 316/55 341/104 317/57
f 341/104 342/105 317/57
f 317/57 342/105 318/59
f 342/105 343/106 318/59
f 318/59 343/106 319/61
f 343/106 344/107 319/61
f 319/61 344/107 320/63
f 344/107 345/108 320/63
f 320/63 345/108 321/65
f 345/108 346/109 321/65
f 321/65 346/109 322/67
f 346/109 347/110 322/67
f 322/67 347/110 323/69
f 347/110 348/111 323/69
f 323/69 348/111 324/71
f 348/111 349/112 324/71
f 324/71 349/112 325/73
f 349/112 350/113 325/73
f 325/73 350/113 326/75
f 350/113 351/114 326/75
f 326/75 351/114 327/77
f 351/114 352/115 327/77
f 327/77 352/115 328/79
f 352/115 353/116 328/79
f 328/79 353/116 329/81
f 353/116 354/117 329/81
f 329/81 354/117 330/83
f 354/117 355/118 330/83
f 330/83 355/118 331/85
f 355/118 356/119 331/85
f 331/85 356/119 332/87
f 356/119 357/120 332/87
f 332/87 357/120 333/89
f 357/120 358/121 333/89
f 333/89 358/121 334/91
f 358/121 359/122 334/91
f 334/91 359/122 335/93
f 359/122 360/123 335/93
f 335/93 360/123 336/95
f 360/123 361/124 336/95
f 336/95 361/124 337/97
f 361/124 338/125 337/97
f 361/126 362/127 338/101
f 362/127 363/128 338/101
f 338/101 363/128 339/102
f 363/128 364/129 339/102
f 339/102 364/129 340/103
f 364/129 365/130 340/103
f 340/103 365/130 341/104
f 365/130 366/131 341/104
f 341/104 366/131 342/105
f 366/131 367/132 342/105
f 342/105 367/132 343/106
f 367/132 368/133 343/106
f 343/106 368/133 344/107
f 368/133 369/134 344/107
f 344/107 369/134 345/108
f 369/134 370/135 345/108
f 345/108 370/135 346/109
f 370/135 371/136 346/109
f 346/109 371/136 347/110
f 371/136 372/137 347/110
f 347/110 372/137 348/111
f 372/137 373/138 348/111
f 348/111 373/138 349/112
f 373/138 374/139 349/112
f 349/112 374/139 350/113
f 374/139 375/140 350/113
f 350/113 375/140 351/114
f 375/140 376/141 351/114
f 351/114 376/141 352/115
f 376/141 377/142 352/115
f 352/115 377/142 353/116
f 377/142 378/143 353/116
f 353/116 378/143 354/117
f 378/143 379/144 354/117
f 354/117 379/144 355/118
f 379/144 380/145 355/118
f 355/118 380/145 356/119
f 380/145 381/146 356/119
f 356/119 381/146 357/120
f 381/146 382/147 357/120
f 357/120 382/147 358/121
f 382/147 383/148 358/121
f 358/121 383/148 359/122
f 383/148 384/149 359/122
f 359/122 384/149 360/123
f 384/149 385/150 360/123
f 360/123 385/150 361/124
f 385/150 362/151 361/124
f 385/152 386/153 362/127
f 386/153 387/154 362/127
f 362/127 387/154 363/128
f 387/154 388/155 363/128
f 363/128 388/155 364/129
f 388/155 389/156 364/129
f 364/129 389/156 365/130
f 389/156 390/157 365/130
f 365/130 390/157 366/131
f 390/157 391/158 366/131
f 366/131 391/158 367/132
f 391/158 392/159 367/132
f 367/132 392/159 368/133
f 392/159 393/160 368/133
f 368/133 393/160 369/134
f 393/160 394/161 369/134
f 369/134 394/161 370/135
f 394/161 395/162 370/135
f 370/135 395/162 371/136
f 395/162 396/163 371/136
f 371/136 396/163 372/137
f 396/163 397/164 372/137
f 372/137 397/164 373/138
f 397/164 398/165 373/138
f 373/138 398/165 374/139
f 398/165 399/166 374/139
f 374/139 399/166 375/140
f 399/166 400/167 375/140
f 375/140 400/167 376/141
f 400/167 401/168 376/141
f 376/141 401/168 377/142
f 401/168 402/169 377/142
f 377/142 402/169 378/143
f 402/169 403/170 378/143
f 378/143 403/170 379/144
f 403/170 404/171 379/144
f 379/144 404/171 380/145
f 404/171 405/172 380/145
f 380/145 405/172 381/146
f 405/172 406/173 381/146
f 381/146 406/173 382/147
f 406/173 407/174 382/147
f 382/147 407/174 383/148
f 407/174 408/175 383/148
f 383/148 408/175 384/149
f 408/175 409/176 384/149
f 384/149 409/176 385/150
f 409/176 386/177 385/150
f 409/178 410/179 386/153
f 410/179 411/180 386/153
f 386/153 411/180 387/154
f 411/180 412/181 387/154
f 387/154 412/181 388/155
f 412/181 413/182 388/155
f 388/155 413/182 389/156
f 413/182 414/183 389/156
f 389/156 414/183 390/157
f 414/183 415/184 390/157
f 390/157 415/184 391/158
f 415/184 416/185 391/158
f 391/158 416/185 392/159
f 416/185 417/186 392/159
f 392/159 417/186 393/160
f 417/186 418/187 393/160
f 393/160 418/187 394/161
f 418/187 419/188 394/161
f 394/161 419/188 395/162
f 419/188 420/189 395/162
f 395/162 420/189 396/163
f 420/189 421/190 396/163
f 396/163 421/190 397/164
f 421/190 422/191 397/164
f 397/164 422/191 398/165
f 422/191 423/192 398/165
f 398/165 423/192 399/166
f 423/192 424/193 399/166
f 399/166 424/193 400/167
f 424/193 425/194 400/167
f 400/167 425/194 401/168
f 425/194 426/195 401/168
f 401/168 426/195 402/169
f 426/195 427/196 402/169
f 402/169 427/196 403/170
f 427/196 428/197 403/170
f 403/170 428/197 404/171
f 428/197 429/198 404/171
f 404/171 429/198 405/172
f 429/198 430/199 405/172
f 405/172 430/199 406/173
f 430/199 431/200 406/173
f 406/173 431/200 407/174
f 431/200 432/201 407/174
f 407/174 432/201 408/175
f 432/201 433/202 408/175
f 408/175 433/202 409/176
f 433/202 410/203 409/176
f 433/204 267/205 410/179
f 267/205 268/206 410/179
f 410/179 268/206 411/180
f 268/206 269/207 411/180
f 411/180 269/207 412/181
f 269/207 270/208 412/181
f 412/181 270/208 413/182
f 270/208 271/209 413/182
f 413/182 271/209 414/183
f 271/209 272/210 414/183
f 414/183 272/210 415/184
f 272/210 273/211 415/184
f 415/184 273/211 416/185
f 273/211 274/212 416/185
f 416/185 274/212 417/186
f 274/212 275/213 417/186
f 417/186 275/213 418/187
f 275/213 276/214 418/187
f 418/187 276/214 419/188
f 276/214 277/215 419/188
f 419/188 277/215 420/189
f 277/215 278/216 420/189
f 420/189 278/216 421/190
f 278/216 279/217 421/190
f 421/190 279/217 422/191
f 279/217 280/218 422/191
f 422/191 280/218 423/192
f 280/218 281/219 423/192
f 423/192 281/219 424/193
f 281/219 282/220 424/193
f 424/193 282/220 425/194
f 282/220 283/221 425/194
f 425/194 283/221 426/195
f 283/221 284/222 426/195
f 426/195 284/222 427/196
f 284/222 285/223 427/196
f 427/196 285/223 428/197
f 285/223 286/224 428/197
f 428/197 286/224 429/198
f 286/224 287/225 429/198
f 429/198 287/225 430/199
f 287/225 288/226 430/199
f 430/199 288/226 431/200
f 288/226 289/227 431/200
f 431/200 289/227 432/201
f 289/227 266/228 432/201
f 432/201 266/228 433/202
f 266/228 267/229 433/202
f 61/230 98/231 60/232
f 98/231 99/233 60/232
f 60/232 99/233 59/234
f 99/233 100/235 59/234
f 59/234 100/235 58/236
f 100/235 101/237 58/236
f 58/236 101/237 57/238
f 101/237 102/239 57/238
f 57/238 102/239 56/240
f 102/239 103/241 56/240
f 56/240 103/241 55/242
f 103/241 104/243 55/242
f 55/242 104/243 54/244
f 104/243 105/245 54/244
f 54/244 105/245 53/246
f 105/245 106/247 53/246
f 53/246 106/247 52/248
f 106/247 107/249 52/248
f 52/248 107/249 51/250
f 107/249 108/251 51/250
f 51/250 108/251 50/252
f 108/251 109/253 50/252
f 50/252 109/253 73/254
f 109/253 110/255 73/254
f 73/254 110/255 72/256
f 110/255 111/257 72/256
f 72/256 111/257 71/258
f 111/257 112/259 71/258
f 71/258 112/259 70/260
f 112/259 113/261 70/260
f 70/260 113/261 69/262
f 113/261 114/263 69/262
f 69/262 114/263 68/264
f 114/263 115/265 68/264
f 68/264 115/265 67/266
f 115/265 116/267 67/266
f 67/266 116/267 66/268
f 116/267 117/269 66/268
f 66/268 117/269 65/270
f 117/269 118/271 65/270
f 65/270 118/271 64/272
f 118/271 119/273 64/272
f 64/272 119/273 63/274
f 119/273 120/275 63/274
f 63/274 120/275 62/276
f 120/275 121/277 62/276
f 62/276 121/277 61/278
f 121/277 98/279 61/278
f 98/231 122/280 99/233
f 122/280 123/281 99/233
f 99/233 123/281 100/235
f 123/281 124/282 100/235
f 100/235 124/282 101/237
f 124/282 125/283 101/237
f 101/237 125/283 102/239
f 125/283 126/284 102/239
f 102/239 126/284 103/241
f 126/284 127/285 103/241
f 103/241 127/285 104/243
f 127/285 128/286 104/243
f 104/243 128/286 105/245
f 128/286 129/287 105/245
f 105/245 129/287 106/247
f 129/287 130/288 106/247
f 106/247 130/288 107/249
f 130/288 131/289 107/249
f 107/249 131/289 108/251
f 131/289 132/290 108/251
f 108/251 132/290 109/253
f 132/290 133/291 109/253
f 109/253 133/291 110/255
f 133/291 134/292 110/255
f 110/255 134/292 111/257
f 134/292 135/293 111/257
f 111/257 135/293 112/259
f 135/293 136/294 112/259
f 112/259 136/294 113/261
f 136/294 137/295 113/261
f 113/261 137/295 114/263
f 137/295 138/296 114/263
f 114/263 138/296 115/265
f 138/296 139/297 115/265
f 115/265 139/297 116/267
f 139/297 140/298 116/267
f 116/267 140/298 117/269
f 140/298 141/299 117/269
f 117/269 141/299 118/271
f 141/299 142/300 118/271
f 118/271 142/300 119/273
f 142/300 143/301 119/273
f 119/273 143/301 120/275
f 143/301 144/302 120/275
f 120/275 144/302 121/277
f 144/302 145/303 121/277
f 121/277 145/303 98/279
f 145/303 122/304 98/279
f 122/280 146/305 123/281
f 146/305 147/306 123/281
f 123/281 147/306 124/282
f 147/306 148/307 124/282
f 124/282 148/307 125/283
f 148/307 149/308 125/283
f 125/283 149/308 126/284
f 149/308 150/309 126/284
f 126/284 150/309 127/285
f 150/309 151/310 127/285
f 127/285 151/310 128/286
f 151/310 152/311 128/286
f 128/286 152/311 129/287
f 152/311 153/312 129/287
f 129/287 153/312 130/288
f 153/312 154/313 130/288
f 130/288 154/313 131/289
f 154/313 155/314 131/289
f 131/289 155/314 132/290
f 155/314 156/315 132/290
f 132/290 156/315 133/291
f 156/315 157/316 133/291
f 133/291 157/316 134/292
f 157/316 158/317 134/292
f 134/292 158/317 135/293
f 158/317 159/318 135/293
f 135/293 159/318 136/294
f 159/318 160/319 136/294
f 136/294 160/319 137/295
f 160/319 161/320 137/295
f 137/295 161/320 138/296
f 161/320 162/321 138/296
f 138/296 162/321 139/297
f 162/321 163/322 139/297
f 139/297 163/322 140/298
f 163/322 164/323 140/298
f 140/298 164/323 141/299
f 164/323 165/324 141/299
f 141/299 165/324 142/300
f 165/324 166/325 142/300
f 142/300 166/325 143/301
f 166/325 167/326 143/301
f 143/301 167/326 144/302
f 167/326 168/327 144/302
f 144/302 168/327 145/303
f 168/327 169/328 145/303
f 145/303 169/328 122/304
f 169/328 146/329 122/304
f 146/305 170/330 147/306
f 170/330 171/331 147/306
f 147/306 171/331 148/307
f 171/331 172/332 148/307
f 148/307 172/332 149/308
f 172/332 173/333 149/308
f 149/308 173/333 150/309
f 173/333 174/334 150/309
f 150/309 174/334 151/310
f 174/334 175/335 151/310
f 151/310 175/335 152/311
f 175/335 176/336 152/311
f 152/311 176/336 153/312
f 176/336 177/337 153/312
f 153/312 177/337 154/313
f 177/337 178/338 154/313
f 154/313 178/338 155/314
f 178/338 179/339 155/314
f 155/314 179/339 156/315
f 179/339 180/340 156/315
f 156/315 180/340 157/316
f 180/340 181/341 157/316
f 157/316 181/341 158/317
f 181/341 182/342 158/317
f 158/317 182/342 159/318
f 182/342 183/343 159/318
f 159/318 183/343 160/319
f 183/343 184/344 160/319
f 160/319 184/344 161/320
f 184/344 185/345 161/320
f 161/320 185/345 162/321
f 185/345 186/346 162/321
f 162/321 186/346 163/322
f 186/346 187/347 163/322
f 163/322 187/347 164/323
f 187/347 188/348 164/323
f 164/323 188/348 165/324
f 188/348 189/349 165/324
f 165/324 189/349 166/325
f 189/349 190/350 166/325
f 166/325 190/350 167/326
f 190/350 191/351 167/326
f 167/326 191/351 168/327
f 191/351 192/352 168/327
f 168/327 192/352 169/328
f 192/352 193/353 169/328
f 169/328 193/353 146/329
f 193/353 170/354 146/329
f 170/330 194/355 171/331
f 194/355 195/356 171/331
f 171/331 195/356 172/332
f 195/356 196/357 172/332
f 172/332 196/357 173/333
f 196/357 197/358 173/333
f 173/333 197/358 174/334
f 197/358 198/359 174/334
f 174/334 198/359 175/335
f 198/359 199/360 175/335
f 175/335 199/360 176/336
f 199/360 200/361 176/336
f 176/336 200/361 177/337
f 200/361 201/362 177/337
f 177/337 201/362 178/338
f 201/362 202/363 178/338
f 178/338 202/363 179/339
f 202/363 203/364 179/339
f 179/339 203/364 180/340
f 203/364 204/365 180/340
f 180/340 204/365 181/341
f 204/365 205/366 181/341
f 181/341 205/366 182/342
f 205/366 206/367 182/342
f 182/342 206/367 183/343
f 206/367 207/368 183/343
f 183/343 207/368 184/344
f 207/368 208/369 184/344
f 184/344 208/369 185/345
f 208/369 209/370 185/345
f 185/345 209/370 186/346
f 209/370 210/371 186/346
f 186/346 210/371 187/347
f 210/371 211/372 187/347
f 187/347 211/372 188/348
f 211/372 212/373 188/348
f 188/348 212/373 189/349
f 212/373 213/374 189/349
f 189/349 213/374 190/350
f 213/374 214/375 190/350
f 190/350 214/375 191/351
f 214/375 215/376 191/351
f 191/351 215/376 192/352
f 215/376 216/377 192/352
f 192/352 216/377 193/353
f 216/377 217/378 193/353
f 193/353 217/378 170/354
f 217/378 194/379 170/354
f 194/355 218/380 195/356
f 218/380 219/381 195/356
f 195/356 219/381 196/357
f 219/381 220/382 196/357
f 196/357 220/382 197/358
f 220/382 221/383 197/358
f 197/358 221/383 198/359
f 221/383 222/384 198/359
f 198/359 222/384 199/360
f 222/384 223/385 199/360
f 199/360 223/385 200/361
f 223/385 224/386 200/361
f 200/361 224/386 201/362
f 224/386 225/387 201/362
f 201/362 225/387 202/363
f 225/387 226/388 202/363
f 202/363 226/388 203/364
f 226/388 227/389 203/364
f 203/364 227/389 204/365
f 227/389 228/390 204/365
f 204/365 228/390 205/366
f 228/390 229/391 205/366
f 205/366 229/391 206/367
f 229/391 230/392 206/367
f 206/367 230/392 207/368
f 230/392 231/393 207/368
f 207/368 231/393 208/369
f 231/393 232/394 208/369
f 208/369 232/394 209/370
f 232/394 233/395 209/370
f 209/370 233/395 210/371
f 233/395 234/396 210/371
f 210/371 234/396 211/372
f 234/396 235/397 211/372
f 211/372 235/397 212/373
f 235/397 236/398 212/373
f 212/373 236/398 213/374
f 236/398 237/399 213/374
f 213/374 237/399 214/375
f 237/399 238/400 214/375
f 214/375 238/400 215/376
f 238/400 239/401 215/376
f 215/376 239/401 216/377
f 239/401 240/402 216/377
f 216/377 240/402 217/378
f 240/402 241/403 217/378
f 217/378 241/403 194/379
f 241/403 218/404 194/379
f 218/380 75/405 219/381
f 75/405 76/406 219/381
f 219/381 76/406 220/382
f 76/406 77/407 220/382
f 220/382 77/407 221/383
f 77/407 78/408 221/383
f 221/383 78/408 222/384
f 78/408 79/409 222/384
f 222/384 79/409 223/385
f 79/409 80/410 223/385
f 223/385 80/410 224/386
f 80/410 81/411 224/386
f 224/386 81/411 225/387
f 81/411 82/412 225/387
f 225/387 82/412 226/388
f 82/412 83/413 226/388
f 226/388 83/413 227/389
f 83/413 84/414 227/389
f 227/389 84/414 228/390
f 84/414 85/415 228/390
f 228/390 85/415 229/391
f 85/415 86/416 229/391
f 229/391 86/416 230/392
f 86/416 87/417 230/392
f 230/392 87/417 231/393
f 87/417 88/418 231/393
f 231/393 88/418 232/394
f 88/418 89/419 232/394
f 232/394 89/419 233/395
f 89/419 90/420 233/395
f 233/395 90/420 234/396
f 90/420 91/421 234/396
f 234/396 91/421 235/397
f 91/421 92/422 235/397
f 235/397 92/422 236/398
f 92/422 93/423 236/398
f 236/398 93/423 237/399
f 93/423 94/424 237/399
f 237/399 94/424 238/400
f 94/424 95/425 238/400
f 238/400 95/425 239/401
f 95/425 96/426 239/401
f 239/401 96/426 240/402
f 96/426 97/427 240/402
f 240/402 97/427 241/403
f 97/427 74/428 241/403
f 241/403 74/428 218/404
f 74/428 75/429 218/404
f 266/430 253/431 267/432
f 253/431 252/433 267/432
f 267/432 252/433 268/434
f 252/433 258/435 268/434
f 268/434 258/435 269/436
f 258/435 251/437 269/436
f 269/436 251/437 270/438
f 251/437 250/439 270/438
f 270/438 250/439 271/440
f 250/439 249/441 271/440
f 271/440 249/441 272/442
f 249/441 248/443 272/442
f 272/442 248/443 273/444
f 248/443 264/445 273/444
f 273/444 264/445 274/446
f 264/445 265/447 274/446
f 274/446 265/447 275/448
f 265/447 263/449 275/448
f 275/448 263/449 276/450
f 263/449 262/451 276/450
f 276/450 262/451 277/452
f 262/451 261/453 277/452
f 277/452 261/453 278/454
f 261/453 260/455 278/454
f 278/454 260/455 279/456
f 260/455 257/457 279/456
f 279/456 257/457 280/458
f 257/457 256/459 280/458
f 280/458 256/459 281/460
f 256/459 245/461 281/460
f 281/460 245/461 282/462
f 245/461 243/463 282/462
f 282/462 243/463 283/464
f 243/463 242/465 283/464
f 283/464 242/465 284/466
f 242/465 244/467 284/466
f 284/466 244/467 285/468
f 244/467 247/469 285/468
f 285/468 247/469 286/470
f 247/469 246/471 286/470
f 286/470 246/471 287/472
f 246/471 255/473 287/472
f 287/472 255/473 288/474
f 255/473 254/475 288/474
f 288/474 254/475 289/476
f 254/475 259/477 289/476
f 289/476 259/477 266/478
f 259/477 253/479 266/478
f 50/480 27/481 51/482
f 27/481 28/483 51/482
f 51/482 28/483 52/484
f 28/483 29/485 52/484
f 52/484 29/485 53/486
f 29/485 30/487 53/486
f 53/486 30/487 54/488
f 30/487 31/489 54/488
f 54/488 31/489 55/490
f 31/489 32/491 55/490
f 55/490 32/491 56/492
f 32/491 33/493 56/492
f 56/492 33/493 57/494
f 33/493 34/495 57/494
f 57/494 34/495 58/496
f 34/495 35/497 58/496
f 58/496 35/497 59/498
f 35/497 36/499 59/498
f 59/498 36/499 60/500
f 36/499 37/501 60/500
f 60/500 37/501 61/502
f 37/501 38/503 61/502
f 61/502 38/503 62/504
f 38/503 39/505 62/504
f 62/504 39/505 63/506
f 39/505 40/507 63/506
f 63/506 40/507 64/508
f 40/507 41/509 64/508
f 64/508 41/509 65/510
f 41/509 42/511 65/510
f 65/510 42/511 66/512
f 42/511 43/513 66/512
f 66/512 43/513 67/514
f 43/513 44/515 67/514
f 67/514 44/515 68/516
f 44/515 45/517 68/516
f 68/516 45/517 69/518
f 45/517 46/519 69/518
f 69/518 46/519 70/520
f 46/519 47/521 70/520
f 70/520 47/521 71/522
f 47/521 48/523 71/522
f 71/522 48/523 72/524
f 48/523 49/525 72/524
f 72/524 49/525 73/526
f 49/525 26/527 73/526
f 73/526 26/527 50/528
f 26/527 27/529 50/528
f 448/530 447/531 452/532
f 452/532 453/533 448/530
f 453/533 454/534 448/530
f 448/530 454/534 449/535
f 446/536 445/537 458/538
f 458/538 459/539 446/536
f 459/539 460/540 446/536
f 446/536 460/540 447/531
f 444/541 443/542 455/543
f 455/543 456/544 444/541
f 456/544 457/545 444/541
f 444/541 457/545 445/537
f 469/546 443/542 442/547
f 440/548 467/549 442/547
f 467/549 468/550 442/547
f 442/547 468/550 469/546
f 463/551 451/552 450/553
f 449/535 461/554 450/553
f 461/554 462/555 450/553
f 450/553 462/555 463/551
f 441/556 451/552 464/557
f 464/557 465/558 441/556
f 465/558 466/559 441/556
f 441/556 466/559 440/548
f 441/560 434/561 451/562
f 434/561 436/563 451/562
f 451/562 436/563 450/564
f 450/560 436/565 449/566
f 436/565 437/563 449/566
f 449/566 437/563 448/567
f 448/568 437/563 447/569
f 437/563 439/570 447/569
f 447/569 439/570 446/560
f 446/564 439/563 445/562
f 439/563 438/561 445/562
f 445/562 438/561 444/560
f 444/560 438/571 443/572
f 438/571 435/563 443/572
f 443/572 435/563 442/573
f 442/574 435/563 440/575
f 435/563 434/576 440/575
f 440/575 434/576 441/560
f 93/577 243/578 94/579
f 243/578 245/580 94/579
f 94/579 245/580 95/581
f 245/580 256/582 95/581
f 95/581 256/582 96/583
f 256/582 257/584 96/583
f 96/583 257/584 97/585
f 257/584 260/586 97/585
f 97/585 260/586 74/587
f 260/586 261/588 74/587
f 74/587 261/588 75/589
f 261/588 262/590 75/589
f 75/589 262/590 76/591
f 262/590 263/592 76/591
f 76/591 263/592 77/593
f 263/592 265/594 77/593
f 77/593 265/594 78/595
f 265/594 264/596 78/595
f 78/595 264/596 79/597
f 264/596 248/598 79/597
f 79/597 248/598 80/599
f 248/598 249/600 80/599
f 80/599 249/600 81/601
f 249/600 250/602 81/601
f 81/601 250/602 82/603
f 250/602 251/604 82/603
f 82/603 251/604 83/605
f 251/604 258/606 83/605
f 83/605 258/606 84/607
f 258/606 252/608 84/607
f 84/607 252/608 85/609
f 252/608 253/610 85/609
f 85/609 253/610 86/611
f 253/610 259/612 86/611
f 86/611 259/612 87/613
f 259/612 254/614 87/613
f 87/613 254/614 88/615
f 254/614 255/616 88/615
f 88/615 255/616 89/617
f 255/616 246/618 89/617
f 89/617 246/618 90/619
f 246/618 247/620 90/619
f 90/619 247/620 91/621
f 247/620 244/622 91/621
f 91/621 244/622 92/623
f 244/622 242/624 92/623
f 92/623 242/624 93/577
f 242/624 243/578 93/577
f 22/625 23/626 25/627
f 23/626 24/628 25/627
f 25/627 24/628 1/629
f 19/630 20/631 25/627
f 20/631 21/632 25/627
f 25/627 21/632 22/625
f 16/633 17/634 25/627
f 17/634 18/635 25/627
f 25/627 18/635 19/630
f 13/636 14/637 25/627
f 14/637 15/638 25/627
f 25/627 15/638 16/633
f 10/639 11/640 25/627
f 11/640 12/641 25/627
f 25/627 12/641 13/636
f 7/642 8/643 25/627
f 8/643 9/644 25/627
f 25/627 9/644 10/639
f 4/645 5/646 25/627
f 5/646 6/647 25/627
f 25/627 6/647 7/642
f 1/629 2/648 25/627
f 2/648 3/649 25/627
f 25/627 3/649 4/645
f 303/650 304/651 437/556
f 304/651 305/652 437/556
f 305/652 306/653 437/556
f 437/556 306/653 439/553
f 306/653 307/654 439/553
f 439/553 307/654 308/655
f 438/656 312/657 313/658
f 308/655 309/659 439/553
f 309/659 310/660 439/553
f 439/553 310/660 438/656
f 310/660 311/661 438/656
f 438/656 311/661 312/657
f 436/662 301/663 437/556
f 301/663 302/664 437/556
f 437/556 302/664 303/650
f 297/665 298/666 434/667
f 298/666 299/668 434/667
f 434/667 299/668 436/662
f 299/668 300/669 436/662
f 436/662 300/669 301/663
f 313/658 290/670 438/656
f 290/670 291/671 438/656
f 438/656 291/671 435/672
f 291/671 292/673 435/672
f 435/672 292/673 293/674
f 293/674 294/675 435/672
f 294/675 295/676 435/672
f 435/672 295/676 434/667
f 295/676 296/677 434/667
f 434/667 296/677 297/665
f 26/678 24/679 27/680
f 24/679 23/681 27/680
f 27/680 23/681 28/682
f 23/681 22/683 28/682
f 28/682 22/683 29/684
f 22/683 21/685 29/684
f 29/684 21/685 30/686
f 21/685 20/687 30/686
f 30/686 20/687 31/688
f 20/687 19/689 31/688
f 31/688 19/689 32/690
f 19/689 18/691 32/690
f 32/690 18/691 33/692
f 18/691 17/693 33/692
f 33/692 17/693 34/694
f 17/693 16/695 34/694
f 34/694 16/695 35/696
f 16/695 15/697 35/696
f 35/696 15/697 36/698
f 15/697 14/699 36/698
f 36/698 14/699 37/700
f 14/699 13/701 37/700
f 37/700 13/701 38/702
f 13/701 12/703 38/702
f 38/702 12/703 39/704
f 12/703 11/705 39/704
f 39/704 11/705 40/706
f 11/705 10/707 40/706
f 40/706 10/707 41/708
f 10/707 9/709 41/708
f 41/708 9/709 42/710
f 9/709 8/711 42/710
f 42/710 8/711 43/712
f 8/711 7/713 43/712
f 43/712 7/713 44/714
f 7/713 6/715 44/714
f 44/714 6/715 45/716
f 6/715 5/717 45/716
f 45/716 5/717 46/718
f 5/717 4/719 46/718
f 46/718 4/719 47/720
f 4/719 3/721 47/720
f 47/720 3/721 48/722
f 3/721 2/723 48/722
f 48/722 2/723 49/724
f 2/723 1/725 49/724
f 49/724 1/725 26/726
f 1/725 24/727 26/726
