# Exported from USD: /World/Robotiq_Hand_E_edit/base_link/Group3ROBOTIQ_HAND_E_DEFEATURE_02/Group3ROBOTIQ_HAND_E_DEFEATURE
mtllib D_A03_ASM_DOIGTS_PARALLELES_1ROBOTIQ_HAND_E_DEFEATURE.mtl

g Group3ROBOTIQ_HAND_E_DEFEATURE
v -0.02604193 -0.00890000 0.01339116
v -0.02562345 -0.00890000 0.01343015
v -0.02522931 -0.00890000 0.01357612
v -0.02488639 -0.00890000 0.01381913
v -0.02461805 -0.00890000 0.01414261
v -0.02444258 -0.00890000 0.01452452
v -0.02437192 -0.00890000 0.01493883
v -0.02441091 -0.00890000 0.01535732
v -0.02455688 -0.00890000 0.01575145
v -0.02479989 -0.00890000 0.01609437
v -0.02512337 -0.00890000 0.01636271
v -0.02550528 -0.00890000 0.01653819
v -0.02591960 -0.00890000 0.01660884
v -0.02633808 -0.00890000 0.01656985
v -0.02673221 -0.00890000 0.01642388
v -0.02707513 -0.00890000 0.01618087
v -0.02734347 -0.00890000 0.01585739
v -0.02751895 -0.00890000 0.01547548
v -0.02758960 -0.00890000 0.01506117
v -0.02755061 -0.00890000 0.01464268
v -0.02740464 -0.00890000 0.01424855
v -0.02716163 -0.00890000 0.01390563
v -0.02683815 -0.00890000 0.01363729
v -0.02645624 -0.00890000 0.01346181
v -0.02598076 -0.00890000 0.01500000
v -0.02605675 -0.00851000 0.01300144
v -0.02657142 -0.00851000 0.01308921
v -0.02704584 -0.00851000 0.01330719
v -0.02744768 -0.00851000 0.01364054
v -0.02774955 -0.00851000 0.01406653
v -0.02793089 -0.00851000 0.01455613
v -0.02797932 -0.00851000 0.01507598
v -0.02789155 -0.00851000 0.01559066
v -0.02767357 -0.00851000 0.01606508
v -0.02734023 -0.00851000 0.01646692
v -0.02691424 -0.00851000 0.01676879
v -0.02642463 -0.00851000 0.01695012
v -0.02590478 -0.00851000 0.01699856
v -0.02539010 -0.00851000 0.01691079
v -0.02491568 -0.00851000 0.01669281
v -0.02451384 -0.00851000 0.01635947
v -0.02421197 -0.00851000 0.01593347
v -0.02403064 -0.00851000 0.01544387
v -0.02398221 -0.00851000 0.01492402
v -0.02406997 -0.00851000 0.01440934
v -0.02428795 -0.00851000 0.01393492
v -0.02462130 -0.00851000 0.01353308
v -0.02504729 -0.00851000 0.01323121
v -0.02553689 -0.00851000 0.01304988
v -0.02605675 0.00690000 0.01300144
v -0.02657142 0.00690000 0.01308921
v -0.02704584 0.00690000 0.01330719
v -0.02744768 0.00690000 0.01364054
v -0.02774955 0.00690000 0.01406653
v -0.02793089 0.00690000 0.01455613
v -0.02797932 0.00690000 0.01507598
v -0.02789155 0.00690000 0.01559066
v -0.02767357 0.00690000 0.01606508
v -0.02734023 0.00690000 0.01646692
v -0.02691424 0.00690000 0.01676879
v -0.02642463 0.00690000 0.01695012
v -0.02590478 0.00690000 0.01699856
v -0.02539010 0.00690000 0.01691079
v -0.02491568 0.00690000 0.01669281
v -0.02451384 0.00690000 0.01635947
v -0.02421197 0.00690000 0.01593347
v -0.02403064 0.00690000 0.01544387
v -0.02398221 0.00690000 0.01492402
v -0.02406997 0.00690000 0.01440934
v -0.02428795 0.00690000 0.01393492
v -0.02462130 0.00690000 0.01353308
v -0.02504729 0.00690000 0.01323121
v -0.02553689 0.00690000 0.01304988
v -0.02589718 0.00710000 0.01719841
v -0.02646902 0.00710000 0.01714513
v -0.02700758 0.00710000 0.01694567
v -0.02747617 0.00710000 0.01661361
v -0.02784285 0.00710000 0.01617159
v -0.02808263 0.00710000 0.01564972
v -0.02817917 0.00710000 0.01508358
v -0.02812590 0.00710000 0.01451174
v -0.02792643 0.00710000 0.01397318
v -0.02759437 0.00710000 0.01350459
v -0.02715235 0.00710000 0.01313791
v -0.02663049 0.00710000 0.01289813
v -0.02606434 0.00710000 0.01280159
v -0.02549250 0.00710000 0.01285486
v -0.02495394 0.00710000 0.01305433
v -0.02448535 0.00710000 0.01338639
v -0.02411867 0.00710000 0.01382841
v -0.02387889 0.00710000 0.01435028
v -0.02378235 0.00710000 0.01491642
v -0.02383563 0.00710000 0.01548826
v -0.02403509 0.00710000 0.01602682
v -0.02436715 0.00710000 0.01649541
v -0.02480917 0.00710000 0.01686209
v -0.02533104 0.00710000 0.01710187
v -0.02642614 0.00695176 0.01695677
v -0.02691742 0.00695176 0.01677482
v -0.02734486 0.00695176 0.01647192
v -0.02767934 0.00695176 0.01606871
v -0.02789806 0.00695176 0.01559267
v -0.02798613 0.00695176 0.01507624
v -0.02793753 0.00695176 0.01455462
v -0.02775558 0.00695176 0.01406334
v -0.02745268 0.00695176 0.01363590
v -0.02704947 0.00695176 0.01330142
v -0.02657343 0.00695176 0.01308270
v -0.02605700 0.00695176 0.01299463
v -0.02553538 0.00695176 0.01304323
v -0.02504411 0.00695176 0.01322518
v -0.02461667 0.00695176 0.01352808
v -0.02428219 0.00695176 0.01393129
v -0.02406346 0.00695176 0.01440733
v -0.02397540 0.00695176 0.01492376
v -0.02402399 0.00695176 0.01544538
v -0.02420594 0.00695176 0.01593666
v -0.02450884 0.00695176 0.01636410
v -0.02491205 0.00695176 0.01669858
v -0.02538809 0.00695176 0.01691730
v -0.02590452 0.00695176 0.01700537
v -0.02643058 0.00700000 0.01697625
v -0.02692674 0.00700000 0.01679249
v -0.02735844 0.00700000 0.01648657
v -0.02769625 0.00700000 0.01607935
v -0.02791715 0.00700000 0.01559857
v -0.02800609 0.00700000 0.01507700
v -0.02795701 0.00700000 0.01455018
v -0.02777325 0.00700000 0.01405402
v -0.02746734 0.00700000 0.01362232
v -0.02706011 0.00700000 0.01328451
v -0.02657933 0.00700000 0.01306361
v -0.02605776 0.00700000 0.01297467
v -0.02553095 0.00700000 0.01302375
v -0.02503478 0.00700000 0.01320751
v -0.02460308 0.00700000 0.01351343
v -0.02426527 0.00700000 0.01392065
v -0.02404437 0.00700000 0.01440143
v -0.02395543 0.00700000 0.01492300
v -0.02400451 0.00700000 0.01544982
v -0.02418827 0.00700000 0.01594598
v -0.02449419 0.00700000 0.01637768
v -0.02490141 0.00700000 0.01671549
v -0.02538219 0.00700000 0.01693639
v -0.02590376 0.00700000 0.01702533
v -0.02643763 0.00704142 0.01700724
v -0.02694158 0.00704142 0.01682060
v -0.02738004 0.00704142 0.01650989
v -0.02772315 0.00704142 0.01609628
v -0.02794752 0.00704142 0.01560796
v -0.02803786 0.00704142 0.01507821
v -0.02798800 0.00704142 0.01454313
v -0.02780136 0.00704142 0.01403918
v -0.02749065 0.00704142 0.01360072
v -0.02707704 0.00704142 0.01325761
v -0.02658872 0.00704142 0.01303324
v -0.02605897 0.00704142 0.01294291
v -0.02552389 0.00704142 0.01299276
v -0.02501995 0.00704142 0.01317940
v -0.02458148 0.00704142 0.01349011
v -0.02423837 0.00704142 0.01390372
v -0.02401401 0.00704142 0.01439204
v -0.02392367 0.00704142 0.01492179
v -0.02397352 0.00704142 0.01545687
v -0.02416016 0.00704142 0.01596082
v -0.02447088 0.00704142 0.01639928
v -0.02488448 0.00704142 0.01674239
v -0.02537280 0.00704142 0.01696676
v -0.02590255 0.00704142 0.01705709
v -0.02644682 0.00707320 0.01704763
v -0.02696091 0.00707320 0.01685723
v -0.02740820 0.00707320 0.01654027
v -0.02775821 0.00707320 0.01611834
v -0.02798709 0.00707320 0.01562019
v -0.02807925 0.00707320 0.01507978
v -0.02802839 0.00707320 0.01453394
v -0.02783799 0.00707320 0.01401985
v -0.02752103 0.00707320 0.01357256
v -0.02709910 0.00707320 0.01322255
v -0.02660095 0.00707320 0.01299367
v -0.02606054 0.00707320 0.01290152
v -0.02551470 0.00707320 0.01295237
v -0.02500061 0.00707320 0.01314277
v -0.02455333 0.00707320 0.01345973
v -0.02420331 0.00707320 0.01388166
v -0.02397443 0.00707320 0.01437981
v -0.02388228 0.00707320 0.01492022
v -0.02393313 0.00707320 0.01546606
v -0.02412353 0.00707320 0.01598015
v -0.02444050 0.00707320 0.01642744
v -0.02486243 0.00707320 0.01677745
v -0.02536057 0.00707320 0.01700633
v -0.02590098 0.00707320 0.01709848
v -0.02645753 0.00709319 0.01709466
v -0.02698343 0.00709319 0.01689989
v -0.02744099 0.00709319 0.01657565
v -0.02779904 0.00709319 0.01614402
v -0.02803318 0.00709319 0.01563444
v -0.02812745 0.00709319 0.01508162
v -0.02807542 0.00709319 0.01452323
v -0.02788065 0.00709319 0.01399734
v -0.02755641 0.00709319 0.01353977
v -0.02712478 0.00709319 0.01318172
v -0.02661520 0.00709319 0.01294758
v -0.02606238 0.00709319 0.01285332
v -0.02550399 0.00709319 0.01290534
v -0.02497810 0.00709319 0.01310011
v -0.02452054 0.00709319 0.01342435
v -0.02416249 0.00709319 0.01385598
v -0.02392835 0.00709319 0.01436556
v -0.02383408 0.00709319 0.01491839
v -0.02388610 0.00709319 0.01547677
v -0.02408087 0.00709319 0.01600266
v -0.02440512 0.00709319 0.01646022
v -0.02483674 0.00709319 0.01681828
v -0.02534633 0.00709319 0.01705242
v -0.02589915 0.00709319 0.01714669
v -0.02835982 0.00710000 0.01756711
v -0.02894318 0.00710000 0.01686389
v -0.02761434 0.00710000 0.01809539
v -0.02932465 0.00710000 0.01603365
v -0.02947824 0.00710000 0.01513297
v -0.02411687 0.00710000 0.01796241
v -0.02494711 0.00710000 0.01834388
v -0.02939348 0.00710000 0.01422323
v -0.02288538 0.00710000 0.01663358
v -0.02341365 0.00710000 0.01737906
v -0.02584779 0.00710000 0.01849747
v -0.02675753 0.00710000 0.01841271
v -0.02520399 0.00710000 0.01158728
v -0.02434718 0.00710000 0.01190461
v -0.02784465 0.00710000 0.01203758
v -0.02701441 0.00710000 0.01165612
v -0.02611373 0.00710000 0.01150253
v -0.02360170 0.00710000 0.01243289
v -0.02301835 0.00710000 0.01313611
v -0.02907615 0.00710000 0.01336642
v -0.02854787 0.00710000 0.01262094
v -0.02263688 0.00710000 0.01396635
v -0.02248329 0.00710000 0.01486703
v -0.02256805 0.00710000 0.01577677
v -0.02611373 0.01090000 0.01150253
v -0.02701441 0.01090000 0.01165612
v -0.02784465 0.01090000 0.01203758
v -0.02854787 0.01090000 0.01262094
v -0.02907615 0.01090000 0.01336642
v -0.02939348 0.01090000 0.01422323
v -0.02947824 0.01090000 0.01513297
v -0.02932465 0.01090000 0.01603365
v -0.02894318 0.01090000 0.01686389
v -0.02835982 0.01090000 0.01756711
v -0.02761434 0.01090000 0.01809539
v -0.02675753 0.01090000 0.01841271
v -0.02584779 0.01090000 0.01849747
v -0.02494711 0.01090000 0.01834388
v -0.02411687 0.01090000 0.01796241
v -0.02341365 0.01090000 0.01737906
v -0.02288538 0.01090000 0.01663358
v -0.02256805 0.01090000 0.01577677
v -0.02248329 0.01090000 0.01486703
v -0.02263688 0.01090000 0.01396635
v -0.02301835 0.01090000 0.01313611
v -0.02360170 0.01090000 0.01243289
v -0.02434718 0.01090000 0.01190461
v -0.02520399 0.01090000 0.01158728
v -0.02610613 0.01110000 0.01170238
v -0.02695535 0.01110000 0.01184720
v -0.02773815 0.01110000 0.01220687
v -0.02840118 0.01110000 0.01275688
v -0.02889927 0.01110000 0.01345977
v -0.02919846 0.01110000 0.01426761
v -0.02927838 0.01110000 0.01512537
v -0.02913357 0.01110000 0.01597459
v -0.02877390 0.01110000 0.01675738
v -0.02822388 0.01110000 0.01742042
v -0.02752100 0.01110000 0.01791851
v -0.02671315 0.01110000 0.01821770
v -0.02585539 0.01110000 0.01829762
v -0.02500618 0.01110000 0.01815281
v -0.02422338 0.01110000 0.01779313
v -0.02356034 0.01110000 0.01724312
v -0.02306226 0.01110000 0.01654023
v -0.02276306 0.01110000 0.01573239
v -0.02268314 0.01110000 0.01487463
v -0.02282796 0.01110000 0.01402541
v -0.02318763 0.01110000 0.01324262
v -0.02373765 0.01110000 0.01257958
v -0.02444053 0.01110000 0.01208149
v -0.02524838 0.01110000 0.01178230
v -0.02696849 0.01109499 0.01180468
v -0.02776185 0.01109499 0.01216920
v -0.02843382 0.01109499 0.01272663
v -0.02893863 0.01109499 0.01343899
v -0.02924186 0.01109499 0.01425774
v -0.02932285 0.01109499 0.01512706
v -0.02917609 0.01109499 0.01598773
v -0.02881156 0.01109499 0.01678108
v -0.02825413 0.01109499 0.01745306
v -0.02754177 0.01109499 0.01795787
v -0.02672303 0.01109499 0.01826110
v -0.02585370 0.01109499 0.01834209
v -0.02499303 0.01109499 0.01819532
v -0.02419968 0.01109499 0.01783080
v -0.02352770 0.01109499 0.01727337
v -0.02302290 0.01109499 0.01656101
v -0.02271966 0.01109499 0.01574226
v -0.02263867 0.01109499 0.01487294
v -0.02278544 0.01109499 0.01401227
v -0.02314996 0.01109499 0.01321892
v -0.02370740 0.01109499 0.01254694
v -0.02441976 0.01109499 0.01204213
v -0.02523850 0.01109499 0.01173890
v -0.02610783 0.01109499 0.01165791
v -0.02698098 0.01108019 0.01176429
v -0.02778436 0.01108019 0.01213342
v -0.02846483 0.01108019 0.01269790
v -0.02897601 0.01108019 0.01341926
v -0.02928308 0.01108019 0.01424836
v -0.02936509 0.01108019 0.01512867
v -0.02921647 0.01108019 0.01600021
v -0.02884734 0.01108019 0.01680360
v -0.02828286 0.01108019 0.01748407
v -0.02756150 0.01108019 0.01799525
v -0.02673241 0.01108019 0.01830232
v -0.02585209 0.01108019 0.01838433
v -0.02498055 0.01108019 0.01823571
v -0.02417717 0.01108019 0.01786658
v -0.02349669 0.01108019 0.01730210
v -0.02298551 0.01108019 0.01658073
v -0.02267845 0.01108019 0.01575164
v -0.02259643 0.01108019 0.01487133
v -0.02274505 0.01108019 0.01399979
v -0.02311418 0.01108019 0.01319640
v -0.02367866 0.01108019 0.01251593
v -0.02440003 0.01108019 0.01200475
v -0.02522912 0.01108019 0.01169768
v -0.02610943 0.01108019 0.01161567
v -0.02699218 0.01105637 0.01172806
v -0.02780455 0.01105637 0.01210132
v -0.02849264 0.01105637 0.01267212
v -0.02900955 0.01105637 0.01340157
v -0.02932005 0.01105637 0.01423994
v -0.02940299 0.01105637 0.01513011
v -0.02925270 0.01105637 0.01601141
v -0.02887944 0.01105637 0.01682379
v -0.02830864 0.01105637 0.01751188
v -0.02757920 0.01105637 0.01802879
v -0.02674082 0.01105637 0.01833929
v -0.02585065 0.01105637 0.01842223
v -0.02496935 0.01105637 0.01827194
v -0.02415697 0.01105637 0.01789868
v -0.02346888 0.01105637 0.01732788
v -0.02295197 0.01105637 0.01659844
v -0.02264147 0.01105637 0.01576006
v -0.02255854 0.01105637 0.01486989
v -0.02270882 0.01105637 0.01398859
v -0.02308208 0.01105637 0.01317621
v -0.02365289 0.01105637 0.01248812
v -0.02438233 0.01105637 0.01197121
v -0.02522070 0.01105637 0.01166071
v -0.02611087 0.01105637 0.01157777
v -0.02700153 0.01102470 0.01169780
v -0.02782142 0.01102470 0.01207452
v -0.02851587 0.01102470 0.01265060
v -0.02903756 0.01102470 0.01338679
v -0.02935093 0.01102470 0.01423291
v -0.02943463 0.01102470 0.01513131
v -0.02928296 0.01102470 0.01602077
v -0.02890624 0.01102470 0.01684066
v -0.02833017 0.01102470 0.01753511
v -0.02759398 0.01102470 0.01805680
v -0.02674785 0.01102470 0.01837017
v -0.02584945 0.01102470 0.01845387
v -0.02496000 0.01102470 0.01830220
v -0.02414011 0.01102470 0.01792548
v -0.02344565 0.01102470 0.01734940
v -0.02292397 0.01102470 0.01661322
v -0.02261059 0.01102470 0.01576709
v -0.02252689 0.01102470 0.01486869
v -0.02267857 0.01102470 0.01397923
v -0.02305528 0.01102470 0.01315934
v -0.02363136 0.01102470 0.01246489
v -0.02436755 0.01102470 0.01194320
v -0.02521367 0.01102470 0.01162983
v -0.02611208 0.01102470 0.01154613
v -0.02700857 0.01098678 0.01167504
v -0.02783411 0.01098678 0.01205435
v -0.02853335 0.01098678 0.01263440
v -0.02905863 0.01098678 0.01337566
v -0.02937417 0.01098678 0.01422762
v -0.02945844 0.01098678 0.01513222
v -0.02930572 0.01098678 0.01602780
v -0.02892641 0.01098678 0.01685335
v -0.02834636 0.01098678 0.01755258
v -0.02760510 0.01098678 0.01807787
v -0.02675314 0.01098678 0.01839340
v -0.02584854 0.01098678 0.01847768
v -0.02495296 0.01098678 0.01832496
v -0.02412742 0.01098678 0.01794565
v -0.02342818 0.01098678 0.01736560
v -0.02290289 0.01098678 0.01662434
v -0.02258736 0.01098678 0.01577238
v -0.02250308 0.01098678 0.01486778
v -0.02265580 0.01098678 0.01397220
v -0.02303511 0.01098678 0.01314665
v -0.02361516 0.01098678 0.01244742
v -0.02435643 0.01098678 0.01192213
v -0.02520839 0.01098678 0.01160660
v -0.02611298 0.01098678 0.01152232
v -0.02701293 0.01094450 0.01166091
v -0.02784199 0.01094450 0.01204183
v -0.02854419 0.01094450 0.01262435
v -0.02907171 0.01094450 0.01336876
v -0.02938859 0.01094450 0.01422434
v -0.02947322 0.01094450 0.01513278
v -0.02931986 0.01094450 0.01603217
v -0.02893893 0.01094450 0.01686122
v -0.02835642 0.01094450 0.01756343
v -0.02761200 0.01094450 0.01809095
v -0.02675642 0.01094450 0.01840783
v -0.02584798 0.01094450 0.01849246
v -0.02494859 0.01094450 0.01833909
v -0.02411954 0.01094450 0.01795817
v -0.02341733 0.01094450 0.01737565
v -0.02288981 0.01094450 0.01663124
v -0.02257294 0.01094450 0.01577566
v -0.02248830 0.01094450 0.01486722
v -0.02264167 0.01094450 0.01396783
v -0.02302259 0.01094450 0.01313878
v -0.02360511 0.01094450 0.01243657
v -0.02434952 0.01094450 0.01190905
v -0.02520510 0.01094450 0.01159217
v -0.02611354 0.01094450 0.01150754
v -0.02515322 0.01110000 0.01343193
v -0.02420900 0.01110000 0.01493264
v -0.02503655 0.01110000 0.01650071
v -0.02692498 0.01110000 0.01349929
v -0.02680831 0.01110000 0.01656807
v -0.02775252 0.01110000 0.01506736
v -0.02733875 0.00910000 0.01428332
v -0.02775252 0.00910000 0.01506736
v -0.02692498 0.00910000 0.01349929
v -0.02603910 0.00910000 0.01346561
v -0.02515322 0.00910000 0.01343193
v -0.02468111 0.00910000 0.01418228
v -0.02420900 0.00910000 0.01493264
v -0.02462277 0.00910000 0.01571668
v -0.02503655 0.00910000 0.01650071
v -0.02592243 0.00910000 0.01653439
v -0.02680831 0.00910000 0.01656807
v -0.02728042 0.00910000 0.01581772
v -0.02485453 0.00910000 0.01604373
v -0.02516305 0.00910000 0.01629965
v -0.02552728 0.00910000 0.01646701
v -0.02563998 0.00910000 0.01350279
v -0.02526409 0.00910000 0.01364201
v -0.02493703 0.00910000 0.01387377
v -0.02451375 0.00910000 0.01454652
v -0.02444637 0.00910000 0.01494166
v -0.02448356 0.00910000 0.01534078
v -0.02632154 0.00910000 0.01649721
v -0.02669744 0.00910000 0.01635799
v -0.02702449 0.00910000 0.01612623
v -0.02744777 0.00910000 0.01545348
v -0.02751515 0.00910000 0.01505834
v -0.02747797 0.00910000 0.01465922
v -0.02710699 0.00910000 0.01395627
v -0.02679848 0.00910000 0.01370035
v -0.02643424 0.00910000 0.01353299
v -0.02598076 0.00821348 0.01500000
vt 2.61799383 -0.00000000
vt 0.00165000 0.00285788
vt 1.30899692 0.00000000
vt 0.00000000 0.67319840
vt 0.78539819 0.44879895
vt 5.49778700 1.34639680
vt 5.23598766 1.12199736
vt 5.23598766 0.00039000
vt 5.36688757 -0.00088652
vt 6.54498482 -1.83259571
vt 3.40339208 -0.00000000
vt 1.43989658 -0.00088652
vt 2.87979317 0.89759791
vt 0.00000000 0.00330000
vt -0.00177304 -0.00200000
vt 4.71238899 -2.09439516
vt 0.00350000 -0.00350000
vt 0.78539819 -1.83259571
vt 3.66519141 -1.83259571
vt 0.78539819 -0.03195000
vt 2.09439516 -0.03195000
vt 4.97418833 -0.03575000
vt 3.79609108 -0.00088652
vt 1.57079637 -0.05136000
vt -0.00155514 -0.00119330
vt 6.54498482 1.12199736
vt 3.66519141 1.57079637
vt 5.75958633 1.12199736
vt 1.57079637 0.22439948
vt 0.26179940 -0.03595000
vt 0.52359879 -2.09439516
vt 6.02138615 -3.14159274
vt 3.66519141 -2.35619450
vt 2.09439516 0.44879895
vt 4.45058966 -2.35619450
vt -0.00000000 -0.00354609
vt 0.26179940 1.34639680
vt -0.00303109 -0.00175000
vt 1.96349537 -0.00088652
vt 3.14159274 1.34639680
vt 1.04719758 0.67319840
vt -0.00000000 -0.00200000
vt -0.00247487 -0.00102513
vt 4.97418833 -1.57079637
vt 6.28318548 0.89759791
vt -0.00307100 -0.00265956
vt 0.00000000 0.00000000
vt 2.61799383 0.89759791
vt 5.75958633 -0.03595000
vt 2.09439516 0.22439948
vt 1.04719758 -3.14159274
vt 6.54498482 -2.61799383
vt 4.71238899 -1.83259571
vt 1.83259571 -0.03195000
vt 4.18879032 -0.03575000
vt 2.35619450 -0.05136000
vt 6.02138615 -1.83259571
vt 6.28318548 0.44879895
vt 3.66519141 -1.57079637
vt 0.78539819 -1.57079637
vt 0.26179940 -2.87979317
vt 6.02138615 -1.57079637
vt 5.23598766 0.89759791
vt 3.66519141 0.22439948
vt -0.00080500 -0.00021570
vt 4.71238899 1.57079637
vt 1.04719758 1.34639680
vt 6.54498482 -1.57079637
vt 1.04719758 1.57079637
vt 2.35619450 -0.00000000
vt -0.00000000 -0.00200000
vt 3.14159274 0.67319840
vt 2.61799383 0.00039000
vt 5.75958633 0.00000000
vt 6.28318548 -0.03195000
vt 0.00085410 -0.00318756
vt 0.00041670 -0.00316514
vt 0.00080500 -0.00021570
vt 6.28318548 1.34639680
vt 5.75958633 0.00039000
vt 5.75958633 -2.87979317
vt 1.30899692 -0.00000000
vt 3.92699075 1.34639680
vt 6.02138615 -2.61799383
vt 2.61799383 0.00000000
vt -0.00175000 -0.00046891
vt 0.00338074 -0.00259413
vt 0.00155563 -0.00194437
vt 6.02138615 -2.35619450
vt 3.92699075 -0.03195000
vt 3.66519141 -3.14159274
vt 0.26179940 1.12199736
vt 1.57079637 1.12199736
vt 5.49778700 -0.03595000
vt 6.54498482 -0.00000000
vt 4.18879032 -3.14159274
vt 2.61799383 1.57079637
vt 1.57079637 -1.57079637
vt 2.09439516 -2.09439516
vt 3.40339208 -0.00000000
vt 2.35619450 1.12199736
vt 3.92699075 0.44879895
vt 0.78539819 -0.03595000
vt 5.23598766 -0.05136000
vt -0.00153550 -0.00088652
vt 0.00056940 -0.00137496
vt 3.40339208 0.22439948
vt 1.83259571 -1.83259571
vt 3.66519141 0.44879895
vt 4.71238899 -0.03595000
vt -0.00000000 -0.00161000
vt 3.40339208 -0.05136000
vt -0.00153550 -0.00419506
vt 2.87979317 0.00039000
vt 1.83259571 0.00000000
vt 3.92699075 0.89759791
vt 0.78539819 0.67319840
vt 0.26179940 -0.03195000
vt -0.00005232 -0.00305698
vt -0.00020572 -0.00189181
vt 5.75958633 -0.00000000
vt 5.23598766 -0.00000000
vt 4.45058966 0.67319840
vt 0.26179940 -2.61799383
vt 4.18879032 -0.03195000
vt 4.71238899 1.34639680
vt 0.00000000 -0.00177304
vt 3.66519141 -2.61799383
vt 0.00090587 -0.00688074
vt 3.14159274 -0.05136000
vt 1.57079637 -0.03575000
vt 2.35619450 -2.61799383
vt 4.18879032 -0.00000000
vt 5.49778700 -2.87979317
vt 0.52359879 0.67319840
vt 6.28318548 1.12199736
vt 5.49778700 0.67319840
vt -0.00230325 -0.00398935
vt -0.00318756 -0.00085410
vt 0.78539819 -2.35619450
vt 3.40339208 -1.57079637
vt 0.00000000 -0.00700000
vt 1.57079637 -0.00000000
vt 6.28318548 -3.14159274
vt 4.45058966 -0.00000000
vt 4.71238899 -2.87979317
vt 6.02138615 -2.87979317
vt -0.00153550 -0.00112406
vt 5.49778700 -0.03575000
vt 5.10508823 -0.00088652
vt 3.92699075 -2.35619450
vt 4.71238899 0.67319840
vt -0.00113844 -0.00274844
vt -0.00190526 -0.00460000
vt 1.04719758 -0.05136000
vt 4.71238899 -3.14159274
vt 1.04719758 0.44879895
vt 1.83259571 0.67319840
vt 0.52359879 -0.00000000
vt 1.57079637 1.34639680
vt 6.28318548 -2.61799383
vt 0.52359879 -1.57079637
vt 3.40339208 -2.61799383
vt 2.87979317 -0.00000000
vt 4.71238899 -0.03575000
vt 6.54498482 0.67319840
vt 2.09439516 -0.00000000
vt -0.00286528 -0.00342731
vt 1.83259571 -3.14159274
vt 3.14159274 -2.87979317
vt 3.14159274 -0.03195000
vt -0.00247487 -0.00597487
vt 0.00318756 0.00085410
vt 2.22529483 -0.00088652
vt 5.49778700 -3.14159274
vt 0.00000000 -0.00130000
vt 3.40339208 -2.87979317
vt 6.54498482 -0.03575000
vt 2.48709416 -0.00088652
vt 3.92699075 -0.03595000
vt 2.87979317 -0.05136000
vt 2.09439516 -0.05136000
vt 3.40339208 0.00039000
vt 6.28318548 -1.57079637
vt 0.00285788 -0.00165000
vt 1.83259571 1.34639680
vt 0.26179940 -1.83259571
vt 3.66519141 -0.00000000
vt 4.84328890 -0.00088652
vt 2.35619450 0.22439948
vt 3.40339208 0.00000000
vt 3.14159274 0.44879895
vt 0.52359879 -0.05136000
vt 0.00110000 -0.00159474
vt -0.00262126 -0.00157380
vt 1.04719758 -1.57079637
vt 2.35619450 1.57079637
vt -0.00190526 -0.00240000
vt 3.14159274 -2.35619450
vt 2.09439516 -0.03575000
vt 1.57079637 0.89759791
vt 0.52359879 -3.14159274
vt 5.75958633 -0.03575000
vt 1.30899692 0.22439948
vt 1.04719758 -2.87979317
vt 3.66519141 -0.05136000
vt 0.00139430 -0.00241500
vt 4.18879032 -0.00000000
vt 4.45058966 1.34639680
vt 1.83259571 -0.00000000
vt -0.00110000 -0.00159474
vt 4.45058966 -0.05136000
vt 0.78539819 1.34639680
vt -0.00212504 -0.00293060
vt 3.66519141 1.34639680
vt 0.78539819 -3.14159274
vt 3.92699075 -0.03575000
vt -0.00301868 -0.00305698
vt 1.57079637 0.00039000
vt 1.30899692 -0.05136000
vt 0.52359879 1.12199736
vt 1.30899692 1.57079637
vt 5.23598766 -3.14159274
vt 4.45058966 -2.61799383
vt 0.00000000 1.12199736
vt 2.09439516 0.00000000
vt 2.61799383 -2.61799383
vt 6.02138615 0.00000000
vt 6.28318548 0.22439948
vt -0.00177304 0.00000000
vt -0.00139430 -0.00080500
vt 3.92699075 0.67319840
vt 0.00000000 -0.00200000
vt 1.04719758 -0.03575000
vt 4.71238899 -2.35619450
vt 3.14159274 -1.57079637
vt 3.14159274 -0.00000000
vt 1.57079637 -0.03195000
vt 4.71238899 1.12199736
vt 3.66519141 0.67319840
vt -0.00080500 -0.00300430
vt -0.00113844 -0.00047156
vt 1.04719758 1.12199736
vt 1.17809725 -0.00088652
vt 4.97418833 -0.03595000
vt -0.00085410 -0.00318756
vt 5.23598766 0.22439948
vt 0.26179940 0.67319840
vt 5.49778700 -2.35619450
vt 0.00155563 -0.00505563
vt 3.66519141 0.89759791
vt 4.97418833 0.67319840
vt 0.00080500 -0.00300430
vt 2.61799383 1.12199736
vt 6.54498482 -2.87979317
vt -0.00000000 0.00039000
vt -0.00076775 -0.00398935
vt 5.23598766 -1.57079637
vt 2.35619450 0.89759791
vt 2.61799383 -0.00000000
vt 6.02138615 0.89759791
vt 2.87979317 0.00000000
vt 2.35619450 0.67319840
vt 1.83259571 -2.09439516
vt 3.40339208 -0.03195000
vt 0.00212504 -0.00406940
vt 0.26179940 -0.03575000
vt 3.14159274 -0.00000000
vt 3.14159274 -0.03575000
vt 4.71238899 -2.61799383
vt 3.01069307 -0.00088652
vt 1.30899692 1.12199736
vt 3.14159274 0.00039000
vt 1.04719758 -2.61799383
vt 5.75958633 -2.61799383
vt 1.30899692 0.89759791
vt 1.30899692 0.67319840
vt 4.45058966 -2.09439516
vt -0.00005232 -0.00226215
vt -0.00318756 0.00085410
vt 0.00155514 -0.00202670
vt 4.97418833 -2.61799383
vt -0.00155563 -0.00505563
vt 1.30899692 -3.14159274
vt 3.40339208 0.44879895
vt 0.00247487 -0.00597487
vt 5.75958633 -0.00000000
vt 3.66519141 0.00000000
vt 3.27249241 -0.00088652
vt 5.23598766 -2.35619450
vt 3.92699075 -1.83259571
vt 0.78539819 1.57079637
vt 1.30899692 -0.03575000
vt 2.61799383 -0.03575000
vt 3.92699075 -0.05136000
vt 3.40339208 0.89759791
vt -0.00233345 -0.00233345
vt 0.26179940 -0.00000000
vt -0.00000000 -0.00322000
vt 2.35619450 1.34639680
vt 5.23598766 1.57079637
vt 2.35619450 -3.14159274
vt 1.04719758 -0.00000000
vt 0.00330000 0.00000000
vt 6.54498482 0.44879895
vt 2.87979317 1.12199736
vt 1.30899692 -2.61799383
vt 5.75958633 -0.05136000
vt -0.00076775 -0.00132978
vt 0.00161000 -0.00161000
vt 6.02138615 -0.03575000
vt 0.00000000 -0.00570000
vt 4.97418833 -3.14159274
vt 5.75958633 -3.14159274
vt 4.97418833 -1.83259571
vt 0.00000000 0.22439948
vt 1.30899692 1.34639680
vt -0.00088652 -0.00000000
vt 1.57079637 -2.87979317
vt -0.00161000 -0.00161000
vt 3.14159274 -1.83259571
vt 0.00041670 -0.00005486
vt 6.02138615 -0.00000000
vt 2.87979317 0.44879895
vt 1.30899692 -0.00000000
vt -0.00153550 -0.00443261
vt 2.87979317 -2.35619450
vt 1.30899692 -1.57079637
vt 6.02138615 -2.09439516
vt 6.15228558 -0.00088652
vt 0.78539819 1.12199736
vt 2.09439516 -1.57079637
vt 1.83259571 1.57079637
vt 4.18879032 0.00039000
vt 0.78539819 -0.05136000
vt -0.00177304 0.00000000
vt 0.00233345 0.00233345
vt 2.87979317 -2.61799383
vt 0.52359879 -0.00000000
vt 2.87979317 -2.87979317
vt 2.87979317 -0.03195000
vt 0.26179940 0.00039000
vt 4.58148909 -0.00088652
vt -0.00085410 0.00318756
vt 6.02138615 -0.00000000
vt 3.14159274 1.57079637
vt 0.78539819 0.22439948
vt 4.71238899 -0.05136000
vt 5.49778700 -0.00000000
vt 2.35619450 -1.57079637
vt 4.18879032 -2.09439516
vt -0.00000000 -0.00000000
vt 6.02138615 1.12199736
vt -0.00088652 -0.00000000
vt 5.49778700 0.22439948
vt 0.00113844 -0.00274844
vt -0.00177304 -0.00000000
vt 0.78539819 -0.00000000
vt 4.97418833 -0.00000000
vt 1.83259571 -0.05136000
vt 0.00000000 -0.03195000
vt 4.18879032 -0.05136000
vt 4.45058966 -0.00000000
vt 5.23598766 0.67319840
vt 4.71238899 -0.00000000
vt 6.28318548 1.57079637
vt 1.30899692 -2.35619450
vt 2.87979317 -1.57079637
vt 5.49778700 -0.05136000
vt 1.57079637 -2.61799383
vt 3.66519141 -2.87979317
vt 4.31968975 -0.00088652
vt 0.00247487 -0.00102513
vt 5.23598766 -0.03595000
vt 2.61799383 0.44879895
vt 3.92699075 0.00039000
vt -0.00153550 0.00088652
vt 4.97418833 1.57079637
vt 3.92699075 -2.09439516
vt 4.45058966 -1.83259571
vt 0.00000000 0.44879895
vt 2.35619450 -2.35619450
vt 5.75958633 -0.03195000
vt 3.66519141 -2.09439516
vt 4.18879032 -2.61799383
vt 5.23598766 1.34639680
vt 5.49778700 1.12199736
vt 1.57079637 -2.35619450
vt 2.09439516 -2.87979317
vt 0.26179940 0.44879895
vt 4.97418833 -2.35619450
vt 0.00318756 -0.00085410
vt -0.00056940 -0.00562504
vt 0.00000000 0.89759791
vt 6.28318548 -2.87979317
vt 6.28318548 0.00039000
vt 2.61799383 -0.03195000
vt 1.83259571 0.89759791
vt 0.52359879 -1.83259571
vt 5.75958633 0.44879895
vt -0.00307100 -0.00354609
vt -0.00338074 -0.00440587
vt 3.40339208 -0.03575000
vt 1.30899692 -2.09439516
vt -0.00303109 -0.00525000
vt -0.00041670 -0.00005486
vt -0.00285788 -0.00165000
vt 1.57079637 1.57079637
vt 4.18879032 -1.83259571
vt 0.26179940 1.57079637
vt 0.00000000 -0.00000000
vt 0.78539819 0.89759791
vt 1.83259571 1.12199736
vt 2.09439516 0.67319840
vt 5.49778700 -2.61799383
vt 1.83259571 0.00039000
vt 1.57079637 -0.00000000
vt 0.13089970 -0.00088652
vt 1.83259571 -0.03575000
vt 4.18879032 -2.87979317
vt 2.09439516 -0.03595000
vt 3.40339208 -3.14159274
vt -0.00044974 -0.00157380
vt 0.26179940 0.00000000
vt 0.00000000 -0.00265956
vt 0.00155514 -0.00119330
vt 0.00110000 -0.00540526
vt 1.04719758 -2.09439516
vt 4.45058966 -1.57079637
vt 0.91629785 -0.00088652
vt 1.04719758 0.00000000
vt 0.52359879 0.00000000
vt 3.92699075 -0.00000000
vt 3.40339208 1.12199736
vt 5.49778700 0.00000000
vt -0.00301868 -0.00226215
vt 4.97418833 -2.09439516
vt 4.05789042 -0.00088652
vt -0.00262126 -0.00374533
vt 2.61799383 -2.87979317
vt 1.83259571 -0.00000000
vt 4.45058966 0.00000000
vt 2.87979317 -1.83259571
vt 4.18879032 -1.57079637
vt 0.78539819 0.00039000
vt 1.83259571 -1.57079637
vt 2.09439516 0.00039000
vt 0.00090587 -0.00011926
vt 1.57079637 -3.14159274
vt 0.00085410 0.00318756
vt 6.02138615 0.22439948
vt 6.28318548 -0.05136000
vt 4.18879032 -0.03595000
vt 1.83259571 -0.03595000
vt 3.14159274 -2.09439516
vt -0.00155514 -0.00202670
vt 0.26179940 0.89759791
vt 2.35619450 -1.83259571
vt 6.02138615 -0.05136000
vt -0.00090587 -0.00011926
vt 2.09439516 1.57079637
vt 5.23598766 -0.03195000
vt 2.35619450 -0.03575000
vt 4.45058966 -3.14159274
vt 5.23598766 -2.61799383
vt 0.00212504 -0.00293060
vt -0.00139430 -0.00241500
vt 0.00175000 -0.00046891
vt 0.52359879 1.34639680
vt 2.61799383 1.34639680
vt -0.00056940 -0.00137496
vt 1.83259571 -2.35619450
vt 1.30899692 -1.83259571
vt 0.00303109 -0.00525000
vt 0.52359879 -0.03195000
vt 4.18879032 0.67319840
vt 4.45058966 0.44879895
vt 5.23598766 0.44879895
vt 0.52359879 -2.61799383
vt 2.61799383 -0.03595000
vt 2.09439516 -0.00000000
vt 1.04719758 -2.35619450
vt -0.00000000 0.00177304
vt 4.71238899 0.22439948
vt 4.97418833 -0.00000000
vt 3.40339208 -2.35619450
vt 0.00000000 0.00000000
vt 0.00175000 -0.00653109
vt 3.40339208 1.34639680
vt -0.00090587 -0.00688074
vt 0.00190526 -0.00460000
vt -0.00165000 0.00285788
vt 5.89048624 -0.00088652
vt 2.61799383 0.67319840
vt 2.35619450 -0.00000000
vt 1.83259571 -2.87979317
vt -0.00088652 0.00000000
vt 0.52359879 0.44879895
vt 5.49778700 -0.00000000
vt 4.45058966 -0.03195000
vt 4.97418833 0.22439948
vt 1.57079637 0.44879895
vt 2.87979317 1.57079637
vt 6.02138615 1.57079637
vt 0.26179940 -0.05136000
vt 5.49778700 -0.03195000
vt 4.97418833 -0.05136000
vt 3.14159274 -3.14159274
vt 0.00338074 -0.00440587
vt 0.52359879 0.89759791
vt 0.52359879 -2.35619450
vt 3.14159274 -0.03595000
vt 2.61799383 -2.35619450
vt 4.71238899 -1.57079637
vt 0.78539819 -2.87979317
vt 1.04719758 -0.00000000
vt 0.26179940 -0.00000000
vt 1.30899692 0.00039000
vt 2.09439516 -1.83259571
vt 3.92699075 -2.87979317
vt 5.75958633 0.67319840
vt 4.71238899 -0.03195000
vt 3.14159274 1.12199736
vt 5.49778700 0.44879895
vt 4.45058966 0.89759791
vt 0.00139430 -0.00080500
vt 4.18879032 0.89759791
vt 3.92699075 0.00000000
vt 1.83259571 0.44879895
vt 0.00000000 1.57079637
vt 5.75958633 0.22439948
vt -0.00193292 -0.00414274
vt 6.28318548 -2.09439516
vt 6.02138615 0.00039000
vt 2.35619450 0.00039000
vt 5.49778700 0.89759791
vt 2.09439516 -2.61799383
vt 5.75958633 1.57079637
vt 4.71238899 0.44879895
vt 4.18879032 -2.35619450
vt 2.61799383 -1.57079637
vt -0.00233345 0.00233345
vt 4.97418833 0.00039000
vt 1.70169604 -0.00088652
vt 4.97418833 1.12199736
vt 1.04719758 -0.03595000
vt 0.00000000 -0.00200000
vt -0.00193292 -0.00117638
vt 0.00153550 -0.00088652
vt -0.00177304 -0.00000000
vt 3.92699075 1.57079637
vt 3.40339208 -2.09439516
vt 0.78539819 -0.03575000
vt -0.00000000 -0.00200000
vt 2.87979317 0.22439948
vt -0.00041670 -0.00316514
vt 3.14159274 -2.61799383
vt -0.00330000 -0.00000000
vt 2.61799383 -1.83259571
vt 4.71238899 0.89759791
vt 4.45058966 -0.03575000
vt 1.04719758 0.00039000
vt 6.02138615 0.67319840
vt 3.92699075 -1.57079637
vt -0.00177304 0.00000000
vt 3.92699075 -0.00000000
vt 3.14159274 0.00000000
vt 2.35619450 -0.03595000
vt 4.18879032 1.34639680
vt 6.02138615 -0.03595000
vt -0.00175000 -0.00653109
vt 0.78539819 0.00000000
vt 2.35619450 -2.09439516
vt 0.26179940 -3.14159274
vt 2.09439516 1.12199736
vt 0.00190526 -0.00240000
vt 0.52359879 -0.03575000
vt 4.71238899 0.00000000
vt 6.54498482 1.34639680
vt 0.00056940 -0.00562504
vt 4.97418833 -2.87979317
vt -0.00113808 -0.00117638
vt 0.52359879 0.22439948
vt 1.83259571 0.22439948
vt 1.57079637 -2.09439516
vt 6.54498482 -0.05136000
vt 3.14159274 0.89759791
vt 6.02138615 1.34639680
vt 2.61799383 -3.14159274
vt 3.92699075 -2.61799383
vt 0.26179940 -2.09439516
vt 1.30899692 -0.03595000
vt 0.52359879 -0.03595000
vt 4.97418833 0.00000000
vt 5.23598766 -1.83259571
vt 0.78539819 -2.61799383
vt 2.61799383 -0.05136000
vt -0.00020572 -0.00342731
vt 6.28318548 -2.35619450
vt 5.75958633 -1.83259571
vt 0.00165000 -0.00285788
vt -0.00088652 0.00000000
vt 4.45058966 0.22439948
vt 3.66519141 -0.03195000
vt -0.00110000 -0.00540526
vt 1.04719758 -1.83259571
vt 3.40339208 -0.03595000
vt 4.45058966 -0.03595000
vt 3.92699075 -3.14159274
vt 2.61799383 0.22439948
vt 4.97418833 1.34639680
vt 5.49778700 -2.09439516
vt 3.66519141 0.00039000
vt 2.35619450 -2.87979317
vt 3.66519141 1.12199736
vt 4.18879032 0.44879895
vt 0.00285788 0.00165000
vt 0.26179940 -1.57079637
vt -0.00044974 -0.00374533
vt 2.09439516 -2.35619450
vt 3.92699075 1.12199736
vt 6.28318548 -1.83259571
vt -0.00165000 -0.00285788
vt 1.04719758 0.89759791
vt 5.75958633 -2.35619450
vt 1.30899692 -2.87979317
vt 0.52359879 -2.87979317
vt 6.28318548 -0.00000000
vt 0.00233345 -0.00233345
vt 1.57079637 0.67319840
vt 2.87979317 -3.14159274
vt 5.23598766 -0.00000000
vt 4.71238899 -0.00000000
vt 4.45058966 -2.87979317
vt 0.26179940 -2.35619450
vt 4.97418833 0.44879895
vt -0.00088652 0.00000000
vt 4.18879032 1.12199736
vt 3.66519141 -0.00000000
vt 1.04719758 -0.03195000
vt 0.78539819 -0.00000000
vt 0.52359879 1.57079637
vt 3.40339208 0.67319840
vt 2.35619450 0.44879895
vt 3.14159274 0.22439948
vt 6.54498482 -3.14159274
vt 0.26179940 0.22439948
vt 1.57079637 -0.03595000
vt -0.00000000 -0.00330000
vt -0.00212504 -0.00406940
vt 5.49778700 -1.83259571
vt -0.00000000 -0.00177304
vt -0.00338074 -0.00259413
vt 0.65449846 -0.00088652
vt 5.49778700 -1.57079637
vt -0.00286528 -0.00189181
vt 0.78539819 -2.09439516
vt 0.00153550 0.00088652
vt 4.97418833 -0.03195000
vt 5.75958633 -2.09439516
vt 6.28318548 -0.00000000
vt 2.87979317 1.34639680
vt 6.54498482 -2.09439516
vt 6.54498482 0.89759791
vt 4.45058966 1.57079637
vt 1.30899692 0.44879895
vt 0.00303109 -0.00175000
vt 6.28318548 0.00000000
vt 2.35619450 -0.03195000
vt 2.87979317 -0.00000000
vt 5.23598766 -0.03575000
vt 6.02138615 -0.03195000
vt 1.83259571 -2.61799383
vt 4.18879032 -0.00000000
vt 2.87979317 -0.03595000
vt 5.49778700 1.57079637
vt 6.28318548 0.67319840
vt 4.71238899 0.00039000
vt 3.66519141 -0.03575000
vt 1.57079637 0.00000000
vt 5.62868690 -0.00088652
vt 3.92699075 0.22439948
vt -0.00155563 -0.00194437
vt 5.75958633 1.34639680
vt 2.87979317 -2.09439516
vt 1.04719758 0.22439948
vt 2.09439516 -3.14159274
vt 2.87979317 0.67319840
vt 1.30899692 -0.03195000
vt 2.09439516 1.34639680
vt 6.02138615 0.44879895
vt 0.39269909 -0.00088652
vt 5.23598766 -2.09439516
vt 0.00000000 -0.03595000
vt 3.53429174 -0.00088652
vt -0.00230325 -0.00132978
vt 6.28318548 -0.03575000
vt 4.97418833 0.89759791
vt -0.00307100 -0.00177304
vt -0.00285788 0.00165000
vt 5.49778700 0.00039000
vt -0.00350000 -0.00350000
vt 3.66519141 -0.03595000
vt 5.23598766 -0.00000000
vt 2.87979317 -0.03575000
vt 5.23598766 -2.87979317
vt 0.00000000 1.34639680
vt 2.74889350 -0.00088652
vt 1.57079637 -1.83259571
vt 4.45058966 1.12199736
vt 3.40339208 -1.83259571
vt 4.45058966 0.00039000
vt 4.18879032 1.57079637
vt 5.75958633 -1.57079637
vt -0.00113808 -0.00414274
vt 0.00113844 -0.00047156
vt 2.35619450 0.00000000
vt 6.28318548 -0.03595000
vt 4.18879032 0.22439948
vt 0.00220000 -0.00350000
vt 6.54498482 -2.35619450
vt 5.75958633 0.89759791
vt 6.54498482 -0.00000000
vt 0.52359879 0.00039000
vt 2.09439516 0.89759791
vt -0.00220000 -0.00350000
vt 3.40339208 1.57079637
vt 2.61799383 -2.09439516
vt 6.54498482 0.22439948
usemtl Nobel
f 470/1 469/2 468/3
f 443/4 469/2 470/5
f 470/6 440/7 466/8
f 467/9 440/7 470/10
f 468/3 467/9 470/11
f 470/12 464/13 451/14
f 465/15 464/13 470/16
f 466/8 465/15 470/17
f 470/18 462/19 461/20
f 463/21 462/19 470/22
f 451/14 463/21 470/23
f 470/24 454/25 453/26
f 449/27 454/25 470/28
f 461/20 449/27 470/29
f 470/30 447/31 460/32
f 452/33 447/31 470/34
f 453/26 452/33 470/35
f 470/36 458/37 445/38
f 459/39 458/37 470/40
f 460/32 459/39 470/41
f 470/42 456/43 455/44
f 457/45 456/43 470/46
f 445/38 457/45 470/47
f 455/44 443/48 470/49
f 266/50 290/51 267/52
f 290/51 291/53 267/52
f 267/52 291/53 268/54
f 291/53 292/55 268/54
f 268/54 292/55 269/56
f 292/55 293/57 269/56
f 269/56 293/57 270/58
f 293/57 294/59 270/58
f 270/58 294/59 271/60
f 294/59 295/61 271/60
f 271/60 295/61 272/62
f 295/61 296/63 272/62
f 272/62 296/63 273/64
f 296/63 297/65 273/64
f 273/64 297/65 274/66
f 297/65 298/67 274/66
f 274/66 298/67 275/68
f 298/67 299/69 275/68
f 275/68 299/69 276/70
f 299/69 300/71 276/70
f 276/70 300/71 277/72
f 300/71 301/73 277/72
f 277/72 301/73 278/74
f 301/73 302/75 278/74
f 278/74 302/75 279/76
f 302/75 303/77 279/76
f 279/76 303/77 280/78
f 303/77 304/79 280/78
f 280/78 304/79 281/80
f 304/79 305/81 281/80
f 281/80 305/81 282/82
f 305/81 306/83 282/82
f 282/82 306/83 283/84
f 306/83 307/85 283/84
f 283/84 307/85 284/86
f 307/85 308/87 284/86
f 284/86 308/87 285/88
f 308/87 309/89 285/88
f 285/88 309/89 286/90
f 309/89 310/91 286/90
f 286/90 310/91 287/92
f 310/91 311/93 287/92
f 287/92 311/93 288/94
f 311/93 312/95 288/94
f 288/94 312/95 289/96
f 312/95 313/97 289/96
f 289/96 313/97 266/98
f 313/97 290/99 266/98
f 313/100 314/101 290/51
f 314/101 315/102 290/51
f 290/51 315/102 291/53
f 315/102 316/103 291/53
f 291/53 316/103 292/55
f 316/103 317/104 292/55
f 292/55 317/104 293/57
f 317/104 318/105 293/57
f 293/57 318/105 294/59
f 318/105 319/106 294/59
f 294/59 319/106 295/61
f 319/106 320/107 295/61
f 295/61 320/107 296/63
f 320/107 321/108 296/63
f 296/63 321/108 297/65
f 321/108 322/109 297/65
f 297/65 322/109 298/67
f 322/109 323/110 298/67
f 298/67 323/110 299/69
f 323/110 324/111 299/69
f 299/69 324/111 300/71
f 324/111 325/112 300/71
f 300/71 325/112 301/73
f 325/112 326/113 301/73
f 301/73 326/113 302/75
f 326/113 327/114 302/75
f 302/75 327/114 303/77
f 327/114 328/115 303/77
f 303/77 328/115 304/79
f 328/115 329/116 304/79
f 304/79 329/116 305/81
f 329/116 330/117 305/81
f 305/81 330/117 306/83
f 330/117 331/118 306/83
f 306/83 331/118 307/85
f 331/118 332/119 307/85
f 307/85 332/119 308/87
f 332/119 333/120 308/87
f 308/87 333/120 309/89
f 333/120 334/121 309/89
f 309/89 334/121 310/91
f 334/121 335/122 310/91
f 310/91 335/122 311/93
f 335/122 336/123 311/93
f 311/93 336/123 312/95
f 336/123 337/124 312/95
f 312/95 337/124 313/97
f 337/124 314/125 313/97
f 337/126 338/127 314/101
f 338/127 339/128 314/101
f 314/101 339/128 315/102
f 339/128 340/129 315/102
f 315/102 340/129 316/103
f 340/129 341/130 316/103
f 316/103 341/130 317/104
f 341/130 342/131 317/104
f 317/104 342/131 318/105
f 342/131 343/132 318/105
f 318/105 343/132 319/106
f 343/132 344/133 319/106
f 319/106 344/133 320/107
f 344/133 345/134 320/107
f 320/107 345/134 321/108
f 345/134 346/135 321/108
f 321/108 346/135 322/109
f 346/135 347/136 322/109
f 322/109 347/136 323/110
f 347/136 348/137 323/110
f 323/110 348/137 324/111
f 348/137 349/138 324/111
f 324/111 349/138 325/112
f 349/138 350/139 325/112
f 325/112 350/139 326/113
f 350/139 351/140 326/113
f 326/113 351/140 327/114
f 351/140 352/141 327/114
f 327/114 352/141 328/115
f 352/141 353/142 328/115
f 328/115 353/142 329/116
f 353/142 354/143 329/116
f 329/116 354/143 330/117
f 354/143 355/144 330/117
f 330/117 355/144 331/118
f 355/144 356/145 331/118
f 331/118 356/145 332/119
f 356/145 357/146 332/119
f 332/119 357/146 333/120
f 357/146 358/147 333/120
f 333/120 358/147 334/121
f 358/147 359/148 334/121
f 334/121 359/148 335/122
f 359/148 360/149 335/122
f 335/122 360/149 336/123
f 360/149 361/150 336/123
f 336/123 361/150 337/124
f 361/150 338/151 337/124
f 361/152 362/153 338/127
f 362/153 363/154 338/127
f 338/127 363/154 339/128
f 363/154 364/155 339/128
f 339/128 364/155 340/129
f 364/155 365/156 340/129
f 340/129 365/156 341/130
f 365/156 366/157 341/130
f 341/130 366/157 342/131
f 366/157 367/158 342/131
f 342/131 367/158 343/132
f 367/158 368/159 343/132
f 343/132 368/159 344/133
f 368/159 369/160 344/133
f 344/133 369/160 345/134
f 369/160 370/161 345/134
f 345/134 370/161 346/135
f 370/161 371/162 346/135
f 346/135 371/162 347/136
f 371/162 372/163 347/136
f 347/136 372/163 348/137
f 372/163 373/164 348/137
f 348/137 373/164 349/138
f 373/164 374/165 349/138
f 349/138 374/165 350/139
f 374/165 375/166 350/139
f 350/139 375/166 351/140
f 375/166 376/167 351/140
f 351/140 376/167 352/141
f 376/167 377/168 352/141
f 352/141 377/168 353/142
f 377/168 378/169 353/142
f 353/142 378/169 354/143
f 378/169 379/170 354/143
f 354/143 379/170 355/144
f 379/170 380/171 355/144
f 355/144 380/171 356/145
f 380/171 381/172 356/145
f 356/145 381/172 357/146
f 381/172 382/173 357/146
f 357/146 382/173 358/147
f 382/173 383/174 358/147
f 358/147 383/174 359/148
f 383/174 384/175 359/148
f 359/148 384/175 360/149
f 384/175 385/176 360/149
f 360/149 385/176 361/150
f 385/176 362/177 361/150
f 385/178 386/179 362/153
f 386/179 387/180 362/153
f 362/153 387/180 363/154
f 387/180 388/181 363/154
f 363/154 388/181 364/155
f 388/181 389/182 364/155
f 364/155 389/182 365/156
f 389/182 390/183 365/156
f 365/156 390/183 366/157
f 390/183 391/184 366/157
f 366/157 391/184 367/158
f 391/184 392/185 367/158
f 367/158 392/185 368/159
f 392/185 393/186 368/159
f 368/159 393/186 369/160
f 393/186 394/187 369/160
f 369/160 394/187 370/161
f 394/187 395/188 370/161
f 370/161 395/188 371/162
f 395/188 396/189 371/162
f 371/162 396/189 372/163
f 396/189 397/190 372/163
f 372/163 397/190 373/164
f 397/190 398/191 373/164
f 373/164 398/191 374/165
f 398/191 399/192 374/165
f 374/165 399/192 375/166
f 399/192 400/193 375/166
f 375/166 400/193 376/167
f 400/193 401/194 376/167
f 376/167 401/194 377/168
f 401/194 402/195 377/168
f 377/168 402/195 378/169
f 402/195 403/196 378/169
f 378/169 403/196 379/170
f 403/196 404/197 379/170
f 379/170 404/197 380/171
f 404/197 405/198 380/171
f 380/171 405/198 381/172
f 405/198 406/199 381/172
f 381/172 406/199 382/173
f 406/199 407/200 382/173
f 382/173 407/200 383/174
f 407/200 408/201 383/174
f 383/174 408/201 384/175
f 408/201 409/202 384/175
f 384/175 409/202 385/176
f 409/202 386/203 385/176
f 409/204 410/205 386/179
f 410/205 411/206 386/179
f 386/179 411/206 387/180
f 411/206 412/207 387/180
f 387/180 412/207 388/181
f 412/207 413/208 388/181
f 388/181 413/208 389/182
f 413/208 414/209 389/182
f 389/182 414/209 390/183
f 414/209 415/210 390/183
f 390/183 415/210 391/184
f 415/210 416/211 391/184
f 391/184 416/211 392/185
f 416/211 417/212 392/185
f 392/185 417/212 393/186
f 417/212 418/213 393/186
f 393/186 418/213 394/187
f 418/213 419/214 394/187
f 394/187 419/214 395/188
f 419/214 420/215 395/188
f 395/188 420/215 396/189
f 420/215 421/216 396/189
f 396/189 421/216 397/190
f 421/216 422/217 397/190
f 397/190 422/217 398/191
f 422/217 423/218 398/191
f 398/191 423/218 399/192
f 423/218 424/219 399/192
f 399/192 424/219 400/193
f 424/219 425/220 400/193
f 400/193 425/220 401/194
f 425/220 426/221 401/194
f 401/194 426/221 402/195
f 426/221 427/222 402/195
f 402/195 427/222 403/196
f 427/222 428/223 403/196
f 403/196 428/223 404/197
f 428/223 429/224 404/197
f 404/197 429/224 405/198
f 429/224 430/225 405/198
f 405/198 430/225 406/199
f 430/225 431/226 406/199
f 406/199 431/226 407/200
f 431/226 432/227 407/200
f 407/200 432/227 408/201
f 432/227 433/228 408/201
f 408/201 433/228 409/202
f 433/228 410/229 409/202
f 433/230 243/231 410/205
f 243/231 244/232 410/205
f 410/205 244/232 411/206
f 244/232 245/233 411/206
f 411/206 245/233 412/207
f 245/233 246/234 412/207
f 412/207 246/234 413/208
f 246/234 247/235 413/208
f 413/208 247/235 414/209
f 247/235 248/236 414/209
f 414/209 248/236 415/210
f 248/236 249/237 415/210
f 415/210 249/237 416/211
f 249/237 250/238 416/211
f 416/211 250/238 417/212
f 250/238 251/239 417/212
f 417/212 251/239 418/213
f 251/239 252/240 418/213
f 418/213 252/240 419/214
f 252/240 253/241 419/214
f 419/214 253/241 420/215
f 253/241 254/242 420/215
f 420/215 254/242 421/216
f 254/242 255/243 421/216
f 421/216 255/243 422/217
f 255/243 256/244 422/217
f 422/217 256/244 423/218
f 256/244 257/245 423/218
f 423/218 257/245 424/219
f 257/245 258/246 424/219
f 424/219 258/246 425/220
f 258/246 259/247 425/220
f 425/220 259/247 426/221
f 259/247 260/248 426/221
f 426/221 260/248 427/222
f 260/248 261/249 427/222
f 427/222 261/249 428/223
f 261/249 262/250 428/223
f 428/223 262/250 429/224
f 262/250 263/251 429/224
f 429/224 263/251 430/225
f 263/251 264/252 430/225
f 430/225 264/252 431/226
f 264/252 265/253 431/226
f 431/226 265/253 432/227
f 265/253 242/254 432/227
f 432/227 242/254 433/228
f 242/254 243/255 433/228
f 61/256 98/257 60/258
f 98/257 99/259 60/258
f 60/258 99/259 59/260
f 99/259 100/261 59/260
f 59/260 100/261 58/262
f 100/261 101/263 58/262
f 58/262 101/263 57/264
f 101/263 102/265 57/264
f 57/264 102/265 56/266
f 102/265 103/267 56/266
f 56/266 103/267 55/268
f 103/267 104/269 55/268
f 55/268 104/269 54/270
f 104/269 105/271 54/270
f 54/270 105/271 53/272
f 105/271 106/273 53/272
f 53/272 106/273 52/274
f 106/273 107/275 52/274
f 52/274 107/275 51/276
f 107/275 108/277 51/276
f 51/276 108/277 50/278
f 108/277 109/279 50/278
f 50/278 109/279 73/280
f 109/279 110/281 73/280
f 73/280 110/281 72/282
f 110/281 111/283 72/282
f 72/282 111/283 71/284
f 111/283 112/285 71/284
f 71/284 112/285 70/286
f 112/285 113/287 70/286
f 70/286 113/287 69/288
f 113/287 114/289 69/288
f 69/288 114/289 68/290
f 114/289 115/291 68/290
f 68/290 115/291 67/292
f 115/291 116/293 67/292
f 67/292 116/293 66/294
f 116/293 117/295 66/294
f 66/294 117/295 65/296
f 117/295 118/297 65/296
f 65/296 118/297 64/298
f 118/297 119/299 64/298
f 64/298 119/299 63/300
f 119/299 120/301 63/300
f 63/300 120/301 62/302
f 120/301 121/303 62/302
f 62/302 121/303 61/304
f 121/303 98/305 61/304
f 98/257 122/306 99/259
f 122/306 123/307 99/259
f 99/259 123/307 100/261
f 123/307 124/308 100/261
f 100/261 124/308 101/263
f 124/308 125/309 101/263
f 101/263 125/309 102/265
f 125/309 126/310 102/265
f 102/265 126/310 103/267
f 126/310 127/311 103/267
f 103/267 127/311 104/269
f 127/311 128/312 104/269
f 104/269 128/312 105/271
f 128/312 129/313 105/271
f 105/271 129/313 106/273
f 129/313 130/314 106/273
f 106/273 130/314 107/275
f 130/314 131/315 107/275
f 107/275 131/315 108/277
f 131/315 132/316 108/277
f 108/277 132/316 109/279
f 132/316 133/317 109/279
f 109/279 133/317 110/281
f 133/317 134/318 110/281
f 110/281 134/318 111/283
f 134/318 135/319 111/283
f 111/283 135/319 112/285
f 135/319 136/320 112/285
f 112/285 136/320 113/287
f 136/320 137/321 113/287
f 113/287 137/321 114/289
f 137/321 138/322 114/289
f 114/289 138/322 115/291
f 138/322 139/323 115/291
f 115/291 139/323 116/293
f 139/323 140/324 116/293
f 116/293 140/324 117/295
f 140/324 141/325 117/295
f 117/295 141/325 118/297
f 141/325 142/326 118/297
f 118/297 142/326 119/299
f 142/326 143/327 119/299
f 119/299 143/327 120/301
f 143/327 144/328 120/301
f 120/301 144/328 121/303
f 144/328 145/329 121/303
f 121/303 145/329 98/305
f 145/329 122/330 98/305
f 122/306 146/331 123/307
f 146/331 147/332 123/307
f 123/307 147/332 124/308
f 147/332 148/333 124/308
f 124/308 148/333 125/309
f 148/333 149/334 125/309
f 125/309 149/334 126/310
f 149/334 150/335 126/310
f 126/310 150/335 127/311
f 150/335 151/336 127/311
f 127/311 151/336 128/312
f 151/336 152/337 128/312
f 128/312 152/337 129/313
f 152/337 153/338 129/313
f 129/313 153/338 130/314
f 153/338 154/339 130/314
f 130/314 154/339 131/315
f 154/339 155/340 131/315
f 131/315 155/340 132/316
f 155/340 156/341 132/316
f 132/316 156/341 133/317
f 156/341 157/342 133/317
f 133/317 157/342 134/318
f 157/342 158/343 134/318
f 134/318 158/343 135/319
f 158/343 159/344 135/319
f 135/319 159/344 136/320
f 159/344 160/345 136/320
f 136/320 160/345 137/321
f 160/345 161/346 137/321
f 137/321 161/346 138/322
f 161/346 162/347 138/322
f 138/322 162/347 139/323
f 162/347 163/348 139/323
f 139/323 163/348 140/324
f 163/348 164/349 140/324
f 140/324 164/349 141/325
f 164/349 165/350 141/325
f 141/325 165/350 142/326
f 165/350 166/351 142/326
f 142/326 166/351 143/327
f 166/351 167/352 143/327
f 143/327 167/352 144/328
f 167/352 168/353 144/328
f 144/328 168/353 145/329
f 168/353 169/354 145/329
f 145/329 169/354 122/330
f 169/354 146/355 122/330
f 146/331 170/356 147/332
f 170/356 171/357 147/332
f 147/332 171/357 148/333
f 171/357 172/358 148/333
f 148/333 172/358 149/334
f 172/358 173/359 149/334
f 149/334 173/359 150/335
f 173/359 174/360 150/335
f 150/335 174/360 151/336
f 174/360 175/361 151/336
f 151/336 175/361 152/337
f 175/361 176/362 152/337
f 152/337 176/362 153/338
f 176/362 177/363 153/338
f 153/338 177/363 154/339
f 177/363 178/364 154/339
f 154/339 178/364 155/340
f 178/364 179/365 155/340
f 155/340 179/365 156/341
f 179/365 180/366 156/341
f 156/341 180/366 157/342
f 180/366 181/367 157/342
f 157/342 181/367 158/343
f 181/367 182/368 158/343
f 158/343 182/368 159/344
f 182/368 183/369 159/344
f 159/344 183/369 160/345
f 183/369 184/370 160/345
f 160/345 184/370 161/346
f 184/370 185/371 161/346
f 161/346 185/371 162/347
f 185/371 186/372 162/347
f 162/347 186/372 163/348
f 186/372 187/373 163/348
f 163/348 187/373 164/349
f 187/373 188/374 164/349
f 164/349 188/374 165/350
f 188/374 189/375 165/350
f 165/350 189/375 166/351
f 189/375 190/376 166/351
f 166/351 190/376 167/352
f 190/376 191/377 167/352
f 167/352 191/377 168/353
f 191/377 192/378 168/353
f 168/353 192/378 169/354
f 192/378 193/379 169/354
f 169/354 193/379 146/355
f 193/379 170/380 146/355
f 170/356 194/381 171/357
f 194/381 195/382 171/357
f 171/357 195/382 172/358
f 195/382 196/383 172/358
f 172/358 196/383 173/359
f 196/383 197/384 173/359
f 173/359 197/384 174/360
f 197/384 198/385 174/360
f 174/360 198/385 175/361
f 198/385 199/386 175/361
f 175/361 199/386 176/362
f 199/386 200/387 176/362
f 176/362 200/387 177/363
f 200/387 201/388 177/363
f 177/363 201/388 178/364
f 201/388 202/389 178/364
f 178/364 202/389 179/365
f 202/389 203/390 179/365
f 179/365 203/390 180/366
f 203/390 204/391 180/366
f 180/366 204/391 181/367
f 204/391 205/392 181/367
f 181/367 205/392 182/368
f 205/392 206/393 182/368
f 182/368 206/393 183/369
f 206/393 207/394 183/369
f 183/369 207/394 184/370
f 207/394 208/395 184/370
f 184/370 208/395 185/371
f 208/395 209/396 185/371
f 185/371 209/396 186/372
f 209/396 210/397 186/372
f 186/372 210/397 187/373
f 210/397 211/398 187/373
f 187/373 211/398 188/374
f 211/398 212/399 188/374
f 188/374 212/399 189/375
f 212/399 213/400 189/375
f 189/375 213/400 190/376
f 213/400 214/401 190/376
f 190/376 214/401 191/377
f 214/401 215/402 191/377
f 191/377 215/402 192/378
f 215/402 216/403 192/378
f 192/378 216/403 193/379
f 216/403 217/404 193/379
f 193/379 217/404 170/380
f 217/404 194/405 170/380
f 194/381 75/406 195/382
f 75/406 76/407 195/382
f 195/382 76/407 196/383
f 76/407 77/408 196/383
f 196/383 77/408 197/384
f 77/408 78/409 197/384
f 197/384 78/409 198/385
f 78/409 79/410 198/385
f 198/385 79/410 199/386
f 79/410 80/411 199/386
f 199/386 80/411 200/387
f 80/411 81/412 200/387
f 200/387 81/412 201/388
f 81/412 82/413 201/388
f 201/388 82/413 202/389
f 82/413 83/414 202/389
f 202/389 83/414 203/390
f 83/414 84/415 203/390
f 203/390 84/415 204/391
f 84/415 85/416 204/391
f 204/391 85/416 205/392
f 85/416 86/417 205/392
f 205/392 86/417 206/393
f 86/417 87/418 206/393
f 206/393 87/418 207/394
f 87/418 88/419 207/394
f 207/394 88/419 208/395
f 88/419 89/420 208/395
f 208/395 89/420 209/396
f 89/420 90/421 209/396
f 209/396 90/421 210/397
f 90/421 91/422 210/397
f 210/397 91/422 211/398
f 91/422 92/423 211/398
f 211/398 92/423 212/399
f 92/423 93/424 212/399
f 212/399 93/424 213/400
f 93/424 94/425 213/400
f 213/400 94/425 214/401
f 94/425 95/426 214/401
f 214/401 95/426 215/402
f 95/426 96/427 215/402
f 215/402 96/427 216/403
f 96/427 97/428 216/403
f 216/403 97/428 217/404
f 97/428 74/429 217/404
f 217/404 74/429 194/405
f 74/429 75/430 194/405
f 242/431 233/432 243/433
f 233/432 232/434 243/433
f 243/433 232/434 244/435
f 232/434 238/436 244/435
f 244/435 238/436 245/437
f 238/436 237/438 245/437
f 245/437 237/438 246/439
f 237/438 225/440 246/439
f 246/439 225/440 247/441
f 225/440 222/442 247/441
f 247/441 222/442 248/443
f 222/442 221/444 248/443
f 248/443 221/444 249/445
f 221/444 219/446 249/445
f 249/445 219/446 250/447
f 219/446 218/448 250/447
f 250/447 218/448 251/449
f 218/448 220/450 251/449
f 251/449 220/450 252/451
f 220/450 229/452 252/451
f 252/451 229/452 253/453
f 229/452 228/454 253/453
f 253/453 228/454 254/455
f 228/454 224/456 254/455
f 254/455 224/456 255/457
f 224/456 223/458 255/457
f 255/457 223/458 256/459
f 223/458 227/460 256/459
f 256/459 227/460 257/461
f 227/460 226/462 257/461
f 257/461 226/462 258/463
f 226/462 241/464 258/463
f 258/463 241/464 259/465
f 241/464 240/466 259/465
f 259/465 240/466 260/467
f 240/466 239/468 260/467
f 260/467 239/468 261/469
f 239/468 236/470 261/469
f 261/469 236/470 262/471
f 236/470 235/472 262/471
f 262/471 235/472 263/473
f 235/472 231/474 263/473
f 263/473 231/474 264/475
f 231/474 230/476 264/475
f 264/475 230/476 265/477
f 230/476 234/478 265/477
f 265/477 234/478 242/479
f 234/478 233/480 242/479
f 50/481 27/482 51/483
f 27/482 28/484 51/483
f 51/483 28/484 52/485
f 28/484 29/486 52/485
f 52/485 29/486 53/487
f 29/486 30/488 53/487
f 53/487 30/488 54/489
f 30/488 31/490 54/489
f 54/489 31/490 55/491
f 31/490 32/492 55/491
f 55/491 32/492 56/493
f 32/492 33/494 56/493
f 56/493 33/494 57/495
f 33/494 34/496 57/495
f 57/495 34/496 58/497
f 34/496 35/498 58/497
f 58/497 35/498 59/499
f 35/498 36/500 59/499
f 59/499 36/500 60/501
f 36/500 37/502 60/501
f 60/501 37/502 61/503
f 37/502 38/504 61/503
f 61/503 38/504 62/505
f 38/504 39/506 62/505
f 62/505 39/506 63/507
f 39/506 40/508 63/507
f 63/507 40/508 64/509
f 40/508 41/510 64/509
f 64/509 41/510 65/511
f 41/510 42/512 65/511
f 65/511 42/512 66/513
f 42/512 43/514 66/513
f 66/513 43/514 67/515
f 43/514 44/516 67/515
f 67/515 44/516 68/517
f 44/516 45/518 68/517
f 68/517 45/518 69/519
f 45/518 46/520 69/519
f 69/519 46/520 70/521
f 46/520 47/522 70/521
f 70/521 47/522 71/523
f 47/522 48/524 71/523
f 71/523 48/524 72/525
f 48/524 49/526 72/525
f 72/525 49/526 73/527
f 49/526 26/528 73/527
f 73/527 26/528 50/529
f 26/528 27/530 50/529
f 448/531 447/532 452/533
f 452/533 453/534 448/531
f 453/534 454/535 448/531
f 448/531 454/535 449/536
f 446/537 445/538 458/539
f 458/539 459/540 446/537
f 459/540 460/541 446/537
f 446/537 460/541 447/532
f 444/542 443/543 455/544
f 455/544 456/545 444/542
f 456/545 457/546 444/542
f 444/542 457/546 445/538
f 442/547 440/548 467/549
f 467/549 468/550 442/547
f 468/550 469/551 442/547
f 442/547 469/551 443/543
f 463/552 451/553 450/554
f 449/536 461/555 450/554
f 461/555 462/556 450/554
f 450/554 462/556 463/552
f 441/557 451/553 464/558
f 464/558 465/559 441/557
f 465/559 466/560 441/557
f 441/557 466/560 440/548
f 441/561 439/562 451/563
f 439/562 438/564 451/563
f 451/563 438/564 450/565
f 450/561 438/566 449/567
f 438/566 436/564 449/567
f 449/567 436/564 448/568
f 448/569 436/564 447/570
f 436/564 435/571 447/570
f 447/570 435/571 446/561
f 446/565 435/564 445/563
f 435/564 434/562 445/563
f 445/563 434/562 444/561
f 444/561 434/572 443/573
f 434/572 437/564 443/573
f 443/573 437/564 442/574
f 442/575 437/564 440/576
f 437/564 439/577 440/576
f 440/576 439/577 441/561
f 78/578 219/579 79/580
f 219/579 221/581 79/580
f 79/580 221/581 80/582
f 221/581 222/583 80/582
f 80/582 222/583 81/584
f 222/583 225/585 81/584
f 81/584 225/585 82/586
f 225/585 237/587 82/586
f 82/586 237/587 83/588
f 237/587 238/589 83/588
f 83/588 238/589 84/590
f 238/589 232/591 84/590
f 84/590 232/591 85/592
f 232/591 233/593 85/592
f 85/592 233/593 86/594
f 233/593 234/595 86/594
f 86/594 234/595 87/596
f 234/595 230/597 87/596
f 87/596 230/597 88/598
f 230/597 231/599 88/598
f 88/598 231/599 89/600
f 231/599 235/601 89/600
f 89/600 235/601 90/602
f 235/601 236/603 90/602
f 90/602 236/603 91/604
f 236/603 239/605 91/604
f 91/604 239/605 92/606
f 239/605 240/607 92/606
f 92/606 240/607 93/608
f 240/607 241/609 93/608
f 93/608 241/609 94/610
f 241/609 226/611 94/610
f 94/610 226/611 95/612
f 226/611 227/613 95/612
f 95/612 227/613 96/614
f 227/613 223/615 96/614
f 96/614 223/615 97/616
f 223/615 224/617 97/616
f 97/616 224/617 74/618
f 224/617 228/619 74/618
f 74/618 228/619 75/620
f 228/619 229/621 75/620
f 75/620 229/621 76/622
f 229/621 220/623 76/622
f 76/622 220/623 77/624
f 220/623 218/625 77/624
f 77/624 218/625 78/578
f 218/625 219/579 78/578
f 22/626 23/627 25/628
f 23/627 24/629 25/628
f 25/628 24/629 1/630
f 19/631 20/632 25/628
f 20/632 21/633 25/628
f 25/628 21/633 22/626
f 16/634 17/635 25/628
f 17/635 18/636 25/628
f 25/628 18/636 19/631
f 13/637 14/638 25/628
f 14/638 15/639 25/628
f 25/628 15/639 16/634
f 10/640 11/641 25/628
f 11/641 12/642 25/628
f 25/628 12/642 13/637
f 7/643 8/644 25/628
f 8/644 9/645 25/628
f 25/628 9/645 10/640
f 4/646 5/647 25/628
f 5/647 6/648 25/628
f 25/628 6/648 7/643
f 1/630 2/649 25/628
f 2/649 3/650 25/628
f 25/628 3/650 4/646
f 283/651 284/652 435/653
f 268/654 269/655 437/656
f 269/655 270/657 437/656
f 437/656 270/657 439/658
f 270/657 271/659 439/658
f 271/659 272/660 439/658
f 439/658 272/660 273/661
f 438/662 277/663 436/557
f 277/663 278/664 436/557
f 436/557 278/664 279/665
f 273/661 274/666 439/658
f 274/666 275/667 439/658
f 439/658 275/667 438/662
f 275/667 276/668 438/662
f 438/662 276/668 277/663
f 288/669 289/670 434/671
f 289/670 266/672 434/671
f 434/671 266/672 437/656
f 266/672 267/673 437/656
f 437/656 267/673 268/654
f 279/665 280/674 436/557
f 280/674 281/675 436/557
f 436/557 281/675 435/653
f 281/675 282/676 435/653
f 435/653 282/676 283/651
f 284/652 285/677 435/653
f 285/677 286/678 435/653
f 435/653 286/678 434/671
f 286/678 287/679 434/671
f 434/671 287/679 288/669
f 26/680 24/681 27/682
f 24/681 23/683 27/682
f 27/682 23/683 28/684
f 23/683 22/685 28/684
f 28/684 22/685 29/686
f 22/685 21/687 29/686
f 29/686 21/687 30/688
f 21/687 20/689 30/688
f 30/688 20/689 31/690
f 20/689 19/691 31/690
f 31/690 19/691 32/692
f 19/691 18/693 32/692
f 32/692 18/693 33/694
f 18/693 17/695 33/694
f 33/694 17/695 34/696
f 17/695 16/697 34/696
f 34/696 16/697 35/698
f 16/697 15/699 35/698
f 35/698 15/699 36/700
f 15/699 14/701 36/700
f 36/700 14/701 37/702
f 14/701 13/703 37/702
f 37/702 13/703 38/704
f 13/703 12/705 38/704
f 38/704 12/705 39/706
f 12/705 11/707 39/706
f 39/706 11/707 40/708
f 11/707 10/709 40/708
f 40/708 10/709 41/710
f 10/709 9/711 41/710
f 41/710 9/711 42/712
f 9/711 8/713 42/712
f 42/712 8/713 43/714
f 8/713 7/715 43/714
f 43/714 7/715 44/716
f 7/715 6/717 44/716
f 44/716 6/717 45/718
f 6/717 5/719 45/718
f 45/718 5/719 46/720
f 5/719 4/721 46/720
f 46/720 4/721 47/722
f 4/721 3/723 47/722
f 47/722 3/723 48/724
f 3/723 2/725 48/724
f 48/724 2/725 49/726
f 2/725 1/727 49/726
f 49/726 1/727 26/728
f 1/727 24/729 26/728
