v 0.071 0.017 0.095
v 0.071 0.0230000019073 0.095
v 0.071 0.017 0.115
v 0.071 0.017 0.115
v 0.071 0.0230000019073 0.095
v 0.071 0.0230000019073 0.115
v 0.071 0.0230000019073 0.095
v 0.089 0.0230000019073 0.095
v 0.071 0.0230000019073 0.115
v 0.071 0.0230000019073 0.115
v 0.089 0.0230000019073 0.095
v 0.089 0.0230000019073 0.115
v 0.089 0.0230000019073 0.095
v 0.089 0.017 0.095
v 0.089 0.0230000019073 0.115
v 0.089 0.0230000019073 0.115
v 0.089 0.017 0.095
v 0.089 0.017 0.115
v 0.089 0.017 0.095
v 0.071 0.017 0.095
v 0.089 0.017 0.115
v 0.089 0.017 0.115
v 0.071 0.017 0.095
v 0.071 0.017 0.115
v 0.089 0.017 0.095
v 0.089 0.0230000019073 0.095
v 0.071 0.017 0.095
v 0.071 0.017 0.095
v 0.089 0.0230000019073 0.095
v 0.071 0.0230000019073 0.095
f 1 2 3
f 4 5 6
f 7 8 9
f 10 11 12
f 13 14 15
f 16 17 18
f 19 20 21
f 22 23 24
f 25 26 27
f 28 29 30
