v 0.071 0.0230000019073 0.115
v 0.07 0.0240000019073 0.115
v 0.071 0.017 0.115
v 0.071 0.017 0.115
v 0.07 0.0240000019073 0.115
v 0.07 0.016 0.115
v 0.071 0.017 0.115
v 0.07 0.016 0.115
v 0.089 0.017 0.115
v 0.089 0.017 0.115
v 0.07 0.016 0.115
v 0.09 0.016 0.115
v 0.089 0.017 0.115
v 0.09 0.016 0.115
v 0.089 0.0230000019073 0.115
v 0.089 0.0230000019073 0.115
v 0.09 0.016 0.115
v 0.09 0.0240000019073 0.115
v 0.089 0.0230000019073 0.115
v 0.09 0.0240000019073 0.115
v 0.071 0.0230000019073 0.115
v 0.071 0.0230000019073 0.115
v 0.09 0.0240000019073 0.115
v 0.07 0.0240000019073 0.115
v 0.071 0.0230000019073 0.114999
v 0.07 0.0240000019073 0.114999
v 0.071 0.017 0.114999
v 0.071 0.017 0.114999
v 0.07 0.0240000019073 0.114999
v 0.07 0.016 0.114999
v 0.071 0.017 0.114999
v 0.07 0.016 0.114999
v 0.089 0.017 0.114999
v 0.089 0.017 0.114999
v 0.07 0.016 0.114999
v 0.09 0.016 0.114999
v 0.089 0.017 0.114999
v 0.09 0.016 0.114999
v 0.089 0.0230000019073 0.114999
v 0.089 0.0230000019073 0.114999
v 0.09 0.016 0.114999
v 0.09 0.0240000019073 0.114999
v 0.089 0.0230000019073 0.114999
v 0.09 0.0240000019073 0.114999
v 0.071 0.0230000019073 0.114999
v 0.071 0.0230000019073 0.114999
v 0.09 0.0240000019073 0.114999
v 0.07 0.0240000019073 0.114999
f 1 2 3
f 4 5 6
f 7 8 9
f 10 11 12
f 13 14 15
f 16 17 18
f 19 20 21
f 22 23 24
f 27 26 25
f 30 29 28
f 33 32 31
f 36 35 34
f 39 38 37
f 42 41 40
f 45 44 43
f 48 47 46
f 1 2 26
f 1 26 25
f 2 3 27
f 2 27 26
f 3 1 25
f 3 25 27
f 4 5 29
f 4 29 28
f 5 6 30
f 5 30 29
f 6 4 28
f 6 28 30
f 7 8 32
f 7 32 31
f 8 9 33
f 8 33 32
f 9 7 31
f 9 31 33
f 10 11 35
f 10 35 34
f 11 12 36
f 11 36 35
f 12 10 34
f 12 34 36
f 13 14 38
f 13 38 37
f 14 15 39
f 14 39 38
f 15 13 37
f 15 37 39
f 16 17 41
f 16 41 40
f 17 18 42
f 17 42 41
f 18 16 40
f 18 40 42
f 19 20 44
f 19 44 43
f 20 21 45
f 20 45 44
f 21 19 43
f 21 43 45
f 22 23 47
f 22 47 46
f 23 24 48
f 23 48 47
f 24 22 46
f 24 46 48
