v 0.09 0.016 0.055
v 0.09 0.0240000019073 0.055
v 0.09 0.016 0.085
v 0.09 0.016 0.085
v 0.09 0.0240000019073 0.055
v 0.09 0.0240000019073 0.115
v 0.09 0.016 0.085
v 0.09 0.0240000019073 0.115
v 0.09 0.016 0.105
v 0.09 0.016 0.105
v 0.09 0.0240000019073 0.115
v 0.09 0.016 0.115
v 0.07 0.016 0.055
v 0.07 0.0240000019073 0.055
v 0.08 0.016 0.055
v 0.08 0.016 0.055
v 0.07 0.0240000019073 0.055
v 0.09 0.0240000019073 0.055
v 0.08 0.016 0.055
v 0.09 0.0240000019073 0.055
v 0.09 0.016 0.055
v 0.07 0.016 0.105
v 0.07 0.016 0.115
v 0.07 0.0240000019073 0.115
v 0.07 0.016 0.105
v 0.07 0.0240000019073 0.115
v 0.07 0.016 0.085
v 0.07 0.016 0.085
v 0.07 0.0240000019073 0.115
v 0.07 0.0240000019073 0.055
v 0.07 0.016 0.085
v 0.07 0.0240000019073 0.055
v 0.07 0.016 0.055
v 0.07 0.0240000019073 0.055
v 0.07 0.0240000019073 0.115
v 0.09 0.0240000019073 0.055
v 0.09 0.0240000019073 0.055
v 0.07 0.0240000019073 0.115
v 0.09 0.0240000019073 0.115
v 0.09 0.016 0.115
v 0.07 0.016 0.115
v 0.09 0.016 0.105
v 0.09 0.016 0.105
v 0.07 0.016 0.115
v 0.07 0.016 0.105
f 1 2 3
f 4 5 6
f 7 8 9
f 10 11 12
f 13 14 15
f 16 17 18
f 19 20 21
f 22 23 24
f 25 26 27
f 28 29 30
f 31 32 33
f 34 35 36
f 37 38 39
f 40 41 42
f 43 44 45
