# Exported from USD: /World/Robotiq_Hand_E_edit/base_link/socket_head_cap_screw_iso_robotiq_25ROBOTIQ_HAND_E_DEFEATURE/socket_head_cap_screw_iso_robotiq_25ROBOTIQ_HAND_E_DEFEATURE
mtllib D_A03_ASM_DOIGTS_PARALLELES_1ROBOTIQ_HAND_E_DEFEATURE.mtl

g socket_head_cap_screw_iso_robotiq_25ROBOTIQ_HAND_E_DEFEATURE
v -0.01688837 -0.09100000 0.02514694
v -0.01637850 -0.09100000 0.02498016
v -0.01584283 -0.09100000 0.02495102
v -0.01531787 -0.09100000 0.02506152
v -0.01483939 -0.09100000 0.02530412
v -0.01444001 -0.09100000 0.02566229
v -0.01414694 -0.09100000 0.02611163
v -0.01398016 -0.09100000 0.02662150
v -0.01395102 -0.09100000 0.02715717
v -0.01406152 -0.09100000 0.02768213
v -0.01430412 -0.09100000 0.02816061
v -0.01466229 -0.09100000 0.02855999
v -0.01511163 -0.09100000 0.02885306
v -0.01562150 -0.09100000 0.02901984
v -0.01615717 -0.09100000 0.02904898
v -0.01668213 -0.09100000 0.02893848
v -0.01716061 -0.09100000 0.02869588
v -0.01755999 -0.09100000 0.02833771
v -0.01785306 -0.09100000 0.02788837
v -0.01801984 -0.09100000 0.02737850
v -0.01804898 -0.09100000 0.02684283
v -0.01793848 -0.09100000 0.02631787
v -0.01769588 -0.09100000 0.02583939
v -0.01733771 -0.09100000 0.02544001
v -0.01600000 -0.09100000 0.02700000
v -0.01708075 -0.09055500 0.02474567
v -0.01762738 -0.09055500 0.02510221
v -0.01806312 -0.09055500 0.02558807
v -0.01835825 -0.09055500 0.02617015
v -0.01849268 -0.09055500 0.02680879
v -0.01845723 -0.09055500 0.02746046
v -0.01825433 -0.09055500 0.02808075
v -0.01789779 -0.09055500 0.02862738
v -0.01741193 -0.09055500 0.02906312
v -0.01682985 -0.09055500 0.02935825
v -0.01619121 -0.09055500 0.02949268
v -0.01553954 -0.09055500 0.02945723
v -0.01491925 -0.09055500 0.02925433
v -0.01437262 -0.09055500 0.02889779
v -0.01393688 -0.09055500 0.02841193
v -0.01364175 -0.09055500 0.02782985
v -0.01350732 -0.09055500 0.02719121
v -0.01354277 -0.09055500 0.02653954
v -0.01374567 -0.09055500 0.02591925
v -0.01410221 -0.09055500 0.02537262
v -0.01458807 -0.09055500 0.02493688
v -0.01517015 -0.09055500 0.02464175
v -0.01580879 -0.09055500 0.02450732
v -0.01646046 -0.09055500 0.02454277
v -0.01708075 -0.06620000 0.02474567
v -0.01762738 -0.06620000 0.02510221
v -0.01806312 -0.06620000 0.02558807
v -0.01835825 -0.06620000 0.02617015
v -0.01849268 -0.06620000 0.02680879
v -0.01845723 -0.06620000 0.02746046
v -0.01825433 -0.06620000 0.02808075
v -0.01789779 -0.06620000 0.02862738
v -0.01741193 -0.06620000 0.02906312
v -0.01682985 -0.06620000 0.02935825
v -0.01619121 -0.06620000 0.02949268
v -0.01553954 -0.06620000 0.02945723
v -0.01491925 -0.06620000 0.02925433
v -0.01437262 -0.06620000 0.02889779
v -0.01393688 -0.06620000 0.02841193
v -0.01364175 -0.06620000 0.02782985
v -0.01350732 -0.06620000 0.02719121
v -0.01354277 -0.06620000 0.02653954
v -0.01374567 -0.06620000 0.02591925
v -0.01410221 -0.06620000 0.02537262
v -0.01458807 -0.06620000 0.02493688
v -0.01517015 -0.06620000 0.02464175
v -0.01580879 -0.06620000 0.02450732
v -0.01646046 -0.06620000 0.02454277
v -0.01483279 -0.06600000 0.02943467
v -0.01550270 -0.06600000 0.02965381
v -0.01620651 -0.06600000 0.02969209
v -0.01689623 -0.06600000 0.02954691
v -0.01752489 -0.06600000 0.02922817
v -0.01804962 -0.06600000 0.02875757
v -0.01843467 -0.06600000 0.02816721
v -0.01865381 -0.06600000 0.02749730
v -0.01869209 -0.06600000 0.02679349
v -0.01854691 -0.06600000 0.02610377
v -0.01822817 -0.06600000 0.02547511
v -0.01775757 -0.06600000 0.02495038
v -0.01716721 -0.06600000 0.02456533
v -0.01649730 -0.06600000 0.02434619
v -0.01579349 -0.06600000 0.02430791
v -0.01510377 -0.06600000 0.02445309
v -0.01447512 -0.06600000 0.02477183
v -0.01395038 -0.06600000 0.02524243
v -0.01356533 -0.06600000 0.02583279
v -0.01334619 -0.06600000 0.02650270
v -0.01330791 -0.06600000 0.02720651
v -0.01345309 -0.06600000 0.02789623
v -0.01377183 -0.06600000 0.02852488
v -0.01424243 -0.06600000 0.02904962
v -0.01553829 -0.06614824 0.02946393
v -0.01619173 -0.06614824 0.02949947
v -0.01683211 -0.06614824 0.02936468
v -0.01741578 -0.06614824 0.02906874
v -0.01790297 -0.06614824 0.02863182
v -0.01826047 -0.06614824 0.02808369
v -0.01846393 -0.06614824 0.02746171
v -0.01849947 -0.06614824 0.02680827
v -0.01836468 -0.06614824 0.02616789
v -0.01806874 -0.06614824 0.02558422
v -0.01763182 -0.06614824 0.02509703
v -0.01708369 -0.06614824 0.02473953
v -0.01646171 -0.06614824 0.02453607
v -0.01580827 -0.06614824 0.02450053
v -0.01516789 -0.06614824 0.02463532
v -0.01458422 -0.06614824 0.02493126
v -0.01409703 -0.06614824 0.02536818
v -0.01373953 -0.06614824 0.02591631
v -0.01353607 -0.06614824 0.02653829
v -0.01350053 -0.06614824 0.02719173
v -0.01363532 -0.06614824 0.02783211
v -0.01393126 -0.06614824 0.02841578
v -0.01436818 -0.06614824 0.02890297
v -0.01491631 -0.06614824 0.02926047
v -0.01553461 -0.06610000 0.02948357
v -0.01619326 -0.06610000 0.02951939
v -0.01683874 -0.06610000 0.02938353
v -0.01742706 -0.06610000 0.02908523
v -0.01791813 -0.06610000 0.02864483
v -0.01827849 -0.06610000 0.02809233
v -0.01848357 -0.06610000 0.02746539
v -0.01851939 -0.06610000 0.02680674
v -0.01838353 -0.06610000 0.02616126
v -0.01808523 -0.06610000 0.02557294
v -0.01764483 -0.06610000 0.02508187
v -0.01709233 -0.06610000 0.02472151
v -0.01646539 -0.06610000 0.02451643
v -0.01580674 -0.06610000 0.02448061
v -0.01516126 -0.06610000 0.02461647
v -0.01457294 -0.06610000 0.02491477
v -0.01408187 -0.06610000 0.02535517
v -0.01372151 -0.06610000 0.02590767
v -0.01351643 -0.06610000 0.02653461
v -0.01348061 -0.06610000 0.02719326
v -0.01361647 -0.06610000 0.02783874
v -0.01391477 -0.06610000 0.02842706
v -0.01435517 -0.06610000 0.02891813
v -0.01490767 -0.06610000 0.02927849
v -0.01552875 -0.06605858 0.02951481
v -0.01619569 -0.06605858 0.02955109
v -0.01684929 -0.06605858 0.02941351
v -0.01744501 -0.06605858 0.02911146
v -0.01794226 -0.06605858 0.02866552
v -0.01830715 -0.06605858 0.02810607
v -0.01851481 -0.06605858 0.02747125
v -0.01855108 -0.06605858 0.02680431
v -0.01841351 -0.06605858 0.02615071
v -0.01811146 -0.06605858 0.02555499
v -0.01766551 -0.06605858 0.02505774
v -0.01710607 -0.06605858 0.02469285
v -0.01647125 -0.06605858 0.02448519
v -0.01580431 -0.06605858 0.02444892
v -0.01515071 -0.06605858 0.02458649
v -0.01455499 -0.06605858 0.02488854
v -0.01405774 -0.06605858 0.02533448
v -0.01369285 -0.06605858 0.02589393
v -0.01348519 -0.06605858 0.02652875
v -0.01344892 -0.06605858 0.02719569
v -0.01358649 -0.06605858 0.02784929
v -0.01388854 -0.06605858 0.02844501
v -0.01433448 -0.06605858 0.02894226
v -0.01489393 -0.06605858 0.02930715
v -0.01552112 -0.06602679 0.02955552
v -0.01619886 -0.06602679 0.02959238
v -0.01686304 -0.06602679 0.02945258
v -0.01746841 -0.06602679 0.02914564
v -0.01797371 -0.06602679 0.02869248
v -0.01834450 -0.06602679 0.02812398
v -0.01855552 -0.06602679 0.02747888
v -0.01859238 -0.06602679 0.02680114
v -0.01845258 -0.06602679 0.02613696
v -0.01814564 -0.06602679 0.02553159
v -0.01769248 -0.06602679 0.02502629
v -0.01712398 -0.06602679 0.02465550
v -0.01647888 -0.06602679 0.02444448
v -0.01580114 -0.06602679 0.02440762
v -0.01513696 -0.06602679 0.02454742
v -0.01453159 -0.06602679 0.02485436
v -0.01402629 -0.06602679 0.02530752
v -0.01365550 -0.06602679 0.02587602
v -0.01344448 -0.06602679 0.02652112
v -0.01340762 -0.06602679 0.02719886
v -0.01354742 -0.06602679 0.02786304
v -0.01385436 -0.06602679 0.02846841
v -0.01430752 -0.06602679 0.02897371
v -0.01487602 -0.06602679 0.02934450
v -0.01551224 -0.06600682 0.02960293
v -0.01620255 -0.06600682 0.02964048
v -0.01687905 -0.06600682 0.02949808
v -0.01749565 -0.06600682 0.02918545
v -0.01801032 -0.06600682 0.02872388
v -0.01838800 -0.06600682 0.02814483
v -0.01860293 -0.06600682 0.02748776
v -0.01864048 -0.06600682 0.02679745
v -0.01849808 -0.06600682 0.02612095
v -0.01818545 -0.06600682 0.02550435
v -0.01772388 -0.06600682 0.02498968
v -0.01714483 -0.06600682 0.02461200
v -0.01648776 -0.06600682 0.02439707
v -0.01579745 -0.06600682 0.02435952
v -0.01512095 -0.06600682 0.02450192
v -0.01450435 -0.06600682 0.02481455
v -0.01398968 -0.06600682 0.02527612
v -0.01361200 -0.06600682 0.02585517
v -0.01339707 -0.06600682 0.02651224
v -0.01335952 -0.06600682 0.02720255
v -0.01350192 -0.06600682 0.02787905
v -0.01381455 -0.06600682 0.02849565
v -0.01427612 -0.06600682 0.02901032
v -0.01485517 -0.06600682 0.02938800
v -0.01521722 -0.06600000 0.03117729
v -0.01632505 -0.06600000 0.03123755
v -0.01416273 -0.06600000 0.03083235
v -0.01741074 -0.06600000 0.03100903
v -0.01216765 -0.06600000 0.02516273
v -0.01182271 -0.06600000 0.02621722
v -0.01199097 -0.06600000 0.02841074
v -0.01249270 -0.06600000 0.02940028
v -0.01323345 -0.06600000 0.03022625
v -0.01176245 -0.06600000 0.02732505
v -0.02017729 -0.06600000 0.02778278
v -0.02023755 -0.06600000 0.02667494
v -0.01840028 -0.06600000 0.03050730
v -0.01983235 -0.06600000 0.02883727
v -0.02000903 -0.06600000 0.02558926
v -0.01950730 -0.06600000 0.02459972
v -0.01876655 -0.06600000 0.02377375
v -0.01458926 -0.06600000 0.02299097
v -0.01359972 -0.06600000 0.02349270
v -0.01922625 -0.06600000 0.02976655
v -0.01783727 -0.06600000 0.02316765
v -0.01678278 -0.06600000 0.02282271
v -0.01567494 -0.06600000 0.02276245
v -0.01277375 -0.06600000 0.02423345
v -0.01783727 -0.06125000 0.02316765
v -0.01876655 -0.06125000 0.02377375
v -0.01950730 -0.06125000 0.02459972
v -0.02000903 -0.06125000 0.02558926
v -0.02023755 -0.06125000 0.02667494
v -0.02017729 -0.06125000 0.02778278
v -0.01983235 -0.06125000 0.02883727
v -0.01922625 -0.06125000 0.02976655
v -0.01840028 -0.06125000 0.03050730
v -0.01741074 -0.06125000 0.03100903
v -0.01632505 -0.06125000 0.03123755
v -0.01521722 -0.06125000 0.03117729
v -0.01416273 -0.06125000 0.03083235
v -0.01323345 -0.06125000 0.03022625
v -0.01249270 -0.06125000 0.02940028
v -0.01199097 -0.06125000 0.02841074
v -0.01176245 -0.06125000 0.02732505
v -0.01182271 -0.06125000 0.02621722
v -0.01216765 -0.06125000 0.02516273
v -0.01277375 -0.06125000 0.02423345
v -0.01359972 -0.06125000 0.02349270
v -0.01458926 -0.06125000 0.02299097
v -0.01567494 -0.06125000 0.02276245
v -0.01678278 -0.06125000 0.02282271
v -0.01772919 -0.06100000 0.02339308
v -0.01860381 -0.06100000 0.02396353
v -0.01930099 -0.06100000 0.02474091
v -0.01977320 -0.06100000 0.02567225
v -0.01998828 -0.06100000 0.02669406
v -0.01993157 -0.06100000 0.02773673
v -0.01960692 -0.06100000 0.02872919
v -0.01903647 -0.06100000 0.02960381
v -0.01825909 -0.06100000 0.03030099
v -0.01732775 -0.06100000 0.03077320
v -0.01630593 -0.06100000 0.03098828
v -0.01526327 -0.06100000 0.03093157
v -0.01427081 -0.06100000 0.03060692
v -0.01339619 -0.06100000 0.03003647
v -0.01269901 -0.06100000 0.02925909
v -0.01222680 -0.06100000 0.02832775
v -0.01201172 -0.06100000 0.02730593
v -0.01206843 -0.06100000 0.02626327
v -0.01239308 -0.06100000 0.02527080
v -0.01296353 -0.06100000 0.02439619
v -0.01374091 -0.06100000 0.02369901
v -0.01467225 -0.06100000 0.02322680
v -0.01569407 -0.06100000 0.02301172
v -0.01673673 -0.06100000 0.02306843
v -0.01864593 -0.06100852 0.02391441
v -0.01935438 -0.06100852 0.02470437
v -0.01983424 -0.06100852 0.02565077
v -0.02005280 -0.06100852 0.02668912
v -0.01999517 -0.06100852 0.02774865
v -0.01966527 -0.06100852 0.02875717
v -0.01908559 -0.06100852 0.02964593
v -0.01829563 -0.06100852 0.03035438
v -0.01734923 -0.06100852 0.03083424
v -0.01631088 -0.06100852 0.03105280
v -0.01525135 -0.06100852 0.03099517
v -0.01424283 -0.06100852 0.03066527
v -0.01335407 -0.06100852 0.03008559
v -0.01264562 -0.06100852 0.02929563
v -0.01216576 -0.06100852 0.02834923
v -0.01194720 -0.06100852 0.02731088
v -0.01200483 -0.06100852 0.02625135
v -0.01233473 -0.06100852 0.02524283
v -0.01291441 -0.06100852 0.02435407
v -0.01370437 -0.06100852 0.02364562
v -0.01465077 -0.06100852 0.02316576
v -0.01568912 -0.06100852 0.02294720
v -0.01674865 -0.06100852 0.02300484
v -0.01775717 -0.06100852 0.02333473
v -0.01868518 -0.06103349 0.02386864
v -0.01940414 -0.06103349 0.02467031
v -0.01989112 -0.06103349 0.02563075
v -0.02011292 -0.06103349 0.02668451
v -0.02005443 -0.06103349 0.02775976
v -0.01971964 -0.06103349 0.02878323
v -0.01913136 -0.06103349 0.02968518
v -0.01832969 -0.06103349 0.03040414
v -0.01736925 -0.06103349 0.03089112
v -0.01631550 -0.06103349 0.03111292
v -0.01524024 -0.06103349 0.03105443
v -0.01421677 -0.06103349 0.03071964
v -0.01331482 -0.06103349 0.03013136
v -0.01259586 -0.06103349 0.02932969
v -0.01210888 -0.06103349 0.02836925
v -0.01188708 -0.06103349 0.02731550
v -0.01194557 -0.06103349 0.02624024
v -0.01228036 -0.06103349 0.02521677
v -0.01286864 -0.06103349 0.02431482
v -0.01367032 -0.06103349 0.02359586
v -0.01463075 -0.06103349 0.02310888
v -0.01568451 -0.06103349 0.02288708
v -0.01675976 -0.06103349 0.02294557
v -0.01778323 -0.06103349 0.02328036
v -0.01871889 -0.06107322 0.02382934
v -0.01944687 -0.06107322 0.02464107
v -0.01993996 -0.06107322 0.02561357
v -0.02016454 -0.06107322 0.02668055
v -0.02010532 -0.06107322 0.02776929
v -0.01976633 -0.06107322 0.02880562
v -0.01917066 -0.06107322 0.02971889
v -0.01835893 -0.06107322 0.03044687
v -0.01738643 -0.06107322 0.03093996
v -0.01631946 -0.06107322 0.03116454
v -0.01523071 -0.06107322 0.03110532
v -0.01419439 -0.06107322 0.03076633
v -0.01328111 -0.06107322 0.03017066
v -0.01255313 -0.06107322 0.02935893
v -0.01206004 -0.06107322 0.02838643
v -0.01183546 -0.06107322 0.02731946
v -0.01189468 -0.06107322 0.02623071
v -0.01223367 -0.06107322 0.02519438
v -0.01282934 -0.06107322 0.02428111
v -0.01364107 -0.06107322 0.02355313
v -0.01461357 -0.06107322 0.02306004
v -0.01568055 -0.06107322 0.02283546
v -0.01676929 -0.06107322 0.02289468
v -0.01780562 -0.06107322 0.02323367
v -0.01874475 -0.06112500 0.02379918
v -0.01947966 -0.06112500 0.02461863
v -0.01997744 -0.06112500 0.02560038
v -0.02020415 -0.06112500 0.02667751
v -0.02014437 -0.06112500 0.02777661
v -0.01980215 -0.06112500 0.02882279
v -0.01920082 -0.06112500 0.02974475
v -0.01838136 -0.06112500 0.03047966
v -0.01739962 -0.06112500 0.03097744
v -0.01632249 -0.06112500 0.03120415
v -0.01522339 -0.06112500 0.03114437
v -0.01417721 -0.06112500 0.03080215
v -0.01325525 -0.06112500 0.03020082
v -0.01252034 -0.06112500 0.02938136
v -0.01202257 -0.06112500 0.02839962
v -0.01179584 -0.06112500 0.02732249
v -0.01185563 -0.06112500 0.02622339
v -0.01219785 -0.06112500 0.02517721
v -0.01279918 -0.06112500 0.02425525
v -0.01361864 -0.06112500 0.02352034
v -0.01460038 -0.06112500 0.02302257
v -0.01567751 -0.06112500 0.02279584
v -0.01677661 -0.06112500 0.02285563
v -0.01782279 -0.06112500 0.02319785
v -0.01876101 -0.06118530 0.02378022
v -0.01950027 -0.06118530 0.02460453
v -0.02000099 -0.06118530 0.02559209
v -0.02022906 -0.06118530 0.02667560
v -0.02016892 -0.06118530 0.02778121
v -0.01982467 -0.06118530 0.02883359
v -0.01921978 -0.06118530 0.02976101
v -0.01839547 -0.06118530 0.03050027
v -0.01740791 -0.06118530 0.03100099
v -0.01632440 -0.06118530 0.03122906
v -0.01521879 -0.06118530 0.03116892
v -0.01416641 -0.06118530 0.03082467
v -0.01323899 -0.06118530 0.03021978
v -0.01249973 -0.06118530 0.02939547
v -0.01199901 -0.06118530 0.02840791
v -0.01177094 -0.06118530 0.02732440
v -0.01183108 -0.06118530 0.02621879
v -0.01217533 -0.06118530 0.02516641
v -0.01278022 -0.06118530 0.02423899
v -0.01360453 -0.06118530 0.02349973
v -0.01459209 -0.06118530 0.02299901
v -0.01567560 -0.06118530 0.02277094
v -0.01678121 -0.06118530 0.02283108
v -0.01783359 -0.06118530 0.02317533
v -0.01405415 -0.06100000 0.02833167
v -0.01618034 -0.06100000 0.02935099
v -0.01581966 -0.06100000 0.02464901
v -0.01387381 -0.06100000 0.02598068
v -0.01812619 -0.06100000 0.02801932
v -0.01794585 -0.06100000 0.02566832
v -0.01484674 -0.06350000 0.02531485
v -0.01581966 -0.06350000 0.02464901
v -0.01387381 -0.06350000 0.02598068
v -0.01396398 -0.06350000 0.02715618
v -0.01405415 -0.06350000 0.02833167
v -0.01511725 -0.06350000 0.02884133
v -0.01618034 -0.06350000 0.02935099
v -0.01688275 -0.06350000 0.02515867
v -0.01794585 -0.06350000 0.02566832
v -0.01715326 -0.06350000 0.02868515
v -0.01812619 -0.06350000 0.02801932
v -0.01803602 -0.06350000 0.02684382
v -0.01415867 -0.06350000 0.02611725
v -0.01399293 -0.06350000 0.02662390
v -0.01444988 -0.06350000 0.02567075
v -0.01637610 -0.06350000 0.02499294
v -0.01584382 -0.06350000 0.02496398
v -0.01532218 -0.06350000 0.02507378
v -0.01407378 -0.06350000 0.02767782
v -0.01431485 -0.06350000 0.02815326
v -0.01467075 -0.06350000 0.02855012
v -0.01562390 -0.06350000 0.02900707
v -0.01615618 -0.06350000 0.02903602
v -0.01667782 -0.06350000 0.02892622
v -0.01755012 -0.06350000 0.02832925
v -0.01784133 -0.06350000 0.02788275
v -0.01800707 -0.06350000 0.02737610
v -0.01792622 -0.06350000 0.02632218
v -0.01768515 -0.06350000 0.02584673
v -0.01732925 -0.06350000 0.02544988
v -0.01600000 -0.06467895 0.02700000
vt 6.28318548 -0.06130500
vt 3.92699075 -0.00000000
vt 6.54498482 -1.83259571
vt 6.02138615 0.00044500
vt 1.04719758 0.52359879
vt 0.00260800 -0.00494881
vt 6.02138615 0.00000000
vt 4.71238899 -2.09439516
vt 0.26179940 1.04719758
vt -0.00117895 -0.00000000
vt 0.00103528 -0.00386370
vt 0.78539819 -1.83259571
vt -0.00386370 -0.00103528
vt 3.66519141 -1.83259571
vt 3.14159274 -0.06130500
vt 1.70169604 -0.00117895
vt 2.87979317 -0.00000000
vt 0.26179940 0.00000000
vt 5.49778700 1.04719758
vt 1.30899692 -0.03200000
vt 1.57079637 0.00000000
vt -0.00135000 -0.00658827
vt 2.09439516 0.00000000
vt 0.52359879 0.00000000
vt 3.14159274 -0.03695000
vt -0.00300520 -0.00725520
vt 3.66519141 0.78539819
vt 1.04719758 0.00044500
vt 3.66519141 1.57079637
vt -0.00027358 -0.00455785
vt 0.00000000 0.00235790
vt 5.49778700 -0.03675000
vt -0.00059809 -0.00498076
vt -0.00204200 0.00117895
vt 4.18879032 0.78539819
vt 0.52359879 -2.09439516
vt 6.02138615 -3.14159274
vt 2.61799383 -0.03695000
vt 3.66519141 -2.35619450
vt -0.00198498 -0.00258687
vt 4.45058966 -2.35619450
vt 0.26179940 0.52359879
vt 5.75958633 0.00044500
vt 5.75958633 0.00000000
vt 1.30899692 0.00000000
vt 0.52359879 -0.03200000
vt -0.00204200 -0.00557885
vt -0.00069881 -0.00164200
vt -0.00212500 -0.00793061
vt 2.09439516 0.00000000
vt -0.00346410 0.00200000
vt -0.00151349 -0.00156443
vt 2.09439516 0.26179940
vt 0.26179940 -0.03200000
vt 4.97418833 -1.57079637
vt -0.00205500 -0.00205500
vt 0.00300520 -0.00124480
vt 3.92699075 -0.03695000
vt 0.78539819 1.30899692
vt 6.28318548 0.26179940
vt 0.00000000 0.00000000
vt 6.54498482 -2.61799383
vt 1.04719758 -3.14159274
vt 0.00400000 0.00000000
vt 4.71238899 -1.83259571
vt 0.39269909 -0.00117895
vt 3.01069307 -0.00117895
vt 0.78539819 0.52359879
vt 4.45058966 0.52359879
vt 6.02138615 -1.83259571
vt 3.14159274 0.00044500
vt 3.53429174 -0.00117895
vt 6.28318548 0.00000000
vt -0.00102750 -0.00383468
vt 3.66519141 -1.57079637
vt -0.00117895 0.00000000
vt 0.78539819 -1.57079637
vt -0.00103528 0.00386370
vt 0.26179940 -2.87979317
vt 4.45058966 -0.06130500
vt -0.00386370 0.00103528
vt 1.57079637 -0.03675000
vt 6.02138615 -1.57079637
vt 4.71238899 -0.00000000
vt 4.71238899 1.57079637
vt 6.54498482 -1.57079637
vt 1.04719758 1.57079637
vt -0.00260800 -0.00355119
vt 6.02138615 0.52359879
vt 1.04719758 -0.03200000
vt 3.40339208 -0.03675000
vt 0.00200000 0.00346410
vt -0.00257051 -0.00156443
vt 0.00233827 -0.00560000
vt 6.54498482 1.04719758
vt 0.52359879 -0.06130500
vt 0.00000000 1.30899692
vt 5.75958633 -2.87979317
vt 6.28318548 0.00000000
vt 5.49778700 -0.00000000
vt 6.02138615 -2.61799383
vt 5.49778700 -0.06130500
vt 0.00000000 -0.00850000
vt 5.75958633 -0.03200000
vt 0.52359879 -0.00000000
vt 5.49778700 0.00000000
vt 0.00000000 0.00044500
vt 0.13089970 -0.00117895
vt 0.26179940 0.26179940
vt 2.09439516 -0.03200000
vt 6.02138615 -2.35619450
vt -0.00235790 -0.00250000
vt 0.00282843 -0.00282843
vt 3.66519141 -3.14159274
vt 0.00190919 -0.00234081
vt 4.18879032 -3.14159274
vt 1.83259571 0.78539819
vt 2.61799383 1.57079637
vt 1.57079637 -1.57079637
vt 2.09439516 -2.09439516
vt 1.30899692 -0.03695000
vt 3.14159274 -0.03200000
vt 0.00000000 -0.00235790
vt 5.49778700 0.78539819
vt 3.66519141 -0.03675000
vt 4.97418833 0.00044500
vt -0.00177968 -0.00102750
vt -0.00235790 -0.00000000
vt 0.26179940 0.00000000
vt 3.92699075 0.00000000
vt 1.57079637 0.00000000
vt 1.83259571 -1.83259571
vt -0.00235790 -0.00000000
vt 4.05789042 -0.00117895
vt 5.75958633 0.26179940
vt 6.54498482 -0.06130500
vt 5.89048624 -0.00117895
vt 0.00386370 -0.00103528
vt 0.78539819 0.00000000
vt 2.35619450 -0.03695000
vt 3.92699075 0.26179940
vt 1.04719758 0.78539819
vt 6.28318548 0.00044500
vt 0.26179940 -2.61799383
vt 3.66519141 0.00044500
vt -0.00117895 0.00000000
vt 3.66519141 -2.61799383
vt 0.00103528 0.00386370
vt 2.35619450 -2.61799383
vt 2.87979317 -0.03695000
vt 5.49778700 -2.87979317
vt 2.48709416 -0.00117895
vt 3.40339208 0.00000000
vt -0.00000000 -0.00250000
vt 2.09439516 0.00044500
vt 5.23598766 -0.03200000
vt -0.00000000 -0.00250000
vt 3.14159274 0.26179940
vt 0.78539819 -2.35619450
vt 3.40339208 -1.57079637
vt 0.00135000 -0.00658827
vt 4.71238899 1.04719758
vt 6.28318548 -3.14159274
vt 4.71238899 -2.87979317
vt 6.02138615 -2.87979317
vt 4.71238899 -0.03675000
vt 3.14159274 -0.00000000
vt 3.92699075 -2.35619450
vt 0.00000000 1.04719758
vt 2.74889350 -0.00117895
vt 3.40339208 1.30899692
vt 4.71238899 -3.14159274
vt 1.57079637 0.00044500
vt 6.28318548 -2.61799383
vt 1.83259571 0.00000000
vt 0.52359879 -1.57079637
vt 3.40339208 -2.61799383
vt 0.00198498 -0.00258687
vt 3.92699075 -0.06130500
vt 3.66519141 -0.03200000
vt 6.28318548 1.30899692
vt 4.97418833 0.26179940
vt -0.00102750 -0.00027532
vt 0.00177968 -0.00308250
vt 1.17809725 -0.00117895
vt 0.78539819 -0.06130500
vt 1.83259571 -3.14159274
vt 3.14159274 -2.87979317
vt 3.92699075 0.52359879
vt 3.66519141 -0.06130500
vt -0.00204200 -0.00589475
vt 5.23598766 -0.00000000
vt 5.49778700 -3.14159274
vt 0.52359879 1.30899692
vt 0.00368061 -0.00637500
vt 0.00282843 0.00282843
vt 6.02138615 0.26179940
vt 1.04719758 -0.00000000
vt 3.40339208 -2.87979317
vt 0.00109998 -0.00835518
vt 0.00053187 -0.00007002
vt 2.61799383 -0.03675000
vt 2.61799383 -0.00000000
vt 0.52359879 1.04719758
vt 6.28318548 -1.57079637
vt 0.26179940 -1.83259571
vt 4.97418833 -0.06130500
vt 5.23598766 0.00044500
vt 5.75958633 -0.03675000
vt 6.02138615 1.30899692
vt 3.66519141 1.30899692
vt 4.71238899 -0.03200000
vt 2.09439516 1.04719758
vt 0.00204200 -0.00117895
vt 0.91629785 -0.00117895
vt -0.00200000 -0.00346410
vt 1.04719758 -1.57079637
vt 4.45058966 -0.03695000
vt 2.35619450 1.57079637
vt 5.10508823 -0.00117895
vt 3.14159274 -2.35619450
vt 2.35619450 0.00000000
vt 1.30899692 0.78539819
vt 0.52359879 -3.14159274
vt 0.00346410 0.00200000
vt 4.45058966 1.04719758
vt 4.18879032 -0.00000000
vt 1.04719758 -2.87979317
vt 2.87979317 1.04719758
vt -0.00135000 -0.00191173
vt 5.23598766 -0.03675000
vt -0.00235790 0.00000000
vt 1.04719758 1.04719758
vt 3.40339208 0.00044500
vt -0.00204200 -0.00149485
vt 0.52359879 0.26179940
vt 0.00233827 -0.00290000
vt 5.49778700 -0.03200000
vt 0.78539819 -3.14159274
vt 4.71238899 -0.06130500
vt -0.00102100 -0.00530527
vt 1.30899692 1.57079637
vt 2.87979317 1.30899692
vt 5.23598766 -3.14159274
vt 1.83259571 -0.03695000
vt 4.45058966 -2.61799383
vt 6.15228558 -0.00117895
vt -0.00260800 -0.00494881
vt 1.83259571 0.52359879
vt 2.61799383 -2.61799383
vt 6.28318548 0.78539819
vt 6.54498482 0.52359879
vt 1.83259571 -0.06130500
vt 0.00205500 -0.00205500
vt 4.45058966 0.26179940
vt 4.97418833 0.78539819
vt 5.75958633 0.78539819
vt 4.71238899 -2.35619450
vt 3.14159274 -1.57079637
vt 4.45058966 0.00044500
vt 2.61799383 0.00000000
vt 3.66519141 0.00000000
vt 1.57079637 1.30899692
vt 4.71238899 0.78539819
vt 0.78539819 0.00044500
vt 1.83259571 -0.03675000
vt 0.52359879 -0.03675000
vt 3.40339208 1.04719758
vt 5.49778700 -2.35619450
vt 0.00260800 -0.00355119
vt -0.00257051 -0.00550927
vt 0.00000000 0.00000000
vt 6.54498482 -2.87979317
vt 0.00000000 0.78539819
vt 5.23598766 -1.57079637
vt 4.45058966 -0.03675000
vt 4.97418833 -0.03695000
vt 4.84328890 -0.00117895
vt 1.83259571 -2.09439516
vt -0.00000000 -0.00400000
vt 6.28318548 -0.03675000
vt 4.71238899 -2.61799383
vt -0.00000000 -0.03200000
vt 4.97418833 1.30899692
vt 0.00000000 -0.00411000
vt 1.04719758 -2.61799383
vt 5.75958633 -2.61799383
vt 4.45058966 -2.09439516
vt 4.97418833 -2.61799383
vt 6.02138615 1.04719758
vt 1.30899692 -3.14159274
vt 0.52359879 0.78539819
vt 6.02138615 -0.03695000
vt 2.87979317 0.00000000
vt 6.54498482 0.26179940
vt 0.00000000 -0.00205500
vt 4.71238899 -0.03695000
vt -0.00212500 -0.00056939
vt 0.00200000 -0.00346410
vt 5.23598766 -2.35619450
vt 3.92699075 -1.83259571
vt 0.78539819 0.78539819
vt 0.78539819 1.57079637
vt 4.45058966 -0.03200000
vt -0.00200000 0.00346410
vt 0.78539819 -0.03200000
vt 5.23598766 0.78539819
vt 0.00000000 1.57079637
vt 5.23598766 1.57079637
vt 2.35619450 -3.14159274
vt 6.54498482 1.30899692
vt 0.00300520 -0.00725520
vt 1.30899692 1.04719758
vt 1.30899692 -2.61799383
vt 4.18879032 -0.03675000
vt 1.83259571 1.30899692
vt -0.00151349 -0.00550927
vt 2.87979317 0.26179940
vt 3.66519141 0.00000000
vt 2.61799383 0.00000000
vt 4.97418833 -3.14159274
vt 5.75958633 -3.14159274
vt 3.14159274 0.00000000
vt 0.26179940 -0.06130500
vt 4.97418833 -1.83259571
vt 0.78539819 0.00000000
vt -0.00410518 -0.00315002
vt 0.26179940 -0.03675000
vt 3.92699075 0.00000000
vt 1.57079637 -2.87979317
vt 3.14159274 -1.83259571
vt 5.36688757 -0.00117895
vt 2.61799383 1.04719758
vt 6.28318548 1.04719758
vt 3.40339208 -0.00000000
vt 0.00145310 -0.00350810
vt 1.43989658 -0.00117895
vt 0.00000000 0.26179940
vt 2.35619450 -0.06130500
vt 2.87979317 -2.35619450
vt 1.30899692 -1.57079637
vt 6.02138615 -2.09439516
vt 4.18879032 -0.03200000
vt -0.00053187 -0.00007002
vt 0.00109998 -0.00014482
vt 2.09439516 -1.57079637
vt 1.83259571 1.57079637
vt 0.00212500 -0.00056939
vt 3.66519141 0.26179940
vt 1.30899692 0.52359879
vt 2.87979317 -2.61799383
vt 3.79609108 -0.00117895
vt 2.87979317 -2.87979317
vt 1.57079637 -0.00000000
vt 3.14159274 1.57079637
vt 1.30899692 -0.06130500
vt -0.00117895 -0.00000000
vt 3.40339208 0.78539819
vt 2.35619450 -1.57079637
vt 4.18879032 -2.09439516
vt -0.00306300 -0.00176842
vt 2.09439516 -0.06130500
vt 1.04719758 1.30899692
vt 1.04719758 0.00000000
vt 5.49778700 0.52359879
vt -0.00425000 -0.00425000
vt 5.23598766 0.00000000
vt 6.28318548 1.57079637
vt 1.30899692 -2.35619450
vt 2.87979317 -1.57079637
vt 1.57079637 -2.61799383
vt 3.66519141 -2.87979317
vt -0.00408400 -0.00235790
vt 6.02138615 0.00000000
vt 6.28318548 -0.03200000
vt 0.00410518 -0.00315002
vt 4.71238899 0.52359879
vt 4.97418833 1.57079637
vt 3.92699075 -2.09439516
vt 4.45058966 -1.83259571
vt 2.35619450 -2.35619450
vt 3.40339208 -0.03695000
vt 3.66519141 -2.09439516
vt 2.09439516 -0.03675000
vt 4.18879032 -2.61799383
vt -0.00408400 -0.00353685
vt 1.57079637 -2.35619450
vt 2.35619450 0.78539819
vt 2.09439516 -2.87979317
vt 0.00000000 0.52359879
vt 4.97418833 -2.35619450
vt 4.18879032 0.00044500
vt 0.00212500 -0.00793061
vt 1.83259571 0.00044500
vt 0.00410518 -0.00534998
vt 6.28318548 -2.87979317
vt -0.00000000 -0.00471580
vt 0.00000000 -0.00155000
vt 0.78539819 -0.03675000
vt 0.26179940 -0.03695000
vt 3.92699075 -0.03200000
vt 4.18879032 0.26179940
vt -0.00235790 0.00000000
vt 0.00145310 -0.00060190
vt 0.52359879 -1.83259571
vt 6.54498482 -0.03675000
vt -0.00270000 -0.00425000
vt -0.00408400 -0.00471580
vt 2.35619450 0.00000000
vt 5.23598766 1.30899692
vt 1.30899692 -2.09439516
vt -0.00346410 -0.00200000
vt 1.57079637 0.52359879
vt 0.00000000 -0.00250000
vt 1.57079637 1.57079637
vt 4.18879032 -1.83259571
vt -0.00000000 -0.00250000
vt 2.61799383 1.30899692
vt 0.26179940 1.57079637
vt 1.57079637 -0.03200000
vt 1.30899692 -0.00000000
vt 2.22529483 -0.00117895
vt 6.02138615 -0.00000000
vt 5.49778700 -2.61799383
vt 6.02138615 -0.03675000
vt -0.00282843 0.00282843
vt 5.23598766 -0.06130500
vt 2.61799383 0.26179940
vt 4.18879032 -2.87979317
vt -0.00368061 -0.00637500
vt 0.00346410 -0.00200000
vt -0.00348591 -0.00498076
vt 3.66519141 1.04719758
vt 3.40339208 -3.14159274
vt 5.23598766 0.52359879
vt 2.35619450 -0.00000000
vt 2.87979317 0.00044500
vt 2.87979317 0.52359879
vt 1.04719758 -2.09439516
vt 5.49778700 -0.03695000
vt 4.45058966 -1.57079637
vt -0.00103528 -0.00386370
vt 0.00000000 -0.00235790
vt 4.97418833 -0.00000000
vt 0.00000000 -0.00695000
vt 4.31968975 -0.00117895
vt 2.61799383 -0.06130500
vt 1.83259571 1.04719758
vt 4.97418833 -2.09439516
vt -0.00059809 -0.00209294
vt 0.00000000 0.00400000
vt -0.00109998 -0.00835518
vt 5.75958633 -0.00000000
vt 2.61799383 -2.87979317
vt 2.87979317 -1.83259571
vt 4.18879032 -1.57079637
vt 1.83259571 -1.57079637
vt -0.00235790 0.00000000
vt 1.57079637 -3.14159274
vt 0.00102750 -0.00383468
vt 3.14159274 -0.00000000
vt 0.00053187 -0.00403998
vt -0.00233827 -0.00560000
vt 0.00102750 -0.00027532
vt 3.14159274 -2.09439516
vt 5.75958633 -0.06130500
vt 4.97418833 -0.03675000
vt 0.00000000 -0.03695000
vt 2.35619450 -1.83259571
vt 2.09439516 1.57079637
vt 3.14159274 0.52359879
vt 4.45058966 -3.14159274
vt 5.23598766 -2.61799383
vt 0.00177968 -0.00102750
vt 0.00270000 -0.00425000
vt -0.00006958 -0.00406536
vt 2.35619450 1.04719758
vt 5.49778700 0.26179940
vt -0.00368061 -0.00212500
vt 2.09439516 0.52359879
vt 1.83259571 -2.35619450
vt 1.30899692 -1.83259571
vt 4.97418833 0.52359879
vt 5.75958633 -0.03695000
vt 5.75958633 0.52359879
vt 0.52359879 -2.61799383
vt 5.23598766 -0.03695000
vt 1.04719758 -2.35619450
vt 0.78539819 0.26179940
vt 3.40339208 -2.35619450
vt 0.00000000 -0.00353685
vt 4.71238899 0.26179940
vt 4.45058966 0.00000000
vt 3.14159274 1.04719758
vt 1.83259571 -2.87979317
vt 2.87979317 0.00000000
vt -0.00300520 -0.00124480
vt 6.02138615 -0.03200000
vt -0.00233827 -0.00290000
vt 2.87979317 1.57079637
vt 6.02138615 1.57079637
vt 0.26179940 1.30899692
vt 2.35619450 0.52359879
vt -0.00109998 -0.00014482
vt 3.14159274 -3.14159274
vt 6.28318548 0.00000000
vt 0.52359879 -2.35619450
vt 2.61799383 -2.35619450
vt 0.00069881 -0.00164200
vt 0.00190919 -0.00615919
vt 1.30899692 0.00044500
vt -0.00190919 -0.00615919
vt 6.54498482 -0.00000000
vt 4.71238899 -1.57079637
vt 4.18879032 0.52359879
vt 0.78539819 -2.87979317
vt 1.96349537 -0.00117895
vt 3.40339208 0.00000000
vt 1.83259571 -0.00000000
vt -0.00348591 -0.00209294
vt 2.09439516 -1.83259571
vt 3.92699075 -2.87979317
vt 0.00198498 -0.00152313
vt 4.97418833 0.00000000
vt 1.83259571 0.26179940
vt 1.57079637 0.78539819
vt 3.40339208 0.26179940
vt 2.35619450 0.00044500
vt 0.52359879 0.52359879
vt 6.28318548 -2.09439516
vt 2.61799383 0.52359879
vt 4.18879032 0.00000000
vt 2.09439516 -2.61799383
vt 4.18879032 -0.06130500
vt 5.75958633 1.57079637
vt 4.18879032 -2.35619450
vt 2.61799383 -1.57079637
vt 0.26179940 0.00044500
vt 0.65449846 -0.00117895
vt 4.45058966 0.78539819
vt 3.92699075 1.57079637
vt -0.00198498 -0.00152313
vt -0.00401442 -0.00300834
vt 2.87979317 0.78539819
vt 3.40339208 -2.09439516
vt 4.18879032 -0.00000000
vt 3.14159274 -2.61799383
vt 2.61799383 -1.83259571
vt 2.61799383 -0.03200000
vt 2.09439516 -0.03695000
vt 3.92699075 -1.57079637
vt 2.09439516 -0.00000000
vt -0.00069881 -0.00685800
vt -0.00306300 -0.00530527
vt -0.00102100 -0.00176842
vt 1.57079637 -0.06130500
vt 4.58148909 -0.00117895
vt 0.00386370 0.00103528
vt 4.45058966 -0.00000000
vt 1.30899692 0.00000000
vt 5.62868690 -0.00117895
vt 0.78539819 -0.00000000
vt 0.26179940 -3.14159274
vt 2.35619450 -2.09439516
vt 3.66519141 -0.03695000
vt 5.75958633 1.04719758
vt 0.78539819 -0.03695000
vt 5.49778700 0.00000000
vt 3.92699075 1.30899692
vt 0.00368061 -0.00212500
vt 4.97418833 -2.87979317
vt 1.57079637 -2.09439516
vt 0.26179940 -2.09439516
vt 3.92699075 -2.61799383
vt 2.61799383 -3.14159274
vt -0.00381042 -0.00251585
vt 3.92699075 1.04719758
vt 3.40339208 -0.06130500
vt 2.35619450 -0.03200000
vt 0.00425000 -0.00425000
vt 4.71238899 0.00000000
vt 3.14159274 0.78539819
vt -0.00027358 -0.00251585
vt 5.23598766 -1.83259571
vt 0.78539819 -2.61799383
vt 3.40339208 0.52359879
vt 2.87979317 -0.03675000
vt 6.28318548 -2.35619450
vt 5.75958633 -1.83259571
vt -0.00053187 -0.00403998
vt 1.04719758 -1.83259571
vt 3.92699075 -3.14159274
vt 0.00135000 -0.00191173
vt 2.09439516 0.78539819
vt 5.49778700 -2.09439516
vt 2.35619450 -2.87979317
vt 2.35619450 -0.03675000
vt 0.26179940 -1.57079637
vt 2.61799383 0.00044500
vt 2.09439516 -2.35619450
vt 4.97418833 -0.03200000
vt 5.23598766 -0.00000000
vt 0.00204200 0.00117895
vt 1.04719758 0.26179940
vt 6.28318548 -1.83259571
vt 5.75958633 -2.35619450
vt -0.00204200 -0.00117895
vt 6.02138615 -0.06130500
vt 1.30899692 -2.87979317
vt 2.87979317 -0.06130500
vt 1.83259571 -0.03200000
vt 0.52359879 -2.87979317
vt 1.57079637 -0.03695000
vt 1.57079637 1.04719758
vt 1.30899692 -0.03675000
vt 3.14159274 1.30899692
vt 3.92699075 0.00044500
vt 4.97418833 0.00000000
vt 2.87979317 -3.14159274
vt 0.00000000 -0.00000000
vt 2.35619450 0.26179940
vt 3.66519141 0.52359879
vt 3.92699075 -0.03675000
vt 4.45058966 -2.87979317
vt 0.26179940 -2.35619450
vt 4.97418833 1.04719758
vt 5.23598766 1.04719758
vt 0.52359879 1.57079637
vt 0.26179940 0.78539819
vt 6.54498482 -3.14159274
vt -0.00145310 -0.00060190
vt -0.00400000 -0.00000000
vt 1.30899692 0.26179940
vt 4.71238899 1.30899692
vt 5.49778700 -1.83259571
vt 5.49778700 -1.57079637
vt -0.00190919 -0.00234081
vt 0.78539819 -2.09439516
vt 5.75958633 -2.09439516
vt -0.00381042 -0.00455785
vt 2.61799383 0.78539819
vt 6.54498482 -2.09439516
vt 4.45058966 1.57079637
vt 2.87979317 -0.03200000
vt 4.45058966 1.30899692
vt 5.49778700 1.30899692
vt 0.00069881 -0.00685800
vt 0.52359879 0.00000000
vt -0.00282843 -0.00282843
vt 1.83259571 -2.61799383
vt 4.18879032 1.04719758
vt 5.49778700 1.57079637
vt -0.00145310 -0.00350810
vt 6.54498482 0.00000000
vt 4.18879032 -0.03695000
vt 3.92699075 0.78539819
vt -0.00177968 -0.00308250
vt 4.18879032 1.30899692
vt 2.87979317 -2.09439516
vt 2.09439516 -3.14159274
vt 0.00000000 -0.00250000
vt -0.00006958 -0.00300834
vt 1.30899692 1.30899692
vt 5.23598766 -2.09439516
vt -0.00410518 -0.00534998
vt 3.14159274 -0.03675000
vt 6.02138615 0.78539819
vt 0.52359879 -0.03695000
vt 4.45058966 0.00000000
vt 4.71238899 0.00000000
vt 2.35619450 1.30899692
vt 0.78539819 1.04719758
vt 5.23598766 -2.87979317
vt -0.00401442 -0.00406536
vt 1.83259571 0.00000000
vt 1.57079637 -1.83259571
vt 4.71238899 0.00044500
vt 3.40339208 -1.83259571
vt 4.18879032 1.57079637
vt 5.75958633 0.00000000
vt -0.00117895 0.00000000
vt 5.75958633 -1.57079637
vt 6.28318548 -0.03695000
vt 3.27249241 -0.00117895
vt 0.26179940 -0.00000000
vt 2.09439516 1.30899692
vt 6.54498482 -2.35619450
vt 1.04719758 -0.06130500
vt 1.57079637 0.26179940
vt 5.49778700 0.00044500
vt 0.00000000 -0.00000000
vt 1.04719758 -0.03675000
vt 3.40339208 -0.03200000
vt 5.75958633 1.30899692
vt 1.04719758 0.00000000
vt 0.52359879 0.00044500
vt 6.28318548 0.52359879
vt 1.04719758 -0.03695000
vt 3.40339208 1.57079637
vt 2.61799383 -2.09439516
vt 6.54498482 0.78539819
vt 3.66519141 -0.00000000
vt 5.23598766 0.26179940
usemtl Nobel
f 446/1 445/2 444/3
f 423/4 445/2 446/5
f 446/6 427/7 442/8
f 443/9 427/7 446/10
f 444/3 443/9 446/11
f 446/12 440/13 425/14
f 441/15 440/13 446/16
f 442/8 441/15 446/17
f 446/18 438/19 437/20
f 439/21 438/19 446/22
f 425/14 439/21 446/23
f 446/24 436/25 435/26
f 421/27 436/25 446/28
f 437/20 421/27 446/29
f 446/30 419/31 429/32
f 434/33 419/31 446/34
f 435/26 434/33 446/35
f 446/36 430/37 416/38
f 428/39 430/37 446/40
f 429/32 428/39 446/41
f 446/42 432/43 431/44
f 433/45 432/43 446/46
f 416/38 433/45 446/47
f 431/44 423/48 446/49
f 266/50 290/51 267/52
f 290/51 291/53 267/52
f 267/52 291/53 268/54
f 291/53 292/55 268/54
f 268/54 292/55 269/56
f 292/55 293/57 269/56
f 269/56 293/57 270/58
f 293/57 294/59 270/58
f 270/58 294/59 271/60
f 294/59 295/61 271/60
f 271/60 295/61 272/62
f 295/61 296/63 272/62
f 272/62 296/63 273/64
f 296/63 297/65 273/64
f 273/64 297/65 274/66
f 297/65 298/67 274/66
f 274/66 298/67 275/68
f 298/67 299/69 275/68
f 275/68 299/69 276/70
f 299/69 300/71 276/70
f 276/70 300/71 277/72
f 300/71 301/73 277/72
f 277/72 301/73 278/74
f 301/73 302/75 278/74
f 278/74 302/75 279/76
f 302/75 303/77 279/76
f 279/76 303/77 280/78
f 303/77 304/79 280/78
f 280/78 304/79 281/80
f 304/79 305/81 281/80
f 281/80 305/81 282/82
f 305/81 306/83 282/82
f 282/82 306/83 283/84
f 306/83 307/85 283/84
f 283/84 307/85 284/86
f 307/85 308/87 284/86
f 284/86 308/87 285/88
f 308/87 309/89 285/88
f 285/88 309/89 286/90
f 309/89 310/91 286/90
f 286/90 310/91 287/92
f 310/91 311/93 287/92
f 287/92 311/93 288/94
f 311/93 312/95 288/94
f 288/94 312/95 289/96
f 312/95 313/97 289/96
f 289/96 313/97 266/98
f 313/97 290/99 266/98
f 313/100 314/101 290/51
f 314/101 315/102 290/51
f 290/51 315/102 291/53
f 315/102 316/103 291/53
f 291/53 316/103 292/55
f 316/103 317/104 292/55
f 292/55 317/104 293/57
f 317/104 318/105 293/57
f 293/57 318/105 294/59
f 318/105 319/106 294/59
f 294/59 319/106 295/61
f 319/106 320/107 295/61
f 295/61 320/107 296/63
f 320/107 321/108 296/63
f 296/63 321/108 297/65
f 321/108 322/109 297/65
f 297/65 322/109 298/67
f 322/109 323/110 298/67
f 298/67 323/110 299/69
f 323/110 324/111 299/69
f 299/69 324/111 300/71
f 324/111 325/112 300/71
f 300/71 325/112 301/73
f 325/112 326/113 301/73
f 301/73 326/113 302/75
f 326/113 327/114 302/75
f 302/75 327/114 303/77
f 327/114 328/115 303/77
f 303/77 328/115 304/79
f 328/115 329/116 304/79
f 304/79 329/116 305/81
f 329/116 330/117 305/81
f 305/81 330/117 306/83
f 330/117 331/118 306/83
f 306/83 331/118 307/85
f 331/118 332/119 307/85
f 307/85 332/119 308/87
f 332/119 333/120 308/87
f 308/87 333/120 309/89
f 333/120 334/121 309/89
f 309/89 334/121 310/91
f 334/121 335/122 310/91
f 310/91 335/122 311/93
f 335/122 336/123 311/93
f 311/93 336/123 312/95
f 336/123 337/124 312/95
f 312/95 337/124 313/97
f 337/124 314/125 313/97
f 337/126 338/127 314/101
f 338/127 339/128 314/101
f 314/101 339/128 315/102
f 339/128 340/129 315/102
f 315/102 340/129 316/103
f 340/129 341/130 316/103
f 316/103 341/130 317/104
f 341/130 342/131 317/104
f 317/104 342/131 318/105
f 342/131 343/132 318/105
f 318/105 343/132 319/106
f 343/132 344/133 319/106
f 319/106 344/133 320/107
f 344/133 345/134 320/107
f 320/107 345/134 321/108
f 345/134 346/135 321/108
f 321/108 346/135 322/109
f 346/135 347/136 322/109
f 322/109 347/136 323/110
f 347/136 348/137 323/110
f 323/110 348/137 324/111
f 348/137 349/138 324/111
f 324/111 349/138 325/112
f 349/138 350/139 325/112
f 325/112 350/139 326/113
f 350/139 351/140 326/113
f 326/113 351/140 327/114
f 351/140 352/141 327/114
f 327/114 352/141 328/115
f 352/141 353/142 328/115
f 328/115 353/142 329/116
f 353/142 354/143 329/116
f 329/116 354/143 330/117
f 354/143 355/144 330/117
f 330/117 355/144 331/118
f 355/144 356/145 331/118
f 331/118 356/145 332/119
f 356/145 357/146 332/119
f 332/119 357/146 333/120
f 357/146 358/147 333/120
f 333/120 358/147 334/121
f 358/147 359/148 334/121
f 334/121 359/148 335/122
f 359/148 360/149 335/122
f 335/122 360/149 336/123
f 360/149 361/150 336/123
f 336/123 361/150 337/124
f 361/150 338/151 337/124
f 361/152 362/153 338/127
f 362/153 363/154 338/127
f 338/127 363/154 339/128
f 363/154 364/155 339/128
f 339/128 364/155 340/129
f 364/155 365/156 340/129
f 340/129 365/156 341/130
f 365/156 366/157 341/130
f 341/130 366/157 342/131
f 366/157 367/158 342/131
f 342/131 367/158 343/132
f 367/158 368/159 343/132
f 343/132 368/159 344/133
f 368/159 369/160 344/133
f 344/133 369/160 345/134
f 369/160 370/161 345/134
f 345/134 370/161 346/135
f 370/161 371/162 346/135
f 346/135 371/162 347/136
f 371/162 372/163 347/136
f 347/136 372/163 348/137
f 372/163 373/164 348/137
f 348/137 373/164 349/138
f 373/164 374/165 349/138
f 349/138 374/165 350/139
f 374/165 375/166 350/139
f 350/139 375/166 351/140
f 375/166 376/167 351/140
f 351/140 376/167 352/141
f 376/167 377/168 352/141
f 352/141 377/168 353/142
f 377/168 378/169 353/142
f 353/142 378/169 354/143
f 378/169 379/170 354/143
f 354/143 379/170 355/144
f 379/170 380/171 355/144
f 355/144 380/171 356/145
f 380/171 381/172 356/145
f 356/145 381/172 357/146
f 381/172 382/173 357/146
f 357/146 382/173 358/147
f 382/173 383/174 358/147
f 358/147 383/174 359/148
f 383/174 384/175 359/148
f 359/148 384/175 360/149
f 384/175 385/176 360/149
f 360/149 385/176 361/150
f 385/176 362/177 361/150
f 385/178 386/179 362/153
f 386/179 387/180 362/153
f 362/153 387/180 363/154
f 387/180 388/181 363/154
f 363/154 388/181 364/155
f 388/181 389/182 364/155
f 364/155 389/182 365/156
f 389/182 390/183 365/156
f 365/156 390/183 366/157
f 390/183 391/184 366/157
f 366/157 391/184 367/158
f 391/184 392/185 367/158
f 367/158 392/185 368/159
f 392/185 393/186 368/159
f 368/159 393/186 369/160
f 393/186 394/187 369/160
f 369/160 394/187 370/161
f 394/187 395/188 370/161
f 370/161 395/188 371/162
f 395/188 396/189 371/162
f 371/162 396/189 372/163
f 396/189 397/190 372/163
f 372/163 397/190 373/164
f 397/190 398/191 373/164
f 373/164 398/191 374/165
f 398/191 399/192 374/165
f 374/165 399/192 375/166
f 399/192 400/193 375/166
f 375/166 400/193 376/167
f 400/193 401/194 376/167
f 376/167 401/194 377/168
f 401/194 402/195 377/168
f 377/168 402/195 378/169
f 402/195 403/196 378/169
f 378/169 403/196 379/170
f 403/196 404/197 379/170
f 379/170 404/197 380/171
f 404/197 405/198 380/171
f 380/171 405/198 381/172
f 405/198 406/199 381/172
f 381/172 406/199 382/173
f 406/199 407/200 382/173
f 382/173 407/200 383/174
f 407/200 408/201 383/174
f 383/174 408/201 384/175
f 408/201 409/202 384/175
f 384/175 409/202 385/176
f 409/202 386/203 385/176
f 409/204 243/205 386/179
f 243/205 244/206 386/179
f 386/179 244/206 387/180
f 244/206 245/207 387/180
f 387/180 245/207 388/181
f 245/207 246/208 388/181
f 388/181 246/208 389/182
f 246/208 247/209 389/182
f 389/182 247/209 390/183
f 247/209 248/210 390/183
f 390/183 248/210 391/184
f 248/210 249/211 391/184
f 391/184 249/211 392/185
f 249/211 250/212 392/185
f 392/185 250/212 393/186
f 250/212 251/213 393/186
f 393/186 251/213 394/187
f 251/213 252/214 394/187
f 394/187 252/214 395/188
f 252/214 253/215 395/188
f 395/188 253/215 396/189
f 253/215 254/216 396/189
f 396/189 254/216 397/190
f 254/216 255/217 397/190
f 397/190 255/217 398/191
f 255/217 256/218 398/191
f 398/191 256/218 399/192
f 256/218 257/219 399/192
f 399/192 257/219 400/193
f 257/219 258/220 400/193
f 400/193 258/220 401/194
f 258/220 259/221 401/194
f 401/194 259/221 402/195
f 259/221 260/222 402/195
f 402/195 260/222 403/196
f 260/222 261/223 403/196
f 403/196 261/223 404/197
f 261/223 262/224 404/197
f 404/197 262/224 405/198
f 262/224 263/225 405/198
f 405/198 263/225 406/199
f 263/225 264/226 406/199
f 406/199 264/226 407/200
f 264/226 265/227 407/200
f 407/200 265/227 408/201
f 265/227 242/228 408/201
f 408/201 242/228 409/202
f 242/228 243/229 409/202
f 61/230 98/231 60/232
f 98/231 99/233 60/232
f 60/232 99/233 59/234
f 99/233 100/235 59/234
f 59/234 100/235 58/236
f 100/235 101/237 58/236
f 58/236 101/237 57/238
f 101/237 102/239 57/238
f 57/238 102/239 56/240
f 102/239 103/241 56/240
f 56/240 103/241 55/242
f 103/241 104/243 55/242
f 55/242 104/243 54/244
f 104/243 105/245 54/244
f 54/244 105/245 53/246
f 105/245 106/247 53/246
f 53/246 106/247 52/248
f 106/247 107/249 52/248
f 52/248 107/249 51/250
f 107/249 108/251 51/250
f 51/250 108/251 50/252
f 108/251 109/253 50/252
f 50/252 109/253 73/254
f 109/253 110/255 73/254
f 73/254 110/255 72/256
f 110/255 111/257 72/256
f 72/256 111/257 71/258
f 111/257 112/259 71/258
f 71/258 112/259 70/260
f 112/259 113/261 70/260
f 70/260 113/261 69/262
f 113/261 114/263 69/262
f 69/262 114/263 68/264
f 114/263 115/265 68/264
f 68/264 115/265 67/266
f 115/265 116/267 67/266
f 67/266 116/267 66/268
f 116/267 117/269 66/268
f 66/268 117/269 65/270
f 117/269 118/271 65/270
f 65/270 118/271 64/272
f 118/271 119/273 64/272
f 64/272 119/273 63/274
f 119/273 120/275 63/274
f 63/274 120/275 62/276
f 120/275 121/277 62/276
f 62/276 121/277 61/278
f 121/277 98/279 61/278
f 98/231 122/280 99/233
f 122/280 123/281 99/233
f 99/233 123/281 100/235
f 123/281 124/282 100/235
f 100/235 124/282 101/237
f 124/282 125/283 101/237
f 101/237 125/283 102/239
f 125/283 126/284 102/239
f 102/239 126/284 103/241
f 126/284 127/285 103/241
f 103/241 127/285 104/243
f 127/285 128/286 104/243
f 104/243 128/286 105/245
f 128/286 129/287 105/245
f 105/245 129/287 106/247
f 129/287 130/288 106/247
f 106/247 130/288 107/249
f 130/288 131/289 107/249
f 107/249 131/289 108/251
f 131/289 132/290 108/251
f 108/251 132/290 109/253
f 132/290 133/291 109/253
f 109/253 133/291 110/255
f 133/291 134/292 110/255
f 110/255 134/292 111/257
f 134/292 135/293 111/257
f 111/257 135/293 112/259
f 135/293 136/294 112/259
f 112/259 136/294 113/261
f 136/294 137/295 113/261
f 113/261 137/295 114/263
f 137/295 138/296 114/263
f 114/263 138/296 115/265
f 138/296 139/297 115/265
f 115/265 139/297 116/267
f 139/297 140/298 116/267
f 116/267 140/298 117/269
f 140/298 141/299 117/269
f 117/269 141/299 118/271
f 141/299 142/300 118/271
f 118/271 142/300 119/273
f 142/300 143/301 119/273
f 119/273 143/301 120/275
f 143/301 144/302 120/275
f 120/275 144/302 121/277
f 144/302 145/303 121/277
f 121/277 145/303 98/279
f 145/303 122/304 98/279
f 122/280 146/305 123/281
f 146/305 147/306 123/281
f 123/281 147/306 124/282
f 147/306 148/307 124/282
f 124/282 148/307 125/283
f 148/307 149/308 125/283
f 125/283 149/308 126/284
f 149/308 150/309 126/284
f 126/284 150/309 127/285
f 150/309 151/310 127/285
f 127/285 151/310 128/286
f 151/310 152/311 128/286
f 128/286 152/311 129/287
f 152/311 153/312 129/287
f 129/287 153/312 130/288
f 153/312 154/313 130/288
f 130/288 154/313 131/289
f 154/313 155/314 131/289
f 131/289 155/314 132/290
f 155/314 156/315 132/290
f 132/290 156/315 133/291
f 156/315 157/316 133/291
f 133/291 157/316 134/292
f 157/316 158/317 134/292
f 134/292 158/317 135/293
f 158/317 159/318 135/293
f 135/293 159/318 136/294
f 159/318 160/319 136/294
f 136/294 160/319 137/295
f 160/319 161/320 137/295
f 137/295 161/320 138/296
f 161/320 162/321 138/296
f 138/296 162/321 139/297
f 162/321 163/322 139/297
f 139/297 163/322 140/298
f 163/322 164/323 140/298
f 140/298 164/323 141/299
f 164/323 165/324 141/299
f 141/299 165/324 142/300
f 165/324 166/325 142/300
f 142/300 166/325 143/301
f 166/325 167/326 143/301
f 143/301 167/326 144/302
f 167/326 168/327 144/302
f 144/302 168/327 145/303
f 168/327 169/328 145/303
f 145/303 169/328 122/304
f 169/328 146/329 122/304
f 146/305 170/330 147/306
f 170/330 171/331 147/306
f 147/306 171/331 148/307
f 171/331 172/332 148/307
f 148/307 172/332 149/308
f 172/332 173/333 149/308
f 149/308 173/333 150/309
f 173/333 174/334 150/309
f 150/309 174/334 151/310
f 174/334 175/335 151/310
f 151/310 175/335 152/311
f 175/335 176/336 152/311
f 152/311 176/336 153/312
f 176/336 177/337 153/312
f 153/312 177/337 154/313
f 177/337 178/338 154/313
f 154/313 178/338 155/314
f 178/338 179/339 155/314
f 155/314 179/339 156/315
f 179/339 180/340 156/315
f 156/315 180/340 157/316
f 180/340 181/341 157/316
f 157/316 181/341 158/317
f 181/341 182/342 158/317
f 158/317 182/342 159/318
f 182/342 183/343 159/318
f 159/318 183/343 160/319
f 183/343 184/344 160/319
f 160/319 184/344 161/320
f 184/344 185/345 161/320
f 161/320 185/345 162/321
f 185/345 186/346 162/321
f 162/321 186/346 163/322
f 186/346 187/347 163/322
f 163/322 187/347 164/323
f 187/347 188/348 164/323
f 164/323 188/348 165/324
f 188/348 189/349 165/324
f 165/324 189/349 166/325
f 189/349 190/350 166/325
f 166/325 190/350 167/326
f 190/350 191/351 167/326
f 167/326 191/351 168/327
f 191/351 192/352 168/327
f 168/327 192/352 169/328
f 192/352 193/353 169/328
f 169/328 193/353 146/329
f 193/353 170/354 146/329
f 170/330 194/355 171/331
f 194/355 195/356 171/331
f 171/331 195/356 172/332
f 195/356 196/357 172/332
f 172/332 196/357 173/333
f 196/357 197/358 173/333
f 173/333 197/358 174/334
f 197/358 198/359 174/334
f 174/334 198/359 175/335
f 198/359 199/360 175/335
f 175/335 199/360 176/336
f 199/360 200/361 176/336
f 176/336 200/361 177/337
f 200/361 201/362 177/337
f 177/337 201/362 178/338
f 201/362 202/363 178/338
f 178/338 202/363 179/339
f 202/363 203/364 179/339
f 179/339 203/364 180/340
f 203/364 204/365 180/340
f 180/340 204/365 181/341
f 204/365 205/366 181/341
f 181/341 205/366 182/342
f 205/366 206/367 182/342
f 182/342 206/367 183/343
f 206/367 207/368 183/343
f 183/343 207/368 184/344
f 207/368 208/369 184/344
f 184/344 208/369 185/345
f 208/369 209/370 185/345
f 185/345 209/370 186/346
f 209/370 210/371 186/346
f 186/346 210/371 187/347
f 210/371 211/372 187/347
f 187/347 211/372 188/348
f 211/372 212/373 188/348
f 188/348 212/373 189/349
f 212/373 213/374 189/349
f 189/349 213/374 190/350
f 213/374 214/375 190/350
f 190/350 214/375 191/351
f 214/375 215/376 191/351
f 191/351 215/376 192/352
f 215/376 216/377 192/352
f 192/352 216/377 193/353
f 216/377 217/378 193/353
f 193/353 217/378 170/354
f 217/378 194/379 170/354
f 194/355 75/380 195/356
f 75/380 76/381 195/356
f 195/356 76/381 196/357
f 76/381 77/382 196/357
f 196/357 77/382 197/358
f 77/382 78/383 197/358
f 197/358 78/383 198/359
f 78/383 79/384 198/359
f 198/359 79/384 199/360
f 79/384 80/385 199/360
f 199/360 80/385 200/361
f 80/385 81/386 200/361
f 200/361 81/386 201/362
f 81/386 82/387 201/362
f 201/362 82/387 202/363
f 82/387 83/388 202/363
f 202/363 83/388 203/364
f 83/388 84/389 203/364
f 203/364 84/389 204/365
f 84/389 85/390 204/365
f 204/365 85/390 205/366
f 85/390 86/391 205/366
f 205/366 86/391 206/367
f 86/391 87/392 206/367
f 206/367 87/392 207/368
f 87/392 88/393 207/368
f 207/368 88/393 208/369
f 88/393 89/394 208/369
f 208/369 89/394 209/370
f 89/394 90/395 209/370
f 209/370 90/395 210/371
f 90/395 91/396 210/371
f 210/371 91/396 211/372
f 91/396 92/397 211/372
f 211/372 92/397 212/373
f 92/397 93/398 212/373
f 212/373 93/398 213/374
f 93/398 94/399 213/374
f 213/374 94/399 214/375
f 94/399 95/400 214/375
f 214/375 95/400 215/376
f 95/400 96/401 215/376
f 215/376 96/401 216/377
f 96/401 97/402 216/377
f 216/377 97/402 217/378
f 97/402 74/403 217/378
f 217/378 74/403 194/379
f 74/403 75/404 194/379
f 26/405 24/406 27/407
f 24/406 23/408 27/407
f 27/407 23/408 28/409
f 23/408 22/410 28/409
f 28/409 22/410 29/411
f 22/410 21/412 29/411
f 29/411 21/412 30/413
f 21/412 20/414 30/413
f 30/413 20/414 31/415
f 20/414 19/416 31/415
f 31/415 19/416 32/417
f 19/416 18/418 32/417
f 32/417 18/418 33/419
f 18/418 17/420 33/419
f 33/419 17/420 34/421
f 17/420 16/422 34/421
f 34/421 16/422 35/423
f 16/422 15/424 35/423
f 35/423 15/424 36/425
f 15/424 14/426 36/425
f 36/425 14/426 37/427
f 14/426 13/428 37/427
f 37/427 13/428 38/429
f 13/428 12/430 38/429
f 38/429 12/430 39/431
f 12/430 11/432 39/431
f 39/431 11/432 40/433
f 11/432 10/434 40/433
f 40/433 10/434 41/435
f 10/434 9/436 41/435
f 41/435 9/436 42/437
f 9/436 8/438 42/437
f 42/437 8/438 43/439
f 8/438 7/440 43/439
f 43/439 7/440 44/441
f 7/440 6/442 44/441
f 44/441 6/442 45/443
f 6/442 5/444 45/443
f 45/443 5/444 46/445
f 5/444 4/446 46/445
f 46/445 4/446 47/447
f 4/446 3/448 47/447
f 47/447 3/448 48/449
f 3/448 2/450 48/449
f 48/449 2/450 49/451
f 2/450 1/452 49/451
f 49/451 1/452 26/453
f 1/452 24/454 26/453
f 50/455 27/456 51/457
f 27/456 28/458 51/457
f 51/457 28/458 52/459
f 28/458 29/460 52/459
f 52/459 29/460 53/461
f 29/460 30/462 53/461
f 53/461 30/462 54/463
f 30/462 31/464 54/463
f 54/463 31/464 55/465
f 31/464 32/466 55/465
f 55/465 32/466 56/467
f 32/466 33/468 56/467
f 56/467 33/468 57/469
f 33/468 34/470 57/469
f 57/469 34/470 58/471
f 34/470 35/472 58/471
f 58/471 35/472 59/473
f 35/472 36/474 59/473
f 59/473 36/474 60/475
f 36/474 37/476 60/475
f 60/475 37/476 61/477
f 37/476 38/478 61/477
f 61/477 38/478 62/479
f 38/478 39/480 62/479
f 62/479 39/480 63/481
f 39/480 40/482 63/481
f 63/481 40/482 64/483
f 40/482 41/484 64/483
f 64/483 41/484 65/485
f 41/484 42/486 65/485
f 65/485 42/486 66/487
f 42/486 43/488 66/487
f 66/487 43/488 67/489
f 43/488 44/490 67/489
f 67/489 44/490 68/491
f 44/490 45/492 68/491
f 68/491 45/492 69/493
f 45/492 46/494 69/493
f 69/493 46/494 70/495
f 46/494 47/496 70/495
f 70/495 47/496 71/497
f 47/496 48/498 71/497
f 71/497 48/498 72/499
f 48/498 49/500 72/499
f 72/499 49/500 73/501
f 49/500 26/502 73/501
f 73/501 26/502 50/503
f 26/502 27/504 50/503
f 422/505 411/506 421/507
f 411/506 410/508 421/507
f 421/507 410/508 420/509
f 417/505 412/510 423/511
f 412/510 415/508 423/511
f 423/511 415/508 424/512
f 424/513 427/514 443/515
f 443/515 444/516 424/513
f 444/516 445/517 424/513
f 424/513 445/517 423/518
f 426/519 425/520 440/521
f 440/521 441/522 426/519
f 441/522 442/523 426/519
f 426/519 442/523 427/514
f 424/524 415/508 427/525
f 415/508 414/526 427/525
f 427/525 414/526 426/505
f 426/505 414/527 425/528
f 414/527 411/508 425/528
f 425/528 411/508 422/529
f 422/530 421/531 437/532
f 437/532 438/533 422/530
f 438/533 439/534 422/530
f 422/530 439/534 425/520
f 420/535 419/536 434/537
f 434/537 435/538 420/535
f 435/538 436/539 420/535
f 420/535 436/539 421/531
f 420/540 410/508 419/541
f 410/508 413/542 419/541
f 419/541 413/542 418/505
f 418/529 413/508 416/528
f 413/508 412/527 416/528
f 416/528 412/527 417/505
f 417/543 423/518 431/544
f 431/544 432/545 417/543
f 432/545 433/546 417/543
f 417/543 433/546 416/547
f 418/548 416/547 430/549
f 430/549 428/550 418/548
f 428/550 429/551 418/548
f 418/548 429/551 419/536
f 22/552 23/553 25/554
f 23/553 24/555 25/554
f 25/554 24/555 1/556
f 19/557 20/558 25/554
f 20/558 21/559 25/554
f 25/554 21/559 22/552
f 16/560 17/561 25/554
f 17/561 18/562 25/554
f 25/554 18/562 19/557
f 13/563 14/564 25/554
f 14/564 15/565 25/554
f 25/554 15/565 16/560
f 10/566 11/567 25/554
f 11/567 12/568 25/554
f 25/554 12/568 13/563
f 7/569 8/570 25/554
f 8/570 9/571 25/554
f 25/554 9/571 10/566
f 4/572 5/573 25/554
f 5/573 6/574 25/554
f 25/554 6/574 7/569
f 1/556 2/575 25/554
f 2/575 3/576 25/554
f 25/554 3/576 4/572
f 76/577 219/578 77/579
f 219/578 221/580 77/579
f 77/579 221/580 78/581
f 221/580 230/582 78/581
f 78/581 230/582 79/583
f 230/582 237/584 79/583
f 79/583 237/584 80/585
f 237/584 231/586 80/585
f 80/585 231/586 81/587
f 231/586 228/588 81/587
f 81/587 228/588 82/589
f 228/588 229/590 82/589
f 82/589 229/590 83/591
f 229/590 232/592 83/591
f 83/591 232/592 84/593
f 232/592 233/594 84/593
f 84/593 233/594 85/595
f 233/594 234/596 85/595
f 85/595 234/596 86/597
f 234/596 238/598 86/597
f 86/597 238/598 87/599
f 238/598 239/600 87/599
f 87/599 239/600 88/601
f 239/600 240/602 88/601
f 88/601 240/602 89/603
f 240/602 235/604 89/603
f 89/603 235/604 90/605
f 235/604 236/606 90/605
f 90/605 236/606 91/607
f 236/606 241/608 91/607
f 91/607 241/608 92/609
f 241/608 222/610 92/609
f 92/609 222/610 93/611
f 222/610 223/612 93/611
f 93/611 223/612 94/613
f 223/612 227/614 94/613
f 94/613 227/614 95/615
f 227/614 224/616 95/615
f 95/615 224/616 96/617
f 224/616 225/618 96/617
f 96/617 225/618 97/619
f 225/618 226/620 97/619
f 97/619 226/620 74/621
f 226/620 220/622 74/621
f 74/621 220/622 75/623
f 220/622 218/624 75/623
f 75/623 218/624 76/577
f 218/624 219/578 76/577
f 271/625 414/626 270/627
f 414/626 415/628 270/627
f 270/627 415/628 269/629
f 412/630 288/631 289/632
f 289/632 266/633 412/630
f 266/633 267/634 412/630
f 412/630 267/634 415/628
f 267/634 268/635 415/628
f 415/628 268/635 269/629
f 279/636 280/637 410/519
f 280/637 281/638 410/519
f 284/639 413/640 283/641
f 413/640 410/519 283/641
f 283/641 410/519 282/642
f 410/519 281/638 282/642
f 271/625 272/643 414/626
f 272/643 273/644 414/626
f 414/626 273/644 411/645
f 273/644 274/646 411/645
f 411/645 274/646 275/647
f 284/639 285/648 413/640
f 285/648 286/649 413/640
f 413/640 286/649 412/630
f 286/649 287/650 412/630
f 412/630 287/650 288/631
f 275/647 276/651 411/645
f 276/651 277/652 411/645
f 411/645 277/652 410/519
f 277/652 278/653 410/519
f 410/519 278/653 279/636
f 242/654 234/655 243/656
f 234/655 233/657 243/656
f 243/656 233/657 244/658
f 233/657 232/659 244/658
f 244/658 232/659 245/660
f 232/659 229/661 245/660
f 245/660 229/661 246/662
f 229/661 228/663 246/662
f 246/662 228/663 247/664
f 228/663 231/665 247/664
f 247/664 231/665 248/666
f 231/665 237/667 248/666
f 248/666 237/667 249/668
f 237/667 230/669 249/668
f 249/668 230/669 250/670
f 230/669 221/671 250/670
f 250/670 221/671 251/672
f 221/671 219/673 251/672
f 251/672 219/673 252/674
f 219/673 218/675 252/674
f 252/674 218/675 253/676
f 218/675 220/677 253/676
f 253/676 220/677 254/678
f 220/677 226/679 254/678
f 254/678 226/679 255/680
f 226/679 225/681 255/680
f 255/680 225/681 256/682
f 225/681 224/683 256/682
f 256/682 224/683 257/684
f 224/683 227/685 257/684
f 257/684 227/685 258/686
f 227/685 223/687 258/686
f 258/686 223/687 259/688
f 223/687 222/689 259/688
f 259/688 222/689 260/690
f 222/689 241/691 260/690
f 260/690 241/691 261/692
f 241/691 236/693 261/692
f 261/692 236/693 262/694
f 236/693 235/695 262/694
f 262/694 235/695 263/696
f 235/695 240/697 263/696
f 263/696 240/697 264/698
f 240/697 239/699 264/698
f 264/698 239/699 265/700
f 239/699 238/701 265/700
f 265/700 238/701 242/702
f 238/701 234/703 242/702
