# Exported from USD: /World/Robotiq_Hand_E_edit/base_link/socket_head_cap_screw_iso_robotiq_24ROBOTIQ_HAND_E_DEFEATURE/socket_head_cap_screw_iso_robotiq_24ROBOTIQ_HAND_E_DEFEATURE
mtllib D_A03_ASM_DOIGTS_PARALLELES_1ROBOTIQ_HAND_E_DEFEATURE.mtl

g socket_head_cap_screw_iso_robotiq_24ROBOTIQ_HAND_E_DEFEATURE
v 0.01747082 -0.09100000 0.02556483
v 0.01779215 -0.09100000 0.02599441
v 0.01799135 -0.09100000 0.02649251
v 0.01805484 -0.09100000 0.02702521
v 0.01797830 -0.09100000 0.02755618
v 0.01776695 -0.09100000 0.02804925
v 0.01743517 -0.09100000 0.02847082
v 0.01700559 -0.09100000 0.02879215
v 0.01650749 -0.09100000 0.02899135
v 0.01597480 -0.09100000 0.02905484
v 0.01544382 -0.09100000 0.02897830
v 0.01495075 -0.09100000 0.02876695
v 0.01452918 -0.09100000 0.02843517
v 0.01420785 -0.09100000 0.02800559
v 0.01400865 -0.09100000 0.02750749
v 0.01394515 -0.09100000 0.02697480
v 0.01402170 -0.09100000 0.02644382
v 0.01423305 -0.09100000 0.02595075
v 0.01456483 -0.09100000 0.02552918
v 0.01499441 -0.09100000 0.02520785
v 0.01549251 -0.09100000 0.02500865
v 0.01602520 -0.09100000 0.02494515
v 0.01655618 -0.09100000 0.02502169
v 0.01704925 -0.09100000 0.02523305
v 0.01600000 -0.09100000 0.02700000
v 0.01778932 -0.09055500 0.02525405
v 0.01727646 -0.09055500 0.02485043
v 0.01667662 -0.09055500 0.02459330
v 0.01603066 -0.09055500 0.02450019
v 0.01538262 -0.09055500 0.02457743
v 0.01477665 -0.09055500 0.02481977
v 0.01425405 -0.09055500 0.02521068
v 0.01385043 -0.09055500 0.02572354
v 0.01359330 -0.09055500 0.02632338
v 0.01350019 -0.09055500 0.02696934
v 0.01357743 -0.09055500 0.02761738
v 0.01381977 -0.09055500 0.02822335
v 0.01421068 -0.09055500 0.02874595
v 0.01472354 -0.09055500 0.02914957
v 0.01532338 -0.09055500 0.02940670
v 0.01596934 -0.09055500 0.02949981
v 0.01661738 -0.09055500 0.02942257
v 0.01722335 -0.09055500 0.02918023
v 0.01774595 -0.09055500 0.02878932
v 0.01814957 -0.09055500 0.02827646
v 0.01840670 -0.09055500 0.02767662
v 0.01849981 -0.09055500 0.02703066
v 0.01842257 -0.09055500 0.02638262
v 0.01818023 -0.09055500 0.02577665
v 0.01778932 -0.06620000 0.02525405
v 0.01727646 -0.06620000 0.02485043
v 0.01667662 -0.06620000 0.02459330
v 0.01603066 -0.06620000 0.02450019
v 0.01538262 -0.06620000 0.02457743
v 0.01477665 -0.06620000 0.02481977
v 0.01425405 -0.06620000 0.02521068
v 0.01385043 -0.06620000 0.02572354
v 0.01359330 -0.06620000 0.02632338
v 0.01350019 -0.06620000 0.02696934
v 0.01357743 -0.06620000 0.02761738
v 0.01381977 -0.06620000 0.02822335
v 0.01421068 -0.06620000 0.02874595
v 0.01472354 -0.06620000 0.02914957
v 0.01532338 -0.06620000 0.02940670
v 0.01596934 -0.06620000 0.02949981
v 0.01661738 -0.06620000 0.02942257
v 0.01722335 -0.06620000 0.02918023
v 0.01774595 -0.06620000 0.02878932
v 0.01814957 -0.06620000 0.02827646
v 0.01840670 -0.06620000 0.02767662
v 0.01849981 -0.06620000 0.02703066
v 0.01842257 -0.06620000 0.02638262
v 0.01818023 -0.06620000 0.02577665
v 0.01406754 -0.06600000 0.02888563
v 0.01364535 -0.06600000 0.02832122
v 0.01338363 -0.06600000 0.02766677
v 0.01330020 -0.06600000 0.02696688
v 0.01340077 -0.06600000 0.02626925
v 0.01367847 -0.06600000 0.02562142
v 0.01411437 -0.06600000 0.02506754
v 0.01467878 -0.06600000 0.02464535
v 0.01533323 -0.06600000 0.02438363
v 0.01603312 -0.06600000 0.02430020
v 0.01673075 -0.06600000 0.02440077
v 0.01737858 -0.06600000 0.02467846
v 0.01793246 -0.06600000 0.02511437
v 0.01835465 -0.06600000 0.02567878
v 0.01861637 -0.06600000 0.02633323
v 0.01869980 -0.06600000 0.02703312
v 0.01859923 -0.06600000 0.02773075
v 0.01832153 -0.06600000 0.02837858
v 0.01788563 -0.06600000 0.02893246
v 0.01732122 -0.06600000 0.02935465
v 0.01666677 -0.06600000 0.02961637
v 0.01596688 -0.06600000 0.02969980
v 0.01526925 -0.06600000 0.02959923
v 0.01462142 -0.06600000 0.02932153
v 0.01381539 -0.06615549 0.02822580
v 0.01357257 -0.06615549 0.02761862
v 0.01349517 -0.06615549 0.02696927
v 0.01358848 -0.06615549 0.02632203
v 0.01384612 -0.06615549 0.02572098
v 0.01425055 -0.06615549 0.02520709
v 0.01477419 -0.06615549 0.02481540
v 0.01538138 -0.06615549 0.02457257
v 0.01603073 -0.06615549 0.02449517
v 0.01667797 -0.06615549 0.02458848
v 0.01727902 -0.06615549 0.02484612
v 0.01779290 -0.06615549 0.02525055
v 0.01818461 -0.06615549 0.02577420
v 0.01842743 -0.06615549 0.02638138
v 0.01850483 -0.06615549 0.02703073
v 0.01841152 -0.06615549 0.02767797
v 0.01815388 -0.06615549 0.02827902
v 0.01774945 -0.06615549 0.02879290
v 0.01722580 -0.06615549 0.02918461
v 0.01661862 -0.06615549 0.02942743
v 0.01596927 -0.06615549 0.02950483
v 0.01532203 -0.06615549 0.02941152
v 0.01472098 -0.06615549 0.02915388
v 0.01420709 -0.06615549 0.02874945
v 0.01380249 -0.06611323 0.02823304
v 0.01355824 -0.06611323 0.02762227
v 0.01348038 -0.06611323 0.02696909
v 0.01357424 -0.06611323 0.02631802
v 0.01383340 -0.06611323 0.02571343
v 0.01424022 -0.06611323 0.02519651
v 0.01476696 -0.06611323 0.02480249
v 0.01537773 -0.06611323 0.02455824
v 0.01603091 -0.06611323 0.02448038
v 0.01668198 -0.06611323 0.02457424
v 0.01728657 -0.06611323 0.02483340
v 0.01780349 -0.06611323 0.02524022
v 0.01819750 -0.06611323 0.02576696
v 0.01844176 -0.06611323 0.02637773
v 0.01851962 -0.06611323 0.02703091
v 0.01842576 -0.06611323 0.02768198
v 0.01816660 -0.06611323 0.02828657
v 0.01775979 -0.06611323 0.02880349
v 0.01723304 -0.06611323 0.02919750
v 0.01662227 -0.06611323 0.02944176
v 0.01596909 -0.06611323 0.02951962
v 0.01531802 -0.06611323 0.02942576
v 0.01471343 -0.06611323 0.02916660
v 0.01419651 -0.06611323 0.02875978
v 0.01378172 -0.06607530 0.02824470
v 0.01353515 -0.06607530 0.02762816
v 0.01345656 -0.06607530 0.02696880
v 0.01355130 -0.06607530 0.02631157
v 0.01381291 -0.06607530 0.02570126
v 0.01422358 -0.06607530 0.02517945
v 0.01475530 -0.06607530 0.02478172
v 0.01537184 -0.06607530 0.02453515
v 0.01603120 -0.06607530 0.02445656
v 0.01668843 -0.06607530 0.02455130
v 0.01729874 -0.06607530 0.02481291
v 0.01782055 -0.06607530 0.02522358
v 0.01821828 -0.06607530 0.02575530
v 0.01846485 -0.06607530 0.02637184
v 0.01854344 -0.06607530 0.02703120
v 0.01844870 -0.06607530 0.02768843
v 0.01818709 -0.06607530 0.02829874
v 0.01777642 -0.06607530 0.02882055
v 0.01724470 -0.06607530 0.02921828
v 0.01662816 -0.06607530 0.02946485
v 0.01596880 -0.06607530 0.02954344
v 0.01531157 -0.06607530 0.02944870
v 0.01470126 -0.06607530 0.02918709
v 0.01417945 -0.06607530 0.02877642
v 0.01375410 -0.06604363 0.02826020
v 0.01350446 -0.06604363 0.02763598
v 0.01342489 -0.06604363 0.02696841
v 0.01352081 -0.06604363 0.02630300
v 0.01378568 -0.06604363 0.02568509
v 0.01420146 -0.06604363 0.02515679
v 0.01473980 -0.06604363 0.02475410
v 0.01536402 -0.06604363 0.02450446
v 0.01603159 -0.06604363 0.02442489
v 0.01669700 -0.06604363 0.02452081
v 0.01731491 -0.06604363 0.02478568
v 0.01784321 -0.06604363 0.02520146
v 0.01824590 -0.06604363 0.02573980
v 0.01849554 -0.06604363 0.02636402
v 0.01857511 -0.06604363 0.02703159
v 0.01847919 -0.06604363 0.02769700
v 0.01821432 -0.06604363 0.02831491
v 0.01779854 -0.06604363 0.02884321
v 0.01726020 -0.06604363 0.02924590
v 0.01663598 -0.06604363 0.02949554
v 0.01596841 -0.06604363 0.02957511
v 0.01530300 -0.06604363 0.02947919
v 0.01468509 -0.06604363 0.02921432
v 0.01415679 -0.06604363 0.02879854
v 0.01372103 -0.06601980 0.02827876
v 0.01346771 -0.06601980 0.02764534
v 0.01338697 -0.06601980 0.02696795
v 0.01348431 -0.06601980 0.02629274
v 0.01375308 -0.06601980 0.02566573
v 0.01417498 -0.06601980 0.02512965
v 0.01472124 -0.06601980 0.02472103
v 0.01535466 -0.06601980 0.02446771
v 0.01603205 -0.06601980 0.02438697
v 0.01670726 -0.06601980 0.02448431
v 0.01733427 -0.06601980 0.02475308
v 0.01787035 -0.06601980 0.02517498
v 0.01827897 -0.06601980 0.02572124
v 0.01853229 -0.06601980 0.02635466
v 0.01861303 -0.06601980 0.02703205
v 0.01851569 -0.06601980 0.02770726
v 0.01824692 -0.06601980 0.02833427
v 0.01782502 -0.06601980 0.02887035
v 0.01727876 -0.06601980 0.02927897
v 0.01664534 -0.06601980 0.02953229
v 0.01596795 -0.06601980 0.02961303
v 0.01529274 -0.06601980 0.02951569
v 0.01466573 -0.06601980 0.02924692
v 0.01412965 -0.06601980 0.02882502
v 0.01368416 -0.06600501 0.02829944
v 0.01342675 -0.06600501 0.02765578
v 0.01334470 -0.06600501 0.02696743
v 0.01344361 -0.06600501 0.02628130
v 0.01371673 -0.06600501 0.02564415
v 0.01414545 -0.06600501 0.02509939
v 0.01470056 -0.06600501 0.02468416
v 0.01534422 -0.06600501 0.02442675
v 0.01603257 -0.06600501 0.02434470
v 0.01671870 -0.06600501 0.02444361
v 0.01735586 -0.06600501 0.02471673
v 0.01790061 -0.06600501 0.02514545
v 0.01831584 -0.06600501 0.02570056
v 0.01857325 -0.06600501 0.02634422
v 0.01865530 -0.06600501 0.02703257
v 0.01855639 -0.06600501 0.02771870
v 0.01828327 -0.06600501 0.02835586
v 0.01785455 -0.06600501 0.02890061
v 0.01729944 -0.06600501 0.02931584
v 0.01665578 -0.06600501 0.02957325
v 0.01596743 -0.06600501 0.02965530
v 0.01528130 -0.06600501 0.02955639
v 0.01464415 -0.06600501 0.02928327
v 0.01409939 -0.06600501 0.02885455
v 0.01605213 -0.06600000 0.02275032
v 0.01715025 -0.06600000 0.02290861
v 0.01816998 -0.06600000 0.02334573
v 0.01904184 -0.06600000 0.02403188
v 0.01970639 -0.06600000 0.02492030
v 0.02024968 -0.06600000 0.02705213
v 0.02009138 -0.06600000 0.02815025
v 0.02011837 -0.06600000 0.02595045
v 0.01965427 -0.06600000 0.02916998
v 0.01704955 -0.06600000 0.03111837
v 0.01594787 -0.06600000 0.03124968
v 0.01896812 -0.06600000 0.03004184
v 0.01807970 -0.06600000 0.03070639
v 0.01484975 -0.06600000 0.03109138
v 0.01383002 -0.06600000 0.03065427
v 0.01188163 -0.06600000 0.02804955
v 0.01175032 -0.06600000 0.02694787
v 0.01190862 -0.06600000 0.02584975
v 0.01234573 -0.06600000 0.02483002
v 0.01295816 -0.06600000 0.02996812
v 0.01229361 -0.06600000 0.02907970
v 0.01303188 -0.06600000 0.02395816
v 0.01392030 -0.06600000 0.02329361
v 0.01495045 -0.06600000 0.02288163
v 0.01904184 -0.06125000 0.02403188
v 0.01816998 -0.06125000 0.02334573
v 0.01715025 -0.06125000 0.02290861
v 0.01605213 -0.06125000 0.02275032
v 0.01495045 -0.06125000 0.02288163
v 0.01392030 -0.06125000 0.02329361
v 0.01303188 -0.06125000 0.02395816
v 0.01234573 -0.06125000 0.02483002
v 0.01190862 -0.06125000 0.02584975
v 0.01175032 -0.06125000 0.02694787
v 0.01188163 -0.06125000 0.02804955
v 0.01229361 -0.06125000 0.02907970
v 0.01295816 -0.06125000 0.02996812
v 0.01383002 -0.06125000 0.03065427
v 0.01484975 -0.06125000 0.03109138
v 0.01594787 -0.06125000 0.03124968
v 0.01704955 -0.06125000 0.03111837
v 0.01807970 -0.06125000 0.03070639
v 0.01896812 -0.06125000 0.03004184
v 0.01965427 -0.06125000 0.02916998
v 0.02009138 -0.06125000 0.02815025
v 0.02024968 -0.06125000 0.02705213
v 0.02011837 -0.06125000 0.02595045
v 0.01970639 -0.06125000 0.02492030
v 0.01886290 -0.06100000 0.02420648
v 0.01804234 -0.06100000 0.02356069
v 0.01708259 -0.06100000 0.02314929
v 0.01604906 -0.06100000 0.02300030
v 0.01501219 -0.06100000 0.02312389
v 0.01404264 -0.06100000 0.02351163
v 0.01320648 -0.06100000 0.02413709
v 0.01256069 -0.06100000 0.02495766
v 0.01214929 -0.06100000 0.02591741
v 0.01200030 -0.06100000 0.02695094
v 0.01212389 -0.06100000 0.02798781
v 0.01251163 -0.06100000 0.02895736
v 0.01313709 -0.06100000 0.02979352
v 0.01395766 -0.06100000 0.03043931
v 0.01491741 -0.06100000 0.03085071
v 0.01595094 -0.06100000 0.03099970
v 0.01698781 -0.06100000 0.03087611
v 0.01795736 -0.06100000 0.03048837
v 0.01879352 -0.06100000 0.02986290
v 0.01943931 -0.06100000 0.02904234
v 0.01985071 -0.06100000 0.02808259
v 0.01999970 -0.06100000 0.02704906
v 0.01987611 -0.06100000 0.02601219
v 0.01948837 -0.06100000 0.02504264
v 0.01807074 -0.06100627 0.02351286
v 0.01709764 -0.06100627 0.02309573
v 0.01604974 -0.06100627 0.02294468
v 0.01499845 -0.06100627 0.02306998
v 0.01401542 -0.06100627 0.02346311
v 0.01316763 -0.06100627 0.02409728
v 0.01251286 -0.06100627 0.02492926
v 0.01209573 -0.06100627 0.02590236
v 0.01194467 -0.06100627 0.02695026
v 0.01206998 -0.06100627 0.02800155
v 0.01246311 -0.06100627 0.02898458
v 0.01309728 -0.06100627 0.02983237
v 0.01392926 -0.06100627 0.03048714
v 0.01490236 -0.06100627 0.03090427
v 0.01595026 -0.06100627 0.03105533
v 0.01700155 -0.06100627 0.03093002
v 0.01798458 -0.06100627 0.03053689
v 0.01883237 -0.06100627 0.02990272
v 0.01948714 -0.06100627 0.02907074
v 0.01990427 -0.06100627 0.02809764
v 0.02005533 -0.06100627 0.02704974
v 0.01993002 -0.06100627 0.02599845
v 0.01953689 -0.06100627 0.02501542
v 0.01890272 -0.06100627 0.02416763
v 0.01809772 -0.06102476 0.02346742
v 0.01711195 -0.06102476 0.02304486
v 0.01605039 -0.06102476 0.02289184
v 0.01498540 -0.06102476 0.02301878
v 0.01398956 -0.06102476 0.02341703
v 0.01313072 -0.06102476 0.02405946
v 0.01246742 -0.06102476 0.02490228
v 0.01204486 -0.06102476 0.02588806
v 0.01189184 -0.06102476 0.02694961
v 0.01201878 -0.06102476 0.02801460
v 0.01241703 -0.06102476 0.02901044
v 0.01305946 -0.06102476 0.02986928
v 0.01390228 -0.06102476 0.03053258
v 0.01488805 -0.06102476 0.03095514
v 0.01594961 -0.06102476 0.03110816
v 0.01701460 -0.06102476 0.03098122
v 0.01801044 -0.06102476 0.03058297
v 0.01886928 -0.06102476 0.02994054
v 0.01953258 -0.06102476 0.02909772
v 0.01995514 -0.06102476 0.02811195
v 0.02010816 -0.06102476 0.02705039
v 0.01998122 -0.06102476 0.02598540
v 0.01958297 -0.06102476 0.02498956
v 0.01894054 -0.06102476 0.02413072
v 0.01812192 -0.06105454 0.02342667
v 0.01712477 -0.06105454 0.02299923
v 0.01605097 -0.06105454 0.02284444
v 0.01497370 -0.06105454 0.02297284
v 0.01396636 -0.06105454 0.02337569
v 0.01309762 -0.06105454 0.02402553
v 0.01242667 -0.06105454 0.02487808
v 0.01199923 -0.06105454 0.02587523
v 0.01184444 -0.06105454 0.02694903
v 0.01197284 -0.06105454 0.02802630
v 0.01237569 -0.06105454 0.02903364
v 0.01302553 -0.06105454 0.02990238
v 0.01387808 -0.06105454 0.03057333
v 0.01487523 -0.06105454 0.03100077
v 0.01594903 -0.06105454 0.03115556
v 0.01702630 -0.06105454 0.03102715
v 0.01803364 -0.06105454 0.03062431
v 0.01890238 -0.06105454 0.02997447
v 0.01957333 -0.06105454 0.02912192
v 0.02000077 -0.06105454 0.02812477
v 0.02015556 -0.06105454 0.02705097
v 0.02002716 -0.06105454 0.02597370
v 0.01962431 -0.06105454 0.02496636
v 0.01897447 -0.06105454 0.02409762
v 0.01814214 -0.06109413 0.02339263
v 0.01713549 -0.06109413 0.02296112
v 0.01605146 -0.06109413 0.02280486
v 0.01496392 -0.06109413 0.02293449
v 0.01394699 -0.06109413 0.02334117
v 0.01306997 -0.06109413 0.02399720
v 0.01239263 -0.06109413 0.02485786
v 0.01196112 -0.06109413 0.02586451
v 0.01180486 -0.06109413 0.02694854
v 0.01193449 -0.06109413 0.02803608
v 0.01234117 -0.06109413 0.02905301
v 0.01299720 -0.06109413 0.02993003
v 0.01385786 -0.06109413 0.03060737
v 0.01486451 -0.06109413 0.03103888
v 0.01594854 -0.06109413 0.03119514
v 0.01703608 -0.06109413 0.03106551
v 0.01805301 -0.06109413 0.03065883
v 0.01893003 -0.06109413 0.03000280
v 0.01960737 -0.06109413 0.02914214
v 0.02003888 -0.06109413 0.02813549
v 0.02019514 -0.06109413 0.02705146
v 0.02006551 -0.06109413 0.02596392
v 0.01965883 -0.06109413 0.02494699
v 0.01900280 -0.06109413 0.02406997
v 0.01815734 -0.06114153 0.02336702
v 0.01714355 -0.06114153 0.02293245
v 0.01605182 -0.06114153 0.02277508
v 0.01495657 -0.06114153 0.02290562
v 0.01393242 -0.06114153 0.02331520
v 0.01304917 -0.06114153 0.02397588
v 0.01236702 -0.06114153 0.02484266
v 0.01193245 -0.06114153 0.02585645
v 0.01177508 -0.06114153 0.02694818
v 0.01190562 -0.06114153 0.02804343
v 0.01231520 -0.06114153 0.02906758
v 0.01297588 -0.06114153 0.02995083
v 0.01384266 -0.06114153 0.03063298
v 0.01485645 -0.06114153 0.03106755
v 0.01594818 -0.06114153 0.03122493
v 0.01704343 -0.06114153 0.03109438
v 0.01806758 -0.06114153 0.03068480
v 0.01895083 -0.06114153 0.03002412
v 0.01963298 -0.06114153 0.02915734
v 0.02006755 -0.06114153 0.02814355
v 0.02022493 -0.06114153 0.02705182
v 0.02009438 -0.06114153 0.02595657
v 0.01968480 -0.06114153 0.02493242
v 0.01902412 -0.06114153 0.02404917
v 0.01816678 -0.06119437 0.02335112
v 0.01714855 -0.06119437 0.02291465
v 0.01605205 -0.06119437 0.02275659
v 0.01495200 -0.06119437 0.02288771
v 0.01392337 -0.06119437 0.02329907
v 0.01303626 -0.06119437 0.02396265
v 0.01235112 -0.06119437 0.02483322
v 0.01191465 -0.06119437 0.02585145
v 0.01175659 -0.06119437 0.02694795
v 0.01188771 -0.06119437 0.02804800
v 0.01229907 -0.06119437 0.02907663
v 0.01296265 -0.06119437 0.02996374
v 0.01383322 -0.06119437 0.03064888
v 0.01485145 -0.06119437 0.03108535
v 0.01594795 -0.06119437 0.03124341
v 0.01704800 -0.06119437 0.03111229
v 0.01807663 -0.06119437 0.03070093
v 0.01896374 -0.06119437 0.03003735
v 0.01964888 -0.06119437 0.02916678
v 0.02008535 -0.06119437 0.02814855
v 0.02024341 -0.06119437 0.02705205
v 0.02011229 -0.06119437 0.02595200
v 0.01970093 -0.06119437 0.02492337
v 0.01903735 -0.06119437 0.02403626
v 0.01663816 -0.06100000 0.02473010
v 0.01828487 -0.06100000 0.02641771
v 0.01435329 -0.06100000 0.02531239
v 0.01371513 -0.06100000 0.02758229
v 0.01764671 -0.06100000 0.02868761
v 0.01536184 -0.06100000 0.02926990
v 0.01796579 -0.06350000 0.02755266
v 0.01828487 -0.06350000 0.02641771
v 0.01764671 -0.06350000 0.02868761
v 0.01650428 -0.06350000 0.02897875
v 0.01536184 -0.06350000 0.02926990
v 0.01453849 -0.06350000 0.02842609
v 0.01371513 -0.06350000 0.02758229
v 0.01746151 -0.06350000 0.02557391
v 0.01663816 -0.06350000 0.02473010
v 0.01403421 -0.06350000 0.02644734
v 0.01435329 -0.06350000 0.02531239
v 0.01549572 -0.06350000 0.02502125
v 0.01775577 -0.06350000 0.02804261
v 0.01742609 -0.06350000 0.02846151
v 0.01699923 -0.06350000 0.02878081
v 0.01778081 -0.06350000 0.02600077
v 0.01797875 -0.06350000 0.02649572
v 0.01804185 -0.06350000 0.02702505
v 0.01597495 -0.06350000 0.02904185
v 0.01544734 -0.06350000 0.02896579
v 0.01495739 -0.06350000 0.02875577
v 0.01421919 -0.06350000 0.02799923
v 0.01402125 -0.06350000 0.02750428
v 0.01395815 -0.06350000 0.02697495
v 0.01424423 -0.06350000 0.02595739
v 0.01457391 -0.06350000 0.02553849
v 0.01500077 -0.06350000 0.02521919
v 0.01602505 -0.06350000 0.02495815
v 0.01655266 -0.06350000 0.02503421
v 0.01704261 -0.06350000 0.02524423
v 0.01600000 -0.06467895 0.02700000
vt -0.00117895 -0.00000000
vt 5.49778700 -2.01959538
vt 6.28318548 -0.06130500
vt 0.78539819 0.00000000
vt 0.00000000 0.67319840
vt 3.66519141 0.00000000
vt 5.49778700 1.34639680
vt 5.23598766 1.12199736
vt 0.78539819 0.44879895
vt 1.04719758 -1.79519582
vt -0.00235790 0.00000000
vt -0.00000000 -0.00000000
vt 6.02138615 0.00044500
vt 0.00260800 -0.00494881
vt 5.23598766 -0.00000000
vt 2.87979317 0.89759791
vt 4.97418833 -2.69279361
vt 0.00103528 -0.00386370
vt -0.00386370 -0.00103528
vt 3.66519141 0.00000000
vt 5.75958633 -1.79519582
vt 3.14159274 -0.06130500
vt 1.04719758 -2.01959538
vt 1.70169604 -0.00117895
vt 1.30899692 -0.03200000
vt 2.61799383 -1.79519582
vt 0.52359879 -2.91719317
vt -0.00135000 -0.00658827
vt 3.14159274 -0.03695000
vt -0.00300520 -0.00725520
vt 6.54498482 1.12199736
vt 1.04719758 0.00044500
vt 3.66519141 1.57079637
vt 5.75958633 1.12199736
vt -0.00027358 -0.00455785
vt 5.49778700 -0.03675000
vt -0.00059809 -0.00498076
vt 1.57079637 0.22439948
vt -0.00204200 0.00117895
vt 6.02138615 -3.14159274
vt 2.61799383 -0.03695000
vt 2.09439516 0.44879895
vt 3.14159274 -1.79519582
vt -0.00198498 -0.00258687
vt 2.87979317 0.00000000
vt 5.75958633 0.00044500
vt 4.45058966 -2.91719317
vt 2.61799383 -2.01959538
vt 0.26179940 1.34639680
vt 2.61799383 -2.91719317
vt 0.52359879 -0.03200000
vt 3.14159274 1.34639680
vt 1.04719758 0.67319840
vt 1.30899692 -2.91719317
vt -0.00204200 -0.00557885
vt -0.00212500 -0.00793061
vt -0.00069881 -0.00164200
vt -0.00346410 0.00200000
vt -0.00151349 -0.00156443
vt 3.66519141 0.00000000
vt 0.26179940 -0.03200000
vt 4.97418833 -1.57079637
vt 6.02138615 -2.69279361
vt 6.28318548 0.89759791
vt -0.00205500 -0.00205500
vt 0.00300520 -0.00124480
vt 3.92699075 -0.03695000
vt 0.00000000 0.00000000
vt 2.61799383 0.89759791
vt 2.09439516 0.22439948
vt 1.04719758 -3.14159274
vt 6.54498482 0.00000000
vt 0.39269909 -0.00117895
vt 3.01069307 -0.00117895
vt 3.40339208 0.00000000
vt 4.97418833 0.00000000
vt 1.83259571 0.00000000
vt 3.92699075 -2.01959538
vt 3.14159274 0.00044500
vt 3.53429174 -0.00117895
vt 6.28318548 0.44879895
vt -0.00102750 -0.00383468
vt 3.66519141 -1.57079637
vt -0.00000000 -0.00353685
vt 0.78539819 -1.57079637
vt -0.00103528 0.00386370
vt 4.45058966 -0.06130500
vt -0.00386370 0.00103528
vt 1.57079637 -0.03675000
vt -0.00235790 -0.00000000
vt 6.54498482 -2.69279361
vt 2.35619450 -2.46839428
vt 6.02138615 -1.57079637
vt 5.23598766 0.89759791
vt 3.66519141 0.22439948
vt 1.83259571 0.00000000
vt 4.71238899 1.57079637
vt 1.04719758 1.34639680
vt 3.92699075 -2.46839428
vt 1.04719758 1.57079637
vt 6.54498482 -1.57079637
vt -0.00235790 -0.00000000
vt 3.14159274 0.67319840
vt -0.00260800 -0.00355119
vt 1.04719758 -0.03200000
vt 3.40339208 -0.03675000
vt 0.00200000 0.00346410
vt -0.00257051 -0.00156443
vt 4.71238899 0.00000000
vt 0.78539819 -2.69279361
vt 0.00233827 -0.00560000
vt 1.30899692 -2.46839428
vt 6.02138615 -2.46839428
vt 6.28318548 -2.24399471
vt 0.52359879 -0.06130500
vt 6.28318548 1.34639680
vt 3.40339208 0.00000000
vt 2.09439516 -2.69279361
vt 3.92699075 1.34639680
vt 5.49778700 -0.06130500
vt 5.75958633 -0.03200000
vt 4.71238899 0.00000000
vt 1.04719758 0.00000000
vt 3.92699075 -2.24399471
vt 0.13089970 -0.00117895
vt 2.09439516 -0.03200000
vt -0.00235790 -0.00250000
vt 1.30899692 -1.79519582
vt 1.30899692 -2.01959538
vt 0.00282843 -0.00282843
vt 3.66519141 -3.14159274
vt 0.26179940 1.12199736
vt 1.57079637 1.12199736
vt 0.00190919 -0.00234081
vt 4.18879032 -3.14159274
vt 6.28318548 -2.46839428
vt 3.66519141 -1.79519582
vt 4.45058966 0.00000000
vt 2.61799383 1.57079637
vt 5.49778700 0.00000000
vt 1.57079637 -1.57079637
vt 3.66519141 -0.03675000
vt 1.30899692 -0.03695000
vt 3.14159274 -0.03200000
vt 2.35619450 1.12199736
vt 4.97418833 0.00044500
vt -0.00177968 -0.00102750
vt 3.92699075 0.44879895
vt 2.35619450 -1.79519582
vt 3.40339208 0.22439948
vt 3.92699075 -2.91719317
vt 4.71238899 -2.46839428
vt 4.05789042 -0.00117895
vt 3.66519141 0.44879895
vt 6.54498482 -0.06130500
vt 5.89048624 -0.00117895
vt 6.28318548 -2.01959538
vt 0.00386370 -0.00103528
vt 5.75958633 -2.91719317
vt 4.97418833 -2.01959538
vt 2.35619450 -0.03695000
vt 3.92699075 0.89759791
vt 0.78539819 0.67319840
vt 2.87979317 -1.79519582
vt 0.26179940 -2.24399471
vt 4.45058966 0.67319840
vt 6.28318548 0.00044500
vt 3.66519141 0.00044500
vt 6.28318548 -0.00000000
vt 4.71238899 1.34639680
vt 4.71238899 -2.01959538
vt 0.00103528 0.00386370
vt 6.02138615 0.00000000
vt 6.54498482 0.00000000
vt 3.66519141 -2.01959538
vt 2.87979317 -0.03695000
vt 0.52359879 0.67319840
vt 2.48709416 -0.00117895
vt 6.28318548 1.12199736
vt 0.26179940 -2.69279361
vt 1.57079637 -1.79519582
vt 5.49778700 0.67319840
vt 2.09439516 0.00044500
vt 5.23598766 -0.03200000
vt 3.40339208 -1.57079637
vt 0.00135000 -0.00658827
vt 4.18879032 -2.69279361
vt 6.28318548 -3.14159274
vt 4.71238899 -2.91719317
vt 4.71238899 -0.03675000
vt 4.71238899 0.67319840
vt 4.97418833 0.00000000
vt 3.40339208 0.00000000
vt 2.74889350 -0.00117895
vt 4.71238899 -3.14159274
vt 1.04719758 0.44879895
vt 1.83259571 -2.91719317
vt 1.57079637 0.00044500
vt 0.00000000 -0.00250000
vt 1.83259571 0.67319840
vt 1.57079637 1.34639680
vt 0.52359879 -1.57079637
vt 5.49778700 -2.91719317
vt 0.00198498 -0.00258687
vt 3.92699075 -0.06130500
vt 3.66519141 -0.03200000
vt 6.54498482 0.67319840
vt -0.00102750 -0.00027532
vt 0.00177968 -0.00308250
vt 1.17809725 -0.00117895
vt 0.78539819 -0.06130500
vt 2.09439516 -2.46839428
vt 1.83259571 -3.14159274
vt 3.66519141 -0.06130500
vt -0.00204200 -0.00589475
vt 2.61799383 0.00000000
vt 5.49778700 -3.14159274
vt 5.23598766 -2.01959538
vt 6.28318548 -2.69279361
vt 0.00368061 -0.00637500
vt 0.00282843 0.00282843
vt 0.00109998 -0.00835518
vt 0.00000000 -0.00250000
vt 0.00053187 -0.00007002
vt 4.18879032 0.00000000
vt 5.75958633 0.00000000
vt 2.61799383 -0.03675000
vt 6.28318548 -1.57079637
vt -0.00000000 -0.00250000
vt 0.78539819 0.00000000
vt 2.09439516 0.00000000
vt 1.83259571 1.34639680
vt 4.45058966 -2.69279361
vt -0.00000000 -0.00205500
vt 4.97418833 -0.06130500
vt 5.23598766 0.00044500
vt 2.35619450 0.22439948
vt 5.75958633 -0.03675000
vt 1.57079637 -2.91719317
vt 3.14159274 0.44879895
vt 1.30899692 0.00000000
vt 4.71238899 -0.03200000
vt 0.00204200 -0.00117895
vt 0.91629785 -0.00117895
vt -0.00200000 -0.00346410
vt 1.04719758 -1.57079637
vt 4.45058966 -0.03695000
vt 2.35619450 1.57079637
vt 5.10508823 -0.00117895
vt -0.00000000 -0.00850000
vt 1.57079637 0.89759791
vt 0.52359879 -3.14159274
vt 0.00346410 0.00200000
vt 1.30899692 0.22439948
vt 0.52359879 -2.69279361
vt -0.00135000 -0.00191173
vt 1.83259571 -2.69279361
vt 5.23598766 -0.03675000
vt 2.35619450 0.00000000
vt 4.45058966 1.34639680
vt 1.83259571 -2.01959538
vt 0.78539819 1.34639680
vt 3.40339208 0.00044500
vt -0.00204200 -0.00149485
vt 3.66519141 1.34639680
vt 5.49778700 0.00000000
vt 0.00233827 -0.00290000
vt 0.52359879 0.00000000
vt 5.49778700 -0.03200000
vt 0.78539819 -3.14159274
vt 2.09439516 0.00000000
vt 0.52359879 1.12199736
vt 4.71238899 -0.06130500
vt -0.00102100 -0.00530527
vt 1.30899692 1.57079637
vt 5.23598766 -3.14159274
vt 1.83259571 -0.03695000
vt 6.15228558 -0.00117895
vt -0.00260800 -0.00494881
vt 0.26179940 0.00000000
vt 0.00000000 1.12199736
vt 4.45058966 -2.46839428
vt 3.40339208 -2.01959538
vt 6.28318548 0.22439948
vt 1.83259571 -0.06130500
vt 2.61799383 -2.46839428
vt 0.00205500 -0.00205500
vt 3.92699075 0.67319840
vt 3.14159274 -1.57079637
vt 4.71238899 1.12199736
vt 3.66519141 0.67319840
vt 4.45058966 0.00044500
vt 5.23598766 -2.69279361
vt 0.78539819 0.00044500
vt 0.26179940 0.00000000
vt 1.83259571 -0.03675000
vt 0.52359879 -0.03675000
vt 1.04719758 1.12199736
vt 5.23598766 0.22439948
vt 0.26179940 0.67319840
vt 4.97418833 -1.79519582
vt 0.00260800 -0.00355119
vt -0.00257051 -0.00550927
vt 3.66519141 0.89759791
vt 4.97418833 0.67319840
vt 2.61799383 1.12199736
vt 5.75958633 -2.69279361
vt 5.23598766 -1.57079637
vt 2.35619450 0.89759791
vt 2.35619450 -2.01959538
vt 4.45058966 -0.03675000
vt 6.02138615 0.89759791
vt 4.97418833 -0.03695000
vt 2.35619450 0.67319840
vt 4.84328890 -0.00117895
vt 2.61799383 -2.69279361
vt -0.00000000 -0.00400000
vt 3.14159274 -2.46839428
vt 0.00000000 -0.00471580
vt 6.28318548 -0.03675000
vt -0.00000000 -0.03200000
vt -0.00117895 0.00000000
vt 1.30899692 1.12199736
vt 6.02138615 -2.91719317
vt 1.30899692 0.89759791
vt 1.30899692 0.67319840
vt 0.00000000 -0.00000000
vt 5.23598766 0.00000000
vt 0.00000000 -0.00235790
vt 1.30899692 -3.14159274
vt 3.40339208 0.44879895
vt 6.02138615 -0.03695000
vt -0.00212500 -0.00056939
vt 0.00200000 -0.00346410
vt 4.71238899 -0.03695000
vt 2.87979317 0.00000000
vt 0.78539819 1.57079637
vt 0.52359879 0.00000000
vt 0.00400000 0.00000000
vt 6.02138615 -1.79519582
vt 4.45058966 -0.03200000
vt 3.40339208 0.89759791
vt -0.00200000 0.00346410
vt 0.78539819 -0.03200000
vt 0.00300520 -0.00725520
vt 2.35619450 1.34639680
vt 5.23598766 1.57079637
vt 2.35619450 -3.14159274
vt 4.71238899 -2.69279361
vt 6.54498482 0.44879895
vt 2.87979317 1.12199736
vt -0.00000000 -0.00235790
vt 6.28318548 -0.00000000
vt 4.18879032 -0.03675000
vt -0.00151349 -0.00550927
vt 3.92699075 -1.79519582
vt 4.18879032 0.00000000
vt 4.97418833 -3.14159274
vt 5.75958633 -3.14159274
vt 0.26179940 -0.06130500
vt 4.45058966 0.00000000
vt -0.00410518 -0.00315002
vt 0.26179940 -2.91719317
vt 3.14159274 -2.91719317
vt 0.26179940 -0.03675000
vt 0.00000000 0.22439948
vt 1.30899692 1.34639680
vt 1.83259571 -2.24399471
vt 6.54498482 -1.79519582
vt 4.97418833 -2.91719317
vt 5.49778700 0.00000000
vt 5.36688757 -0.00117895
vt 0.00145310 -0.00350810
vt 2.87979317 0.44879895
vt 6.54498482 -2.24399471
vt 1.43989658 -0.00117895
vt 2.35619450 -0.06130500
vt -0.00117895 0.00000000
vt -0.00235790 -0.00000000
vt 1.30899692 -1.57079637
vt 4.18879032 -0.03200000
vt 0.78539819 1.12199736
vt -0.00053187 -0.00007002
vt 0.00109998 -0.00014482
vt 2.09439516 -1.57079637
vt 1.83259571 1.57079637
vt 0.00212500 -0.00056939
vt 3.79609108 -0.00117895
vt 4.71238899 0.00000000
vt 4.18879032 -2.46839428
vt 1.30899692 -0.06130500
vt 3.14159274 1.57079637
vt 0.78539819 0.22439948
vt 2.35619450 -1.57079637
vt 1.57079637 0.00000000
vt -0.00306300 -0.00176842
vt 6.02138615 1.12199736
vt 2.09439516 -0.06130500
vt 5.49778700 0.22439948
vt 1.04719758 -2.91719317
vt 3.66519141 -2.69279361
vt 5.75958633 -2.01959538
vt -0.00425000 -0.00425000
vt 5.23598766 0.67319840
vt 6.28318548 1.57079637
vt 2.87979317 -1.57079637
vt 1.57079637 0.00000000
vt 0.52359879 0.00000000
vt -0.00408400 -0.00235790
vt 6.28318548 -0.03200000
vt 3.14159274 0.00000000
vt 0.00410518 -0.00315002
vt 4.97418833 -2.46839428
vt 2.61799383 0.44879895
vt 3.14159274 -2.24399471
vt 4.97418833 1.57079637
vt 0.00000000 0.44879895
vt 3.40339208 -0.03695000
vt 2.87979317 -2.91719317
vt 2.09439516 -0.03675000
vt 2.09439516 -2.91719317
vt -0.00000000 -0.00695000
vt 5.23598766 1.34639680
vt 5.49778700 1.12199736
vt -0.00408400 -0.00353685
vt 4.18879032 0.00044500
vt 0.00410518 -0.00534998
vt 0.26179940 0.44879895
vt 0.00212500 -0.00793061
vt 1.83259571 0.00044500
vt 0.00000000 0.89759791
vt 0.78539819 -0.03675000
vt 3.40339208 -2.69279361
vt 0.26179940 -0.03695000
vt 3.92699075 -0.03200000
vt 1.83259571 0.89759791
vt 0.00145310 -0.00060190
vt 4.97418833 -2.24399471
vt 5.75958633 -2.24399471
vt 6.02138615 0.00000000
vt 6.54498482 -2.91719317
vt 5.75958633 0.44879895
vt 6.54498482 -0.03675000
vt 0.26179940 -1.79519582
vt -0.00270000 -0.00425000
vt 1.57079637 -2.46839428
vt -0.00408400 -0.00471580
vt 3.66519141 -2.91719317
vt 1.57079637 -2.69279361
vt 0.52359879 -2.01959538
vt -0.00346410 -0.00200000
vt 1.57079637 1.57079637
vt 4.18879032 -1.79519582
vt 0.26179940 1.57079637
vt 1.57079637 -0.03200000
vt 0.78539819 0.89759791
vt 1.83259571 1.12199736
vt 2.22529483 -0.00117895
vt 2.09439516 0.67319840
vt 0.78539819 -2.01959538
vt 2.35619450 -2.24399471
vt 6.02138615 -0.03675000
vt -0.00282843 0.00282843
vt 5.23598766 -0.06130500
vt -0.00368061 -0.00637500
vt 0.00346410 -0.00200000
vt -0.00348591 -0.00498076
vt 2.87979317 -2.46839428
vt 3.40339208 -3.14159274
vt -0.00235790 0.00000000
vt 1.57079637 0.00000000
vt 2.87979317 0.00044500
vt 1.30899692 -2.24399471
vt 4.45058966 -1.57079637
vt 1.30899692 0.00000000
vt 3.14159274 0.00000000
vt 5.49778700 -0.03695000
vt -0.00103528 -0.00386370
vt 4.18879032 0.00000000
vt 3.40339208 1.12199736
vt 4.31968975 -0.00117895
vt 2.61799383 -0.06130500
vt 2.87979317 -2.01959538
vt 5.49778700 -2.69279361
vt 0.52359879 -2.24399471
vt 5.49778700 -2.24399471
vt -0.00059809 -0.00209294
vt 3.66519141 -2.46839428
vt -0.00109998 -0.00835518
vt 6.28318548 -1.79519582
vt 0.00000000 0.00400000
vt 2.35619450 0.00000000
vt 4.18879032 -1.57079637
vt 1.83259571 -1.57079637
vt 1.57079637 -3.14159274
vt 0.00102750 -0.00383468
vt 6.02138615 0.22439948
vt 0.00053187 -0.00403998
vt -0.00233827 -0.00560000
vt 0.00102750 -0.00027532
vt 3.92699075 0.00000000
vt 4.71238899 -2.24399471
vt 0.26179940 0.89759791
vt 5.75958633 -0.06130500
vt 4.97418833 -0.03675000
vt 0.00000000 -0.03695000
vt 1.04719758 0.00000000
vt 2.09439516 1.57079637
vt 5.75958633 0.00000000
vt 4.45058966 -3.14159274
vt 0.00177968 -0.00102750
vt 0.00270000 -0.00425000
vt 4.97418833 0.00000000
vt 3.14159274 -2.01959538
vt -0.00006958 -0.00406536
vt 0.52359879 1.34639680
vt 2.61799383 1.34639680
vt 3.40339208 -2.46839428
vt -0.00000000 -0.00411000
vt -0.00368061 -0.00212500
vt 2.35619450 0.00000000
vt 4.45058966 0.00000000
vt 1.04719758 -2.69279361
vt 6.02138615 0.00000000
vt 4.18879032 0.67319840
vt 5.75958633 -0.03695000
vt 4.45058966 0.44879895
vt 5.23598766 0.44879895
vt 5.23598766 -0.03695000
vt 4.71238899 0.22439948
vt 3.40339208 1.34639680
vt 1.30899692 0.00000000
vt 2.61799383 0.67319840
vt 1.57079637 -2.24399471
vt 0.52359879 0.44879895
vt 5.23598766 -1.79519582
vt -0.00300520 -0.00124480
vt 3.40339208 -2.24399471
vt 6.02138615 -0.03200000
vt 4.97418833 0.22439948
vt 1.57079637 0.44879895
vt -0.00233827 -0.00290000
vt 2.87979317 1.57079637
vt 6.02138615 1.57079637
vt -0.00000000 -0.00155000
vt -0.00109998 -0.00014482
vt 3.14159274 -3.14159274
vt 0.52359879 0.89759791
vt 0.00190919 -0.00615919
vt 0.00069881 -0.00164200
vt 1.30899692 0.00044500
vt 3.14159274 -2.69279361
vt -0.00190919 -0.00615919
vt 4.71238899 -1.57079637
vt 0.26179940 -2.46839428
vt 1.96349537 -0.00117895
vt 2.87979317 -2.24399471
vt 5.23598766 -2.24399471
vt -0.00348591 -0.00209294
vt 0.78539819 -2.91719317
vt 5.75958633 0.67319840
vt 2.87979317 0.00000000
vt 3.14159274 1.12199736
vt 0.00198498 -0.00152313
vt 5.49778700 0.44879895
vt -0.00400000 -0.00000000
vt 4.45058966 0.89759791
vt 4.18879032 0.89759791
vt 1.83259571 0.44879895
vt 5.75958633 0.22439948
vt 0.26179940 -2.01959538
vt 2.35619450 0.00044500
vt 5.49778700 0.89759791
vt 4.18879032 -2.91719317
vt 2.09439516 0.00000000
vt 4.18879032 -0.06130500
vt 5.75958633 1.57079637
vt 4.71238899 0.44879895
vt 2.61799383 -1.57079637
vt 0.26179940 0.00044500
vt 4.97418833 1.12199736
vt 3.66519141 -2.24399471
vt 0.65449846 -0.00117895
vt 3.92699075 1.57079637
vt 1.04719758 -2.46839428
vt -0.00198498 -0.00152313
vt -0.00401442 -0.00300834
vt 2.87979317 0.22439948
vt 4.71238899 0.89759791
vt 2.61799383 -0.03200000
vt -0.00117895 -0.00000000
vt 2.09439516 -0.03695000
vt 6.02138615 0.67319840
vt 4.71238899 -1.79519582
vt 3.92699075 -1.57079637
vt -0.00069881 -0.00685800
vt 0.78539819 -1.79519582
vt -0.00306300 -0.00530527
vt 4.18879032 1.34639680
vt 3.92699075 -2.69279361
vt -0.00102100 -0.00176842
vt 1.57079637 -0.06130500
vt 4.58148909 -0.00117895
vt 2.09439516 -1.79519582
vt 0.00386370 0.00103528
vt 5.62868690 -0.00117895
vt 2.09439516 1.12199736
vt 2.61799383 0.00000000
vt 0.26179940 -3.14159274
vt 3.92699075 0.00000000
vt 2.09439516 -2.24399471
vt 6.02138615 -2.01959538
vt 0.78539819 -0.03695000
vt 3.66519141 -0.03695000
vt 6.54498482 1.34639680
vt 6.28318548 0.00000000
vt 0.00368061 -0.00212500
vt 0.52359879 0.22439948
vt 1.83259571 0.22439948
vt 1.30899692 -2.69279361
vt 3.14159274 0.89759791
vt 6.02138615 1.34639680
vt 2.61799383 -3.14159274
vt 5.75958633 0.00000000
vt -0.00381042 -0.00251585
vt 3.40339208 -0.06130500
vt 2.35619450 -0.03200000
vt 0.00425000 -0.00425000
vt -0.00027358 -0.00251585
vt 0.78539819 0.00000000
vt 2.35619450 -2.69279361
vt 5.23598766 0.00000000
vt 2.87979317 -0.03675000
vt 6.54498482 -2.46839428
vt 0.00000000 -0.00250000
vt 4.45058966 0.22439948
vt -0.00053187 -0.00403998
vt 3.92699075 -3.14159274
vt 0.00135000 -0.00191173
vt 2.61799383 0.22439948
vt 4.97418833 1.34639680
vt 1.83259571 0.00000000
vt 3.66519141 1.12199736
vt 2.35619450 -2.91719317
vt 4.18879032 0.44879895
vt 2.35619450 -0.03675000
vt 2.87979317 -2.69279361
vt 0.26179940 -1.57079637
vt 2.61799383 0.00044500
vt 4.97418833 -0.03200000
vt 6.54498482 -2.01959538
vt 4.18879032 -2.24399471
vt 0.00204200 0.00117895
vt 3.92699075 1.12199736
vt 1.04719758 0.89759791
vt -0.00204200 -0.00117895
vt 5.23598766 -2.46839428
vt 6.02138615 -0.06130500
vt 2.87979317 -0.06130500
vt 1.83259571 -0.03200000
vt 1.57079637 -0.03695000
vt 1.30899692 -0.03675000
vt 3.92699075 0.00044500
vt 1.57079637 0.67319840
vt 2.61799383 -2.24399471
vt 2.87979317 -3.14159274
vt 3.92699075 -0.03675000
vt 4.97418833 0.44879895
vt 6.28318548 -2.91719317
vt -0.00000000 0.00235790
vt 4.18879032 1.12199736
vt 3.40339208 -1.79519582
vt -0.00000000 -0.00250000
vt 1.57079637 -2.01959538
vt 0.52359879 1.57079637
vt 3.92699075 0.00000000
vt 3.40339208 0.67319840
vt 2.35619450 0.44879895
vt 3.14159274 0.22439948
vt 6.54498482 -3.14159274
vt 0.26179940 0.22439948
vt 1.04719758 -2.24399471
vt 4.18879032 -2.01959538
vt -0.00145310 -0.00060190
vt 5.49778700 -1.57079637
vt -0.00190919 -0.00234081
vt -0.00381042 -0.00455785
vt 2.87979317 1.34639680
vt 6.54498482 0.89759791
vt 5.75958633 -2.46839428
vt 4.45058966 1.57079637
vt 5.23598766 -2.91719317
vt 2.61799383 0.00000000
vt 4.45058966 -2.01959538
vt 2.87979317 -0.03200000
vt -0.00117895 -0.00000000
vt 1.30899692 0.44879895
vt 0.00069881 -0.00685800
vt -0.00282843 -0.00282843
vt 5.49778700 1.57079637
vt 6.28318548 0.67319840
vt -0.00145310 -0.00350810
vt 3.40339208 -2.91719317
vt 4.18879032 -0.03695000
vt 0.26179940 0.00000000
vt 3.92699075 0.22439948
vt 0.00000000 0.00044500
vt -0.00177968 -0.00308250
vt 5.75958633 1.34639680
vt 1.04719758 0.22439948
vt 2.09439516 -3.14159274
vt 2.87979317 0.67319840
vt 2.09439516 1.34639680
vt -0.00006958 -0.00300834
vt 4.45058966 -1.79519582
vt 6.02138615 0.44879895
vt -0.00410518 -0.00534998
vt -0.00000000 -0.00000000
vt 3.14159274 -0.03675000
vt 0.52359879 -0.03695000
vt 4.97418833 0.89759791
vt 3.14159274 0.00000000
vt 5.49778700 -1.79519582
vt 0.52359879 -1.79519582
vt 0.78539819 -2.24399471
vt 1.83259571 -1.79519582
vt 0.00000000 1.34639680
vt -0.00401442 -0.00406536
vt 4.45058966 -2.24399471
vt 4.45058966 1.12199736
vt 4.71238899 0.00044500
vt 4.18879032 1.57079637
vt 5.75958633 -1.57079637
vt 0.00000000 1.57079637
vt 6.28318548 -0.03695000
vt 3.27249241 -0.00117895
vt 0.52359879 -2.46839428
vt 1.04719758 -0.00000000
vt 1.83259571 -2.46839428
vt 5.49778700 -2.46839428
vt 4.18879032 0.22439948
vt 1.04719758 -0.06130500
vt 5.75958633 0.89759791
vt 6.02138615 -2.24399471
vt 5.49778700 0.00044500
vt 0.78539819 -2.46839428
vt 2.09439516 0.89759791
vt 1.04719758 -0.03675000
vt 2.09439516 -2.01959538
vt 3.40339208 -0.03200000
vt 0.52359879 0.00044500
vt 1.04719758 -0.03695000
vt 3.40339208 1.57079637
vt 6.54498482 0.22439948
usemtl Nobel
f 494/1 493/2 492/3
f 471/4 493/2 494/5
f 494/6 475/7 490/8
f 491/9 475/7 494/10
f 492/3 491/9 494/11
f 494/12 488/13 473/14
f 489/15 488/13 494/16
f 490/8 489/15 494/17
f 494/18 486/19 485/20
f 487/21 486/19 494/22
f 473/14 487/21 494/23
f 494/24 484/25 483/26
f 469/27 484/25 494/28
f 485/20 469/27 494/29
f 494/30 467/31 478/32
f 482/33 467/31 494/34
f 483/26 482/33 494/35
f 494/36 476/37 464/38
f 477/39 476/37 494/40
f 478/32 477/39 494/41
f 494/42 480/43 479/44
f 481/45 480/43 494/46
f 464/38 481/45 494/47
f 479/44 471/48 494/49
f 290/50 314/51 291/52
f 314/51 315/53 291/52
f 291/52 315/53 292/54
f 315/53 316/55 292/54
f 292/54 316/55 293/56
f 316/55 317/57 293/56
f 293/56 317/57 294/58
f 317/57 318/59 294/58
f 294/58 318/59 295/60
f 318/59 319/61 295/60
f 295/60 319/61 296/62
f 319/61 320/63 296/62
f 296/62 320/63 297/64
f 320/63 321/65 297/64
f 297/64 321/65 298/66
f 321/65 322/67 298/66
f 298/66 322/67 299/68
f 322/67 323/69 299/68
f 299/68 323/69 300/70
f 323/69 324/71 300/70
f 300/70 324/71 301/72
f 324/71 325/73 301/72
f 301/72 325/73 302/74
f 325/73 326/75 302/74
f 302/74 326/75 303/76
f 326/75 327/77 303/76
f 303/76 327/77 304/78
f 327/77 328/79 304/78
f 304/78 328/79 305/80
f 328/79 329/81 305/80
f 305/80 329/81 306/82
f 329/81 330/83 306/82
f 306/82 330/83 307/84
f 330/83 331/85 307/84
f 307/84 331/85 308/86
f 331/85 332/87 308/86
f 308/86 332/87 309/88
f 332/87 333/89 309/88
f 309/88 333/89 310/90
f 333/89 334/91 310/90
f 310/90 334/91 311/92
f 334/91 335/93 311/92
f 311/92 335/93 312/94
f 335/93 336/95 312/94
f 312/94 336/95 313/96
f 336/95 337/97 313/96
f 313/96 337/97 290/98
f 337/97 314/99 290/98
f 337/100 338/101 314/51
f 338/101 339/102 314/51
f 314/51 339/102 315/53
f 339/102 340/103 315/53
f 315/53 340/103 316/55
f 340/103 341/104 316/55
f 316/55 341/104 317/57
f 341/104 342/105 317/57
f 317/57 342/105 318/59
f 342/105 343/106 318/59
f 318/59 343/106 319/61
f 343/106 344/107 319/61
f 319/61 344/107 320/63
f 344/107 345/108 320/63
f 320/63 345/108 321/65
f 345/108 346/109 321/65
f 321/65 346/109 322/67
f 346/109 347/110 322/67
f 322/67 347/110 323/69
f 347/110 348/111 323/69
f 323/69 348/111 324/71
f 348/111 349/112 324/71
f 324/71 349/112 325/73
f 349/112 350/113 325/73
f 325/73 350/113 326/75
f 350/113 351/114 326/75
f 326/75 351/114 327/77
f 351/114 352/115 327/77
f 327/77 352/115 328/79
f 352/115 353/116 328/79
f 328/79 353/116 329/81
f 353/116 354/117 329/81
f 329/81 354/117 330/83
f 354/117 355/118 330/83
f 330/83 355/118 331/85
f 355/118 356/119 331/85
f 331/85 356/119 332/87
f 356/119 357/120 332/87
f 332/87 357/120 333/89
f 357/120 358/121 333/89
f 333/89 358/121 334/91
f 358/121 359/122 334/91
f 334/91 359/122 335/93
f 359/122 360/123 335/93
f 335/93 360/123 336/95
f 360/123 361/124 336/95
f 336/95 361/124 337/97
f 361/124 338/125 337/97
f 361/126 362/127 338/101
f 362/127 363/128 338/101
f 338/101 363/128 339/102
f 363/128 364/129 339/102
f 339/102 364/129 340/103
f 364/129 365/130 340/103
f 340/103 365/130 341/104
f 365/130 366/131 341/104
f 341/104 366/131 342/105
f 366/131 367/132 342/105
f 342/105 367/132 343/106
f 367/132 368/133 343/106
f 343/106 368/133 344/107
f 368/133 369/134 344/107
f 344/107 369/134 345/108
f 369/134 370/135 345/108
f 345/108 370/135 346/109
f 370/135 371/136 346/109
f 346/109 371/136 347/110
f 371/136 372/137 347/110
f 347/110 372/137 348/111
f 372/137 373/138 348/111
f 348/111 373/138 349/112
f 373/138 374/139 349/112
f 349/112 374/139 350/113
f 374/139 375/140 350/113
f 350/113 375/140 351/114
f 375/140 376/141 351/114
f 351/114 376/141 352/115
f 376/141 377/142 352/115
f 352/115 377/142 353/116
f 377/142 378/143 353/116
f 353/116 378/143 354/117
f 378/143 379/144 354/117
f 354/117 379/144 355/118
f 379/144 380/145 355/118
f 355/118 380/145 356/119
f 380/145 381/146 356/119
f 356/119 381/146 357/120
f 381/146 382/147 357/120
f 357/120 382/147 358/121
f 382/147 383/148 358/121
f 358/121 383/148 359/122
f 383/148 384/149 359/122
f 359/122 384/149 360/123
f 384/149 385/150 360/123
f 360/123 385/150 361/124
f 385/150 362/151 361/124
f 385/152 386/153 362/127
f 386/153 387/154 362/127
f 362/127 387/154 363/128
f 387/154 388/155 363/128
f 363/128 388/155 364/129
f 388/155 389/156 364/129
f 364/129 389/156 365/130
f 389/156 390/157 365/130
f 365/130 390/157 366/131
f 390/157 391/158 366/131
f 366/131 391/158 367/132
f 391/158 392/159 367/132
f 367/132 392/159 368/133
f 392/159 393/160 368/133
f 368/133 393/160 369/134
f 393/160 394/161 369/134
f 369/134 394/161 370/135
f 394/161 395/162 370/135
f 370/135 395/162 371/136
f 395/162 396/163 371/136
f 371/136 396/163 372/137
f 396/163 397/164 372/137
f 372/137 397/164 373/138
f 397/164 398/165 373/138
f 373/138 398/165 374/139
f 398/165 399/166 374/139
f 374/139 399/166 375/140
f 399/166 400/167 375/140
f 375/140 400/167 376/141
f 400/167 401/168 376/141
f 376/141 401/168 377/142
f 401/168 402/169 377/142
f 377/142 402/169 378/143
f 402/169 403/170 378/143
f 378/143 403/170 379/144
f 403/170 404/171 379/144
f 379/144 404/171 380/145
f 404/171 405/172 380/145
f 380/145 405/172 381/146
f 405/172 406/173 381/146
f 381/146 406/173 382/147
f 406/173 407/174 382/147
f 382/147 407/174 383/148
f 407/174 408/175 383/148
f 383/148 408/175 384/149
f 408/175 409/176 384/149
f 384/149 409/176 385/150
f 409/176 386/177 385/150
f 409/178 410/179 386/153
f 410/179 411/180 386/153
f 386/153 411/180 387/154
f 411/180 412/181 387/154
f 387/154 412/181 388/155
f 412/181 413/182 388/155
f 388/155 413/182 389/156
f 413/182 414/183 389/156
f 389/156 414/183 390/157
f 414/183 415/184 390/157
f 390/157 415/184 391/158
f 415/184 416/185 391/158
f 391/158 416/185 392/159
f 416/185 417/186 392/159
f 392/159 417/186 393/160
f 417/186 418/187 393/160
f 393/160 418/187 394/161
f 418/187 419/188 394/161
f 394/161 419/188 395/162
f 419/188 420/189 395/162
f 395/162 420/189 396/163
f 420/189 421/190 396/163
f 396/163 421/190 397/164
f 421/190 422/191 397/164
f 397/164 422/191 398/165
f 422/191 423/192 398/165
f 398/165 423/192 399/166
f 423/192 424/193 399/166
f 399/166 424/193 400/167
f 424/193 425/194 400/167
f 400/167 425/194 401/168
f 425/194 426/195 401/168
f 401/168 426/195 402/169
f 426/195 427/196 402/169
f 402/169 427/196 403/170
f 427/196 428/197 403/170
f 403/170 428/197 404/171
f 428/197 429/198 404/171
f 404/171 429/198 405/172
f 429/198 430/199 405/172
f 405/172 430/199 406/173
f 430/199 431/200 406/173
f 406/173 431/200 407/174
f 431/200 432/201 407/174
f 407/174 432/201 408/175
f 432/201 433/202 408/175
f 408/175 433/202 409/176
f 433/202 410/203 409/176
f 433/204 434/205 410/179
f 434/205 435/206 410/179
f 410/179 435/206 411/180
f 435/206 436/207 411/180
f 411/180 436/207 412/181
f 436/207 437/208 412/181
f 412/181 437/208 413/182
f 437/208 438/209 413/182
f 413/182 438/209 414/183
f 438/209 439/210 414/183
f 414/183 439/210 415/184
f 439/210 440/211 415/184
f 415/184 440/211 416/185
f 440/211 441/212 416/185
f 416/185 441/212 417/186
f 441/212 442/213 417/186
f 417/186 442/213 418/187
f 442/213 443/214 418/187
f 418/187 443/214 419/188
f 443/214 444/215 419/188
f 419/188 444/215 420/189
f 444/215 445/216 420/189
f 420/189 445/216 421/190
f 445/216 446/217 421/190
f 421/190 446/217 422/191
f 446/217 447/218 422/191
f 422/191 447/218 423/192
f 447/218 448/219 423/192
f 423/192 448/219 424/193
f 448/219 449/220 424/193
f 424/193 449/220 425/194
f 449/220 450/221 425/194
f 425/194 450/221 426/195
f 450/221 451/222 426/195
f 426/195 451/222 427/196
f 451/222 452/223 427/196
f 427/196 452/223 428/197
f 452/223 453/224 428/197
f 428/197 453/224 429/198
f 453/224 454/225 429/198
f 429/198 454/225 430/199
f 454/225 455/226 430/199
f 430/199 455/226 431/200
f 455/226 456/227 431/200
f 431/200 456/227 432/201
f 456/227 457/228 432/201
f 432/201 457/228 433/202
f 457/228 434/229 433/202
f 457/230 267/231 434/205
f 267/231 268/232 434/205
f 434/205 268/232 435/206
f 268/232 269/233 435/206
f 435/206 269/233 436/207
f 269/233 270/234 436/207
f 436/207 270/234 437/208
f 270/234 271/235 437/208
f 437/208 271/235 438/209
f 271/235 272/236 438/209
f 438/209 272/236 439/210
f 272/236 273/237 439/210
f 439/210 273/237 440/211
f 273/237 274/238 440/211
f 440/211 274/238 441/212
f 274/238 275/239 441/212
f 441/212 275/239 442/213
f 275/239 276/240 442/213
f 442/213 276/240 443/214
f 276/240 277/241 443/214
f 443/214 277/241 444/215
f 277/241 278/242 444/215
f 444/215 278/242 445/216
f 278/242 279/243 445/216
f 445/216 279/243 446/217
f 279/243 280/244 446/217
f 446/217 280/244 447/218
f 280/244 281/245 447/218
f 447/218 281/245 448/219
f 281/245 282/246 448/219
f 448/219 282/246 449/220
f 282/246 283/247 449/220
f 449/220 283/247 450/221
f 283/247 284/248 450/221
f 450/221 284/248 451/222
f 284/248 285/249 451/222
f 451/222 285/249 452/223
f 285/249 286/250 452/223
f 452/223 286/250 453/224
f 286/250 287/251 453/224
f 453/224 287/251 454/225
f 287/251 288/252 454/225
f 454/225 288/252 455/226
f 288/252 289/253 455/226
f 455/226 289/253 456/227
f 289/253 266/254 456/227
f 456/227 266/254 457/228
f 266/254 267/255 457/228
f 61/256 98/257 60/258
f 98/257 99/259 60/258
f 60/258 99/259 59/260
f 99/259 100/261 59/260
f 59/260 100/261 58/262
f 100/261 101/263 58/262
f 58/262 101/263 57/264
f 101/263 102/265 57/264
f 57/264 102/265 56/266
f 102/265 103/267 56/266
f 56/266 103/267 55/268
f 103/267 104/269 55/268
f 55/268 104/269 54/270
f 104/269 105/271 54/270
f 54/270 105/271 53/272
f 105/271 106/273 53/272
f 53/272 106/273 52/274
f 106/273 107/275 52/274
f 52/274 107/275 51/276
f 107/275 108/277 51/276
f 51/276 108/277 50/278
f 108/277 109/279 50/278
f 50/278 109/279 73/280
f 109/279 110/281 73/280
f 73/280 110/281 72/282
f 110/281 111/283 72/282
f 72/282 111/283 71/284
f 111/283 112/285 71/284
f 71/284 112/285 70/286
f 112/285 113/287 70/286
f 70/286 113/287 69/288
f 113/287 114/289 69/288
f 69/288 114/289 68/290
f 114/289 115/291 68/290
f 68/290 115/291 67/292
f 115/291 116/293 67/292
f 67/292 116/293 66/294
f 116/293 117/295 66/294
f 66/294 117/295 65/296
f 117/295 118/297 65/296
f 65/296 118/297 64/298
f 118/297 119/299 64/298
f 64/298 119/299 63/300
f 119/299 120/301 63/300
f 63/300 120/301 62/302
f 120/301 121/303 62/302
f 62/302 121/303 61/304
f 121/303 98/305 61/304
f 98/257 122/306 99/259
f 122/306 123/307 99/259
f 99/259 123/307 100/261
f 123/307 124/308 100/261
f 100/261 124/308 101/263
f 124/308 125/309 101/263
f 101/263 125/309 102/265
f 125/309 126/310 102/265
f 102/265 126/310 103/267
f 126/310 127/311 103/267
f 103/267 127/311 104/269
f 127/311 128/312 104/269
f 104/269 128/312 105/271
f 128/312 129/313 105/271
f 105/271 129/313 106/273
f 129/313 130/314 106/273
f 106/273 130/314 107/275
f 130/314 131/315 107/275
f 107/275 131/315 108/277
f 131/315 132/316 108/277
f 108/277 132/316 109/279
f 132/316 133/317 109/279
f 109/279 133/317 110/281
f 133/317 134/318 110/281
f 110/281 134/318 111/283
f 134/318 135/319 111/283
f 111/283 135/319 112/285
f 135/319 136/320 112/285
f 112/285 136/320 113/287
f 136/320 137/321 113/287
f 113/287 137/321 114/289
f 137/321 138/322 114/289
f 114/289 138/322 115/291
f 138/322 139/323 115/291
f 115/291 139/323 116/293
f 139/323 140/324 116/293
f 116/293 140/324 117/295
f 140/324 141/325 117/295
f 117/295 141/325 118/297
f 141/325 142/326 118/297
f 118/297 142/326 119/299
f 142/326 143/327 119/299
f 119/299 143/327 120/301
f 143/327 144/328 120/301
f 120/301 144/328 121/303
f 144/328 145/329 121/303
f 121/303 145/329 98/305
f 145/329 122/330 98/305
f 122/306 146/331 123/307
f 146/331 147/332 123/307
f 123/307 147/332 124/308
f 147/332 148/333 124/308
f 124/308 148/333 125/309
f 148/333 149/334 125/309
f 125/309 149/334 126/310
f 149/334 150/335 126/310
f 126/310 150/335 127/311
f 150/335 151/336 127/311
f 127/311 151/336 128/312
f 151/336 152/337 128/312
f 128/312 152/337 129/313
f 152/337 153/338 129/313
f 129/313 153/338 130/314
f 153/338 154/339 130/314
f 130/314 154/339 131/315
f 154/339 155/340 131/315
f 131/315 155/340 132/316
f 155/340 156/341 132/316
f 132/316 156/341 133/317
f 156/341 157/342 133/317
f 133/317 157/342 134/318
f 157/342 158/343 134/318
f 134/318 158/343 135/319
f 158/343 159/344 135/319
f 135/319 159/344 136/320
f 159/344 160/345 136/320
f 136/320 160/345 137/321
f 160/345 161/346 137/321
f 137/321 161/346 138/322
f 161/346 162/347 138/322
f 138/322 162/347 139/323
f 162/347 163/348 139/323
f 139/323 163/348 140/324
f 163/348 164/349 140/324
f 140/324 164/349 141/325
f 164/349 165/350 141/325
f 141/325 165/350 142/326
f 165/350 166/351 142/326
f 142/326 166/351 143/327
f 166/351 167/352 143/327
f 143/327 167/352 144/328
f 167/352 168/353 144/328
f 144/328 168/353 145/329
f 168/353 169/354 145/329
f 145/329 169/354 122/330
f 169/354 146/355 122/330
f 146/331 170/356 147/332
f 170/356 171/357 147/332
f 147/332 171/357 148/333
f 171/357 172/358 148/333
f 148/333 172/358 149/334
f 172/358 173/359 149/334
f 149/334 173/359 150/335
f 173/359 174/360 150/335
f 150/335 174/360 151/336
f 174/360 175/361 151/336
f 151/336 175/361 152/337
f 175/361 176/362 152/337
f 152/337 176/362 153/338
f 176/362 177/363 153/338
f 153/338 177/363 154/339
f 177/363 178/364 154/339
f 154/339 178/364 155/340
f 178/364 179/365 155/340
f 155/340 179/365 156/341
f 179/365 180/366 156/341
f 156/341 180/366 157/342
f 180/366 181/367 157/342
f 157/342 181/367 158/343
f 181/367 182/368 158/343
f 158/343 182/368 159/344
f 182/368 183/369 159/344
f 159/344 183/369 160/345
f 183/369 184/370 160/345
f 160/345 184/370 161/346
f 184/370 185/371 161/346
f 161/346 185/371 162/347
f 185/371 186/372 162/347
f 162/347 186/372 163/348
f 186/372 187/373 163/348
f 163/348 187/373 164/349
f 187/373 188/374 164/349
f 164/349 188/374 165/350
f 188/374 189/375 165/350
f 165/350 189/375 166/351
f 189/375 190/376 166/351
f 166/351 190/376 167/352
f 190/376 191/377 167/352
f 167/352 191/377 168/353
f 191/377 192/378 168/353
f 168/353 192/378 169/354
f 192/378 193/379 169/354
f 169/354 193/379 146/355
f 193/379 170/380 146/355
f 170/356 194/381 171/357
f 194/381 195/382 171/357
f 171/357 195/382 172/358
f 195/382 196/383 172/358
f 172/358 196/383 173/359
f 196/383 197/384 173/359
f 173/359 197/384 174/360
f 197/384 198/385 174/360
f 174/360 198/385 175/361
f 198/385 199/386 175/361
f 175/361 199/386 176/362
f 199/386 200/387 176/362
f 176/362 200/387 177/363
f 200/387 201/388 177/363
f 177/363 201/388 178/364
f 201/388 202/389 178/364
f 178/364 202/389 179/365
f 202/389 203/390 179/365
f 179/365 203/390 180/366
f 203/390 204/391 180/366
f 180/366 204/391 181/367
f 204/391 205/392 181/367
f 181/367 205/392 182/368
f 205/392 206/393 182/368
f 182/368 206/393 183/369
f 206/393 207/394 183/369
f 183/369 207/394 184/370
f 207/394 208/395 184/370
f 184/370 208/395 185/371
f 208/395 209/396 185/371
f 185/371 209/396 186/372
f 209/396 210/397 186/372
f 186/372 210/397 187/373
f 210/397 211/398 187/373
f 187/373 211/398 188/374
f 211/398 212/399 188/374
f 188/374 212/399 189/375
f 212/399 213/400 189/375
f 189/375 213/400 190/376
f 213/400 214/401 190/376
f 190/376 214/401 191/377
f 214/401 215/402 191/377
f 191/377 215/402 192/378
f 215/402 216/403 192/378
f 192/378 216/403 193/379
f 216/403 217/404 193/379
f 193/379 217/404 170/380
f 217/404 194/405 170/380
f 194/381 218/406 195/382
f 218/406 219/407 195/382
f 195/382 219/407 196/383
f 219/407 220/408 196/383
f 196/383 220/408 197/384
f 220/408 221/409 197/384
f 197/384 221/409 198/385
f 221/409 222/410 198/385
f 198/385 222/410 199/386
f 222/410 223/411 199/386
f 199/386 223/411 200/387
f 223/411 224/412 200/387
f 200/387 224/412 201/388
f 224/412 225/413 201/388
f 201/388 225/413 202/389
f 225/413 226/414 202/389
f 202/389 226/414 203/390
f 226/414 227/415 203/390
f 203/390 227/415 204/391
f 227/415 228/416 204/391
f 204/391 228/416 205/392
f 228/416 229/417 205/392
f 205/392 229/417 206/393
f 229/417 230/418 206/393
f 206/393 230/418 207/394
f 230/418 231/419 207/394
f 207/394 231/419 208/395
f 231/419 232/420 208/395
f 208/395 232/420 209/396
f 232/420 233/421 209/396
f 209/396 233/421 210/397
f 233/421 234/422 210/397
f 210/397 234/422 211/398
f 234/422 235/423 211/398
f 211/398 235/423 212/399
f 235/423 236/424 212/399
f 212/399 236/424 213/400
f 236/424 237/425 213/400
f 213/400 237/425 214/401
f 237/425 238/426 214/401
f 214/401 238/426 215/402
f 238/426 239/427 215/402
f 215/402 239/427 216/403
f 239/427 240/428 216/403
f 216/403 240/428 217/404
f 240/428 241/429 217/404
f 217/404 241/429 194/405
f 241/429 218/430 194/405
f 218/406 75/431 219/407
f 75/431 76/432 219/407
f 219/407 76/432 220/408
f 76/432 77/433 220/408
f 220/408 77/433 221/409
f 77/433 78/434 221/409
f 221/409 78/434 222/410
f 78/434 79/435 222/410
f 222/410 79/435 223/411
f 79/435 80/436 223/411
f 223/411 80/436 224/412
f 80/436 81/437 224/412
f 224/412 81/437 225/413
f 81/437 82/438 225/413
f 225/413 82/438 226/414
f 82/438 83/439 226/414
f 226/414 83/439 227/415
f 83/439 84/440 227/415
f 227/415 84/440 228/416
f 84/440 85/441 228/416
f 228/416 85/441 229/417
f 85/441 86/442 229/417
f 229/417 86/442 230/418
f 86/442 87/443 230/418
f 230/418 87/443 231/419
f 87/443 88/444 231/419
f 231/419 88/444 232/420
f 88/444 89/445 232/420
f 232/420 89/445 233/421
f 89/445 90/446 233/421
f 233/421 90/446 234/422
f 90/446 91/447 234/422
f 234/422 91/447 235/423
f 91/447 92/448 235/423
f 235/423 92/448 236/424
f 92/448 93/449 236/424
f 236/424 93/449 237/425
f 93/449 94/450 237/425
f 237/425 94/450 238/426
f 94/450 95/451 238/426
f 238/426 95/451 239/427
f 95/451 96/452 239/427
f 239/427 96/452 240/428
f 96/452 97/453 240/428
f 240/428 97/453 241/429
f 97/453 74/454 241/429
f 241/429 74/454 218/430
f 74/454 75/455 218/430
f 26/456 24/457 27/458
f 24/457 23/459 27/458
f 27/458 23/459 28/460
f 23/459 22/461 28/460
f 28/460 22/461 29/462
f 22/461 21/463 29/462
f 29/462 21/463 30/464
f 21/463 20/465 30/464
f 30/464 20/465 31/466
f 20/465 19/467 31/466
f 31/466 19/467 32/468
f 19/467 18/469 32/468
f 32/468 18/469 33/470
f 18/469 17/471 33/470
f 33/470 17/471 34/472
f 17/471 16/473 34/472
f 34/472 16/473 35/474
f 16/473 15/475 35/474
f 35/474 15/475 36/476
f 15/475 14/477 36/476
f 36/476 14/477 37/478
f 14/477 13/479 37/478
f 37/478 13/479 38/480
f 13/479 12/481 38/480
f 38/480 12/481 39/482
f 12/481 11/483 39/482
f 39/482 11/483 40/484
f 11/483 10/485 40/484
f 40/484 10/485 41/486
f 10/485 9/487 41/486
f 41/486 9/487 42/488
f 9/487 8/489 42/488
f 42/488 8/489 43/490
f 8/489 7/491 43/490
f 43/490 7/491 44/492
f 7/491 6/493 44/492
f 44/492 6/493 45/494
f 6/493 5/495 45/494
f 45/494 5/495 46/496
f 5/495 4/497 46/496
f 46/496 4/497 47/498
f 4/497 3/499 47/498
f 47/498 3/499 48/500
f 3/499 2/501 48/500
f 48/500 2/501 49/502
f 2/501 1/503 49/502
f 49/502 1/503 26/504
f 1/503 24/505 26/504
f 50/506 27/507 51/508
f 27/507 28/509 51/508
f 51/508 28/509 52/510
f 28/509 29/511 52/510
f 52/510 29/511 53/512
f 29/511 30/513 53/512
f 53/512 30/513 54/514
f 30/513 31/515 54/514
f 54/514 31/515 55/516
f 31/515 32/517 55/516
f 55/516 32/517 56/518
f 32/517 33/519 56/518
f 56/518 33/519 57/520
f 33/519 34/521 57/520
f 57/520 34/521 58/522
f 34/521 35/523 58/522
f 58/522 35/523 59/524
f 35/523 36/525 59/524
f 59/524 36/525 60/526
f 36/525 37/527 60/526
f 60/526 37/527 61/528
f 37/527 38/529 61/528
f 61/528 38/529 62/530
f 38/529 39/531 62/530
f 62/530 39/531 63/532
f 39/531 40/533 63/532
f 63/532 40/533 64/534
f 40/533 41/535 64/534
f 64/534 41/535 65/536
f 41/535 42/537 65/536
f 65/536 42/537 66/538
f 42/537 43/539 66/538
f 66/538 43/539 67/540
f 43/539 44/541 67/540
f 67/540 44/541 68/542
f 44/541 45/543 68/542
f 68/542 45/543 69/544
f 45/543 46/545 69/544
f 69/544 46/545 70/546
f 46/545 47/547 70/546
f 70/546 47/547 71/548
f 47/547 48/549 71/548
f 71/548 48/549 72/550
f 48/549 49/551 72/550
f 72/550 49/551 73/552
f 49/551 26/553 73/552
f 73/552 26/553 50/554
f 26/553 27/555 50/554
f 470/556 461/557 469/558
f 461/557 463/559 469/558
f 469/558 463/559 468/560
f 465/556 459/561 471/562
f 459/561 458/559 471/562
f 471/562 458/559 472/563
f 472/564 475/565 491/566
f 491/566 492/567 472/564
f 492/567 493/568 472/564
f 472/564 493/568 471/569
f 474/570 473/571 488/572
f 488/572 489/573 474/570
f 489/573 490/574 474/570
f 474/570 490/574 475/565
f 472/575 458/559 475/576
f 458/559 460/577 475/576
f 475/576 460/577 474/556
f 474/556 460/578 473/579
f 460/578 461/559 473/579
f 473/579 461/559 470/580
f 470/581 469/582 485/583
f 485/583 486/584 470/581
f 486/584 487/585 470/581
f 470/581 487/585 473/571
f 468/586 467/587 482/588
f 482/588 483/589 468/586
f 483/589 484/590 468/586
f 468/586 484/590 469/582
f 468/591 463/559 467/592
f 463/559 462/593 467/592
f 467/592 462/593 466/556
f 466/580 462/559 464/579
f 462/559 459/578 464/579
f 464/579 459/578 465/556
f 465/594 471/569 479/595
f 479/595 480/596 465/594
f 480/596 481/597 465/594
f 465/594 481/597 464/598
f 466/599 464/598 476/600
f 476/600 477/601 466/599
f 477/601 478/602 466/599
f 466/599 478/602 467/587
f 22/603 23/604 25/605
f 23/604 24/606 25/605
f 25/605 24/606 1/607
f 19/608 20/609 25/605
f 20/609 21/610 25/605
f 25/605 21/610 22/603
f 16/611 17/612 25/605
f 17/612 18/613 25/605
f 25/605 18/613 19/608
f 13/614 14/615 25/605
f 14/615 15/616 25/605
f 25/605 15/616 16/611
f 10/617 11/618 25/605
f 11/618 12/619 25/605
f 25/605 12/619 13/614
f 7/620 8/621 25/605
f 8/621 9/622 25/605
f 25/605 9/622 10/617
f 4/623 5/624 25/605
f 5/624 6/625 25/605
f 25/605 6/625 7/620
f 1/607 2/626 25/605
f 2/626 3/627 25/605
f 25/605 3/627 4/623
f 84/628 243/629 85/630
f 243/629 244/631 85/630
f 85/630 244/631 86/632
f 244/631 245/633 86/632
f 86/632 245/633 87/634
f 245/633 246/635 87/634
f 87/634 246/635 88/636
f 246/635 249/637 88/636
f 88/636 249/637 89/638
f 249/637 247/639 89/638
f 89/638 247/639 90/640
f 247/639 248/641 90/640
f 90/640 248/641 91/642
f 248/641 250/643 91/642
f 91/642 250/643 92/644
f 250/643 253/645 92/644
f 92/644 253/645 93/646
f 253/645 254/647 93/646
f 93/646 254/647 94/648
f 254/647 251/649 94/648
f 94/648 251/649 95/650
f 251/649 252/651 95/650
f 95/650 252/651 96/652
f 252/651 255/653 96/652
f 96/652 255/653 97/654
f 255/653 256/655 97/654
f 97/654 256/655 74/656
f 256/655 261/657 74/656
f 74/656 261/657 75/658
f 261/657 262/659 75/658
f 75/658 262/659 76/660
f 262/659 257/661 76/660
f 76/660 257/661 77/662
f 257/661 258/663 77/662
f 77/662 258/663 78/664
f 258/663 259/665 78/664
f 78/664 259/665 79/666
f 259/665 260/667 79/666
f 79/666 260/667 80/668
f 260/667 263/669 80/668
f 80/668 263/669 81/670
f 263/669 264/671 81/670
f 81/670 264/671 82/672
f 264/671 265/673 82/672
f 82/672 265/673 83/674
f 265/673 242/675 83/674
f 83/674 242/675 84/628
f 242/675 243/629 84/628
f 300/676 301/677 461/678
f 301/677 302/679 461/678
f 461/678 302/679 463/570
f 302/679 303/680 463/570
f 463/570 303/680 304/681
f 304/681 305/682 463/570
f 305/682 306/683 463/570
f 463/570 306/683 462/684
f 306/683 307/685 462/684
f 462/684 307/685 308/686
f 308/686 309/687 462/684
f 309/687 310/688 462/684
f 462/684 310/688 459/689
f 310/688 311/690 459/689
f 459/689 311/690 312/691
f 296/692 297/693 460/694
f 297/693 298/695 460/694
f 460/694 298/695 461/678
f 298/695 299/696 461/678
f 461/678 299/696 300/676
f 292/697 293/698 458/699
f 293/698 294/700 458/699
f 458/699 294/700 460/694
f 294/700 295/701 460/694
f 460/694 295/701 296/692
f 312/691 313/702 459/689
f 313/702 290/703 459/689
f 459/689 290/703 458/699
f 290/703 291/704 458/699
f 458/699 291/704 292/697
f 266/705 244/706 267/707
f 244/706 243/708 267/707
f 267/707 243/708 268/709
f 243/708 242/710 268/709
f 268/709 242/710 269/711
f 242/710 265/712 269/711
f 269/711 265/712 270/713
f 265/712 264/714 270/713
f 270/713 264/714 271/715
f 264/714 263/716 271/715
f 271/715 263/716 272/717
f 263/716 260/718 272/717
f 272/717 260/718 273/719
f 260/718 259/720 273/719
f 273/719 259/720 274/721
f 259/720 258/722 274/721
f 274/721 258/722 275/723
f 258/722 257/724 275/723
f 275/723 257/724 276/725
f 257/724 262/726 276/725
f 276/725 262/726 277/727
f 262/726 261/728 277/727
f 277/727 261/728 278/729
f 261/728 256/730 278/729
f 278/729 256/730 279/731
f 256/730 255/732 279/731
f 279/731 255/732 280/733
f 255/732 252/734 280/733
f 280/733 252/734 281/735
f 252/734 251/736 281/735
f 281/735 251/736 282/737
f 251/736 254/738 282/737
f 282/737 254/738 283/739
f 254/738 253/740 283/739
f 283/739 253/740 284/741
f 253/740 250/742 284/741
f 284/741 250/742 285/743
f 250/742 248/744 285/743
f 285/743 248/744 286/745
f 248/744 247/746 286/745
f 286/745 247/746 287/747
f 247/746 249/748 287/747
f 287/747 249/748 288/749
f 249/748 246/750 288/749
f 288/749 246/750 289/751
f 246/750 245/752 289/751
f 289/751 245/752 266/753
f 245/752 244/754 266/753
