# Exported from USD: /World/Robotiq_Hand_E_edit/base_link/socket_head_cap_screw_iso_robotiq_7ROBOTIQ_HAND_E_DEFEATURE/socket_head_cap_screw_iso_robotiq_7ROBOTIQ_HAND_E_DEFEATURE
mtllib D_A03_ASM_DOIGTS_PARALLELES_1ROBOTIQ_HAND_E_DEFEATURE.mtl

g socket_head_cap_screw_iso_robotiq_7ROBOTIQ_HAND_E_DEFEATURE
v -0.01747082 -0.09100000 -0.02556483
v -0.01779215 -0.09100000 -0.02599441
v -0.01799135 -0.09100000 -0.02649251
v -0.01805484 -0.09100000 -0.02702521
v -0.01797830 -0.09100000 -0.02755618
v -0.01776695 -0.09100000 -0.02804925
v -0.01743517 -0.09100000 -0.02847082
v -0.01700559 -0.09100000 -0.02879215
v -0.01650749 -0.09100000 -0.02899135
v -0.01597480 -0.09100000 -0.02905484
v -0.01544382 -0.09100000 -0.02897830
v -0.01495075 -0.09100000 -0.02876695
v -0.01452918 -0.09100000 -0.02843517
v -0.01420785 -0.09100000 -0.02800559
v -0.01400865 -0.09100000 -0.02750749
v -0.01394515 -0.09100000 -0.02697480
v -0.01402170 -0.09100000 -0.02644382
v -0.01423305 -0.09100000 -0.02595075
v -0.01456483 -0.09100000 -0.02552918
v -0.01499441 -0.09100000 -0.02520785
v -0.01549251 -0.09100000 -0.02500865
v -0.01602520 -0.09100000 -0.02494515
v -0.01655618 -0.09100000 -0.02502169
v -0.01704925 -0.09100000 -0.02523305
v -0.01600000 -0.09100000 -0.02700000
v -0.01778932 -0.09055500 -0.02525405
v -0.01727646 -0.09055500 -0.02485043
v -0.01667662 -0.09055500 -0.02459330
v -0.01603066 -0.09055500 -0.02450019
v -0.01538262 -0.09055500 -0.02457743
v -0.01477665 -0.09055500 -0.02481977
v -0.01425405 -0.09055500 -0.02521068
v -0.01385043 -0.09055500 -0.02572354
v -0.01359330 -0.09055500 -0.02632338
v -0.01350019 -0.09055500 -0.02696934
v -0.01357743 -0.09055500 -0.02761738
v -0.01381977 -0.09055500 -0.02822335
v -0.01421068 -0.09055500 -0.02874595
v -0.01472354 -0.09055500 -0.02914957
v -0.01532338 -0.09055500 -0.02940670
v -0.01596934 -0.09055500 -0.02949981
v -0.01661738 -0.09055500 -0.02942257
v -0.01722335 -0.09055500 -0.02918023
v -0.01774595 -0.09055500 -0.02878932
v -0.01814957 -0.09055500 -0.02827646
v -0.01840670 -0.09055500 -0.02767662
v -0.01849981 -0.09055500 -0.02703066
v -0.01842257 -0.09055500 -0.02638262
v -0.01818023 -0.09055500 -0.02577665
v -0.01778932 -0.06620000 -0.02525405
v -0.01727646 -0.06620000 -0.02485043
v -0.01667662 -0.06620000 -0.02459330
v -0.01603066 -0.06620000 -0.02450019
v -0.01538262 -0.06620000 -0.02457743
v -0.01477665 -0.06620000 -0.02481977
v -0.01425405 -0.06620000 -0.02521068
v -0.01385043 -0.06620000 -0.02572354
v -0.01359330 -0.06620000 -0.02632338
v -0.01350019 -0.06620000 -0.02696934
v -0.01357743 -0.06620000 -0.02761738
v -0.01381977 -0.06620000 -0.02822335
v -0.01421068 -0.06620000 -0.02874595
v -0.01472354 -0.06620000 -0.02914957
v -0.01532338 -0.06620000 -0.02940670
v -0.01596934 -0.06620000 -0.02949981
v -0.01661738 -0.06620000 -0.02942257
v -0.01722335 -0.06620000 -0.02918023
v -0.01774595 -0.06620000 -0.02878932
v -0.01814957 -0.06620000 -0.02827646
v -0.01840670 -0.06620000 -0.02767662
v -0.01849981 -0.06620000 -0.02703066
v -0.01842257 -0.06620000 -0.02638262
v -0.01818023 -0.06620000 -0.02577665
v -0.01406754 -0.06600000 -0.02888563
v -0.01364535 -0.06600000 -0.02832122
v -0.01338363 -0.06600000 -0.02766677
v -0.01330020 -0.06600000 -0.02696688
v -0.01340077 -0.06600000 -0.02626925
v -0.01367847 -0.06600000 -0.02562142
v -0.01411437 -0.06600000 -0.02506754
v -0.01467878 -0.06600000 -0.02464535
v -0.01533323 -0.06600000 -0.02438363
v -0.01603312 -0.06600000 -0.02430020
v -0.01673075 -0.06600000 -0.02440077
v -0.01737858 -0.06600000 -0.02467846
v -0.01793246 -0.06600000 -0.02511437
v -0.01835465 -0.06600000 -0.02567878
v -0.01861637 -0.06600000 -0.02633323
v -0.01869980 -0.06600000 -0.02703312
v -0.01859923 -0.06600000 -0.02773075
v -0.01832153 -0.06600000 -0.02837858
v -0.01788563 -0.06600000 -0.02893246
v -0.01732122 -0.06600000 -0.02935465
v -0.01666677 -0.06600000 -0.02961637
v -0.01596688 -0.06600000 -0.02969980
v -0.01526925 -0.06600000 -0.02959923
v -0.01462142 -0.06600000 -0.02932153
v -0.01381382 -0.06614824 -0.02822668
v -0.01357083 -0.06614824 -0.02761906
v -0.01349337 -0.06614824 -0.02696925
v -0.01358674 -0.06614824 -0.02632154
v -0.01384457 -0.06614824 -0.02572006
v -0.01424929 -0.06614824 -0.02520581
v -0.01477331 -0.06614824 -0.02481383
v -0.01538094 -0.06614824 -0.02457083
v -0.01603075 -0.06614824 -0.02449337
v -0.01667846 -0.06614824 -0.02458674
v -0.01727994 -0.06614824 -0.02484457
v -0.01779419 -0.06614824 -0.02524929
v -0.01818618 -0.06614824 -0.02577331
v -0.01842917 -0.06614824 -0.02638094
v -0.01850663 -0.06614824 -0.02703075
v -0.01841326 -0.06614824 -0.02767846
v -0.01815543 -0.06614824 -0.02827994
v -0.01775071 -0.06614824 -0.02879419
v -0.01722668 -0.06614824 -0.02918618
v -0.01661906 -0.06614824 -0.02942917
v -0.01596925 -0.06614824 -0.02950663
v -0.01532154 -0.06614824 -0.02941326
v -0.01472006 -0.06614824 -0.02915543
v -0.01420581 -0.06614824 -0.02875071
v -0.01379640 -0.06610000 -0.02823646
v -0.01355147 -0.06610000 -0.02762400
v -0.01347340 -0.06610000 -0.02696901
v -0.01356751 -0.06610000 -0.02631613
v -0.01382739 -0.06610000 -0.02570986
v -0.01423534 -0.06610000 -0.02519151
v -0.01476354 -0.06610000 -0.02479640
v -0.01537600 -0.06610000 -0.02455147
v -0.01603099 -0.06610000 -0.02447340
v -0.01668387 -0.06610000 -0.02456751
v -0.01729014 -0.06610000 -0.02482739
v -0.01780849 -0.06610000 -0.02523533
v -0.01820360 -0.06610000 -0.02576354
v -0.01844853 -0.06610000 -0.02637600
v -0.01852660 -0.06610000 -0.02703099
v -0.01843249 -0.06610000 -0.02768387
v -0.01817261 -0.06610000 -0.02829014
v -0.01776467 -0.06610000 -0.02880849
v -0.01723646 -0.06610000 -0.02920360
v -0.01662400 -0.06610000 -0.02944853
v -0.01596901 -0.06610000 -0.02952660
v -0.01531613 -0.06610000 -0.02943249
v -0.01470986 -0.06610000 -0.02917261
v -0.01419151 -0.06610000 -0.02876467
v -0.01376868 -0.06605858 -0.02825201
v -0.01352067 -0.06605858 -0.02763185
v -0.01344161 -0.06605858 -0.02696862
v -0.01353691 -0.06605858 -0.02630753
v -0.01380006 -0.06605858 -0.02569363
v -0.01421314 -0.06605858 -0.02516876
v -0.01474798 -0.06605858 -0.02476868
v -0.01536815 -0.06605858 -0.02452067
v -0.01603138 -0.06605858 -0.02444161
v -0.01669247 -0.06605858 -0.02453691
v -0.01730637 -0.06605858 -0.02480006
v -0.01783124 -0.06605858 -0.02521314
v -0.01823132 -0.06605858 -0.02574798
v -0.01847933 -0.06605858 -0.02636815
v -0.01855839 -0.06605858 -0.02703138
v -0.01846309 -0.06605858 -0.02769247
v -0.01819994 -0.06605858 -0.02830637
v -0.01778686 -0.06605858 -0.02883124
v -0.01725201 -0.06605858 -0.02923132
v -0.01663185 -0.06605858 -0.02947933
v -0.01596862 -0.06605858 -0.02955839
v -0.01530753 -0.06605858 -0.02946309
v -0.01469363 -0.06605858 -0.02919994
v -0.01416876 -0.06605858 -0.02878686
v -0.01373256 -0.06602679 -0.02827228
v -0.01348053 -0.06602679 -0.02764207
v -0.01340020 -0.06602679 -0.02696811
v -0.01349704 -0.06602679 -0.02629632
v -0.01376445 -0.06602679 -0.02567248
v -0.01418421 -0.06602679 -0.02513911
v -0.01472772 -0.06602679 -0.02473256
v -0.01535792 -0.06602679 -0.02448053
v -0.01603189 -0.06602679 -0.02440020
v -0.01670368 -0.06602679 -0.02449704
v -0.01732752 -0.06602679 -0.02476445
v -0.01786089 -0.06602679 -0.02518421
v -0.01826744 -0.06602679 -0.02572772
v -0.01851947 -0.06602679 -0.02635792
v -0.01859980 -0.06602679 -0.02703189
v -0.01850296 -0.06602679 -0.02770368
v -0.01823555 -0.06602679 -0.02832752
v -0.01781579 -0.06602679 -0.02886089
v -0.01727228 -0.06602679 -0.02926744
v -0.01664208 -0.06602679 -0.02951947
v -0.01596811 -0.06602679 -0.02959980
v -0.01529632 -0.06602679 -0.02950296
v -0.01467248 -0.06602679 -0.02923555
v -0.01413911 -0.06602679 -0.02881579
v -0.01369049 -0.06600682 -0.02829589
v -0.01343379 -0.06600682 -0.02765399
v -0.01335196 -0.06600682 -0.02696752
v -0.01345060 -0.06600682 -0.02628326
v -0.01372297 -0.06600682 -0.02564785
v -0.01415052 -0.06600682 -0.02510459
v -0.01470411 -0.06600682 -0.02469049
v -0.01534601 -0.06600682 -0.02443379
v -0.01603248 -0.06600682 -0.02435196
v -0.01671674 -0.06600682 -0.02445060
v -0.01735215 -0.06600682 -0.02472297
v -0.01789541 -0.06600682 -0.02515052
v -0.01830951 -0.06600682 -0.02570411
v -0.01856621 -0.06600682 -0.02634601
v -0.01864804 -0.06600682 -0.02703248
v -0.01854940 -0.06600682 -0.02771674
v -0.01827703 -0.06600682 -0.02835215
v -0.01784948 -0.06600682 -0.02889541
v -0.01729589 -0.06600682 -0.02930951
v -0.01665399 -0.06600682 -0.02956621
v -0.01596752 -0.06600682 -0.02964804
v -0.01528326 -0.06600682 -0.02954940
v -0.01464785 -0.06600682 -0.02927703
v -0.01410459 -0.06600682 -0.02884948
v -0.01175032 -0.06600000 -0.02694787
v -0.01190862 -0.06600000 -0.02584975
v -0.01594787 -0.06600000 -0.03124968
v -0.01484975 -0.06600000 -0.03109138
v -0.01383002 -0.06600000 -0.03065427
v -0.01295816 -0.06600000 -0.02996812
v -0.01188163 -0.06600000 -0.02804955
v -0.01234573 -0.06600000 -0.02483002
v -0.01807970 -0.06600000 -0.03070639
v -0.01704955 -0.06600000 -0.03111837
v -0.01229361 -0.06600000 -0.02907970
v -0.01303188 -0.06600000 -0.02395816
v -0.01392030 -0.06600000 -0.02329361
v -0.01495045 -0.06600000 -0.02288163
v -0.01896812 -0.06600000 -0.03004184
v -0.01605213 -0.06600000 -0.02275032
v -0.01715025 -0.06600000 -0.02290861
v -0.01816998 -0.06600000 -0.02334573
v -0.01904184 -0.06600000 -0.02403188
v -0.01970639 -0.06600000 -0.02492030
v -0.02024968 -0.06600000 -0.02705213
v -0.02009138 -0.06600000 -0.02815025
v -0.01965427 -0.06600000 -0.02916998
v -0.02011837 -0.06600000 -0.02595045
v -0.01904184 -0.06125000 -0.02403188
v -0.01816998 -0.06125000 -0.02334573
v -0.01715025 -0.06125000 -0.02290861
v -0.01605213 -0.06125000 -0.02275032
v -0.01495045 -0.06125000 -0.02288163
v -0.01392030 -0.06125000 -0.02329361
v -0.01303188 -0.06125000 -0.02395816
v -0.01234573 -0.06125000 -0.02483002
v -0.01190862 -0.06125000 -0.02584975
v -0.01175032 -0.06125000 -0.02694787
v -0.01188163 -0.06125000 -0.02804955
v -0.01229361 -0.06125000 -0.02907970
v -0.01295816 -0.06125000 -0.02996812
v -0.01383002 -0.06125000 -0.03065427
v -0.01484975 -0.06125000 -0.03109138
v -0.01594787 -0.06125000 -0.03124968
v -0.01704955 -0.06125000 -0.03111837
v -0.01807970 -0.06125000 -0.03070639
v -0.01896812 -0.06125000 -0.03004184
v -0.01965427 -0.06125000 -0.02916998
v -0.02009138 -0.06125000 -0.02815025
v -0.02024968 -0.06125000 -0.02705213
v -0.02011837 -0.06125000 -0.02595045
v -0.01970639 -0.06125000 -0.02492030
v -0.01886290 -0.06100000 -0.02420648
v -0.01804234 -0.06100000 -0.02356069
v -0.01708259 -0.06100000 -0.02314929
v -0.01604906 -0.06100000 -0.02300030
v -0.01501219 -0.06100000 -0.02312389
v -0.01404264 -0.06100000 -0.02351163
v -0.01320648 -0.06100000 -0.02413709
v -0.01256069 -0.06100000 -0.02495766
v -0.01214929 -0.06100000 -0.02591741
v -0.01200030 -0.06100000 -0.02695094
v -0.01212389 -0.06100000 -0.02798781
v -0.01251163 -0.06100000 -0.02895736
v -0.01313709 -0.06100000 -0.02979352
v -0.01395766 -0.06100000 -0.03043931
v -0.01491741 -0.06100000 -0.03085071
v -0.01595094 -0.06100000 -0.03099970
v -0.01698781 -0.06100000 -0.03087611
v -0.01795736 -0.06100000 -0.03048837
v -0.01879352 -0.06100000 -0.02986290
v -0.01943931 -0.06100000 -0.02904234
v -0.01985071 -0.06100000 -0.02808259
v -0.01999970 -0.06100000 -0.02704906
v -0.01987611 -0.06100000 -0.02601219
v -0.01948837 -0.06100000 -0.02504264
v -0.01807537 -0.06100852 -0.02350505
v -0.01710010 -0.06100852 -0.02308699
v -0.01604985 -0.06100852 -0.02293560
v -0.01499621 -0.06100852 -0.02306119
v -0.01401098 -0.06100852 -0.02345520
v -0.01316129 -0.06100852 -0.02409078
v -0.01250505 -0.06100852 -0.02492462
v -0.01208699 -0.06100852 -0.02589990
v -0.01193560 -0.06100852 -0.02695015
v -0.01206119 -0.06100852 -0.02800379
v -0.01245520 -0.06100852 -0.02898902
v -0.01309078 -0.06100852 -0.02983871
v -0.01392462 -0.06100852 -0.03049495
v -0.01489990 -0.06100852 -0.03091300
v -0.01595015 -0.06100852 -0.03106440
v -0.01700379 -0.06100852 -0.03093881
v -0.01798902 -0.06100852 -0.03054480
v -0.01883871 -0.06100852 -0.02990922
v -0.01949495 -0.06100852 -0.02907537
v -0.01991300 -0.06100852 -0.02810010
v -0.02006440 -0.06100852 -0.02704985
v -0.01993881 -0.06100852 -0.02599621
v -0.01954480 -0.06100852 -0.02501098
v -0.01890922 -0.06100852 -0.02416129
v -0.01810616 -0.06103349 -0.02345321
v -0.01711642 -0.06103349 -0.02302895
v -0.01605059 -0.06103349 -0.02287531
v -0.01498132 -0.06103349 -0.02300276
v -0.01398147 -0.06103349 -0.02340262
v -0.01311918 -0.06103349 -0.02404763
v -0.01245321 -0.06103349 -0.02489384
v -0.01202895 -0.06103349 -0.02588358
v -0.01187531 -0.06103349 -0.02694941
v -0.01200276 -0.06103349 -0.02801868
v -0.01240262 -0.06103349 -0.02901853
v -0.01304763 -0.06103349 -0.02988082
v -0.01389384 -0.06103349 -0.03054679
v -0.01488358 -0.06103349 -0.03097105
v -0.01594941 -0.06103349 -0.03112469
v -0.01701868 -0.06103349 -0.03099724
v -0.01801853 -0.06103349 -0.03059738
v -0.01888082 -0.06103349 -0.02995237
v -0.01954679 -0.06103349 -0.02910616
v -0.01997105 -0.06103349 -0.02811642
v -0.02012469 -0.06103349 -0.02705059
v -0.01999724 -0.06103349 -0.02598132
v -0.01959738 -0.06103349 -0.02498147
v -0.01895237 -0.06103349 -0.02411918
v -0.01813260 -0.06107322 -0.02340869
v -0.01713043 -0.06107322 -0.02297911
v -0.01605123 -0.06107322 -0.02282354
v -0.01496854 -0.06107322 -0.02295259
v -0.01395613 -0.06107322 -0.02335746
v -0.01308302 -0.06107322 -0.02401057
v -0.01240869 -0.06107322 -0.02486740
v -0.01197911 -0.06107322 -0.02586957
v -0.01182354 -0.06107322 -0.02694877
v -0.01195259 -0.06107322 -0.02803146
v -0.01235746 -0.06107322 -0.02904387
v -0.01301057 -0.06107322 -0.02991698
v -0.01386740 -0.06107322 -0.03059131
v -0.01486957 -0.06107322 -0.03102089
v -0.01594877 -0.06107322 -0.03117646
v -0.01703146 -0.06107322 -0.03104741
v -0.01804386 -0.06107322 -0.03064254
v -0.01891698 -0.06107322 -0.02998943
v -0.01959131 -0.06107322 -0.02913260
v -0.02002089 -0.06107322 -0.02813043
v -0.02017646 -0.06107322 -0.02705123
v -0.02004741 -0.06107322 -0.02596853
v -0.01964254 -0.06107322 -0.02495614
v -0.01898943 -0.06107322 -0.02408302
v -0.01815288 -0.06112500 -0.02337453
v -0.01714118 -0.06112500 -0.02294086
v -0.01605172 -0.06112500 -0.02278381
v -0.01495872 -0.06112500 -0.02291409
v -0.01393669 -0.06112500 -0.02332282
v -0.01305527 -0.06112500 -0.02398214
v -0.01237453 -0.06112500 -0.02484712
v -0.01194086 -0.06112500 -0.02585882
v -0.01178381 -0.06112500 -0.02694828
v -0.01191409 -0.06112500 -0.02804128
v -0.01232282 -0.06112500 -0.02906331
v -0.01298213 -0.06112500 -0.02994473
v -0.01384712 -0.06112500 -0.03062547
v -0.01485882 -0.06112500 -0.03105914
v -0.01594828 -0.06112500 -0.03121619
v -0.01704128 -0.06112500 -0.03108591
v -0.01806331 -0.06112500 -0.03067718
v -0.01894473 -0.06112500 -0.03001787
v -0.01962547 -0.06112500 -0.02915288
v -0.02005914 -0.06112500 -0.02814118
v -0.02021619 -0.06112500 -0.02705172
v -0.02008591 -0.06112500 -0.02595872
v -0.01967718 -0.06112500 -0.02493669
v -0.01901787 -0.06112500 -0.02405527
v -0.01816563 -0.06118530 -0.02335306
v -0.01714794 -0.06118530 -0.02291682
v -0.01605202 -0.06118530 -0.02275884
v -0.01495256 -0.06118530 -0.02288989
v -0.01392447 -0.06118530 -0.02330103
v -0.01303783 -0.06118530 -0.02396426
v -0.01235306 -0.06118530 -0.02483437
v -0.01191682 -0.06118530 -0.02585206
v -0.01175884 -0.06118530 -0.02694798
v -0.01188989 -0.06118530 -0.02804744
v -0.01230103 -0.06118530 -0.02907553
v -0.01296426 -0.06118530 -0.02996217
v -0.01383437 -0.06118530 -0.03064694
v -0.01485206 -0.06118530 -0.03108318
v -0.01594798 -0.06118530 -0.03124116
v -0.01704744 -0.06118530 -0.03111011
v -0.01807553 -0.06118530 -0.03069897
v -0.01896217 -0.06118530 -0.03003574
v -0.01964694 -0.06118530 -0.02916563
v -0.02008318 -0.06118530 -0.02814794
v -0.02024116 -0.06118530 -0.02705202
v -0.02011011 -0.06118530 -0.02595256
v -0.01969897 -0.06118530 -0.02492447
v -0.01903574 -0.06118530 -0.02403783
v -0.01371513 -0.06100000 -0.02758229
v -0.01828487 -0.06100000 -0.02641771
v -0.01764671 -0.06100000 -0.02868761
v -0.01435329 -0.06100000 -0.02531239
v -0.01663816 -0.06100000 -0.02473010
v -0.01536184 -0.06100000 -0.02926990
v -0.01796579 -0.06350000 -0.02755266
v -0.01828487 -0.06350000 -0.02641771
v -0.01764671 -0.06350000 -0.02868761
v -0.01650428 -0.06350000 -0.02897875
v -0.01536184 -0.06350000 -0.02926990
v -0.01453849 -0.06350000 -0.02842609
v -0.01371513 -0.06350000 -0.02758229
v -0.01746151 -0.06350000 -0.02557391
v -0.01663816 -0.06350000 -0.02473010
v -0.01403421 -0.06350000 -0.02644734
v -0.01435329 -0.06350000 -0.02531239
v -0.01549572 -0.06350000 -0.02502125
v -0.01775577 -0.06350000 -0.02804261
v -0.01742609 -0.06350000 -0.02846151
v -0.01699923 -0.06350000 -0.02878081
v -0.01778081 -0.06350000 -0.02600077
v -0.01797875 -0.06350000 -0.02649572
v -0.01804185 -0.06350000 -0.02702505
v -0.01597495 -0.06350000 -0.02904185
v -0.01544734 -0.06350000 -0.02896579
v -0.01495739 -0.06350000 -0.02875577
v -0.01421919 -0.06350000 -0.02799923
v -0.01402125 -0.06350000 -0.02750428
v -0.01395815 -0.06350000 -0.02697495
v -0.01424423 -0.06350000 -0.02595739
v -0.01457391 -0.06350000 -0.02553849
v -0.01500077 -0.06350000 -0.02521919
v -0.01602505 -0.06350000 -0.02495815
v -0.01655266 -0.06350000 -0.02503421
v -0.01704261 -0.06350000 -0.02524423
v -0.01600000 -0.06467895 -0.02700000
vt -0.00117895 -0.00000000
vt 6.28318548 -0.06130500
vt 6.02138615 0.00000000
vt 6.54498482 -1.83259571
vt -0.00235790 0.00000000
vt 6.02138615 0.00044500
vt 1.04719758 0.52359879
vt 0.00260800 -0.00494881
vt 4.71238899 -2.09439516
vt 0.26179940 1.04719758
vt 0.00103528 -0.00386370
vt 0.78539819 -1.83259571
vt -0.00386370 -0.00103528
vt 3.66519141 -1.83259571
vt 3.66519141 0.00000000
vt 3.14159274 -0.06130500
vt 1.70169604 -0.00117895
vt 5.49778700 1.04719758
vt 1.30899692 -0.03200000
vt -0.00135000 -0.00658827
vt 3.14159274 -0.03695000
vt -0.00300520 -0.00725520
vt 3.66519141 0.78539819
vt 1.04719758 0.00044500
vt 3.66519141 1.57079637
vt -0.00027358 -0.00455785
vt 5.49778700 -0.03675000
vt -0.00059809 -0.00498076
vt -0.00204200 0.00117895
vt 4.18879032 0.78539819
vt 0.52359879 -2.09439516
vt 6.02138615 -3.14159274
vt 2.61799383 -0.03695000
vt 3.66519141 -2.35619450
vt -0.00198498 -0.00258687
vt 2.87979317 0.00000000
vt 5.75958633 0.00000000
vt 4.45058966 -2.35619450
vt 0.26179940 0.52359879
vt 5.75958633 0.00044500
vt 0.52359879 -0.03200000
vt -0.00204200 -0.00557885
vt -0.00069881 -0.00164200
vt -0.00212500 -0.00793061
vt -0.00346410 0.00200000
vt -0.00151349 -0.00156443
vt 3.66519141 0.00000000
vt 2.09439516 0.26179940
vt 0.26179940 -0.03200000
vt 4.97418833 -1.57079637
vt -0.00205500 -0.00205500
vt 0.00300520 -0.00124480
vt 3.92699075 -0.03695000
vt 0.78539819 1.30899692
vt 6.28318548 0.26179940
vt 0.00000000 0.00000000
vt 6.54498482 -2.61799383
vt 1.04719758 -3.14159274
vt 4.71238899 -1.83259571
vt 6.54498482 0.00000000
vt 0.39269909 -0.00117895
vt 3.01069307 -0.00117895
vt 2.09439516 0.00000000
vt 0.78539819 0.52359879
vt 3.40339208 0.00000000
vt 4.45058966 0.52359879
vt 6.02138615 -1.83259571
vt 1.83259571 0.00000000
vt 3.14159274 0.00044500
vt 3.53429174 -0.00117895
vt -0.00102750 -0.00383468
vt 3.66519141 -1.57079637
vt 0.78539819 -1.57079637
vt -0.00103528 0.00386370
vt 0.26179940 -2.87979317
vt 4.45058966 -0.06130500
vt 0.78539819 0.00000000
vt -0.00386370 0.00103528
vt 1.57079637 -0.03675000
vt -0.00235790 -0.00000000
vt 0.00400000 0.00000000
vt 6.02138615 -1.57079637
vt 4.71238899 1.57079637
vt 6.54498482 -1.57079637
vt 1.04719758 1.57079637
vt -0.00235790 -0.00000000
vt -0.00260800 -0.00355119
vt 6.02138615 0.52359879
vt 4.18879032 -0.00000000
vt 1.04719758 -0.03200000
vt 3.40339208 -0.03675000
vt 0.00200000 0.00346410
vt -0.00257051 -0.00156443
vt 0.00233827 -0.00560000
vt 6.54498482 1.04719758
vt 0.52359879 -0.06130500
vt 0.00000000 1.30899692
vt 3.40339208 0.00000000
vt 5.75958633 -2.87979317
vt 6.02138615 -2.61799383
vt 5.49778700 -0.06130500
vt 5.75958633 -0.03200000
vt 4.71238899 0.00000000
vt 1.04719758 0.00000000
vt -0.00400000 -0.00000000
vt 0.13089970 -0.00117895
vt 0.26179940 0.26179940
vt 2.09439516 -0.03200000
vt 6.02138615 -2.35619450
vt -0.00235790 -0.00250000
vt 0.00282843 -0.00282843
vt 3.66519141 -3.14159274
vt 0.00190919 -0.00234081
vt 4.18879032 -3.14159274
vt 1.83259571 0.78539819
vt 4.45058966 0.00000000
vt 2.61799383 1.57079637
vt 5.49778700 0.00000000
vt 1.57079637 -1.57079637
vt 2.09439516 -2.09439516
vt 1.30899692 -0.03695000
vt 3.14159274 -0.03200000
vt 3.66519141 -0.03675000
vt 5.49778700 0.78539819
vt 4.97418833 0.00044500
vt -0.00177968 -0.00102750
vt -0.00000000 -0.00411000
vt 1.83259571 -1.83259571
vt 4.05789042 -0.00117895
vt 5.75958633 0.26179940
vt 6.54498482 -0.06130500
vt 5.89048624 -0.00117895
vt 0.00386370 -0.00103528
vt 2.35619450 -0.03695000
vt 3.92699075 0.26179940
vt 1.04719758 0.78539819
vt 6.28318548 0.00044500
vt 0.26179940 -2.61799383
vt 3.66519141 0.00044500
vt 6.28318548 -0.00000000
vt 3.66519141 -2.61799383
vt 0.00103528 0.00386370
vt 6.54498482 0.00000000
vt 2.35619450 -2.61799383
vt 2.87979317 -0.03695000
vt 5.49778700 -2.87979317
vt 2.48709416 -0.00117895
vt 2.09439516 0.00044500
vt 5.23598766 -0.03200000
vt 3.14159274 0.26179940
vt 0.78539819 -2.35619450
vt 3.40339208 -1.57079637
vt -0.00000000 -0.00353685
vt 4.71238899 1.04719758
vt -0.00000000 -0.00695000
vt 0.00135000 -0.00658827
vt 6.28318548 -3.14159274
vt 4.71238899 -2.87979317
vt 6.02138615 -2.87979317
vt 4.71238899 -0.03675000
vt 3.92699075 -2.35619450
vt 4.97418833 0.00000000
vt 0.00000000 1.04719758
vt 2.74889350 -0.00117895
vt -0.00000000 -0.00205500
vt 3.40339208 1.30899692
vt 4.71238899 -3.14159274
vt 1.57079637 0.00044500
vt 0.00000000 -0.00250000
vt 6.28318548 -2.61799383
vt 0.52359879 -1.57079637
vt 3.40339208 -2.61799383
vt 0.00198498 -0.00258687
vt 3.92699075 -0.06130500
vt 3.66519141 -0.03200000
vt 6.28318548 1.30899692
vt 4.97418833 0.26179940
vt -0.00102750 -0.00027532
vt 0.00177968 -0.00308250
vt 1.17809725 -0.00117895
vt 0.78539819 -0.06130500
vt 1.83259571 -3.14159274
vt 3.14159274 -2.87979317
vt 3.92699075 0.52359879
vt 3.66519141 -0.06130500
vt -0.00204200 -0.00589475
vt 6.28318548 -0.00000000
vt 5.49778700 -3.14159274
vt 0.52359879 1.30899692
vt 0.00368061 -0.00637500
vt 0.00282843 0.00282843
vt 6.02138615 0.26179940
vt 3.40339208 -2.87979317
vt 0.00109998 -0.00835518
vt 0.00000000 -0.00250000
vt 0.00053187 -0.00007002
vt 4.18879032 0.00000000
vt 5.75958633 0.00000000
vt 2.61799383 -0.03675000
vt 6.28318548 -1.57079637
vt 0.52359879 1.04719758
vt 0.78539819 0.00000000
vt 2.09439516 0.00000000
vt -0.00000000 -0.00250000
vt 0.26179940 -1.83259571
vt 1.04719758 -0.00000000
vt 5.23598766 0.00044500
vt 4.97418833 -0.06130500
vt 5.75958633 -0.03675000
vt 6.02138615 1.30899692
vt 3.66519141 1.30899692
vt 4.71238899 -0.03200000
vt 2.09439516 1.04719758
vt 0.00204200 -0.00117895
vt 0.91629785 -0.00117895
vt -0.00200000 -0.00346410
vt 1.04719758 -1.57079637
vt 4.45058966 -0.03695000
vt 2.35619450 1.57079637
vt 5.10508823 -0.00117895
vt 3.14159274 -2.35619450
vt 1.30899692 0.78539819
vt 0.52359879 -3.14159274
vt 0.00346410 0.00200000
vt 4.45058966 1.04719758
vt 1.04719758 -2.87979317
vt 2.87979317 1.04719758
vt -0.00135000 -0.00191173
vt 5.23598766 -0.03675000
vt 1.04719758 1.04719758
vt 3.40339208 0.00044500
vt -0.00204200 -0.00149485
vt 0.52359879 0.26179940
vt 0.00233827 -0.00290000
vt 5.49778700 -0.03200000
vt 0.78539819 -3.14159274
vt 3.14159274 -0.00000000
vt 4.71238899 -0.06130500
vt -0.00102100 -0.00530527
vt 1.30899692 1.57079637
vt 2.87979317 1.30899692
vt 5.23598766 -3.14159274
vt 1.83259571 -0.03695000
vt 4.45058966 -2.61799383
vt 6.15228558 -0.00117895
vt -0.00260800 -0.00494881
vt 1.83259571 0.52359879
vt 2.61799383 -2.61799383
vt 6.28318548 0.78539819
vt 6.54498482 0.52359879
vt 1.83259571 -0.06130500
vt 0.00205500 -0.00205500
vt 4.45058966 0.26179940
vt 4.97418833 0.78539819
vt 5.75958633 0.78539819
vt 4.71238899 -2.35619450
vt 3.14159274 -1.57079637
vt 4.45058966 0.00044500
vt 1.57079637 1.30899692
vt 4.71238899 0.78539819
vt 0.78539819 0.00044500
vt 0.26179940 0.00000000
vt 1.83259571 -0.03675000
vt 0.52359879 -0.03675000
vt -0.00000000 -0.00235790
vt 3.40339208 1.04719758
vt 5.49778700 -2.35619450
vt 0.00260800 -0.00355119
vt -0.00257051 -0.00550927
vt 6.54498482 -2.87979317
vt 0.00000000 0.78539819
vt 5.23598766 -1.57079637
vt 4.45058966 -0.03675000
vt 4.97418833 -0.03695000
vt 4.84328890 -0.00117895
vt 1.83259571 -2.09439516
vt 6.28318548 -0.03675000
vt 4.71238899 -2.61799383
vt -0.00000000 -0.03200000
vt -0.00117895 0.00000000
vt 4.97418833 1.30899692
vt 1.04719758 -2.61799383
vt 5.75958633 -2.61799383
vt 5.23598766 0.00000000
vt 4.45058966 -2.09439516
vt -0.00000000 -0.00155000
vt 4.97418833 -2.61799383
vt 6.02138615 1.04719758
vt 0.00000000 0.00400000
vt 2.35619450 0.00000000
vt 1.30899692 -3.14159274
vt 0.52359879 0.78539819
vt 6.02138615 -0.03695000
vt 6.54498482 0.26179940
vt -0.00212500 -0.00056939
vt 0.00200000 -0.00346410
vt 4.71238899 -0.03695000
vt 5.23598766 -2.35619450
vt 4.97418833 0.00000000
vt 3.92699075 -1.83259571
vt 0.78539819 0.78539819
vt 0.78539819 1.57079637
vt 0.52359879 0.00000000
vt 4.45058966 -0.03200000
vt -0.00200000 0.00346410
vt 0.78539819 -0.03200000
vt 5.23598766 0.78539819
vt 0.00300520 -0.00725520
vt 5.23598766 1.57079637
vt 2.35619450 -3.14159274
vt 6.54498482 1.30899692
vt -0.00000000 -0.00400000
vt 1.30899692 1.04719758
vt 1.30899692 -2.61799383
vt 4.18879032 -0.03675000
vt 1.83259571 1.30899692
vt -0.00151349 -0.00550927
vt 2.87979317 0.26179940
vt 4.18879032 0.00000000
vt 4.97418833 -3.14159274
vt 5.75958633 -3.14159274
vt 0.26179940 -0.06130500
vt 3.92699075 0.00000000
vt 4.45058966 0.00000000
vt 4.97418833 -1.83259571
vt -0.00410518 -0.00315002
vt 0.26179940 -0.03675000
vt 1.57079637 -2.87979317
vt 3.14159274 -1.83259571
vt 5.49778700 0.00000000
vt 5.36688757 -0.00117895
vt 2.61799383 1.04719758
vt 6.28318548 1.04719758
vt 0.00145310 -0.00350810
vt 1.43989658 -0.00117895
vt 0.00000000 0.26179940
vt 2.35619450 -0.06130500
vt -0.00117895 0.00000000
vt 2.87979317 -2.35619450
vt 1.30899692 -1.57079637
vt 6.02138615 -2.09439516
vt -0.00235790 -0.00000000
vt 4.18879032 -0.03200000
vt -0.00053187 -0.00007002
vt 0.00109998 -0.00014482
vt 2.09439516 -1.57079637
vt 1.83259571 1.57079637
vt 0.00212500 -0.00056939
vt 3.66519141 0.26179940
vt 1.30899692 0.52359879
vt 2.87979317 -2.61799383
vt 3.79609108 -0.00117895
vt 2.87979317 -2.87979317
vt 4.71238899 0.00000000
vt 1.30899692 -0.06130500
vt 3.14159274 1.57079637
vt 3.40339208 0.78539819
vt 2.35619450 -1.57079637
vt 4.18879032 -2.09439516
vt -0.00306300 -0.00176842
vt 2.09439516 -0.06130500
vt 1.04719758 1.30899692
vt 5.49778700 0.52359879
vt -0.00425000 -0.00425000
vt 6.28318548 1.57079637
vt 1.30899692 -2.35619450
vt 2.87979317 -1.57079637
vt 1.57079637 0.00000000
vt 1.57079637 -2.61799383
vt 0.52359879 0.00000000
vt 3.66519141 -2.87979317
vt -0.00408400 -0.00235790
vt 6.28318548 -0.03200000
vt 3.14159274 0.00000000
vt 0.00410518 -0.00315002
vt 4.71238899 0.52359879
vt 4.97418833 1.57079637
vt 3.92699075 -2.09439516
vt 4.45058966 -1.83259571
vt 2.35619450 -2.35619450
vt 3.40339208 -0.03695000
vt 5.23598766 -0.00000000
vt 3.66519141 -2.09439516
vt 2.09439516 -0.03675000
vt 4.18879032 -2.61799383
vt -0.00408400 -0.00353685
vt 1.57079637 -2.35619450
vt 2.35619450 0.78539819
vt 2.09439516 -2.87979317
vt 0.00000000 0.52359879
vt 4.97418833 -2.35619450
vt 4.18879032 0.00044500
vt 0.00212500 -0.00793061
vt 1.83259571 0.00044500
vt 0.00410518 -0.00534998
vt 6.28318548 -2.87979317
vt 0.78539819 -0.03675000
vt 0.26179940 -0.03695000
vt 3.92699075 -0.03200000
vt -0.00000000 -0.00850000
vt 4.18879032 0.26179940
vt 0.00145310 -0.00060190
vt 0.52359879 -1.83259571
vt 6.02138615 0.00000000
vt 6.54498482 -0.03675000
vt -0.00270000 -0.00425000
vt -0.00408400 -0.00471580
vt 5.23598766 1.30899692
vt 1.30899692 -2.09439516
vt -0.00346410 -0.00200000
vt 1.57079637 0.52359879
vt 1.57079637 1.57079637
vt 4.18879032 -1.83259571
vt 2.61799383 1.30899692
vt 0.26179940 1.57079637
vt 1.57079637 -0.03200000
vt 2.22529483 -0.00117895
vt 5.49778700 -2.61799383
vt 0.52359879 0.00000000
vt 6.02138615 -0.03675000
vt -0.00282843 0.00282843
vt 5.23598766 -0.06130500
vt 2.61799383 0.26179940
vt 4.18879032 -2.87979317
vt -0.00368061 -0.00637500
vt 0.00346410 -0.00200000
vt -0.00348591 -0.00498076
vt 3.66519141 1.04719758
vt 3.40339208 -3.14159274
vt -0.00235790 0.00000000
vt 1.57079637 0.00000000
vt 2.87979317 0.00000000
vt 5.23598766 0.52359879
vt 2.87979317 0.00044500
vt 2.87979317 0.52359879
vt 4.45058966 0.00000000
vt 1.04719758 -2.09439516
vt 5.49778700 -0.03695000
vt 4.45058966 -1.57079637
vt 1.30899692 0.00000000
vt 3.14159274 0.00000000
vt -0.00103528 -0.00386370
vt 4.31968975 -0.00117895
vt 2.61799383 -0.06130500
vt 1.83259571 1.04719758
vt 4.97418833 -2.09439516
vt 0.00000000 0.00044500
vt -0.00059809 -0.00209294
vt -0.00109998 -0.00835518
vt 2.35619450 0.00000000
vt 2.61799383 -2.87979317
vt 2.87979317 -1.83259571
vt 4.18879032 -1.57079637
vt 1.83259571 -1.57079637
vt 1.57079637 -3.14159274
vt 0.00102750 -0.00383468
vt 0.00053187 -0.00403998
vt -0.00233827 -0.00560000
vt 0.00102750 -0.00027532
vt 1.30899692 0.00000000
vt 3.92699075 0.00000000
vt 3.14159274 -2.09439516
vt 5.75958633 -0.06130500
vt 4.97418833 -0.03675000
vt 0.00000000 -0.03695000
vt 2.35619450 -1.83259571
vt 1.04719758 0.00000000
vt 2.09439516 1.57079637
vt 3.14159274 0.52359879
vt 5.75958633 0.00000000
vt 4.45058966 -3.14159274
vt 5.23598766 -2.61799383
vt 0.00177968 -0.00102750
vt 0.00270000 -0.00425000
vt 4.97418833 0.00000000
vt -0.00006958 -0.00406536
vt 2.35619450 1.04719758
vt 5.49778700 0.26179940
vt -0.00368061 -0.00212500
vt 2.09439516 0.52359879
vt 1.83259571 -2.35619450
vt 2.35619450 0.00000000
vt 1.57079637 0.00000000
vt 4.97418833 0.52359879
vt 1.30899692 -1.83259571
vt 6.02138615 0.00000000
vt 5.75958633 -0.03695000
vt 5.75958633 0.52359879
vt 0.26179940 0.00000000
vt 0.52359879 -2.61799383
vt 5.23598766 -0.03695000
vt 1.04719758 -2.35619450
vt 0.78539819 0.26179940
vt 3.40339208 -2.35619450
vt 4.71238899 0.26179940
vt 1.30899692 0.00000000
vt 3.14159274 1.04719758
vt 1.83259571 -2.87979317
vt -0.00300520 -0.00124480
vt 6.02138615 -0.03200000
vt -0.00233827 -0.00290000
vt 2.87979317 1.57079637
vt 6.02138615 1.57079637
vt 0.26179940 1.30899692
vt 2.35619450 0.52359879
vt -0.00109998 -0.00014482
vt 3.14159274 -3.14159274
vt 0.52359879 -2.35619450
vt 2.61799383 -2.35619450
vt 0.00069881 -0.00164200
vt 0.00190919 -0.00615919
vt 1.30899692 0.00044500
vt -0.00190919 -0.00615919
vt 4.71238899 -1.57079637
vt 4.18879032 0.52359879
vt 0.78539819 -2.87979317
vt 1.96349537 -0.00117895
vt -0.00348591 -0.00209294
vt 2.09439516 -1.83259571
vt 3.92699075 -2.87979317
vt 2.87979317 0.00000000
vt 0.00198498 -0.00152313
vt 1.83259571 0.26179940
vt 0.00000000 -0.00000000
vt 1.57079637 0.78539819
vt 3.40339208 0.26179940
vt 2.35619450 0.00044500
vt 0.52359879 0.52359879
vt 6.28318548 -2.09439516
vt 2.61799383 0.52359879
vt 2.09439516 0.00000000
vt 2.09439516 -2.61799383
vt 4.18879032 -0.06130500
vt 5.75958633 1.57079637
vt 4.18879032 -2.35619450
vt 2.61799383 -1.57079637
vt 0.26179940 0.00044500
vt 0.65449846 -0.00117895
vt 4.45058966 0.78539819
vt 3.92699075 1.57079637
vt -0.00198498 -0.00152313
vt -0.00401442 -0.00300834
vt 2.87979317 0.78539819
vt 3.40339208 -2.09439516
vt 3.14159274 -2.61799383
vt 2.61799383 -1.83259571
vt 2.61799383 -0.03200000
vt -0.00117895 -0.00000000
vt 2.09439516 -0.03695000
vt 3.92699075 -1.57079637
vt -0.00069881 -0.00685800
vt -0.00306300 -0.00530527
vt -0.00102100 -0.00176842
vt 1.57079637 -0.06130500
vt 1.83259571 0.00000000
vt 4.58148909 -0.00117895
vt 0.00386370 0.00103528
vt 2.35619450 -2.09439516
vt 5.62868690 -0.00117895
vt 2.61799383 0.00000000
vt 0.26179940 -3.14159274
vt 6.28318548 0.00000000
vt 5.75958633 1.04719758
vt 0.78539819 -0.03695000
vt 3.66519141 -0.03695000
vt 3.92699075 1.30899692
vt 0.00368061 -0.00212500
vt 4.71238899 0.00000000
vt 4.97418833 -2.87979317
vt 1.57079637 -2.09439516
vt -0.00000000 0.00000000
vt 0.26179940 -2.09439516
vt 3.92699075 -2.61799383
vt 2.61799383 -3.14159274
vt -0.00381042 -0.00251585
vt 3.92699075 1.04719758
vt 3.40339208 -0.06130500
vt 2.35619450 -0.03200000
vt 0.00425000 -0.00425000
vt 3.14159274 0.78539819
vt -0.00027358 -0.00251585
vt 5.23598766 -1.83259571
vt 0.78539819 -2.61799383
vt 3.40339208 0.52359879
vt 0.78539819 0.00000000
vt 5.23598766 0.00000000
vt 2.87979317 -0.03675000
vt 6.28318548 -2.35619450
vt 5.49778700 0.00000000
vt 5.75958633 -1.83259571
vt 0.00000000 -0.00250000
vt -0.00053187 -0.00403998
vt 1.04719758 -1.83259571
vt 3.92699075 -3.14159274
vt 0.00135000 -0.00191173
vt -0.00000000 -0.00235790
vt 2.09439516 0.78539819
vt 5.49778700 -2.09439516
vt 2.35619450 -2.87979317
vt 1.83259571 0.00000000
vt 2.35619450 -0.03675000
vt 0.26179940 -1.57079637
vt 2.61799383 0.00044500
vt 2.09439516 -2.35619450
vt 4.97418833 -0.03200000
vt 2.61799383 0.00000000
vt 0.00204200 0.00117895
vt 1.04719758 0.26179940
vt 6.28318548 -1.83259571
vt 5.75958633 -2.35619450
vt -0.00204200 -0.00117895
vt 6.02138615 -0.06130500
vt 1.30899692 -2.87979317
vt 2.87979317 -0.06130500
vt 1.83259571 -0.03200000
vt 0.52359879 -2.87979317
vt 1.57079637 -0.03695000
vt 1.57079637 1.04719758
vt 1.30899692 -0.03675000
vt 3.14159274 1.30899692
vt 3.92699075 0.00044500
vt 2.87979317 -3.14159274
vt 2.35619450 0.26179940
vt 3.66519141 0.52359879
vt 3.92699075 -0.03675000
vt -0.00000000 -0.00471580
vt 4.45058966 -2.87979317
vt 0.26179940 -2.35619450
vt 4.97418833 1.04719758
vt 5.23598766 1.04719758
vt -0.00000000 -0.00250000
vt 0.52359879 1.57079637
vt 0.26179940 0.78539819
vt 3.92699075 0.00000000
vt 6.54498482 -3.14159274
vt -0.00145310 -0.00060190
vt 1.30899692 0.26179940
vt 3.40339208 0.00000000
vt 4.71238899 1.30899692
vt 5.49778700 -1.83259571
vt 5.49778700 -1.57079637
vt -0.00190919 -0.00234081
vt 0.78539819 -2.09439516
vt 5.75958633 -2.09439516
vt -0.00381042 -0.00455785
vt 2.61799383 0.78539819
vt 6.54498482 -2.09439516
vt 4.45058966 1.57079637
vt 2.61799383 0.00000000
vt 2.87979317 -0.03200000
vt -0.00117895 -0.00000000
vt 4.45058966 1.30899692
vt 5.49778700 1.30899692
vt 0.00069881 -0.00685800
vt -0.00282843 -0.00282843
vt 1.83259571 -2.61799383
vt 4.18879032 1.04719758
vt 5.49778700 1.57079637
vt -0.00145310 -0.00350810
vt 0.00000000 1.57079637
vt 4.18879032 -0.03695000
vt 3.92699075 0.78539819
vt 0.26179940 0.00000000
vt -0.00177968 -0.00308250
vt 4.18879032 1.30899692
vt 3.66519141 0.00000000
vt 2.09439516 -3.14159274
vt 2.87979317 -2.09439516
vt -0.00006958 -0.00300834
vt 1.30899692 1.30899692
vt 5.23598766 -2.09439516
vt -0.00410518 -0.00534998
vt 3.14159274 -0.03675000
vt 6.02138615 0.78539819
vt 0.52359879 -0.03695000
vt -0.00000000 0.00235790
vt 2.35619450 1.30899692
vt 0.78539819 1.04719758
vt 5.23598766 -2.87979317
vt -0.00401442 -0.00406536
vt 1.57079637 -1.83259571
vt 4.71238899 0.00044500
vt 3.40339208 -1.83259571
vt -0.00000000 0.00000000
vt 4.18879032 1.57079637
vt 5.75958633 -1.57079637
vt 6.28318548 -0.03695000
vt 3.27249241 -0.00117895
vt 2.09439516 1.30899692
vt 6.54498482 -2.35619450
vt 1.04719758 -0.06130500
vt 1.57079637 0.26179940
vt 5.49778700 0.00044500
vt 1.04719758 -0.03675000
vt 3.40339208 -0.03200000
vt 5.75958633 1.30899692
vt 0.52359879 0.00044500
vt 6.28318548 0.52359879
vt 1.04719758 -0.03695000
vt 3.40339208 1.57079637
vt 2.61799383 -2.09439516
vt 6.54498482 0.78539819
vt 5.23598766 0.26179940
usemtl Nobel
f 446/1 445/2 444/3
f 423/4 445/2 446/5
f 446/6 427/7 442/8
f 443/9 427/7 446/10
f 444/3 443/9 446/11
f 446/12 440/13 425/14
f 441/15 440/13 446/16
f 442/8 441/15 446/17
f 446/18 438/19 437/20
f 439/21 438/19 446/22
f 425/14 439/21 446/23
f 446/24 436/25 435/26
f 421/27 436/25 446/28
f 437/20 421/27 446/29
f 446/30 419/31 430/32
f 434/33 419/31 446/34
f 435/26 434/33 446/35
f 446/36 428/37 416/38
f 429/39 428/37 446/40
f 430/32 429/39 446/41
f 446/42 432/43 431/44
f 433/45 432/43 446/46
f 416/38 433/45 446/47
f 431/44 423/48 446/49
f 266/50 290/51 267/52
f 290/51 291/53 267/52
f 267/52 291/53 268/54
f 291/53 292/55 268/54
f 268/54 292/55 269/56
f 292/55 293/57 269/56
f 269/56 293/57 270/58
f 293/57 294/59 270/58
f 270/58 294/59 271/60
f 294/59 295/61 271/60
f 271/60 295/61 272/62
f 295/61 296/63 272/62
f 272/62 296/63 273/64
f 296/63 297/65 273/64
f 273/64 297/65 274/66
f 297/65 298/67 274/66
f 274/66 298/67 275/68
f 298/67 299/69 275/68
f 275/68 299/69 276/70
f 299/69 300/71 276/70
f 276/70 300/71 277/72
f 300/71 301/73 277/72
f 277/72 301/73 278/74
f 301/73 302/75 278/74
f 278/74 302/75 279/76
f 302/75 303/77 279/76
f 279/76 303/77 280/78
f 303/77 304/79 280/78
f 280/78 304/79 281/80
f 304/79 305/81 281/80
f 281/80 305/81 282/82
f 305/81 306/83 282/82
f 282/82 306/83 283/84
f 306/83 307/85 283/84
f 283/84 307/85 284/86
f 307/85 308/87 284/86
f 284/86 308/87 285/88
f 308/87 309/89 285/88
f 285/88 309/89 286/90
f 309/89 310/91 286/90
f 286/90 310/91 287/92
f 310/91 311/93 287/92
f 287/92 311/93 288/94
f 311/93 312/95 288/94
f 288/94 312/95 289/96
f 312/95 313/97 289/96
f 289/96 313/97 266/98
f 313/97 290/99 266/98
f 313/100 314/101 290/51
f 314/101 315/102 290/51
f 290/51 315/102 291/53
f 315/102 316/103 291/53
f 291/53 316/103 292/55
f 316/103 317/104 292/55
f 292/55 317/104 293/57
f 317/104 318/105 293/57
f 293/57 318/105 294/59
f 318/105 319/106 294/59
f 294/59 319/106 295/61
f 319/106 320/107 295/61
f 295/61 320/107 296/63
f 320/107 321/108 296/63
f 296/63 321/108 297/65
f 321/108 322/109 297/65
f 297/65 322/109 298/67
f 322/109 323/110 298/67
f 298/67 323/110 299/69
f 323/110 324/111 299/69
f 299/69 324/111 300/71
f 324/111 325/112 300/71
f 300/71 325/112 301/73
f 325/112 326/113 301/73
f 301/73 326/113 302/75
f 326/113 327/114 302/75
f 302/75 327/114 303/77
f 327/114 328/115 303/77
f 303/77 328/115 304/79
f 328/115 329/116 304/79
f 304/79 329/116 305/81
f 329/116 330/117 305/81
f 305/81 330/117 306/83
f 330/117 331/118 306/83
f 306/83 331/118 307/85
f 331/118 332/119 307/85
f 307/85 332/119 308/87
f 332/119 333/120 308/87
f 308/87 333/120 309/89
f 333/120 334/121 309/89
f 309/89 334/121 310/91
f 334/121 335/122 310/91
f 310/91 335/122 311/93
f 335/122 336/123 311/93
f 311/93 336/123 312/95
f 336/123 337/124 312/95
f 312/95 337/124 313/97
f 337/124 314/125 313/97
f 337/126 338/127 314/101
f 338/127 339/128 314/101
f 314/101 339/128 315/102
f 339/128 340/129 315/102
f 315/102 340/129 316/103
f 340/129 341/130 316/103
f 316/103 341/130 317/104
f 341/130 342/131 317/104
f 317/104 342/131 318/105
f 342/131 343/132 318/105
f 318/105 343/132 319/106
f 343/132 344/133 319/106
f 319/106 344/133 320/107
f 344/133 345/134 320/107
f 320/107 345/134 321/108
f 345/134 346/135 321/108
f 321/108 346/135 322/109
f 346/135 347/136 322/109
f 322/109 347/136 323/110
f 347/136 348/137 323/110
f 323/110 348/137 324/111
f 348/137 349/138 324/111
f 324/111 349/138 325/112
f 349/138 350/139 325/112
f 325/112 350/139 326/113
f 350/139 351/140 326/113
f 326/113 351/140 327/114
f 351/140 352/141 327/114
f 327/114 352/141 328/115
f 352/141 353/142 328/115
f 328/115 353/142 329/116
f 353/142 354/143 329/116
f 329/116 354/143 330/117
f 354/143 355/144 330/117
f 330/117 355/144 331/118
f 355/144 356/145 331/118
f 331/118 356/145 332/119
f 356/145 357/146 332/119
f 332/119 357/146 333/120
f 357/146 358/147 333/120
f 333/120 358/147 334/121
f 358/147 359/148 334/121
f 334/121 359/148 335/122
f 359/148 360/149 335/122
f 335/122 360/149 336/123
f 360/149 361/150 336/123
f 336/123 361/150 337/124
f 361/150 338/151 337/124
f 361/152 362/153 338/127
f 362/153 363/154 338/127
f 338/127 363/154 339/128
f 363/154 364/155 339/128
f 339/128 364/155 340/129
f 364/155 365/156 340/129
f 340/129 365/156 341/130
f 365/156 366/157 341/130
f 341/130 366/157 342/131
f 366/157 367/158 342/131
f 342/131 367/158 343/132
f 367/158 368/159 343/132
f 343/132 368/159 344/133
f 368/159 369/160 344/133
f 344/133 369/160 345/134
f 369/160 370/161 345/134
f 345/134 370/161 346/135
f 370/161 371/162 346/135
f 346/135 371/162 347/136
f 371/162 372/163 347/136
f 347/136 372/163 348/137
f 372/163 373/164 348/137
f 348/137 373/164 349/138
f 373/164 374/165 349/138
f 349/138 374/165 350/139
f 374/165 375/166 350/139
f 350/139 375/166 351/140
f 375/166 376/167 351/140
f 351/140 376/167 352/141
f 376/167 377/168 352/141
f 352/141 377/168 353/142
f 377/168 378/169 353/142
f 353/142 378/169 354/143
f 378/169 379/170 354/143
f 354/143 379/170 355/144
f 379/170 380/171 355/144
f 355/144 380/171 356/145
f 380/171 381/172 356/145
f 356/145 381/172 357/146
f 381/172 382/173 357/146
f 357/146 382/173 358/147
f 382/173 383/174 358/147
f 358/147 383/174 359/148
f 383/174 384/175 359/148
f 359/148 384/175 360/149
f 384/175 385/176 360/149
f 360/149 385/176 361/150
f 385/176 362/177 361/150
f 385/178 386/179 362/153
f 386/179 387/180 362/153
f 362/153 387/180 363/154
f 387/180 388/181 363/154
f 363/154 388/181 364/155
f 388/181 389/182 364/155
f 364/155 389/182 365/156
f 389/182 390/183 365/156
f 365/156 390/183 366/157
f 390/183 391/184 366/157
f 366/157 391/184 367/158
f 391/184 392/185 367/158
f 367/158 392/185 368/159
f 392/185 393/186 368/159
f 368/159 393/186 369/160
f 393/186 394/187 369/160
f 369/160 394/187 370/161
f 394/187 395/188 370/161
f 370/161 395/188 371/162
f 395/188 396/189 371/162
f 371/162 396/189 372/163
f 396/189 397/190 372/163
f 372/163 397/190 373/164
f 397/190 398/191 373/164
f 373/164 398/191 374/165
f 398/191 399/192 374/165
f 374/165 399/192 375/166
f 399/192 400/193 375/166
f 375/166 400/193 376/167
f 400/193 401/194 376/167
f 376/167 401/194 377/168
f 401/194 402/195 377/168
f 377/168 402/195 378/169
f 402/195 403/196 378/169
f 378/169 403/196 379/170
f 403/196 404/197 379/170
f 379/170 404/197 380/171
f 404/197 405/198 380/171
f 380/171 405/198 381/172
f 405/198 406/199 381/172
f 381/172 406/199 382/173
f 406/199 407/200 382/173
f 382/173 407/200 383/174
f 407/200 408/201 383/174
f 383/174 408/201 384/175
f 408/201 409/202 384/175
f 384/175 409/202 385/176
f 409/202 386/203 385/176
f 409/204 243/205 386/179
f 243/205 244/206 386/179
f 386/179 244/206 387/180
f 244/206 245/207 387/180
f 387/180 245/207 388/181
f 245/207 246/208 388/181
f 388/181 246/208 389/182
f 246/208 247/209 389/182
f 389/182 247/209 390/183
f 247/209 248/210 390/183
f 390/183 248/210 391/184
f 248/210 249/211 391/184
f 391/184 249/211 392/185
f 249/211 250/212 392/185
f 392/185 250/212 393/186
f 250/212 251/213 393/186
f 393/186 251/213 394/187
f 251/213 252/214 394/187
f 394/187 252/214 395/188
f 252/214 253/215 395/188
f 395/188 253/215 396/189
f 253/215 254/216 396/189
f 396/189 254/216 397/190
f 254/216 255/217 397/190
f 397/190 255/217 398/191
f 255/217 256/218 398/191
f 398/191 256/218 399/192
f 256/218 257/219 399/192
f 399/192 257/219 400/193
f 257/219 258/220 400/193
f 400/193 258/220 401/194
f 258/220 259/221 401/194
f 401/194 259/221 402/195
f 259/221 260/222 402/195
f 402/195 260/222 403/196
f 260/222 261/223 403/196
f 403/196 261/223 404/197
f 261/223 262/224 404/197
f 404/197 262/224 405/198
f 262/224 263/225 405/198
f 405/198 263/225 406/199
f 263/225 264/226 406/199
f 406/199 264/226 407/200
f 264/226 265/227 407/200
f 407/200 265/227 408/201
f 265/227 242/228 408/201
f 408/201 242/228 409/202
f 242/228 243/229 409/202
f 61/230 98/231 60/232
f 98/231 99/233 60/232
f 60/232 99/233 59/234
f 99/233 100/235 59/234
f 59/234 100/235 58/236
f 100/235 101/237 58/236
f 58/236 101/237 57/238
f 101/237 102/239 57/238
f 57/238 102/239 56/240
f 102/239 103/241 56/240
f 56/240 103/241 55/242
f 103/241 104/243 55/242
f 55/242 104/243 54/244
f 104/243 105/245 54/244
f 54/244 105/245 53/246
f 105/245 106/247 53/246
f 53/246 106/247 52/248
f 106/247 107/249 52/248
f 52/248 107/249 51/250
f 107/249 108/251 51/250
f 51/250 108/251 50/252
f 108/251 109/253 50/252
f 50/252 109/253 73/254
f 109/253 110/255 73/254
f 73/254 110/255 72/256
f 110/255 111/257 72/256
f 72/256 111/257 71/258
f 111/257 112/259 71/258
f 71/258 112/259 70/260
f 112/259 113/261 70/260
f 70/260 113/261 69/262
f 113/261 114/263 69/262
f 69/262 114/263 68/264
f 114/263 115/265 68/264
f 68/264 115/265 67/266
f 115/265 116/267 67/266
f 67/266 116/267 66/268
f 116/267 117/269 66/268
f 66/268 117/269 65/270
f 117/269 118/271 65/270
f 65/270 118/271 64/272
f 118/271 119/273 64/272
f 64/272 119/273 63/274
f 119/273 120/275 63/274
f 63/274 120/275 62/276
f 120/275 121/277 62/276
f 62/276 121/277 61/278
f 121/277 98/279 61/278
f 98/231 122/280 99/233
f 122/280 123/281 99/233
f 99/233 123/281 100/235
f 123/281 124/282 100/235
f 100/235 124/282 101/237
f 124/282 125/283 101/237
f 101/237 125/283 102/239
f 125/283 126/284 102/239
f 102/239 126/284 103/241
f 126/284 127/285 103/241
f 103/241 127/285 104/243
f 127/285 128/286 104/243
f 104/243 128/286 105/245
f 128/286 129/287 105/245
f 105/245 129/287 106/247
f 129/287 130/288 106/247
f 106/247 130/288 107/249
f 130/288 131/289 107/249
f 107/249 131/289 108/251
f 131/289 132/290 108/251
f 108/251 132/290 109/253
f 132/290 133/291 109/253
f 109/253 133/291 110/255
f 133/291 134/292 110/255
f 110/255 134/292 111/257
f 134/292 135/293 111/257
f 111/257 135/293 112/259
f 135/293 136/294 112/259
f 112/259 136/294 113/261
f 136/294 137/295 113/261
f 113/261 137/295 114/263
f 137/295 138/296 114/263
f 114/263 138/296 115/265
f 138/296 139/297 115/265
f 115/265 139/297 116/267
f 139/297 140/298 116/267
f 116/267 140/298 117/269
f 140/298 141/299 117/269
f 117/269 141/299 118/271
f 141/299 142/300 118/271
f 118/271 142/300 119/273
f 142/300 143/301 119/273
f 119/273 143/301 120/275
f 143/301 144/302 120/275
f 120/275 144/302 121/277
f 144/302 145/303 121/277
f 121/277 145/303 98/279
f 145/303 122/304 98/279
f 122/280 146/305 123/281
f 146/305 147/306 123/281
f 123/281 147/306 124/282
f 147/306 148/307 124/282
f 124/282 148/307 125/283
f 148/307 149/308 125/283
f 125/283 149/308 126/284
f 149/308 150/309 126/284
f 126/284 150/309 127/285
f 150/309 151/310 127/285
f 127/285 151/310 128/286
f 151/310 152/311 128/286
f 128/286 152/311 129/287
f 152/311 153/312 129/287
f 129/287 153/312 130/288
f 153/312 154/313 130/288
f 130/288 154/313 131/289
f 154/313 155/314 131/289
f 131/289 155/314 132/290
f 155/314 156/315 132/290
f 132/290 156/315 133/291
f 156/315 157/316 133/291
f 133/291 157/316 134/292
f 157/316 158/317 134/292
f 134/292 158/317 135/293
f 158/317 159/318 135/293
f 135/293 159/318 136/294
f 159/318 160/319 136/294
f 136/294 160/319 137/295
f 160/319 161/320 137/295
f 137/295 161/320 138/296
f 161/320 162/321 138/296
f 138/296 162/321 139/297
f 162/321 163/322 139/297
f 139/297 163/322 140/298
f 163/322 164/323 140/298
f 140/298 164/323 141/299
f 164/323 165/324 141/299
f 141/299 165/324 142/300
f 165/324 166/325 142/300
f 142/300 166/325 143/301
f 166/325 167/326 143/301
f 143/301 167/326 144/302
f 167/326 168/327 144/302
f 144/302 168/327 145/303
f 168/327 169/328 145/303
f 145/303 169/328 122/304
f 169/328 146/329 122/304
f 146/305 170/330 147/306
f 170/330 171/331 147/306
f 147/306 171/331 148/307
f 171/331 172/332 148/307
f 148/307 172/332 149/308
f 172/332 173/333 149/308
f 149/308 173/333 150/309
f 173/333 174/334 150/309
f 150/309 174/334 151/310
f 174/334 175/335 151/310
f 151/310 175/335 152/311
f 175/335 176/336 152/311
f 152/311 176/336 153/312
f 176/336 177/337 153/312
f 153/312 177/337 154/313
f 177/337 178/338 154/313
f 154/313 178/338 155/314
f 178/338 179/339 155/314
f 155/314 179/339 156/315
f 179/339 180/340 156/315
f 156/315 180/340 157/316
f 180/340 181/341 157/316
f 157/316 181/341 158/317
f 181/341 182/342 158/317
f 158/317 182/342 159/318
f 182/342 183/343 159/318
f 159/318 183/343 160/319
f 183/343 184/344 160/319
f 160/319 184/344 161/320
f 184/344 185/345 161/320
f 161/320 185/345 162/321
f 185/345 186/346 162/321
f 162/321 186/346 163/322
f 186/346 187/347 163/322
f 163/322 187/347 164/323
f 187/347 188/348 164/323
f 164/323 188/348 165/324
f 188/348 189/349 165/324
f 165/324 189/349 166/325
f 189/349 190/350 166/325
f 166/325 190/350 167/326
f 190/350 191/351 167/326
f 167/326 191/351 168/327
f 191/351 192/352 168/327
f 168/327 192/352 169/328
f 192/352 193/353 169/328
f 169/328 193/353 146/329
f 193/353 170/354 146/329
f 170/330 194/355 171/331
f 194/355 195/356 171/331
f 171/331 195/356 172/332
f 195/356 196/357 172/332
f 172/332 196/357 173/333
f 196/357 197/358 173/333
f 173/333 197/358 174/334
f 197/358 198/359 174/334
f 174/334 198/359 175/335
f 198/359 199/360 175/335
f 175/335 199/360 176/336
f 199/360 200/361 176/336
f 176/336 200/361 177/337
f 200/361 201/362 177/337
f 177/337 201/362 178/338
f 201/362 202/363 178/338
f 178/338 202/363 179/339
f 202/363 203/364 179/339
f 179/339 203/364 180/340
f 203/364 204/365 180/340
f 180/340 204/365 181/341
f 204/365 205/366 181/341
f 181/341 205/366 182/342
f 205/366 206/367 182/342
f 182/342 206/367 183/343
f 206/367 207/368 183/343
f 183/343 207/368 184/344
f 207/368 208/369 184/344
f 184/344 208/369 185/345
f 208/369 209/370 185/345
f 185/345 209/370 186/346
f 209/370 210/371 186/346
f 186/346 210/371 187/347
f 210/371 211/372 187/347
f 187/347 211/372 188/348
f 211/372 212/373 188/348
f 188/348 212/373 189/349
f 212/373 213/374 189/349
f 189/349 213/374 190/350
f 213/374 214/375 190/350
f 190/350 214/375 191/351
f 214/375 215/376 191/351
f 191/351 215/376 192/352
f 215/376 216/377 192/352
f 192/352 216/377 193/353
f 216/377 217/378 193/353
f 193/353 217/378 170/354
f 217/378 194/379 170/354
f 194/355 75/380 195/356
f 75/380 76/381 195/356
f 195/356 76/381 196/357
f 76/381 77/382 196/357
f 196/357 77/382 197/358
f 77/382 78/383 197/358
f 197/358 78/383 198/359
f 78/383 79/384 198/359
f 198/359 79/384 199/360
f 79/384 80/385 199/360
f 199/360 80/385 200/361
f 80/385 81/386 200/361
f 200/361 81/386 201/362
f 81/386 82/387 201/362
f 201/362 82/387 202/363
f 82/387 83/388 202/363
f 202/363 83/388 203/364
f 83/388 84/389 203/364
f 203/364 84/389 204/365
f 84/389 85/390 204/365
f 204/365 85/390 205/366
f 85/390 86/391 205/366
f 205/366 86/391 206/367
f 86/391 87/392 206/367
f 206/367 87/392 207/368
f 87/392 88/393 207/368
f 207/368 88/393 208/369
f 88/393 89/394 208/369
f 208/369 89/394 209/370
f 89/394 90/395 209/370
f 209/370 90/395 210/371
f 90/395 91/396 210/371
f 210/371 91/396 211/372
f 91/396 92/397 211/372
f 211/372 92/397 212/373
f 92/397 93/398 212/373
f 212/373 93/398 213/374
f 93/398 94/399 213/374
f 213/374 94/399 214/375
f 94/399 95/400 214/375
f 214/375 95/400 215/376
f 95/400 96/401 215/376
f 215/376 96/401 216/377
f 96/401 97/402 216/377
f 216/377 97/402 217/378
f 97/402 74/403 217/378
f 217/378 74/403 194/379
f 74/403 75/404 194/379
f 26/405 24/406 27/407
f 24/406 23/408 27/407
f 27/407 23/408 28/409
f 23/408 22/410 28/409
f 28/409 22/410 29/411
f 22/410 21/412 29/411
f 29/411 21/412 30/413
f 21/412 20/414 30/413
f 30/413 20/414 31/415
f 20/414 19/416 31/415
f 31/415 19/416 32/417
f 19/416 18/418 32/417
f 32/417 18/418 33/419
f 18/418 17/420 33/419
f 33/419 17/420 34/421
f 17/420 16/422 34/421
f 34/421 16/422 35/423
f 16/422 15/424 35/423
f 35/423 15/424 36/425
f 15/424 14/426 36/425
f 36/425 14/426 37/427
f 14/426 13/428 37/427
f 37/427 13/428 38/429
f 13/428 12/430 38/429
f 38/429 12/430 39/431
f 12/430 11/432 39/431
f 39/431 11/432 40/433
f 11/432 10/434 40/433
f 40/433 10/434 41/435
f 10/434 9/436 41/435
f 41/435 9/436 42/437
f 9/436 8/438 42/437
f 42/437 8/438 43/439
f 8/438 7/440 43/439
f 43/439 7/440 44/441
f 7/440 6/442 44/441
f 44/441 6/442 45/443
f 6/442 5/444 45/443
f 45/443 5/444 46/445
f 5/444 4/446 46/445
f 46/445 4/446 47/447
f 4/446 3/448 47/447
f 47/447 3/448 48/449
f 3/448 2/450 48/449
f 48/449 2/450 49/451
f 2/450 1/452 49/451
f 49/451 1/452 26/453
f 1/452 24/454 26/453
f 50/455 27/456 51/457
f 27/456 28/458 51/457
f 51/457 28/458 52/459
f 28/458 29/460 52/459
f 52/459 29/460 53/461
f 29/460 30/462 53/461
f 53/461 30/462 54/463
f 30/462 31/464 54/463
f 54/463 31/464 55/465
f 31/464 32/466 55/465
f 55/465 32/466 56/467
f 32/466 33/468 56/467
f 56/467 33/468 57/469
f 33/468 34/470 57/469
f 57/469 34/470 58/471
f 34/470 35/472 58/471
f 58/471 35/472 59/473
f 35/472 36/474 59/473
f 59/473 36/474 60/475
f 36/474 37/476 60/475
f 60/475 37/476 61/477
f 37/476 38/478 61/477
f 61/477 38/478 62/479
f 38/478 39/480 62/479
f 62/479 39/480 63/481
f 39/480 40/482 63/481
f 63/481 40/482 64/483
f 40/482 41/484 64/483
f 64/483 41/484 65/485
f 41/484 42/486 65/485
f 65/485 42/486 66/487
f 42/486 43/488 66/487
f 66/487 43/488 67/489
f 43/488 44/490 67/489
f 67/489 44/490 68/491
f 44/490 45/492 68/491
f 68/491 45/492 69/493
f 45/492 46/494 69/493
f 69/493 46/494 70/495
f 46/494 47/496 70/495
f 70/495 47/496 71/497
f 47/496 48/498 71/497
f 71/497 48/498 72/499
f 48/498 49/500 72/499
f 72/499 49/500 73/501
f 49/500 26/502 73/501
f 73/501 26/502 50/503
f 26/502 27/504 50/503
f 422/505 410/506 421/507
f 410/506 415/508 421/507
f 421/507 415/508 420/509
f 417/505 411/510 423/511
f 411/510 414/508 423/511
f 423/511 414/508 424/512
f 424/513 427/514 443/515
f 443/515 444/516 424/513
f 444/516 445/517 424/513
f 424/513 445/517 423/518
f 442/519 427/514 426/520
f 425/521 440/522 426/520
f 440/522 441/523 426/520
f 426/520 441/523 442/519
f 424/524 414/508 427/525
f 414/508 413/526 427/525
f 427/525 413/526 426/505
f 426/505 413/527 425/528
f 413/527 410/508 425/528
f 425/528 410/508 422/529
f 422/530 421/531 437/532
f 437/532 438/533 422/530
f 438/533 439/534 422/530
f 422/530 439/534 425/521
f 420/535 419/536 434/537
f 434/537 435/538 420/535
f 435/538 436/539 420/535
f 420/535 436/539 421/531
f 420/540 415/508 419/541
f 415/508 412/542 419/541
f 419/541 412/542 418/505
f 418/529 412/508 416/528
f 412/508 411/527 416/528
f 416/528 411/527 417/505
f 417/543 423/518 431/544
f 431/544 432/545 417/543
f 432/545 433/546 417/543
f 417/543 433/546 416/547
f 418/548 416/547 428/549
f 428/549 429/550 418/548
f 429/550 430/551 418/548
f 418/548 430/551 419/536
f 22/552 23/553 25/554
f 23/553 24/555 25/554
f 25/554 24/555 1/556
f 19/557 20/558 25/554
f 20/558 21/559 25/554
f 25/554 21/559 22/552
f 16/560 17/561 25/554
f 17/561 18/562 25/554
f 25/554 18/562 19/557
f 13/563 14/564 25/554
f 14/564 15/565 25/554
f 25/554 15/565 16/560
f 10/566 11/567 25/554
f 11/567 12/568 25/554
f 25/554 12/568 13/563
f 7/569 8/570 25/554
f 8/570 9/571 25/554
f 25/554 9/571 10/566
f 4/572 5/573 25/554
f 5/573 6/574 25/554
f 25/554 6/574 7/569
f 1/556 2/575 25/554
f 2/575 3/576 25/554
f 25/554 3/576 4/572
f 78/577 219/578 79/579
f 219/578 225/580 79/579
f 79/579 225/580 80/581
f 225/580 229/582 80/581
f 80/581 229/582 81/583
f 229/582 230/584 81/583
f 81/583 230/584 82/585
f 230/584 231/586 82/585
f 82/585 231/586 83/587
f 231/586 233/588 83/587
f 83/587 233/588 84/589
f 233/588 234/590 84/589
f 84/589 234/590 85/591
f 234/590 235/592 85/591
f 85/591 235/592 86/593
f 235/592 236/594 86/593
f 86/593 236/594 87/595
f 236/594 237/596 87/595
f 87/595 237/596 88/597
f 237/596 241/598 88/597
f 88/597 241/598 89/599
f 241/598 238/600 89/599
f 89/599 238/600 90/601
f 238/600 239/602 90/601
f 90/601 239/602 91/603
f 239/602 240/604 91/603
f 91/603 240/604 92/605
f 240/604 232/606 92/605
f 92/605 232/606 93/607
f 232/606 226/608 93/607
f 93/607 226/608 94/609
f 226/608 227/610 94/609
f 94/609 227/610 95/611
f 227/610 220/612 95/611
f 95/611 220/612 96/613
f 220/612 221/614 96/613
f 96/613 221/614 97/615
f 221/614 222/616 97/615
f 97/615 222/616 74/617
f 222/616 223/618 74/617
f 74/617 223/618 75/619
f 223/618 228/620 75/619
f 75/619 228/620 76/621
f 228/620 224/622 76/621
f 76/621 224/622 77/623
f 224/622 218/624 77/623
f 77/623 218/624 78/577
f 218/624 219/578 78/577
f 283/625 284/626 412/627
f 411/628 288/629 289/630
f 268/631 414/632 267/633
f 414/632 411/628 267/633
f 267/633 411/628 266/634
f 411/628 289/630 266/634
f 283/625 412/627 282/635
f 412/627 415/520 282/635
f 282/635 415/520 281/636
f 275/637 276/638 410/639
f 276/638 277/640 410/639
f 277/640 278/641 410/639
f 278/641 279/642 410/639
f 410/639 279/642 415/520
f 279/642 280/643 415/520
f 415/520 280/643 281/636
f 271/644 413/645 270/646
f 413/645 414/632 270/646
f 270/646 414/632 269/647
f 414/632 268/631 269/647
f 284/626 285/648 412/627
f 285/648 286/649 412/627
f 412/627 286/649 411/628
f 286/649 287/650 411/628
f 411/628 287/650 288/629
f 271/644 272/651 413/645
f 272/651 273/652 413/645
f 413/645 273/652 410/639
f 273/652 274/653 410/639
f 410/639 274/653 275/637
f 242/654 235/655 243/656
f 235/655 234/657 243/656
f 243/656 234/657 244/658
f 234/657 233/659 244/658
f 244/658 233/659 245/660
f 233/659 231/661 245/660
f 245/660 231/661 246/662
f 231/661 230/663 246/662
f 246/662 230/663 247/664
f 230/663 229/665 247/664
f 247/664 229/665 248/666
f 229/665 225/667 248/666
f 248/666 225/667 249/668
f 225/667 219/669 249/668
f 249/668 219/669 250/670
f 219/669 218/671 250/670
f 250/670 218/671 251/672
f 218/671 224/673 251/672
f 251/672 224/673 252/674
f 224/673 228/675 252/674
f 252/674 228/675 253/676
f 228/675 223/677 253/676
f 253/676 223/677 254/678
f 223/677 222/679 254/678
f 254/678 222/679 255/680
f 222/679 221/681 255/680
f 255/680 221/681 256/682
f 221/681 220/683 256/682
f 256/682 220/683 257/684
f 220/683 227/685 257/684
f 257/684 227/685 258/686
f 227/685 226/687 258/686
f 258/686 226/687 259/688
f 226/687 232/689 259/688
f 259/688 232/689 260/690
f 232/689 240/691 260/690
f 260/690 240/691 261/692
f 240/691 239/693 261/692
f 261/692 239/693 262/694
f 239/693 238/695 262/694
f 262/694 238/695 263/696
f 238/695 241/697 263/696
f 263/696 241/697 264/698
f 241/697 237/699 264/698
f 264/698 237/699 265/700
f 237/699 236/701 265/700
f 265/700 236/701 242/702
f 236/701 235/703 242/702
