# Exported from USD: /World/Robotiq_Hand_E_edit/base_link/socket_head_cap_screw_iso_robotiq_6ROBOTIQ_HAND_E_DEFEATURE/socket_head_cap_screw_iso_robotiq_6ROBOTIQ_HAND_E_DEFEATURE
mtllib D_A03_ASM_DOIGTS_PARALLELES_1ROBOTIQ_HAND_E_DEFEATURE.mtl

g socket_head_cap_screw_iso_robotiq_6ROBOTIQ_HAND_E_DEFEATURE
v 0.01688837 -0.09100000 -0.02514694
v 0.01637850 -0.09100000 -0.02498016
v 0.01584283 -0.09100000 -0.02495102
v 0.01531787 -0.09100000 -0.02506152
v 0.01483939 -0.09100000 -0.02530412
v 0.01444001 -0.09100000 -0.02566229
v 0.01414694 -0.09100000 -0.02611163
v 0.01398016 -0.09100000 -0.02662150
v 0.01395102 -0.09100000 -0.02715717
v 0.01406152 -0.09100000 -0.02768213
v 0.01430412 -0.09100000 -0.02816061
v 0.01466229 -0.09100000 -0.02855999
v 0.01511163 -0.09100000 -0.02885306
v 0.01562150 -0.09100000 -0.02901984
v 0.01615717 -0.09100000 -0.02904898
v 0.01668213 -0.09100000 -0.02893848
v 0.01716061 -0.09100000 -0.02869588
v 0.01755999 -0.09100000 -0.02833771
v 0.01785306 -0.09100000 -0.02788837
v 0.01801984 -0.09100000 -0.02737850
v 0.01804898 -0.09100000 -0.02684283
v 0.01793848 -0.09100000 -0.02631787
v 0.01769588 -0.09100000 -0.02583939
v 0.01733771 -0.09100000 -0.02544001
v 0.01600000 -0.09100000 -0.02700000
v 0.01708075 -0.09055500 -0.02474567
v 0.01762738 -0.09055500 -0.02510221
v 0.01806312 -0.09055500 -0.02558807
v 0.01835825 -0.09055500 -0.02617015
v 0.01849268 -0.09055500 -0.02680879
v 0.01845723 -0.09055500 -0.02746046
v 0.01825433 -0.09055500 -0.02808075
v 0.01789779 -0.09055500 -0.02862738
v 0.01741193 -0.09055500 -0.02906312
v 0.01682985 -0.09055500 -0.02935825
v 0.01619121 -0.09055500 -0.02949268
v 0.01553954 -0.09055500 -0.02945723
v 0.01491925 -0.09055500 -0.02925433
v 0.01437262 -0.09055500 -0.02889779
v 0.01393688 -0.09055500 -0.02841193
v 0.01364175 -0.09055500 -0.02782985
v 0.01350732 -0.09055500 -0.02719121
v 0.01354277 -0.09055500 -0.02653954
v 0.01374567 -0.09055500 -0.02591925
v 0.01410221 -0.09055500 -0.02537262
v 0.01458807 -0.09055500 -0.02493688
v 0.01517015 -0.09055500 -0.02464175
v 0.01580879 -0.09055500 -0.02450732
v 0.01646046 -0.09055500 -0.02454277
v 0.01708075 -0.06620000 -0.02474567
v 0.01762738 -0.06620000 -0.02510221
v 0.01806312 -0.06620000 -0.02558807
v 0.01835825 -0.06620000 -0.02617015
v 0.01849268 -0.06620000 -0.02680879
v 0.01845723 -0.06620000 -0.02746046
v 0.01825433 -0.06620000 -0.02808075
v 0.01789779 -0.06620000 -0.02862738
v 0.01741193 -0.06620000 -0.02906312
v 0.01682985 -0.06620000 -0.02935825
v 0.01619121 -0.06620000 -0.02949268
v 0.01553954 -0.06620000 -0.02945723
v 0.01491925 -0.06620000 -0.02925433
v 0.01437262 -0.06620000 -0.02889779
v 0.01393688 -0.06620000 -0.02841193
v 0.01364175 -0.06620000 -0.02782985
v 0.01350732 -0.06620000 -0.02719121
v 0.01354277 -0.06620000 -0.02653954
v 0.01374567 -0.06620000 -0.02591925
v 0.01410221 -0.06620000 -0.02537262
v 0.01458807 -0.06620000 -0.02493688
v 0.01517015 -0.06620000 -0.02464175
v 0.01580879 -0.06620000 -0.02450732
v 0.01646046 -0.06620000 -0.02454277
v 0.01483279 -0.06600000 -0.02943467
v 0.01550270 -0.06600000 -0.02965381
v 0.01620651 -0.06600000 -0.02969209
v 0.01689623 -0.06600000 -0.02954691
v 0.01752489 -0.06600000 -0.02922817
v 0.01804962 -0.06600000 -0.02875757
v 0.01843467 -0.06600000 -0.02816721
v 0.01865381 -0.06600000 -0.02749730
v 0.01869209 -0.06600000 -0.02679349
v 0.01854691 -0.06600000 -0.02610377
v 0.01822817 -0.06600000 -0.02547511
v 0.01775757 -0.06600000 -0.02495038
v 0.01716721 -0.06600000 -0.02456533
v 0.01649730 -0.06600000 -0.02434619
v 0.01579349 -0.06600000 -0.02430791
v 0.01510377 -0.06600000 -0.02445309
v 0.01447512 -0.06600000 -0.02477183
v 0.01395038 -0.06600000 -0.02524243
v 0.01356533 -0.06600000 -0.02583279
v 0.01334619 -0.06600000 -0.02650270
v 0.01330791 -0.06600000 -0.02720651
v 0.01345309 -0.06600000 -0.02789623
v 0.01377183 -0.06600000 -0.02852488
v 0.01424243 -0.06600000 -0.02904962
v 0.01553829 -0.06614824 -0.02946393
v 0.01619173 -0.06614824 -0.02949947
v 0.01683211 -0.06614824 -0.02936468
v 0.01741578 -0.06614824 -0.02906874
v 0.01790297 -0.06614824 -0.02863182
v 0.01826047 -0.06614824 -0.02808369
v 0.01846393 -0.06614824 -0.02746171
v 0.01849947 -0.06614824 -0.02680827
v 0.01836468 -0.06614824 -0.02616789
v 0.01806874 -0.06614824 -0.02558422
v 0.01763182 -0.06614824 -0.02509703
v 0.01708369 -0.06614824 -0.02473953
v 0.01646171 -0.06614824 -0.02453607
v 0.01580827 -0.06614824 -0.02450053
v 0.01516789 -0.06614824 -0.02463532
v 0.01458422 -0.06614824 -0.02493126
v 0.01409703 -0.06614824 -0.02536818
v 0.01373953 -0.06614824 -0.02591631
v 0.01353607 -0.06614824 -0.02653829
v 0.01350053 -0.06614824 -0.02719173
v 0.01363532 -0.06614824 -0.02783211
v 0.01393126 -0.06614824 -0.02841578
v 0.01436818 -0.06614824 -0.02890297
v 0.01491631 -0.06614824 -0.02926047
v 0.01553461 -0.06610000 -0.02948357
v 0.01619326 -0.06610000 -0.02951939
v 0.01683874 -0.06610000 -0.02938353
v 0.01742706 -0.06610000 -0.02908523
v 0.01791813 -0.06610000 -0.02864483
v 0.01827849 -0.06610000 -0.02809233
v 0.01848357 -0.06610000 -0.02746539
v 0.01851939 -0.06610000 -0.02680674
v 0.01838353 -0.06610000 -0.02616126
v 0.01808523 -0.06610000 -0.02557294
v 0.01764483 -0.06610000 -0.02508187
v 0.01709233 -0.06610000 -0.02472151
v 0.01646539 -0.06610000 -0.02451643
v 0.01580674 -0.06610000 -0.02448061
v 0.01516126 -0.06610000 -0.02461647
v 0.01457294 -0.06610000 -0.02491477
v 0.01408187 -0.06610000 -0.02535517
v 0.01372151 -0.06610000 -0.02590767
v 0.01351643 -0.06610000 -0.02653461
v 0.01348061 -0.06610000 -0.02719326
v 0.01361647 -0.06610000 -0.02783874
v 0.01391477 -0.06610000 -0.02842706
v 0.01435517 -0.06610000 -0.02891813
v 0.01490767 -0.06610000 -0.02927849
v 0.01552875 -0.06605858 -0.02951481
v 0.01619569 -0.06605858 -0.02955109
v 0.01684929 -0.06605858 -0.02941351
v 0.01744501 -0.06605858 -0.02911146
v 0.01794226 -0.06605858 -0.02866552
v 0.01830715 -0.06605858 -0.02810607
v 0.01851481 -0.06605858 -0.02747125
v 0.01855108 -0.06605858 -0.02680431
v 0.01841351 -0.06605858 -0.02615071
v 0.01811146 -0.06605858 -0.02555499
v 0.01766551 -0.06605858 -0.02505774
v 0.01710607 -0.06605858 -0.02469285
v 0.01647125 -0.06605858 -0.02448519
v 0.01580431 -0.06605858 -0.02444892
v 0.01515071 -0.06605858 -0.02458649
v 0.01455499 -0.06605858 -0.02488854
v 0.01405774 -0.06605858 -0.02533448
v 0.01369285 -0.06605858 -0.02589393
v 0.01348519 -0.06605858 -0.02652875
v 0.01344892 -0.06605858 -0.02719569
v 0.01358649 -0.06605858 -0.02784929
v 0.01388854 -0.06605858 -0.02844501
v 0.01433448 -0.06605858 -0.02894226
v 0.01489393 -0.06605858 -0.02930715
v 0.01552112 -0.06602679 -0.02955552
v 0.01619886 -0.06602679 -0.02959238
v 0.01686304 -0.06602679 -0.02945258
v 0.01746841 -0.06602679 -0.02914564
v 0.01797371 -0.06602679 -0.02869248
v 0.01834450 -0.06602679 -0.02812398
v 0.01855552 -0.06602679 -0.02747888
v 0.01859238 -0.06602679 -0.02680114
v 0.01845258 -0.06602679 -0.02613696
v 0.01814564 -0.06602679 -0.02553159
v 0.01769248 -0.06602679 -0.02502629
v 0.01712398 -0.06602679 -0.02465550
v 0.01647888 -0.06602679 -0.02444448
v 0.01580114 -0.06602679 -0.02440762
v 0.01513696 -0.06602679 -0.02454742
v 0.01453159 -0.06602679 -0.02485436
v 0.01402629 -0.06602679 -0.02530752
v 0.01365550 -0.06602679 -0.02587602
v 0.01344448 -0.06602679 -0.02652112
v 0.01340762 -0.06602679 -0.02719886
v 0.01354742 -0.06602679 -0.02786304
v 0.01385436 -0.06602679 -0.02846841
v 0.01430752 -0.06602679 -0.02897371
v 0.01487602 -0.06602679 -0.02934450
v 0.01551224 -0.06600682 -0.02960293
v 0.01620255 -0.06600682 -0.02964048
v 0.01687905 -0.06600682 -0.02949808
v 0.01749565 -0.06600682 -0.02918545
v 0.01801032 -0.06600682 -0.02872388
v 0.01838800 -0.06600682 -0.02814483
v 0.01860293 -0.06600682 -0.02748776
v 0.01864048 -0.06600682 -0.02679745
v 0.01849808 -0.06600682 -0.02612095
v 0.01818545 -0.06600682 -0.02550435
v 0.01772388 -0.06600682 -0.02498968
v 0.01714483 -0.06600682 -0.02461200
v 0.01648776 -0.06600682 -0.02439707
v 0.01579745 -0.06600682 -0.02435952
v 0.01512095 -0.06600682 -0.02450192
v 0.01450435 -0.06600682 -0.02481455
v 0.01398968 -0.06600682 -0.02527612
v 0.01361200 -0.06600682 -0.02585517
v 0.01339707 -0.06600682 -0.02651224
v 0.01335952 -0.06600682 -0.02720255
v 0.01350192 -0.06600682 -0.02787905
v 0.01381455 -0.06600682 -0.02849565
v 0.01427612 -0.06600682 -0.02901032
v 0.01485517 -0.06600682 -0.02938800
v 0.01783727 -0.06600000 -0.02316765
v 0.01678278 -0.06600000 -0.02282271
v 0.01182271 -0.06600000 -0.02621722
v 0.01176245 -0.06600000 -0.02732505
v 0.01567494 -0.06600000 -0.02276245
v 0.01359972 -0.06600000 -0.02349270
v 0.01277375 -0.06600000 -0.02423345
v 0.01199097 -0.06600000 -0.02841074
v 0.02017729 -0.06600000 -0.02778278
v 0.02023755 -0.06600000 -0.02667494
v 0.02000903 -0.06600000 -0.02558926
v 0.01950730 -0.06600000 -0.02459972
v 0.01458926 -0.06600000 -0.02299097
v 0.01216765 -0.06600000 -0.02516273
v 0.01249270 -0.06600000 -0.02940028
v 0.01922625 -0.06600000 -0.02976655
v 0.01983235 -0.06600000 -0.02883727
v 0.01876655 -0.06600000 -0.02377375
v 0.01323345 -0.06600000 -0.03022625
v 0.01741074 -0.06600000 -0.03100903
v 0.01840028 -0.06600000 -0.03050730
v 0.01632505 -0.06600000 -0.03123755
v 0.01416273 -0.06600000 -0.03083235
v 0.01521722 -0.06600000 -0.03117729
v 0.01783727 -0.06125000 -0.02316765
v 0.01876655 -0.06125000 -0.02377375
v 0.01950730 -0.06125000 -0.02459972
v 0.02000903 -0.06125000 -0.02558926
v 0.02023755 -0.06125000 -0.02667494
v 0.02017729 -0.06125000 -0.02778278
v 0.01983235 -0.06125000 -0.02883727
v 0.01922625 -0.06125000 -0.02976655
v 0.01840028 -0.06125000 -0.03050730
v 0.01741074 -0.06125000 -0.03100903
v 0.01632505 -0.06125000 -0.03123755
v 0.01521722 -0.06125000 -0.03117729
v 0.01416273 -0.06125000 -0.03083235
v 0.01323345 -0.06125000 -0.03022625
v 0.01249270 -0.06125000 -0.02940028
v 0.01199097 -0.06125000 -0.02841074
v 0.01176245 -0.06125000 -0.02732505
v 0.01182271 -0.06125000 -0.02621722
v 0.01216765 -0.06125000 -0.02516273
v 0.01277375 -0.06125000 -0.02423345
v 0.01359972 -0.06125000 -0.02349270
v 0.01458926 -0.06125000 -0.02299097
v 0.01567494 -0.06125000 -0.02276245
v 0.01678278 -0.06125000 -0.02282271
v 0.01772919 -0.06100000 -0.02339308
v 0.01860381 -0.06100000 -0.02396353
v 0.01930099 -0.06100000 -0.02474091
v 0.01977320 -0.06100000 -0.02567225
v 0.01998828 -0.06100000 -0.02669406
v 0.01993157 -0.06100000 -0.02773673
v 0.01960692 -0.06100000 -0.02872919
v 0.01903647 -0.06100000 -0.02960381
v 0.01825909 -0.06100000 -0.03030099
v 0.01732775 -0.06100000 -0.03077320
v 0.01630593 -0.06100000 -0.03098828
v 0.01526327 -0.06100000 -0.03093157
v 0.01427081 -0.06100000 -0.03060692
v 0.01339619 -0.06100000 -0.03003647
v 0.01269901 -0.06100000 -0.02925909
v 0.01222680 -0.06100000 -0.02832775
v 0.01201172 -0.06100000 -0.02730593
v 0.01206843 -0.06100000 -0.02626327
v 0.01239308 -0.06100000 -0.02527080
v 0.01296353 -0.06100000 -0.02439619
v 0.01374091 -0.06100000 -0.02369901
v 0.01467225 -0.06100000 -0.02322680
v 0.01569407 -0.06100000 -0.02301172
v 0.01673673 -0.06100000 -0.02306843
v 0.01864003 -0.06100627 -0.02392130
v 0.01934690 -0.06100627 -0.02470949
v 0.01982568 -0.06100627 -0.02565378
v 0.02004375 -0.06100627 -0.02668981
v 0.01998625 -0.06100627 -0.02774698
v 0.01965708 -0.06100627 -0.02875324
v 0.01907870 -0.06100627 -0.02964003
v 0.01829051 -0.06100627 -0.03034690
v 0.01734622 -0.06100627 -0.03082568
v 0.01631019 -0.06100627 -0.03104375
v 0.01525302 -0.06100627 -0.03098625
v 0.01424676 -0.06100627 -0.03065708
v 0.01335997 -0.06100627 -0.03007870
v 0.01265310 -0.06100627 -0.02929051
v 0.01217432 -0.06100627 -0.02834622
v 0.01195625 -0.06100627 -0.02731019
v 0.01201375 -0.06100627 -0.02625302
v 0.01234291 -0.06100627 -0.02524676
v 0.01292130 -0.06100627 -0.02435997
v 0.01370949 -0.06100627 -0.02365310
v 0.01465378 -0.06100627 -0.02317432
v 0.01568981 -0.06100627 -0.02295625
v 0.01674698 -0.06100627 -0.02301375
v 0.01775324 -0.06100627 -0.02334291
v 0.01867442 -0.06102476 -0.02388119
v 0.01939050 -0.06102476 -0.02467965
v 0.01987552 -0.06102476 -0.02563624
v 0.02009644 -0.06102476 -0.02668577
v 0.02003818 -0.06102476 -0.02775671
v 0.01970473 -0.06102476 -0.02877609
v 0.01911881 -0.06102476 -0.02967442
v 0.01832035 -0.06102476 -0.03039050
v 0.01736376 -0.06102476 -0.03087552
v 0.01631423 -0.06102476 -0.03109644
v 0.01524329 -0.06102476 -0.03103818
v 0.01422391 -0.06102476 -0.03070473
v 0.01332558 -0.06102476 -0.03011881
v 0.01260950 -0.06102476 -0.02932035
v 0.01212448 -0.06102476 -0.02836376
v 0.01190356 -0.06102476 -0.02731423
v 0.01196182 -0.06102476 -0.02624329
v 0.01229527 -0.06102476 -0.02522391
v 0.01288119 -0.06102476 -0.02432558
v 0.01367965 -0.06102476 -0.02360950
v 0.01463624 -0.06102476 -0.02312448
v 0.01568577 -0.06102476 -0.02290356
v 0.01675671 -0.06102476 -0.02296182
v 0.01777609 -0.06102476 -0.02329527
v 0.01870528 -0.06105454 -0.02384520
v 0.01942962 -0.06105454 -0.02465288
v 0.01992024 -0.06105454 -0.02562051
v 0.02014370 -0.06105454 -0.02668214
v 0.02008477 -0.06105454 -0.02776544
v 0.01974748 -0.06105454 -0.02879658
v 0.01915480 -0.06105454 -0.02970528
v 0.01834712 -0.06105454 -0.03042962
v 0.01737949 -0.06105454 -0.03092024
v 0.01631786 -0.06105454 -0.03114370
v 0.01523456 -0.06105454 -0.03108477
v 0.01420342 -0.06105454 -0.03074748
v 0.01329472 -0.06105454 -0.03015480
v 0.01257038 -0.06105454 -0.02934712
v 0.01207976 -0.06105454 -0.02837949
v 0.01185630 -0.06105454 -0.02731786
v 0.01191523 -0.06105454 -0.02623456
v 0.01225252 -0.06105454 -0.02520342
v 0.01284520 -0.06105454 -0.02429472
v 0.01365288 -0.06105454 -0.02357038
v 0.01462051 -0.06105454 -0.02307976
v 0.01568214 -0.06105454 -0.02285630
v 0.01676544 -0.06105454 -0.02291523
v 0.01779658 -0.06105454 -0.02325252
v 0.01873105 -0.06109413 -0.02381515
v 0.01946229 -0.06109413 -0.02463052
v 0.01995758 -0.06109413 -0.02560737
v 0.02018317 -0.06109413 -0.02667912
v 0.02012368 -0.06109413 -0.02777273
v 0.01978317 -0.06109413 -0.02881369
v 0.01918485 -0.06109413 -0.02973105
v 0.01836948 -0.06109413 -0.03046229
v 0.01739263 -0.06109413 -0.03095758
v 0.01632088 -0.06109413 -0.03118317
v 0.01522727 -0.06109413 -0.03112368
v 0.01418631 -0.06109413 -0.03078317
v 0.01326895 -0.06109413 -0.03018485
v 0.01253771 -0.06109413 -0.02936948
v 0.01204242 -0.06109413 -0.02839263
v 0.01181683 -0.06109413 -0.02732088
v 0.01187632 -0.06109413 -0.02622727
v 0.01221683 -0.06109413 -0.02518631
v 0.01281515 -0.06109413 -0.02426895
v 0.01363052 -0.06109413 -0.02353771
v 0.01460737 -0.06109413 -0.02304242
v 0.01567912 -0.06109413 -0.02281683
v 0.01677273 -0.06109413 -0.02287632
v 0.01781369 -0.06109413 -0.02321683
v 0.01875044 -0.06114153 -0.02379254
v 0.01948687 -0.06114153 -0.02461370
v 0.01998568 -0.06114153 -0.02559748
v 0.02021287 -0.06114153 -0.02667684
v 0.02015296 -0.06114153 -0.02777822
v 0.01981003 -0.06114153 -0.02882657
v 0.01920746 -0.06114153 -0.02975044
v 0.01838630 -0.06114153 -0.03048687
v 0.01740252 -0.06114153 -0.03098568
v 0.01632316 -0.06114153 -0.03121287
v 0.01522178 -0.06114153 -0.03115296
v 0.01417343 -0.06114153 -0.03081003
v 0.01324956 -0.06114153 -0.03020746
v 0.01251313 -0.06114153 -0.02938630
v 0.01201432 -0.06114153 -0.02840252
v 0.01178713 -0.06114153 -0.02732316
v 0.01184704 -0.06114153 -0.02622178
v 0.01218997 -0.06114153 -0.02517343
v 0.01279254 -0.06114153 -0.02424956
v 0.01361370 -0.06114153 -0.02351313
v 0.01459748 -0.06114153 -0.02301432
v 0.01567684 -0.06114153 -0.02278714
v 0.01677822 -0.06114153 -0.02284704
v 0.01782657 -0.06114153 -0.02318997
v 0.01876247 -0.06119437 -0.02377851
v 0.01950213 -0.06119437 -0.02460326
v 0.02000312 -0.06119437 -0.02559134
v 0.02023130 -0.06119437 -0.02667542
v 0.02017113 -0.06119437 -0.02778162
v 0.01982670 -0.06119437 -0.02883456
v 0.01922149 -0.06119437 -0.02976247
v 0.01839674 -0.06119437 -0.03050213
v 0.01740866 -0.06119437 -0.03100312
v 0.01632458 -0.06119437 -0.03123130
v 0.01521838 -0.06119437 -0.03117113
v 0.01416544 -0.06119437 -0.03082670
v 0.01323753 -0.06119437 -0.03022149
v 0.01249787 -0.06119437 -0.02939674
v 0.01199688 -0.06119437 -0.02840866
v 0.01176870 -0.06119437 -0.02732458
v 0.01182887 -0.06119437 -0.02621838
v 0.01217330 -0.06119437 -0.02516544
v 0.01277851 -0.06119437 -0.02423753
v 0.01360326 -0.06119437 -0.02349787
v 0.01459134 -0.06119437 -0.02299688
v 0.01567542 -0.06119437 -0.02276870
v 0.01678162 -0.06119437 -0.02282887
v 0.01783456 -0.06119437 -0.02317330
v 0.01581966 -0.06100000 -0.02464901
v 0.01387381 -0.06100000 -0.02598068
v 0.01812619 -0.06100000 -0.02801932
v 0.01794585 -0.06100000 -0.02566832
v 0.01618034 -0.06100000 -0.02935099
v 0.01405415 -0.06100000 -0.02833167
v 0.01484674 -0.06350000 -0.02531485
v 0.01581966 -0.06350000 -0.02464901
v 0.01387381 -0.06350000 -0.02598068
v 0.01396398 -0.06350000 -0.02715618
v 0.01405415 -0.06350000 -0.02833167
v 0.01511725 -0.06350000 -0.02884133
v 0.01618034 -0.06350000 -0.02935099
v 0.01688275 -0.06350000 -0.02515867
v 0.01794585 -0.06350000 -0.02566832
v 0.01715326 -0.06350000 -0.02868515
v 0.01812619 -0.06350000 -0.02801932
v 0.01803602 -0.06350000 -0.02684382
v 0.01444988 -0.06350000 -0.02567075
v 0.01415867 -0.06350000 -0.02611725
v 0.01399293 -0.06350000 -0.02662390
v 0.01637610 -0.06350000 -0.02499294
v 0.01584382 -0.06350000 -0.02496398
v 0.01532218 -0.06350000 -0.02507378
v 0.01407378 -0.06350000 -0.02767782
v 0.01431485 -0.06350000 -0.02815326
v 0.01467075 -0.06350000 -0.02855012
v 0.01562390 -0.06350000 -0.02900707
v 0.01615618 -0.06350000 -0.02903602
v 0.01667782 -0.06350000 -0.02892622
v 0.01755012 -0.06350000 -0.02832925
v 0.01784133 -0.06350000 -0.02788275
v 0.01800707 -0.06350000 -0.02737610
v 0.01792622 -0.06350000 -0.02632218
v 0.01768515 -0.06350000 -0.02584673
v 0.01732925 -0.06350000 -0.02544988
v 0.01600000 -0.06467895 -0.02700000
vt 3.92699075 0.00000000
vt 6.28318548 -0.06130500
vt 3.92699075 -0.00000000
vt 0.00000000 0.67319840
vt 0.78539819 0.44879895
vt 5.49778700 1.34639680
vt 5.23598766 1.12199736
vt 6.54498482 -1.83259571
vt 6.02138615 0.00044500
vt 0.00260800 -0.00494881
vt 2.87979317 0.89759791
vt 4.71238899 -2.09439516
vt -0.00117895 -0.00000000
vt 0.00103528 -0.00386370
vt 0.78539819 -1.83259571
vt -0.00386370 -0.00103528
vt 3.66519141 -1.83259571
vt 3.14159274 -0.06130500
vt 1.70169604 -0.00117895
vt 2.87979317 -0.00000000
vt 1.30899692 -0.03200000
vt -0.00135000 -0.00658827
vt 3.14159274 -0.03695000
vt -0.00300520 -0.00725520
vt 6.54498482 1.12199736
vt 1.04719758 0.00044500
vt -0.00000000 0.00400000
vt 3.66519141 1.57079637
vt 5.75958633 1.12199736
vt -0.00027358 -0.00455785
vt 5.49778700 -0.03675000
vt -0.00059809 -0.00498076
vt 1.57079637 0.22439948
vt -0.00204200 0.00117895
vt 0.52359879 -2.09439516
vt 6.02138615 -3.14159274
vt 2.61799383 -0.03695000
vt 3.66519141 -2.35619450
vt 2.09439516 0.44879895
vt -0.00198498 -0.00258687
vt 0.00000000 0.00235790
vt 4.45058966 -2.35619450
vt 5.75958633 0.00044500
vt 5.23598766 0.00000000
vt 0.26179940 1.34639680
vt 0.52359879 -0.03200000
vt 3.14159274 1.34639680
vt 1.04719758 0.67319840
vt -0.00204200 -0.00557885
vt -0.00212500 -0.00793061
vt -0.00069881 -0.00164200
vt 1.57079637 0.00000000
vt -0.00346410 0.00200000
vt -0.00151349 -0.00156443
vt 0.26179940 -0.03200000
vt 4.97418833 -1.57079637
vt -0.00205500 -0.00205500
vt 6.28318548 0.89759791
vt 0.00300520 -0.00124480
vt 3.92699075 -0.03695000
vt 0.00000000 0.00000000
vt 2.61799383 0.89759791
vt 2.09439516 0.22439948
vt 1.04719758 -3.14159274
vt 6.54498482 -2.61799383
vt 4.71238899 -1.83259571
vt 0.39269909 -0.00117895
vt 3.01069307 -0.00117895
vt 5.23598766 0.00000000
vt 6.02138615 -1.83259571
vt 3.14159274 0.00044500
vt 3.53429174 -0.00117895
vt 6.28318548 0.44879895
vt -0.00102750 -0.00383468
vt 3.66519141 -1.57079637
vt -0.00117895 0.00000000
vt 0.78539819 -1.57079637
vt -0.00103528 0.00386370
vt 0.26179940 -2.87979317
vt 4.45058966 -0.06130500
vt -0.00386370 0.00103528
vt 1.57079637 -0.03675000
vt 6.02138615 -1.57079637
vt 2.87979317 0.00000000
vt 5.23598766 0.89759791
vt 3.66519141 0.22439948
vt 4.71238899 -0.00000000
vt 4.71238899 1.57079637
vt 1.04719758 1.34639680
vt 6.54498482 -1.57079637
vt 1.04719758 1.57079637
vt 3.14159274 0.67319840
vt -0.00260800 -0.00355119
vt 1.04719758 -0.03200000
vt 3.40339208 -0.03675000
vt 0.00200000 0.00346410
vt -0.00257051 -0.00156443
vt 0.00233827 -0.00560000
vt 0.52359879 -0.06130500
vt 6.28318548 1.34639680
vt 5.75958633 -2.87979317
vt 3.92699075 1.34639680
vt 5.49778700 -0.00000000
vt 6.02138615 -2.61799383
vt 5.49778700 -0.06130500
vt 5.75958633 -0.03200000
vt 0.52359879 -0.00000000
vt 0.13089970 -0.00117895
vt 1.57079637 0.00000000
vt 2.09439516 -0.03200000
vt 6.02138615 -2.35619450
vt -0.00235790 -0.00250000
vt 0.00282843 -0.00282843
vt 3.66519141 -3.14159274
vt 0.26179940 1.12199736
vt 1.57079637 1.12199736
vt 0.00190919 -0.00234081
vt 4.18879032 -3.14159274
vt 2.61799383 1.57079637
vt 1.57079637 -1.57079637
vt 2.09439516 -2.09439516
vt 1.30899692 -0.03695000
vt 3.14159274 -0.03200000
vt 3.66519141 -0.03675000
vt 2.35619450 1.12199736
vt 4.97418833 0.00044500
vt -0.00177968 -0.00102750
vt 3.92699075 0.44879895
vt -0.00235790 -0.00000000
vt 3.40339208 0.22439948
vt 1.83259571 -1.83259571
vt -0.00235790 -0.00000000
vt 4.05789042 -0.00117895
vt 3.66519141 0.44879895
vt 6.54498482 -0.06130500
vt 5.89048624 -0.00117895
vt 2.09439516 0.00000000
vt 0.00386370 -0.00103528
vt 2.35619450 -0.03695000
vt 3.92699075 0.89759791
vt 0.78539819 0.67319840
vt 4.45058966 0.67319840
vt 6.28318548 0.00044500
vt 0.26179940 -2.61799383
vt 3.66519141 0.00044500
vt -0.00117895 0.00000000
vt 4.71238899 1.34639680
vt 3.66519141 -2.61799383
vt 0.00103528 0.00386370
vt 0.00000000 -0.00235790
vt 2.35619450 -2.61799383
vt 2.87979317 -0.03695000
vt 5.75958633 0.00000000
vt 5.49778700 -2.87979317
vt 0.52359879 0.67319840
vt 2.48709416 -0.00117895
vt 6.28318548 1.12199736
vt -0.00000000 -0.00250000
vt 5.49778700 0.67319840
vt 2.09439516 0.00044500
vt 5.23598766 -0.03200000
vt -0.00000000 -0.00235790
vt -0.00000000 -0.00250000
vt 0.78539819 -2.35619450
vt 3.40339208 -1.57079637
vt 0.00135000 -0.00658827
vt 6.28318548 -3.14159274
vt 4.71238899 -2.87979317
vt 0.26179940 0.00000000
vt 6.02138615 -2.87979317
vt 4.71238899 -0.03675000
vt 3.14159274 -0.00000000
vt 3.92699075 -2.35619450
vt 4.71238899 0.67319840
vt 0.52359879 0.00000000
vt 2.74889350 -0.00117895
vt 4.71238899 -3.14159274
vt 1.04719758 0.44879895
vt 2.35619450 0.00000000
vt 1.57079637 0.00044500
vt 1.83259571 0.67319840
vt 6.28318548 -2.61799383
vt 1.57079637 1.34639680
vt 0.52359879 -1.57079637
vt 3.40339208 -2.61799383
vt 0.00198498 -0.00258687
vt 3.92699075 -0.06130500
vt 3.66519141 -0.03200000
vt 6.54498482 0.67319840
vt -0.00102750 -0.00027532
vt 0.00177968 -0.00308250
vt 1.17809725 -0.00117895
vt 0.78539819 -0.06130500
vt 1.83259571 -3.14159274
vt 3.14159274 -2.87979317
vt 3.66519141 -0.06130500
vt -0.00204200 -0.00589475
vt 5.49778700 -3.14159274
vt 1.04719758 0.00000000
vt 0.00368061 -0.00637500
vt 0.00282843 0.00282843
vt 1.04719758 -0.00000000
vt 3.40339208 -2.87979317
vt 0.00109998 -0.00835518
vt 0.00053187 -0.00007002
vt 2.61799383 -0.03675000
vt 2.61799383 -0.00000000
vt 6.28318548 -1.57079637
vt 0.00000000 -0.00400000
vt 1.83259571 1.34639680
vt 0.26179940 -1.83259571
vt 4.97418833 -0.06130500
vt 5.23598766 0.00044500
vt 2.35619450 0.22439948
vt 5.75958633 -0.03675000
vt 3.14159274 0.44879895
vt 2.61799383 0.00000000
vt 6.28318548 0.00000000
vt 4.71238899 -0.03200000
vt 0.00204200 -0.00117895
vt 0.91629785 -0.00117895
vt -0.00200000 -0.00346410
vt 1.04719758 -1.57079637
vt 4.45058966 -0.03695000
vt 2.35619450 1.57079637
vt 5.10508823 -0.00117895
vt 3.14159274 -2.35619450
vt 1.57079637 0.89759791
vt 0.52359879 -3.14159274
vt 0.00346410 0.00200000
vt 4.18879032 -0.00000000
vt 1.30899692 0.22439948
vt 1.04719758 -2.87979317
vt -0.00135000 -0.00191173
vt 5.23598766 -0.03675000
vt -0.00235790 0.00000000
vt 4.45058966 1.34639680
vt 0.78539819 1.34639680
vt 3.40339208 0.00044500
vt -0.00204200 -0.00149485
vt 3.66519141 1.34639680
vt 0.00233827 -0.00290000
vt 5.49778700 -0.03200000
vt 0.78539819 -3.14159274
vt 0.52359879 1.12199736
vt 4.71238899 -0.06130500
vt -0.00102100 -0.00530527
vt 1.30899692 1.57079637
vt 5.23598766 -3.14159274
vt 1.83259571 -0.03695000
vt 4.45058966 -2.61799383
vt 6.15228558 -0.00117895
vt -0.00260800 -0.00494881
vt 0.00000000 1.12199736
vt 2.61799383 -2.61799383
vt 6.28318548 0.22439948
vt 1.83259571 -0.06130500
vt 0.00205500 -0.00205500
vt 3.92699075 0.67319840
vt 4.71238899 -2.35619450
vt 3.14159274 -1.57079637
vt 4.71238899 1.12199736
vt 3.66519141 0.67319840
vt 4.45058966 0.00044500
vt 2.87979317 0.00000000
vt 0.78539819 0.00044500
vt 1.83259571 -0.03675000
vt 0.52359879 -0.03675000
vt 1.04719758 1.12199736
vt 2.61799383 0.00000000
vt 4.71238899 0.00000000
vt 0.26179940 0.67319840
vt 5.23598766 0.22439948
vt 5.49778700 -2.35619450
vt 0.00260800 -0.00355119
vt -0.00257051 -0.00550927
vt -0.00000000 -0.00411000
vt 3.66519141 0.89759791
vt 4.97418833 0.67319840
vt 2.61799383 1.12199736
vt 6.54498482 -2.87979317
vt 5.23598766 -1.57079637
vt 2.35619450 0.89759791
vt 4.45058966 -0.03675000
vt 6.02138615 0.89759791
vt 4.97418833 -0.03695000
vt 2.35619450 0.67319840
vt 4.84328890 -0.00117895
vt 5.49778700 0.00000000
vt 1.83259571 -2.09439516
vt 6.28318548 -0.03675000
vt 4.71238899 -2.61799383
vt -0.00000000 -0.03200000
vt 1.30899692 1.12199736
vt 1.04719758 -2.61799383
vt 5.75958633 -2.61799383
vt 1.30899692 0.89759791
vt 1.30899692 0.67319840
vt 4.45058966 -2.09439516
vt 0.00000000 -0.00695000
vt 4.97418833 -2.61799383
vt 1.30899692 -3.14159274
vt 3.40339208 0.44879895
vt 6.02138615 -0.03695000
vt -0.00212500 -0.00056939
vt 0.00200000 -0.00346410
vt 4.71238899 -0.03695000
vt 5.23598766 -2.35619450
vt 3.92699075 -1.83259571
vt 0.78539819 1.57079637
vt 4.45058966 -0.03200000
vt 3.40339208 0.89759791
vt -0.00200000 0.00346410
vt 0.78539819 -0.03200000
vt 0.00300520 -0.00725520
vt 2.35619450 1.34639680
vt 5.23598766 1.57079637
vt 2.35619450 -3.14159274
vt 4.71238899 0.00000000
vt 6.54498482 0.44879895
vt 2.87979317 1.12199736
vt 1.30899692 -2.61799383
vt 4.18879032 -0.03675000
vt -0.00151349 -0.00550927
vt 4.97418833 -3.14159274
vt 5.75958633 -3.14159274
vt 0.26179940 -0.06130500
vt 4.97418833 -1.83259571
vt -0.00410518 -0.00315002
vt 0.26179940 -0.03675000
vt 0.00000000 0.22439948
vt 1.30899692 1.34639680
vt 1.57079637 -2.87979317
vt 5.49778700 0.00000000
vt 3.14159274 -1.83259571
vt 4.45058966 0.00000000
vt 3.40339208 0.00000000
vt 5.36688757 -0.00117895
vt 3.40339208 -0.00000000
vt 2.87979317 0.44879895
vt 0.00145310 -0.00350810
vt 1.43989658 -0.00117895
vt 2.35619450 -0.06130500
vt 2.87979317 -2.35619450
vt 1.30899692 -1.57079637
vt 6.02138615 -2.09439516
vt 4.18879032 -0.03200000
vt 0.78539819 1.12199736
vt -0.00053187 -0.00007002
vt 0.00109998 -0.00014482
vt 2.09439516 -1.57079637
vt 1.83259571 1.57079637
vt 0.00212500 -0.00056939
vt 1.30899692 0.00000000
vt 2.87979317 -2.61799383
vt 3.79609108 -0.00117895
vt 2.87979317 -2.87979317
vt 0.52359879 0.00000000
vt 1.57079637 -0.00000000
vt 3.14159274 1.57079637
vt 0.78539819 0.22439948
vt 1.30899692 -0.06130500
vt -0.00117895 -0.00000000
vt 0.00000000 -0.00155000
vt 2.35619450 -1.57079637
vt 0.26179940 0.00000000
vt 4.18879032 -2.09439516
vt -0.00306300 -0.00176842
vt 6.02138615 1.12199736
vt 2.09439516 -0.06130500
vt 5.49778700 0.22439948
vt -0.00425000 -0.00425000
vt 6.02138615 0.00000000
vt 2.35619450 0.00000000
vt 5.23598766 0.67319840
vt 6.28318548 1.57079637
vt 1.30899692 -2.35619450
vt 2.87979317 -1.57079637
vt 1.57079637 -2.61799383
vt 3.66519141 -2.87979317
vt -0.00408400 -0.00235790
vt 6.28318548 -0.03200000
vt 0.00410518 -0.00315002
vt 2.61799383 0.44879895
vt 4.97418833 1.57079637
vt 3.92699075 -2.09439516
vt 4.45058966 -1.83259571
vt 0.00000000 0.44879895
vt 3.40339208 0.00000000
vt 2.35619450 -2.35619450
vt 3.40339208 -0.03695000
vt 3.66519141 -2.09439516
vt 2.09439516 -0.03675000
vt 4.18879032 -2.61799383
vt 5.23598766 1.34639680
vt 5.49778700 1.12199736
vt 1.57079637 -2.35619450
vt -0.00408400 -0.00353685
vt 2.09439516 -2.87979317
vt 4.18879032 0.00044500
vt 0.00410518 -0.00534998
vt 0.26179940 0.44879895
vt 0.00000000 0.00000000
vt 4.97418833 -2.35619450
vt 1.83259571 0.00044500
vt 0.00000000 0.89759791
vt 6.28318548 -2.87979317
vt 0.00212500 -0.00793061
vt 0.78539819 -0.03675000
vt 0.26179940 -0.03695000
vt 3.92699075 -0.03200000
vt 1.83259571 0.89759791
vt -0.00235790 0.00000000
vt 0.00145310 -0.00060190
vt 0.78539819 0.00000000
vt 0.52359879 -1.83259571
vt 5.75958633 0.44879895
vt 6.54498482 -0.03675000
vt -0.00270000 -0.00425000
vt -0.00408400 -0.00471580
vt 1.30899692 -2.09439516
vt -0.00346410 -0.00200000
vt 0.00000000 -0.00250000
vt 1.57079637 1.57079637
vt 4.18879032 -1.83259571
vt -0.00000000 -0.00250000
vt 0.26179940 1.57079637
vt 6.02138615 0.00000000
vt 1.57079637 -0.03200000
vt -0.00000000 -0.00471580
vt 1.30899692 -0.00000000
vt 0.78539819 0.89759791
vt 1.83259571 1.12199736
vt 2.22529483 -0.00117895
vt 2.09439516 0.67319840
vt 6.02138615 -0.00000000
vt 5.49778700 -2.61799383
vt -0.00000000 -0.00353685
vt 6.02138615 -0.03675000
vt -0.00282843 0.00282843
vt 5.23598766 -0.06130500
vt 4.18879032 -2.87979317
vt -0.00368061 -0.00637500
vt 0.00346410 -0.00200000
vt -0.00348591 -0.00498076
vt 0.00400000 -0.00000000
vt 3.40339208 -3.14159274
vt 2.35619450 -0.00000000
vt 2.87979317 0.00044500
vt 1.04719758 -2.09439516
vt 5.49778700 -0.03695000
vt 4.45058966 -1.57079637
vt -0.00103528 -0.00386370
vt 4.97418833 -0.00000000
vt 3.40339208 1.12199736
vt 4.31968975 -0.00117895
vt 2.61799383 -0.06130500
vt 0.00000000 -0.00850000
vt 4.97418833 -2.09439516
vt 0.78539819 0.00000000
vt -0.00059809 -0.00209294
vt -0.00109998 -0.00835518
vt 5.75958633 -0.00000000
vt 2.61799383 -2.87979317
vt 2.87979317 -1.83259571
vt 4.18879032 -1.57079637
vt 1.83259571 -1.57079637
vt -0.00235790 0.00000000
vt 1.57079637 -3.14159274
vt 0.00102750 -0.00383468
vt 6.02138615 0.22439948
vt 0.00053187 -0.00403998
vt -0.00233827 -0.00560000
vt 0.00102750 -0.00027532
vt -0.00000000 -0.00205500
vt 3.14159274 -2.09439516
vt 0.26179940 0.89759791
vt 5.75958633 -0.06130500
vt 4.97418833 -0.03675000
vt 0.00000000 -0.03695000
vt 2.35619450 -1.83259571
vt 3.14159274 0.00000000
vt 2.09439516 1.57079637
vt 1.83259571 0.00000000
vt 4.45058966 -3.14159274
vt 5.23598766 -2.61799383
vt 0.00177968 -0.00102750
vt 0.00270000 -0.00425000
vt 0.00000000 0.00000000
vt -0.00006958 -0.00406536
vt 0.52359879 1.34639680
vt 2.61799383 1.34639680
vt -0.00368061 -0.00212500
vt 1.83259571 -2.35619450
vt 1.30899692 -1.83259571
vt 4.18879032 0.67319840
vt 5.75958633 -0.03695000
vt -0.00000000 1.57079637
vt 4.45058966 0.44879895
vt 4.97418833 0.00000000
vt 5.23598766 0.44879895
vt 0.52359879 -2.61799383
vt 5.23598766 -0.03695000
vt 1.04719758 -2.35619450
vt 3.14159274 0.00000000
vt 4.71238899 0.22439948
vt 3.40339208 -2.35619450
vt 3.40339208 1.34639680
vt 2.61799383 0.67319840
vt 1.83259571 -2.87979317
vt 0.00000000 0.00044500
vt 0.52359879 0.44879895
vt -0.00300520 -0.00124480
vt 6.02138615 -0.03200000
vt 4.97418833 0.22439948
vt 1.57079637 0.44879895
vt -0.00233827 -0.00290000
vt 2.87979317 1.57079637
vt 6.02138615 1.57079637
vt -0.00109998 -0.00014482
vt 3.14159274 -3.14159274
vt 2.09439516 0.00000000
vt 6.28318548 0.00000000
vt 0.52359879 0.89759791
vt 0.52359879 -2.35619450
vt 2.61799383 -2.35619450
vt 0.00190919 -0.00615919
vt 0.00069881 -0.00164200
vt 1.30899692 0.00044500
vt -0.00190919 -0.00615919
vt 6.54498482 -0.00000000
vt 4.71238899 -1.57079637
vt 0.78539819 -2.87979317
vt 1.96349537 -0.00117895
vt 1.83259571 -0.00000000
vt -0.00348591 -0.00209294
vt 2.09439516 -1.83259571
vt 3.92699075 -2.87979317
vt 5.75958633 0.67319840
vt 3.14159274 1.12199736
vt 0.00198498 -0.00152313
vt 1.30899692 0.00000000
vt 5.49778700 0.44879895
vt 4.45058966 0.89759791
vt 4.18879032 0.89759791
vt 1.83259571 0.44879895
vt 5.75958633 0.22439948
vt 2.35619450 0.00044500
vt 6.28318548 -2.09439516
vt 5.49778700 0.89759791
vt 2.09439516 -2.61799383
vt 4.18879032 -0.06130500
vt 5.75958633 1.57079637
vt 4.71238899 0.44879895
vt 4.18879032 -2.35619450
vt 2.61799383 -1.57079637
vt 0.26179940 0.00044500
vt 4.97418833 1.12199736
vt 3.66519141 0.00000000
vt 0.65449846 -0.00117895
vt 3.92699075 1.57079637
vt -0.00198498 -0.00152313
vt -0.00401442 -0.00300834
vt 3.40339208 -2.09439516
vt 2.87979317 0.22439948
vt 3.92699075 0.00000000
vt 3.14159274 -2.61799383
vt 2.61799383 -1.83259571
vt 4.71238899 0.89759791
vt 2.61799383 -0.03200000
vt 2.09439516 -0.03695000
vt 6.02138615 0.67319840
vt 3.92699075 -1.57079637
vt 2.09439516 -0.00000000
vt -0.00069881 -0.00685800
vt -0.00306300 -0.00530527
vt 4.18879032 1.34639680
vt -0.00102100 -0.00176842
vt 1.57079637 -0.06130500
vt 4.58148909 -0.00117895
vt 0.00386370 0.00103528
vt 4.45058966 -0.00000000
vt 0.78539819 -0.00000000
vt 5.62868690 -0.00117895
vt 2.09439516 1.12199736
vt 0.26179940 -3.14159274
vt 2.35619450 -2.09439516
vt 3.66519141 -0.03695000
vt 0.78539819 -0.03695000
vt 6.54498482 1.34639680
vt 0.00368061 -0.00212500
vt 4.97418833 -2.87979317
vt 0.52359879 0.22439948
vt 1.83259571 0.22439948
vt 1.57079637 -2.09439516
vt 3.14159274 0.89759791
vt 6.02138615 1.34639680
vt 2.61799383 -3.14159274
vt 3.92699075 -2.61799383
vt 0.26179940 -2.09439516
vt -0.00381042 -0.00251585
vt 3.40339208 -0.06130500
vt 2.35619450 -0.03200000
vt 0.00425000 -0.00425000
vt -0.00027358 -0.00251585
vt 5.23598766 -1.83259571
vt 6.28318548 0.00000000
vt 0.78539819 -2.61799383
vt 2.87979317 -0.03675000
vt 6.28318548 -2.35619450
vt 5.75958633 -1.83259571
vt -0.00053187 -0.00403998
vt 4.45058966 0.22439948
vt 1.04719758 -1.83259571
vt 3.66519141 0.00000000
vt 3.92699075 -3.14159274
vt 0.00135000 -0.00191173
vt 2.61799383 0.22439948
vt 4.97418833 1.34639680
vt 5.49778700 -2.09439516
vt 1.04719758 0.00000000
vt 2.35619450 -2.87979317
vt 3.66519141 1.12199736
vt 4.18879032 0.44879895
vt 2.35619450 -0.03675000
vt 0.26179940 -1.57079637
vt 2.61799383 0.00044500
vt 2.09439516 -2.35619450
vt 4.97418833 -0.03200000
vt 5.23598766 -0.00000000
vt 0.00204200 0.00117895
vt 3.92699075 1.12199736
vt 6.28318548 -1.83259571
vt 1.04719758 0.89759791
vt 5.75958633 -2.35619450
vt -0.00204200 -0.00117895
vt 6.02138615 -0.06130500
vt 1.30899692 -2.87979317
vt 2.87979317 -0.06130500
vt 1.83259571 -0.03200000
vt 0.52359879 -2.87979317
vt 1.57079637 -0.03695000
vt 1.30899692 -0.03675000
vt 3.92699075 0.00044500
vt 1.57079637 0.67319840
vt 2.87979317 -3.14159274
vt 3.92699075 -0.03675000
vt -0.00000000 -0.00000000
vt 4.45058966 -2.87979317
vt 0.26179940 -2.35619450
vt 4.97418833 0.44879895
vt 4.45058966 0.00000000
vt 4.18879032 1.12199736
vt 0.52359879 1.57079637
vt 3.40339208 0.67319840
vt 2.35619450 0.44879895
vt 3.14159274 0.22439948
vt 6.54498482 -3.14159274
vt 0.26179940 0.22439948
vt -0.00145310 -0.00060190
vt 1.83259571 0.00000000
vt 5.49778700 -1.83259571
vt 5.49778700 -1.57079637
vt -0.00190919 -0.00234081
vt 0.78539819 -2.09439516
vt 5.75958633 -2.09439516
vt -0.00381042 -0.00455785
vt 2.87979317 1.34639680
vt 6.54498482 -2.09439516
vt 6.54498482 0.89759791
vt 4.45058966 1.57079637
vt 2.87979317 -0.03200000
vt 1.30899692 0.44879895
vt 0.00069881 -0.00685800
vt -0.00282843 -0.00282843
vt 1.83259571 -2.61799383
vt 5.49778700 1.57079637
vt 6.28318548 0.67319840
vt -0.00145310 -0.00350810
vt 4.18879032 -0.03695000
vt 4.97418833 0.00000000
vt 3.92699075 0.22439948
vt -0.00177968 -0.00308250
vt 5.75958633 1.34639680
vt 2.87979317 -2.09439516
vt 1.04719758 0.22439948
vt 2.09439516 -3.14159274
vt 2.87979317 0.67319840
vt 0.00000000 -0.00250000
vt 2.09439516 1.34639680
vt -0.00006958 -0.00300834
vt 6.02138615 0.44879895
vt 4.18879032 -0.00000000
vt 5.23598766 -2.09439516
vt -0.00410518 -0.00534998
vt 3.14159274 -0.03675000
vt 0.52359879 -0.03695000
vt 4.97418833 0.89759791
vt 6.54498482 0.00000000
vt 5.23598766 -2.87979317
vt 0.00000000 1.34639680
vt 5.75958633 0.00000000
vt -0.00401442 -0.00406536
vt 1.57079637 -1.83259571
vt 4.45058966 1.12199736
vt 3.40339208 -1.83259571
vt 4.18879032 0.00000000
vt 4.71238899 0.00044500
vt 4.18879032 1.57079637
vt -0.00117895 0.00000000
vt 5.75958633 -1.57079637
vt 6.28318548 -0.03695000
vt 3.27249241 -0.00117895
vt -0.00400000 -0.00000000
vt 4.18879032 0.22439948
vt 0.26179940 -0.00000000
vt 1.04719758 -0.06130500
vt 6.54498482 -2.35619450
vt 5.75958633 0.89759791
vt 5.49778700 0.00044500
vt 1.04719758 -0.03675000
vt 2.09439516 0.89759791
vt 3.40339208 -0.03200000
vt 0.52359879 0.00044500
vt 1.04719758 -0.03695000
vt 3.40339208 1.57079637
vt 2.61799383 -2.09439516
vt 3.66519141 -0.00000000
vt 6.54498482 0.22439948
usemtl Nobel
f 470/1 469/2 468/3
f 447/4 469/2 470/5
f 470/6 451/7 466/8
f 467/9 451/7 470/10
f 468/3 467/9 470/11
f 470/12 464/13 449/14
f 465/15 464/13 470/16
f 466/8 465/15 470/17
f 470/18 462/19 461/20
f 463/21 462/19 470/22
f 449/14 463/21 470/23
f 470/24 460/25 459/26
f 445/27 460/25 470/28
f 461/20 445/27 470/29
f 470/30 443/31 454/32
f 458/33 443/31 470/34
f 459/26 458/33 470/35
f 470/36 452/37 440/38
f 453/39 452/37 470/40
f 454/32 453/39 470/41
f 470/42 456/43 455/44
f 457/45 456/43 470/46
f 440/38 457/45 470/47
f 455/44 447/48 470/49
f 266/50 290/51 267/52
f 290/51 291/53 267/52
f 267/52 291/53 268/54
f 291/53 292/55 268/54
f 268/54 292/55 269/56
f 292/55 293/57 269/56
f 269/56 293/57 270/58
f 293/57 294/59 270/58
f 270/58 294/59 271/60
f 294/59 295/61 271/60
f 271/60 295/61 272/62
f 295/61 296/63 272/62
f 272/62 296/63 273/64
f 296/63 297/65 273/64
f 273/64 297/65 274/66
f 297/65 298/67 274/66
f 274/66 298/67 275/68
f 298/67 299/69 275/68
f 275/68 299/69 276/70
f 299/69 300/71 276/70
f 276/70 300/71 277/72
f 300/71 301/73 277/72
f 277/72 301/73 278/74
f 301/73 302/75 278/74
f 278/74 302/75 279/76
f 302/75 303/77 279/76
f 279/76 303/77 280/78
f 303/77 304/79 280/78
f 280/78 304/79 281/80
f 304/79 305/81 281/80
f 281/80 305/81 282/82
f 305/81 306/83 282/82
f 282/82 306/83 283/84
f 306/83 307/85 283/84
f 283/84 307/85 284/86
f 307/85 308/87 284/86
f 284/86 308/87 285/88
f 308/87 309/89 285/88
f 285/88 309/89 286/90
f 309/89 310/91 286/90
f 286/90 310/91 287/92
f 310/91 311/93 287/92
f 287/92 311/93 288/94
f 311/93 312/95 288/94
f 288/94 312/95 289/96
f 312/95 313/97 289/96
f 289/96 313/97 266/98
f 313/97 290/99 266/98
f 313/100 314/101 290/51
f 314/101 315/102 290/51
f 290/51 315/102 291/53
f 315/102 316/103 291/53
f 291/53 316/103 292/55
f 316/103 317/104 292/55
f 292/55 317/104 293/57
f 317/104 318/105 293/57
f 293/57 318/105 294/59
f 318/105 319/106 294/59
f 294/59 319/106 295/61
f 319/106 320/107 295/61
f 295/61 320/107 296/63
f 320/107 321/108 296/63
f 296/63 321/108 297/65
f 321/108 322/109 297/65
f 297/65 322/109 298/67
f 322/109 323/110 298/67
f 298/67 323/110 299/69
f 323/110 324/111 299/69
f 299/69 324/111 300/71
f 324/111 325/112 300/71
f 300/71 325/112 301/73
f 325/112 326/113 301/73
f 301/73 326/113 302/75
f 326/113 327/114 302/75
f 302/75 327/114 303/77
f 327/114 328/115 303/77
f 303/77 328/115 304/79
f 328/115 329/116 304/79
f 304/79 329/116 305/81
f 329/116 330/117 305/81
f 305/81 330/117 306/83
f 330/117 331/118 306/83
f 306/83 331/118 307/85
f 331/118 332/119 307/85
f 307/85 332/119 308/87
f 332/119 333/120 308/87
f 308/87 333/120 309/89
f 333/120 334/121 309/89
f 309/89 334/121 310/91
f 334/121 335/122 310/91
f 310/91 335/122 311/93
f 335/122 336/123 311/93
f 311/93 336/123 312/95
f 336/123 337/124 312/95
f 312/95 337/124 313/97
f 337/124 314/125 313/97
f 337/126 338/127 314/101
f 338/127 339/128 314/101
f 314/101 339/128 315/102
f 339/128 340/129 315/102
f 315/102 340/129 316/103
f 340/129 341/130 316/103
f 316/103 341/130 317/104
f 341/130 342/131 317/104
f 317/104 342/131 318/105
f 342/131 343/132 318/105
f 318/105 343/132 319/106
f 343/132 344/133 319/106
f 319/106 344/133 320/107
f 344/133 345/134 320/107
f 320/107 345/134 321/108
f 345/134 346/135 321/108
f 321/108 346/135 322/109
f 346/135 347/136 322/109
f 322/109 347/136 323/110
f 347/136 348/137 323/110
f 323/110 348/137 324/111
f 348/137 349/138 324/111
f 324/111 349/138 325/112
f 349/138 350/139 325/112
f 325/112 350/139 326/113
f 350/139 351/140 326/113
f 326/113 351/140 327/114
f 351/140 352/141 327/114
f 327/114 352/141 328/115
f 352/141 353/142 328/115
f 328/115 353/142 329/116
f 353/142 354/143 329/116
f 329/116 354/143 330/117
f 354/143 355/144 330/117
f 330/117 355/144 331/118
f 355/144 356/145 331/118
f 331/118 356/145 332/119
f 356/145 357/146 332/119
f 332/119 357/146 333/120
f 357/146 358/147 333/120
f 333/120 358/147 334/121
f 358/147 359/148 334/121
f 334/121 359/148 335/122
f 359/148 360/149 335/122
f 335/122 360/149 336/123
f 360/149 361/150 336/123
f 336/123 361/150 337/124
f 361/150 338/151 337/124
f 361/152 362/153 338/127
f 362/153 363/154 338/127
f 338/127 363/154 339/128
f 363/154 364/155 339/128
f 339/128 364/155 340/129
f 364/155 365/156 340/129
f 340/129 365/156 341/130
f 365/156 366/157 341/130
f 341/130 366/157 342/131
f 366/157 367/158 342/131
f 342/131 367/158 343/132
f 367/158 368/159 343/132
f 343/132 368/159 344/133
f 368/159 369/160 344/133
f 344/133 369/160 345/134
f 369/160 370/161 345/134
f 345/134 370/161 346/135
f 370/161 371/162 346/135
f 346/135 371/162 347/136
f 371/162 372/163 347/136
f 347/136 372/163 348/137
f 372/163 373/164 348/137
f 348/137 373/164 349/138
f 373/164 374/165 349/138
f 349/138 374/165 350/139
f 374/165 375/166 350/139
f 350/139 375/166 351/140
f 375/166 376/167 351/140
f 351/140 376/167 352/141
f 376/167 377/168 352/141
f 352/141 377/168 353/142
f 377/168 378/169 353/142
f 353/142 378/169 354/143
f 378/169 379/170 354/143
f 354/143 379/170 355/144
f 379/170 380/171 355/144
f 355/144 380/171 356/145
f 380/171 381/172 356/145
f 356/145 381/172 357/146
f 381/172 382/173 357/146
f 357/146 382/173 358/147
f 382/173 383/174 358/147
f 358/147 383/174 359/148
f 383/174 384/175 359/148
f 359/148 384/175 360/149
f 384/175 385/176 360/149
f 360/149 385/176 361/150
f 385/176 362/177 361/150
f 385/178 386/179 362/153
f 386/179 387/180 362/153
f 362/153 387/180 363/154
f 387/180 388/181 363/154
f 363/154 388/181 364/155
f 388/181 389/182 364/155
f 364/155 389/182 365/156
f 389/182 390/183 365/156
f 365/156 390/183 366/157
f 390/183 391/184 366/157
f 366/157 391/184 367/158
f 391/184 392/185 367/158
f 367/158 392/185 368/159
f 392/185 393/186 368/159
f 368/159 393/186 369/160
f 393/186 394/187 369/160
f 369/160 394/187 370/161
f 394/187 395/188 370/161
f 370/161 395/188 371/162
f 395/188 396/189 371/162
f 371/162 396/189 372/163
f 396/189 397/190 372/163
f 372/163 397/190 373/164
f 397/190 398/191 373/164
f 373/164 398/191 374/165
f 398/191 399/192 374/165
f 374/165 399/192 375/166
f 399/192 400/193 375/166
f 375/166 400/193 376/167
f 400/193 401/194 376/167
f 376/167 401/194 377/168
f 401/194 402/195 377/168
f 377/168 402/195 378/169
f 402/195 403/196 378/169
f 378/169 403/196 379/170
f 403/196 404/197 379/170
f 379/170 404/197 380/171
f 404/197 405/198 380/171
f 380/171 405/198 381/172
f 405/198 406/199 381/172
f 381/172 406/199 382/173
f 406/199 407/200 382/173
f 382/173 407/200 383/174
f 407/200 408/201 383/174
f 383/174 408/201 384/175
f 408/201 409/202 384/175
f 384/175 409/202 385/176
f 409/202 386/203 385/176
f 409/204 410/205 386/179
f 410/205 411/206 386/179
f 386/179 411/206 387/180
f 411/206 412/207 387/180
f 387/180 412/207 388/181
f 412/207 413/208 388/181
f 388/181 413/208 389/182
f 413/208 414/209 389/182
f 389/182 414/209 390/183
f 414/209 415/210 390/183
f 390/183 415/210 391/184
f 415/210 416/211 391/184
f 391/184 416/211 392/185
f 416/211 417/212 392/185
f 392/185 417/212 393/186
f 417/212 418/213 393/186
f 393/186 418/213 394/187
f 418/213 419/214 394/187
f 394/187 419/214 395/188
f 419/214 420/215 395/188
f 395/188 420/215 396/189
f 420/215 421/216 396/189
f 396/189 421/216 397/190
f 421/216 422/217 397/190
f 397/190 422/217 398/191
f 422/217 423/218 398/191
f 398/191 423/218 399/192
f 423/218 424/219 399/192
f 399/192 424/219 400/193
f 424/219 425/220 400/193
f 400/193 425/220 401/194
f 425/220 426/221 401/194
f 401/194 426/221 402/195
f 426/221 427/222 402/195
f 402/195 427/222 403/196
f 427/222 428/223 403/196
f 403/196 428/223 404/197
f 428/223 429/224 404/197
f 404/197 429/224 405/198
f 429/224 430/225 405/198
f 405/198 430/225 406/199
f 430/225 431/226 406/199
f 406/199 431/226 407/200
f 431/226 432/227 407/200
f 407/200 432/227 408/201
f 432/227 433/228 408/201
f 408/201 433/228 409/202
f 433/228 410/229 409/202
f 433/230 243/231 410/205
f 243/231 244/232 410/205
f 410/205 244/232 411/206
f 244/232 245/233 411/206
f 411/206 245/233 412/207
f 245/233 246/234 412/207
f 412/207 246/234 413/208
f 246/234 247/235 413/208
f 413/208 247/235 414/209
f 247/235 248/236 414/209
f 414/209 248/236 415/210
f 248/236 249/237 415/210
f 415/210 249/237 416/211
f 249/237 250/238 416/211
f 416/211 250/238 417/212
f 250/238 251/239 417/212
f 417/212 251/239 418/213
f 251/239 252/240 418/213
f 418/213 252/240 419/214
f 252/240 253/241 419/214
f 419/214 253/241 420/215
f 253/241 254/242 420/215
f 420/215 254/242 421/216
f 254/242 255/243 421/216
f 421/216 255/243 422/217
f 255/243 256/244 422/217
f 422/217 256/244 423/218
f 256/244 257/245 423/218
f 423/218 257/245 424/219
f 257/245 258/246 424/219
f 424/219 258/246 425/220
f 258/246 259/247 425/220
f 425/220 259/247 426/221
f 259/247 260/248 426/221
f 426/221 260/248 427/222
f 260/248 261/249 427/222
f 427/222 261/249 428/223
f 261/249 262/250 428/223
f 428/223 262/250 429/224
f 262/250 263/251 429/224
f 429/224 263/251 430/225
f 263/251 264/252 430/225
f 430/225 264/252 431/226
f 264/252 265/253 431/226
f 431/226 265/253 432/227
f 265/253 242/254 432/227
f 432/227 242/254 433/228
f 242/254 243/255 433/228
f 61/256 98/257 60/258
f 98/257 99/259 60/258
f 60/258 99/259 59/260
f 99/259 100/261 59/260
f 59/260 100/261 58/262
f 100/261 101/263 58/262
f 58/262 101/263 57/264
f 101/263 102/265 57/264
f 57/264 102/265 56/266
f 102/265 103/267 56/266
f 56/266 103/267 55/268
f 103/267 104/269 55/268
f 55/268 104/269 54/270
f 104/269 105/271 54/270
f 54/270 105/271 53/272
f 105/271 106/273 53/272
f 53/272 106/273 52/274
f 106/273 107/275 52/274
f 52/274 107/275 51/276
f 107/275 108/277 51/276
f 51/276 108/277 50/278
f 108/277 109/279 50/278
f 50/278 109/279 73/280
f 109/279 110/281 73/280
f 73/280 110/281 72/282
f 110/281 111/283 72/282
f 72/282 111/283 71/284
f 111/283 112/285 71/284
f 71/284 112/285 70/286
f 112/285 113/287 70/286
f 70/286 113/287 69/288
f 113/287 114/289 69/288
f 69/288 114/289 68/290
f 114/289 115/291 68/290
f 68/290 115/291 67/292
f 115/291 116/293 67/292
f 67/292 116/293 66/294
f 116/293 117/295 66/294
f 66/294 117/295 65/296
f 117/295 118/297 65/296
f 65/296 118/297 64/298
f 118/297 119/299 64/298
f 64/298 119/299 63/300
f 119/299 120/301 63/300
f 63/300 120/301 62/302
f 120/301 121/303 62/302
f 62/302 121/303 61/304
f 121/303 98/305 61/304
f 98/257 122/306 99/259
f 122/306 123/307 99/259
f 99/259 123/307 100/261
f 123/307 124/308 100/261
f 100/261 124/308 101/263
f 124/308 125/309 101/263
f 101/263 125/309 102/265
f 125/309 126/310 102/265
f 102/265 126/310 103/267
f 126/310 127/311 103/267
f 103/267 127/311 104/269
f 127/311 128/312 104/269
f 104/269 128/312 105/271
f 128/312 129/313 105/271
f 105/271 129/313 106/273
f 129/313 130/314 106/273
f 106/273 130/314 107/275
f 130/314 131/315 107/275
f 107/275 131/315 108/277
f 131/315 132/316 108/277
f 108/277 132/316 109/279
f 132/316 133/317 109/279
f 109/279 133/317 110/281
f 133/317 134/318 110/281
f 110/281 134/318 111/283
f 134/318 135/319 111/283
f 111/283 135/319 112/285
f 135/319 136/320 112/285
f 112/285 136/320 113/287
f 136/320 137/321 113/287
f 113/287 137/321 114/289
f 137/321 138/322 114/289
f 114/289 138/322 115/291
f 138/322 139/323 115/291
f 115/291 139/323 116/293
f 139/323 140/324 116/293
f 116/293 140/324 117/295
f 140/324 141/325 117/295
f 117/295 141/325 118/297
f 141/325 142/326 118/297
f 118/297 142/326 119/299
f 142/326 143/327 119/299
f 119/299 143/327 120/301
f 143/327 144/328 120/301
f 120/301 144/328 121/303
f 144/328 145/329 121/303
f 121/303 145/329 98/305
f 145/329 122/330 98/305
f 122/306 146/331 123/307
f 146/331 147/332 123/307
f 123/307 147/332 124/308
f 147/332 148/333 124/308
f 124/308 148/333 125/309
f 148/333 149/334 125/309
f 125/309 149/334 126/310
f 149/334 150/335 126/310
f 126/310 150/335 127/311
f 150/335 151/336 127/311
f 127/311 151/336 128/312
f 151/336 152/337 128/312
f 128/312 152/337 129/313
f 152/337 153/338 129/313
f 129/313 153/338 130/314
f 153/338 154/339 130/314
f 130/314 154/339 131/315
f 154/339 155/340 131/315
f 131/315 155/340 132/316
f 155/340 156/341 132/316
f 132/316 156/341 133/317
f 156/341 157/342 133/317
f 133/317 157/342 134/318
f 157/342 158/343 134/318
f 134/318 158/343 135/319
f 158/343 159/344 135/319
f 135/319 159/344 136/320
f 159/344 160/345 136/320
f 136/320 160/345 137/321
f 160/345 161/346 137/321
f 137/321 161/346 138/322
f 161/346 162/347 138/322
f 138/322 162/347 139/323
f 162/347 163/348 139/323
f 139/323 163/348 140/324
f 163/348 164/349 140/324
f 140/324 164/349 141/325
f 164/349 165/350 141/325
f 141/325 165/350 142/326
f 165/350 166/351 142/326
f 142/326 166/351 143/327
f 166/351 167/352 143/327
f 143/327 167/352 144/328
f 167/352 168/353 144/328
f 144/328 168/353 145/329
f 168/353 169/354 145/329
f 145/329 169/354 122/330
f 169/354 146/355 122/330
f 146/331 170/356 147/332
f 170/356 171/357 147/332
f 147/332 171/357 148/333
f 171/357 172/358 148/333
f 148/333 172/358 149/334
f 172/358 173/359 149/334
f 149/334 173/359 150/335
f 173/359 174/360 150/335
f 150/335 174/360 151/336
f 174/360 175/361 151/336
f 151/336 175/361 152/337
f 175/361 176/362 152/337
f 152/337 176/362 153/338
f 176/362 177/363 153/338
f 153/338 177/363 154/339
f 177/363 178/364 154/339
f 154/339 178/364 155/340
f 178/364 179/365 155/340
f 155/340 179/365 156/341
f 179/365 180/366 156/341
f 156/341 180/366 157/342
f 180/366 181/367 157/342
f 157/342 181/367 158/343
f 181/367 182/368 158/343
f 158/343 182/368 159/344
f 182/368 183/369 159/344
f 159/344 183/369 160/345
f 183/369 184/370 160/345
f 160/345 184/370 161/346
f 184/370 185/371 161/346
f 161/346 185/371 162/347
f 185/371 186/372 162/347
f 162/347 186/372 163/348
f 186/372 187/373 163/348
f 163/348 187/373 164/349
f 187/373 188/374 164/349
f 164/349 188/374 165/350
f 188/374 189/375 165/350
f 165/350 189/375 166/351
f 189/375 190/376 166/351
f 166/351 190/376 167/352
f 190/376 191/377 167/352
f 167/352 191/377 168/353
f 191/377 192/378 168/353
f 168/353 192/378 169/354
f 192/378 193/379 169/354
f 169/354 193/379 146/355
f 193/379 170/380 146/355
f 170/356 194/381 171/357
f 194/381 195/382 171/357
f 171/357 195/382 172/358
f 195/382 196/383 172/358
f 172/358 196/383 173/359
f 196/383 197/384 173/359
f 173/359 197/384 174/360
f 197/384 198/385 174/360
f 174/360 198/385 175/361
f 198/385 199/386 175/361
f 175/361 199/386 176/362
f 199/386 200/387 176/362
f 176/362 200/387 177/363
f 200/387 201/388 177/363
f 177/363 201/388 178/364
f 201/388 202/389 178/364
f 178/364 202/389 179/365
f 202/389 203/390 179/365
f 179/365 203/390 180/366
f 203/390 204/391 180/366
f 180/366 204/391 181/367
f 204/391 205/392 181/367
f 181/367 205/392 182/368
f 205/392 206/393 182/368
f 182/368 206/393 183/369
f 206/393 207/394 183/369
f 183/369 207/394 184/370
f 207/394 208/395 184/370
f 184/370 208/395 185/371
f 208/395 209/396 185/371
f 185/371 209/396 186/372
f 209/396 210/397 186/372
f 186/372 210/397 187/373
f 210/397 211/398 187/373
f 187/373 211/398 188/374
f 211/398 212/399 188/374
f 188/374 212/399 189/375
f 212/399 213/400 189/375
f 189/375 213/400 190/376
f 213/400 214/401 190/376
f 190/376 214/401 191/377
f 214/401 215/402 191/377
f 191/377 215/402 192/378
f 215/402 216/403 192/378
f 192/378 216/403 193/379
f 216/403 217/404 193/379
f 193/379 217/404 170/380
f 217/404 194/405 170/380
f 194/381 75/406 195/382
f 75/406 76/407 195/382
f 195/382 76/407 196/383
f 76/407 77/408 196/383
f 196/383 77/408 197/384
f 77/408 78/409 197/384
f 197/384 78/409 198/385
f 78/409 79/410 198/385
f 198/385 79/410 199/386
f 79/410 80/411 199/386
f 199/386 80/411 200/387
f 80/411 81/412 200/387
f 200/387 81/412 201/388
f 81/412 82/413 201/388
f 201/388 82/413 202/389
f 82/413 83/414 202/389
f 202/389 83/414 203/390
f 83/414 84/415 203/390
f 203/390 84/415 204/391
f 84/415 85/416 204/391
f 204/391 85/416 205/392
f 85/416 86/417 205/392
f 205/392 86/417 206/393
f 86/417 87/418 206/393
f 206/393 87/418 207/394
f 87/418 88/419 207/394
f 207/394 88/419 208/395
f 88/419 89/420 208/395
f 208/395 89/420 209/396
f 89/420 90/421 209/396
f 209/396 90/421 210/397
f 90/421 91/422 210/397
f 210/397 91/422 211/398
f 91/422 92/423 211/398
f 211/398 92/423 212/399
f 92/423 93/424 212/399
f 212/399 93/424 213/400
f 93/424 94/425 213/400
f 213/400 94/425 214/401
f 94/425 95/426 214/401
f 214/401 95/426 215/402
f 95/426 96/427 215/402
f 215/402 96/427 216/403
f 96/427 97/428 216/403
f 216/403 97/428 217/404
f 97/428 74/429 217/404
f 217/404 74/429 194/405
f 74/429 75/430 194/405
f 26/431 24/432 27/433
f 24/432 23/434 27/433
f 27/433 23/434 28/435
f 23/434 22/436 28/435
f 28/435 22/436 29/437
f 22/436 21/438 29/437
f 29/437 21/438 30/439
f 21/438 20/440 30/439
f 30/439 20/440 31/441
f 20/440 19/442 31/441
f 31/441 19/442 32/443
f 19/442 18/444 32/443
f 32/443 18/444 33/445
f 18/444 17/446 33/445
f 33/445 17/446 34/447
f 17/446 16/448 34/447
f 34/447 16/448 35/449
f 16/448 15/450 35/449
f 35/449 15/450 36/451
f 15/450 14/452 36/451
f 36/451 14/452 37/453
f 14/452 13/454 37/453
f 37/453 13/454 38/455
f 13/454 12/456 38/455
f 38/455 12/456 39/457
f 12/456 11/458 39/457
f 39/457 11/458 40/459
f 11/458 10/460 40/459
f 40/459 10/460 41/461
f 10/460 9/462 41/461
f 41/461 9/462 42/463
f 9/462 8/464 42/463
f 42/463 8/464 43/465
f 8/464 7/466 43/465
f 43/465 7/466 44/467
f 7/466 6/468 44/467
f 44/467 6/468 45/469
f 6/468 5/470 45/469
f 45/469 5/470 46/471
f 5/470 4/472 46/471
f 46/471 4/472 47/473
f 4/472 3/474 47/473
f 47/473 3/474 48/475
f 3/474 2/476 48/475
f 48/475 2/476 49/477
f 2/476 1/478 49/477
f 49/477 1/478 26/479
f 1/478 24/480 26/479
f 50/481 27/482 51/483
f 27/482 28/484 51/483
f 51/483 28/484 52/485
f 28/484 29/486 52/485
f 52/485 29/486 53/487
f 29/486 30/488 53/487
f 53/487 30/488 54/489
f 30/488 31/490 54/489
f 54/489 31/490 55/491
f 31/490 32/492 55/491
f 55/491 32/492 56/493
f 32/492 33/494 56/493
f 56/493 33/494 57/495
f 33/494 34/496 57/495
f 57/495 34/496 58/497
f 34/496 35/498 58/497
f 58/497 35/498 59/499
f 35/498 36/500 59/499
f 59/499 36/500 60/501
f 36/500 37/502 60/501
f 60/501 37/502 61/503
f 37/502 38/504 61/503
f 61/503 38/504 62/505
f 38/504 39/506 62/505
f 62/505 39/506 63/507
f 39/506 40/508 63/507
f 63/507 40/508 64/509
f 40/508 41/510 64/509
f 64/509 41/510 65/511
f 41/510 42/512 65/511
f 65/511 42/512 66/513
f 42/512 43/514 66/513
f 66/513 43/514 67/515
f 43/514 44/516 67/515
f 67/515 44/516 68/517
f 44/516 45/518 68/517
f 68/517 45/518 69/519
f 45/518 46/520 69/519
f 69/519 46/520 70/521
f 46/520 47/522 70/521
f 70/521 47/522 71/523
f 47/522 48/524 71/523
f 71/523 48/524 72/525
f 48/524 49/526 72/525
f 72/525 49/526 73/527
f 49/526 26/528 73/527
f 73/527 26/528 50/529
f 26/528 27/530 50/529
f 446/531 438/532 445/533
f 438/532 439/534 445/533
f 445/533 439/534 444/535
f 441/531 434/536 447/537
f 434/536 437/534 447/537
f 447/537 437/534 448/538
f 448/539 451/540 467/541
f 467/541 468/542 448/539
f 468/542 469/543 448/539
f 448/539 469/543 447/544
f 466/545 451/540 450/546
f 449/547 464/548 450/546
f 464/548 465/549 450/546
f 450/546 465/549 466/545
f 448/550 437/534 451/551
f 437/534 436/552 451/551
f 451/551 436/552 450/531
f 450/531 436/553 449/554
f 436/553 438/534 449/554
f 449/554 438/534 446/555
f 446/556 445/557 461/558
f 461/558 462/559 446/556
f 462/559 463/560 446/556
f 446/556 463/560 449/547
f 444/561 443/562 458/563
f 458/563 459/564 444/561
f 459/564 460/565 444/561
f 444/561 460/565 445/557
f 444/566 439/534 443/567
f 439/534 435/568 443/567
f 443/567 435/568 442/531
f 442/555 435/534 440/554
f 435/534 434/553 440/554
f 440/554 434/553 441/531
f 441/569 447/544 455/570
f 455/570 456/571 441/569
f 456/571 457/572 441/569
f 441/569 457/572 440/573
f 442/574 440/573 452/575
f 452/575 453/576 442/574
f 453/576 454/577 442/574
f 442/574 454/577 443/562
f 22/578 23/579 25/580
f 23/579 24/581 25/580
f 25/580 24/581 1/582
f 19/583 20/584 25/580
f 20/584 21/585 25/580
f 25/580 21/585 22/578
f 16/586 17/587 25/580
f 17/587 18/588 25/580
f 25/580 18/588 19/583
f 13/589 14/590 25/580
f 14/590 15/591 25/580
f 25/580 15/591 16/586
f 10/592 11/593 25/580
f 11/593 12/594 25/580
f 25/580 12/594 13/589
f 7/595 8/596 25/580
f 8/596 9/597 25/580
f 25/580 9/597 10/592
f 4/598 5/599 25/580
f 5/599 6/600 25/580
f 25/580 6/600 7/595
f 1/582 2/601 25/580
f 2/601 3/602 25/580
f 25/580 3/602 4/598
f 87/603 219/604 88/605
f 219/604 222/606 88/605
f 88/605 222/606 89/607
f 222/606 230/608 89/607
f 89/607 230/608 90/609
f 230/608 223/610 90/609
f 90/609 223/610 91/611
f 223/610 224/612 91/611
f 91/611 224/612 92/613
f 224/612 231/614 92/613
f 92/613 231/614 93/615
f 231/614 220/616 93/615
f 93/615 220/616 94/617
f 220/616 221/618 94/617
f 94/617 221/618 95/619
f 221/618 225/620 95/619
f 95/619 225/620 96/621
f 225/620 232/622 96/621
f 96/621 232/622 97/623
f 232/622 236/624 97/623
f 97/623 236/624 74/625
f 236/624 240/626 74/625
f 74/625 240/626 75/627
f 240/626 241/628 75/627
f 75/627 241/628 76/629
f 241/628 239/630 76/629
f 76/629 239/630 77/631
f 239/630 237/632 77/631
f 77/631 237/632 78/633
f 237/632 238/634 78/633
f 78/633 238/634 79/635
f 238/634 233/636 79/635
f 79/635 233/636 80/637
f 233/636 234/638 80/637
f 80/637 234/638 81/639
f 234/638 226/640 81/639
f 81/639 226/640 82/641
f 226/640 227/642 82/641
f 82/641 227/642 83/643
f 227/642 228/644 83/643
f 83/643 228/644 84/645
f 228/644 229/646 84/645
f 84/645 229/646 85/647
f 229/646 235/648 85/647
f 85/647 235/648 86/649
f 235/648 218/650 86/649
f 86/649 218/650 87/603
f 218/650 219/604 87/603
f 434/651 288/652 289/653
f 268/654 437/655 267/656
f 437/655 434/651 267/656
f 267/656 434/651 266/657
f 434/651 289/653 266/657
f 280/658 439/546 279/659
f 439/546 438/660 279/659
f 279/659 438/660 278/661
f 438/660 277/662 278/661
f 274/663 275/664 438/660
f 275/664 276/665 438/660
f 438/660 276/665 277/662
f 280/658 281/666 439/546
f 281/666 282/667 439/546
f 439/546 282/667 435/668
f 282/667 283/669 435/668
f 435/668 283/669 284/670
f 274/663 438/660 273/671
f 438/660 436/672 273/671
f 273/671 436/672 272/673
f 268/654 269/674 437/655
f 269/674 270/675 437/655
f 437/655 270/675 436/672
f 270/675 271/676 436/672
f 436/672 271/676 272/673
f 284/670 285/677 435/668
f 285/677 286/678 435/668
f 435/668 286/678 434/651
f 286/678 287/679 434/651
f 434/651 287/679 288/652
f 242/680 235/681 243/682
f 235/681 229/683 243/682
f 243/682 229/683 244/684
f 229/683 228/685 244/684
f 244/684 228/685 245/686
f 228/685 227/687 245/686
f 245/686 227/687 246/688
f 227/687 226/689 246/688
f 246/688 226/689 247/690
f 226/689 234/691 247/690
f 247/690 234/691 248/692
f 234/691 233/693 248/692
f 248/692 233/693 249/694
f 233/693 238/695 249/694
f 249/694 238/695 250/696
f 238/695 237/697 250/696
f 250/696 237/697 251/698
f 237/697 239/699 251/698
f 251/698 239/699 252/700
f 239/699 241/701 252/700
f 252/700 241/701 253/702
f 241/701 240/703 253/702
f 253/702 240/703 254/704
f 240/703 236/705 254/704
f 254/704 236/705 255/706
f 236/705 232/707 255/706
f 255/706 232/707 256/708
f 232/707 225/709 256/708
f 256/708 225/709 257/710
f 225/709 221/711 257/710
f 257/710 221/711 258/712
f 221/711 220/713 258/712
f 258/712 220/713 259/714
f 220/713 231/715 259/714
f 259/714 231/715 260/716
f 231/715 224/717 260/716
f 260/716 224/717 261/718
f 224/717 223/719 261/718
f 261/718 223/719 262/720
f 223/719 230/721 262/720
f 262/720 230/721 263/722
f 230/721 222/723 263/722
f 263/722 222/723 264/724
f 222/723 219/725 264/724
f 264/724 219/725 265/726
f 219/725 218/727 265/726
f 265/726 218/727 242/728
f 218/727 235/729 242/728
